<?xml version="1.0" encoding="UTF-8"?>
<!DOCTYPE svg PUBLIC "-//W3C//DTD SVG 1.1//EN" "http://www.w3.org/Graphics/SVG/1.1/DTD/svg11.dtd">
<!-- Creator: CorelDRAW 2017 -->
<svg xmlns="http://www.w3.org/2000/svg" xml:space="preserve" width="72.4746mm" height="98.4672mm" version="1.1" style="shape-rendering:geometricPrecision; text-rendering:geometricPrecision; image-rendering:optimizeQuality; fill-rule:evenodd; clip-rule:evenodd"
viewBox="0 0 7247.46 9846.72"
 xmlns:xlink="http://www.w3.org/1999/xlink">
 <defs>
  <style type="text/css">
   <![CDATA[
    .fil0 {fill:#005779;fill-rule:nonzero}
   ]]>
  </style>
 </defs>
 <g id="Capa_x0020_1">
  <metadata id="CorelCorpID_0Corel-Layer"/>
  <g id="_1368169430512">
   <path class="fil0" d="M667.04 3353.44l-53.55 0 0.17 1243.64 184.22 1535.61c-44.02,56.16 -267.97,356.34 -340.18,735.33 -79.06,415.18 163.65,840.39 174.02,858.27l46.36 -26.81c-2.44,-4.2 -243.14,-425.66 -167.75,-821.41 75.85,-398.39 333.63,-717.33 336.24,-720.51l7.19 -8.82 -186.72 -1554.83 0 -1240.47z"/>
   <path class="fil0" d="M1589.06 7750.07c-375.22,-478.41 -97.65,-1044.9 -94.79,-1050.54l-47.84 -24.09c-3,5.92 -293.55,597.07 95.5,1101.3l87.27 1071.14 53.38 -4.34 -88.55 -1087.16 -4.97 -6.31z"/>
   <polygon class="fil0" points="4286.26,8693.84 4050.5,9267.18 3942.94,9336.5 3607.58,9336.5 2058.57,8860.95 2042.84,8912.14 3595.66,9388.89 3958.67,9390.05 4093.64,9303.13 4337.8,8709.29 4339.81,7909.34 4286.26,7909.34 "/>
   <polygon class="fil0" points="4360.88,7028.32 4583.02,7607.47 4633.01,7588.28 4410.87,7009.13 "/>
   <polygon class="fil0" points="4556.68,6953.18 4506.69,6972.37 4728.84,7551.56 4778.82,7532.37 "/>
   <polygon class="fil0" points="4376.82,5015.2 3796.54,5015.2 3796.54,5068.75 4376.82,5068.75 "/>
   <path class="fil0" d="M4974.97 6194.07l1302.42 0 0 134.27 -752.62 0 0 671.97c0,167.14 -126.26,305.15 -288.36,324.2l0 -666.96 -1.13 -7.66c-32.03,-107.21 -103.96,-280.56 -260.31,-455.82zm-1072.97 -540.49c-155.86,-193.92 -281.42,-348.12 -295,-364.77l-166.86 -177.06 107.77 -304.45 -0.07 -550.76 0.07 0 0 -39.26c1.24,-22.79 38.24,-723.3 -0.14,-1126.07 -2.79,-29.45 -9.42,-57.54 -17.71,-84.95l361.28 0 0 609.89 -50.2 0 0 266.7 50.2 0.56 0 203.77 53.55 0 0 -203.2 941.46 10.54c35.74,26.67 79.55,43.04 127.49,43.04 47.91,0 91.76,-16.37 127.5,-43.04l1012.82 -11.22c35,243.84 112.4,719.53 123.23,784.3l0 191.59 -2030.66 0c-28.47,-96.97 -101.28,-173.81 -197.1,-206.34l0 -477.83 -0.35 -12.21 -8.4 -7.94c-8.64,-8.15 -16.12,-15.2 -163.58,-6.56l-25.19 1.48 0 501.97c-126.89,41.49 -213.78,160.09 -213.78,295.35 0,115.07 63.11,220.24 164.71,274.42l5.93 3.18 567.86 0 0 -53.55 -554.28 0c-80.79,-45.72 -130.67,-130.96 -130.67,-224.05 0,-117.8 79.62,-220.31 193.61,-249.35l20.17 -5.11 0 -492.23c34.36,-1.66 69.5,-2.86 90.42,-2.33l0 495.16 19.86 5.29c80.79,21.62 146.51,83.01 175.02,160.65l-394.45 0 0 53.56 2534.43 0 -0.35 -249.49c-48.05,-294.82 -115.92,-723.16 -134.83,-869.91l0 -177.2 -5.19 0 0 -636.66 -53.55 0 0 636.66 -938.18 0 0 0.81c-15.94,-27.62 -37.22,-51.72 -63.32,-69.82l0 -426.01c55.88,-38.74 92.67,-103.12 92.67,-176.07 0,-9.14 -1.58,-17.82 -2.71,-26.6l546.91 -723.97 424.35 61.49c6.5,-0.57 638.28,-13.69 689.33,335.1 52.04,355.6 4.27,2568.19 0,2759.39l-110.17 82.62 -1935.66 -123.33 -1036.67 0 0 53.55 1034.94 -0.03 1385.36 88.3c-0.03,117.93 0,573.9 0,688.94l-1299.63 0c-200.17,-201.19 -518.3,-395.99 -1022.24,-486.94zm-1175.07 -1514.02l767.43 0 0 63.43 -765.88 0 -1.55 -63.43zm136.06 -1682.43l64.1 -128.2 244.37 179.21 131.8 -46.11 31.79 -42.36 395.04 170.07 46.53 -108.13 -368.9 -158.85 119.63 -159.53 179.52 119.7 38.95 -74.68 561.76 -24.91 497.49 714.69c-3.42,15.17 -5.57,30.83 -5.57,47.03 0,61.8 26.7,117.15 68.72,156.31l0 458.16 8.92 0c-19.33,16.19 -35.59,35.45 -48.29,57.39l0 -0.77 -883.96 0 0 -663.44 -433.98 0c-127.39,-290.02 -533.37,-454.3 -647.92,-495.58zm522.04 -100.44l338.85 145.95 -14.82 34.36 -338.84 -145.95 14.81 -34.36zm692.3 -896.72l27.34 -33.87 83.53 2.15 37.75 427.85 116.49 87.74 395.29 17.25 0 149.58 -963.3 42.68 320.01 -613.65 -17.11 -79.73zm46.67 -505.71l59.83 -486.27c0.63,-3.7 67.24,-368.61 554.88,-409.96 221.41,-18.84 396.81,26.6 521.09,134.87 196.68,171.41 236.12,463.58 248.53,698.99 0.53,9.81 0.99,27.91 1.45,44.87l0.92 31.08 0.39 0 0 3.78c83.22,0 150.91,67.7 150.91,150.92l0 98.84c0,73.74 -53.2,135.05 -123.15,148.14l-39.19 -0.32 -6.18 784.86 9.99 1.45 -436.39 582.68c-17.11,-4.41 -34.75,-7.48 -53.24,-7.48 -6.63,0 -12.87,1.34 -19.33,1.94l-396.52 -562.19 193.29 -8.57 0 -252.06 -429.9 -18.77 -84.17 -63.39 -39.83 -451.7 -90.42 -2.36 182.04 -225.71 -205 -193.64zm410.42 1219.03l403.47 571.99c-46.32,17.67 -84.45,50.9 -108.97,93.34l-458.05 -658.1 163.55 -7.23zm479.42 1335.61c-33.09,0 -64.06,8.15 -92.07,21.59l0 -392.71c28.01,13.44 58.98,21.59 92.07,21.59 23.96,0 46.61,-4.83 68.13,-12.14l0 373.81c-21.52,-7.31 -44.17,-12.14 -68.13,-12.14zm-1119.15 320.96l0 -160.16 912.43 0c-4.48,17.21 -7.62,34.96 -7.62,53.55 0,43.25 13.12,83.43 35.24,117.16l-940.05 -10.55zm1119.15 54.19c-88.65,0 -160.79,-72.15 -160.79,-160.8 0,-88.65 72.14,-160.8 160.79,-160.8 88.66,0 160.8,72.15 160.8,160.8 0,88.65 -72.14,160.8 -160.8,160.8zm206.73 -214.35l916.45 0 0 74.15c0,7.66 1.9,26 5.22,52.21l0 33.8 -949.33 10.55c22.16,-33.73 35.28,-73.91 35.28,-117.16 0,-18.59 -3.14,-36.34 -7.62,-53.55zm-138.57 -579.58l-0.03 0 0 0c-20.75,9.81 -43.68,15.73 -68.13,15.73 -88.65,0 -160.79,-72.14 -160.79,-160.79 0,-88.69 72.14,-160.8 160.79,-160.8 88.66,0 160.8,72.11 160.8,160.8 0,64.2 -38.1,119.31 -92.64,145.06zm36.37 -331.05l445.46 -594.82 148.09 21.45 -504.82 668.27c-19.02,-40.22 -50.17,-73.1 -88.73,-94.9zm459.95 4241.24l0 -618.42 752.62 0 0 -241.37 -53.52 0c0,-114.05 -0.07,-563 0,-685.52l514.78 32.81 146.82 -110.1 0.29 -13.02c2.25,-98.11 54.54,-2407.04 -0.29,-2781.34 -57.82,-395.39 -715.5,-381.63 -739.17,-380.64l-652.46 -94.94 5.39 -686.25c92.82,-19.3 162.78,-101.67 162.78,-200.14l0 -98.84c0,-94.69 -65.02,-173.78 -152.51,-196.92 -0.39,-14.36 -0.81,-28.26 -1.24,-36.52 -12.94,-245.95 -54.99,-551.95 -266.84,-736.56 -135.6,-118.18 -324.06,-167.96 -560.81,-147.85 -528.56,44.8 -602.44,450.39 -603.28,455.61l-55.21 448.35 -292.31 -276.09c-5.79,-5.25 -584.98,-524.08 -1146.21,-15.7 -183.1,165.92 -353.38,529.63 -465.18,809.17l-1087.12 455.58 -245.53 370.49c-217.95,59.3 -520.77,148.02 -536.43,187.14 -1.94,4.84 -11.68,15.07 -21.1,24.91 -55.67,58.28 -171.52,179.56 -195.62,588.96 -30.02,510.65 -39.08,1323.03 -39.08,1329.69 0,29.78 102.2,441.43 136.03,576.87l-185 944.63 80.33 1591.41 53.48 -2.71 -80.01 -1584.82 186.05 -949.93 -1.44 -5.78c-51.44,-205.74 -133.81,-542.57 -135.93,-569.67 0,-6.66 9.1,-817.1 39.02,-1326.55 22.93,-389.75 129.65,-501.47 180.9,-555.13 12.74,-13.33 23.18,-24.23 29.46,-36.33 41.49,-26.92 370.1,-132.05 720.02,-217.95l720.66 0 829.94 -517.63 822.29 0 0 -53.52 -837.6 0 -829.98 517.6 -718.36 0 0 1.59c-13.34,3.35 -66.68,16.89 -139.42,36.19l202.99 -306.35 1511.83 -635.28 811.88 -39.94 -2.65 -53.48 -816.57 40.15 -383.47 160.72c109.36,-266.35 266.31,-590.62 431.59,-740.34 524.65,-475.47 1051.84,-4.76 1073.75,15.21l509.34 481.04 -236.61 293.41 18.38 85.87 -351.05 673.2 -172.01 -114.69 -244.72 326.25 -89.82 31.44 -272.8 -200.03 -120.09 240.17 29.7 9.53c6.39,2.08 640.33,210.18 677.3,598.31 28.44,298.77 14.92,764.54 5.82,989.79l-774.73 0 -10.02 -403.09 -53.55 1.31 10.02 401.78 -10.02 0 0 170.49 14.28 0 21.49 861.8 -18.21 230.19 49.89 174.13 315.31 264.02 -16.76 0 0.18 317.68 46.25 436.63 0.18 1422.79 -72.85 643.92 -945.09 -215.79 -11.93 52.18 1245.55 284.41 166.51 -166.02 -0.56 -11.85c-0.53,-11.4 -52.85,-1141.24 -0.14,-1615.59 49.99,-449.65 238.44,-479.53 240.31,-479.77l-3.07 -26.6 -2.71 -26.64c-9.49,0.95 -232.45,29.42 -287.73,527.12 -50.24,452.05 -6.17,1489.29 -0.67,1612.09l-128.83 128.48 -219.11 -50.02 73.69 -652.92 -0.18 -1428.61 -46.24 -436.63 0 -284.03 998.22 835.95 341.91 953.45 50.37 -18.1 -346.81 -967.07 -1348.85 -1129.63 -42.72 -149.01 17.57 -223.31 -21.45 -863.25 764.54 0 0 541.55 -115.6 326.64 187.99 199.35c3.35,4.1 136.49,167.61 301.91,373.63l-0.67 3.92c1.44,0.24 3.03,0.56 4.48,0.81 252.2,314.08 577.49,724.46 634.93,822.11 95.39,162.07 365.65,891.97 368.37,899.34l50.2 -18.59c-11.19,-30.2 -274.64,-741.75 -372.39,-907.88 -56.55,-96.13 -353.24,-471.77 -599.83,-779.39 359.65,75.18 1034.45,299.93 1229.11,943.47l0 1887.22 0.07 13.83 11.22 8.01c8.78,6.24 215.55,157.76 202.92,499.21 -13.27,357.47 -333.62,649.15 -635.67,724.68l12.98 51.93c321.27,-80.29 662.02,-391.97 676.2,-774.6 12.17,-329.03 -166.3,-497.2 -214.17,-536.18l0 -1157.04c191.74,-19.27 341.91,-181.51 341.91,-378.25z"/>
   <polygon class="fil0" points="3442.91,1342.64 3025.01,1342.64 3025.01,1396.19 3442.91,1396.19 "/>
   <polygon class="fil0" points="3025.01,1562.67 3442.91,1562.67 3442.91,1509.11 3025.01,1509.11 "/>
   <path class="fil0" d="M2980.97 5398.64l46.5 0 194.27 0 46.53 0 0 31.26 -287.3 0 0 -31.26zm86.68 -775.26l113.94 0 0 735.12 -113.94 0 0 -735.12zm30.27 -93.52l53.37 0 0 53.37 -53.37 0 0 -53.37zm0 944.38l53.37 0 0 53.38 -53.37 0 0 -53.38zm210.5 -4.19l0 -111.55 -86.68 0 0 -775.27 -30.27 0 0 -93.52 -46.78 0 0 -148.98 -40.14 0 0 148.98 -46.78 0 0 93.52 -30.3 0 0 775.27 -86.65 0 0 111.55 116.95 0 0 57.57 -86.68 0 0 40.15 86.68 0 133.7 0 81.04 0 0 -40.15 -81.04 0 0 -57.57 116.95 0z"/>
   <path class="fil0" d="M6407.69 9462.82c-3.49,3.88 -9.77,9.04 -23.77,9.04l-150 0 -205.04 0 -373.17 0c-13.97,0 -20.25,-5.12 -23.74,-8.97 -14,-15.41 -14.36,-48.36 -13.23,-61.31l0 -1165.79c0,-158.57 95.08,-300.74 242.18,-362.19 25.76,-10.76 42.44,-35.18 42.44,-62.23l-0.03 -287.94c0,-29.85 -19.69,-56.59 -48.9,-66.68 -6.52,-2.22 -18.69,-6.38 -18.69,-51.68l0 -90.84c0,0 0.03,-22.58 13.4,-36.05 7.66,-7.69 18.73,-11.43 33.9,-11.43l136.78 0 140.05 0c14.39,0 24.87,3.52 31.11,10.4 9.46,10.48 9.92,28.51 9.18,37.5l0 90.42c0,46.71 -9.18,49.74 -15.24,51.79 -29.07,9.74 -48.65,36.48 -48.65,66.57l0 287.34c0,27.41 16.82,52.14 42.9,63.04 146.82,61.56 241.68,203.66 241.68,361.98l0.11 1168.51c0.88,8.29 1.13,42.58 -13.27,58.52zm66.71 -1227.03c0,-179.95 -107.77,-341.42 -274.56,-411.37 -4.84,-2.01 -10.06,-6.67 -10.06,-13.65l0.04 -287.34c0,-7.02 4.87,-13.37 12.06,-15.81 45.55,-15.17 51.83,-58.28 51.83,-102.55l-0.18 -87.28c0.53,-4.58 4.48,-45.79 -22.4,-76.05 -11.57,-12.99 -33.34,-28.51 -71.26,-28.51l-140.05 0 -136.78 0c-37.46,0 -60.04,15.1 -72.42,27.76 -28.65,29.32 -28.54,69.78 -28.44,73.66l0 90.42c0,35.84 5.68,85.48 54.83,102.34 7.76,2.65 12.77,8.96 12.77,16.02l0.03 287.94c0,6.52 -4.94,10.9 -9.52,12.8 -167.11,69.82 -275.1,231.39 -275.1,411.62l0.14 1163.04c-0.63,6.46 -5.54,64.03 26.81,99.87 15.77,17.5 37.75,26.71 63.57,26.71l373.17 0 205.04 0 150 0c25.79,0 47.76,-9.21 63.53,-26.71 32.35,-35.84 27.45,-93.41 26.95,-97.12l0 -1165.79z"/>
   <path class="fil0" d="M6649.62 9244.19c7.94,-28.65 33.55,-48.58 62.76,-48.58 4.06,0 8.11,0.35 12.24,1.16 25.47,4.77 44.2,23.99 50.69,47.42l-125.69 0zm50.59 82.02c-17.29,-3.25 -32.25,-13.06 -42.19,-27.59 -3,-4.37 -4.27,-9.42 -6.11,-14.29l120.9 0c-11.15,29.21 -40.92,47.95 -72.6,41.88zm31.82 -168.95c-57.4,-10.86 -113,27.17 -123.83,84.6 -10.83,57.43 27.13,112.99 84.6,123.82 6.56,1.24 13.16,1.84 19.65,1.84 49.95,0 94.58,-35.56 104.17,-86.43 10.8,-57.44 -27.12,-113 -84.59,-123.83z"/>
   <path class="fil0" d="M6887.02 9070.24l-108.34 0 0 -108.02 108.34 0c29.78,0 54.01,24.24 54.01,54.01 0,29.78 -24.23,54.01 -54.01,54.01zm-148.52 0l-87.95 0c-29.77,0 -53.97,-24.23 -53.97,-54.01 0,-29.77 24.2,-54.01 53.97,-54.01l87.95 0 0 108.02zm148.52 -148.16l-236.47 0c-51.92,0 -94.15,42.22 -94.15,94.15 0,51.93 42.23,94.16 94.15,94.16l236.47 0c51.93,0 94.19,-42.23 94.19,-94.16 0,-51.93 -42.26,-94.15 -94.19,-94.15z"/>
   <path class="fil0" d="M7186.58 8870.78c-13.26,11.53 -30.23,17.21 -47.8,16.01 -5.29,-0.38 -10.05,-2.5 -14.99,-4.05l74.96 -94.86c15.98,26.84 12.21,61.8 -12.17,82.9zm-94.93 -90.52c2.5,-3.18 5.33,-6.14 8.47,-8.86 19.58,-17.04 46.25,-19.83 68.68,-10.41l-77.93 98.64c-17.56,-23.99 -17.32,-56.44 0.78,-79.37zm131.69 -28.79c-38.35,-44.1 -105.48,-48.76 -149.58,-10.37 -44.13,38.27 -48.75,105.48 -10.4,149.57 38.38,44.1 105.48,48.79 149.61,10.41 5.04,-4.41 9.6,-9.21 13.62,-14.29 30.97,-39.22 30.72,-96.27 -3.25,-135.32z"/>
   <path class="fil0" d="M7101.56 8565.52l-67.17 85.02 -84.78 -66.96 67.17 -85.02c18.49,-23.35 52.5,-27.38 75.89,-8.93 23.35,18.49 27.34,52.53 8.89,75.89zm-146.62 185.52c-18.45,23.39 -52.46,27.34 -75.85,8.89 -23.35,-18.45 -27.34,-52.46 -8.89,-75.85l54.54 -69 84.74 66.96 -54.54 69zm162.6 -292.91c-40.75,-32.17 -100.05,-25.22 -132.26,15.52l-146.58 185.56c-32.21,40.75 -25.26,100.05 15.52,132.23 40.75,32.2 100.05,25.25 132.26,-15.49l146.58 -185.53c32.17,-40.74 25.22,-100.12 -15.52,-132.29z"/>
   <path class="fil0" d="M6720.9 8262.96c-2.46,3.18 -5.29,6.14 -8.46,8.86 -19.55,17.04 -46.22,19.82 -68.65,10.4l77.93 -98.63c17.53,23.99 17.32,56.44 -0.82,79.37zm-94.89 -90.52c13.23,-11.54 30.2,-17.22 47.76,-16.02 5.33,0.39 10.06,2.51 15,4.06l-74.93 94.86c-16.02,-26.84 -12.24,-61.8 12.17,-82.9zm123.19 -19.9c-38.35,-44.09 -105.45,-48.79 -149.58,-10.4 -5.04,4.41 -9.6,9.2 -13.62,14.28 -30.97,39.2 -30.72,96.24 3.21,135.33 38.39,44.1 105.48,48.75 149.62,10.37 44.09,-38.27 48.75,-105.48 10.37,-149.58z"/>
   <path class="fil0" d="M6942.36 8359.12l-54.54 69.01 -84.74 -66.96 54.54 -69c18.45,-23.36 52.46,-27.34 75.85,-8.89 23.39,18.48 27.34,52.49 8.89,75.84zm-146.58 185.53c-18.49,23.39 -52.49,27.37 -75.88,8.92 -23.36,-18.45 -27.34,-52.49 -8.89,-75.88l67.16 -85.02 84.78 66.96 -67.17 85.02zm30.34 -277.39l-146.62 185.56c-32.17,40.75 -25.22,100.08 15.53,132.26 40.74,32.21 100.08,25.22 132.25,-15.52l146.58 -185.53c32.21,-40.75 25.26,-100.05 -15.49,-132.26 -40.74,-32.17 -100.08,-25.26 -132.25,15.49z"/>
  </g>
 </g>
</svg>
