<?xml version="1.0" encoding="UTF-8"?>
<!DOCTYPE svg PUBLIC "-//W3C//DTD SVG 1.1//EN" "http://www.w3.org/Graphics/SVG/1.1/DTD/svg11.dtd">
<!-- Creator: CorelDRAW 2017 -->
<svg xmlns="http://www.w3.org/2000/svg" xml:space="preserve" width="88.8152mm" height="75.4378mm" version="1.1" style="shape-rendering:geometricPrecision; text-rendering:geometricPrecision; image-rendering:optimizeQuality; fill-rule:evenodd; clip-rule:evenodd"
viewBox="0 0 8881.52 7543.78"
 xmlns:xlink="http://www.w3.org/1999/xlink">
 <defs>
  <style type="text/css">
   <![CDATA[
    .str0 {stroke:#A7A9AC;stroke-width:26.46;stroke-miterlimit:10}
    .str2 {stroke:black;stroke-width:35.28;stroke-miterlimit:10}
    .str1 {stroke:#231F20;stroke-width:35.28;stroke-miterlimit:10}
    .str3 {stroke:#F1F1F2;stroke-width:35.28;stroke-miterlimit:10}
    .str4 {stroke:#A7A9AC;stroke-width:17.64;stroke-miterlimit:10}
    .fil3 {fill:none;fill-rule:nonzero}
    .fil9 {fill:black;fill-rule:nonzero}
    .fil5 {fill:#231F20;fill-rule:nonzero}
    .fil10 {fill:#58595B;fill-rule:nonzero}
    .fil6 {fill:#6D6E71;fill-rule:nonzero}
    .fil4 {fill:#7F1425;fill-rule:nonzero}
    .fil2 {fill:#BE1E2D;fill-rule:nonzero}
    .fil7 {fill:#C3BE95;fill-rule:nonzero}
    .fil1 {fill:#F26448;fill-rule:nonzero}
    .fil0 {fill:#F79145;fill-rule:nonzero}
    .fil8 {fill:white;fill-rule:nonzero}
   ]]>
  </style>
 </defs>
 <g id="Capa_x0020_1">
  <metadata id="CorelCorpID_0Corel-Layer"/>
  <path class="fil0" d="M5761.28 4997.18c248.83,-227.5 488.35,-787.15 956.68,-821.63 553.82,-40.82 959.98,673.24 1095.34,744.64 81.07,42.75 162.14,100.11 264.34,102.04 47.83,-131.19 73.95,-272.83 73.95,-420.58l0 0c0,-678 -549.66,-1227.66 -1227.74,-1227.66l0 0c-678.04,0 -1227.7,549.66 -1227.7,1227.66l0 0c0,138.39 22.92,271.42 65.13,395.53z"/>
  <path class="fil1" d="M7263.87 5781.62c-90.43,-126.43 -218.13,-229.68 -496.69,-259.61 -225.83,-24.26 -397.61,22.18 -528,98.83 195.6,131.66 431.16,208.51 684.67,208.51l0 0c117.97,0 232.04,-16.68 340.02,-47.73z"/>
  <path class="fil2" d="M8077.64 5022.24c-102.2,-1.94 -183.27,-59.31 -264.34,-102.06 -135.36,-71.4 -541.52,-785.43 -1095.34,-744.65 -468.33,34.52 -707.85,594.16 -956.68,821.65 87.28,256.63 257.14,475.07 477.92,623.68 130.39,-76.66 302.17,-123.11 528.01,-98.84 278.54,29.93 406.24,133.18 496.67,259.6 377.42,-108.55 680.25,-393.22 813.76,-759.38z"/>
  <path class="fil2" d="M2915.12 4594.02c6.04,-11.22 1.87,-25.26 -9.38,-31.29 -11.15,-6.07 -25.19,-1.84 -31.29,9.38 -26.57,49.25 -57.89,105.76 -90.6,162.91l-379.48 120.97c-12.17,3.88 -18.91,16.9 -15.03,29.07 3.14,9.84 12.21,16.09 22.02,16.09 2.32,0 4.72,-0.36 7.02,-1.1l331.08 -105.51c-81.78,139.77 -164.89,270.12 -199.57,293.83 -59.93,41.06 -599.54,265.67 -876.47,378.7 -11.82,4.8 -17.5,18.31 -12.67,30.13 3.63,8.96 12.28,14.36 21.38,14.36 2.93,0 5.86,-0.53 8.75,-1.7 32.88,-13.44 806.13,-329.31 885.12,-383.32 80.18,-54.86 312.84,-483.77 339.12,-532.52z"/>
  <path class="fil2" d="M3204.52 4705.93c-11.35,-5.82 -25.29,-1.41 -31.18,9.88 -1.41,2.75 -127.6,244.79 -250.79,420.41 -0.78,0.31 -1.62,0.31 -2.36,0.7 -152.09,82.13 -401.85,215.13 -425.17,222.85 -12.17,3.53 -19.26,16.26 -15.77,28.51 2.93,10.16 12.17,16.75 22.26,16.75 2.08,0 4.2,-0.24 6.35,-0.84 22.54,-6.46 223.84,-113.56 348.12,-180.24 -139.21,168.07 -374.93,363.47 -377.37,365.51 -9.84,8.12 -11.25,22.69 -3.1,32.53 4.55,5.54 11.15,8.4 17.81,8.4 5.19,0 10.41,-1.77 14.72,-5.29 10.61,-8.79 261.54,-216.61 400.75,-392.68 139.1,-175.86 298.87,-482.35 305.61,-495.3 5.86,-11.33 1.45,-25.3 -9.88,-31.19z"/>
  <path class="fil3 str0" d="M1618.46 5859.78c0,0 -3.85,-11.57 -73.2,-65.48 -69.33,-53.94 -142.49,-42.37 -142.49,-30.83 0,11.57 57.75,862.82 61.63,909.04 3.84,46.25 205.39,515.48 240.06,546.27 34.65,30.84 434.49,323.57 434.49,323.57"/>
  <path class="fil3 str0" d="M1957.42 6372.08c0,0 138.68,-285.05 177.2,-285.05 38.49,0 300.43,65.48 392.89,100.16 92.43,34.67 104,134.83 -15.41,154.05 -119.42,19.27 -219.57,-3.84 -219.57,-3.84l-57.79 154.09"/>
  <path class="fil3 str0" d="M2346.97 6340.54c0,0 126.61,174.06 234.45,220.28 107.85,46.21 157.94,3.84 157.94,-7.69 0,-11.57 -146.37,-254.25 -146.37,-254.25"/>
  <path class="fil3 str0" d="M2581.42 6560.82c0,0 115.57,246.52 169.48,546.98"/>
  <path class="fil3 str0" d="M963.64 5724.96c0,0 496.89,-350.52 805.04,-493.04 308.15,-142.52 419.84,-173.32 419.84,-173.32 0,0 381.35,-508.46 404.46,-531.56 23.11,-23.11 104,-53.94 104,-53.94l77.05 -211.85c0,0 -19.27,-130.95 7.69,-215.69 26.95,-84.77 130.95,-273.5 130.95,-273.5"/>
  <line class="fil3 str0" x1="2774.02" y1="4261.25" x2="3444.23" y2= "4527.04" />
  <line class="fil3 str0" x1="2696.98" y1="4473.11" x2="3320.97" y2= "4765.84" />
  <path class="fil3 str0" d="M3463.5 4469.25l-161.78 365.94c0,0 -73.17,234.95 -7.69,466.06 65.47,231.14 92.43,354.4 73.16,493.04 -19.26,138.67 -123.26,338.98 -123.26,338.98l196.47 73.17c0,0 161.78,-312 161.78,-493.04 0,-181.01 -80.89,-416 -96.31,-546.95 -15.42,-130.99 46.21,-342.83 84.74,-431.41 38.52,-88.59 77.04,-161.79 77.04,-161.79l-204.15 -104z"/>
  <path class="fil3 str0" d="M3944.98 4161.11c0,0 -127.1,358.21 -277.31,412.15"/>
  <path class="fil3 str0" d="M3267.06 5189.55c0,0 -377.47,654.83 -1024.61,920.61"/>
  <path class="fil0" d="M1009.7 2020.09c128.58,74.9 177.23,218.9 309.28,236.19 132.04,17.25 250.19,-129.61 364.87,-152.65 114.66,-23.07 205,40.32 257.14,92.15 52.11,51.86 72.96,103.68 159.85,77.75 86.85,-25.89 152.89,-244.79 309.28,-256.33 156.35,-11.5 271.04,190.11 309.24,210.26 38.24,20.18 76.45,51.86 142.49,2.89 66.04,-48.97 132.05,-195.86 298.84,-213.15 166.79,-17.25 264.09,95.08 326.64,161.29 62.54,66.25 142.48,132.51 236.32,97.93 93.8,-34.57 111.2,-109.43 222.39,-184.32 95.92,-64.6 204.65,-86.26 232.8,-90.98l0 -254.64c0,0 -656.77,-51.82 -924.31,-66.25 -267.58,-14.39 -656.77,-2.86 -903.5,25.93 -246.73,28.82 -416.99,48.96 -778.41,-14.4 -361.38,-63.35 -910.41,46.08 -910.41,46.08l0 300.78c63.96,-23.32 243.17,-79.27 347.49,-18.53z"/>
  <path class="fil1" d="M3650.66 2624.92c-177.23,-34.57 -177.23,-190.08 -344.02,-224.65 -166.8,-34.57 -309.28,48.97 -361.39,106.58 -52.14,57.61 -125.09,169.93 -250.19,112.32 -138.18,-63.64 -83.4,-201.61 -271.04,-221.79 -187.68,-20.14 -243.27,132.5 -257.17,167.08 -13.9,34.53 -45.16,103.68 -142.46,97.89 -97.29,-5.75 -90.34,-167.04 -267.58,-181.43 -159.42,-12.95 -271.04,129.61 -271.04,129.61 0,0 -79.94,97.93 -159.84,63.36 -68.9,-29.81 -83.4,-46.08 -152.89,-167.04 -69.54,-120.97 -222.43,-172.83 -323.18,-144.01 -52.57,15.03 -150.53,48.09 -187.65,60.72l0 506.66 3516.63 0 0 -551.68c-36.05,0.71 -136.73,8.89 -215.44,76.45 -97.29,83.54 -135.5,204.5 -312.74,169.93z"/>
  <path class="fil2" d="M3946.04 2092.1c-111.2,74.89 -128.59,149.75 -222.4,184.33 -93.83,34.57 -173.74,-31.68 -236.29,-97.93 -62.54,-66.26 -159.84,-178.58 -326.67,-161.29 -166.79,17.28 -232.8,164.18 -298.84,213.14 -66,48.97 -104.24,17.29 -142.45,-2.89 -38.24,-20.14 -152.93,-221.76 -309.28,-210.25 -156.39,11.53 -222.39,230.43 -309.28,256.32 -86.89,25.93 -107.74,-25.89 -159.84,-77.75 -52.14,-51.82 -142.49,-115.22 -257.14,-92.14 -114.69,23.03 -232.84,169.89 -364.88,152.64 -132.05,-17.28 -180.69,-161.29 -309.28,-236.18 -104.32,-60.75 -283.53,-4.8 -347.49,18.52l0 1.62 0 383.33c37.12,-12.63 135.08,-45.72 187.65,-60.75 100.78,-28.79 253.68,23.04 323.18,144.01 69.49,120.96 83.99,137.26 152.89,167.07 79.94,34.54 159.84,-63.39 159.84,-63.39 0,0 111.62,-142.56 271.04,-129.58 177.24,14.39 170.29,175.68 267.58,181.44 97.3,5.75 128.59,-63.36 142.49,-97.94 13.9,-34.57 69.5,-187.22 257.14,-167.04 187.64,20.15 132.86,158.15 271.04,221.76 125.09,57.61 198.08,-54.72 250.19,-112.32 52.14,-57.58 194.59,-141.12 361.42,-106.54 166.79,34.53 166.79,190.07 343.99,224.65 177.24,34.53 215.45,-86.44 312.78,-169.94 78.7,-67.55 179.38,-75.74 215.44,-76.44l0 -377.44c-28.19,4.73 -136.91,26.39 -232.83,90.98z"/>
  <path class="fil0" d="M5101.92 2020.09c128.59,74.9 177.23,218.9 309.28,236.19 132.04,17.25 250.19,-129.61 364.88,-152.65 114.65,-23.07 205,40.32 257.14,92.15 52.1,51.86 72.95,103.68 159.84,77.75 86.85,-25.89 152.89,-244.79 309.28,-256.33 156.35,-11.5 271.04,190.11 309.25,210.26 38.24,20.18 76.44,51.86 142.48,2.89 66.04,-48.97 132.05,-195.86 298.84,-213.15 166.79,-17.25 264.09,95.08 326.64,161.29 62.58,66.25 142.48,132.51 236.32,97.93 93.81,-34.57 111.2,-109.43 222.39,-184.32 95.92,-64.6 204.65,-86.26 232.8,-90.98l0 -254.64c0,0 -656.76,-51.82 -924.31,-66.25 -267.58,-14.39 -656.77,-2.86 -903.5,25.93 -246.73,28.82 -416.98,48.96 -778.4,-14.4 -361.39,-63.35 -910.42,46.08 -910.42,46.08l0 300.78c63.96,-23.32 243.17,-79.27 347.49,-18.53z"/>
  <path class="fil1" d="M7742.89 2624.92c-177.24,-34.57 -177.24,-190.08 -344.03,-224.65 -166.8,-34.57 -309.28,48.97 -361.39,106.58 -52.14,57.61 -125.09,169.93 -250.19,112.32 -138.18,-63.64 -83.39,-201.61 -271.04,-221.79 -187.67,-20.14 -243.27,132.5 -257.17,167.08 -13.9,34.53 -45.16,103.68 -142.45,97.89 -97.3,-5.75 -90.35,-167.04 -267.59,-181.43 -159.42,-12.95 -271.03,129.61 -271.03,129.61 0,0 -79.94,97.93 -159.85,63.36 -68.9,-29.81 -83.39,-46.08 -152.89,-167.04 -69.53,-120.97 -222.43,-172.83 -323.18,-144.01 -52.57,15.03 -150.53,48.09 -187.64,60.72l0 506.66 3516.63 0 0 -551.68c-36.06,0.71 -136.74,8.89 -215.45,76.45 -97.29,83.54 -135.5,204.5 -312.73,169.93z"/>
  <path class="fil2" d="M8038.26 2092.1c-111.2,74.89 -128.59,149.75 -222.39,184.33 -93.84,34.57 -173.75,-31.68 -236.29,-97.93 -62.55,-66.26 -159.85,-178.58 -326.68,-161.29 -166.79,17.28 -232.79,164.18 -298.83,213.14 -66.01,48.97 -104.25,17.29 -142.46,-2.89 -38.24,-20.14 -152.93,-221.76 -309.28,-210.25 -156.38,11.53 -222.39,230.43 -309.28,256.32 -86.89,25.93 -107.74,-25.89 -159.84,-77.75 -52.14,-51.82 -142.49,-115.22 -257.14,-92.14 -114.69,23.03 -232.83,169.89 -364.88,152.64 -132.04,-17.28 -180.69,-161.29 -309.28,-236.18 -104.31,-60.75 -283.53,-4.8 -347.48,18.52l0 1.62 0 383.33c37.11,-12.63 135.07,-45.72 187.64,-60.75 100.79,-28.79 253.68,23.04 323.18,144.01 69.49,120.96 83.99,137.26 152.89,167.07 79.94,34.54 159.85,-63.39 159.85,-63.39 0,0 111.61,-142.56 271.03,-129.58 177.24,14.39 170.29,175.68 267.59,181.44 97.29,5.75 128.58,-63.36 142.48,-97.94 13.9,-34.57 69.5,-187.22 257.14,-167.04 187.65,20.15 132.86,158.15 271.04,221.76 125.1,57.61 198.09,-54.72 250.19,-112.32 52.14,-57.58 194.59,-141.12 361.42,-106.54 166.8,34.53 166.8,190.07 344,224.65 177.23,34.53 215.44,-86.44 312.77,-169.94 78.7,-67.55 179.39,-75.74 215.44,-76.44l0 -377.44c-28.19,4.73 -136.91,26.39 -232.83,90.98z"/>
  <path class="fil4" d="M2414.76 2179.45l0 -47.87c0,-3.46 4.16,-5.26 6.7,-2.89l108.16 101.74c1.62,1.55 1.66,4.16 0.04,5.75l-106.68 103.57c-2.51,2.44 -6.74,0.67 -6.74,-2.85l0 -47.56c0,-2.22 -1.8,-3.98 -3.99,-3.98l-74.79 0.45c-2.22,0 -3.98,-1.8 -3.98,-3.98l0 -92.89c0,-2.19 1.73,-3.95 3.91,-3.99l73.45 -1.55c2.19,0 3.92,-1.8 3.92,-3.95z"/>
  <path class="fil4" d="M3229.19 2179.45l0 -47.87c0,-3.46 4.17,-5.26 6.71,-2.89l108.16 101.74c1.62,1.55 1.66,4.16 0.03,5.75l-106.68 103.57c-2.5,2.44 -6.73,0.67 -6.73,-2.85l0 -47.56c0,-2.22 -1.8,-3.98 -3.99,-3.98l-74.79 0.45c-2.22,0 -3.99,-1.8 -3.99,-3.98l0 -92.89c0,-2.19 1.73,-3.95 3.92,-3.99l73.45 -1.55c2.19,0 3.91,-1.8 3.91,-3.95z"/>
  <path class="fil4" d="M2745.25 2362.41l0 -47.88c0,-3.45 4.17,-5.25 6.71,-2.89l108.16 101.74c1.62,1.55 1.66,4.16 0.03,5.75l-106.68 103.58c-2.5,2.43 -6.73,0.67 -6.73,-2.86l0 -47.55c0,-2.23 -1.8,-3.99 -3.99,-3.99l-74.79 0.46c-2.22,0 -3.99,-1.8 -3.99,-3.99l0 -92.88c0,-2.19 1.73,-3.96 3.92,-3.99l73.45 -1.55c2.19,0 3.91,-1.8 3.91,-3.95z"/>
  <path class="fil4" d="M3665.92 2362.41l0 -47.88c0,-3.45 4.17,-5.25 6.71,-2.89l108.16 101.74c1.62,1.55 1.66,4.16 0.03,5.75l-106.68 103.58c-2.5,2.43 -6.74,0.67 -6.74,-2.86l0 -47.55c0,-2.23 -1.79,-3.99 -3.98,-3.99l-74.79 0.46c-2.22,0 -3.99,-1.8 -3.99,-3.99l0 -92.88c0,-2.19 1.73,-3.96 3.92,-3.99l73.45 -1.55c2.18,0 3.91,-1.8 3.91,-3.95z"/>
  <path class="fil4" d="M1665.24 2179.45l0 -47.87c0,-3.46 4.16,-5.26 6.7,-2.89l108.16 101.74c1.62,1.55 1.66,4.16 0.03,5.75l-106.68 103.57c-2.5,2.44 -6.73,0.67 -6.73,-2.85l0 -47.56c0,-2.22 -1.8,-3.98 -3.99,-3.98l-74.79 0.45c-2.22,0 -3.98,-1.8 -3.98,-3.98l0 -92.89c0,-2.19 1.72,-3.95 3.91,-3.99l73.45 -1.55c2.19,0 3.92,-1.8 3.92,-3.95z"/>
  <path class="fil4" d="M1995.73 2362.41l0 -47.88c0,-3.45 4.16,-5.25 6.7,-2.89l108.17 101.74c1.62,1.55 1.65,4.16 0.03,5.75l-106.68 103.58c-2.5,2.43 -6.74,0.67 -6.74,-2.86l0 -47.55c0,-2.23 -1.8,-3.99 -3.98,-3.99l-74.79 0.46c-2.22,0 -3.99,-1.8 -3.99,-3.99l0 -92.88c0,-2.19 1.73,-3.96 3.92,-3.99l73.45 -1.55c2.18,0 3.91,-1.8 3.91,-3.95z"/>
  <path class="fil4" d="M1961.61 4738.32l-50.06 -39.89c-3.64,-2.9 -2.08,-8.72 2.54,-9.39l196.57 -28.36c2.99,-0.42 5.75,1.73 6.03,4.73l19.47 197.9c0.46,4.66 -4.94,7.59 -8.61,4.66l-49.77 -39.65c-2.3,-1.84 -5.65,-1.45 -7.48,0.88l-61.84 78.6c-1.84,2.33 -5.19,2.72 -7.48,0.88l-97.19 -77.43c-2.26,-1.8 -2.68,-5.08 -0.92,-7.38l59.62 -78.14c1.8,-2.29 1.38,-5.61 -0.88,-7.41z"/>
  <path class="fil4" d="M2223.53 4430.17l-50.05 -39.9c-3.64,-2.89 -2.09,-8.71 2.54,-9.38l196.56 -28.36c3,-0.43 5.75,1.73 6.04,4.72l19.47 197.91c0.46,4.66 -4.94,7.59 -8.61,4.66l-49.78 -39.65c-2.29,-1.84 -5.64,-1.45 -7.47,0.88l-61.85 78.6c-1.83,2.33 -5.18,2.71 -7.48,0.88l-97.19 -77.43c-2.25,-1.8 -2.68,-5.08 -0.91,-7.38l59.62 -78.14c1.8,-2.29 1.37,-5.61 -0.89,-7.41z"/>
  <path class="fil5" d="M658.32 3326.84l0 -202.07 26.81 0 0 202.07 -26.81 0zm70.79 0l0 -146.47 22.29 0 0 20.79c10.73,-15.95 26.25,-23.9 46.52,-23.9 8.84,0 16.93,1.6 24.32,4.75 7.38,3.16 12.93,7.34 16.6,12.47 3.67,5.13 6.26,11.24 7.72,18.3 0.89,4.61 1.36,12.65 1.36,24.13l0 89.93 -24.83 0 0 -88.99c0,-10.12 -0.94,-17.69 -2.87,-22.68 -1.93,-4.98 -5.37,-8.98 -10.26,-11.99 -4.89,-2.96 -10.67,-4.47 -17.26,-4.47 -10.54,0 -19.61,3.34 -27.28,10.07 -7.67,6.68 -11.48,19.42 -11.48,38.14l0 79.92 -24.83 0zm155.83 56.3l-2.82 -22.95c5.45,1.46 10.16,2.21 14.2,2.21 5.55,0 9.97,-0.94 13.26,-2.78 3.34,-1.83 6.07,-4.42 8.19,-7.71 1.55,-2.49 4.09,-8.65 7.57,-18.53 0.47,-1.37 1.18,-3.39 2.21,-6.07l-55.59 -146.94 26.52 0 30.58 84.57c4,10.68 7.52,21.97 10.68,33.82 2.86,-11.15 6.25,-22.16 10.2,-32.97l31.23 -85.42 24.79 0 -55.36 149.01c-5.97,16.04 -10.63,27.05 -13.97,33.11 -4.42,8.14 -9.5,14.11 -15.19,17.92 -5.74,3.81 -12.56,5.7 -20.46,5.7 -4.8,0 -10.16,-0.99 -16.04,-2.97zm239.32 -103.71l25.68 3.38c-3.99,14.91 -11.47,26.53 -22.39,34.76 -10.91,8.24 -24.83,12.37 -41.81,12.37 -21.36,0 -38.29,-6.58 -50.8,-19.75 -12.51,-13.12 -18.77,-31.61 -18.77,-55.36 0,-24.56 6.31,-43.65 18.96,-57.2 12.65,-13.59 29.07,-20.37 49.25,-20.37 19.52,0 35.46,6.64 47.83,19.95 12.37,13.31 18.58,32.03 18.58,56.16 0,1.46 -0.05,3.67 -0.14,6.58l-109.08 0c0.94,16.04 5.46,28.37 13.64,36.88 8.14,8.51 18.35,12.79 30.53,12.79 9.08,0 16.84,-2.39 23.24,-7.19 6.44,-4.8 11.52,-12.47 15.28,-23zm-81.28 -39.8l81.56 0c-1.08,-12.32 -4.23,-21.54 -9.36,-27.7 -7.85,-9.55 -18.1,-14.35 -30.66,-14.35 -11.39,0 -20.93,3.81 -28.7,11.43 -7.71,7.62 -11.99,17.83 -12.84,30.62zm234.01 33.59l24.27 3.38c-2.68,16.7 -9.45,29.73 -20.41,39.19 -10.96,9.45 -24.46,14.15 -40.41,14.15 -19.99,0 -36.08,-6.53 -48.21,-19.61 -12.18,-13.08 -18.25,-31.8 -18.25,-56.16 0,-15.81 2.63,-29.59 7.85,-41.44 5.22,-11.81 13.17,-20.7 23.9,-26.58 10.68,-5.92 22.29,-8.89 34.9,-8.89 15.85,0 28.88,4 38.95,12.04 10.11,8.05 16.6,19.48 19.42,34.25l-23.99 3.67c-2.3,-9.83 -6.35,-17.22 -12.23,-22.2 -5.83,-4.94 -12.88,-7.44 -21.16,-7.44 -12.51,0 -22.67,4.47 -30.53,13.41 -7.81,8.98 -11.71,23.09 -11.71,42.47 0,19.66 3.76,33.92 11.29,42.81 7.57,8.89 17.4,13.35 29.49,13.35 9.78,0 17.92,-2.96 24.41,-8.93 6.54,-5.93 10.68,-15.1 12.42,-27.47zm99.34 31.47l3.39 21.91c-6.96,1.46 -13.22,2.22 -18.68,2.22 -8.98,0 -15.94,-1.42 -20.93,-4.28 -4.94,-2.87 -8.42,-6.59 -10.44,-11.25 -2.02,-4.65 -3.01,-14.44 -3.01,-29.35l0 -84.38 -18.34 0 0 -19.19 18.34 0 0 -36.22 24.84 -14.91 0 51.13 24.83 0 0 19.19 -24.83 0 0 85.79c0,7.11 0.42,11.67 1.31,13.69 0.85,2.02 2.26,3.62 4.24,4.85 1.97,1.17 4.79,1.78 8.46,1.78 2.73,0 6.35,-0.33 10.82,-0.98zm120.18 3.81c-9.22,7.85 -18.11,13.35 -26.62,16.6 -8.52,3.25 -17.64,4.84 -27.43,4.84 -16.08,0 -28.45,-3.9 -37.11,-11.75 -8.65,-7.81 -12.98,-17.83 -12.98,-30.01 0,-7.15 1.65,-13.69 4.89,-19.62 3.29,-5.93 7.57,-10.63 12.84,-14.2 5.32,-3.58 11.24,-6.31 17.88,-8.14 4.89,-1.27 12.27,-2.49 22.1,-3.72 20.04,-2.35 34.86,-5.22 44.31,-8.51 0.1,-3.39 0.14,-5.55 0.14,-6.44 0,-10.07 -2.35,-17.17 -7.05,-21.31 -6.35,-5.6 -15.81,-8.37 -28.32,-8.37 -11.71,0 -20.36,2.07 -25.92,6.16 -5.59,4.09 -9.68,11.33 -12.37,21.78l-24.27 -3.39c2.21,-10.4 5.84,-18.82 10.92,-25.21 5.08,-6.4 12.41,-11.29 22.01,-14.77 9.55,-3.44 20.7,-5.18 33.3,-5.18 12.51,0 22.72,1.46 30.57,4.42 7.81,2.97 13.6,6.64 17.27,11.11 3.67,4.46 6.25,10.11 7.76,16.93 0.8,4.23 1.22,11.85 1.22,22.81l0 32.93c0,23 0.52,37.53 1.55,43.69 0.99,6.17 3.06,12.05 6.07,17.69l-25.96 0c-2.5,-5.22 -4.1,-11.34 -4.8,-18.34zm-1.98 -55.04c-9.03,3.67 -22.57,6.78 -40.64,9.32 -10.25,1.45 -17.49,3.1 -21.73,4.93 -4.23,1.84 -7.48,4.52 -9.78,8 -2.31,3.53 -3.48,7.43 -3.48,11.76 0,6.54 2.49,12.04 7.52,16.42 5.04,4.37 12.38,6.58 22.02,6.58 9.55,0 18.06,-2.07 25.54,-6.25 7.43,-4.14 12.93,-9.84 16.41,-17.03 2.69,-5.6 4,-13.83 4,-24.7l0.14 -9.03zm62.98 73.38l0 -146.47 22.3 0 0 22.43c5.69,-10.39 10.96,-17.26 15.8,-20.55 4.85,-3.34 10.16,-4.99 15.95,-4.99 8.37,0 16.89,2.64 25.54,7.86l-8.84 22.91c-6.02,-3.39 -12.04,-5.08 -18.06,-5.08 -5.41,0 -10.26,1.64 -14.54,4.89 -4.28,3.24 -7.34,7.76 -9.17,13.54 -2.78,8.8 -4.14,18.44 -4.14,28.93l0 76.53 -24.84 0zm162.8 -43.74l24.55 -3.96c1.37,9.84 5.22,17.36 11.53,22.63 6.3,5.22 15.14,7.85 26.43,7.85 11.43,0 19.9,-2.3 25.45,-6.96 5.5,-4.61 8.28,-10.06 8.28,-16.32 0,-5.6 -2.5,-10.02 -7.44,-13.22 -3.48,-2.21 -11.94,-4.98 -25.4,-8.42 -18.15,-4.56 -30.71,-8.51 -37.77,-11.85 -7,-3.39 -12.32,-7.99 -15.94,-13.92 -3.62,-5.88 -5.46,-12.42 -5.46,-19.57 0,-6.54 1.51,-12.56 4.47,-18.11 3.01,-5.55 7.06,-10.16 12.18,-13.83 3.86,-2.82 9.13,-5.22 15.76,-7.19 6.68,-1.98 13.78,-2.97 21.4,-2.97 11.48,0 21.54,1.65 30.2,4.99 8.7,3.29 15.1,7.81 19.24,13.45 4.09,5.69 6.96,13.27 8.51,22.77l-24.27 3.38c-1.08,-7.62 -4.28,-13.59 -9.55,-17.87 -5.27,-4.28 -12.7,-6.4 -22.34,-6.4 -11.34,0 -19.47,1.88 -24.32,5.65 -4.84,3.76 -7.29,8.18 -7.29,13.21 0,3.2 0.99,6.12 3.01,8.71 2.02,2.63 5.18,4.84 9.5,6.58 2.5,0.94 9.74,3.06 21.87,6.35 17.5,4.66 29.73,8.52 36.69,11.48 6.96,2.96 12.42,7.34 16.37,12.98 4,5.69 5.98,12.75 5.98,21.21 0,8.24 -2.4,16 -7.25,23.29 -4.84,7.29 -11.8,12.93 -20.88,16.93 -9.13,4 -19.43,5.97 -30.91,5.97 -19,0 -33.53,-3.95 -43.5,-11.8 -9.98,-7.9 -16.33,-19.57 -19.1,-35.04zm150.99 -130.11l0 -28.22 24.83 0 0 28.22 -24.83 0zm0 173.85l0 -146.47 24.83 0 0 146.47 -24.83 0zm162.6 -47.41l25.68 3.38c-3.99,14.91 -11.47,26.53 -22.39,34.76 -10.91,8.24 -24.83,12.37 -41.81,12.37 -21.36,0 -38.29,-6.58 -50.8,-19.75 -12.51,-13.12 -18.77,-31.61 -18.77,-55.36 0,-24.56 6.31,-43.65 18.96,-57.2 12.65,-13.59 29.07,-20.37 49.25,-20.37 19.52,0 35.46,6.64 47.83,19.95 12.37,13.31 18.58,32.03 18.58,56.16 0,1.46 -0.05,3.67 -0.14,6.58l-109.08 0c0.94,16.04 5.46,28.37 13.64,36.88 8.14,8.51 18.35,12.79 30.53,12.79 9.08,0 16.84,-2.39 23.24,-7.19 6.44,-4.8 11.52,-12.47 15.28,-23zm-81.28 -39.8l81.56 0c-1.08,-12.32 -4.23,-21.54 -9.36,-27.7 -7.85,-9.55 -18.1,-14.35 -30.66,-14.35 -11.39,0 -20.93,3.81 -28.7,11.43 -7.71,7.62 -11.99,17.83 -12.84,30.62zm138.34 87.21l0 -146.47 22.29 0 0 20.69c4.56,-7.15 10.68,-12.93 18.3,-17.26 7.62,-4.37 16.27,-6.54 26.01,-6.54 10.82,0 19.71,2.26 26.62,6.73 6.92,4.52 11.81,10.77 14.63,18.86 11.67,-17.07 26.77,-25.59 45.39,-25.59 14.58,0 25.83,4 33.63,12.04 7.86,8.05 11.81,20.42 11.81,37.12l0 100.42 -24.84 0 0 -92.19c0,-9.88 -0.84,-17.03 -2.44,-21.4 -1.6,-4.38 -4.52,-7.86 -8.8,-10.54 -4.23,-2.68 -9.22,-4 -14.91,-4 -10.35,0 -18.91,3.44 -25.73,10.26 -6.82,6.86 -10.2,17.82 -10.2,32.87l0 85 -24.84 0 0 -95.06c0,-11.01 -2.02,-19.29 -6.07,-24.79 -4.04,-5.5 -10.67,-8.28 -19.85,-8.28 -6.96,0 -13.4,1.84 -19.33,5.51 -5.93,3.66 -10.21,9.03 -12.89,16.13 -2.63,7.05 -3.95,17.26 -3.95,30.57l0 75.92 -24.83 0zm235.09 56.16l0 -202.63 22.57 0 0 19.24c5.32,-7.44 11.34,-13.03 18.07,-16.75 6.68,-3.72 14.81,-5.6 24.36,-5.6 12.51,0 23.52,3.2 33.07,9.65 9.55,6.39 16.74,15.47 21.63,27.14 4.85,11.71 7.3,24.5 7.3,38.47 0,14.91 -2.69,28.37 -8.05,40.36 -5.36,11.95 -13.17,21.12 -23.42,27.52 -10.21,6.35 -20.98,9.54 -32.27,9.54 -8.28,0 -15.71,-1.74 -22.25,-5.22 -6.58,-3.48 -11.94,-7.85 -16.18,-13.17l0 71.45 -24.83 0zm22.57 -128.5c0,18.77 3.81,32.64 11.39,41.63 7.62,8.98 16.84,13.49 27.65,13.49 11.01,0 20.42,-4.65 28.23,-13.97 7.85,-9.31 11.76,-23.7 11.76,-43.22 0,-18.63 -3.81,-32.55 -11.48,-41.82 -7.67,-9.26 -16.79,-13.87 -27.42,-13.87 -10.54,0 -19.85,4.94 -27.94,14.77 -8.14,9.87 -12.19,24.17 -12.19,42.99zm134.1 72.34l0 -146.47 22.3 0 0 22.43c5.69,-10.39 10.96,-17.26 15.8,-20.55 4.85,-3.34 10.16,-4.99 15.95,-4.99 8.37,0 16.89,2.64 25.54,7.86l-8.84 22.91c-6.02,-3.39 -12.04,-5.08 -18.06,-5.08 -5.41,0 -10.26,1.64 -14.54,4.89 -4.28,3.24 -7.34,7.76 -9.17,13.54 -2.78,8.8 -4.14,18.44 -4.14,28.93l0 76.53 -24.84 0zm194.17 -47.41l25.68 3.38c-3.99,14.91 -11.47,26.53 -22.39,34.76 -10.91,8.24 -24.83,12.37 -41.81,12.37 -21.36,0 -38.29,-6.58 -50.8,-19.75 -12.51,-13.12 -18.77,-31.61 -18.77,-55.36 0,-24.56 6.31,-43.65 18.96,-57.2 12.65,-13.59 29.07,-20.37 49.25,-20.37 19.52,0 35.46,6.64 47.83,19.95 12.37,13.31 18.58,32.03 18.58,56.16 0,1.46 -0.05,3.67 -0.14,6.58l-109.08 0c0.94,16.04 5.46,28.37 13.64,36.88 8.14,8.51 18.35,12.79 30.53,12.79 9.08,0 16.84,-2.39 23.24,-7.19 6.44,-4.8 11.52,-12.47 15.28,-23zm-81.28 -39.8l81.56 0c-1.08,-12.32 -4.23,-21.54 -9.36,-27.7 -7.85,-9.55 -18.1,-14.35 -30.66,-14.35 -11.39,0 -20.93,3.81 -28.7,11.43 -7.71,7.62 -11.99,17.83 -12.84,30.62zm316.65 39.8l25.68 3.38c-3.99,14.91 -11.47,26.53 -22.39,34.76 -10.91,8.24 -24.83,12.37 -41.81,12.37 -21.36,0 -38.29,-6.58 -50.8,-19.75 -12.51,-13.12 -18.77,-31.61 -18.77,-55.36 0,-24.56 6.31,-43.65 18.96,-57.2 12.65,-13.59 29.07,-20.37 49.25,-20.37 19.52,0 35.46,6.64 47.83,19.95 12.37,13.31 18.58,32.03 18.58,56.16 0,1.46 -0.05,3.67 -0.14,6.58l-109.08 0c0.94,16.04 5.46,28.37 13.64,36.88 8.14,8.51 18.35,12.79 30.53,12.79 9.08,0 16.84,-2.39 23.24,-7.19 6.44,-4.8 11.52,-12.47 15.28,-23zm-81.28 -39.8l81.56 0c-1.08,-12.32 -4.23,-21.54 -9.36,-27.7 -7.85,-9.55 -18.1,-14.35 -30.66,-14.35 -11.39,0 -20.93,3.81 -28.7,11.43 -7.71,7.62 -11.99,17.83 -12.84,30.62zm138.34 87.21l0 -146.47 22.29 0 0 20.79c10.73,-15.95 26.25,-23.9 46.52,-23.9 8.84,0 16.93,1.6 24.32,4.75 7.38,3.16 12.93,7.34 16.6,12.47 3.67,5.13 6.26,11.24 7.72,18.3 0.89,4.61 1.36,12.65 1.36,24.13l0 89.93 -24.83 0 0 -88.99c0,-10.12 -0.94,-17.69 -2.87,-22.68 -1.93,-4.98 -5.37,-8.98 -10.26,-11.99 -4.89,-2.96 -10.67,-4.47 -17.26,-4.47 -10.54,0 -19.61,3.34 -27.28,10.07 -7.67,6.68 -11.48,19.42 -11.48,38.14l0 79.92 -24.83 0zm329.91 0l0 -18.58c-9.27,14.44 -22.91,21.68 -40.92,21.68 -11.67,0 -22.39,-3.19 -32.13,-9.64 -9.78,-6.4 -17.35,-15.38 -22.76,-26.86 -5.37,-11.52 -8.05,-24.74 -8.05,-39.69 0,-14.59 2.45,-27.8 7.29,-39.7 4.9,-11.86 12.19,-20.98 21.92,-27.29 9.69,-6.35 20.61,-9.5 32.6,-9.5 8.84,0 16.7,1.88 23.56,5.6 6.87,3.72 12.47,8.61 16.8,14.58l0 -72.67 24.83 0 0 202.07 -23.14 0zm-78.46 -73.05c0,18.72 3.95,32.69 11.9,41.96 7.91,9.26 17.27,13.87 28.04,13.87 10.86,0 20.08,-4.42 27.7,-13.26 7.57,-8.84 11.38,-22.34 11.38,-40.5 0,-19.94 -3.85,-34.62 -11.61,-43.98 -7.72,-9.36 -17.27,-14.01 -28.6,-14.01 -11.06,0 -20.27,4.46 -27.71,13.45 -7.38,8.98 -11.1,23.14 -11.1,42.47zm140.88 -100.8l0 -28.22 24.83 0 0 28.22 -24.83 0zm0 173.85l0 -146.47 24.83 0 0 146.47 -24.83 0zm62.41 0l0 -146.47 22.3 0 0 22.43c5.69,-10.39 10.96,-17.26 15.8,-20.55 4.85,-3.34 10.16,-4.99 15.95,-4.99 8.37,0 16.89,2.64 25.54,7.86l-8.84 22.91c-6.02,-3.39 -12.04,-5.08 -18.06,-5.08 -5.41,0 -10.26,1.64 -14.54,4.89 -4.28,3.24 -7.34,7.76 -9.17,13.54 -2.78,8.8 -4.14,18.44 -4.14,28.93l0 76.53 -24.84 0zm191.35 -47.41l25.68 3.38c-3.99,14.91 -11.47,26.53 -22.39,34.76 -10.91,8.24 -24.83,12.37 -41.81,12.37 -21.36,0 -38.29,-6.58 -50.8,-19.75 -12.51,-13.12 -18.77,-31.61 -18.77,-55.36 0,-24.56 6.31,-43.65 18.96,-57.2 12.65,-13.59 29.07,-20.37 49.25,-20.37 19.52,0 35.46,6.64 47.83,19.95 12.37,13.31 18.58,32.03 18.58,56.16 0,1.46 -0.05,3.67 -0.14,6.58l-109.08 0c0.94,16.04 5.46,28.37 13.64,36.88 8.14,8.51 18.35,12.79 30.53,12.79 9.08,0 16.84,-2.39 23.24,-7.19 6.44,-4.8 11.52,-12.47 15.28,-23zm-81.28 -39.8l81.56 0c-1.08,-12.32 -4.23,-21.54 -9.36,-27.7 -7.85,-9.55 -18.1,-14.35 -30.66,-14.35 -11.39,0 -20.93,3.81 -28.7,11.43 -7.71,7.62 -11.99,17.83 -12.84,30.62zm234.01 33.59l24.27 3.38c-2.68,16.7 -9.45,29.73 -20.41,39.19 -10.96,9.45 -24.46,14.15 -40.41,14.15 -19.99,0 -36.08,-6.53 -48.21,-19.61 -12.18,-13.08 -18.25,-31.8 -18.25,-56.16 0,-15.81 2.63,-29.59 7.85,-41.44 5.22,-11.81 13.17,-20.7 23.9,-26.58 10.68,-5.92 22.29,-8.89 34.9,-8.89 15.85,0 28.88,4 38.95,12.04 10.11,8.05 16.6,19.48 19.42,34.25l-23.99 3.67c-2.3,-9.83 -6.35,-17.22 -12.23,-22.2 -5.83,-4.94 -12.88,-7.44 -21.16,-7.44 -12.51,0 -22.67,4.47 -30.53,13.41 -7.81,8.98 -11.71,23.09 -11.71,42.47 0,19.66 3.76,33.92 11.29,42.81 7.57,8.89 17.4,13.35 29.49,13.35 9.78,0 17.92,-2.96 24.41,-8.93 6.54,-5.93 10.68,-15.1 12.42,-27.47zm141.11 0l24.27 3.38c-2.68,16.7 -9.45,29.73 -20.41,39.19 -10.96,9.45 -24.46,14.15 -40.41,14.15 -19.99,0 -36.08,-6.53 -48.21,-19.61 -12.18,-13.08 -18.25,-31.8 -18.25,-56.16 0,-15.81 2.63,-29.59 7.85,-41.44 5.22,-11.81 13.17,-20.7 23.9,-26.58 10.68,-5.92 22.29,-8.89 34.9,-8.89 15.85,0 28.88,4 38.95,12.04 10.11,8.05 16.6,19.48 19.42,34.25l-23.99 3.67c-2.3,-9.83 -6.35,-17.22 -12.23,-22.2 -5.83,-4.94 -12.88,-7.44 -21.16,-7.44 -12.51,0 -22.67,4.47 -30.53,13.41 -7.81,8.98 -11.71,23.09 -11.71,42.47 0,19.66 3.76,33.92 11.29,42.81 7.57,8.89 17.4,13.35 29.49,13.35 9.78,0 17.92,-2.96 24.41,-8.93 6.54,-5.93 10.68,-15.1 12.42,-27.47zm45.44 -120.23l0 -28.22 24.83 0 0 28.22 -24.83 0zm0 173.85l0 -146.47 24.83 0 0 146.47 -24.83 0zm53.38 -73.24c0,-27.04 7.53,-47.08 22.63,-60.11 12.56,-10.82 27.94,-16.23 46.05,-16.23 20.08,0 36.54,6.59 49.34,19.76 12.75,13.12 19.14,31.33 19.14,54.51 0,18.82 -2.82,33.59 -8.46,44.36 -5.65,10.77 -13.88,19.14 -24.7,25.12 -10.77,5.97 -22.58,8.93 -35.32,8.93 -20.51,0 -37.07,-6.53 -49.72,-19.66 -12.65,-13.12 -18.96,-32.03 -18.96,-56.68zm25.4 0.05c0,18.72 4.1,32.74 12.28,42 8.23,9.32 18.53,13.97 31,13.97 12.32,0 22.57,-4.65 30.81,-14.01 8.18,-9.36 12.27,-23.61 12.27,-42.76 0,-18.06 -4.14,-31.75 -12.37,-41.01 -8.23,-9.32 -18.48,-13.97 -30.71,-13.97 -12.47,0 -22.77,4.61 -31,13.87 -8.18,9.27 -12.28,23.24 -12.28,41.91zm22.58 -91.34l18.06 -38.67 32.74 0 -30.2 38.67 -20.6 0zm118.3 164.53l0 -146.47 22.29 0 0 20.79c10.73,-15.95 26.25,-23.9 46.52,-23.9 8.84,0 16.93,1.6 24.32,4.75 7.38,3.16 12.93,7.34 16.6,12.47 3.67,5.13 6.26,11.24 7.72,18.3 0.89,4.61 1.36,12.65 1.36,24.13l0 89.93 -24.83 0 0 -88.99c0,-10.12 -0.94,-17.69 -2.87,-22.68 -1.93,-4.98 -5.37,-8.98 -10.26,-11.99 -4.89,-2.96 -10.67,-4.47 -17.26,-4.47 -10.54,0 -19.61,3.34 -27.28,10.07 -7.67,6.68 -11.48,19.42 -11.48,38.14l0 79.92 -24.83 0zm329.91 0l0 -18.58c-9.27,14.44 -22.91,21.68 -40.92,21.68 -11.67,0 -22.39,-3.19 -32.13,-9.64 -9.78,-6.4 -17.35,-15.38 -22.76,-26.86 -5.37,-11.52 -8.05,-24.74 -8.05,-39.69 0,-14.59 2.45,-27.8 7.29,-39.7 4.9,-11.86 12.19,-20.98 21.92,-27.29 9.69,-6.35 20.61,-9.5 32.6,-9.5 8.84,0 16.7,1.88 23.56,5.6 6.87,3.72 12.47,8.61 16.8,14.58l0 -72.67 24.83 0 0 202.07 -23.14 0zm-78.46 -73.05c0,18.72 3.95,32.69 11.9,41.96 7.91,9.26 17.27,13.87 28.04,13.87 10.86,0 20.08,-4.42 27.7,-13.26 7.57,-8.84 11.38,-22.34 11.38,-40.5 0,-19.94 -3.85,-34.62 -11.61,-43.98 -7.72,-9.36 -17.27,-14.01 -28.6,-14.01 -11.06,0 -20.27,4.46 -27.71,13.45 -7.38,8.98 -11.1,23.14 -11.1,42.47zm240.78 25.64l25.68 3.38c-3.99,14.91 -11.47,26.53 -22.39,34.76 -10.91,8.24 -24.83,12.37 -41.81,12.37 -21.36,0 -38.29,-6.58 -50.8,-19.75 -12.51,-13.12 -18.77,-31.61 -18.77,-55.36 0,-24.56 6.31,-43.65 18.96,-57.2 12.65,-13.59 29.07,-20.37 49.25,-20.37 19.52,0 35.46,6.64 47.83,19.95 12.37,13.31 18.58,32.03 18.58,56.16 0,1.46 -0.05,3.67 -0.14,6.58l-109.08 0c0.94,16.04 5.46,28.37 13.64,36.88 8.14,8.51 18.35,12.79 30.53,12.79 9.08,0 16.84,-2.39 23.24,-7.19 6.44,-4.8 11.52,-12.47 15.28,-23zm-81.28 -39.8l81.56 0c-1.08,-12.32 -4.23,-21.54 -9.36,-27.7 -7.85,-9.55 -18.1,-14.35 -30.66,-14.35 -11.39,0 -20.93,3.81 -28.7,11.43 -7.71,7.62 -11.99,17.83 -12.84,30.62zm137.77 87.21l0 -202.07 24.84 0 0 202.07 -24.84 0zm237.35 -53.62l24.27 3.38c-2.68,16.7 -9.45,29.73 -20.41,39.19 -10.96,9.45 -24.46,14.15 -40.41,14.15 -19.99,0 -36.08,-6.53 -48.21,-19.61 -12.18,-13.08 -18.25,-31.8 -18.25,-56.16 0,-15.81 2.63,-29.59 7.85,-41.44 5.22,-11.81 13.17,-20.7 23.9,-26.58 10.68,-5.92 22.29,-8.89 34.9,-8.89 15.85,0 28.88,4 38.95,12.04 10.11,8.05 16.6,19.48 19.42,34.25l-23.99 3.67c-2.3,-9.83 -6.35,-17.22 -12.23,-22.2 -5.83,-4.94 -12.88,-7.44 -21.16,-7.44 -12.51,0 -22.67,4.47 -30.53,13.41 -7.81,8.98 -11.71,23.09 -11.71,42.47 0,19.66 3.76,33.92 11.29,42.81 7.57,8.89 17.4,13.35 29.49,13.35 9.78,0 17.92,-2.96 24.41,-8.93 6.54,-5.93 10.68,-15.1 12.42,-27.47zm36.12 -19.62c0,-27.04 7.53,-47.08 22.63,-60.11 12.56,-10.82 27.94,-16.23 46.05,-16.23 20.08,0 36.54,6.59 49.34,19.76 12.75,13.12 19.14,31.33 19.14,54.51 0,18.82 -2.82,33.59 -8.46,44.36 -5.65,10.77 -13.88,19.14 -24.7,25.12 -10.77,5.97 -22.58,8.93 -35.32,8.93 -20.51,0 -37.07,-6.53 -49.72,-19.66 -12.65,-13.12 -18.96,-32.03 -18.96,-56.68zm25.4 0.05c0,18.72 4.1,32.74 12.28,42 8.23,9.32 18.53,13.97 31,13.97 12.32,0 22.57,-4.65 30.81,-14.01 8.18,-9.36 12.27,-23.61 12.27,-42.76 0,-18.06 -4.14,-31.75 -12.37,-41.01 -8.23,-9.32 -18.48,-13.97 -30.71,-13.97 -12.47,0 -22.77,4.61 -31,13.87 -8.18,9.27 -12.28,23.24 -12.28,41.91zm140.59 73.19l0 -146.47 22.3 0 0 22.43c5.69,-10.39 10.96,-17.26 15.8,-20.55 4.85,-3.34 10.16,-4.99 15.95,-4.99 8.37,0 16.89,2.64 25.54,7.86l-8.84 22.91c-6.02,-3.39 -12.04,-5.08 -18.06,-5.08 -5.41,0 -10.26,1.64 -14.54,4.89 -4.28,3.24 -7.34,7.76 -9.17,13.54 -2.78,8.8 -4.14,18.44 -4.14,28.93l0 76.53 -24.84 0zm181.47 -18.34c-9.22,7.85 -18.11,13.35 -26.62,16.6 -8.52,3.25 -17.64,4.84 -27.43,4.84 -16.08,0 -28.45,-3.9 -37.11,-11.75 -8.65,-7.81 -12.98,-17.83 -12.98,-30.01 0,-7.15 1.65,-13.69 4.89,-19.62 3.29,-5.93 7.57,-10.63 12.84,-14.2 5.32,-3.58 11.24,-6.31 17.88,-8.14 4.89,-1.27 12.27,-2.49 22.1,-3.72 20.04,-2.35 34.86,-5.22 44.31,-8.51 0.1,-3.39 0.14,-5.55 0.14,-6.44 0,-10.07 -2.35,-17.17 -7.05,-21.31 -6.35,-5.6 -15.81,-8.37 -28.32,-8.37 -11.71,0 -20.36,2.07 -25.92,6.16 -5.59,4.09 -9.68,11.33 -12.37,21.78l-24.27 -3.39c2.21,-10.4 5.84,-18.82 10.92,-25.21 5.08,-6.4 12.41,-11.29 22.01,-14.77 9.55,-3.44 20.7,-5.18 33.3,-5.18 12.51,0 22.72,1.46 30.57,4.42 7.81,2.97 13.6,6.64 17.27,11.11 3.67,4.46 6.25,10.11 7.76,16.93 0.8,4.23 1.22,11.85 1.22,22.81l0 32.93c0,23 0.52,37.53 1.55,43.69 0.99,6.17 3.06,12.05 6.07,17.69l-25.96 0c-2.5,-5.22 -4.1,-11.34 -4.8,-18.34zm-1.98 -55.04c-9.03,3.67 -22.57,6.78 -40.64,9.32 -10.25,1.45 -17.49,3.1 -21.73,4.93 -4.23,1.84 -7.48,4.52 -9.78,8 -2.31,3.53 -3.48,7.43 -3.48,11.76 0,6.54 2.49,12.04 7.52,16.42 5.04,4.37 12.38,6.58 22.02,6.58 9.55,0 18.06,-2.07 25.54,-6.25 7.43,-4.14 12.93,-9.84 16.41,-17.03 2.69,-5.6 4,-13.83 4,-24.7l0.14 -9.03zm50.14 73.38l0 -20.23 92.76 -107.05c-10.54,0.56 -19.8,0.85 -27.8,0.85l-59.31 0 0 -20.04 119.38 0 0 16.32 -79.4 92.85 -15.19 17.26c11.14,-0.94 21.59,-1.41 31.32,-1.41l67.78 0 0 21.45 -129.54 0zm144.92 -73.24c0,-27.04 7.53,-47.08 22.63,-60.11 12.56,-10.82 27.94,-16.23 46.05,-16.23 20.08,0 36.54,6.59 49.34,19.76 12.75,13.12 19.14,31.33 19.14,54.51 0,18.82 -2.82,33.59 -8.46,44.36 -5.65,10.77 -13.88,19.14 -24.7,25.12 -10.77,5.97 -22.58,8.93 -35.32,8.93 -20.51,0 -37.07,-6.53 -49.72,-19.66 -12.65,-13.12 -18.96,-32.03 -18.96,-56.68zm25.4 0.05c0,18.72 4.1,32.74 12.28,42 8.23,9.32 18.53,13.97 31,13.97 12.32,0 22.57,-4.65 30.81,-14.01 8.18,-9.36 12.27,-23.61 12.27,-42.76 0,-18.06 -4.14,-31.75 -12.37,-41.01 -8.23,-9.32 -18.48,-13.97 -30.71,-13.97 -12.47,0 -22.77,4.61 -31,13.87 -8.18,9.27 -12.28,23.24 -12.28,41.91zm22.58 -91.34l18.06 -38.67 32.74 0 -30.2 38.67 -20.6 0zm118.3 164.53l0 -146.47 22.29 0 0 20.79c10.73,-15.95 26.25,-23.9 46.52,-23.9 8.84,0 16.93,1.6 24.32,4.75 7.38,3.16 12.93,7.34 16.6,12.47 3.67,5.13 6.26,11.24 7.72,18.3 0.89,4.61 1.36,12.65 1.36,24.13l0 89.93 -24.83 0 0 -88.99c0,-10.12 -0.94,-17.69 -2.87,-22.68 -1.93,-4.98 -5.37,-8.98 -10.26,-11.99 -4.89,-2.96 -10.67,-4.47 -17.26,-4.47 -10.54,0 -19.61,3.34 -27.28,10.07 -7.67,6.68 -11.48,19.42 -11.48,38.14l0 79.92 -24.83 0z"/>
  <path class="fil5" d="M5396.83 6205.22l0 -202.07 69.62 0c15.71,0 27.7,0.94 35.98,2.87 11.57,2.68 21.45,7.53 29.63,14.49 10.68,9.03 18.63,20.5 23.9,34.52 5.31,14.02 7.95,30.06 7.95,48.07 0,15.34 -1.79,28.93 -5.37,40.78 -3.57,11.86 -8.18,21.69 -13.78,29.45 -5.64,7.76 -11.76,13.87 -18.44,18.3 -6.63,4.46 -14.67,7.85 -24.08,10.16 -9.45,2.3 -20.27,3.43 -32.5,3.43l-72.91 0zm26.81 -23.71l43.09 0c13.31,0 23.75,-1.22 31.32,-3.71 7.58,-2.5 13.6,-5.98 18.11,-10.49 6.31,-6.35 11.24,-14.91 14.77,-25.64 3.53,-10.72 5.32,-23.7 5.32,-38.99 0,-21.17 -3.48,-37.44 -10.4,-48.82 -6.91,-11.39 -15.33,-19.01 -25.26,-22.86 -7.15,-2.78 -18.67,-4.14 -34.57,-4.14l-42.38 0 0 154.65zm273.8 -23.7l25.68 3.38c-3.99,14.91 -11.47,26.53 -22.39,34.76 -10.91,8.24 -24.83,12.37 -41.81,12.37 -21.36,0 -38.29,-6.58 -50.8,-19.75 -12.51,-13.12 -18.77,-31.61 -18.77,-55.36 0,-24.56 6.31,-43.65 18.96,-57.2 12.65,-13.59 29.07,-20.37 49.25,-20.37 19.52,0 35.46,6.64 47.83,19.95 12.37,13.31 18.58,32.03 18.58,56.16 0,1.46 -0.05,3.67 -0.14,6.58l-109.08 0c0.94,16.04 5.46,28.37 13.64,36.88 8.14,8.51 18.35,12.79 30.53,12.79 9.08,0 16.84,-2.39 23.24,-7.19 6.44,-4.8 11.52,-12.47 15.28,-23zm-81.28 -39.8l81.56 0c-1.08,-12.32 -4.23,-21.54 -9.36,-27.7 -7.85,-9.55 -18.1,-14.35 -30.66,-14.35 -11.39,0 -20.93,3.81 -28.7,11.43 -7.71,7.62 -11.99,17.83 -12.84,30.62zm192.24 65.06l3.39 21.91c-6.96,1.46 -13.22,2.22 -18.68,2.22 -8.98,0 -15.94,-1.42 -20.93,-4.28 -4.94,-2.87 -8.42,-6.59 -10.44,-11.25 -2.02,-4.65 -3.01,-14.44 -3.01,-29.35l0 -84.38 -18.34 0 0 -19.19 18.34 0 0 -36.22 24.84 -14.91 0 51.13 24.83 0 0 19.19 -24.83 0 0 85.79c0,7.11 0.42,11.67 1.31,13.69 0.85,2.02 2.26,3.62 4.24,4.85 1.97,1.17 4.79,1.78 8.46,1.78 2.73,0 6.35,-0.33 10.82,-0.98zm120.18 3.81c-9.22,7.85 -18.11,13.35 -26.62,16.6 -8.52,3.25 -17.64,4.84 -27.43,4.84 -16.08,0 -28.45,-3.9 -37.11,-11.75 -8.65,-7.81 -12.98,-17.83 -12.98,-30.01 0,-7.15 1.65,-13.69 4.89,-19.62 3.29,-5.93 7.57,-10.63 12.84,-14.2 5.32,-3.58 11.24,-6.31 17.88,-8.14 4.89,-1.27 12.27,-2.49 22.1,-3.72 20.04,-2.35 34.86,-5.22 44.31,-8.51 0.1,-3.39 0.14,-5.55 0.14,-6.44 0,-10.07 -2.35,-17.17 -7.05,-21.31 -6.35,-5.6 -15.81,-8.37 -28.32,-8.37 -11.71,0 -20.36,2.07 -25.92,6.16 -5.59,4.09 -9.68,11.33 -12.37,21.78l-24.27 -3.39c2.21,-10.4 5.84,-18.82 10.92,-25.21 5.08,-6.4 12.41,-11.29 22.01,-14.77 9.55,-3.44 20.7,-5.18 33.3,-5.18 12.51,0 22.72,1.46 30.57,4.42 7.81,2.97 13.6,6.64 17.27,11.11 3.67,4.46 6.25,10.11 7.76,16.93 0.8,4.23 1.22,11.85 1.22,22.81l0 32.93c0,23 0.52,37.53 1.55,43.69 0.99,6.17 3.06,12.05 6.07,17.69l-25.96 0c-2.5,-5.22 -4.1,-11.34 -4.8,-18.34zm-1.98 -55.04c-9.03,3.67 -22.57,6.78 -40.64,9.32 -10.25,1.45 -17.49,3.1 -21.73,4.93 -4.23,1.84 -7.48,4.52 -9.78,8 -2.31,3.53 -3.48,7.43 -3.48,11.76 0,6.54 2.49,12.04 7.52,16.42 5.04,4.37 12.38,6.58 22.02,6.58 9.55,0 18.06,-2.07 25.54,-6.25 7.43,-4.14 12.93,-9.84 16.41,-17.03 2.69,-5.6 4,-13.83 4,-24.7l0.14 -9.03zm62.7 73.38l0 -202.07 24.84 0 0 202.07 -24.84 0zm62.7 0l0 -202.07 24.84 0 0 202.07 -24.84 0zm163.17 -47.41l25.68 3.38c-3.99,14.91 -11.47,26.53 -22.39,34.76 -10.91,8.24 -24.83,12.37 -41.81,12.37 -21.36,0 -38.29,-6.58 -50.8,-19.75 -12.51,-13.12 -18.77,-31.61 -18.77,-55.36 0,-24.56 6.31,-43.65 18.96,-57.2 12.65,-13.59 29.07,-20.37 49.25,-20.37 19.52,0 35.46,6.64 47.83,19.95 12.37,13.31 18.58,32.03 18.58,56.16 0,1.46 -0.05,3.67 -0.14,6.58l-109.08 0c0.94,16.04 5.46,28.37 13.64,36.88 8.14,8.51 18.35,12.79 30.53,12.79 9.08,0 16.84,-2.39 23.24,-7.19 6.44,-4.8 11.52,-12.47 15.28,-23zm-81.28 -39.8l81.56 0c-1.08,-12.32 -4.23,-21.54 -9.36,-27.7 -7.85,-9.55 -18.1,-14.35 -30.66,-14.35 -11.39,0 -20.93,3.81 -28.7,11.43 -7.71,7.62 -11.99,17.83 -12.84,30.62zm311.29 87.21l0 -18.58c-9.27,14.44 -22.91,21.68 -40.92,21.68 -11.67,0 -22.39,-3.19 -32.13,-9.64 -9.78,-6.4 -17.35,-15.38 -22.76,-26.86 -5.37,-11.52 -8.05,-24.74 -8.05,-39.69 0,-14.59 2.45,-27.8 7.29,-39.7 4.9,-11.86 12.19,-20.98 21.92,-27.29 9.69,-6.35 20.61,-9.5 32.6,-9.5 8.84,0 16.7,1.88 23.56,5.6 6.87,3.72 12.47,8.61 16.8,14.58l0 -72.67 24.83 0 0 202.07 -23.14 0zm-78.46 -73.05c0,18.72 3.95,32.69 11.9,41.96 7.91,9.26 17.27,13.87 28.04,13.87 10.86,0 20.08,-4.42 27.7,-13.26 7.57,-8.84 11.38,-22.34 11.38,-40.5 0,-19.94 -3.85,-34.62 -11.61,-43.98 -7.72,-9.36 -17.27,-14.01 -28.6,-14.01 -11.06,0 -20.27,4.46 -27.71,13.45 -7.38,8.98 -11.1,23.14 -11.1,42.47zm240.78 25.64l25.68 3.38c-3.99,14.91 -11.47,26.53 -22.39,34.76 -10.91,8.24 -24.83,12.37 -41.81,12.37 -21.36,0 -38.29,-6.58 -50.8,-19.75 -12.51,-13.12 -18.77,-31.61 -18.77,-55.36 0,-24.56 6.31,-43.65 18.96,-57.2 12.65,-13.59 29.07,-20.37 49.25,-20.37 19.52,0 35.46,6.64 47.83,19.95 12.37,13.31 18.58,32.03 18.58,56.16 0,1.46 -0.05,3.67 -0.14,6.58l-109.08 0c0.94,16.04 5.46,28.37 13.64,36.88 8.14,8.51 18.35,12.79 30.53,12.79 9.08,0 16.84,-2.39 23.24,-7.19 6.44,-4.8 11.52,-12.47 15.28,-23zm-81.28 -39.8l81.56 0c-1.08,-12.32 -4.23,-21.54 -9.36,-27.7 -7.85,-9.55 -18.1,-14.35 -30.66,-14.35 -11.39,0 -20.93,3.81 -28.7,11.43 -7.71,7.62 -11.99,17.83 -12.84,30.62zm137.77 87.21l0 -202.07 24.84 0 0 202.07 -24.84 0zm164.54 0l-23.15 0 0 -202.07 24.84 0 0 72.11c10.49,-13.08 23.85,-19.62 40.12,-19.62 8.99,0 17.55,1.79 25.59,5.41 8.04,3.62 14.63,8.75 19.85,15.29 5.17,6.58 9.27,14.49 12.18,23.75 2.97,9.22 4.42,19.15 4.42,29.68 0,25.03 -6.21,44.41 -18.58,58.05 -12.41,13.68 -27.28,20.5 -44.63,20.5 -17.27,0 -30.81,-7.19 -40.64,-21.54l0 18.44zm-0.29 -74.32c0,17.5 2.4,30.15 7.15,37.96 7.81,12.75 18.35,19.14 31.66,19.14 10.86,0 20.23,-4.7 28.08,-14.11 7.9,-9.4 11.85,-23.42 11.85,-42.05 0,-19.09 -3.76,-33.16 -11.33,-42.24 -7.58,-9.07 -16.75,-13.64 -27.47,-13.64 -10.87,0 -20.23,4.71 -28.08,14.11 -7.9,9.41 -11.86,23.01 -11.86,40.83zm134.39 -99.53l0 -28.22 24.83 0 0 28.22 -24.83 0zm0 173.85l0 -146.47 24.83 0 0 146.47 -24.83 0zm52.82 -43.74l24.55 -3.96c1.37,9.84 5.22,17.36 11.53,22.63 6.3,5.22 15.14,7.85 26.43,7.85 11.43,0 19.9,-2.3 25.45,-6.96 5.5,-4.61 8.28,-10.06 8.28,-16.32 0,-5.6 -2.5,-10.02 -7.44,-13.22 -3.48,-2.21 -11.94,-4.98 -25.4,-8.42 -18.15,-4.56 -30.71,-8.51 -37.77,-11.85 -7,-3.39 -12.32,-7.99 -15.94,-13.92 -3.62,-5.88 -5.46,-12.42 -5.46,-19.57 0,-6.54 1.51,-12.56 4.47,-18.11 3.01,-5.55 7.06,-10.16 12.18,-13.83 3.86,-2.82 9.13,-5.22 15.76,-7.19 6.68,-1.98 13.78,-2.97 21.4,-2.97 11.48,0 21.54,1.65 30.2,4.99 8.7,3.29 15.1,7.81 19.24,13.45 4.09,5.69 6.96,13.27 8.51,22.77l-24.27 3.38c-1.08,-7.62 -4.28,-13.59 -9.55,-17.87 -5.27,-4.28 -12.7,-6.4 -22.34,-6.4 -11.34,0 -19.47,1.88 -24.32,5.65 -4.84,3.76 -7.29,8.18 -7.29,13.21 0,3.2 0.99,6.12 3.01,8.71 2.02,2.63 5.18,4.84 9.5,6.58 2.5,0.94 9.74,3.06 21.87,6.35 17.5,4.66 29.73,8.52 36.69,11.48 6.96,2.96 12.42,7.34 16.37,12.98 4,5.69 5.98,12.75 5.98,21.21 0,8.24 -2.4,16 -7.25,23.29 -4.84,7.29 -11.8,12.93 -20.88,16.93 -9.13,4 -19.43,5.97 -30.91,5.97 -19,0 -33.53,-3.95 -43.5,-11.8 -9.98,-7.9 -16.33,-19.57 -19.1,-35.04zm250.89 -3.67l25.68 3.38c-3.99,14.91 -11.47,26.53 -22.39,34.76 -10.91,8.24 -24.83,12.37 -41.81,12.37 -21.36,0 -38.29,-6.58 -50.8,-19.75 -12.51,-13.12 -18.77,-31.61 -18.77,-55.36 0,-24.56 6.31,-43.65 18.96,-57.2 12.65,-13.59 29.07,-20.37 49.25,-20.37 19.52,0 35.46,6.64 47.83,19.95 12.37,13.31 18.58,32.03 18.58,56.16 0,1.46 -0.05,3.67 -0.14,6.58l-109.08 0c0.94,16.04 5.46,28.37 13.64,36.88 8.14,8.51 18.35,12.79 30.53,12.79 9.08,0 16.84,-2.39 23.24,-7.19 6.44,-4.8 11.52,-12.47 15.28,-23zm-81.28 -39.8l81.56 0c-1.08,-12.32 -4.23,-21.54 -9.36,-27.7 -7.85,-9.55 -18.1,-14.35 -30.66,-14.35 -11.39,0 -20.93,3.81 -28.7,11.43 -7.71,7.62 -11.99,17.83 -12.84,30.62zm137.77 87.21l0 -202.07 24.84 0 0 202.07 -24.84 0zm236.22 0l0 -18.58c-9.27,14.44 -22.91,21.68 -40.92,21.68 -11.67,0 -22.39,-3.19 -32.13,-9.64 -9.78,-6.4 -17.35,-15.38 -22.76,-26.86 -5.37,-11.52 -8.05,-24.74 -8.05,-39.69 0,-14.59 2.45,-27.8 7.29,-39.7 4.9,-11.86 12.19,-20.98 21.92,-27.29 9.69,-6.35 20.61,-9.5 32.6,-9.5 8.84,0 16.7,1.88 23.56,5.6 6.87,3.72 12.47,8.61 16.8,14.58l0 -72.67 24.83 0 0 202.07 -23.14 0zm-78.46 -73.05c0,18.72 3.95,32.69 11.9,41.96 7.91,9.26 17.27,13.87 28.04,13.87 10.86,0 20.08,-4.42 27.7,-13.26 7.57,-8.84 11.38,-22.34 11.38,-40.5 0,-19.94 -3.85,-34.62 -11.61,-43.98 -7.72,-9.36 -17.27,-14.01 -28.6,-14.01 -11.06,0 -20.27,4.46 -27.71,13.45 -7.38,8.98 -11.1,23.14 -11.1,42.47zm240.78 25.64l25.68 3.38c-3.99,14.91 -11.47,26.53 -22.39,34.76 -10.91,8.24 -24.83,12.37 -41.81,12.37 -21.36,0 -38.29,-6.58 -50.8,-19.75 -12.51,-13.12 -18.77,-31.61 -18.77,-55.36 0,-24.56 6.31,-43.65 18.96,-57.2 12.65,-13.59 29.07,-20.37 49.25,-20.37 19.52,0 35.46,6.64 47.83,19.95 12.37,13.31 18.58,32.03 18.58,56.16 0,1.46 -0.05,3.67 -0.14,6.58l-109.08 0c0.94,16.04 5.46,28.37 13.64,36.88 8.14,8.51 18.35,12.79 30.53,12.79 9.08,0 16.84,-2.39 23.24,-7.19 6.44,-4.8 11.52,-12.47 15.28,-23zm-81.28 -39.8l81.56 0c-1.08,-12.32 -4.23,-21.54 -9.36,-27.7 -7.85,-9.55 -18.1,-14.35 -30.66,-14.35 -11.39,0 -20.93,3.81 -28.7,11.43 -7.71,7.62 -11.99,17.83 -12.84,30.62zm216.18 87.21l0 -202.07 24.84 0 0 202.07 -24.84 0zm158.94 -18.34c-9.22,7.85 -18.11,13.35 -26.62,16.6 -8.52,3.25 -17.64,4.84 -27.43,4.84 -16.08,0 -28.45,-3.9 -37.11,-11.75 -8.65,-7.81 -12.98,-17.83 -12.98,-30.01 0,-7.15 1.65,-13.69 4.89,-19.62 3.29,-5.93 7.57,-10.63 12.84,-14.2 5.32,-3.58 11.24,-6.31 17.88,-8.14 4.89,-1.27 12.27,-2.49 22.1,-3.72 20.04,-2.35 34.86,-5.22 44.31,-8.51 0.1,-3.39 0.14,-5.55 0.14,-6.44 0,-10.07 -2.35,-17.17 -7.05,-21.31 -6.35,-5.6 -15.81,-8.37 -28.32,-8.37 -11.71,0 -20.36,2.07 -25.92,6.16 -5.59,4.09 -9.68,11.33 -12.37,21.78l-24.27 -3.39c2.21,-10.4 5.84,-18.82 10.92,-25.21 5.08,-6.4 12.41,-11.29 22.01,-14.77 9.55,-3.44 20.7,-5.18 33.3,-5.18 12.51,0 22.72,1.46 30.57,4.42 7.81,2.97 13.6,6.64 17.27,11.11 3.67,4.46 6.25,10.11 7.76,16.93 0.8,4.23 1.22,11.85 1.22,22.81l0 32.93c0,23 0.52,37.53 1.55,43.69 0.99,6.17 3.06,12.05 6.07,17.69l-25.96 0c-2.5,-5.22 -4.1,-11.34 -4.8,-18.34zm-1.98 -55.04c-9.03,3.67 -22.57,6.78 -40.64,9.32 -10.25,1.45 -17.49,3.1 -21.73,4.93 -4.23,1.84 -7.48,4.52 -9.78,8 -2.31,3.53 -3.48,7.43 -3.48,11.76 0,6.54 2.49,12.04 7.52,16.42 5.04,4.37 12.38,6.58 22.02,6.58 9.55,0 18.06,-2.07 25.54,-6.25 7.43,-4.14 12.93,-9.84 16.41,-17.03 2.69,-5.6 4,-13.83 4,-24.7l0.14 -9.03zm237.35 55.04c-9.22,7.85 -18.11,13.35 -26.62,16.6 -8.52,3.25 -17.64,4.84 -27.43,4.84 -16.08,0 -28.45,-3.9 -37.11,-11.75 -8.65,-7.81 -12.98,-17.83 -12.98,-30.01 0,-7.15 1.65,-13.69 4.89,-19.62 3.29,-5.93 7.57,-10.63 12.84,-14.2 5.32,-3.58 11.24,-6.31 17.88,-8.14 4.89,-1.27 12.27,-2.49 22.1,-3.72 20.04,-2.35 34.86,-5.22 44.31,-8.51 0.1,-3.39 0.14,-5.55 0.14,-6.44 0,-10.07 -2.35,-17.17 -7.05,-21.31 -6.35,-5.6 -15.81,-8.37 -28.32,-8.37 -11.71,0 -20.36,2.07 -25.92,6.16 -5.59,4.09 -9.68,11.33 -12.37,21.78l-24.27 -3.39c2.21,-10.4 5.84,-18.82 10.92,-25.21 5.08,-6.4 12.41,-11.29 22.01,-14.77 9.55,-3.44 20.7,-5.18 33.3,-5.18 12.51,0 22.72,1.46 30.57,4.42 7.81,2.97 13.6,6.64 17.27,11.11 3.67,4.46 6.25,10.11 7.76,16.93 0.8,4.23 1.22,11.85 1.22,22.81l0 32.93c0,23 0.52,37.53 1.55,43.69 0.99,6.17 3.06,12.05 6.07,17.69l-25.96 0c-2.5,-5.22 -4.1,-11.34 -4.8,-18.34zm-1.98 -55.04c-9.03,3.67 -22.57,6.78 -40.64,9.32 -10.25,1.45 -17.49,3.1 -21.73,4.93 -4.23,1.84 -7.48,4.52 -9.78,8 -2.31,3.53 -3.48,7.43 -3.48,11.76 0,6.54 2.49,12.04 7.52,16.42 5.04,4.37 12.38,6.58 22.02,6.58 9.55,0 18.06,-2.07 25.54,-6.25 7.43,-4.14 12.93,-9.84 16.41,-17.03 2.69,-5.6 4,-13.83 4,-24.7l0.14 -9.03zm58.7 85.52l23.99 3.38c0.99,7.43 3.81,12.84 8.42,16.28 6.16,4.56 14.58,6.86 25.26,6.86 11.48,0 20.37,-2.3 26.62,-6.86 6.26,-4.57 10.49,-11.01 12.7,-19.24 1.27,-5.03 1.89,-15.62 1.79,-31.75 -10.86,12.79 -24.36,19.19 -40.54,19.19 -20.14,0 -35.75,-7.24 -46.76,-21.78 -11.05,-14.49 -16.56,-31.89 -16.56,-52.16 0,-13.97 2.54,-26.86 7.58,-38.67 5.03,-11.8 12.37,-20.88 21.96,-27.32 9.6,-6.45 20.89,-9.65 33.87,-9.65 17.26,0 31.51,7.06 42.71,21.17l0 -18.06 22.86 0 0 126.48c0,22.81 -2.31,38.95 -6.96,48.45 -4.61,9.5 -12,17.02 -22.02,22.53 -10.06,5.5 -22.43,8.28 -37.11,8.28 -17.45,0 -31.51,-3.91 -42.24,-11.76 -10.77,-7.81 -15.94,-19.62 -15.57,-35.37zm20.32 -87.87c0,19.14 3.81,33.11 11.43,41.91 7.67,8.8 17.22,13.22 28.7,13.22 11.43,0 20.97,-4.38 28.74,-13.13 7.71,-8.74 11.57,-22.48 11.57,-41.2 0,-17.87 -4,-31.37 -11.95,-40.45 -7.95,-9.08 -17.55,-13.59 -28.74,-13.59 -11.05,0 -20.41,4.46 -28.18,13.4 -7.71,8.94 -11.57,22.2 -11.57,39.84zm236.88 75.73l0 -21.78c-11.38,16.61 -26.81,24.88 -46.33,24.88 -8.61,0 -16.65,-1.64 -24.13,-4.93 -7.48,-3.34 -13.03,-7.48 -16.65,-12.47 -3.62,-5.03 -6.16,-11.15 -7.62,-18.39 -0.99,-4.89 -1.51,-12.61 -1.51,-23.14l0 -90.64 24.84 0 0 81.04c0,12.94 0.51,21.69 1.5,26.15 1.55,6.54 4.85,11.62 9.93,15.34 5.03,3.71 11.24,5.6 18.67,5.6 7.43,0 14.39,-1.89 20.89,-5.7 6.49,-3.81 11.1,-9.03 13.82,-15.56 2.69,-6.54 4.05,-16.09 4.05,-28.56l0 -78.31 24.83 0 0 146.47 -22.29 0zm61.15 -173.28l0 -28.79 24.83 0 0 28.79 -24.83 0zm-31.43 229.91l4.57 -21.02c4.98,1.27 8.89,1.93 11.76,1.93 5.08,0 8.84,-1.7 11.33,-5.04 2.5,-3.34 3.77,-11.76 3.77,-25.16l0 -153.81 24.83 0 0 154.33c0,18.01 -2.35,30.57 -7.05,37.62 -5.98,9.18 -15.9,13.79 -29.78,13.79 -6.73,0 -13.17,-0.9 -19.43,-2.64zm189.94 -74.97c-9.22,7.85 -18.11,13.35 -26.62,16.6 -8.52,3.25 -17.64,4.84 -27.43,4.84 -16.08,0 -28.45,-3.9 -37.11,-11.75 -8.65,-7.81 -12.98,-17.83 -12.98,-30.01 0,-7.15 1.65,-13.69 4.89,-19.62 3.29,-5.93 7.57,-10.63 12.84,-14.2 5.32,-3.58 11.24,-6.31 17.88,-8.14 4.89,-1.27 12.27,-2.49 22.1,-3.72 20.04,-2.35 34.86,-5.22 44.31,-8.51 0.1,-3.39 0.14,-5.55 0.14,-6.44 0,-10.07 -2.35,-17.17 -7.05,-21.31 -6.35,-5.6 -15.81,-8.37 -28.32,-8.37 -11.71,0 -20.36,2.07 -25.92,6.16 -5.59,4.09 -9.68,11.33 -12.37,21.78l-24.27 -3.39c2.21,-10.4 5.84,-18.82 10.92,-25.21 5.08,-6.4 12.41,-11.29 22.01,-14.77 9.55,-3.44 20.7,-5.18 33.3,-5.18 12.51,0 22.72,1.46 30.57,4.42 7.81,2.97 13.6,6.64 17.27,11.11 3.67,4.46 6.25,10.11 7.76,16.93 0.8,4.23 1.22,11.85 1.22,22.81l0 32.93c0,23 0.52,37.53 1.55,43.69 0.99,6.17 3.06,12.05 6.07,17.69l-25.96 0c-2.5,-5.22 -4.1,-11.34 -4.8,-18.34zm-1.98 -55.04c-9.03,3.67 -22.57,6.78 -40.64,9.32 -10.25,1.45 -17.49,3.1 -21.73,4.93 -4.23,1.84 -7.48,4.52 -9.78,8 -2.31,3.53 -3.48,7.43 -3.48,11.76 0,6.54 2.49,12.04 7.52,16.42 5.04,4.37 12.38,6.58 22.02,6.58 9.55,0 18.06,-2.07 25.54,-6.25 7.43,-4.14 12.93,-9.84 16.41,-17.03 2.69,-5.6 4,-13.83 4,-24.7l0.14 -9.03zm70.04 -44.87l0 -28.22 28.22 0 0 28.22 -28.22 0zm0 118.25l0 -28.22 28.22 0 0 28.22 -28.22 0z"/>
  <path class="fil5" d="M5857.13 6543.89l0 -18.58c-9.27,14.44 -22.91,21.68 -40.92,21.68 -11.67,0 -22.39,-3.19 -32.13,-9.64 -9.78,-6.4 -17.35,-15.38 -22.76,-26.86 -5.37,-11.52 -8.05,-24.74 -8.05,-39.69 0,-14.59 2.45,-27.8 7.29,-39.7 4.9,-11.86 12.19,-20.98 21.92,-27.29 9.69,-6.35 20.61,-9.5 32.6,-9.5 8.84,0 16.7,1.88 23.56,5.6 6.87,3.72 12.47,8.61 16.8,14.58l0 -72.67 24.83 0 0 202.07 -23.14 0zm-78.46 -73.05c0,18.72 3.95,32.69 11.9,41.96 7.91,9.26 17.27,13.87 28.04,13.87 10.86,0 20.08,-4.42 27.7,-13.26 7.57,-8.84 11.38,-22.34 11.38,-40.5 0,-19.94 -3.85,-34.62 -11.61,-43.98 -7.72,-9.36 -17.27,-14.01 -28.6,-14.01 -11.06,0 -20.27,4.46 -27.71,13.45 -7.38,8.98 -11.1,23.14 -11.1,42.47zm140.88 -100.8l0 -28.22 24.83 0 0 28.22 -24.83 0zm0 173.85l0 -146.47 24.83 0 0 146.47 -24.83 0zm62.41 0l0 -146.47 22.3 0 0 22.43c5.69,-10.39 10.96,-17.26 15.8,-20.55 4.85,-3.34 10.16,-4.99 15.95,-4.99 8.37,0 16.89,2.64 25.54,7.86l-8.84 22.91c-6.02,-3.39 -12.04,-5.08 -18.06,-5.08 -5.41,0 -10.26,1.64 -14.54,4.89 -4.28,3.24 -7.34,7.76 -9.17,13.54 -2.78,8.8 -4.14,18.44 -4.14,28.93l0 76.53 -24.84 0zm191.35 -47.41l25.68 3.38c-3.99,14.91 -11.47,26.53 -22.39,34.76 -10.91,8.24 -24.83,12.37 -41.81,12.37 -21.36,0 -38.29,-6.58 -50.8,-19.75 -12.51,-13.12 -18.77,-31.61 -18.77,-55.36 0,-24.56 6.31,-43.65 18.96,-57.2 12.65,-13.59 29.07,-20.37 49.25,-20.37 19.52,0 35.46,6.64 47.83,19.95 12.37,13.31 18.58,32.03 18.58,56.16 0,1.46 -0.05,3.67 -0.14,6.58l-109.08 0c0.94,16.04 5.46,28.37 13.64,36.88 8.14,8.51 18.35,12.79 30.53,12.79 9.08,0 16.84,-2.39 23.24,-7.19 6.44,-4.8 11.52,-12.47 15.28,-23zm-81.28 -39.8l81.56 0c-1.08,-12.32 -4.23,-21.54 -9.36,-27.7 -7.85,-9.55 -18.1,-14.35 -30.66,-14.35 -11.39,0 -20.93,3.81 -28.7,11.43 -7.71,7.62 -11.99,17.83 -12.84,30.62zm234.01 33.59l24.27 3.38c-2.68,16.7 -9.45,29.73 -20.41,39.19 -10.96,9.45 -24.46,14.15 -40.41,14.15 -19.99,0 -36.08,-6.53 -48.21,-19.61 -12.18,-13.08 -18.25,-31.8 -18.25,-56.16 0,-15.81 2.63,-29.59 7.85,-41.44 5.22,-11.81 13.17,-20.7 23.9,-26.58 10.68,-5.92 22.29,-8.89 34.9,-8.89 15.85,0 28.88,4 38.95,12.04 10.11,8.05 16.6,19.48 19.42,34.25l-23.99 3.67c-2.3,-9.83 -6.35,-17.22 -12.23,-22.2 -5.83,-4.94 -12.88,-7.44 -21.16,-7.44 -12.51,0 -22.67,4.47 -30.53,13.41 -7.81,8.98 -11.71,23.09 -11.71,42.47 0,19.66 3.76,33.92 11.29,42.81 7.57,8.89 17.4,13.35 29.49,13.35 9.78,0 17.92,-2.96 24.41,-8.93 6.54,-5.93 10.68,-15.1 12.42,-27.47zm141.11 0l24.27 3.38c-2.68,16.7 -9.45,29.73 -20.41,39.19 -10.96,9.45 -24.46,14.15 -40.41,14.15 -19.99,0 -36.08,-6.53 -48.21,-19.61 -12.18,-13.08 -18.25,-31.8 -18.25,-56.16 0,-15.81 2.63,-29.59 7.85,-41.44 5.22,-11.81 13.17,-20.7 23.9,-26.58 10.68,-5.92 22.29,-8.89 34.9,-8.89 15.85,0 28.88,4 38.95,12.04 10.11,8.05 16.6,19.48 19.42,34.25l-23.99 3.67c-2.3,-9.83 -6.35,-17.22 -12.23,-22.2 -5.83,-4.94 -12.88,-7.44 -21.16,-7.44 -12.51,0 -22.67,4.47 -30.53,13.41 -7.81,8.98 -11.71,23.09 -11.71,42.47 0,19.66 3.76,33.92 11.29,42.81 7.57,8.89 17.4,13.35 29.49,13.35 9.78,0 17.92,-2.96 24.41,-8.93 6.54,-5.93 10.68,-15.1 12.42,-27.47zm45.44 -120.23l0 -28.22 24.83 0 0 28.22 -24.83 0zm0 173.85l0 -146.47 24.83 0 0 146.47 -24.83 0zm53.38 -73.24c0,-27.04 7.53,-47.08 22.63,-60.11 12.56,-10.82 27.94,-16.23 46.05,-16.23 20.08,0 36.54,6.59 49.34,19.76 12.75,13.12 19.14,31.33 19.14,54.51 0,18.82 -2.82,33.59 -8.46,44.36 -5.65,10.77 -13.88,19.14 -24.7,25.12 -10.77,5.97 -22.58,8.93 -35.32,8.93 -20.51,0 -37.07,-6.53 -49.72,-19.66 -12.65,-13.12 -18.96,-32.03 -18.96,-56.68zm25.4 0.05c0,18.72 4.1,32.74 12.28,42 8.23,9.32 18.53,13.97 31,13.97 12.32,0 22.57,-4.65 30.81,-14.01 8.18,-9.36 12.27,-23.61 12.27,-42.76 0,-18.06 -4.14,-31.75 -12.37,-41.01 -8.23,-9.32 -18.48,-13.97 -30.71,-13.97 -12.47,0 -22.77,4.61 -31,13.87 -8.18,9.27 -12.28,23.24 -12.28,41.91zm22.58 -91.34l18.06 -38.67 32.74 0 -30.2 38.67 -20.6 0zm118.3 164.53l0 -146.47 22.29 0 0 20.79c10.73,-15.95 26.25,-23.9 46.52,-23.9 8.84,0 16.93,1.6 24.32,4.75 7.38,3.16 12.93,7.34 16.6,12.47 3.67,5.13 6.26,11.24 7.72,18.3 0.89,4.61 1.36,12.65 1.36,24.13l0 89.93 -24.83 0 0 -88.99c0,-10.12 -0.94,-17.69 -2.87,-22.68 -1.93,-4.98 -5.37,-8.98 -10.26,-11.99 -4.89,-2.96 -10.67,-4.47 -17.26,-4.47 -10.54,0 -19.61,3.34 -27.28,10.07 -7.67,6.68 -11.48,19.42 -11.48,38.14l0 79.92 -24.83 0zm235.37 0l0 -202.07 24.83 0 0 72.72c11.53,-13.5 26.06,-20.23 43.65,-20.23 10.77,0 20.13,2.12 28.13,6.4 7.95,4.28 13.64,10.16 17.07,17.69 3.44,7.52 5.13,18.48 5.13,32.78l0 92.71 -24.83 0 0 -92.62c0,-12.37 -2.69,-21.4 -8,-27.04 -5.36,-5.65 -12.89,-8.47 -22.67,-8.47 -7.29,0 -14.16,1.88 -20.6,5.69 -6.45,3.81 -11.01,8.99 -13.79,15.53 -2.72,6.49 -4.09,15.47 -4.09,26.95l0 79.96 -24.83 0zm252.63 -18.34c-9.22,7.85 -18.11,13.35 -26.62,16.6 -8.52,3.25 -17.64,4.84 -27.43,4.84 -16.08,0 -28.45,-3.9 -37.11,-11.75 -8.65,-7.81 -12.98,-17.83 -12.98,-30.01 0,-7.15 1.65,-13.69 4.89,-19.62 3.29,-5.93 7.57,-10.63 12.84,-14.2 5.32,-3.58 11.24,-6.31 17.88,-8.14 4.89,-1.27 12.27,-2.49 22.1,-3.72 20.04,-2.35 34.86,-5.22 44.31,-8.51 0.1,-3.39 0.14,-5.55 0.14,-6.44 0,-10.07 -2.35,-17.17 -7.05,-21.31 -6.35,-5.6 -15.81,-8.37 -28.32,-8.37 -11.71,0 -20.36,2.07 -25.92,6.16 -5.59,4.09 -9.68,11.33 -12.37,21.78l-24.27 -3.39c2.21,-10.4 5.84,-18.82 10.92,-25.21 5.08,-6.4 12.41,-11.29 22.01,-14.77 9.55,-3.44 20.7,-5.18 33.3,-5.18 12.51,0 22.72,1.46 30.57,4.42 7.81,2.97 13.6,6.64 17.27,11.11 3.67,4.46 6.25,10.11 7.76,16.93 0.8,4.23 1.22,11.85 1.22,22.81l0 32.93c0,23 0.52,37.53 1.55,43.69 0.99,6.17 3.06,12.05 6.07,17.69l-25.96 0c-2.5,-5.22 -4.1,-11.34 -4.8,-18.34zm-1.98 -55.04c-9.03,3.67 -22.57,6.78 -40.64,9.32 -10.25,1.45 -17.49,3.1 -21.73,4.93 -4.23,1.84 -7.48,4.52 -9.78,8 -2.31,3.53 -3.48,7.43 -3.48,11.76 0,6.54 2.49,12.04 7.52,16.42 5.04,4.37 12.38,6.58 22.02,6.58 9.55,0 18.06,-2.07 25.54,-6.25 7.43,-4.14 12.93,-9.84 16.41,-17.03 2.69,-5.6 4,-13.83 4,-24.7l0.14 -9.03zm158.94 19.76l24.27 3.38c-2.68,16.7 -9.45,29.73 -20.41,39.19 -10.96,9.45 -24.46,14.15 -40.41,14.15 -19.99,0 -36.08,-6.53 -48.21,-19.61 -12.18,-13.08 -18.25,-31.8 -18.25,-56.16 0,-15.81 2.63,-29.59 7.85,-41.44 5.22,-11.81 13.17,-20.7 23.9,-26.58 10.68,-5.92 22.29,-8.89 34.9,-8.89 15.85,0 28.88,4 38.95,12.04 10.11,8.05 16.6,19.48 19.42,34.25l-23.99 3.67c-2.3,-9.83 -6.35,-17.22 -12.23,-22.2 -5.83,-4.94 -12.88,-7.44 -21.16,-7.44 -12.51,0 -22.67,4.47 -30.53,13.41 -7.81,8.98 -11.71,23.09 -11.71,42.47 0,19.66 3.76,33.92 11.29,42.81 7.57,8.89 17.4,13.35 29.49,13.35 9.78,0 17.92,-2.96 24.41,-8.93 6.54,-5.93 10.68,-15.1 12.42,-27.47zm45.44 -120.23l0 -28.22 24.83 0 0 28.22 -24.83 0zm0 173.85l0 -146.47 24.83 0 0 146.47 -24.83 0zm158.37 -18.34c-9.22,7.85 -18.11,13.35 -26.62,16.6 -8.52,3.25 -17.64,4.84 -27.43,4.84 -16.08,0 -28.45,-3.9 -37.11,-11.75 -8.65,-7.81 -12.98,-17.83 -12.98,-30.01 0,-7.15 1.65,-13.69 4.89,-19.62 3.29,-5.93 7.57,-10.63 12.84,-14.2 5.32,-3.58 11.24,-6.31 17.88,-8.14 4.89,-1.27 12.27,-2.49 22.1,-3.72 20.04,-2.35 34.86,-5.22 44.31,-8.51 0.1,-3.39 0.14,-5.55 0.14,-6.44 0,-10.07 -2.35,-17.17 -7.05,-21.31 -6.35,-5.6 -15.81,-8.37 -28.32,-8.37 -11.71,0 -20.36,2.07 -25.92,6.16 -5.59,4.09 -9.68,11.33 -12.37,21.78l-24.27 -3.39c2.21,-10.4 5.84,-18.82 10.92,-25.21 5.08,-6.4 12.41,-11.29 22.01,-14.77 9.55,-3.44 20.7,-5.18 33.3,-5.18 12.51,0 22.72,1.46 30.57,4.42 7.81,2.97 13.6,6.64 17.27,11.11 3.67,4.46 6.25,10.11 7.76,16.93 0.8,4.23 1.22,11.85 1.22,22.81l0 32.93c0,23 0.52,37.53 1.55,43.69 0.99,6.17 3.06,12.05 6.07,17.69l-25.96 0c-2.5,-5.22 -4.1,-11.34 -4.8,-18.34zm-1.98 -55.04c-9.03,3.67 -22.57,6.78 -40.64,9.32 -10.25,1.45 -17.49,3.1 -21.73,4.93 -4.23,1.84 -7.48,4.52 -9.78,8 -2.31,3.53 -3.48,7.43 -3.48,11.76 0,6.54 2.49,12.04 7.52,16.42 5.04,4.37 12.38,6.58 22.02,6.58 9.55,0 18.06,-2.07 25.54,-6.25 7.43,-4.14 12.93,-9.84 16.41,-17.03 2.69,-5.6 4,-13.83 4,-24.7l0.14 -9.03zm237.35 55.04c-9.22,7.85 -18.11,13.35 -26.62,16.6 -8.52,3.25 -17.64,4.84 -27.43,4.84 -16.08,0 -28.45,-3.9 -37.11,-11.75 -8.65,-7.81 -12.98,-17.83 -12.98,-30.01 0,-7.15 1.65,-13.69 4.89,-19.62 3.29,-5.93 7.57,-10.63 12.84,-14.2 5.32,-3.58 11.24,-6.31 17.88,-8.14 4.89,-1.27 12.27,-2.49 22.1,-3.72 20.04,-2.35 34.86,-5.22 44.31,-8.51 0.1,-3.39 0.14,-5.55 0.14,-6.44 0,-10.07 -2.35,-17.17 -7.05,-21.31 -6.35,-5.6 -15.81,-8.37 -28.32,-8.37 -11.71,0 -20.36,2.07 -25.92,6.16 -5.59,4.09 -9.68,11.33 -12.37,21.78l-24.27 -3.39c2.21,-10.4 5.84,-18.82 10.92,-25.21 5.08,-6.4 12.41,-11.29 22.01,-14.77 9.55,-3.44 20.7,-5.18 33.3,-5.18 12.51,0 22.72,1.46 30.57,4.42 7.81,2.97 13.6,6.64 17.27,11.11 3.67,4.46 6.25,10.11 7.76,16.93 0.8,4.23 1.22,11.85 1.22,22.81l0 32.93c0,23 0.52,37.53 1.55,43.69 0.99,6.17 3.06,12.05 6.07,17.69l-25.96 0c-2.5,-5.22 -4.1,-11.34 -4.8,-18.34zm-1.98 -55.04c-9.03,3.67 -22.57,6.78 -40.64,9.32 -10.25,1.45 -17.49,3.1 -21.73,4.93 -4.23,1.84 -7.48,4.52 -9.78,8 -2.31,3.53 -3.48,7.43 -3.48,11.76 0,6.54 2.49,12.04 7.52,16.42 5.04,4.37 12.38,6.58 22.02,6.58 9.55,0 18.06,-2.07 25.54,-6.25 7.43,-4.14 12.93,-9.84 16.41,-17.03 2.69,-5.6 4,-13.83 4,-24.7l0.14 -9.03zm62.98 73.38l0 -146.47 22.3 0 0 22.43c5.69,-10.39 10.96,-17.26 15.8,-20.55 4.85,-3.34 10.16,-4.99 15.95,-4.99 8.37,0 16.89,2.64 25.54,7.86l-8.84 22.91c-6.02,-3.39 -12.04,-5.08 -18.06,-5.08 -5.41,0 -10.26,1.64 -14.54,4.89 -4.28,3.24 -7.34,7.76 -9.17,13.54 -2.78,8.8 -4.14,18.44 -4.14,28.93l0 76.53 -24.84 0zm93.98 0l0 -146.47 22.3 0 0 22.43c5.69,-10.39 10.96,-17.26 15.8,-20.55 4.85,-3.34 10.16,-4.99 15.95,-4.99 8.37,0 16.89,2.64 25.54,7.86l-8.84 22.91c-6.02,-3.39 -12.04,-5.08 -18.06,-5.08 -5.41,0 -10.26,1.64 -14.54,4.89 -4.28,3.24 -7.34,7.76 -9.17,13.54 -2.78,8.8 -4.14,18.44 -4.14,28.93l0 76.53 -24.84 0zm94.27 -173.85l0 -28.22 24.83 0 0 28.22 -24.83 0zm0 173.85l0 -146.47 24.83 0 0 146.47 -24.83 0zm85.56 0l-23.15 0 0 -202.07 24.84 0 0 72.11c10.49,-13.08 23.85,-19.62 40.12,-19.62 8.99,0 17.55,1.79 25.59,5.41 8.04,3.62 14.63,8.75 19.85,15.29 5.17,6.58 9.27,14.49 12.18,23.75 2.97,9.22 4.42,19.15 4.42,29.68 0,25.03 -6.21,44.41 -18.58,58.05 -12.41,13.68 -27.28,20.5 -44.63,20.5 -17.27,0 -30.81,-7.19 -40.64,-21.54l0 18.44zm-0.29 -74.32c0,17.5 2.4,30.15 7.15,37.96 7.81,12.75 18.35,19.14 31.66,19.14 10.86,0 20.23,-4.7 28.08,-14.11 7.9,-9.4 11.85,-23.42 11.85,-42.05 0,-19.09 -3.76,-33.16 -11.33,-42.24 -7.58,-9.07 -16.75,-13.64 -27.47,-13.64 -10.87,0 -20.23,4.71 -28.08,14.11 -7.9,9.41 -11.86,23.01 -11.86,40.83zm230.06 55.98c-9.22,7.85 -18.11,13.35 -26.62,16.6 -8.52,3.25 -17.64,4.84 -27.43,4.84 -16.08,0 -28.45,-3.9 -37.11,-11.75 -8.65,-7.81 -12.98,-17.83 -12.98,-30.01 0,-7.15 1.65,-13.69 4.89,-19.62 3.29,-5.93 7.57,-10.63 12.84,-14.2 5.32,-3.58 11.24,-6.31 17.88,-8.14 4.89,-1.27 12.27,-2.49 22.1,-3.72 20.04,-2.35 34.86,-5.22 44.31,-8.51 0.1,-3.39 0.14,-5.55 0.14,-6.44 0,-10.07 -2.35,-17.17 -7.05,-21.31 -6.35,-5.6 -15.81,-8.37 -28.32,-8.37 -11.71,0 -20.36,2.07 -25.92,6.16 -5.59,4.09 -9.68,11.33 -12.37,21.78l-24.27 -3.39c2.21,-10.4 5.84,-18.82 10.92,-25.21 5.08,-6.4 12.41,-11.29 22.01,-14.77 9.55,-3.44 20.7,-5.18 33.3,-5.18 12.51,0 22.72,1.46 30.57,4.42 7.81,2.97 13.6,6.64 17.27,11.11 3.67,4.46 6.25,10.11 7.76,16.93 0.8,4.23 1.22,11.85 1.22,22.81l0 32.93c0,23 0.52,37.53 1.55,43.69 0.99,6.17 3.06,12.05 6.07,17.69l-25.96 0c-2.5,-5.22 -4.1,-11.34 -4.8,-18.34zm-1.98 -55.04c-9.03,3.67 -22.57,6.78 -40.64,9.32 -10.25,1.45 -17.49,3.1 -21.73,4.93 -4.23,1.84 -7.48,4.52 -9.78,8 -2.31,3.53 -3.48,7.43 -3.48,11.76 0,6.54 2.49,12.04 7.52,16.42 5.04,4.37 12.38,6.58 22.02,6.58 9.55,0 18.06,-2.07 25.54,-6.25 7.43,-4.14 12.93,-9.84 16.41,-17.03 2.69,-5.6 4,-13.83 4,-24.7l0.14 -9.03z"/>
  <path class="fil3 str1" d="M7606.83 2321.32c0,39.2 -1.76,78 -5.22,116.32"/>
  <path class="fil3 str1" d="M7340.9 1539.64c166.75,216.33 265.92,487.44 265.92,781.69"/>
  <path class="fil5" d="M6886.19 1940.27l18.63 -2.54c2.15,10.59 5.75,18.21 10.86,22.86 5.12,4.66 11.4,6.99 18.84,6.99 8.82,0 16.26,-3.04 22.26,-9.1 6,-6.07 9,-13.59 9,-22.55 0,-8.53 -2.79,-15.59 -8.4,-21.16 -5.57,-5.54 -12.66,-8.33 -21.31,-8.33 -3.52,0 -7.9,0.71 -13.16,2.08l2.09 -16.3c1.23,0.14 2.25,0.22 2.99,0.22 7.98,0 15.1,-2.09 21.49,-6.21 6.35,-4.13 9.52,-10.48 9.52,-19.05 0,-6.81 -2.32,-12.46 -6.95,-16.94 -4.62,-4.48 -10.58,-6.7 -17.88,-6.7 -7.27,0 -13.3,2.29 -18.13,6.88 -4.84,4.58 -7.94,11.46 -9.32,20.64l-18.62 -3.39c2.29,-12.49 7.44,-22.19 15.52,-29.07 8.04,-6.88 18.1,-10.3 30.09,-10.3 8.26,0 15.88,1.76 22.83,5.33 6.98,3.52 12.31,8.36 15.98,14.46 3.7,6.14 5.53,12.63 5.53,19.51 0,6.53 -1.76,12.45 -5.25,17.81 -3.53,5.37 -8.75,9.64 -15.63,12.81 8.96,2.05 15.91,6.35 20.88,12.88 4.94,6.49 7.41,14.67 7.41,24.45 0,13.22 -4.83,24.48 -14.46,33.69 -9.67,9.2 -21.87,13.79 -36.62,13.79 -13.3,0 -24.34,-3.99 -33.13,-11.92 -8.82,-7.94 -13.83,-18.21 -15.06,-30.84zm117.72 -34.57c0,-17.89 1.83,-32.35 5.5,-43.29 3.71,-10.97 9.18,-19.4 16.44,-25.29 7.24,-5.89 16.37,-8.82 27.38,-8.82 8.11,0 15.24,1.62 21.41,4.9 6.14,3.28 11.22,8.01 15.17,14.18 3.95,6.14 7.06,13.66 9.32,22.51 2.29,8.86 3.42,20.82 3.42,35.81 0,17.78 -1.84,32.17 -5.47,43.11 -3.63,10.97 -9.1,19.4 -16.37,25.33 -7.23,5.93 -16.4,8.89 -27.48,8.89 -14.57,0 -26.04,-5.19 -34.36,-15.59 -9.99,-12.7 -14.96,-33.27 -14.96,-61.74zm19.05 0.07c0,24.94 2.89,41.52 8.71,49.71 5.83,8.22 13.02,12.31 21.56,12.31 8.54,0 15.73,-4.13 21.55,-12.35 5.83,-8.25 8.72,-24.8 8.72,-49.67 0,-24.94 -2.89,-41.52 -8.72,-49.71 -5.78,-8.22 -13.05,-12.31 -21.76,-12.31 -8.54,0 -15.38,3.63 -20.5,10.87 -6.38,9.2 -9.56,26.28 -9.56,51.15zm89.78 77.26l44.03 -156.64 14.99 0 -44.03 156.64 -14.99 0zm127.18 -2.54l0 -36.2 -65.83 0 0 -17.14 69.22 -98.22 15.24 0 0 98.22 20.53 0 0 17.14 -20.53 0 0 36.2 -18.63 0zm0 -53.34l0 -68.19 -47.52 68.19 47.52 0zm58.24 13.55l19.47 -1.49c1.45,9.49 4.8,16.62 10.02,21.42 5.22,4.76 11.61,7.16 19.12,7.16 9.07,0 16.66,-3.39 22.83,-10.13 6.14,-6.77 9.21,-15.73 9.21,-26.88 0,-10.62 -2.93,-18.98 -8.82,-25.12 -5.89,-6.13 -13.69,-9.2 -23.39,-9.2 -6.04,0 -11.43,1.37 -16.23,4.12 -4.76,2.76 -8.5,6.32 -11.25,10.69l-17.57 -2.54 14.6 -77.89 75.14 0 0 17.78 -60.29 0 -8.07 40.89c9.06,-6.39 18.59,-9.56 28.54,-9.56 13.19,0 24.34,4.58 33.4,13.76 9.07,9.17 13.62,20.95 13.62,35.34 0,13.73 -3.98,25.58 -11.96,35.56 -9.7,12.28 -22.96,18.42 -39.76,18.42 -13.75,0 -24.97,-3.88 -33.69,-11.61 -8.71,-7.72 -13.69,-17.95 -14.92,-30.72zm147.46 -114.31c10.02,0 18.17,3.46 24.48,10.34 6.32,6.92 9.49,16.41 9.49,28.54 0,12.1 -3.17,21.56 -9.52,28.47 -6.35,6.88 -14.47,10.34 -24.34,10.34 -10.02,0 -18.21,-3.39 -24.56,-10.13 -6.35,-6.77 -9.52,-16.19 -9.52,-28.26 0,-12.41 3.17,-22.04 9.49,-28.96 6.31,-6.88 14.46,-10.34 24.48,-10.34zm0 13.55c-5.61,0 -10.16,1.98 -13.58,5.93 -3.42,3.95 -5.15,10.4 -5.15,19.37 0,8.74 1.76,15.13 5.25,19.19 3.5,4.05 8.01,6.1 13.48,6.1 5.54,0 10.05,-2.05 13.51,-6.1 3.49,-4.06 5.22,-10.62 5.22,-19.72 0,-8.47 -1.76,-14.71 -5.25,-18.74 -3.5,-4.02 -8.01,-6.03 -13.48,-6.03z"/>
  <path class="fil6" d="M7350.21 1110.14l152.86 144.67 -365.97 356.31c0,0 -42.27,7.55 -66.4,-15.28 -24.13,-22.82 -61.38,-71.51 -61.38,-71.51 0,0 17.22,-29.45 43,-69.57 25.83,-40.11 297.89,-344.62 297.89,-344.62z"/>
  <path class="fil7" d="M7481.94 1221.57c19.62,-19.33 45.51,-30.4 72.99,-31.15l189.48 -5.22c9.42,-0.28 18.2,-4.19 24.73,-11.07l123.62 -130.62c-91.46,-135.78 -211.09,-250.98 -350.45,-337.35l-126.48 133.64c-6.49,6.88 -9.95,15.84 -9.67,25.26l5.19 189.51c0.78,27.48 -8.85,53.94 -27.09,74.58l97.68 92.42z"/>
  <line class="fil3 str2" x1="7694.21" y1="1039.45" x2="7825.73" y2= "1163.91" />
  <path class="fil5" d="M7142.81 1582.58c-14.68,14.53 -37.92,14.78 -52.92,0.6l-45.08 -42.65c-14.96,-14.18 -15.98,-37.4 -2.3,-52.85l312.6 -352.85 122.77 116.21 -335.07 331.54zm778.76 -494.1c-6.18,-10.16 -12.58,-20.19 -19.06,-30.15l-136.94 144.7c-9.67,10.23 -22.76,16.08 -36.8,16.44l-189.47 5.22c-11.05,0.31 -21.77,2.71 -31.79,6.8l-134.55 -127.31c3.53,-10.23 5.36,-21.06 5.05,-32.11l-5.23 -189.51c-0.38,-14.04 4.73,-27.41 14.4,-37.64l140.03 -147.97c-10.14,-6.08 -20.4,-11.98 -30.74,-17.75l-134.37 141.98c-16.06,16.93 -24.49,39.09 -23.85,62.33l5.18 189.52c0.43,14.28 -4.58,28.04 -14.07,38.77l-312.74 352.95c-20.46,23.14 -23.42,55.28 -10.05,81.18 0,0 29.24,41.84 80.01,75.74 26.6,11.96 58.56,7.23 80.54,-14.5l335.2 -331.72c10.16,-10.05 23.61,-15.84 37.93,-16.23l189.48 -5.22c23.24,-0.63 44.9,-10.3 60.96,-27.23l130.88 -138.29z"/>
  <polygon class="fil5" points="7064.42,1587.95 6303.09,2392.43 6325.35,2321.31 7039.34,1564.21 "/>
  <path class="fil3 str3" d="M8070.5 1666.27c0,636.79 -516.22,1153.01 -1153.02,1153.01 -636.76,0 -1152.98,-516.22 -1152.98,-1153.01 0,-636.8 516.22,-1153.02 1152.98,-1153.02 636.8,0 1153.02,516.22 1153.02,1153.02z"/>
  <polygon class="fil8" points="1462.46,6092.82 1354.79,6205.1 1396.98,6539.64 1495.2,6437.55 "/>
  <path class="fil6" d="M2135.27 5640.85l-71.79 -67.87 171.73 -167.36c0,0 19.82,-3.56 31.15,7.12 11.36,10.73 28.86,33.59 28.86,33.59 0,0 -8.08,13.83 -20.18,32.67 -12.1,18.83 -139.77,161.85 -139.77,161.85z"/>
  <path class="fil7" d="M2073.39 5588.57c-9.21,9.06 -21.34,14.28 -34.25,14.64l-88.97 2.5c-4.41,0.14 -8.54,1.98 -11.61,5.19l-228.14 241.37 165.91 156.88 228.18 -241.37c3.07,-3.21 4.65,-7.45 4.55,-11.86l-2.51 -88.97c-0.35,-12.87 4.17,-25.33 12.7,-35.03l-45.86 -43.35z"/>
  <polygon class="fil9" points="1681.61,5882.7 1847.56,6039.58 1876.35,6009.14 1710.4,5852.26 "/>
  <path class="fil9" d="M1584.34 5997.12l154.45 146.01c3.17,3 8.18,2.86 11.18,-0.32l63.36 -67.02c3,-3.18 2.86,-8.19 -0.32,-11.19l-154.45 -146.01c-3.17,-3 -8.18,-2.86 -11.18,0.32l-63.36 67.02c-3,3.18 -2.86,8.19 0.32,11.19z"/>
  <polygon class="fil10" points="1656.45,5916.58 1816.15,6067.57 1844.94,6037.09 1685.24,5886.14 "/>
  <line class="fil3 str2" x1="1973.78" y1="5674.12" x2="1912.01" y2= "5615.7" />
  <line class="fil3 str2" x1="1878.99" y1="5774.37" x2="1817.22" y2= "5715.95" />
  <line class="fil3 str2" x1="1786.12" y1="5872.61" x2="1724.35" y2= "5814.19" />
  <line class="fil3 str2" x1="1691.33" y1="5972.86" x2="1629.56" y2= "5914.44" />
  <line class="fil3 str2" x1="1598.46" y1="6071.09" x2="1536.69" y2= "6012.67" />
  <line class="fil3 str2" x1="1509.42" y1="6165.28" x2="1447.65" y2= "6106.86" />
  <line class="fil3 str2" x1="1416.55" y1="6263.51" x2="1354.78" y2= "6205.09" />
  <line class="fil3 str2" x1="1321.76" y1="6363.76" x2="1259.99" y2= "6305.34" />
  <line class="fil3 str2" x1="1228.89" y1="6461.99" x2="1167.12" y2= "6403.57" />
  <path class="fil5" d="M2232.52 5419c6.88,-6.81 17.78,-6.95 24.84,-0.28l21.17 20c7.05,6.67 7.51,17.57 1.09,24.8l-146.65 165.74 -57.68 -54.51 157.23 -155.75zm26.39 -18.38c-12.49,-5.57 -27.48,-3.35 -37.82,6.85l-157.27 155.82c-4.76,4.69 -11.11,7.41 -17.81,7.62l-88.94 2.47c-10.93,0.32 -21.09,4.87 -28.61,12.8l-843.98 892.71 11.78 11.15 843.99 -892.71c4.51,-4.8 10.65,-7.55 17.25,-7.72l88.97 -2.51c5.18,-0.14 10.23,-1.27 14.92,-3.17l63.18 59.72c-1.66,4.8 -2.5,9.88 -2.36,15.07l2.5 88.97c0.18,6.59 -2.22,12.87 -6.73,17.67l-843.99 892.7 11.78 11.12 843.99 -892.67c7.51,-7.94 11.5,-18.35 11.18,-29.28l-2.5 -88.97c-0.18,-6.71 2.15,-13.16 6.63,-18.17l146.72 -165.81c9.6,-10.86 11.01,-25.96 4.69,-38.1 0,0 -13.72,-19.65 -37.57,-35.56z"/>
  <polygon class="fil5" points="2269.32,5416.46 2626.55,5038.6 2638.37,5049.75 2281.11,5427.61 "/>
  <path class="fil5" d="M1294.32 6731.46c1.63,1.55 3.74,2.29 5.97,2.29 2.22,-0.07 4.27,-0.99 5.78,-2.61l5.61 -5.92c1.52,-1.63 2.36,-3.71 2.29,-5.97 -0.07,-2.18 -0.98,-4.27 -2.61,-5.78l-278.16 -263.03c-3.32,-3.11 -8.61,-3 -11.75,0.35l-5.61 5.93c-1.52,1.62 -2.33,3.7 -2.29,5.96 0.07,2.19 0.99,4.27 2.61,5.78l278.16 263.03 0 -0.03zm1.87 20.99c-5.53,-0.81 -10.72,-3.28 -14.88,-7.2l0 0 -278.17 -263.03c-5.29,-4.97 -8.29,-11.75 -8.5,-19.01 -0.21,-7.31 2.43,-14.22 7.44,-19.51l5.61 -5.93c10.27,-10.93 27.59,-11.43 38.53,-1.09l278.16 263.03c5.29,4.97 8.33,11.75 8.54,19.01 0.21,7.31 -2.47,14.22 -7.48,19.51l-5.57 5.93c-5.01,5.29 -11.79,8.32 -19.05,8.54 -1.56,0.03 -3.11,-0.04 -4.63,-0.25z"/>
  <path class="fil5" d="M782.39 6733.56c-0.46,-0.07 -0.92,-0.11 -1.38,-0.07 -2.26,0.03 -4.3,0.99 -5.85,2.57l-5.58 5.93c-3.14,3.35 -3,8.61 0.32,11.78l253.4 239.57c1.62,1.52 3.7,2.3 5.96,2.26 2.22,-0.07 4.27,-0.99 5.79,-2.61l5.61 -5.93c3.14,-3.31 2.99,-8.6 -0.36,-11.74l-253.36 -239.57c-1.31,-1.2 -2.86,-1.94 -4.55,-2.19zm242.78 280.74c-5.57,-0.81 -10.73,-3.28 -14.89,-7.2l-253.4 -239.57c-10.93,-10.34 -11.39,-27.62 -1.06,-38.56l5.58 -5.92c10.37,-10.94 27.69,-11.43 38.56,-1.06l253.36 239.57c10.94,10.33 11.43,27.62 1.09,38.52l-5.6 5.93c-4.98,5.29 -11.75,8.32 -19.02,8.54 -1.55,0.03 -3.1,-0.04 -4.62,-0.25z"/>
  <polygon class="fil5" points="982.75,6906.58 969,6893.53 1196.93,6652.48 1210.68,6665.49 "/>
  <polygon class="fil5" points="872.57,6802.38 858.81,6789.36 1086.74,6548.31 1100.5,6561.29 "/>
  <path class="fil6" d="M2180.22 1648.26l76.2 -116.38 274.6 196.32c0,0 9.88,26.6 -2.15,44.98 -12.03,18.35 -39.33,48.3 -39.33,48.3 0,0 -21.17,-7.76 -50.28,-19.83 -29.1,-12.1 -259.04,-153.39 -259.04,-153.39z"/>
  <path class="fil7" d="M2237.27 1549.53c-14.89,-10.48 -25.12,-26.03 -28.82,-43.81l-25.58 -122.63c-1.27,-6.1 -4.87,-11.36 -10.09,-14.78l-391.16 -256.12 -176.07 268.96 391.13 256.08c5.25,3.46 11.5,4.62 17.57,3.35l122.66 -25.57c17.78,-3.74 36.12,-0.57 51.68,8.89l48.68 -74.37z"/>
  <polygon class="fil9" points="1732.27,1079.89 1556.2,1348.84 1605.55,1381.16 1781.62,1112.2 "/>
  <path class="fil9" d="M1549.54 973.58l-163.87 250.29c-3.38,5.15 -1.94,12.07 3.21,15.42l108.62 71.12c5.15,3.38 12.07,1.94 15.42,-3.21l163.9 -250.3c3.35,-5.15 1.91,-12.06 -3.25,-15.45l-108.62 -71.08c-5.15,-3.39 -12.03,-1.94 -15.41,3.21z"/>
  <polygon class="fil10" points="1679.07,1053.45 1509.63,1312.25 1558.98,1344.56 1728.42,1085.76 "/>
  <line class="fil3 str2" x1="2093.95" y1="1432.79" x2="2159.5" y2= "1332.68" />
  <line class="fil3 str2" x1="1931.46" y1="1326.41" x2="1997.01" y2= "1226.29" />
  <line class="fil3 str2" x1="1772.25" y1="1222.17" x2="1837.8" y2= "1122.05" />
  <line class="fil3 str2" x1="1609.76" y1="1115.78" x2="1675.31" y2= "1015.67" />
  <line class="fil3 str2" x1="1450.56" y1="1011.55" x2="1516.1" y2= "911.43" />
  <line class="fil3 str2" x1="1297.91" y1="911.61" x2="1363.46" y2= "811.49" />
  <line class="fil3 str2" x1="1138.71" y1="807.37" x2="1204.25" y2= "707.25" />
  <line class="fil3 str2" x1="976.21" y1="700.98" x2="1041.76" y2= "600.87" />
  <line class="fil3 str2" x1="817.01" y1="596.75" x2="882.56" y2= "496.63" />
  <path class="fil5" d="M2511.8 1727.83c11.14,7.83 14.04,22.93 6.56,34.36l-22.44 34.29c-7.48,11.39 -22.47,14.78 -34.11,7.69l-266.1 -162 61.2 -93.45 254.89 179.11zm31.99 32c4.66,-18.7 -2.15,-38.95 -18.84,-50.7l-255.02 -179.17c-7.72,-5.44 -13.05,-13.52 -14.99,-22.76l-25.58 -122.62c-3.14,-15.07 -11.96,-28.01 -24.87,-36.45l-1446.81 -947.27 -12.49 19.12 1446.78 947.24c7.79,5.11 13.12,12.91 15.03,22.01l25.57 122.63c1.52,7.16 4.34,13.86 8.15,19.89l-67.03 102.42c-7.09,-1.1 -14.32,-1.03 -21.48,0.49l-122.66 25.58c-9.07,1.9 -18.38,0.14 -26.18,-4.98l-1446.77 -947.24 -12.53 19.12 1446.81 947.24c12.92,8.43 28.3,11.36 43.36,8.19l122.63 -25.58c9.24,-1.94 18.8,-0.28 26.88,4.66l266.2 162.03c17.43,10.62 38.7,8.78 53.98,-2.93 0,0 23.78,-23.92 39.86,-60.92z"/>
  <polygon class="fil5" points="2524.47,1778.18 3136.89,2179.15 3124.37,2198.24 2511.95,1797.3 "/>
  <path class="fil5" d="M459.93 754.44c-1.72,2.61 -2.25,5.75 -1.65,8.82 0.63,3.07 2.43,5.68 5.01,7.38l9.59 6.31c2.65,1.69 5.75,2.33 8.82,1.66 3.07,-0.64 5.68,-2.4 7.37,-5.05l295.24 -450.85c3.53,-5.32 2.01,-12.62 -3.42,-16.19l-9.56 -6.28c-2.64,-1.69 -5.75,-2.33 -8.82,-1.66 -3.07,0.64 -5.68,2.4 -7.37,5.05l-295.24 450.85 0.03 -0.04zm-28.61 7.8c-0.28,-7.87 1.87,-15.66 6.25,-22.4l0.03 0 295.21 -450.85c5.61,-8.54 14.22,-14.43 24.23,-16.51 10.06,-2.12 20.32,-0.18 28.9,5.47l9.63 6.28c17.67,11.5 22.65,35.38 11.07,53.13l-295.24 450.85c-5.57,8.53 -14.21,14.42 -24.23,16.51 -10.06,2.11 -20.32,0.17 -28.89,-5.47l-9.6 -6.28c-8.57,-5.58 -14.46,-14.22 -16.54,-24.24 -0.46,-2.15 -0.71,-4.34 -0.82,-6.49z"/>
  <path class="fil5" d="M329.66 45.66c-0.03,-0.63 -0.1,-1.3 -0.24,-1.94 -0.64,-3.07 -2.44,-5.71 -5.05,-7.44l-9.59 -6.25c-5.4,-3.56 -12.67,-2.01 -16.23,3.39l-268.85 410.67c-1.73,2.61 -2.3,5.71 -1.7,8.82 0.64,3.03 2.44,5.64 5.05,7.34l9.63 6.31c5.4,3.53 12.66,2.01 16.19,-3.39l268.89 -410.67c1.34,-2.08 2.01,-4.41 1.9,-6.84zm-328.54 406.22c-0.32,-7.9 1.84,-15.66 6.25,-22.4l268.88 -410.7c11.61,-17.71 35.46,-22.68 53.13,-11.08l9.63 6.25c17.71,11.64 22.72,35.52 11.04,53.19l-268.85 410.64c-11.6,17.74 -35.45,22.72 -53.16,11.11l-9.56 -6.31c-8.57,-5.58 -14.46,-14.19 -16.58,-24.24 -0.42,-2.15 -0.71,-4.34 -0.78,-6.46z"/>
  <polygon class="fil5" points="139.78,366.32 154.42,344.03 545.16,599.86 530.55,622.16 "/>
  <polygon class="fil5" points="256.75,187.74 271.35,165.44 662.05,421.24 647.48,443.54 "/>
  <path class="fil8" d="M1990.92 7035.87c0,0 -385.19,-558.51 -408.3,-643.25 -23.11,-84.74 -30.8,-489.2 -30.8,-500.73 0,0 84.74,-92.47 165.63,3.84 80.89,96.28 134.8,354.37 134.8,354.37l92.46 111.69c0,0 362.06,119.41 462.21,246.52l-416 427.56z"/>
  <path class="fil3 str0" d="M1993.04 7035.87c0,0 -385.2,-558.51 -408.31,-643.25 -23.11,-84.74 -30.8,-489.2 -30.8,-500.73 0,0 84.74,-92.47 165.63,3.84 80.89,96.28 134.8,354.37 134.8,354.37l92.46 111.69c0,0 362.06,119.41 462.21,246.52"/>
  <path class="fil2" d="M1771.96 4776.89c0,-66 -53.52,-119.52 -119.52,-119.52 -33.69,0 -64.06,13.97 -85.8,36.41 -21.73,-22.44 -52.1,-36.41 -85.76,-36.41 -66.04,0 -119.52,53.52 -119.52,119.52 0,2.58 0.21,5.08 0.36,7.59l-0.15 0c0,0 -8.53,97.19 205.99,233.71 191.24,-125.66 203.34,-211.14 203.7,-228.49 0.45,-4.2 0.7,-8.47 0.7,-12.81z"/>
  <path class="fil3 str4" d="M1553.92 5891.87c0,0 79.94,-1.73 102.52,24.69l20.29 155.9c0,0 -25.44,25.4 -117.87,23.1"/>
  <path class="fil3 str4" d="M2411.68 6162.58c0,0 -25.43,25.44 -18.48,71.65 0,0 94.75,39.3 159.45,41.6 0,0 30.06,-20.78 37.01,-46.22"/>
  <path class="fil3 str4" d="M2658.98 6414.5c0,0 -50.84,20.82 -57.79,46.22 -6.91,25.43 36.97,115.57 120.19,104"/>
  <path class="fil3 str4" d="M1417.87 5758.12c0,0 41.59,25.44 53.16,94.76 11.54,69.32 11.54,147.92 11.54,147.92 0,0 -32.35,23.11 -64.7,27.73"/>
  <path class="fil3 str0" d="M1795.7 6975.51c0,0 0,-72.07 14.92,-213.78"/>
  <path class="fil5" d="M8278.31 3018.09c-20.14,20.14 -1531.2,1529.89 -1531.2,1529.89l-346.95 881.13 1878.15 -1874.31 0 -536.71z"/>
 </g>
</svg>
