<?xml version="1.0" encoding="UTF-8"?>
<!DOCTYPE svg PUBLIC "-//W3C//DTD SVG 1.1//EN" "http://www.w3.org/Graphics/SVG/1.1/DTD/svg11.dtd">
<!-- Creator: CorelDRAW 2017 -->
<svg xmlns="http://www.w3.org/2000/svg" xml:space="preserve" width="76.1152mm" height="36.7452mm" version="1.1" style="shape-rendering:geometricPrecision; text-rendering:geometricPrecision; image-rendering:optimizeQuality; fill-rule:evenodd; clip-rule:evenodd"
viewBox="0 0 7611.52 3674.52"
 xmlns:xlink="http://www.w3.org/1999/xlink">
 <defs>
  <style type="text/css">
   <![CDATA[
    .fil2 {fill:#427B38}
    .fil3 {fill:#77B3DD}
    .fil5 {fill:#8DB242}
    .fil1 {fill:#B32A24}
    .fil4 {fill:#B6CA48}
    .fil0 {fill:#E9EBE9}
    .fil6 {fill:#43637D;fill-rule:nonzero}
   ]]>
  </style>
 </defs>
 <g id="Capa_x0020_1">
  <metadata id="CorelCorpID_0Corel-Layer"/>
  <g id="_1404477974272">
   <path class="fil0" d="M4006.07 1391.34c6.84,46.88 17.07,35.27 -30.13,35.27 0,373.1 -96.65,1145.57 453.71,1093.23 486.54,-46.27 357.68,-624.43 357.68,-1252.43l-680.62 29.81 -47.65 9.84 -52.99 84.28z"/>
   <path class="fil0" d="M2600.11 763.73l924.25 -1.6c11.15,-271.4 -43.07,-462.88 22.69,-746.62 -340.82,0 -863,-63.08 -1089.07,69.54 -272.98,160.14 -226.96,615.46 142.13,678.68z"/>
   <path class="fil0" d="M3977.05 1178.36c37.86,-84.03 29.14,-271.25 16.62,-396.03l-421.34 -5.79c0.78,0.95 145.47,147.25 190.38,192.38 75.44,75.82 131.61,141.94 214.34,209.44z"/>
   <path class="fil1" d="M3975.94 1426.61l30.13 -35.27 52.99 -84.28c-42.4,-101.27 9.23,-50.13 -82.01,-128.7 -82.73,-67.5 -138.9,-133.62 -214.34,-209.44 -44.91,-45.13 -189.6,-191.43 -190.38,-192.38l-47.97 -14.41 -924.25 1.6c181,90.78 607.83,27.89 846.67,27.89 -98.82,147.57 -311.58,331.2 -449.9,467.32 -127.52,125.48 -352.79,316.69 -130.05,606.42 387.96,504.6 849.88,-265.15 1109.11,-438.75z"/>
   <path class="fil2" d="M3993.67 782.33c258.82,-23.27 383.44,19.22 631.89,-68.69 45.92,-59.31 111.72,-135.61 161.77,-211.53 0,-330.56 -44.51,-346.66 -282.22,-473.47 -541.99,31.45 -490.67,275.93 -511.44,753.69z"/>
   <path class="fil3" d="M3524.36 762.13l47.97 14.41 421.34 5.79c20.77,-477.76 -30.55,-722.24 511.44,-753.69l-958.06 -13.13c-65.76,283.74 -11.54,475.22 -22.69,746.62z"/>
   <path class="fil4" d="M4625.56 713.64l-131.43 174.01c-54.92,55.26 -86.71,83.95 -142.21,138.78 -92.52,91.41 -187.48,157.92 -245.21,270.79l680.62 -29.81 0 -765.3c-50.05,75.92 -115.85,152.22 -161.77,211.53z"/>
   <path class="fil5" d="M3993.67 782.33c12.52,124.78 21.24,312 -16.62,396.03 91.24,78.57 39.61,27.43 82.01,128.7l47.65 -9.84c57.73,-112.87 152.69,-179.38 245.21,-270.79 55.5,-54.83 87.29,-83.52 142.21,-138.78l131.43 -174.01c-248.45,87.91 -373.07,45.42 -631.89,68.69z"/>
   <path class="fil6" d="M-0.12 2780.36l0 -142.04 153.23 0 0 142.04 -153.23 0zm0 658.78l0 -580.49 153.23 0 0 580.49 -153.23 0zm838.67 0l-153.23 0 0 -295.84c0,-62.63 -3.36,-103.08 -9.88,-121.35 -6.71,-18.45 -17.34,-32.62 -32.25,-42.87 -14.91,-10.26 -32.81,-15.29 -53.69,-15.29 -26.84,0 -50.89,7.27 -72.14,21.81 -21.44,14.54 -35.98,33.93 -43.81,57.79 -8.01,24.05 -11.93,68.41 -11.93,133.28l0 262.47 -153.23 0 0 -580.49 142.05 0 0 85.19c50.89,-65.05 114.83,-97.49 192.19,-97.49 33.93,0 65.06,6.15 93.2,18.27 28.34,12.3 49.59,27.77 63.94,46.6 14.54,19.02 24.61,40.45 30.2,64.5 5.78,24.05 8.58,58.35 8.58,103.09l0 360.33zm88.17 -580.49l85.01 0 0 -43.8c0,-48.84 5.21,-85.38 15.65,-109.43 10.44,-24.23 29.64,-43.8 57.61,-58.9 28.14,-15.1 63.56,-22.74 106.44,-22.74 43.8,0 86.86,6.52 128.99,19.57l-19.57 106.63c-24.98,-5.78 -49.03,-8.77 -72.14,-8.77 -22.74,0 -38.96,5.22 -48.84,15.66 -9.88,10.44 -14.91,30.57 -14.91,60.4l0 41.38 115.2 0 0 120.8 -115.2 0 0 459.69 -153.23 0 0 -459.69 -85.01 0 0 -120.8zm403.77 283.16c0,-51.07 12.49,-100.47 37.65,-148.19 25.17,-47.91 60.77,-84.26 106.82,-109.43 46.04,-25.16 97.3,-37.84 154.16,-37.84 87.8,0 159.57,28.52 215.68,85.56 56.11,57.23 84.07,129.19 84.07,216.43 0,87.98 -28.33,160.87 -84.82,218.66 -56.67,57.79 -127.88,86.68 -213.81,86.68 -53.13,0 -103.83,-12.12 -152.11,-36.16 -48.1,-24.05 -84.82,-59.28 -109.99,-105.89 -25.16,-46.41 -37.65,-103.08 -37.65,-169.82zm157.7 8.21c0,57.6 13.61,101.78 40.83,132.35 27.4,30.76 60.95,46.04 101.03,46.04 39.89,0 73.45,-15.28 100.48,-46.04 27.03,-30.57 40.64,-75.13 40.64,-133.47 0,-56.86 -13.61,-100.67 -40.64,-131.24 -27.03,-30.75 -60.59,-46.04 -100.48,-46.04 -40.08,0 -73.63,15.29 -101.03,46.04 -27.22,30.57 -40.83,74.75 -40.83,132.36zm1093.68 289.12l-142.04 0 0 -85.19c-23.68,33.18 -51.83,57.97 -84.08,74.75 -32.24,16.59 -64.87,24.98 -97.68,24.98 -66.92,0 -124.15,-26.84 -171.87,-80.72 -47.53,-53.87 -71.39,-128.81 -71.39,-225.18 0,-98.43 23.11,-173.36 69.53,-224.63 46.42,-51.26 104.95,-76.8 175.79,-76.8 64.87,0 121.16,27.03 168.51,80.9l0 -288.93 153.23 0 0 800.82zm-409.36 -301.43c0,62.08 8.58,107 25.54,134.78 24.79,40.26 59.28,60.4 103.64,60.4 35.24,0 65.25,-15.1 89.86,-45.3 24.79,-30.2 37.09,-75.13 37.09,-135.15 0,-66.92 -11.93,-115.02 -35.98,-144.47 -24.04,-29.45 -54.61,-44.18 -92.08,-44.18 -36.35,0 -66.74,14.54 -91.35,43.62 -24.42,29.08 -36.72,72.51 -36.72,130.3zm706.69 301.43l-153.23 0 0 -580.49 142.04 0 0 82.4c24.42,-38.96 46.42,-64.5 65.99,-76.62 19.58,-12.11 41.76,-18.08 66.55,-18.08 35.05,0 68.79,9.69 101.22,28.89l-47.53 133.85c-25.91,-16.78 -49.96,-25.17 -72.14,-25.17 -21.63,0 -39.89,5.97 -54.81,17.71 -14.91,11.93 -26.65,33.18 -35.23,64.13 -8.57,30.94 -12.86,95.81 -12.86,194.42l0 178.96zm252.96 -297.33c0,-51.07 12.49,-100.47 37.65,-148.19 25.17,-47.91 60.77,-84.26 106.82,-109.43 46.04,-25.16 97.3,-37.84 154.16,-37.84 87.8,0 159.57,28.52 215.68,85.56 56.11,57.23 84.07,129.19 84.07,216.43 0,87.98 -28.33,160.87 -84.82,218.66 -56.67,57.79 -127.88,86.68 -213.81,86.68 -53.13,0 -103.83,-12.12 -152.11,-36.16 -48.1,-24.05 -84.82,-59.28 -109.99,-105.89 -25.16,-46.41 -37.65,-103.08 -37.65,-169.82zm157.7 8.21c0,57.6 13.61,101.78 40.83,132.35 27.4,30.76 60.95,46.04 101.03,46.04 39.89,0 73.45,-15.28 100.48,-46.04 27.03,-30.57 40.64,-75.13 40.64,-133.47 0,-56.86 -13.61,-100.67 -40.64,-131.24 -27.03,-30.75 -60.59,-46.04 -100.48,-46.04 -40.08,0 -73.63,15.29 -101.03,46.04 -27.22,30.57 -40.83,74.75 -40.83,132.36zm546.75 326.03l175.6 21.25c2.98,20.69 9.69,34.86 20.13,42.69 14.73,11 37.66,16.59 68.97,16.59 40.08,0 70.1,-5.97 90.23,-18.08 13.42,-8.02 23.67,-20.88 30.57,-38.78 4.66,-12.67 7.08,-36.35 7.08,-70.46l0.75 -84.82c-46.23,63.2 -104.39,94.7 -174.48,94.7 -77.92,0 -139.81,-32.99 -185.3,-98.8 -35.79,-52.01 -53.68,-116.88 -53.68,-194.24 0,-97.31 23.49,-171.5 70.27,-222.76 46.79,-51.26 105.14,-76.99 174.86,-76.99 71.77,0 131.05,31.5 177.65,94.51l0 -82.21 143.16 0 0 520.47c0,68.41 -5.59,119.67 -16.96,153.41 -11.19,33.93 -27.03,60.4 -47.54,79.79 -20.31,19.2 -47.53,34.48 -81.64,45.29 -34.12,11 -77.18,16.41 -129.19,16.41 -98.42,0 -168.14,-16.96 -209.34,-50.71 -41.19,-33.92 -61.7,-76.61 -61.7,-128.62 0,-5.03 0.19,-11.37 0.56,-18.64zm137.57 -338.9c0,61.52 11.93,106.44 35.61,134.97 23.86,28.52 53.31,42.87 88.17,42.87 37.28,0 68.97,-14.73 94.7,-43.99 25.91,-29.27 38.77,-72.52 38.77,-129.93 0,-60.03 -12.3,-104.58 -37.1,-133.66 -24.6,-29.08 -55.92,-43.62 -93.76,-43.62 -36.72,0 -66.92,14.35 -90.78,42.87 -23.68,28.53 -35.61,71.96 -35.61,130.49zm674.25 -99.54l-138.69 -24.61c15.66,-56.67 42.69,-98.61 80.91,-125.82 38.21,-27.22 95.07,-40.83 170.38,-40.83 68.41,0 119.49,8.02 153.04,24.23 33.37,16.22 57.04,36.73 70.65,61.71 13.61,24.98 20.51,70.65 20.51,137.38l-2.24 178.96c0,50.89 2.42,88.54 7.27,112.78 4.85,24.23 13.98,50.14 27.4,77.73l-152.11 0c-3.92,-10.07 -8.95,-24.98 -14.73,-44.74 -2.42,-9.13 -4.28,-15.1 -5.4,-17.89 -26.1,25.72 -54.06,44.92 -83.89,57.78 -29.82,12.87 -61.51,19.39 -95.25,19.39 -59.47,0 -106.45,-16.22 -140.75,-48.65 -34.3,-32.25 -51.45,-73.26 -51.45,-122.85 0,-32.62 7.83,-61.89 23.49,-87.61 15.66,-25.54 37.47,-45.3 65.81,-58.91 28.14,-13.61 68.78,-25.54 121.91,-35.79 71.58,-13.42 121.35,-26.1 148.94,-37.65l0 -15.48c0,-29.82 -7.27,-51.07 -21.81,-63.94 -14.72,-12.67 -42.31,-19.01 -82.76,-19.01 -27.41,0 -48.66,5.41 -63.94,16.4 -15.48,10.82 -27.78,30.02 -37.29,57.42zm205.8 124.15c-19.57,6.52 -50.7,14.35 -93.39,23.49 -42.5,9.13 -70.46,18.08 -83.51,26.65 -19.95,14.36 -30.01,32.25 -30.01,54.06 0,21.63 8.01,40.08 24.04,55.74 16.03,15.66 36.35,23.49 61.15,23.49 27.58,0 54.05,-9.14 79.22,-27.22 18.46,-13.98 30.76,-30.76 36.54,-50.89 3.91,-13.05 5.96,-38.03 5.96,-74.75l0 -30.57zm247.37 114.08l154.35 -23.48c6.53,29.63 19.76,52.19 39.9,67.48 19.94,15.47 48.09,23.11 84.07,23.11 39.7,0 69.53,-7.27 89.66,-21.81 13.42,-10.25 20.13,-24.05 20.13,-41.2 0,-11.55 -3.72,-21.25 -10.99,-28.89 -7.65,-7.27 -24.8,-14.17 -51.27,-20.32 -123.96,-27.4 -202.44,-52.38 -235.62,-74.94 -46.05,-31.5 -68.97,-75.12 -68.97,-130.86 0,-50.51 19.94,-92.83 59.65,-127.13 39.7,-34.3 101.22,-51.45 184.55,-51.45 79.41,0 138.5,13.05 177.09,38.96 38.58,26.1 65.24,64.5 79.78,115.39l-144.28 26.84c-6.15,-22.74 -18.08,-40.26 -35.42,-52.38 -17.34,-12.12 -42.13,-18.08 -74.38,-18.08 -40.64,0 -69.72,5.59 -87.43,16.96 -11.74,8.02 -17.52,18.46 -17.52,31.13 0,11 5.03,20.32 15.29,27.97 13.98,10.25 61.89,24.6 143.91,43.24 82.02,18.64 139.25,41.39 171.68,68.42 32.25,27.21 48.28,65.43 48.28,114.27 0,53.12 -22.18,98.98 -66.73,137.2 -44.37,38.21 -110.17,57.41 -197.41,57.41 -79.04,0 -141.68,-16.03 -187.91,-47.91 -46.04,-31.87 -76.24,-75.12 -90.41,-129.93zm658.97 -50.33l0 -153.23 301.99 0 0 153.23 -301.99 0zm549.92 213.63l-233.95 -580.49 161.06 0 109.24 296.21 31.69 98.99c8.39,-25.17 13.79,-41.76 15.84,-49.78 5.22,-16.4 10.63,-32.8 16.59,-49.21l110.73 -296.21 157.71 0 -230.59 580.49 -138.32 0zm462.49 -658.78l0 -142.04 153.23 0 0 142.04 -153.23 0zm0 658.78l0 -580.49 153.23 0 0 580.49 -153.23 0zm461.74 -800.82l0 296.76c49.78,-59.09 109.43,-88.73 178.59,-88.73 35.6,0 67.66,6.53 96.18,19.57 28.53,13.24 49.96,29.83 64.5,50.34 14.54,20.31 24.42,42.87 29.64,67.66 5.41,24.8 8.02,63.2 8.02,115.21l0 340.01 -153.23 0 0 -306.09c0,-60.77 -2.99,-99.36 -8.76,-115.76 -5.97,-16.4 -16.41,-29.45 -31.32,-38.96 -14.91,-9.69 -33.56,-14.54 -56.11,-14.54 -25.73,0 -48.65,6.15 -68.97,18.64 -20.32,12.3 -35.05,30.95 -44.37,55.92 -9.51,24.8 -14.17,61.71 -14.17,110.36l0 290.43 -153.23 0 0 -800.82 153.23 0z"/>
  </g>
 </g>
</svg>
