<?xml version="1.0" encoding="UTF-8"?>
<!DOCTYPE svg PUBLIC "-//W3C//DTD SVG 1.1//EN" "http://www.w3.org/Graphics/SVG/1.1/DTD/svg11.dtd">
<!-- Creator: CorelDRAW 2017 -->
<svg xmlns="http://www.w3.org/2000/svg" xml:space="preserve" width="36.3218mm" height="36.3218mm" version="1.1" style="shape-rendering:geometricPrecision; text-rendering:geometricPrecision; image-rendering:optimizeQuality; fill-rule:evenodd; clip-rule:evenodd"
viewBox="0 0 3632.18 3632.18"
 xmlns:xlink="http://www.w3.org/1999/xlink">
 <defs>
  <style type="text/css">
   <![CDATA[
    .str0 {stroke:#231F20;stroke-width:30.9;stroke-miterlimit:10}
    .str2 {stroke:black;stroke-width:23.92;stroke-miterlimit:10}
    .str1 {stroke:#231F20;stroke-width:34.5;stroke-miterlimit:10}
    .fil3 {fill:none;fill-rule:nonzero}
    .fil7 {fill:black;fill-rule:nonzero}
    .fil4 {fill:#231F20;fill-rule:nonzero}
    .fil8 {fill:#58595B;fill-rule:nonzero}
    .fil6 {fill:#6D6E71;fill-rule:nonzero}
    .fil5 {fill:#BE1E2D;fill-rule:nonzero}
    .fil1 {fill:#C3BE95;fill-rule:nonzero}
    .fil0 {fill:#F1F1F2;fill-rule:nonzero}
    .fil2 {fill:white;fill-rule:nonzero}
   ]]>
  </style>
 </defs>
 <g id="Capa_x0020_1">
  <metadata id="CorelCorpID_0Corel-Layer"/>
  <g id="_1368122296800">
   <path class="fil0" d="M3631.48 1816.1c0,1002.59 -812.76,1815.39 -1815.39,1815.39 -1002.6,0 -1815.4,-812.8 -1815.4,-1815.39 0,-1002.6 812.8,-1815.4 1815.4,-1815.4 1002.63,0 1815.39,812.8 1815.39,1815.4z"/>
   <path class="fil1" d="M2892.45 2287.3c0,125.59 -392.61,227.4 -876.87,227.4 -484.29,0 -876.9,-101.81 -876.9,-227.4 0,-125.59 392.61,-227.4 876.9,-227.4 484.26,0 876.87,101.81 876.87,227.4z"/>
   <path class="fil2" d="M1626.03 2494.7c0,0 -57.71,-280.18 103.68,-320.4 161.4,-40.25 458.97,-30.44 458.97,-30.44 0,0 124.98,129.86 116.94,238.8 -8.08,108.9 -32.35,126.4 -32.35,126.4 0,0 -293.97,11.25 -382.16,5.64 -88.2,-5.64 -265.08,-20 -265.08,-20z"/>
   <path class="fil3 str0" d="M1066.6 2242.13c0,-150.53 424.85,-272.56 948.97,-272.56 524.09,0 948.98,122.03 948.98,272.56 0,150.53 -424.89,272.55 -948.98,272.55 -524.12,0 -948.97,-122.02 -948.97,-272.55"/>
   <path class="fil3 str1" d="M1004.51 2413.65l37.46 226.31c0,183.12 435.9,331.54 973.6,331.54 537.7,0 973.6,-148.42 973.6,-331.54l67.17 -384.49"/>
   <path class="fil3 str0" d="M2015.57 1897.28c-220.17,0 -424.25,23.6 -592.42,63.75l0 0c0,0 -438.82,67.52 -731.24,91.01 -175.08,14.11 -275.41,11.33 -327.73,6.81 -30.58,-2.61 -59.58,13.3 -74.36,40.22l-30.55 55.56c-26.32,47.94 3.28,107.32 57.43,114.76 183.9,25.29 560.81,88.09 890.2,211.45 18.8,8.01 38.66,15.67 59.37,23.08l0.04 0c25.11,10.19 47.55,17.18 68.33,22.29 182.53,54.44 420.47,87.42 680.93,87.42 574.82,0 1040.77,-160.37 1040.77,-358.18 0,-197.8 -465.95,-358.17 -1040.77,-358.17"/>
   <path class="fil4" d="M1646.74 2503.14c-18.41,-34.99 -29.46,-78.35 -29.46,-125.44 0,-115.29 65.44,-209.13 145.91,-209.13 80.44,0 145.88,93.84 145.88,209.13 0,50.65 -12.63,97.15 -33.66,133.38 12.31,0.74 24.41,1.94 36.34,3.6 19.89,-39.05 31.85,-86.04 31.85,-136.98 0,-88.87 -35.52,-166.55 -88.33,-209.13l282.89 0c80.43,0 145.87,93.84 145.87,209.13 0,42.89 -9.06,82.79 -24.58,115.99 12.59,-1.02 25.29,-1.62 38.06,-2.12 13.41,-34.01 21.06,-72.74 21.06,-113.87 0,-134.34 -80.93,-243.63 -180.41,-243.63l-359.41 0c0.18,0.35 0.18,0.74 0.32,1.09 -5.26,-0.63 -10.51,-1.09 -15.88,-1.09 -99.52,0 -180.44,109.29 -180.44,243.63 0,37.53 6.45,73.02 17.74,104.81 13.94,7.4 29.42,14.32 46.25,20.63z"/>
   <path class="fil5" d="M2734.81 2301.41c0,25.37 -60.53,45.97 -135.22,45.97 -74.68,0 -135.25,-20.6 -135.25,-45.97 0,-25.36 60.57,-45.96 135.25,-45.96 74.69,0 135.22,20.6 135.22,45.96z"/>
   <path class="fil5" d="M2529.03 2416.46c0,12.17 -28.96,22.05 -64.67,22.05 -35.73,0 -64.7,-9.88 -64.7,-22.05 0,-12.17 28.97,-22.05 64.7,-22.05 35.71,0 64.67,9.88 64.67,22.05z"/>
   <path class="fil6" d="M2719.63 1411.98l118.43 84.88 -217.63 278.69c0,0 -28.26,9.17 -46.96,-4.23 -18.66,-13.37 -48.78,-43.29 -48.78,-43.29 0,0 9.03,-21.8 22.96,-51.75 13.94,-29.92 171.98,-264.3 171.98,-264.3z"/>
   <path class="fil1" d="M2820.43 1476.05c11.64,-15.1 28.37,-25.12 47.13,-28.22l129.47 -21.34c6.46,-1.06 12.1,-4.59 15.91,-9.92l285.33 -398 -273.65 -196.18 -285.33 398c-3.81,5.33 -5.32,11.82 -4.26,18.24l21.34 129.51c3.1,18.76 -1.02,37.81 -11.61,53.69l75.67 54.22z"/>
   <polygon class="fil7" points="3334.27,968.34 3060.62,772.17 3024.6,822.4 3298.29,1018.58 "/>
   <path class="fil7" d="M3175.04 612.56l-71.63 99.9c-3.74,5.23 -2.54,12.53 2.68,16.3l254.68 182.57c5.25,3.73 12.55,2.54 16.29,-2.69l6.37 -8.89c-60.12,-102.58 -129.99,-198.74 -208.39,-287.19z"/>
   <polygon class="fil8" points="3364.3,913.84 3100.95,725.07 3064.93,775.27 3328.31,964.07 "/>
   <line class="fil3 str2" x1="2948.94" y1="1331.23" x2="3050.82" y2= "1404.26" />
   <line class="fil3 str2" x1="3067.47" y1="1165.89" x2="3169.35" y2= "1238.92" />
   <line class="fil3 str2" x1="3183.6" y1="1003.89" x2="3285.48" y2= "1076.92" />
   <line class="fil3 str2" x1="3302.13" y1="838.55" x2="3380.44" y2= "894.68" />
   <path class="fil4" d="M2621.69 1755.46c-8.71,11.32 -24.63,13.68 -36.23,5.36l-34.93 -25.01c-11.6,-8.33 -14.46,-24.17 -6.52,-36.06l181.29 -271.28 95.11 68.15 -198.72 258.84zm781.32 -821.42c-4.28,-7.69 -8.53,-15.41 -12.92,-23.03l-376.85 525.71c-5.68,7.94 -14.11,13.16 -23.71,14.75l-129.47 21.34c-7.55,1.23 -14.67,3.92 -21.17,7.66l-104.21 -74.72c1.45,-7.34 1.7,-14.93 0.43,-22.48l-21.35 -129.5c-1.58,-9.6 0.67,-19.23 6.35,-27.16l446.78 -623.23c-5.45,-6.06 -10.94,-12.08 -16.47,-18.07l-449.74 627.36c-9.42,13.12 -13.13,29.11 -10.52,45.02l21.35 129.47c1.62,9.77 -0.53,19.68 -6.04,27.9l-181.36 271.43c-11.89,17.78 -10.9,40.11 0.71,56.62 0,0 23.95,25.93 61.98,44.41 19.37,5.72 40.82,-0.53 53.87,-17.49l198.79 -258.94c6.03,-7.84 14.71,-13.06 24.48,-14.68l129.47 -21.34c15.91,-2.61 29.85,-11.29 39.26,-24.41l370.34 -516.62z"/>
   <polygon class="fil4" points="2568.42,1766.49 2121.7,2389.64 2102.26,2375.71 2548.98,1752.56 "/>
   <path class="fil6" d="M1393.93 1337.3l138.15 -46.28 98.53 339.58c0,0 -9.13,28.26 -30.94,35.56 -21.8,7.31 -63.67,14.22 -63.67,14.22 0,0 -12.39,-20.07 -28.47,-48.89 -16.12,-28.83 -113.6,-294.19 -113.6,-294.19z"/>
   <path class="fil1" d="M1504.9 1293.1c-5.44,-18.27 -3.78,-37.71 4.72,-54.71l58.49 -117.48c2.9,-5.85 3.36,-12.48 1.27,-18.69l-155.61 -464.33 -319.26 106.96 155.61 464.36c2.08,6.21 6.46,11.22 12.28,14.12l117.51 58.52c17,8.47 30.05,22.97 36.72,40.85l88.27 -29.6z"/>
   <polygon class="fil7" points="1394.15,579.29 1074.89,686.28 1094.53,744.88 1413.8,637.88 "/>
   <path class="fil7" d="M1312.81 373.33l-297.11 99.59c-6.14,2.04 -9.42,8.64 -7.37,14.78l43.22 128.9c2.04,6.14 8.67,9.42 14.78,7.38l297.11 -99.56c6.13,-2.08 9.42,-8.68 7.37,-14.81l-43.22 -128.91c-2.04,-6.14 -8.67,-9.42 -14.78,-7.37z"/>
   <polygon class="fil8" points="1367.54,523.04 1060.3,626.01 1079.95,684.57 1387.19,581.63 "/>
   <line class="fil3 str2" x1="1462.73" y1="1104.14" x2="1581.58" y2= "1064.31" />
   <line class="fil3 str2" x1="1398.09" y1="911.24" x2="1516.94" y2= "871.42" />
   <line class="fil3 str2" x1="1334.75" y1="722.25" x2="1453.6" y2= "682.42" />
   <line class="fil3 str2" x1="1270.11" y1="529.36" x2="1388.96" y2= "489.53" />
   <line class="fil3 str2" x1="1206.77" y1="340.36" x2="1325.62" y2= "300.53" />
   <line class="fil3 str2" x1="1146.04" y1="159.16" x2="1264.89" y2= "119.33" />
   <path class="fil4" d="M1615.04 1617.81c4.1,13.68 -3.31,27.97 -16.86,32.52l-40.74 13.65c-13.52,4.52 -28.05,-2.4 -33.02,-15.8l-113.81 -305.82 110.95 -37.19 93.48 312.64zm-348.54 -1532.32c-7.6,2.41 -15.18,4.88 -22.74,7.39l342.14 1020.91c3.07,9.24 2.4,19.12 -1.94,27.84l-58.49 117.44c-3.42,6.87 -5.43,14.21 -6.17,21.66l-121.6 40.74c-5.08,-5.5 -11.11,-10.12 -17.99,-13.54l-117.44 -58.5c-8.72,-4.33 -15.21,-11.81 -18.31,-21.06l-330.93 -987.46c-7.08,4.07 -14.05,8.29 -21.07,12.44l329.31 982.64c5.12,15.31 15.91,27.7 30.34,34.86l117.44 58.52c8.89,4.38 15.63,11.93 19.09,21.21l113.84 305.96c7.48,20.04 26.14,32.31 46.32,32.56 0,0 35.06,-4.23 72.32,-24.23 15.94,-12.35 23.46,-33.41 17.35,-53.91l-93.52 -312.77c-2.85,-9.49 -1.97,-19.58 2.44,-28.44l58.49 -117.44c7.19,-14.46 8.32,-30.83 3.17,-46.14l-342.05 -1020.68z"/>
   <polygon class="fil4" points="1592.81,1667.45 1836.44,2394.42 1813.75,2402.04 1570.13,1675.04 "/>
   <path class="fil5" d="M3027.53 1155.47c0,37.29 -30.24,67.56 -67.56,67.56 -37.29,0 -67.52,-30.27 -67.52,-67.56 0,-37.29 30.23,-67.55 67.52,-67.55 37.32,0 67.56,30.26 67.56,67.55z"/>
   <path class="fil5" d="M2862.33 1234.28c0,17.6 -14.25,31.85 -31.86,31.85 -17.6,0 -31.89,-14.25 -31.89,-31.85 0,-17.61 14.29,-31.86 31.89,-31.86 17.61,0 31.86,14.25 31.86,31.86z"/>
  </g>
 </g>
</svg>
