<?xml version="1.0" encoding="UTF-8"?>
<!DOCTYPE svg PUBLIC "-//W3C//DTD SVG 1.1//EN" "http://www.w3.org/Graphics/SVG/1.1/DTD/svg11.dtd">
<!-- Creator: CorelDRAW 2017 -->
<svg xmlns="http://www.w3.org/2000/svg" xml:space="preserve" width="29.1252mm" height="29.7178mm" version="1.1" style="shape-rendering:geometricPrecision; text-rendering:geometricPrecision; image-rendering:optimizeQuality; fill-rule:evenodd; clip-rule:evenodd"
viewBox="0 0 2912.52 2971.78"
 xmlns:xlink="http://www.w3.org/1999/xlink">
 <defs>
  <style type="text/css">
   <![CDATA[
    .fil31 {fill:#2B2C2C}
    .fil67 {fill:#372A28}
    .fil34 {fill:#37332B}
    .fil22 {fill:#463936}
    .fil75 {fill:#4C2619}
    .fil38 {fill:#4C4B4B}
    .fil61 {fill:#53514E}
    .fil46 {fill:#564946}
    .fil6 {fill:#573B37}
    .fil70 {fill:#673B33}
    .fil48 {fill:#675956}
    .fil2 {fill:#69554A}
    .fil3 {fill:#765649}
    .fil71 {fill:#775A56}
    .fil1 {fill:#79655A}
    .fil76 {fill:#83493A}
    .fil0 {fill:#877A76}
    .fil73 {fill:#87837C}
    .fil74 {fill:#88675A}
    .fil72 {fill:#88756A}
    .fil5 {fill:#936A59}
    .fil56 {fill:#97766A}
    .fil69 {fill:#97846E}
    .fil44 {fill:#AC7068}
    .fil53 {fill:#B7766A}
    .fil62 {fill:#B8AAA6}
    .fil42 {fill:#B9867A}
    .fil49 {fill:#B98887}
    .fil60 {fill:#C7847A}
    .fil11 {fill:#C8958B}
    .fil33 {fill:#C99896}
    .fil66 {fill:#D48E7B}
    .fil41 {fill:#D69997}
    .fil4 {fill:#D79789}
    .fil43 {fill:#E69B88}
    .fil47 {fill:#E6B7A7}
    .fil68 {fill:#E7ABA4}
    .fil51 {fill:#E8A796}
    .fil39 {fill:#E8C6B8}
    .fil9 {fill:#EAA48A}
    .fil12 {fill:#EAAC9B}
    .fil15 {fill:#ECB4A3}
    .fil55 {fill:#ECBCAC}
    .fil59 {fill:#ECC3B3}
    .fil10 {fill:#F3B29C}
    .fil40 {fill:#F3BCAB}
    .fil58 {fill:#F4C4B4}
    .fil20 {fill:#F4CAB4}
    .fil54 {fill:#F4CCBB}
    .fil65 {fill:#F4CDC3}
    .fil63 {fill:#F4E3DB}
    .fil52 {fill:#F4F4F4}
    .fil64 {fill:#F5DCD3}
    .fil8 {fill:#F8E8E5}
    .fil23 {fill:#F9C9B2}
    .fil35 {fill:#F9D2C6}
    .fil50 {fill:#FABCAB}
    .fil32 {fill:#FACAB5}
    .fil18 {fill:#FACDB9}
    .fil25 {fill:#FACDBD}
    .fil27 {fill:#FAD1BE}
    .fil28 {fill:#FAD2C1}
    .fil37 {fill:#FAD5C1}
    .fil24 {fill:#FAD5C5}
    .fil21 {fill:#FAD6C9}
    .fil14 {fill:#FAD9CA}
    .fil16 {fill:#FBDDD3}
    .fil45 {fill:#FBFCFB}
    .fil26 {fill:#FCCFB8}
    .fil36 {fill:#FDD2C2}
    .fil30 {fill:#FDD9D1}
    .fil19 {fill:#FDE4DB}
    .fil57 {fill:#FDEDEA}
    .fil13 {fill:#FDF4EC}
    .fil7 {fill:#FDF5F2}
    .fil17 {fill:#FEF1E8}
    .fil29 {fill:#FEFEFF}
   ]]>
  </style>
 </defs>
 <g id="Capa_x0020_1">
  <metadata id="CorelCorpID_0Corel-Layer"/>
  <g id="_1404216059024">
   <g>
    <path class="fil0" d="M2160.74 1701.52l0.86 58.32 -56.06 -9.72 61.24 19.44c10.35,-8.83 9.48,14.14 21.56,-30.93 9.49,-39.76 -8.63,-54.79 -8.63,-113.11 -31.05,43.3 -13.8,34.46 -18.97,76z"/>
    <path class="fil0" d="M672.91 1838.49l51.75 -0.88c16.39,-13.25 17.25,-10.6 36.22,-21.21l-34.5 -28.28 -35.36 13.26c-18.97,28.28 -39.67,-24.75 -4.31,8.84 5.17,5.3 16.39,8.83 20.7,10.6l-34.5 17.67z"/>
    <path class="fil0" d="M2009.8 1446.12c2.59,-0.89 5.17,-4.42 6.04,-2.65l12.07 -29.17c-27.6,-10.6 -31.05,-14.14 -50.89,-27.39 -4.31,19.44 -0.86,10.6 7.77,22.97 1.72,2.66 9.48,11.49 11.21,14.14 4.31,6.19 13.8,21.21 13.8,22.1z"/>
   </g>
   <g>
    <path class="fil1" d="M1901.12 1118.25c-4.31,4.42 -13.8,20.33 -23.29,33.58 -18.11,23.87 -3.45,11.49 -20.7,17.68l-14.66 61.86c56.93,-24.74 18.98,-6.19 55.2,-36.23l37.09 -40.65c-60.38,27.39 -12.94,12.37 -31.91,-15.03 29.32,-7.95 41.4,-15.02 62.96,-29.16l6.9 -38.89c-45.71,36.24 -18.11,25.63 -71.59,46.84z"/>
    <path class="fil1" d="M1934.76 1154.49l56.06 -40.66c-45.71,23.86 -32.77,7.96 -56.06,40.66z"/>
   </g>
   <g>
    <path class="fil2" d="M717.76 1994.03c-45.71,21.21 -60.38,35.35 -120.75,48.61l-1.73 43.3c122.48,-29.16 41.4,-44.19 129.38,-48.61 -17.25,-39.76 -18.98,-10.6 9.49,-37.11 15.52,-15.03 11.21,-7.07 25.01,-17.68 12.07,-9.72 12.07,-10.6 21.56,-19.44l-62.96 30.93z"/>
    <path class="fil2" d="M2624.77 595.08c-51.75,-82.18 -43.99,-78.65 -79.35,-92.79 6.9,30.05 9.48,24.75 42.26,62.75l25.01 22.97c2.59,2.65 7.77,4.42 12.08,7.07z"/>
   </g>
   <g>
    <path class="fil3" d="M764.33 2392.6c-24.15,11.48 -36.22,19.44 -94.87,5.3 -3.45,47.72 -18.98,91.02 -41.4,125.49 -12.94,11.49 -23.29,19.44 -34.5,30.04 -38.82,35.35 -18.12,5.31 -36.23,57.45 64.69,-42.42 67.28,-49.49 104.37,-119.31l21.56 -69.81c35.36,-6.19 95.74,-6.19 128.51,-27.4 56.93,-36.23 14.67,-5.3 42.27,-46.84l-89.71 45.08z"/>
    <path class="fil3" d="M1318.93 1743.05c-6.04,-48.6 -4.31,-22.09 9.49,-32.7l-3.45 -76.88c-60.38,-11.49 -19.84,-22.09 -23.29,54.79 -4.31,94.56 -11.21,26.51 17.25,54.79z"/>
   </g>
   <g>
    <path class="fil4" d="M612.53 2735.48c-17.25,43.31 -28.46,66.28 -70.72,84.84l0.86 9.72c13.8,31.82 -3.45,22.1 41.4,7.96 5.18,-1.77 42.26,-23.86 48.3,-29.17 50.89,-17.67 15.53,8.84 31.05,-37.11 2.59,-43.31 15.53,-3.54 31.91,-74.24l-82.8 38z"/>
    <path class="fil4" d="M745.36 2329.85l-19.84 5.3c0,38 -46.57,26.51 -75.04,30.93l18.98 31.82c58.65,14.14 70.72,6.18 94.87,-5.3 6.9,-49.49 -14.66,-13.26 55.21,-70.7 -29.33,9.72 -22.43,5.3 -37.96,22.97 -20.7,-24.74 0,-5.3 -36.22,-15.02z"/>
   </g>
   <g>
    <path class="fil5" d="M1748.46 1658.21c34.5,22.1 12.07,20.33 62.96,70.7l21.56 35.35 6.04 26.51c37.09,-70.7 30.19,-126.37 -11.21,-196.19 24.15,-30.04 -51.75,-19.44 54.34,-26.51 6.03,0 41.4,6.19 50.89,7.07 -36.23,-15.02 -161.29,-26.51 -214.77,-7.07l75.9 -1.76 25.01 45.95 -50.02 18.56c52.61,13.25 56.92,11.49 40.54,69.81 -67.28,-124.6 -44.85,-56.56 -61.24,-42.42z"/>
    <path class="fil5" d="M1079.15 1345.37c-33.64,145.82 -1.72,107.82 -35.36,102.51 -0.86,-1.76 -16.39,22.1 -6.04,-69.81l-24.15 -1.77 18.11 94.56 33.64 56.56c8.63,15.91 8.63,15.91 18.98,28.28l37.08 -23.86 10.35 -29.16c-53.47,11.48 -4.31,20.32 -45.71,8.83 -2.59,-47.72 6.04,-133.44 22.43,-160.84 15.52,-54.79 11.21,-16.79 -18.12,-30.04 -17.25,15.9 -7.76,2.65 -11.21,24.74z"/>
    <path class="fil5" d="M2007.21 938.85l-30.19 30.05c50.03,-15.91 31.92,-11.49 49.17,-26.51 12.07,-22.98 -14.67,-23.86 18.11,-19.44 -16.39,1.77 -9.49,0.88 -23.29,6.18 -0.86,0 -6.04,7.07 -6.9,4.42 -0.86,-2.65 -5.17,3.54 -6.9,5.3z"/>
   </g>
   <g>
    <path class="fil6" d="M992.9 2591.44c-17.25,53.9 -50.89,76 -124.2,74.23 -104.37,-3.54 -51.75,-48.61 -125.07,38l-48.3 -6.19c-16.38,70.7 -29.32,30.93 -31.91,74.24l35.36 -15.03c81.94,-109.58 140.59,-55.67 156.12,-53.9 29.32,4.41 54.34,-2.66 81.94,-10.61 79.35,-5.3 62.96,-25.63 106.09,-120.19l31.91 -49.49 9.49 -27.39c-52.62,26.51 -21.57,10.6 -51.76,53.91 -16.38,22.97 -21.56,22.09 -39.67,42.42z"/>
    <polygon class="fil6" points="444.34,2053.24 471.94,2052.36 456.42,2029.38 "/>
   </g>
   <g>
    <path class="fil7" d="M1087.78 1681.19l-136.28 22.09c-0.86,68.05 -37.95,-1.76 -48.3,91.03 48.3,19.44 316.54,-21.21 263.06,-128.14l-78.48 15.02z"/>
    <path class="fil7" d="M2312.54 943.27c65.55,8.84 45.71,5.31 106.95,-7.95l13.8 -83.07c-34.5,-20.33 -41.4,-19.44 -78.49,-19.44 -4.31,-52.14 -5.17,-65.4 -28.46,-89.26 -29.33,42.42 -15.53,139.63 -13.8,199.72z"/>
    <path class="fil7" d="M2259.06 1027.23l-2.58 76 69.86 4.42c49.16,-45.96 40.54,-31.82 45.71,-152 -133.69,6.18 -54.34,0.88 -112.99,71.58z"/>
   </g>
   <g>
    <path class="fil8" d="M553.02 1574.26c-31.05,86.6 -51.75,152.88 -100.91,229.77 -31.05,48.6 -31.92,41.53 -66.42,85.72 -28.46,35.35 -26.74,56.56 -61.24,101.63 34.5,-6.19 37.96,-16.79 62.11,-48.6 21.56,-28.28 25.01,-38.01 47.43,-71.59 16.39,-23.86 64.69,-90.14 93.15,-98.09l25.02 -22.98 50.02 -87.49c43.99,-89.26 -26.74,13.26 10.35,-34.46 3.45,-4.42 24.15,-14.14 26.74,-43.31 0,-4.42 -1.72,-11.49 -0.86,-7.07l-7.76 -10.6 -77.63 7.07z"/>
    <path class="fil8" d="M582.34 1853.52c27.61,24.74 -14.66,-6.19 21.57,12.37 12.07,7.07 12.07,2.65 32.77,15.02 -14.66,34.47 -4.31,5.31 -17.25,28.28l-36.22 78.66c-17.25,21.21 0.86,14.14 -43.99,18.55l-1.73 40.66 18.12 17.67c0,0 1.72,0.88 2.58,0.88l25.88 13.26 12.94 -36.23c60.37,-13.26 75.04,-27.4 120.75,-48.61l-31.05 -30.05c1.72,-2.65 4.31,-9.72 5.17,-7.95l22.43 -68.05c-1.73,-1.76 -5.18,-6.18 -7.76,-8.83l18.11 -41.54 -51.75 0.88 -90.57 15.03z"/>
    <path class="fil8" d="M1971.85 1524.77c43.12,-14.14 22.42,9.72 37.95,-28.28 5.17,-12.37 0.86,-36.23 0,-50.37 0,-0.89 -9.49,-15.91 -13.8,-22.1 -1.73,-2.65 -9.49,-11.48 -11.21,-14.14 -8.63,-12.37 -12.08,-3.53 -7.77,-22.97 -24.15,-27.4 -3.45,-5.31 -31.05,-18.56l-79.35 36.23c17.25,90.14 47.44,76.89 105.23,120.19z"/>
    <path class="fil8" d="M51.9 2410.27l-3.45 19.44c-3.45,15.91 -5.17,13.26 -7.76,32.7 -3.45,30.05 -1.73,34.47 1.72,63.63l32.78 -34.47c14.66,-27.39 12.07,-26.51 20.7,-45.07l37.09 -60.09c-7.77,-28.28 4.31,-51.26 1.72,-67.16 -18.97,25.62 -25.01,27.39 -43.12,49.48 -40.54,51.26 16.38,12.38 -39.68,41.54z"/>
   </g>
   <g>
    <path class="fil9" d="M1839.02 1790.77c-9.49,58.33 -19.84,14.14 -6.9,48.61 68.14,5.3 194.93,-11.49 263.93,-36.23 -12.94,-0.89 -26.74,-0.89 -19.84,-17.68 12.08,-31.81 -22.42,1.77 10.35,-11.49 -57.79,-16.79 -98.32,-39.77 -114.71,-98.09 8.62,-23.86 4.31,-18.56 16.39,-33.58l-26.74 -1.77 -3.45 -41.54 -130.24 -4.42c41.4,69.82 48.3,125.49 11.21,196.19z"/>
    <path class="fil9" d="M698.78 2756.69l-35.36 15.03c-15.52,45.95 19.84,19.44 -31.05,37.11l55.2 -4.42c34.5,36.24 28.46,-49.48 28.46,53.91l102.64 -77.77c20.7,-26.51 12.08,-3.53 20.7,-48.6 -99.19,-1.77 -87.11,39.77 -140.59,24.74z"/>
   </g>
   <g>
    <path class="fil10" d="M547.84 2646.23l-15.52 32.69 100.05 -8.83c-4.31,72.46 6.9,22.97 -19.84,65.39l82.8 -38 48.3 6.19c73.32,-86.61 20.7,-41.54 125.07,-38 73.31,1.77 106.95,-20.33 124.2,-74.23 -29.33,-20.33 47.44,-3.54 -37.09,-7.07 -37.09,-1.77 -30.19,9.72 -67.27,-3.54 -57.79,-19.44 13.8,-24.74 -86.26,-37.12 -18.97,15.03 -47.43,7.07 -69.86,10.61 -10.35,1.77 -163.01,60.09 -184.58,91.91z"/>
    <path class="fil10" d="M1084.33 2495.11l-9.49 27.39 -2.59 42.42c22.43,-22.97 14.66,-25.63 36.23,7.96 16.38,26.51 -35.37,2.65 16.38,20.32 65.55,0 172.51,-22.97 231.16,-49.49 16.38,-7.95 64.68,-38 87.97,-51.25 43.13,-24.75 43.13,-38.89 69.87,-66.28 -18.98,-17.68 26.73,-26.51 -25.02,-12.38l13.8 -36.23 -28.46 5.3c-75.04,37.12 42.26,9.73 -188.03,91.03 -25.87,8.84 -81.94,30.05 -103.5,30.93 -65.55,0 -5.17,-24.75 -98.32,-9.72z"/>
    <path class="fil10" d="M541.81 2820.32c42.26,-18.56 53.47,-41.53 70.72,-84.84 -75.9,3.54 -69,-3.53 -84.52,33.59l13.8 51.25z"/>
   </g>
   <g>
    <path class="fil11" d="M2589.4 1004.25c16.39,85.72 -21.56,176.75 3.45,242.14 46.58,-18.55 5.18,-11.48 23.29,-65.39l8.63 38.88c0.86,15.03 -1.73,36.23 -2.59,44.19 -2.59,49.49 -9.49,25.63 11.21,69.81 7.77,-8.83 -18.11,-24.74 -46.57,-11.49 -50.03,23.87 -16.39,86.61 7.76,110.47l35.36 38.89c1.73,1.76 5.18,4.41 7.77,7.07 30.18,10.6 8.62,-23.87 29.32,9.72 -0.86,-0.89 -5.17,-30.93 -5.17,-31.82 5.17,-53.91 -16.39,-5.3 12.93,-31.81 21.57,-38 -6.9,-69.82 -29.32,-129.03l6.9 -125.49c3.45,-60.97 25.01,-221.81 3.45,-267.77l21.56 -24.74c-31.05,-78.65 4.31,-29.17 -8.62,-76l-20.7 -87.49c-6.04,-33.59 -21.57,-38.89 -29.33,-45.96 -24.15,-18.56 -11.21,-9.72 -39.68,-21.21 12.94,33.58 15.53,28.28 18.98,66.28 -22.43,-19.44 -15.53,-19.44 -28.46,-13.25 35.36,62.74 62.1,230.65 19.83,304z"/>
    <path class="fil11" d="M936.84 2692.18c12.07,26.51 -32.78,46.84 34.5,10.61l55.2 -5.31c22.42,-33.58 18.97,-16.79 32.77,-31.81l12.08 -15.91c1.72,-2.65 3.45,-6.18 4.31,-8.84l49.16 -47.72c-51.75,-17.67 0,6.19 -16.38,-20.32 -21.57,-33.59 -13.8,-30.93 -36.23,-7.96l2.59 -42.42 -31.91 49.49c-43.13,94.56 -26.74,114.89 -106.09,120.19z"/>
   </g>
   <g>
    <path class="fil12" d="M1091.23 1638.77c18.11,-14.14 151.8,-60.09 180.26,-67.16 101.78,-22.98 143.18,0.88 229.43,1.76 166.46,2.66 288.08,-43.3 483,-22.09l7.77 -14.14c-3.45,-1.77 -14.67,-1.77 -19.84,-6.18 -31.91,9.72 -29.33,-1.77 -73.32,-24.75l-104.36 30.05c-11.21,-67.17 10.35,1.77 -26.74,-68.05l-11.21 30.93c-63.83,-0.88 -125.93,0 -190.61,-0.88 -27.6,0 -62.97,1.77 -88.84,0 -69,-4.42 -32.78,-7.96 -69.87,-16.79 -50.02,-10.61 -249.26,24.74 -285.49,50.37l-37.08 23.86c-10.35,-12.37 -10.35,-12.37 -18.98,-28.28l-33.64 -56.56c6.9,57.44 8.63,31.82 -7.76,83.96l-26.74 80.42 94.02 3.53z"/>
    <path class="fil12" d="M542.67 2830.04c-35.36,11.49 -14.66,-9.72 -28.46,24.75 33.63,16.79 25.87,-3.54 48.3,22.09 19.83,22.09 0,2.65 7.76,44.19 32.78,0.88 7.76,-0.89 29.33,2.65 2.58,0.88 7.76,7.95 9.48,4.42 1.73,-2.65 5.18,4.42 7.77,6.18l40.53 -16.79c5.18,-83.07 -1.72,-3.53 15.53,-51.25 13.8,-35.35 6.9,-5.31 14.66,-61.87l-55.2 4.42c-6.04,5.31 -43.12,27.4 -48.3,29.17 -44.85,14.14 -27.6,23.86 -41.4,-7.96z"/>
   </g>
   <g>
    <path class="fil13" d="M683.26 1537.14c16.39,15.03 0.86,20.33 46.57,2.65 0.87,0 43.13,-23.86 50.03,-28.28 53.48,-30.04 59.51,-38.88 126.79,-44.18 4.31,-8.84 -5.18,1.76 18.11,-15.03l20.7 -14.14c2.59,-0.88 5.18,-3.53 7.76,-5.3 3.45,-2.65 19.84,-20.32 25.02,-24.74l35.36 -31.82 24.15 1.77 2.59 -24.74 38.81 -7.96c3.45,-22.09 -6.04,-8.84 11.21,-24.74 29.33,13.25 33.64,-24.75 18.12,30.04 48.3,2.66 53.47,56.56 163.01,30.93 47.44,-11.48 71.59,-38.88 142.31,-36.23 72.46,1.77 165.61,58.33 361.4,23.86 9.48,-20.32 18.11,-45.07 25.87,-61.86 -88.84,-18.56 -213.04,-52.14 -301.01,-39.77 -111.27,15.91 -220.81,19.45 -340.7,22.98 -133.69,5.3 -378.64,182.05 -476.1,246.56z"/>
    <path class="fil13" d="M1810.56 2484.5l72.45 3.54c18.97,-52.14 19.84,-68.93 27.6,-119.31 -72.45,5.31 -100.91,41.54 -100.05,115.77z"/>
   </g>
   <g>
    <path class="fil14" d="M1821.77 65.73c59.51,41.53 144.9,14.14 237.19,18.56 66.41,3.53 151.8,14.13 217.35,10.6 105.23,-7.07 92.29,-21.21 169.06,26.51 33.63,-33.58 18.97,-32.7 33.63,-44.18 65.55,11.48 24.15,40.65 65.55,25.62 2.59,-0.88 6.04,-2.65 7.77,-3.53 2.58,-1.77 6.9,-5.3 8.62,-6.19 2.59,-0.88 6.04,-4.42 8.63,-6.18l5.17 36.23c87.12,-12.37 94.88,48.6 144.9,76.88 30.19,-22.09 26.74,-50.37 49.17,-78.65l12.93 -12.37c0,0 2.59,-1.77 3.45,-1.77 0.87,-0.88 4.32,-3.53 6.04,-4.42 41.4,-22.97 -13.8,-11.48 62.97,-23.86 0,75.12 -12.94,133.45 -15.53,210.33 2.59,-42.42 -1.72,-54.79 -24.15,-80.42l-35.36 136.1c0.86,107.81 43.98,86.6 62.96,168.79 15.53,70.7 -7.76,159.07 20.7,229.77l18.98 -62.75c8.62,-128.14 12.07,-524.05 -11.22,-637.17l-370.01 -4.42c-18.98,14.14 -5.18,7.96 -34.5,14.14 -10.35,2.66 -26.74,3.54 -37.09,4.42 -31.05,0 -57.79,-2.65 -89.7,-2.65l-517.51 10.61z"/>
    <path class="fil14" d="M1663.07 698.48c50.89,-18.56 32.77,-23.86 87.98,-2.65 5.17,-76 -3.45,-68.93 -11.22,-121.96 -39.67,-49.49 -22.42,-136.98 -21.56,-203.26 -9.49,-98.09 4.31,-17.67 -29.33,-45.07l6.9 213.87 -92.28 -7.07c-31.05,-44.19 -28.47,-72.47 -16.39,-114 12.07,-41.54 18.97,-71.59 -59.51,-122.84 -6.9,-4.42 -34.5,-16.79 -42.27,-21.21 -43.12,-23.86 -49.16,-32.7 -41.4,-93.68l62.1 -26.51c1.73,-4.42 6.9,-3.53 9.49,-7.07l-91.43 1.77c-28.46,133.44 12.08,109.58 24.15,172.33 8.63,45.07 3.45,151.11 3.45,201.49l34.51 16.79c1.72,1.77 6.9,3.53 8.62,4.42 1.73,0.88 6.04,2.65 8.63,4.41 -6.04,82.19 10.35,148.47 20.7,219.17 69,-7.07 56.06,-46.84 138.86,-68.93z"/>
   </g>
   <g>
    <path class="fil15" d="M1289.6 1856.17c-36.22,-15.91 -29.32,-11.49 -50.02,-47.72l50.02 47.72zm-88.84 114c119.03,-29.16 360.53,-75.12 490.77,-81.3 92.29,-3.54 162.15,-15.91 250.13,-28.28l183.71 -30.93c54.34,-15.91 19.84,10.6 50.03,-29.17 -17.25,-5.3 -18.11,22.98 -11.21,-22.09l-77.63 -4.42c-32.77,13.26 1.73,-20.32 -10.35,11.49 -6.9,16.79 6.9,16.79 19.84,17.68 -69,24.74 -195.79,41.53 -263.93,36.23 -12.94,-34.47 -2.59,9.72 6.9,-48.61l-6.04 -26.51c-52.61,44.19 -6.9,33.58 -91.42,46.84 -44.85,7.07 -85.39,7.95 -129.38,14.14 -99.19,15.91 -164.74,12.37 -274.28,17.67l-40.53 -17.67c31.91,-55.68 12.07,-37.12 21.56,-82.19 -28.46,-28.28 -21.56,39.77 -17.25,-54.79 3.45,-76.88 -37.09,-66.28 23.29,-54.79l-75.91 -7.95 -69 156.42c-24.15,103.39 0.87,146.7 20.7,188.23z"/>
    <path class="fil15" d="M628.06 2523.39c22.42,-34.47 37.95,-77.77 41.4,-125.49l-18.98 -31.82c28.47,-4.42 75.04,7.07 75.04,-30.93 -39.67,-6.18 -17.25,6.19 -38.81,-12.37 6.04,-57.44 28.46,-103.4 55.2,-147.58 -0.86,-38 9.49,-30.05 -25.88,-30.05 -26.73,30.93 -5.17,-0.88 -19.83,31.81 -6.04,12.38 -30.19,109.59 -86.25,178.52 -78.49,97.21 -97.47,47.72 -106.09,208.56 107.81,-3.54 34.5,-41.54 124.2,-40.65z"/>
    <path class="fil15" d="M1369.82 2182.27l-202.69 45.95 -138.87 45.96c0,0 30.19,1.76 56.07,27.39l195.79 -16.79 31.05 -38.88c26.73,-22.98 22.42,-14.14 48.3,-17.68 36.22,0.88 37.08,-0.88 60.37,-25.63 6.9,-7.07 13.8,-18.56 22.43,-27.39 27.6,-28.28 4.31,-4.42 18.11,-13.26l12.07 -89.26c-48.3,-25.62 -31.05,-5.3 -43.98,-45.95 -6.04,-20.33 2.58,-10.6 -8.63,-33.58 -25.01,-50.37 25.88,7.95 -31.05,-38 0,102.51 -12.07,129.02 38.81,143.16 73.32,21.21 6.9,7.07 48.3,-4.42 -2.58,4.42 -6.03,8.84 -9.48,12.38 -2.59,2.65 -5.18,7.07 -8.63,10.6 -2.59,3.54 -12.94,14.14 -15.52,16.79 -5.18,6.19 -19.84,18.56 -19.84,18.56l-52.61 30.05z"/>
    <path class="fil15" d="M780.72 1963.1c-9.49,8.84 -9.49,9.72 -21.56,19.44 -13.8,10.61 -9.49,2.65 -25.01,17.68 -28.47,26.51 -26.74,-2.65 -9.49,37.11 -87.98,4.42 -6.9,19.45 -129.38,48.61l1.73 -43.3 -12.94 36.23c6.04,41.54 -6.9,-0.88 -15.53,102.51 140.59,-24.74 40.54,-64.51 211.32,-73.35 4.31,-14.14 6.04,-27.39 29.32,-35.35 105.23,-37.11 59.52,4.42 71.59,14.14l4.32 -22.97 -98.33 -4.42c18.11,-17.68 -25.88,-15.03 28.46,-14.14 58.65,-51.26 59.52,-28.28 15.53,-90.14l-50.03 7.95z"/>
    <path class="fil15" d="M552.16 1750.12l-25.02 22.98 -29.32 42.42c-37.09,47.72 -4.31,30.04 9.49,42.42 46.57,-22.1 53.47,-14.14 96.6,-25.63 58.65,-15.02 25.87,-21.21 87.11,-45.07l-23.29 -20.33 -22.42 -89.25 -40.54 14.14c-14.66,41.53 -13.8,40.65 -52.61,58.32z"/>
   </g>
   <g>
    <path class="fil16" d="M1087.78 1681.19l78.48 -15.02c53.48,106.93 -214.76,147.58 -263.06,128.14 10.35,-92.79 47.44,-22.98 48.3,-91.03 -47.44,7.07 -125.93,38 -149.22,61.86l53.48 -2.65c-1.72,4.42 -6.04,7.96 -7.76,10.61l-12.08 18.56c-1.72,2.65 -3.45,6.18 -4.31,7.95 -4.31,8.84 -40.54,-2.65 31.91,35.35 102.64,52.14 78.49,49.49 79.35,82.19l-70.72 24.74c11.21,60.98 31.91,47.72 -16.39,75.12l98.33 9.72 193.2 -23.86 53.47 -32.7c-19.83,-41.53 -44.85,-84.84 -20.7,-188.23l69 -156.42 75.91 7.95 3.45 76.88c18.11,15.91 12.93,65.4 23.28,-31.81 2.59,-23.86 0,-38 3.45,-67.16 171.64,-16.8 162.16,44.18 200.11,-23.87 -62.1,13.26 -62.1,15.91 -90.57,2.66 -107.81,-15.03 -319.99,33.58 -376.91,91.02z"/>
    <path class="fil16" d="M1147.29 2002.87c-12.08,14.14 32.77,13.26 -70.73,31.81 -117.3,21.21 -141.45,44.19 -234.6,74.24l38.81 -22.1c-12.07,-9.72 33.64,-51.25 -71.59,-14.14 -23.28,7.96 -25.01,21.21 -29.32,35.35 -16.39,36.24 5.17,16.79 -28.46,36.24 -25.88,13.25 -7.77,10.6 -35.37,0.88 35.37,0 25.02,-7.95 25.88,30.05 13.8,-14.14 35.36,-1.77 53.47,2.65 77.63,15.91 56.07,14.14 73.32,0.88 6.04,14.14 4.31,0.89 6.04,25.63 0,6.19 -4.32,23.86 -4.32,25.63 12.08,-23.86 13.8,-40.65 47.44,-51.26l13.8 -2.65c1.73,0 5.18,-0.88 6.9,-0.88 33.64,-1.77 48.3,10.6 109.54,5.3 -13.8,35.35 -1.72,7.95 -25.88,30.05 -46.57,42.42 10.35,-26.52 -30.18,22.97l36.22 40.66 138.87 -45.96c25.87,-32.7 6.9,-0.88 18.11,-55.67 -78.49,12.37 -78.49,16.79 -109.54,-7.07l199.24 -81.31c41.4,-35.35 0,-21.21 43.13,-40.65l-63.83 -59.21c-64.69,-0.88 -42.26,17.68 -106.95,18.56z"/>
    <path class="fil16" d="M616.85 2934.32c-2.59,-1.76 -6.04,-8.83 -7.77,-6.18 -1.72,3.53 -6.9,-3.54 -9.48,-4.42 -21.57,-3.54 3.45,-1.77 -29.33,-2.65l-107.81 -11.49c-56.93,1.77 -1.73,-3.54 -50.89,-25.63l-26.74 -7.95c-60.38,-21.21 -43.99,-18.56 -61.24,-72.47 -72.45,2.65 -60.37,22.98 -75.04,-38 -34.5,38 -6.03,34.47 -102.63,34.47l-31.92 54.79c-8.62,-72.47 11.21,-61.86 17.25,-93.68 4.31,-22.09 11.22,-17.67 -6.9,-45.07l-16.39 -0.88c-6.03,-47.72 -5.17,-31.82 -20.7,-60.98l-37.08 -54.79c-0.87,-6.19 -5.18,-7.07 -7.77,-10.61 -4.31,73.35 -11.21,273.08 6.9,340.24l567.54 5.3z"/>
    <path class="fil16" d="M2045.16 1418.72c17.25,67.17 8.63,90.14 -18.97,135.21 58.65,5.31 121.61,21.21 169.05,36.24 63.82,-14.14 -27.6,-3.54 65.55,-45.07 177.68,-78.66 151.8,-89.26 125.93,-249.22l21.56 -22.97 -25.88 9.72c-57.79,121.95 51.75,159.95 -131.96,228.88 -44.85,16.79 -65.55,29.17 -119.89,17.68 17.25,-43.3 0,29.16 38.81,-61.86 87.98,-205.03 31.05,-14.14 21.57,-266.01 -10.35,14.14 -3.45,-5.3 -16.39,31.82 -3.45,7.95 -6.9,22.97 -7.76,31.81 -13.81,114.89 22.42,23.86 -56.07,156.42 -51.75,-0.88 -18.11,-6.18 -65.55,-2.65z"/>
   </g>
   <g>
    <path class="fil17" d="M1094.68 253.08c36.22,-39.77 20.7,-122.84 18.97,-174.1 0.86,-0.88 4.31,-2.65 4.31,-0.88l29.33 -20.33c64.69,-5.3 283.76,-9.72 345.87,10.61 40.53,13.25 41.4,30.93 59.51,60.98l-37.09 17.67c-2.59,3.54 -7.76,2.65 -9.49,7.07l-62.1 26.51c-7.76,60.98 -1.72,69.82 41.4,93.68 7.77,4.42 35.37,16.79 42.27,21.21 78.48,51.25 71.58,81.3 59.51,122.84 -12.08,41.53 -14.66,69.81 16.39,114l92.28 7.07 -6.9 -213.87c-25.01,-6.18 -18.11,-80.42 -20.7,-110.46 -121.61,-67.17 -77.62,-53.91 -92.28,-118.42 -3.45,-17.68 -6.04,10.6 -6.9,-28.28 26.73,-0.89 44.85,-1.77 61.23,-3.54 82.81,-9.72 81.08,-25.63 191.48,0.89l517.51 -10.61c31.91,0 58.65,2.65 89.7,2.65 10.35,-0.88 26.74,-1.76 37.09,-4.42 29.32,-6.18 15.52,0 34.5,-14.14l-1424.87 -5.3 18.98 219.17z"/>
    <path class="fil17" d="M2216.8 1169.51c-12.94,21.21 -8.62,15.02 -25.87,31.81 9.48,251.87 66.41,60.98 -21.57,266.01 -38.81,91.02 -21.56,18.56 -38.81,61.86 54.34,11.49 75.04,-0.89 119.89,-17.68 183.71,-68.93 74.17,-106.93 131.96,-228.88 6.04,-8.84 18.12,-34.47 19.84,-37.12 -2.59,-3.53 -6.9,-7.95 -8.62,-10.6l-19.84 -28.28c68.14,-18.56 40.54,15.02 49.16,-59.21 -75.9,7.07 -135.41,30.04 -206.14,22.09z"/>
    <path class="fil17" d="M1965.81 2365.2c21.56,-31.81 12.08,-19.44 37.95,-38.88 6.9,-34.47 9.49,-53.03 19.84,-81.31l24.15 -59.21c60.37,15.03 31.05,25.63 112.13,22.1l0 -101.63 -195.79 11.48c-26.74,72.47 -8.63,81.31 -17.25,139.63 -12.94,84.84 -41.41,-30.93 -50.89,115.77l69.86 -7.95z"/>
   </g>
   <g>
    <path class="fil18" d="M1274.08 860.2c21.56,23.86 31.05,37.12 61.24,69.82 27.6,30.04 45.71,54.79 71.58,81.3 33.64,35.35 37.09,40.65 57.79,94.56 18.11,47.72 18.11,72.47 24.15,125.49l151.8 11.49c-6.9,-96.33 -39.67,-183.82 -87.11,-263.35 -16.39,-28.28 -31.91,-40.66 -42.26,-70.7l-20.7 -128.14c-5.18,-24.75 1.72,-3.54 -14.67,-31.82 -35.36,-61.86 -11.21,0.89 -14.66,-74.23 -1.72,-38 -2.59,-87.49 -53.47,-77.77 -35.37,6.19 -49.17,44.19 -59.52,94.56 -10.35,57.44 32.78,102.51 -23.28,135.21 0,31.82 0.86,7.07 -6.9,3.54l-11.22 -9.73c-0.86,-3.53 -4.31,-4.41 -6.9,-6.18 0,91.91 6.04,25.63 -25.87,45.95z"/>
    <path class="fil18" d="M2174.54 733.83c-27.6,38 32.77,29.16 -25.88,29.16 0,29.17 3.45,1.77 -26.74,6.19 -22.42,34.46 0.87,11.49 -32.77,33.58 -2.59,8.84 -0.86,13.26 1.72,18.56 0.87,0.88 1.73,5.3 2.59,7.07 0.86,0.88 3.45,3.53 4.31,5.3l26.74 19.44c4.31,3.54 7.76,7.07 12.08,11.49 4.31,3.54 8.62,7.95 12.07,12.37 -61.24,15.91 -15.52,30.05 -104.36,45.96 -32.78,-4.42 -6.04,-3.54 -18.11,19.44l72.45 -1.77 16.38 1.77c1.73,-0.88 6.9,0 8.63,-0.88l16.39 -5.31c2.58,-1.76 6.03,-3.53 8.62,-5.3 3.45,-1.77 20.7,-16.79 22.43,-18.56 18.11,-17.67 5.17,0.89 18.97,-22.09 -15.52,-32.7 -12.93,-10.61 -21.56,-19.44 -0.86,-0.89 -3.45,-2.65 -4.31,-3.54 0,0 -2.59,-1.77 -2.59,-2.65 -6.9,-22.98 28.46,-30.93 51.75,-33.58 63.83,-6.19 22.43,-7.07 37.09,10.6 4.31,-50.37 25.01,-81.3 0.86,-129.9 -44.85,-88.38 -47.44,-18.56 -56.06,-142.29 -0.86,0.89 -22.43,9.73 -30.19,14.14 -12.94,110.47 24.15,61.87 48.3,116.66 -17.25,32.7 -16.39,29.16 -38.81,33.58z"/>
   </g>
   <g>
    <path class="fil19" d="M2312.54 943.27c-1.73,-60.09 -15.53,-157.3 13.8,-199.72 23.29,23.86 24.15,37.12 28.46,89.26 37.09,0 43.99,-0.89 78.49,19.44l-13.8 83.07c-61.24,13.26 -41.4,16.79 -106.95,7.95zm-58.65 -420.65c-12.08,163.49 41.4,126.37 36.22,252.74 -1.72,41.54 -0.86,99.87 -6.03,137.87 -7.77,49.49 -24.15,52.14 -25.02,114 58.65,-70.7 -20.7,-65.4 112.99,-71.58 -5.17,120.18 3.45,106.04 -45.71,152l-69.86 -4.42c-6.04,10.6 -13.8,21.21 -18.98,29.16 -18.97,32.7 -1.72,-1.77 -20.7,37.12 70.73,7.95 130.24,-15.02 206.14,-22.09 -8.62,74.23 18.98,40.65 -49.16,59.21l19.84 28.28c1.72,2.65 6.03,7.07 8.62,10.6 -1.72,2.65 -13.8,28.28 -19.84,37.12l25.88 -9.72c61.24,-52.14 37.09,-51.26 47.44,-135.22 11.21,-84.83 4.31,-129.9 8.62,-209.44 3.45,-86.61 1.73,-81.3 50.03,-126.37 -6.04,-27.4 -7.77,-53.03 -14.67,-83.96 -13.8,-56.56 -18.97,-34.46 -36.22,-85.72 -37.09,-13.26 -87.98,-116.65 -86.25,-143.17 -60.38,-3.53 -87.12,8.84 -123.34,33.59z"/>
    <path class="fil19" d="M1810.56 2484.5c-0.86,-74.23 27.6,-110.46 100.05,-115.77 -7.76,50.38 -8.63,67.17 -27.6,119.31l-72.45 -3.54zm155.25 -119.3l-69.86 7.95c9.48,-146.7 37.95,-30.93 50.89,-115.77 8.62,-58.32 -9.49,-67.16 17.25,-139.63l195.79 -11.48 0 101.63c-81.08,3.53 -51.76,-7.07 -112.13,-22.1l-24.15 59.21c-10.35,28.28 -12.94,46.84 -19.84,81.31l69 -89.26 97.47 -4.42c43.12,-12.37 9.48,8.84 35.36,-33.58 4.31,-7.07 22.42,-41.54 23.29,-43.31 -85.39,-60.09 9.48,-94.55 -257.03,-106.04 -2.59,3.53 -4.31,5.3 -5.18,10.6 -6.9,41.54 -43.12,38 -63.82,68.05l-15.53 46.84c-12.07,35.35 6.04,-15.91 -6.9,17.67 -8.62,22.09 -5.17,7.07 -12.94,33.58 -9.48,31.82 -9.48,48.61 -20.7,81.31 -47.43,136.98 -123.33,160.84 -52.61,252.74 64.69,-14.14 9.49,-24.74 123.34,-64.51 18.98,-73.35 4.31,-64.51 48.3,-130.79z"/>
   </g>
   <g>
    <path class="fil20" d="M2713.61 839.88c5.17,127.25 -26.74,231.53 -61.24,330.51l-6.9 125.49c22.42,59.21 50.89,91.03 29.32,129.03l33.64 192.65 20.7 60.98c45.71,-44.19 86.25,-256.28 97.46,-314.61 33.64,-174.1 -41.4,-233.31 -10.35,-339.35 -9.48,-15.91 0.87,21.21 -14.66,-32.7 -18.11,-66.28 0,-116.65 10.35,-167.03 -1.72,-2.65 -4.31,-6.18 -6.04,-7.95l-22.42 -28.28c-4.31,0.88 -24.15,3.54 -26.74,2.65l-37.09 -16.79c5.18,76 22.43,26.51 -6.03,65.4z"/>
    <path class="fil20" d="M2597.17 2322.78l-16.39 -6.19c-10.35,0.89 -21.56,-8.83 -38.81,6.19 -0.87,50.37 -9.49,80.42 -12.08,126.37 -20.7,-25.62 -10.35,2.66 -18.97,-35.35 -10.35,-44.18 -0.87,-21.2 5.17,-29.16 2.59,91.03 18.11,80.42 -155.25,80.42 4.31,-38.88 4.31,-19.44 8.62,-33.58 0.87,-3.54 2.59,-7.07 3.45,-10.61 25.88,-70.69 12.08,-48.6 42.27,-67.16l75.9 69.82c-29.33,-22.1 0.86,-64.52 -12.08,-97.21l-106.09 32.69c-42.26,105.17 -7.76,121.96 -0.86,148.47l106.09 -7.07c-4.31,21.21 -28.46,51.26 15.53,5.3l20.7 -29.16c34.5,-54.79 58.65,-62.75 74.17,-112.23 12.08,-38 3.45,6.18 8.63,-41.54z"/>
    <path class="fil20" d="M1474.18 2382.87l28.46 -5.3c25.02,-53.91 25.02,-51.25 11.22,-111.35 -34.51,28.28 -70.73,53.91 -112.99,52.14l73.31 64.51z"/>
   </g>
   <g>
    <path class="fil21" d="M936.84 2361.66c-7.77,45.96 -14.67,28.28 -34.5,70.7 0,0 -84.53,-68.93 -125.07,12.38 -16.39,59.21 31.91,25.62 -53.47,55.67 21.56,30.05 12.07,19.44 40.53,33.58 6.9,2.65 27.6,7.07 37.95,9.72 100.06,12.38 28.47,17.68 86.26,37.12 37.08,13.26 30.18,1.77 67.27,3.54 84.53,3.53 7.76,-13.26 37.09,7.07 18.11,-20.33 23.29,-19.45 39.67,-42.42 30.19,-43.31 -0.86,-27.4 51.76,-53.91 93.15,-15.03 32.77,9.72 98.32,9.72 21.56,-0.88 77.63,-22.09 103.5,-30.93 230.29,-81.3 112.99,-53.91 188.03,-91.03l-73.31 -64.51c42.26,1.77 78.48,-23.86 112.99,-52.14l0.86 -20.32c-112.99,37.11 -142.32,58.32 -283.77,71.58 -106.09,10.6 -215.63,10.6 -294.11,44.18z"/>
    <path class="fil21" d="M683.26 1537.14c-39.68,10.61 -26.74,0 -52.61,30.05l7.76 10.6c-0.86,-4.42 0.86,2.65 0.86,7.07 -2.59,29.17 -23.29,38.89 -26.74,43.31 -37.09,47.72 33.64,-54.8 -10.35,34.46l-50.02 87.49c38.81,-17.67 37.95,-16.79 52.61,-58.32l40.54 -14.14c85.39,89.25 8.62,49.48 144.04,-2.66 37.95,-15.02 9.48,15.91 6.9,-6.18 27.6,-28.28 15.52,-52.14 14.66,-76 65.55,3.53 62.96,2.65 101.78,-26.51l-52.62 -25.63c-17.25,-5.31 -34.5,-8.84 -48.3,-7.07l94.88 -66.28c-67.28,5.3 -73.31,14.14 -126.79,44.18 -6.9,4.42 -49.16,28.28 -50.03,28.28 -45.71,17.68 -30.18,12.38 -46.57,-2.65z"/>
    <path class="fil21" d="M1167.13 2228.22l202.69 -45.95c1.72,-59.21 -2.59,-1.77 -7.77,-17.68l-7.76 -150.23 -100.05 -30.05 63.83 59.21c-43.13,19.44 -1.73,5.3 -43.13,40.65l-199.24 81.31c31.05,23.86 31.05,19.44 109.54,7.07 -11.21,54.79 7.76,22.97 -18.11,55.67z"/>
   </g>
   <g>
    <path class="fil22" d="M2833.5 2936.09c-12.08,-28.28 16.38,-197.96 25.87,-233.3 7.76,-23.87 8.63,-17.68 17.25,-30.05 0.86,53.02 4.31,102.51 2.59,156.42 -5.18,138.75 -3.45,99.86 -45.71,106.93zm28.46 -977.41l-4.31 110.47c35.36,54.79 18.97,418 15.52,456.01 -7.76,107.81 -82.8,279.25 -100.05,405.63l-87.11 2.65 13.8 -37.12c-2.59,-73.35 51.75,-256.28 81.07,-333.16 14.66,-51.26 67.28,-213.87 52.62,-265.12 -15.53,57.44 -18.98,97.21 -40.54,159.95 -31.05,89.26 -150.94,393.26 -132.83,454.24 -26.74,37.12 6.04,12.37 -42.26,25.63 -13.8,3.53 -37.95,0 -53.48,-0.89l-1423.14 2.66 -60.37 0c24.15,-55.68 30.18,-147.59 50.88,-214.75 24.15,-77.77 33.64,-103.4 119.03,-123.72 138.86,-28.28 220.8,-88.38 305.33,-167.91l53.47 -65.4 -4.31 -20.33 -30.19 20.33c-0.86,1.77 -19.83,19.44 -19.83,19.44 -19.84,18.56 -24.15,24.75 -41.4,38.89 -26.74,27.39 -26.74,41.53 -69.87,66.28 -23.29,13.25 -71.59,43.3 -87.97,51.25 -58.65,26.52 -165.61,49.49 -231.16,49.49l-49.16 47.72c-0.86,2.66 -2.59,6.19 -4.31,8.84l-12.08 15.91c-13.8,15.02 -10.35,-1.77 -32.77,31.81l-2.59 17.68 84.53 -23.86 -75.04 242.14 -210.45 -22.98c-41.41,19.44 -15.53,-10.6 -30.19,45.07l261.34 3.54c138,11.49 329.48,0.88 473.52,0 385.54,-1.77 1037.59,-5.3 1372.25,11.49 0.86,-174.1 -14.66,-980.95 0,-1080.81 -6.04,11.49 -6.04,6.19 -10.35,28.28 -0.86,3.54 -2.59,42.42 -3.45,45.07 -23.29,-13.25 -14.66,-8.84 -24.15,-4.42z"/>
    <path class="fil22" d="M2618.73 668.43c7.76,7.07 23.29,12.37 29.33,45.96l20.7 87.49c12.93,46.83 -22.43,-2.65 8.62,76l-21.56 24.74c21.56,45.96 0,206.8 -3.45,267.77 34.5,-98.98 66.41,-203.26 61.24,-330.51 -16.39,-14.14 -15.53,-78.66 -31.05,-113.12 -51.75,-113.12 -47.44,-101.63 -82.81,-96.33l18.98 38z"/>
   </g>
   <g>
    <path class="fil23" d="M1751.91 945.04l-6.9 -6.19c-3.45,2.66 -16.39,5.31 -19.84,6.19l-28.46 19.44c-0.87,-1.76 -2.59,3.54 -2.59,6.19l-12.08 5.3c-48.3,38.89 36.23,-7.07 -14.66,29.16 0,-30.04 4.31,-2.65 -37.95,-4.41 4.31,10.6 8.63,21.21 14.66,31.81 0.87,1.77 4.32,7.07 5.18,5.3 0.86,-0.88 3.45,2.65 5.17,4.42l45.72 21.21c29.32,25.63 30.19,76.89 30.19,118.42 -68.14,-44.19 44.85,17.68 126.78,-12.37 17.25,-6.19 2.59,6.19 20.7,-17.68 9.49,-13.25 18.98,-29.16 23.29,-33.58 40.54,-45.07 143.18,-109.58 189.75,-167.02 1.73,-2.65 5.18,-7.07 7.77,-10.61l-72.45 1.77c-17.25,15.02 0.86,10.6 -49.17,26.51l30.19 -30.05 3.45 -69.81c0,-1.77 0.86,-4.42 0,-6.19l-14.66 -43.3c68.14,-33.58 22.42,4.42 72.45,-62.74 37.09,-50.38 18.11,34.46 43.12,-33.59l62.97 10.61c22.42,-4.42 21.56,-0.88 38.81,-33.58 -24.15,-54.79 -61.24,-6.19 -48.3,-116.66 7.76,-4.41 29.33,-13.25 30.19,-14.14l6.04 -59.21c21.56,-13.25 26.73,-0.88 28.46,0 30.19,-70.69 -6.04,-53.02 -10.35,-138.74 -25.01,-13.26 -53.48,-27.4 -70.73,-27.4 -24.15,-1.76 -16.39,-2.65 -39.67,9.72 -30.19,15.91 -4.32,-0.88 -26.74,22.98l71.59 31.82c-6.9,142.28 -108.68,68.04 -109.54,67.16 -0.86,-4.42 -6.04,-4.42 -9.49,-4.42 -14.66,34.47 -8.62,18.56 1.73,58.33 -73.32,2.65 -23.29,3.53 -79.35,-22.98 15.52,79.54 51.75,50.37 37.95,98.98 -10.35,36.23 -9.49,11.49 -22.43,30.04 -21.56,32.7 -13.8,28.28 -18.11,75.12l-100.05 -1.77c-38.82,136.98 -6.9,73.35 -0.87,132.56 4.32,40.66 -34.5,76.01 -46.57,102.52l-55.2 0.88z"/>
    <path class="fil23" d="M2624.77 595.08c-4.31,-2.65 -9.49,-4.42 -12.08,-7.07l-25.01 -22.97c-32.78,-38 -35.36,-32.7 -42.26,-62.75 35.36,14.14 27.6,10.61 79.35,92.79zm-247.54 -106.05c-1.73,26.52 49.16,129.91 86.25,143.17l52.61 -9.72c0.86,117.53 26.74,104.28 35.36,144.05 6.9,31.81 -6.03,5.3 1.73,60.09 43.12,-7.07 30.19,-28.28 31.05,41.54 0.86,37.11 -6.04,93.67 5.17,136.09 42.27,-73.35 15.53,-241.26 -19.83,-304 12.93,-6.19 6.03,-6.19 28.46,13.25 -3.45,-38 -6.04,-32.7 -18.98,-66.28 28.47,11.49 15.53,2.65 39.68,21.21l-18.98 -38c35.37,-5.3 31.06,-16.79 82.81,96.33 15.52,34.46 14.66,98.98 31.05,113.12 28.46,-38.89 11.21,10.6 6.03,-65.4l37.09 16.79c2.59,0.89 22.43,-1.77 26.74,-2.65l22.42 28.28c1.73,1.77 4.32,5.3 6.04,7.95 9.49,-16.79 13.8,-30.93 19.84,-41.53 39.68,-61.86 -40.54,54.79 16.39,-20.33 10.35,-13.25 6.04,2.65 14.66,-19.44 -28.46,-70.7 -5.17,-159.07 -20.7,-229.77 -18.98,-82.19 -62.1,-60.98 -62.96,-168.79 -163.88,0 -159.57,23.86 -156.98,90.14 3.45,83.07 -1.72,-9.72 6.9,41.53 3.45,16.79 16.39,37.12 0.86,45.96 -19.83,58.32 12.94,17.67 -7.76,7.95 -3.45,-0.88 -6.9,-6.19 -10.35,-9.72 -1.72,-1.77 -4.31,-5.3 -6.04,-7.07 -13.8,-13.26 -31.05,-31.82 -40.54,-39.77 -60.37,-46.84 -53.47,14.14 -89.7,-71.58l0.87 -28.28c-50.89,9.72 -40.54,-18.56 -86.25,-43.3 -35.37,13.25 -14.67,-10.61 -24.16,31.81 55.21,-2.65 17.26,-30.93 45.72,27.4 -156.12,5.3 -98.33,-17.68 -129.38,-100.75 -2.59,0 -6.04,0.88 -6.9,1.77 -0.86,0 -5.17,0.88 -6.9,0.88l-62.96 19.44c1.72,3.54 5.17,7.07 7.76,9.73 81.94,99.86 35.36,51.25 64.69,99.86l88.84 59.21c2.58,-2.65 7.76,5.3 10.35,8.83z"/>
   </g>
   <g>
    <path class="fil24" d="M2408.28 1272.91l-21.56 22.97c25.87,159.96 51.75,170.56 -125.93,249.22 -93.15,41.53 -1.73,30.93 -65.55,45.07l45.71 90.14c41.4,-91.91 12.08,60.09 5.18,77.77 -32.78,80.41 8.62,123.72 -121.62,129.02 -7.76,0 -25.87,0.88 -33.64,2.65l-75.03 37.12 159.56 21.21c100.91,25.63 11.21,11.49 62.96,55.67 10.35,8.84 28.47,16.79 38.82,23.86 4.31,69.82 12.07,127.26 -25.88,179.4l-45.71 -7.95c-25.88,42.42 7.76,21.21 -35.36,33.58 -21.57,24.74 12.07,2.65 -31.92,29.16 -22.42,14.14 -12.07,4.42 -36.22,15.03 -102.64,46.83 -33.64,86.6 -49.17,167.02l-5.17 17.68c-0.86,1.76 -1.73,5.3 -2.59,7.95 0,1.77 -0.86,5.3 -0.86,7.07 -0.86,17.67 8.62,35.35 12.07,61.86 3.45,35.35 -0.86,75.12 1.73,112.24 101.78,-33.59 51.75,7.95 78.49,-84.84l76.76 -7.96c7.76,-136.09 18.98,-30.04 62.96,-161.72l18.12 -42.42c54.33,-124.61 52.61,-60.09 79.35,-193.54 12.07,-57.44 2.58,-2.65 25.01,-66.28 -26.74,-72.46 -18.98,-4.42 -32.78,-65.39 -5.17,-23.86 -0.86,-60.98 -0.86,-85.72 1.73,-59.21 0.86,-120.19 -12.07,-177.64l17.25 -16.79c48.3,-47.72 50.89,-78.65 49.16,-161.72 -1.72,-97.21 1.73,-139.63 11.21,-235.96 -27.6,-23.86 -15.52,26.52 -27.6,-42.41 24.15,-28.28 61.24,-41.54 89.7,-62.75 -46.57,-174.98 52.62,-22.98 6.04,-231.54 -13.8,-60.98 -11.21,-58.32 -34.5,-85.72 -4.31,79.54 2.59,124.61 -8.62,209.44 -10.35,83.96 13.8,83.08 -47.44,135.22z"/>
    <path class="fil24" d="M1609.59 2367.85l-53.47 65.4c69.86,7.95 65.55,34.46 55.2,93.67 0,2.65 -2.59,0.89 0,15.03 9.49,56.55 3.45,9.72 5.17,8.83l-72.45 0 14.67 111.35 -105.23 0.89 -14.66 67.16 -75.9 0c-17.25,-19.44 -6.9,-15.91 -22.43,-57.44 0,-1.77 -0.86,-6.19 -2.59,-7.96 -0.86,98.1 5.18,16.8 -25.87,50.38 -28.46,14.14 -18.98,25.63 -69.87,94.56 -1.72,2.65 -3.45,5.3 -5.17,7.95l-30.19 53.91c-23.29,54.79 35.36,-28.28 -12.07,17.67 -12.08,12.38 -25.88,-16.79 -12.08,20.33l685.7 -17.68c-26.74,-7.95 3.45,-5.3 -35.37,-7.95 -3.45,0 -6.9,0.88 -10.35,1.77l-21.56 3.53c-1.72,0 -5.17,0.89 -6.04,0.89 -2.58,0 -8.62,0.88 -10.35,1.76 -57.78,6.19 14.67,-23.86 -86.25,-15.9 -0.86,0 -4.31,0 -5.17,0 -1.73,0 -18.12,0 -19.84,0 -1.73,0 -5.18,0 -6.04,0 -99.19,-10.61 -56.06,24.74 -101.77,-9.72l192.34 -8.84c-17.25,-16.79 -87.12,-42.42 -138.01,-42.42 71.59,-34.47 -20.7,7.07 56.07,-14.14 1.72,-0.88 6.03,-1.77 7.76,-2.65l65.55 -28.28c10.35,-67.16 20.7,-44.19 26.74,-92.79l-59.51 -19.44c-3.45,-61.87 -11.22,-43.31 -17.26,-90.15l90.57 -197.07c25.01,-50.37 52.61,-162.6 45.71,-211.21l-10.35 -27.4c-7.76,-19.44 15.53,-53.9 -18.11,-8.83 -69.86,-33.59 -22.43,21.21 -12.94,-29.17 -38.81,26.52 -93.15,46.84 -135.41,76 18.97,90.15 -9.49,142.29 -49.17,197.96z"/>
    <path class="fil24" d="M1108.48 1350.67c-16.39,27.4 -25.02,113.12 -22.43,160.84 41.4,11.49 -7.76,2.65 45.71,-8.83l-10.35 29.16c36.23,-25.63 235.47,-60.98 285.49,-50.37 37.09,8.83 0.87,12.37 69.87,16.79 25.87,1.77 61.24,0 88.84,0 64.68,0.88 126.78,0 190.61,0.88l11.21 -30.93c-10.35,-19.44 -0.86,-67.16 7.77,-98.98 -195.79,34.47 -288.94,-22.09 -361.4,-23.86 -70.72,-2.65 -94.87,24.75 -142.31,36.23 -109.54,25.63 -114.71,-28.27 -163.01,-30.93z"/>
    <path class="fil24" d="M741.91 2175.2c-26.74,44.18 -49.16,90.14 -55.2,147.58 21.56,18.56 -0.86,6.19 38.81,12.37l19.84 -5.3c96.6,-65.4 68.14,-5.3 150.08,-68.93 3.45,-3.54 6.9,-5.3 10.35,-8.84 5.17,-3.53 8.62,-6.18 12.93,-8.84 4.32,-3.53 8.63,-6.18 12.94,-9.72 13.8,59.21 0.86,32.7 20.7,53.03l38.81 22.09 93.16 -7.07c-25.88,-25.63 -56.07,-27.39 -56.07,-27.39l-36.22 -40.66c40.53,-49.49 -16.39,19.45 30.18,-22.97 24.16,-22.1 12.08,5.3 25.88,-30.05 -61.24,5.3 -75.9,-7.07 -109.54,-5.3 -1.72,0 -5.17,0.88 -6.9,0.88l-13.8 2.65c-33.64,10.61 -35.36,27.4 -47.44,51.26 0,-1.77 4.32,-19.44 4.32,-25.63 -1.73,-24.74 0,-11.49 -6.04,-25.63 -17.25,13.26 4.31,15.03 -73.32,-0.88 -18.11,-4.42 -39.67,-16.79 -53.47,-2.65z"/>
    <path class="fil24" d="M726.38 1788.12l34.5 28.28c-18.97,10.61 -19.83,7.96 -36.22,21.21l-18.11 41.54c2.58,2.65 6.03,7.07 7.76,8.83l-22.43 68.05c-0.86,-1.77 -3.45,5.3 -5.17,7.95l31.05 30.05 62.96 -30.93 50.03 -7.95c43.99,61.86 43.12,38.88 -15.53,90.14l138.87 -18.56 -98.33 -9.72c48.3,-27.4 27.6,-14.14 16.39,-75.12l70.72 -24.74c-0.86,-32.7 23.29,-30.05 -79.35,-82.19 -72.45,-38 -36.22,-26.51 -31.91,-35.35 0.86,-1.77 2.59,-5.3 4.31,-7.95l12.08 -18.56c1.72,-2.65 6.04,-6.19 7.76,-10.61l-53.48 2.65 -75.9 22.98z"/>
   </g>
   <g>
    <path class="fil25" d="M2058.1 2650.65l2.59 7.95 9.48 21.21c18.12,74.23 -15.52,48.6 10.35,79.53 13.8,15.91 78.49,27.4 100.92,26.52 -10.35,-66.28 21.56,62.74 -9.49,-20.33l-22.43 -97.21 227.71 -5.3c37.95,10.6 35.36,60.09 139.72,21.21l75.9 -11.49c3.45,0.88 8.63,2.65 12.94,4.42 -0.86,54.79 -25.01,107.81 -54.34,152.88 -35.36,52.14 -103.5,46.84 -181.12,43.31 -2.59,0 -6.04,-0.89 -7.77,-0.89l-74.17 -7.07c-42.26,4.42 -34.5,14.14 -57.79,16.79l-11.21 -1.76c-30.19,-1.77 -19.84,-17.68 -35.36,12.37l155.25 12.37c68.14,8.84 180.26,-22.09 225.11,31.81 15.53,0.89 39.68,4.42 53.48,0.89 48.3,-13.26 15.52,11.49 42.26,-25.63l-31.91 -22.98c0,0 -6.9,18.56 -25.88,21.21l-27.6 -3.53c-18.11,-48.61 151.8,-497.54 168.19,-561.17 9.49,-36.24 5.18,-111.35 4.31,-151.12 -2.58,-92.79 -25.87,-172.33 -33.63,-273.07l-28.47 35.34c-7.76,57.45 -12.93,152.89 -33.63,196.19 -19.84,41.54 -56.93,88.38 -54.34,169.68 -5.18,47.72 3.45,3.54 -8.63,41.54 -15.52,49.48 -39.67,57.44 -74.17,112.23l-20.7 29.16c-43.99,45.96 -19.84,15.91 -15.53,-5.3l-106.09 7.07c-6.9,-26.51 -41.4,-43.3 0.86,-148.47l106.09 -32.69c12.94,32.69 -17.25,75.11 12.08,97.21l-75.9 -69.82c-30.19,18.56 -16.39,-3.53 -42.27,67.16 -0.86,3.54 -2.58,7.07 -3.45,10.61 -4.31,14.14 -4.31,-5.3 -8.62,33.58 173.36,0 157.84,10.61 155.25,-80.42 -6.04,7.96 -15.52,-15.02 -5.17,29.16 8.62,38.01 -1.73,9.73 18.97,35.35 2.59,-45.95 11.21,-76 12.08,-126.37 17.25,-15.02 28.46,-5.3 38.81,-6.19l1.72 -40.65c-16.38,-64.51 36.23,0 -24.15,-41.53l-16.38 75.11c-12.08,-81.3 12.93,0 -37.95,-38 -19.84,56.56 -44.85,45.96 -116.44,37.12l34.5 -62.74c-36.23,-47.73 -28.46,-7.07 -36.23,-53.91 -17.25,-102.52 18.12,15.91 36.23,-85.72 10.35,-57.45 -80.22,-130.8 46.57,-190.01 65.55,-31.81 26.74,-18.56 78.49,-62.74 -40.54,-55.68 -12.07,-79.54 -43.12,-108.7 -43.99,26.51 5.17,22.09 6.03,73.35 0.87,69.81 3.45,38.88 -56.92,59.21 -46.58,-66.28 11.21,-42.42 0.86,-114l-18.11 -290.75c0.86,-105.16 20.7,-90.14 -5.18,-121.96 -9.48,96.33 -12.93,138.75 -11.21,235.96 1.73,83.07 -0.86,114 -49.16,161.72l-17.25 16.79c12.93,57.45 13.8,118.43 12.07,177.64 0,24.74 -4.31,61.86 0.86,85.72 13.8,60.97 6.04,-7.07 32.78,65.39 -22.43,63.63 -12.94,8.84 -25.01,66.28 -26.74,133.45 -25.02,68.93 -79.35,193.54l-18.12 42.42c-43.98,131.68 -55.2,25.63 -62.96,161.72l-76.76 7.96c-26.74,92.79 23.29,51.25 -78.49,84.84z"/>
    <path class="fil25" d="M1337.9 1842.91c109.54,-5.3 175.09,-1.76 274.28,-17.67 43.99,-6.19 84.53,-7.07 129.38,-14.14 84.52,-13.26 38.81,-2.65 91.42,-46.84l-21.56 -35.35c-50.89,-50.37 -28.46,-48.6 -62.96,-70.7 -29.33,34.47 -52.62,10.61 -155.25,35.35 -3.45,1.77 -123.34,49.49 -169.06,22.1 156.12,12.37 103.51,-4.42 142.32,54.79 12.94,21.21 -15.53,6.18 24.15,21.21l-179.4 21.21c-50.89,7.95 -52.62,8.83 -73.32,30.04z"/>
   </g>
   <g>
    <path class="fil26" d="M2058.96 84.29l-15.52 39.76c-55.2,3.54 -106.09,-4.42 -147.49,1.77 -18.98,27.4 0.86,30.93 -43.99,73.35 -26.74,26.51 -1.73,-7.95 -20.7,19.44 -42.26,60.98 12.07,90.14 -37.09,109.59 30.19,39.76 28.46,16.79 41.4,40.65 22.43,41.53 -1.72,38.88 -9.49,60.09 -16.38,45.07 -3.45,60.98 26.74,115.77 -38.81,-9.72 -86.25,-24.74 -119.89,-34.47l6.9 63.63c7.77,53.03 16.39,45.96 11.22,121.96 -55.21,-21.21 -37.09,-15.91 -87.98,2.65l-6.04 36.23c62.1,3.54 34.5,5.3 50.03,15.91l-2.59 92.79c22.43,17.68 12.08,15.03 42.26,25.63l5.18 76 55.2 -0.88c12.07,-26.51 50.89,-61.86 46.57,-102.52 -6.03,-59.21 -37.95,4.42 0.87,-132.56l100.05 1.77c4.31,-46.84 -3.45,-42.42 18.11,-75.12 12.94,-18.55 12.08,6.19 22.43,-30.04 13.8,-48.61 -22.43,-19.44 -37.95,-98.98 56.06,26.51 6.03,25.63 79.35,22.98 -10.35,-39.77 -16.39,-23.86 -1.73,-58.33 3.45,0 8.63,0 9.49,4.42 0.86,0.88 102.64,75.12 109.54,-67.16l-71.59 -31.82c22.42,-23.86 -3.45,-7.07 26.74,-22.98 23.28,-12.37 15.52,-11.48 39.67,-9.72 17.25,0 45.72,14.14 70.73,27.4 4.31,85.72 40.54,68.05 10.35,138.74 -1.73,-0.88 -6.9,-13.25 -28.46,0l-6.04 59.21 58.65 -46.83c36.22,-24.75 62.96,-37.12 123.34,-33.59 -2.59,-3.53 -7.77,-11.48 -10.35,-8.83l-88.84 -59.21c-29.33,-48.61 17.25,0 -64.69,-99.86 -2.59,-2.66 -6.04,-6.19 -7.76,-9.73l62.96 -19.44c1.73,0 6.04,-0.88 6.9,-0.88 0.86,-0.89 4.31,-1.77 6.9,-1.77 31.05,83.07 -26.74,106.05 129.38,100.75 -28.46,-58.33 9.49,-30.05 -45.72,-27.4 -101.77,0.88 -33.63,10.61 -84.52,-99.86 -18.11,-38.89 -22.43,38 -14.66,-47.72 29.32,3.53 47.43,7.95 69.86,19.44 37.09,19.44 25.87,29.16 62.1,42.42 21.56,-35.35 84.53,-85.72 117.3,-108.7l58.65 -45.07 -5.17 -36.23c-2.59,1.76 -6.04,5.3 -8.63,6.18 -1.72,0.89 -6.04,4.42 -8.62,6.19 -1.73,0.88 -5.18,2.65 -7.77,3.53 -41.4,15.03 0,-14.14 -65.55,-25.62 -14.66,11.48 0,10.6 -33.63,44.18 -76.77,-47.72 -63.83,-33.58 -169.06,-26.51 -65.55,3.53 -150.94,-7.07 -217.35,-10.6z"/>
    <path class="fil26" d="M132.98 2386.41l-37.09 60.09c-8.63,18.56 -6.04,17.68 -20.7,45.07l4.31 21.21c62.1,0 2.59,12.38 66.42,120.19 66.41,0 69,-0.88 97.46,-45.95l24.15 -40.66c18.97,-41.53 6.04,-51.25 26.74,-87.48 37.08,-67.17 67.27,-37.12 1.72,-112.24 -25.01,-28.28 -30.19,-57.44 -74.17,-54.79 -1.73,0 -19.84,1.77 -21.57,1.77 -49.16,12.37 -7.76,3.53 -10.35,6.18 -0.86,0 -2.58,1.77 -2.58,2.65 -1.73,0.89 -5.18,5.31 -6.9,7.07l-31.92 45.96c-11.21,22.98 -12.07,24.74 -15.52,55.67 25.01,0 7.76,3.54 0,-24.74z"/>
   </g>
   <g>
    <path class="fil27" d="M1094.68 253.08c12.07,101.63 22.42,243.02 49.16,337.58 20.7,72.47 87.11,220.94 130.24,269.54 31.91,-20.32 25.87,45.96 25.87,-45.95 2.59,1.77 6.04,2.65 6.9,6.18l11.22 9.73c7.76,3.53 6.9,28.28 6.9,-3.54 56.06,-32.7 12.93,-77.77 23.28,-135.21 10.35,-50.37 24.15,-88.37 59.52,-94.56 50.88,-9.72 51.75,39.77 53.47,77.77 3.45,75.12 -20.7,12.37 14.66,74.23 16.39,28.28 9.49,7.07 14.67,31.82l20.7 128.14c-7.76,26.51 18.97,26.51 34.5,34.46l-0.86 -48.6c20.7,27.39 25.87,22.98 49.16,42.42 25.87,22.09 3.45,-10.61 23.29,27.39 2.58,5.31 10.35,31.82 12.07,36.24 42.26,1.76 37.95,-25.63 37.95,4.41 50.89,-36.23 -33.64,9.73 14.66,-29.16l12.08 -5.3c0,-2.65 1.72,-7.95 2.59,-6.19l28.46 -19.44c3.45,-0.88 16.39,-3.53 19.84,-6.19l6.9 6.19 -5.18 -76c-30.18,-10.6 -19.83,-7.95 -42.26,-25.63l2.59 -92.79c-15.53,-10.61 12.07,-12.37 -50.03,-15.91l6.04 -36.23c-82.8,22.09 -69.86,61.86 -138.86,68.93 -10.35,-70.7 -26.74,-136.98 -20.7,-219.17 -2.59,-1.76 -6.9,-3.53 -8.63,-4.41 -1.72,-0.89 -6.9,-2.65 -8.62,-4.42l-34.51 -16.79c0,-50.38 5.18,-156.42 -3.45,-201.49 -12.07,-62.75 -52.61,-38.89 -24.15,-172.33l91.43 -1.77 37.09 -17.67c-18.11,-30.05 -18.98,-47.73 -59.51,-60.98 -62.11,-20.33 -281.18,-15.91 -345.87,-10.61l-29.33 20.33c0,-1.77 -3.45,0 -4.31,0.88 1.73,51.26 17.25,134.33 -18.97,174.1z"/>
    <path class="fil27" d="M2476.42 374.15c-6.9,-15.91 8.62,-18.56 -12.08,-30.93 48.3,9.72 70.73,30.93 93.15,65.4 -38.81,-22.1 -29.32,-34.47 -81.07,-34.47zm98.32 -250.98l-58.65 45.07c-32.77,22.98 -95.74,73.35 -117.3,108.7 -36.23,-13.26 -25.01,-22.98 -62.1,-42.42 -22.43,-11.49 -40.54,-15.91 -69.86,-19.44 -7.77,85.72 -3.45,8.83 14.66,47.72 50.89,110.47 -17.25,100.74 84.52,99.86 9.49,-42.42 -11.21,-18.56 24.16,-31.81 45.71,24.74 35.36,53.02 86.25,43.3l-0.87 28.28c25.02,15.02 18.98,12.37 42.27,30.05 24.15,17.67 23.28,15.02 44.85,30.04 32.77,22.1 38.81,46.84 67.27,60.1 15.53,-8.84 2.59,-29.17 -0.86,-45.96 -8.62,-51.25 -3.45,41.54 -6.9,-41.53 -2.59,-66.28 -6.9,-90.14 156.98,-90.14l35.36 -136.1c22.43,25.63 26.74,38 24.15,80.42 2.59,-76.88 15.53,-135.21 15.53,-210.33 -76.77,12.38 -21.57,0.89 -62.97,23.86 -1.72,0.89 -5.17,3.54 -6.04,4.42 -0.86,0 -3.45,1.77 -3.45,1.77l-12.93 12.37c-22.43,28.28 -18.98,56.56 -49.17,78.65 -50.02,-28.28 -57.78,-89.25 -144.9,-76.88z"/>
    <path class="fil27" d="M906.65 1467.33l-94.88 66.28c13.8,-1.77 31.05,1.76 48.3,7.07l52.62 25.63c-38.82,29.16 -36.23,30.04 -101.78,26.51 0.86,23.86 12.94,47.72 -14.66,76 2.58,22.09 31.05,-8.84 -6.9,6.18 -135.42,52.14 -58.65,91.91 -144.04,2.66l22.42 89.25c64.69,-4.42 141.45,-45.07 198.38,-68.93 59.51,-25.63 154.39,-40.65 225.12,-59.21l-94.02 -3.53 26.74 -80.42c16.39,-52.14 14.66,-26.52 7.76,-83.96l-18.11 -94.56 -35.36 31.82c-5.18,4.42 -21.57,22.09 -25.02,24.74 -2.58,1.77 -5.17,4.42 -7.76,5.3l-20.7 14.14c-23.29,16.79 -13.8,6.19 -18.11,15.03z"/>
   </g>
   <g>
    <path class="fil28" d="M324.45 1991.38c-43.12,74.23 -75.03,140.51 -101.77,224.47 -13.8,35.35 -2.59,40.65 -45.71,43.3 -18.12,30.05 -23.29,22.09 -42.27,60.1 2.59,15.9 -9.49,38.88 -1.72,67.16 7.76,28.28 25.01,24.74 0,24.74 3.45,-30.93 4.31,-32.69 15.52,-55.67l31.92 -45.96c1.72,-1.76 5.17,-6.18 6.9,-7.07 0,-0.88 1.72,-2.65 2.58,-2.65 2.59,-2.65 -38.81,6.19 10.35,-6.18 1.73,0 19.84,-1.77 21.57,-1.77 43.98,-2.65 49.16,26.51 74.17,54.79 65.55,75.12 35.36,45.07 -1.72,112.24 -20.7,36.23 -7.77,45.95 -26.74,87.48l-24.15 40.66c-28.46,45.07 -31.05,45.95 -97.46,45.95 -63.83,-107.81 -4.32,-120.19 -66.42,-120.19 -17.25,20.33 -28.46,48.61 -37.09,76 2.59,3.54 6.9,4.42 7.77,10.61l37.08 54.79c15.53,29.16 14.67,13.26 20.7,60.98l16.39 0.88c18.12,27.4 11.21,22.98 6.9,45.07 -6.04,31.82 -25.87,21.21 -17.25,93.68l31.92 -54.79c96.6,0 68.13,3.53 102.63,-34.47 14.67,60.98 2.59,40.65 75.04,38 17.25,53.91 0.86,51.26 61.24,72.47l26.74 7.95c49.16,22.09 -6.04,27.4 50.89,25.63l4.31 -15.91c20.7,-76.88 -8.63,-28.28 25.01,-102.51 -31.05,-25.63 -29.32,-12.37 -36.22,-49.49 21.56,-21.21 32.77,-14.14 50.88,-33.58 38.82,-42.42 -12.93,-24.75 41.4,-61.86 21.57,-31.82 174.23,-90.14 184.58,-91.91 22.43,-3.54 50.89,4.42 69.86,-10.61 -10.35,-2.65 -31.05,-7.07 -37.95,-9.72 -28.46,-14.14 -18.97,-3.53 -40.53,-33.58 85.38,-30.05 37.08,3.54 53.47,-55.67 -60.37,30.93 -62.96,31.81 -85.39,81.3l-30.18 -34.47c-37.09,69.82 -39.68,76.89 -104.37,119.31 18.11,-52.14 -2.59,-22.1 36.23,-57.45 11.21,-10.6 21.56,-18.55 34.5,-30.04 -89.7,-0.89 -16.39,37.11 -124.2,40.65 8.62,-160.84 27.6,-111.35 106.09,-208.56 56.06,-68.93 80.21,-166.14 86.25,-178.52 14.66,-32.69 -6.9,-0.88 19.83,-31.81 27.6,9.72 9.49,12.37 35.37,-0.88 33.63,-19.45 12.07,0 28.46,-36.24 -170.78,8.84 -70.73,48.61 -211.32,73.35 8.63,-103.39 21.57,-60.97 15.53,-102.51l-25.88 -13.26c-0.86,0 -2.58,-0.88 -2.58,-0.88l-18.12 -17.67c-6.03,26.51 -21.56,50.37 -34.5,74.23 -12.93,25.63 -4.31,32.7 -31.05,39.77 -68.13,16.79 -24.15,11.49 -41.4,-17.68l-10.35 20.33c-20.7,0 -21.56,-4.42 -38.81,-28.28 -12.94,38.88 -12.94,36.23 -41.4,56.56 19.84,-40.65 29.33,-53.03 50.03,-82.19 18.11,-24.74 1.72,-7.95 27.6,-33.58l26.73 -22.98 12.08 -23.86c13.8,-31.81 7.76,-29.16 18.11,-70.7 2.59,-9.72 6.04,-22.09 10.35,-30.04 13.8,-25.63 6.04,-9.73 22.43,-25.63l0 -45.07c-13.8,-12.38 -46.58,5.3 -9.49,-42.42l29.32 -42.42c-28.46,7.95 -76.76,74.23 -93.15,98.09 -22.42,33.58 -25.87,43.31 -47.43,71.59 -24.15,31.81 -27.61,42.41 -62.11,48.6z"/>
    <path class="fil28" d="M2195.24 569.45c8.62,123.73 11.21,53.91 56.06,142.29 24.15,48.6 3.45,79.53 -0.86,129.9 -14.66,-17.67 26.74,-16.79 -37.09,-10.6 -23.29,2.65 -58.65,10.6 -51.75,33.58 0,0.88 2.59,2.65 2.59,2.65 0.86,0.89 3.45,2.65 4.31,3.54 8.63,8.83 6.04,-13.26 21.56,19.44 -13.8,22.98 -0.86,4.42 -18.97,22.09 -1.73,1.77 -18.98,16.79 -22.43,18.56 -2.59,1.77 -6.04,3.54 -8.62,5.3l-16.39 5.31c-1.73,0.88 -6.9,0 -8.63,0.88l-16.38 -1.77c-2.59,3.54 -6.04,7.96 -7.77,10.61 -46.57,57.44 -149.21,121.95 -189.75,167.02 53.48,-21.21 25.88,-10.6 71.59,-46.84 0.86,-61.86 32.78,-59.21 87.98,-79.53 14.66,20.32 13.8,-10.61 27.6,50.37 2.58,9.72 -0.87,30.93 -4.32,41.54 -14.66,38 -28.46,29.16 -35.36,98.09 31.05,26.51 -45.71,24.75 62.1,24.75 -26.74,-15.03 50.89,-28.28 -25.87,17.67 -14.67,7.95 -11.22,1.77 -43.13,5.3 31.05,-13.25 25.88,30.93 16.39,-25.63 -6.04,-43.3 -9.49,-22.97 -31.05,-17.67 -2.59,0.88 -13.8,6.19 -16.39,8.84 -7.76,7.07 -31.91,-1.77 2.59,62.74 -107.82,30.05 6.9,14.14 -54.34,43.31 -62.96,-27.4 -18.11,9.72 2.59,-99.87l-20.7 9.72c10.35,58.33 10.35,26.52 -40.54,37.12 -25.88,22.98 -28.46,23.86 -46.58,47.72 31.92,20.33 112.99,42.42 156.98,84.84 41.4,39.77 1.73,-17.67 12.08,15.91l22.42 22.09c47.44,-3.53 13.8,1.77 65.55,2.65 78.49,-132.56 42.26,-41.53 56.07,-156.42 0.86,-8.84 4.31,-23.86 7.76,-31.81 12.94,-37.12 6.04,-17.68 16.39,-31.82 17.25,-16.79 12.93,-10.6 25.87,-31.81 18.98,-38.89 1.73,-4.42 20.7,-37.12 5.18,-7.95 12.94,-18.56 18.98,-29.16l2.58 -76c0.87,-61.86 17.25,-64.51 25.02,-114 5.17,-38 4.31,-96.33 6.03,-137.87 5.18,-126.37 -48.3,-89.25 -36.22,-252.74l-58.65 46.83z"/>
    <path class="fil28" d="M1250.79 2601.16c31.05,35.35 -6.9,-9.72 34.5,20.32 36.23,25.63 29.33,44.19 26.74,93.68 31.05,-33.58 25.01,47.72 25.87,-50.38 1.73,1.77 2.59,6.19 2.59,7.96 15.53,41.53 5.18,38 22.43,57.44l75.9 0 14.66 -67.16 105.23 -0.89 -14.67 -111.35 72.45 0c-1.72,0.89 4.32,47.72 -5.17,-8.83 -2.59,-14.14 0,-12.38 0,-15.03 10.35,-59.21 14.66,-85.72 -55.2,-93.67 -84.53,79.53 -166.47,139.63 -305.33,167.91z"/>
   </g>
   <path class="fil29" d="M25.16 1050.21c34.5,49.48 11.22,1166.52 17.25,1335.32 33.64,-30.05 31.92,-53.91 58.65,-93.68 122.48,-177.63 75.04,-94.56 175.09,-295.17 18.98,-38.88 33.64,-55.67 57.79,-93.67 118.17,-183.82 113.85,-119.31 138,-239.49 3.45,-17.68 0,-12.38 8.63,-31.82 23.29,-54.79 4.31,-12.37 22.42,-32.7 7.77,-28.28 -24.15,-3.53 31.05,-41.53 46.58,-30.93 106.96,-30.05 170.78,-70.7 37.95,-24.75 62.1,-48.61 95.74,-69.82 80.21,-51.25 161.29,-68.04 216.49,-112.23 39.68,-31.81 57.79,-41.54 119.89,-45.07 242.36,-17.67 325.16,22.98 311.36,-100.75 -3.45,-36.23 -12.93,-47.72 -31.05,-69.81 -27.6,-34.47 -61.23,-69.82 -93.15,-108.7 -294.11,-355.26 -219.07,-575.31 -274.27,-941.18 -123.34,-9.72 -951.35,-25.62 -999.65,7.96 -39.68,38 -5.18,879.31 -25.02,1003.04z"/>
   <path class="fil30" d="M1794.17 2093.89c-9.49,50.38 -56.92,-4.42 12.94,29.17 33.64,-45.07 10.35,-10.61 18.11,8.83l10.35 27.4c6.9,48.61 -20.7,160.84 -45.71,211.21l-90.57 197.07c6.04,46.84 13.81,28.28 17.26,90.15l59.51 19.44c-6.04,48.6 -16.39,25.63 -26.74,92.79l-65.55 28.28c-1.73,0.88 -6.04,1.77 -7.76,2.65 -76.77,21.21 15.52,-20.33 -56.07,14.14 50.89,0 120.76,25.63 138.01,42.42l-192.34 8.84c45.71,34.46 2.58,-0.89 101.77,9.72 0.86,0 4.31,0 6.04,0 1.72,0 18.11,0 19.84,0 0.86,0 4.31,0 5.17,0 100.92,-7.96 28.47,22.09 86.25,15.9 1.73,-0.88 7.77,-1.76 10.35,-1.76 0.87,0 4.32,-0.89 6.04,-0.89l21.56 -3.53c3.45,-0.89 6.9,-1.77 10.35,-1.77 38.82,2.65 8.63,0 35.37,7.95l-685.7 17.68c-38.81,7.95 -22.42,5.3 -41.4,30.05l1423.14 -2.66c-44.85,-53.9 -156.97,-22.97 -225.11,-31.81 -68.14,0 -135.42,0.88 -203.56,0 -53.47,0 -104.36,14.14 -138.86,3.54 -40.54,-11.49 -28.46,-9.73 -50.89,-28.28 53.48,10.6 54.34,2.65 101.78,12.37 16.39,-20.33 36.22,18.56 -16.39,-20.33 -1.72,-0.88 -6.9,-3.53 -10.35,-6.18l63.83 -17.68 -10.35 -26.51c-18.12,-29.16 -50.03,-52.14 -45.72,-106.93 6.04,-73.35 -9.48,-38.89 31.92,-56.56l-2.59 -7.95c-2.59,-37.12 1.72,-76.89 -1.73,-112.24 -3.45,-26.51 -12.93,-44.19 -12.07,-61.86 0,-1.77 0.86,-5.3 0.86,-7.07 0.86,-2.65 1.73,-6.19 2.59,-7.95l5.17 -17.68c15.53,-80.42 -53.47,-120.19 49.17,-167.02 24.15,-10.61 13.8,-0.89 36.22,-15.03 43.99,-26.51 10.35,-4.42 31.92,-29.16l-97.47 4.42 -69 89.26c-25.87,19.44 -16.39,7.07 -37.95,38.88 -43.99,66.28 -29.32,57.44 -48.3,130.79 -113.85,39.77 -58.65,50.37 -123.34,64.51 -70.72,-91.9 5.18,-115.76 52.61,-252.74 11.22,-32.7 11.22,-49.49 20.7,-81.31 7.77,-26.51 4.32,-11.49 12.94,-33.58 12.94,-33.58 -5.17,17.68 6.9,-17.67l15.53 -46.84c20.7,-30.05 56.92,-26.51 63.82,-68.05 0.87,-5.3 2.59,-7.07 5.18,-10.6 266.51,11.49 171.64,45.95 257.03,106.04 -0.87,1.77 -18.98,36.24 -23.29,43.31l45.71 7.95c37.95,-52.14 30.19,-109.58 25.88,-179.4 -10.35,-7.07 -28.47,-15.02 -38.82,-23.86 -51.75,-44.18 37.95,-30.04 -62.96,-55.67l-159.56 -21.21 75.03 -37.12c7.77,-1.77 25.88,-2.65 33.64,-2.65 130.24,-5.3 88.84,-48.61 121.62,-129.02 6.9,-17.68 36.22,-169.68 -5.18,-77.77 -30.19,101.63 -1.72,161.72 -128.51,179.39 -63.83,8.84 -207.01,34.47 -263.07,32.7 -1.72,4.42 -2.59,8.84 -3.45,12.37l-12.94 114.89c-14.66,59.21 -30.18,42.42 -38.81,74.23z"/>
   <path class="fil31" d="M1054.14 2959.07l-261.34 -3.54c14.66,-55.67 -11.22,-25.63 30.19,-45.07 58.65,-18.56 107.81,-115.77 200.96,-195.3l2.59 -17.68 -55.2 5.31c-34.5,54.79 -3.45,40.65 -47.44,80.42 -32.78,29.16 -43.99,37.11 -78.49,73.34 -15.52,15.91 -51.75,56.56 -72.45,68.05 -16.39,9.72 -39.68,15.91 -58.65,15.91 -63.83,0 -31.91,14.14 -56.93,-22.98l-40.53 16.79 -567.54 -5.3c-18.11,-67.16 -11.21,-266.89 -6.9,-340.24 8.63,-27.39 19.84,-55.67 37.09,-76l-4.31 -21.21 -32.78 34.47c-3.45,-29.16 -5.17,-33.58 -1.72,-63.63 2.59,-19.44 4.31,-16.79 7.76,-32.7l3.45 -19.44c-18.11,12.37 36.23,-7.07 -32.77,9.72l6.03 -1369.78c19.84,-123.73 -14.66,-965.04 25.02,-1003.04 48.3,-33.58 876.31,-17.68 999.65,-7.96 55.2,365.87 -19.84,585.92 274.27,941.18 31.92,38.88 65.55,74.23 93.15,108.7 18.12,22.09 27.6,33.58 31.05,69.81 13.8,123.73 -69,83.08 -311.36,100.75 -62.1,3.53 -80.21,13.26 -119.89,45.07 -55.2,44.19 -136.28,60.98 -216.49,112.23 -33.64,21.21 -57.79,45.07 -95.74,69.82 -63.82,40.65 -124.2,39.77 -170.78,70.7 -55.2,38 -23.28,13.25 -31.05,41.53l-2.58 -12.37 52.61 -12.37 77.63 -7.07c25.87,-30.05 12.93,-19.44 52.61,-30.05 97.46,-64.51 342.41,-241.26 476.1,-246.56 119.89,-3.53 229.43,-7.07 340.7,-22.98 87.97,-12.37 212.17,21.21 301.01,39.77 47.44,14.14 83.66,19.44 123.34,53.03 -141.45,43.3 -54.34,98.97 -25.88,145.81 43.99,22.98 41.41,34.47 73.32,24.75l0 -6.19c-57.79,-43.3 -87.98,-30.05 -105.23,-120.19l79.35 -36.23c27.6,13.25 6.9,-8.84 31.05,18.56 19.84,13.25 23.29,16.79 50.89,27.39l-5.17 -17.67c-10.35,-33.58 29.32,23.86 -12.08,-15.91 -43.99,-42.42 -125.06,-64.51 -156.98,-84.84 18.12,-23.86 20.7,-24.74 46.58,-47.72l-81.08 44.19c-73.31,-16.79 -90.56,-10.61 -93.15,-75.12 -17.25,47.72 6.9,45.95 -60.37,35.35l-9.49 -45.07c-18.11,-46.84 -31.91,-100.75 -50.89,-141.4 -18.97,-39.77 -51.75,-81.3 -59.51,-122.84 -15.53,-7.95 -42.26,-7.95 -34.5,-34.46 10.35,30.04 25.87,42.42 42.26,70.7 47.44,79.53 80.21,167.02 87.11,263.35l-151.8 -11.49c-6.04,-53.02 -6.04,-77.77 -24.15,-125.49 -20.7,-53.91 -24.15,-59.21 -57.79,-94.56 -25.87,-26.51 -43.98,-51.26 -71.58,-81.3 -30.19,-32.7 -39.68,-45.96 -61.24,-69.82 -43.13,-48.6 -109.54,-197.07 -130.24,-269.54 -26.74,-94.56 -37.09,-235.95 -49.16,-337.58l-18.98 -219.17 1424.87 5.3 370.01 4.42c23.29,113.12 19.84,509.03 11.22,637.17 0,41.54 0,75.12 -3.45,115.77 -3.45,52.14 19.83,212.1 12.07,258.94 -6.04,39.77 -3.45,21.21 -23.29,43.3 -23.28,-94.56 -10.35,-90.14 -12.93,-184.7 -17.25,44.19 -31.92,48.61 -37.96,110.47 40.54,36.23 65.56,211.21 67.28,246.56 5.18,67.16 -10.35,65.39 17.25,103.4 -20.7,-189.12 2.59,-500.2 5.18,-701.69 1.72,-106.93 -5.18,-222.7 -1.73,-340.24 8.63,-292.51 33.64,-328.74 -87.11,-323.44l-642.57 1.77c-727.1,-1.77 -1439.53,9.72 -2174.39,-9.73 18.98,454.24 5.18,1003.04 12.08,1488.21l6.03 1111.74c0,67.16 -12.93,324.33 -8.62,355.26l1044.5 2.65z"/>
   <path class="fil32" d="M2464.34 928.25c23.29,27.4 20.7,24.74 34.5,85.72 46.58,208.56 -52.61,56.56 -6.04,231.54 -28.46,21.21 -65.55,34.47 -89.7,62.75 12.08,68.93 0,18.55 27.6,42.41 25.88,31.82 6.04,16.8 5.18,121.96l18.11 290.75c10.35,71.58 -47.44,47.72 -0.86,114 60.37,-20.33 57.79,10.6 56.92,-59.21 -0.86,-51.26 -50.02,-46.84 -6.03,-73.35 31.05,29.16 2.58,53.02 43.12,108.7 -51.75,44.18 -12.94,30.93 -78.49,62.74 -126.79,59.21 -36.22,132.56 -46.57,190.01 -18.11,101.63 -53.48,-16.8 -36.23,85.72 7.77,46.84 0,6.18 36.23,53.91l-34.5 62.74c71.59,8.84 96.6,19.44 116.44,-37.12 50.88,38 25.87,-43.3 37.95,38l16.38 -75.11c60.38,41.53 7.77,-22.98 24.15,41.53l27.61 -84.84c-13.81,-52.14 16.38,-14.14 -24.16,-43.3 -6.03,26.51 -9.48,37.12 -18.11,54.79 21.56,-250.98 63.83,-363.21 44.85,-589.45 -6.9,-84.84 -47.44,-210.33 -18.11,-180.28 -24.15,-23.86 -57.79,-86.6 -7.76,-110.47 28.46,-13.25 54.34,2.66 46.57,11.49 -20.7,-44.18 -13.8,-20.32 -11.21,-69.81 0.86,-7.96 3.45,-29.16 2.59,-44.19l-8.63 -38.88c-18.11,53.91 23.29,46.84 -23.29,65.39 -25.01,-65.39 12.94,-156.42 -3.45,-242.14 -11.21,-42.42 -4.31,-98.98 -5.17,-136.09 -0.86,-69.82 12.07,-48.61 -31.05,-41.54 -7.76,-54.79 5.17,-28.28 -1.73,-60.09 -8.62,-39.77 -34.5,-26.52 -35.36,-144.05l-52.61 9.72c17.25,51.26 22.42,29.16 36.22,85.72 6.9,30.93 8.63,56.56 14.67,83.96 -48.3,45.07 -46.58,39.76 -50.03,126.37z"/>
   <path class="fil33" d="M2708.43 1617.56c1.73,47.72 -4.31,45.96 5.18,81.31 2.58,8.83 12.07,30.04 3.45,87.48 -9.49,56.56 -21.57,112.24 -31.92,170.56l28.47 -35.34c7.76,100.74 31.05,180.28 33.63,273.07 0.87,39.77 5.18,114.88 -4.31,151.12 -16.39,63.63 -186.3,512.56 -168.19,561.17l27.6 3.53c18.98,-2.65 25.88,-21.21 25.88,-21.21l31.91 22.98c-18.11,-60.98 101.78,-364.98 132.83,-454.24 21.56,-62.74 25.01,-102.51 40.54,-159.95 14.66,51.25 -37.96,213.86 -52.62,265.12 25.01,11.48 28.46,-9.73 4.31,93.67l-39.67 192.66c-9.49,79.53 -13.8,53.02 16.39,68.93l-79.35 14.14 17.25 -36.24 -13.8 37.12 87.11 -2.65c17.25,-126.38 92.29,-297.82 100.05,-405.63 3.45,-38.01 19.84,-401.22 -15.52,-456.01l-8.63 53.91 -16.39 -170.56c-34.5,68.04 -4.31,110.46 -18.11,160.84 -11.21,43.3 -7.76,18.55 -18.11,32.69 -3.45,-115.77 -17.25,-254.51 -13.8,-320.79 5.17,-106.93 -31.05,-112.24 16.38,-139.63 45.72,-26.51 18.12,68.93 50.89,-114l43.99 62.74c-31.91,21.21 -23.29,16.79 -27.6,63.63l-10.35 230.66c0,0 -4.31,0.88 -8.62,1.76l14.66 28.28c9.49,-4.42 0.86,-8.83 24.15,4.42 0.86,-2.65 2.59,-41.53 3.45,-45.07 4.31,-22.09 4.31,-16.79 10.35,-28.28l0.86 -515.21c-27.6,-38.01 -12.07,-36.24 -17.25,-103.4 -1.72,-35.35 -26.74,-210.33 -67.28,-246.56 -31.05,106.04 43.99,165.25 10.35,339.35 -11.21,58.33 -51.75,270.42 -97.46,314.61l-20.7 -60.98z"/>
   <path class="fil34" d="M2009.8 1446.12c0.86,14.14 5.17,38 0,50.37 -15.53,38 5.17,14.14 -37.95,28.28l0 6.19c5.17,4.41 16.39,4.41 19.84,6.18l-7.77 14.14c-194.92,-21.21 -316.54,24.75 -483,22.09 -86.25,-0.88 -127.65,-24.74 -229.43,-1.76 -28.46,7.07 -162.15,53.02 -180.26,67.16 -70.73,18.56 -165.61,33.58 -225.12,59.21 -56.93,23.86 -133.69,64.51 -198.38,68.93l23.29 20.33c-61.24,23.86 -28.46,30.05 -87.11,45.07 -43.13,11.49 -50.03,3.53 -96.6,25.63l0 45.07c31.91,-16.79 -29.33,31.81 5.17,-8.84 24.15,-27.4 4.31,-9.72 30.19,-27.4l39.67 -13.25 90.57 -15.03 34.5 -17.67c-4.31,-1.77 -15.53,-5.3 -20.7,-10.6 -35.36,-33.59 -14.66,19.44 4.31,-8.84l35.36 -13.26 75.9 -22.98c23.29,-23.86 101.78,-54.79 149.22,-61.86l136.28 -22.09c56.92,-57.44 269.1,-106.05 376.91,-91.02l253.58 -22.1c53.48,-19.44 178.54,-7.95 214.77,7.07l115.57 9.72 -51.75 16.79c13.8,22.1 -27.6,21.21 37.95,14.14 133.69,-83.07 231.15,72.47 140.59,184.7 -30.19,39.77 4.31,13.26 -50.03,29.17l-183.71 30.93c-87.98,12.37 -157.84,24.74 -250.13,28.28 -130.24,6.18 -371.74,52.14 -490.77,81.3l-53.47 32.7c64.69,-0.88 42.26,-19.44 106.95,-18.56 9.49,-10.6 0,-8.84 30.19,-19.44 12.07,-4.42 29.32,-6.19 41.4,-7.07 27.6,-2.65 53.47,-3.54 80.21,-3.54 40.54,-15.02 294.12,-53.9 356.22,-51.25 94.87,-0.89 23.29,155.53 23.29,155.53 -25.02,38.89 -37.09,35.35 -131.11,61.87l-41.4 31.81c-144.9,76.88 -131.1,98.98 -332.92,132.56l-195.79 16.79 -93.16 7.07c-37.95,27.4 -40.53,19.44 -54.33,53.02 78.48,-33.58 188.02,-33.58 294.11,-44.18 141.45,-13.26 170.78,-34.47 283.77,-71.58 22.42,-39.77 -7.76,-10.61 105.22,-63.63 6.9,189.12 -13.8,118.42 -14.66,165.25l4.31 20.33c39.68,-55.67 68.14,-107.81 49.17,-197.96 42.26,-29.16 96.6,-49.48 135.41,-76 8.63,-31.81 24.15,-15.02 38.81,-74.23l12.94 -114.89c0.86,-3.53 1.73,-7.95 3.45,-12.37 56.06,1.77 199.24,-23.86 263.07,-32.7 126.79,-17.67 98.32,-77.76 128.51,-179.39l-45.71 -90.14c-47.44,-15.03 -110.4,-30.93 -169.05,-36.24 27.6,-45.07 36.22,-68.04 18.97,-135.21l-22.42 -22.09 5.17 17.67 -12.07 29.17c-0.87,-1.77 -3.45,1.76 -6.04,2.65z"/>
   <path class="fil35" d="M2339.28 2905.16l-155.25 -12.37c15.52,-30.05 5.17,-14.14 35.36,-12.37l11.21 1.76c23.29,-2.65 15.53,-12.37 57.79,-16.79l74.17 7.07c1.73,0 5.18,0.89 7.77,0.89 77.62,3.53 145.76,8.83 181.12,-43.31 29.33,-45.07 53.48,-98.09 54.34,-152.88 -4.31,-1.77 -9.49,-3.54 -12.94,-4.42l-75.9 11.49c-104.36,38.88 -101.77,-10.61 -139.72,-21.21l-227.71 5.3 22.43 97.21c31.05,83.07 -0.86,-45.95 9.49,20.33 -22.43,0.88 -87.12,-10.61 -100.92,-26.52 -25.87,-30.93 7.77,-5.3 -10.35,-79.53l-9.48 -21.21c-41.4,17.67 -25.88,-16.79 -31.92,56.56 -4.31,54.79 27.6,77.77 45.72,106.93l10.35 26.51 -63.83 17.68c3.45,2.65 8.63,5.3 10.35,6.18 52.61,38.89 32.78,0 16.39,20.33 -47.44,-9.72 -48.3,-1.77 -101.78,-12.37 22.43,18.55 10.35,16.79 50.89,28.28 34.5,10.6 85.39,-3.54 138.86,-3.54 68.14,0.88 135.42,0 203.56,0z"/>
   <path class="fil36" d="M1688.94 325.54c33.64,27.4 19.84,-53.02 29.33,45.07 -0.86,66.28 -18.11,153.77 21.56,203.26l-6.9 -63.63c33.64,9.73 81.08,24.75 119.89,34.47 -30.19,-54.79 -43.12,-70.7 -26.74,-115.77 7.77,-21.21 31.92,-18.56 9.49,-60.09 -12.94,-23.86 -11.21,-0.89 -41.4,-40.65 49.16,-19.45 -5.17,-48.61 37.09,-109.59 18.97,-27.39 -6.04,7.07 20.7,-19.44 44.85,-42.42 25.01,-45.95 43.99,-73.35 41.4,-6.19 92.29,1.77 147.49,-1.77l15.52 -39.76c-92.29,-4.42 -177.68,22.97 -237.19,-18.56 -110.4,-26.52 -108.67,-10.61 -191.48,-0.89 -16.38,1.77 -34.5,2.65 -61.23,3.54 0.86,38.88 3.45,10.6 6.9,28.28 14.66,64.51 -29.33,51.25 92.28,118.42 2.59,30.04 -4.31,104.28 20.7,110.46z"/>
   <path class="fil37" d="M1464.69 1590.17c28.47,13.25 28.47,10.6 90.57,-2.66 -37.95,68.05 -28.47,7.07 -200.11,23.87 -3.45,29.16 -0.86,43.3 -3.45,67.16 -10.35,97.21 -5.17,47.72 -23.28,31.81 -13.8,10.61 -15.53,-15.9 -9.49,32.7 -9.49,45.07 10.35,26.51 -21.56,82.19l40.53 17.67c20.7,-21.21 22.43,-22.09 73.32,-30.04l179.4 -21.21c-39.68,-15.03 -11.21,0 -24.15,-21.21 -38.81,-59.21 13.8,-42.42 -142.32,-54.79 45.72,27.39 165.61,-20.33 169.06,-22.1 102.63,-24.74 125.92,-0.88 155.25,-35.35 16.39,-14.14 -6.04,-82.18 61.24,42.42 16.38,-58.32 12.07,-56.56 -40.54,-69.81l50.02 -18.56 -25.01 -45.95 -75.9 1.76 -253.58 22.1z"/>
   <path class="fil38" d="M51.9 2410.27c56.06,-29.16 -0.86,9.72 39.68,-41.54 18.11,-22.09 24.15,-23.86 43.12,-49.48 18.98,-38.01 24.15,-30.05 42.27,-60.1 22.42,-32.7 18.97,-24.74 45.71,-43.3 26.74,-83.96 58.65,-150.24 101.77,-224.47 34.5,-45.07 32.78,-66.28 61.24,-101.63 34.5,-44.19 35.37,-37.12 66.42,-85.72 49.16,-76.89 69.86,-143.17 100.91,-229.77l-52.61 12.37 2.58 12.37c-18.11,20.33 0.87,-22.09 -22.42,32.7 -8.63,19.44 -5.18,14.14 -8.63,31.82 -24.15,120.18 -19.83,55.67 -138,239.49 -24.15,38 -38.81,54.79 -57.79,93.67 -100.05,200.61 -52.61,117.54 -175.09,295.17 -26.73,39.77 -25.01,63.63 -58.65,93.68 -6.03,-168.8 17.25,-1285.84 -17.25,-1335.32l-6.03 1369.78c69,-16.79 14.66,2.65 32.77,-9.72z"/>
   <path class="fil39" d="M1934.76 1154.49c23.29,-32.7 10.35,-16.8 56.06,-40.66l-56.06 40.66zm37.95 -83.08l-6.9 38.89c-21.56,14.14 -33.64,21.21 -62.96,29.16 18.97,27.4 -28.47,42.42 31.91,15.03l-37.09 40.65c-36.22,30.04 1.73,11.49 -55.2,36.23l14.66 -61.86c-81.93,30.05 -194.92,-31.82 -126.78,12.37 0,-41.53 -0.87,-92.79 -30.19,-118.42l-45.72 -21.21c5.18,70.7 19.84,57.44 33.64,99.86 8.63,27.4 2.59,58.33 7.76,85.73 -0.86,0 -26.73,-15.03 -39.67,-20.33l9.49 45.07c67.27,10.6 43.12,12.37 60.37,-35.35 2.59,64.51 19.84,58.33 93.15,75.12l81.08 -44.19c50.89,-10.6 50.89,21.21 40.54,-37.12l2.59 -30.04c49.16,-12.37 23.28,-6.19 62.1,-34.47 -11.22,37.12 -0.87,13.26 -22.43,34.47 -1.72,1.77 -11.21,7.95 -12.94,9.72l-8.62 10.6c-20.7,109.59 -65.55,72.47 -2.59,99.87 61.24,-29.17 -53.48,-13.26 54.34,-43.31 -34.5,-64.51 -10.35,-55.67 -2.59,-62.74 2.59,-2.65 13.8,-7.96 16.39,-8.84 21.56,-5.3 25.01,-25.63 31.05,17.67 9.49,56.56 14.66,12.38 -16.39,25.63 31.91,-3.53 28.46,2.65 43.13,-5.3 76.76,-45.95 -0.87,-32.7 25.87,-17.67 -107.81,0 -31.05,1.76 -62.1,-24.75 6.9,-68.93 20.7,-60.09 35.36,-98.09 3.45,-10.61 6.9,-31.82 4.32,-41.54 -13.8,-60.98 -12.94,-30.05 -27.6,-50.37 -55.2,20.32 -87.12,17.67 -87.98,79.53z"/>
   <path class="fil40" d="M1141.25 2939.63c18.98,-24.75 2.59,-22.1 41.4,-30.05 -13.8,-37.12 0,-7.95 12.08,-20.33 47.43,-45.95 -11.22,37.12 12.07,-17.67l30.19 -53.91c1.72,-2.65 3.45,-5.3 5.17,-7.95 50.89,-68.93 41.41,-80.42 69.87,-94.56 2.59,-49.49 9.49,-68.05 -26.74,-93.68 -41.4,-30.04 -3.45,15.03 -34.5,-20.32 -85.39,20.32 -94.88,45.95 -119.03,123.72 -20.7,67.16 -26.73,159.07 -50.88,214.75l60.37 0z"/>
   <path class="fil41" d="M2610.11 2191.1c26.73,-53.02 58.65,-301.35 64.68,-352.61 8.63,-90.14 6.04,-105.16 -17.25,-189.11 -32.77,-118.42 -0.86,-72.47 -19.83,-170.56 -2.59,-2.66 -6.04,-5.31 -7.77,-7.07l-35.36 -38.89c-29.33,-30.05 11.21,95.44 18.11,180.28 18.98,226.24 -23.29,338.47 -44.85,589.45 8.63,-17.67 12.08,-28.28 18.11,-54.79 40.54,29.16 10.35,-8.84 24.16,43.3z"/>
   <path class="fil42" d="M698.78 2756.69c53.48,15.03 41.4,-26.51 140.59,-24.74 -8.62,45.07 0,22.09 -20.7,48.6l-102.64 77.77c0,-103.39 6.04,-17.67 -28.46,-53.91 -7.76,56.56 -0.86,26.52 -14.66,61.87 -17.25,47.72 -10.35,-31.82 -15.53,51.25 25.02,37.12 -6.9,22.98 56.93,22.98 18.97,0 42.26,-6.19 58.65,-15.91 20.7,-11.49 56.93,-52.14 72.45,-68.05 34.5,-36.23 45.71,-44.18 78.49,-73.34 43.99,-39.77 12.94,-25.63 47.44,-80.42 -67.28,36.23 -22.43,15.9 -34.5,-10.61 -27.6,7.95 -52.62,15.02 -81.94,10.61 -15.53,-1.77 -74.18,-55.68 -156.12,53.9z"/>
   <path class="fil43" d="M1460.38 2161.94l-29.33 61.86c-87.11,29.17 -56.06,22.98 -71.58,4.42 -25.88,3.54 -21.57,-5.3 -48.3,17.68l-31.05 38.88c201.82,-33.58 188.02,-55.68 332.92,-132.56 -17.25,-32.7 -31.91,-31.81 -54.33,-37.12l59.51 -44.18c2.59,-1.77 5.17,-4.42 6.9,-6.19 2.59,-1.77 5.17,-4.42 6.9,-6.19l23.29 -17.67c18.11,-29.16 43.98,-48.61 55.2,-92.79l-144.9 15.9c-11.22,18.56 -47.44,98.1 -49.17,102.52 -39.67,115.77 0,91.02 -56.06,95.44z"/>
   <path class="fil44" d="M1406.04 1954.26l44.85 3.54c7.76,58.33 -1.72,53.91 21.56,114.88l-12.07 89.26c56.06,-4.42 16.39,20.33 56.06,-95.44 1.73,-4.42 37.95,-83.96 49.17,-102.52l144.9 -15.9c46.57,18.56 -1.73,96.32 -14.67,120.19 14.67,-1.77 41.41,-6.19 45.72,-7.96 45.71,-23.86 8.62,13.26 31.91,-47.72 37.95,-99.86 8.63,-91.91 -11.21,-109.58 -62.1,-2.65 -315.68,36.23 -356.22,51.25z"/>
   <path class="fil45" d="M1023.95 2715.16c-93.15,79.53 -142.31,176.74 -200.96,195.3l210.45 22.98 75.04 -242.14 -84.53 23.86z"/>
   <path class="fil46" d="M2637.71 1478.82c18.97,98.09 -12.94,52.14 19.83,170.56 23.29,83.95 25.88,98.97 17.25,189.11 -6.03,51.26 -37.95,299.59 -64.68,352.61l-27.61 84.84 -1.72 40.65 16.39 6.19c-2.59,-81.3 34.5,-128.14 54.34,-169.68 20.7,-43.3 25.87,-138.74 33.63,-196.19 10.35,-58.32 22.43,-114 31.92,-170.56 8.62,-57.44 -0.87,-78.65 -3.45,-87.48 -9.49,-35.35 -3.45,-33.59 -5.18,-81.31l-33.64 -192.65c-29.32,26.51 -7.76,-22.1 -12.93,31.81 0,0.89 4.31,30.93 5.17,31.82 -20.7,-33.59 0.86,0.88 -29.32,-9.72z"/>
   <path class="fil47" d="M897.16 2305.11c-14.66,27.39 2.59,7.95 -17.25,27.39 -23.29,24.75 11.21,-2.65 -31.91,15.91l49.16 -43.3zm-151.8 24.74c36.22,9.72 15.52,-9.72 36.22,15.02 15.53,-17.67 8.63,-13.25 37.96,-22.97 -69.87,57.44 -48.31,21.21 -55.21,70.7l89.71 -45.08c-27.6,41.54 14.66,10.61 -42.27,46.84 -32.77,21.21 -93.15,21.21 -128.51,27.4l-21.56 69.81 30.18 34.47c22.43,-49.49 25.02,-50.37 85.39,-81.3 40.54,-81.31 125.07,-12.38 125.07,-12.38 19.83,-42.42 26.73,-24.74 34.5,-70.7 13.8,-33.58 16.38,-25.62 54.33,-53.02l-38.81 -22.09c-19.84,-20.33 -6.9,6.18 -20.7,-53.03 -4.31,3.54 -8.62,6.19 -12.94,9.72 -4.31,2.66 -7.76,5.31 -12.93,8.84 -3.45,3.54 -6.9,5.3 -10.35,8.84 -81.94,63.63 -53.48,3.53 -150.08,68.93z"/>
   <path class="fil48" d="M2832.63 1952.5c-14.66,-87.49 6.04,-167.03 33.64,-254.52 4.31,-46.84 -4.31,-42.42 27.6,-63.63l-43.99 -62.74c-32.77,182.93 -5.17,87.49 -50.89,114 -47.43,27.39 -11.21,32.7 -16.38,139.63 -3.45,66.28 10.35,205.02 13.8,320.79 10.35,-14.14 6.9,10.61 18.11,-32.69 13.8,-50.38 -16.39,-92.8 18.11,-160.84z"/>
   <path class="fil49" d="M2862.82 743.55c-8.62,22.09 -4.31,6.19 -14.66,19.44 -56.93,75.12 23.29,-41.53 -16.39,20.33 -6.04,10.6 -10.35,24.74 -19.84,41.53 -10.35,50.38 -28.46,100.75 -10.35,167.03 15.53,53.91 5.18,16.79 14.66,32.7 6.04,-61.86 20.71,-66.28 37.96,-110.47 2.58,94.56 -10.35,90.14 12.93,184.7 19.84,-22.09 17.25,-3.53 23.29,-43.3 7.76,-46.84 -15.52,-206.8 -12.07,-258.94 3.45,-40.65 3.45,-74.23 3.45,-115.77l-18.98 62.75z"/>
   <path class="fil50" d="M462.46 2909.58l107.81 11.49c-7.76,-41.54 12.07,-22.1 -7.76,-44.19 -22.43,-25.63 -14.67,-5.3 -48.3,-22.09 13.8,-34.47 -6.9,-13.26 28.46,-24.75l-0.86 -9.72 -13.8 -51.25c15.52,-37.12 8.62,-30.05 84.52,-33.59 26.74,-42.42 15.53,7.07 19.84,-65.39l-100.05 8.83 15.52 -32.69c-54.33,37.11 -2.58,19.44 -41.4,61.86 -18.11,19.44 -29.32,12.37 -50.88,33.58 6.9,37.12 5.17,23.86 36.22,49.49 -33.64,74.23 -4.31,25.63 -25.01,102.51l-4.31 15.91z"/>
   <path class="fil51" d="M1775.2 1369.23c-8.63,31.82 -18.12,79.54 -7.77,98.98 37.09,69.82 15.53,0.88 26.74,68.05l104.36 -30.05c-28.46,-46.84 -115.57,-102.51 25.88,-145.81 -39.68,-33.59 -75.9,-38.89 -123.34,-53.03 -7.76,16.79 -16.39,41.54 -25.87,61.86z"/>
   <path class="fil52" d="M2034.81 1615.79c-21.56,27.4 29.33,20.33 -21.56,26.52l-17.25 0 -1.73 64.51 23.29 11.49c0.86,-1.77 3.45,-4.42 3.45,-3.54l-4.31 -17.67c-0.86,-2.65 -4.31,-8.84 -6.9,-13.26 78.49,7.07 46.57,-18.56 100.91,28.28l50.03 -10.6c5.17,-41.54 -12.08,-32.7 18.97,-76 0,58.32 18.12,73.35 8.63,113.11 -12.08,45.07 -11.21,22.1 -21.56,30.93l-2.59 8.84c-6.9,45.07 -6.04,16.79 11.21,22.09 90.56,-112.23 -6.9,-267.77 -140.59,-184.7z"/>
   <path class="fil53" d="M1514.72 2245.9l-0.86 20.32c13.8,60.1 13.8,57.44 -11.22,111.35l-13.8 36.23c51.75,-14.13 6.04,-5.3 25.02,12.38 17.25,-14.14 21.56,-20.33 41.4,-38.89 0,0 18.97,-17.67 19.83,-19.44l30.19 -20.33c0.86,-46.83 21.56,23.87 14.66,-165.25 -112.98,53.02 -82.8,23.86 -105.22,63.63z"/>
   <path class="fil54" d="M1254.24 1984.31l100.05 30.05 7.76 150.23c5.18,15.91 9.49,-41.53 7.77,17.68l52.61 -30.05c0,0 14.66,-12.37 19.84,-18.56 2.58,-2.65 12.93,-13.25 15.52,-16.79 3.45,-3.53 6.04,-7.95 8.63,-10.6 3.45,-3.54 6.9,-7.96 9.48,-12.38 -41.4,11.49 25.02,25.63 -48.3,4.42 -50.88,-14.14 -38.81,-40.65 -38.81,-143.16 56.93,45.95 6.04,-12.37 31.05,38 11.21,22.98 2.59,13.25 8.63,33.58 12.93,40.65 -4.32,20.33 43.98,45.95 -23.28,-60.97 -13.8,-56.55 -21.56,-114.88l-44.85 -3.54c-26.74,0 -52.61,0.89 -80.21,3.54 -12.08,0.88 -29.33,2.65 -41.4,7.07 -30.19,10.6 -20.7,8.84 -30.19,19.44z"/>
   <path class="fil55" d="M2007.21 938.85c1.73,-1.76 6.04,-7.95 6.9,-5.3 0.86,2.65 6.04,-4.42 6.9,-4.42 13.8,-5.3 6.9,-4.41 23.29,-6.18 88.84,-15.91 43.12,-30.05 104.36,-45.96 -3.45,-4.42 -7.76,-8.83 -12.07,-12.37 -4.32,-4.42 -7.77,-7.95 -12.08,-11.49l-26.74 -19.44c-0.86,-1.77 -3.45,-4.42 -4.31,-5.3 -0.86,-1.77 -1.72,-6.19 -2.59,-7.07 -2.58,-5.3 -4.31,-9.72 -1.72,-18.56 10.35,-24.74 -26.74,-7.07 15.52,-25.63l17.25 -7.95c30.19,-4.42 26.74,22.98 26.74,-6.19 58.65,0 -1.72,8.84 25.88,-29.16l-62.97 -10.61c-25.01,68.05 -6.03,-16.79 -43.12,33.59 -50.03,67.16 -4.31,29.16 -72.45,62.74l14.66 43.3c0.86,1.77 0,4.42 0,6.19l-3.45 69.81z"/>
   <path class="fil56" d="M507.31 1903.01c-16.39,15.9 -8.63,0 -22.43,25.63 -4.31,7.95 -7.76,20.32 -10.35,30.04 -10.35,41.54 -4.31,38.89 -18.11,70.7l15.52 22.98 -27.6 0.88 -26.73 22.98c-25.88,25.63 -9.49,8.84 -27.6,33.58 -20.7,29.16 -30.19,41.54 -50.03,82.19 28.46,-20.33 28.46,-17.68 41.4,-56.56 17.25,23.86 18.11,28.28 38.81,28.28l10.35 -20.33c40.54,-24.74 69.87,-63.63 78.49,-112.23l0.86 -96.33c2.59,75.12 -1.72,50.37 16.39,73.35 25.01,-43.3 8.63,-83.95 16.39,-141.4 -25.88,17.68 -6.04,0 -30.19,27.4 -34.5,40.65 26.74,-7.95 -5.17,8.84z"/>
   <path class="fil57" d="M1545.77 943.27c7.76,41.54 40.54,83.07 59.51,122.84 18.98,40.65 32.78,94.56 50.89,141.4 12.94,5.3 38.81,20.33 39.67,20.33 -5.17,-27.4 0.87,-58.33 -7.76,-85.73 -13.8,-42.42 -28.46,-29.16 -33.64,-99.86 -1.72,-1.77 -4.31,-5.3 -5.17,-4.42 -0.86,1.77 -4.31,-3.53 -5.18,-5.3 -6.03,-10.6 -10.35,-21.21 -14.66,-31.81 -1.72,-4.42 -9.49,-30.93 -12.07,-36.24 -19.84,-38 2.58,-5.3 -23.29,-27.39 -23.29,-19.44 -28.46,-15.03 -49.16,-42.42l0.86 48.6z"/>
   <path class="fil58" d="M542.67 1866.77c-7.76,57.45 8.62,98.1 -16.39,141.4 -18.11,-22.98 -13.8,1.77 -16.39,-73.35l-0.86 96.33c-8.62,48.6 -37.95,87.49 -78.49,112.23 17.25,29.17 -26.73,34.47 41.4,17.68 26.74,-7.07 18.12,-14.14 31.05,-39.77 12.94,-23.86 28.47,-47.72 34.5,-74.23l1.73 -40.66c44.85,-4.41 26.74,2.66 43.99,-18.55l36.22 -78.66c12.94,-22.97 2.59,6.19 17.25,-28.28 -20.7,-12.37 -20.7,-7.95 -32.77,-15.02 -36.23,-18.56 6.04,12.37 -21.57,-12.37l-39.67 13.25z"/>
   <path class="fil59" d="M2699.81 2896.32l-17.25 36.24 79.35 -14.14c-30.19,-15.91 -25.88,10.6 -16.39,-68.93l39.67 -192.66c24.15,-103.4 20.7,-82.19 -4.31,-93.67 -29.32,76.88 -83.66,259.81 -81.07,333.16z"/>
   <path class="fil60" d="M1710.51 1948.08c-11.22,44.18 -37.09,63.63 -55.2,92.79 11.21,42.42 -7.77,34.47 -0.87,79.54 94.02,-26.52 106.09,-22.98 131.11,-61.87 0,0 71.58,-156.42 -23.29,-155.53 19.84,17.67 49.16,9.72 11.21,109.58 -23.29,60.98 13.8,23.86 -31.91,47.72 -4.31,1.77 -31.05,6.19 -45.72,7.96 12.94,-23.87 61.24,-101.63 14.67,-120.19z"/>
   <path class="fil61" d="M954.09 2026.73l-138.87 18.56c-54.34,-0.89 -10.35,-3.54 -28.46,14.14l98.33 4.42 -4.32 22.97 -38.81 22.1c93.15,-30.05 117.3,-53.03 234.6,-74.24 103.5,-18.55 58.65,-17.67 70.73,-31.81l-193.2 23.86z"/>
   <path class="fil62" d="M2833.5 2936.09c42.26,-7.07 40.53,31.82 45.71,-106.93 1.72,-53.91 -1.73,-103.4 -2.59,-156.42 -8.62,12.37 -9.49,6.18 -17.25,30.05 -9.49,35.34 -37.95,205.02 -25.87,233.3z"/>
   <path class="fil63" d="M2832.63 1952.5l16.39 170.56 8.63 -53.91 4.31 -110.47 -14.66 -28.28c4.31,-0.88 8.62,-1.76 8.62,-1.76l10.35 -230.66c-27.6,87.49 -48.3,167.03 -33.64,254.52z"/>
   <path class="fil64" d="M2017.56 1718.31c13.8,15.9 -16.39,6.18 26.74,22.97 23.29,9.73 36.22,7.07 61.24,8.84l56.06 9.72 -0.86 -58.32 -50.03 10.6c-54.34,-46.84 -22.42,-21.21 -100.91,-28.28 2.59,4.42 6.04,10.61 6.9,13.26l4.31 17.67c0,-0.88 -2.59,1.77 -3.45,3.54z"/>
   <path class="fil65" d="M1988.24 1642.31l7.76 0 17.25 0c50.89,-6.19 0,0.88 21.56,-26.52 -65.55,7.07 -24.15,7.96 -37.95,-14.14l51.75 -16.79 -115.57 -9.72c-9.49,-0.88 -44.86,-7.07 -50.89,-7.07 -106.09,7.07 -30.19,-3.53 -54.34,26.51l130.24 4.42 3.45 41.54 26.74 1.77z"/>
   <path class="fil66" d="M1613.04 2152.22l41.4 -31.81c-6.9,-45.07 12.08,-37.12 0.87,-79.54l-23.29 17.67c-1.73,1.77 -4.31,4.42 -6.9,6.19 -1.73,1.77 -4.31,4.42 -6.9,6.19l-59.51 44.18c22.42,5.31 37.08,4.42 54.33,37.12z"/>
   <path class="fil67" d="M2086.56 1773.98l77.63 4.42 2.59 -8.84 -61.24 -19.44c-25.02,-1.77 -37.95,0.89 -61.24,-8.84 -43.13,-16.79 -12.94,-7.07 -26.74,-22.97l-23.29 -11.49 1.73 -64.51 -7.76 0c-12.08,15.02 -7.77,9.72 -16.39,33.58 16.39,58.32 56.92,81.3 114.71,98.09z"/>
   <path class="fil68" d="M1037.75 1378.07c-10.35,91.91 5.18,68.05 6.04,69.81 33.64,5.31 1.72,43.31 35.36,-102.51l-38.81 7.96 -2.59 24.74z"/>
   <path class="fil69" d="M2629.94 522.62c-28.46,-13.26 -34.5,-38 -67.27,-60.1 -21.57,-15.02 -20.7,-12.37 -44.85,-30.04 -23.29,-17.68 -17.25,-15.03 -42.27,-30.05 36.23,85.72 29.33,24.74 89.7,71.58 9.49,7.95 26.74,26.51 40.54,39.77 1.73,1.77 4.32,5.3 6.04,7.07 3.45,3.53 6.9,8.84 10.35,9.72 20.7,9.72 -12.07,50.37 7.76,-7.95z"/>
   <path class="fil70" d="M1359.47 2228.22c15.52,18.56 -15.53,24.75 71.58,-4.42l29.33 -61.86c-13.8,8.84 9.49,-15.02 -18.11,13.26 -8.63,8.83 -15.53,20.32 -22.43,27.39 -23.29,24.75 -24.15,26.51 -60.37,25.63z"/>
   <path class="fil71" d="M2476.42 374.15c51.75,0 42.26,12.37 81.07,34.47 -22.42,-34.47 -44.85,-55.68 -93.15,-65.4 20.7,12.37 5.18,15.02 12.08,30.93z"/>
   <path class="fil72" d="M1940.8 1211.04l20.7 -9.72 8.62 -10.6c1.73,-1.77 11.22,-7.95 12.94,-9.72 21.56,-21.21 11.21,2.65 22.43,-34.47 -38.82,28.28 -12.94,22.1 -62.1,34.47l-2.59 30.04z"/>
   <path class="fil73" d="M176.97 2259.15c43.12,-2.65 31.91,-7.95 45.71,-43.3 -26.74,18.56 -23.29,10.6 -45.71,43.3z"/>
   <path class="fil74" d="M2089.15 802.76c33.64,-22.09 10.35,0.88 32.77,-33.58l-17.25 7.95c-42.26,18.56 -5.17,0.89 -15.52,25.63z"/>
   <path class="fil75" d="M848 2348.41c43.12,-18.56 8.62,8.84 31.91,-15.91 19.84,-19.44 2.59,0 17.25,-27.39l-49.16 43.3z"/>
   <path class="fil76" d="M1289.6 1856.17l-50.02 -47.72c20.7,36.23 13.8,31.81 50.02,47.72z"/>
  </g>
 </g>
</svg>
