<?xml version="1.0" encoding="UTF-8"?>
<!DOCTYPE svg PUBLIC "-//W3C//DTD SVG 1.1//EN" "http://www.w3.org/Graphics/SVG/1.1/DTD/svg11.dtd">
<!-- Creator: CorelDRAW 2017 -->
<svg xmlns="http://www.w3.org/2000/svg" xml:space="preserve" width="30.3952mm" height="30.9878mm" version="1.1" style="shape-rendering:geometricPrecision; text-rendering:geometricPrecision; image-rendering:optimizeQuality; fill-rule:evenodd; clip-rule:evenodd"
viewBox="0 0 3039.52 3098.78"
 xmlns:xlink="http://www.w3.org/1999/xlink">
 <defs>
  <style type="text/css">
   <![CDATA[
    .fil39 {fill:#393736}
    .fil42 {fill:#444343}
    .fil52 {fill:#4B4B4B}
    .fil75 {fill:#535353}
    .fil4 {fill:#55453C}
    .fil9 {fill:#564A48}
    .fil80 {fill:#585756}
    .fil6 {fill:#664B48}
    .fil2 {fill:#6C473B}
    .fil0 {fill:#6D534B}
    .fil87 {fill:#766968}
    .fil82 {fill:#797776}
    .fil86 {fill:#876A66}
    .fil84 {fill:#877877}
    .fil81 {fill:#8C655B}
    .fil1 {fill:#8F726B}
    .fil3 {fill:#967976}
    .fil83 {fill:#989797}
    .fil79 {fill:#A78987}
    .fil74 {fill:#A7948B}
    .fil14 {fill:#C79899}
    .fil19 {fill:#C9A8A7}
    .fil61 {fill:#C9ABB3}
    .fil5 {fill:#CAD3D9}
    .fil53 {fill:#CF988F}
    .fil77 {fill:#D2DBE4}
    .fil64 {fill:#D6AAA7}
    .fil85 {fill:#D7D7D7}
    .fil72 {fill:#E4AB9C}
    .fil21 {fill:#E4ADA2}
    .fil13 {fill:#E4B3A4}
    .fil16 {fill:#E4B4AB}
    .fil68 {fill:#E4BBAC}
    .fil51 {fill:#E4BBB3}
    .fil60 {fill:#E5D3CC}
    .fil7 {fill:#EBADA3}
    .fil54 {fill:#EBB2A5}
    .fil10 {fill:#ECBBAC}
    .fil65 {fill:#ECC5C2}
    .fil8 {fill:#ECCDCB}
    .fil71 {fill:#ECE1DB}
    .fil12 {fill:#ECEAE3}
    .fil69 {fill:#ECECF2}
    .fil47 {fill:#EDB4AB}
    .fil66 {fill:#EDBCB3}
    .fil55 {fill:#EDBDBA}
    .fil67 {fill:#EDC3B4}
    .fil43 {fill:#EDC3BC}
    .fil31 {fill:#EDCABC}
    .fil24 {fill:#EDCBC4}
    .fil33 {fill:#EDD2CC}
    .fil78 {fill:#EDD3D3}
    .fil30 {fill:#EDDCDB}
    .fil18 {fill:#EDE3E3}
    .fil27 {fill:#EEB9B1}
    .fil20 {fill:#F0B5AC}
    .fil45 {fill:#F0C9B5}
    .fil38 {fill:#F0CEC9}
    .fil56 {fill:#F1CAC2}
    .fil28 {fill:#F1CAC5}
    .fil36 {fill:#F1D1CE}
    .fil35 {fill:#F2BCB5}
    .fil34 {fill:#F2C1B5}
    .fil23 {fill:#F2C1BA}
    .fil32 {fill:#F2C2BD}
    .fil15 {fill:#F2C5BE}
    .fil11 {fill:#F2C6C1}
    .fil49 {fill:#F2D1CA}
    .fil29 {fill:#F2D9D4}
    .fil25 {fill:#F2E4E3}
    .fil59 {fill:#F2F2F2}
    .fil62 {fill:#F3D9CD}
    .fil17 {fill:#F3DCDB}
    .fil22 {fill:#F3E2DC}
    .fil48 {fill:#F3EAE5}
    .fil46 {fill:#F3ECEB}
    .fil26 {fill:#F3F4F4}
    .fil58 {fill:#F4C5C3}
    .fil37 {fill:#F4CDC3}
    .fil63 {fill:#F4D4CB}
    .fil70 {fill:#F4D5DA}
    .fil44 {fill:#F5C9C2}
    .fil57 {fill:#F5CAC5}
    .fil76 {fill:#F5D9D6}
    .fil73 {fill:#F6F5F6}
    .fil50 {fill:#F9F9F9}
    .fil40 {fill:#FBFBFB}
    .fil41 {fill:#FDFDFD}
   ]]>
  </style>
 </defs>
 <g id="Capa_x0020_1">
  <metadata id="CorelCorpID_0Corel-Layer"/>
  <g id="_1367957718496">
   <g>
    <path class="fil0" d="M1105.2 1586.95c31.65,35.2 9.95,5.56 15.37,30.57 25.32,0.93 25.32,6.49 47.02,-2.78 45.2,-18.53 1.81,1.85 29.83,-29.64l-67.81 8.34c-64.19,-50.03 -27.12,-70.41 -56.96,-109.32 -13.56,42.62 11.76,75.97 32.55,102.83z"/>
    <path class="fil0" d="M2139.53 1004.26l76.85 -40.76c19.89,-27.79 -30.74,-13.9 38.87,-25.01 -15.37,-13.9 0.91,-7.41 -26.22,-10.19 -64.19,46.32 -69.61,41.68 -89.5,75.96z"/>
    <path class="fil0" d="M1970.45 1851.89c-15.37,-64.84 -9.94,-50.95 -42.49,-72.25 14.47,62.99 9.95,55.58 42.49,72.25z"/>
   </g>
   <g>
    <path class="fil1" d="M1318.58 1907.48c-27.13,-24.09 -7.24,3.7 -30.74,-32.43 -32.55,-51.87 0,-30.57 -33.46,-46.32 -2.71,45.4 15.37,68.56 41.59,88.94 34.36,26.86 55.16,14.82 104.88,29.64 -8.13,-34.28 21.7,-10.19 -17.18,-26.86 0,0 -60.57,-11.12 -65.09,-12.97z"/>
    <path class="fil1" d="M1444.25 2132.59c34.36,-22.24 8.14,6.48 19.89,-29.65 0,-0.92 3.62,-30.57 4.52,-34.27l-27.12 4.63 2.71 59.29z"/>
   </g>
   <g>
    <path class="fil2" d="M1631.41 1027.42c-10.85,-39.83 15.37,-5.56 -21.7,-44.47 -33.46,-25.93 -24.41,-21.3 -49.73,-67.62 -6.33,-23.16 -6.33,-28.72 -18.99,-51.88 -14.46,-27.79 -16.27,-25.01 -27.12,-55.58 -18.08,-31.5 -5.43,-2.78 -15.37,-32.42 -2.71,40.76 24.41,101.9 42.49,147.29 18.99,48.17 57.87,85.23 90.42,104.68z"/>
    <path class="fil2" d="M1946.04 1460.96l-5.42 46.32 53.34 78.74 77.76 -1.85c-198.01,-76.89 -87.7,-101.9 -69.62,-144.51l-45.21 10.19c0,12.97 28.93,16.67 -10.85,11.11z"/>
   </g>
   <g>
    <path class="fil3" d="M909.91 2360.47l-6.33 87.08 43.4 -12.97c2.71,-37.05 -44.3,26.87 9.04,-59.28 38.88,-19.46 17.18,-0.93 42.5,-39.84 -31.65,-25.94 -23.51,-11.11 -71.43,-14.82 -4.52,8.34 -13.56,31.5 -17.18,39.83z"/>
    <path class="fil3" d="M1571.73 2520.74l57.87 -0.93 9.04 -32.42c-37.07,-24.09 -24.41,40.76 -34.36,-24.09l-32.55 57.44z"/>
   </g>
   <g>
    <path class="fil4" d="M749.88 2506.84l-27.12 15.75 26.22 34.28c36.16,-22.24 48.82,-31.5 81.37,-50.03 43.4,-25.01 55.15,-23.16 73.23,-59.29l6.33 -87.08c-26.22,64.85 3.62,49.1 -54.25,92.64 -44.3,33.35 -50.63,37.06 -105.78,53.73z"/>
    <path class="fil4" d="M2096.13 1825.03c31.64,17.6 37.07,22.23 78.66,35.2 45.2,-1.85 52.44,9.27 75.04,-31.5 -89.51,25.02 -146.47,-5.55 -169.07,-81.52 13.56,-25.01 19.89,-30.57 33.45,-47.24 -37.07,13.89 -23.51,9.26 -49.73,35.2 1.81,46.32 17.18,60.21 31.65,89.86z"/>
    <path class="fil4" d="M1060.9 2474.42l-26.22 -7.41c-14.46,13.89 -6.33,4.63 -11.75,22.23l37.97 -14.82z"/>
    <path class="fil4" d="M2137.72 1126.54l25.31 -14.82c-63.29,6.48 -9.04,-3.71 -25.31,14.82z"/>
   </g>
   <g>
    <path class="fil5" d="M2030.13 2062.18c-18.09,-11.12 -0.91,-9.26 -12.66,-28.72 141.95,12.05 105.78,22.24 98.55,-14.82 0,0 -0.91,-4.63 0,-6.48l138.33 -75.04c-56.06,4.63 -16.27,5.56 -30.74,-15.75 7.23,-6.48 8.14,8.34 -4.52,-22.23 -19.89,-1.85 -16.28,-4.63 -6.33,12.97 -4.52,10.19 29.84,28.72 -96.74,45.39 -39.78,5.56 -84.99,7.41 -126.58,14.82l-13.56 84.3 54.25 5.56z"/>
    <path class="fil5" d="M2237.17 1636.97c-19.89,-40.76 -28.03,-104.68 -45.2,-146.36 -10.85,-5.56 3.61,-4.63 -30.74,-11.12 -0.91,0 -37.98,-0.93 -39.79,-0.93l27.13 28.72c-13.56,128.77 -60.58,116.73 88.6,129.69z"/>
    <path class="fil5" d="M2323.06 1712.94l13.57 129.69c7.23,-6.48 30.74,1.85 45.2,-87.08 9.95,-63.92 7.24,-62.07 -43.4,-75.96l-15.37 33.35z"/>
    <path class="fil5" d="M2285.99 2017.72c80.47,-7.42 114.83,-20.39 130.2,-95.42 -16.28,12.97 -4.52,-4.63 -28.93,27.79 -11.76,14.82 -3.62,12.97 -3.62,13.9 -42.49,-5.56 -96.74,0 -97.65,53.73z"/>
    <path class="fil5" d="M2049.11 1410.01c36.17,25.94 51.54,44.47 71.43,65.78l15.37 -41.69c-47.92,-35.2 -16.27,-45.39 -113.92,-63l27.12 38.91z"/>
   </g>
   <g>
    <path class="fil6" d="M2021.09 1156.19c-35.27,59.28 -15.37,19.45 1.8,59.28l-76.85 88.94c49.73,9.26 0.91,-6.49 17.18,37.98l37.97 -41.69c95.84,-174.16 15.37,-23.16 98.55,-121.35l37.98 -52.81c-30.74,15.75 -38.88,24.09 -70.52,38.91 27.12,-35.2 43.39,-50.95 73.23,-85.23 19.89,-23.16 63.29,-50.95 84.99,-77.81 -66,7.41 -142.85,91.71 -204.33,153.78z"/>
    <path class="fil6" d="M937.94 2784.75c-15.37,6.49 -33.45,12.05 -42.49,15.75 0,-0.92 -0.91,-3.7 -0.91,-4.63 -9.94,-33.35 -6.33,-25.01 -68.71,-22.23 -23.51,25.94 7.23,-17.6 -12.66,19.45 -30.74,56.51 -1.81,12.04 -47.92,55.58 -18.08,17.61 -9.94,6.49 -16.27,25.02 54.24,-7.41 29.83,-19.46 66,-37.06 2.71,-0.93 60.57,-0.93 87.7,-5.56l79.56 -36.13c41.59,-37.05 51.54,-23.16 76.85,-58.36 -41.59,10.19 -7.23,-1.85 -45.2,14.82 -0.91,0.93 -20.8,11.12 -26.22,13.9 -18.99,9.26 -30.74,13.9 -49.73,19.45z"/>
   </g>
   <g>
    <path class="fil7" d="M2152.18 2988.56l21.7 9.26c89.51,6.49 24.41,7.41 49.73,-21.31 0,0 12.66,10.19 16.27,11.12 38.88,10.19 22.61,8.34 68.72,5.56 2.71,-27.79 0,-58.36 1.81,-76.89 4.52,-29.64 2.71,-5.56 7.23,-26.87l3.62 -36.12 -53.35 -2.78c-16.27,2.78 -43.4,12.97 -68.71,17.6 -47.02,84.3 -46.11,71.33 -47.02,120.43z"/>
    <path class="fil7" d="M2578.93 2855.16c59.67,-0.93 42.5,5.56 90.42,21.31l-6.33 -103.76c-74.14,-10.19 5.42,-26.86 -66.01,-28.72l-40.68 -0.92c-7.23,50.02 -58.77,88 22.6,112.09z"/>
   </g>
   <g>
    <path class="fil8" d="M1609.71 982.95c37.07,38.91 10.85,4.64 21.7,44.47 96.74,60.21 89.5,234.37 97.64,273.28l81.37 13.9c25.32,-40.76 -20.79,32.42 -28.02,-124.14 -2.72,-53.73 -1.81,-46.32 -30.75,-86.15 -10.84,-13.9 -10.84,-13.9 -20.79,-27.79l-43.4 -71.33c-28.93,-56.51 -2.71,-35.21 -55.15,-53.73l-22.6 31.49z"/>
    <path class="fil8" d="M756.21 1567.5c-20.8,53.73 -20.8,37.98 38.88,37.98 10.85,0 54.24,-20.38 60.57,-25.01 1.81,-1.86 3.62,-4.64 5.43,-6.49l17.18 -20.38c1.81,-2.78 4.52,-5.56 6.33,-7.41 19.89,-25.94 32.54,-25.94 7.23,-38.91 9.94,-13.89 9.04,-11.11 14.46,-39.83 -53.34,22.23 -34.35,23.16 -77.75,48.17 -42.49,25.94 -35.26,20.38 -72.33,51.88z"/>
   </g>
   <g>
    <path class="fil9" d="M2721.78 1368.33l-9.94 12.97c21.7,14.82 7.23,0.92 23.51,20.38l35.26 78.74c13.56,37.98 17.18,76.89 23.5,114.87 -14.46,-23.16 -30.74,-50.95 -41.58,-74.11l-39.79 -65.77c45.21,87.07 75.05,197.31 77.76,305.7l-5.43 246.41c-5.42,31.5 -19.89,34.28 -20.79,29.65 -0.91,-0.93 -4.52,0.93 -5.43,1.85 9.95,222.33 -24.41,148.22 -38.87,289.03 28.93,-61.14 0,-10.19 28.93,-35.2 -0.91,-50.95 2.71,-66.7 37.07,-87.08 -0.91,-68.55 28.03,-180.64 41.59,-286.25 13.56,-105.61 -19.89,-239.01 -16.28,-263.09 3.62,-35.2 -9.94,-12.97 15.37,-32.42l-33.45 -188.99c-21.7,-39.83 -9.94,-44.46 -21.7,-72.25 -13.56,-30.57 9.04,-22.24 -39.78,-28.72 28.93,15.75 30.74,-3.71 37.97,92.64l-36.16 -39.84c-6.33,-9.26 -9.95,-14.82 -11.76,-18.52z"/>
    <path class="fil9" d="M2768.8 1075.59c12.66,27.79 -2.71,36.13 -17.18,55.58l19.89 58.37c-63.29,37.05 55.15,0 -27.12,0 -0.91,0 -4.52,0 -7.24,0.92l18.09 67.63c11.75,-15.75 6.33,-1.86 21.7,-34.28 14.46,-29.64 5.42,-15.75 17.17,-45.39 53.35,-145.44 30.75,-221.4 41.59,-370.55 -26.21,-21.31 -3.61,5.56 -20.79,-19.46 -54.25,-79.66 30.74,-19.45 -61.48,-114.87 -20.8,-21.3 -24.41,-24.08 -41.59,-48.17 -12.66,-11.11 -6.33,-6.48 -23.51,-12.04 42.5,21.31 122.06,166.75 122.06,250.12 -47.02,-46.32 -9.95,-52.8 -64.19,-75.04 33.45,33.35 47.91,93.57 60.57,148.22 -27.12,21.31 7.24,2.78 -30.74,9.27 14.47,52.8 41.59,70.4 -7.23,129.69z"/>
    <path class="fil9" d="M2616.91 469.74c44.3,-19.45 21.69,10.19 10.85,-14.82 -6.33,-12.97 0.9,1.85 -19.9,-17.6 -36.16,-10.19 -4.52,-3.71 -18.08,10.19 37.98,20.38 16.28,5.56 27.13,22.23z"/>
   </g>
   <g>
    <path class="fil10" d="M690.21 2171.49c-7.23,66.7 2.71,88.94 -0.91,146.37 -26.22,34.28 -39.78,1.85 -47.01,100.98 29.84,-10.19 23.51,-9.27 47.92,-14.83 5.42,-0.92 33.45,-5.55 53.34,-10.19l12.66 -49.09 95.84 -165.83c-29.84,0.93 -23.51,9.27 -23.51,-19.45 -13.56,-17.6 -31.64,18.53 6.33,-71.33 -120.25,-4.63 -85.89,34.28 -92.22,71.33l-52.44 12.04z"/>
    <path class="fil10" d="M903.58 2447.55c-18.08,36.13 -29.83,34.28 -73.23,59.29 -32.55,18.53 -45.21,27.79 -81.37,50.03l-6.33 12.96c-9.95,30.58 -5.43,22.24 -24.41,43.54 34.35,-1.85 56.05,-10.19 84.98,-20.38 33.46,-12.04 26.22,-18.52 64.2,-11.11l39.78 -38.91c74.14,-70.4 57.86,-6.48 77.75,-47.25 7.24,-13.89 4.52,-10.19 10.85,-26.86 -0.9,-3.71 -0.9,-8.34 -1.8,-11.12 -9.05,-60.21 -13.57,-25.01 2.71,-77.81l-40.69 -4.63c-53.34,86.15 -6.33,22.23 -9.04,59.28l-43.4 12.97z"/>
   </g>
   <g>
    <path class="fil11" d="M2261.58 808.79c27.13,7.42 17.18,20.39 17.18,52.81l2.71 0c27.13,-56.51 56.06,-68.55 75.05,-144.52 12.65,-46.32 3.61,-37.05 21.7,-83.37l24.41 -73.18c31.64,-34.28 -46.11,-27.79 49.72,-28.72l5.43 -24.09 -5.43 -19.45c-22.6,34.27 7.24,21.31 -50.63,29.64l-63.29 -7.41 -44.3 -14.82c-4.52,-44.47 17.18,-187.13 -34.35,-190.83 -4.53,56.51 13.56,67.62 -5.43,128.76 -36.16,115.8 -5.42,111.17 17.18,170.46 29.83,79.66 -24.41,75.03 10.85,193.61 -2.71,3.7 -5.43,6.48 -6.33,11.11l-14.47 0z"/>
    <path class="fil11" d="M2259.78 304.85c18.98,-138.96 -67.81,-224.19 -209.76,-205.66 -24.41,16.68 -21.7,-8.34 -18.09,28.72 57.87,17.6 -1.8,15.75 68.72,27.79 63.29,11.12 76.85,-41.69 136.52,113.02 17.18,44.46 -9.04,14.82 22.61,36.13z"/>
   </g>
   <g>
    <path class="fil12" d="M2245.31 1054.28l28.93 194.54c-19.89,4.64 -37.07,8.34 -61.48,15.75l-57.86 27.79c139.23,-9.26 135.62,-28.71 242.3,41.69 8.14,139.88 24.41,230.67 53.35,362.21 47.01,-21.3 11.75,8.34 18.08,-37.05 0,-2.78 -2.71,-37.06 -3.62,-41.69 -6.33,-51.88 -9.94,-63.92 0.91,-100.97l-6.33 -20.38 -18.99 -59.29c-21.7,-114.87 -10.85,-75.04 -5.42,-112.09 4.52,-25.02 1.8,-45.4 9.04,-84.3l-101.27 -40.76c-1.8,-0.93 -5.42,-1.86 -7.23,-2.78 -42.49,-14.83 11.76,15.74 -31.64,-6.49 66.9,-118.57 38.87,-143.59 -47.92,-176.01 -5.43,22.23 7.23,25.94 -10.85,39.83z"/>
    <path class="fil12" d="M2281.47 861.6l-2.71 0c-2.71,61.14 9.95,33.35 70.52,75.96 63.29,44.47 -48.82,-29.64 16.28,12.97l0 12.04c26.22,-40.76 69.62,-37.98 50.63,-109.31 -0.9,-3.7 -6.33,-16.67 -8.14,-20.38 -9.94,-22.23 -9.04,-16.67 -18.98,-30.57 -20.8,7.41 -20.8,10.19 -28.03,14.82l-79.57 44.47z"/>
   </g>
   <g>
    <path class="fil13" d="M1390.91 2423.47l159.12 19.45c-35.26,110.24 -77.75,94.49 -120.24,131.55 -90.42,77.81 -37.98,8.33 -82.28,60.21l41.59 25.94c38.88,-24.09 66.9,-15.75 108.49,-57.44 11.76,-12.04 64.2,-66.69 74.14,-82.44l32.55 -57.44c9.95,64.85 -2.71,0 34.36,24.09 4.52,-10.19 62.38,-107.46 71.43,-119.5l-1.81 -72.26 -61.48 5.56 -36.17 7.41c-20.79,17.6 -65.1,51.87 -98.55,66.7 -39.78,18.52 -92.22,27.79 -121.15,48.17z"/>
    <path class="fil13" d="M1905.36 2121.47c0,0 14.46,-47.25 14.46,-47.25 3.62,-46.31 4.52,-34.27 -14.46,-50.02l-9.95 -10.19c-31.64,4.63 -74.14,3.71 -83.18,35.2l-21.7 92.64c91.32,-16.68 71.43,16.67 88.61,-49.1 38.87,0 29.83,-9.26 26.22,28.72z"/>
   </g>
   <g>
    <path class="fil14" d="M2886.34 2520.74c-9.95,158.41 -39.79,187.12 -75.95,315.89 -29.84,31.5 -56.96,173.23 -55.15,214.92l0.9 7.41 71.43 -8.34c2.71,-33.35 15.37,-37.98 24.41,-74.11 8.14,-31.49 8.14,-62.06 18.08,-100.97 -44.3,-24.09 -25.31,13.89 -22.6,-45.39 0,-5.56 78.66,-177.87 83.18,-347.39 1.81,-80.6 9.94,-444.66 -5.43,-491.91l0 25.01c3.62,66.7 -10.85,61.14 -23.5,116.73 -10.85,49.09 -3.62,85.22 -0.91,134.32 2.71,51.88 -5.42,216.77 -14.46,253.83z"/>
    <path class="fil14" d="M2721.78 1368.33c1.81,3.7 5.43,9.26 11.76,18.52l36.16 39.84c-7.23,-96.35 -9.04,-76.89 -37.97,-92.64 48.82,6.48 26.22,-1.85 39.78,28.72 11.76,27.79 0,32.42 21.7,72.25l-8.14 -61.14c3.62,-50.95 -9.04,-30.57 34.36,-59.28 14.47,-24.09 12.66,-17.61 12.66,-37.99 27.12,-53.73 16.27,-28.71 12.66,-93.56l-50.64 -4.63c-11.75,29.64 -2.71,15.75 -17.17,45.39 -15.37,32.42 -9.95,18.53 -21.7,34.28l-18.09 -67.63c2.72,-0.92 6.33,-0.92 7.24,-0.92 82.27,0 -36.17,37.05 27.12,0l-19.89 -58.37 -26.22 127.84c-8.14,43.54 -19.89,55.59 -14.46,82.45 6.32,30.57 0,7.41 10.84,26.87z"/>
   </g>
   <g>
    <path class="fil15" d="M172.14 2404.01l2.72 103.76c50.63,2.78 1.8,-7.41 24.41,37.98 -2.72,69.48 4.52,124.13 -8.14,194.54 69.62,6.48 59.67,-14.82 96.74,29.64 30.74,-39.83 -9.04,-7.41 37.97,-38.91 12.66,13.9 20.8,1.86 21.7,63 11.76,-59.29 29.84,-15.75 66.91,3.7l20.79 -54.65c20.8,26.86 1.81,3.7 8.14,31.49l5.43 17.61c0.9,2.77 1.8,7.41 3.61,10.19 28.93,7.41 33.46,15.74 65.1,4.63 47.92,-16.68 30.74,5.56 28.03,-37.98 -30.74,-47.25 3.61,-3.71 -33.46,-26.87l-185.34 -106.53c-33.45,-24.09 -3.62,15.75 -26.22,-26.87 33.45,14.82 -14.47,30.57 -14.47,31.5 -20.79,-65.77 -72.33,-48.17 -89.51,-35.2l16.28 -166.75 62.38 -19.45 1.81 -39.84c-80.47,1.85 -51.53,18.53 -57.86,20.38 -1.81,0 -12.66,7.41 -16.28,-17.6l3.62 -60.21c-36.17,15.74 -34.36,50.95 -34.36,82.44z"/>
    <path class="fil15" d="M1101.59 2204.84c95.83,16.68 22.6,10.19 51.53,-19.45 -39.78,14.82 -183.54,62.07 -112.11,117.65 2.71,1.85 9.95,7.41 12.66,9.26 5.42,4.63 8.13,5.56 14.46,12.05l9.05 15.74c6.32,11.12 6.32,14.83 7.23,16.68 3.61,5.56 -16.28,18.53 40.68,19.45 5.43,0 20.8,-3.7 21.7,-3.7 29.84,-10.19 1.81,12.97 14.47,-11.12 73.23,11.12 -4.52,12.04 11.75,-14.82 21.7,-38.91 15.37,-43.54 -34.35,-47.25l22.6 -95.41 -59.67 0.92z"/>
   </g>
   <g>
    <path class="fil16" d="M1970.45 1851.89c-32.54,-16.67 -28.02,-9.26 -42.49,-72.25 32.55,21.3 27.12,7.41 42.49,72.25zm-176.3 -190.83l5.42 0.93c58.77,21.3 22.61,8.33 58.77,47.24 17.18,18.53 27.13,19.46 34.36,52.81 -6.33,-8.34 -18.99,-9.27 -27.12,-17.61 40.68,83.38 5.42,-29.64 41.59,104.68l11.75 26.87c1.81,2.78 11.75,17.6 14.46,21.31 -78.65,-26.87 -75.94,-17.6 -101.26,2.78 2.71,1.85 8.14,0 9.95,4.63l53.34 14.82c20.8,4.63 9.95,-0.93 31.65,9.26 -48.83,22.24 -3.62,-16.67 -18.99,20.38l227.84 -20.38c-36.17,-37.05 3.62,-4.63 -37.07,-17.6 -21.7,-7.41 -6.33,0.93 -34.36,-5.56 -43.39,-10.19 -40.68,-6.48 -55.15,-56.51l-3.61 -12.04c-2.72,-10.19 -15.38,-33.35 -20.8,-52.8 47.92,14.82 22.6,22.23 91.32,37.05l19.89 3.71c-14.47,-29.65 -29.84,-43.54 -31.65,-89.86 26.22,-25.94 12.66,-21.31 49.73,-35.2l32.55 8.34 13.56 -24.09c-27.12,-19.45 43.4,-24.09 -57.86,-15.75l43.39 -5.56c-94.02,-41.68 -227.84,-1.85 -249.53,0 -29.84,1.86 -54.25,-6.48 -102.17,-1.85z"/>
    <path class="fil16" d="M1012.98 1411.87l19.89 5.55c-28.03,9.27 -3.61,-5.55 -37.97,17.6 -28.03,18.53 -20.8,6.49 -14.47,26.87 0.91,1.85 7.24,9.26 9.04,11.12 0,0 18.09,-1.86 7.24,42.61l-7.24 16.67c45.21,33.35 24.42,9.27 45.21,68.56l70.52 -13.9c-20.79,-26.86 -46.11,-60.21 -32.55,-102.83 29.84,38.91 -7.23,59.29 56.96,109.32l15.37 -43.54c-0.9,-46.32 13.57,-80.6 9.05,-114.88 -3.62,-24.08 -13.57,-55.58 -18.09,-81.52 -54.24,25.94 -88.6,11.12 -122.96,58.37z"/>
    <path class="fil16" d="M452.42 1849.11c12.66,57.44 -9.04,16.68 37.98,50.03 -1.81,-1.85 -14.47,-19.45 -28.94,4.63 -36.16,62.99 -3.61,27.79 21.7,30.57 15.37,20.38 -18.08,16.68 5.43,-5.56l9.04 -9.26c23.51,-19.45 68.71,-29.64 65.1,-71.33 -1.81,-20.38 -13.57,12.97 -16.28,-64.85l5.43 -74.11 -41.59 -4.63c-3.62,29.64 -8.14,44.47 -14.47,73.18 -0.9,4.64 -10.85,40.76 -11.75,41.69 -18.99,33.35 8.13,12.04 -31.65,29.64z"/>
   </g>
   <g>
    <path class="fil17" d="M1649.49 500.31l-6.33 -33.35 -51.54 -59.29c-63.28,2.78 -68.71,-1.85 -86.79,25.94 125.67,50.03 91.31,-25.94 134.71,153.78 62.39,7.41 92.22,-18.53 127.49,-0.93 46.11,24.09 8.13,-2.77 31.64,27.8l107.59 5.55c22.6,-38.9 46.11,-59.28 47.02,-118.57l-5.43 -69.48c-113.92,-32.42 -59.67,-51.88 -116.63,-90.78 -17.18,-12.05 -37.98,-13.9 -70.52,-50.03 -88.61,-48.17 -90.42,-29.64 -212.47,-29.64l0 43.54c113.01,-15.75 173.59,-54.66 195.29,87.08 41.59,13.89 88.6,25.01 89.51,76.89 1.8,65.77 13.56,6.48 -26.22,48.17 -1.81,1.85 -4.52,3.7 -6.33,5.55 -1.81,2.78 -4.52,4.64 -6.33,6.49 -28.93,31.5 49.73,19.45 -139.24,40.76l-5.42 -69.48z"/>
    <path class="fil17" d="M2302.27 2065.89c-18.08,86.15 -46.11,63.92 -56.06,112.09 16.28,8.34 8.14,-4.63 44.31,9.26 1.8,100.98 -29.84,75.04 -59.68,147.3l48.83 -3.71c10.85,-51.88 27.12,-55.58 58.76,-84.3l45.21 -148.22c0,0 41.59,-35.2 42.49,-36.13l-11.75 -10.19 -18.99 -17.6c-23.5,-4.63 -19.89,-11.12 -19.89,9.26l0.91 6.49c-2.71,1.85 -7.24,4.63 -9.04,5.56 -59.68,30.57 -56.96,12.04 -65.1,10.19z"/>
   </g>
   <g>
    <path class="fil18" d="M1398.14 155.7c20.8,79.67 10.85,85.23 59.67,141.74 58.77,68.55 13.57,99.12 47.02,136.17 18.08,-27.79 23.51,-23.16 86.79,-25.94l51.54 59.29c-6.33,-93.56 -35.26,-87.08 -34.36,-156.56l84.09 -1.85c25.31,78.74 28.02,96.35 27.12,198.25l-70.52 -6.49 5.42 69.48c188.97,-21.31 110.31,-9.26 139.24,-40.76 1.81,-1.85 4.52,-3.71 6.33,-6.49 1.81,-1.85 4.52,-3.7 6.33,-5.55 39.78,-41.69 28.02,17.6 26.22,-48.17 -0.91,-51.88 -47.92,-63 -89.51,-76.89 -21.7,-141.74 -82.28,-102.83 -195.29,-87.08l0 -43.54 8.13 -32.43c-31.64,-14.82 -14.46,-3.7 -31.64,-36.12 -0.91,-1.86 -10.85,-25.94 -14.47,-34.28 -17.18,-37.98 -11.75,-40.76 -46.11,-64.85l2.71 98.2c-40.68,-3.71 -33.45,-8.34 -68.71,-36.13z"/>
    <path class="fil18" d="M1754.37 1676.81c-45.21,-0.93 -144.66,18.53 -159.13,-6.49l-170.88 -3.7 64.19 39.83c0,17.6 -3.61,31.5 -3.61,44.47l5.42 54.66 253.16 -5.56c43.4,-78.75 -76.85,-77.82 63.29,-77.82l-45.21 -28.72c-53.34,-62.06 55.15,35.21 -7.23,-16.67z"/>
   </g>
   <g>
    <path class="fil19" d="M2676.58 1446.14c0,1.85 0.9,3.71 0.9,7.41l61.48 286.25c42.5,161.19 -12.65,211.22 -31.64,347.39l-19.89 145.44c-11.76,71.34 12.66,55.59 6.33,120.43 -5.43,54.66 -26.22,73.19 -31.65,141.74 51.54,-42.61 45.21,-24.09 64.2,-85.23 12.65,-40.76 25.31,-75.03 22.6,-116.72 -28.93,25.01 0,-25.94 -28.93,35.2 14.46,-140.81 48.82,-66.7 38.87,-289.03 0.91,-0.92 4.52,-2.78 5.43,-1.85 0.9,4.63 15.37,1.85 20.79,-29.65l5.43 -246.41c-2.71,-108.39 -32.55,-218.63 -77.76,-305.7l39.79 65.77c10.84,23.16 27.12,50.95 41.58,74.11 -6.32,-37.98 -9.94,-76.89 -23.5,-114.87l-35.26 -78.74c-16.28,-19.46 -1.81,-5.56 -23.51,-20.38 -11.75,14.82 -16.28,11.11 -18.08,12.04 -11.76,9.26 -0.91,-31.5 -4.52,8.34 -3.62,37.05 28.93,40.76 -12.66,44.46z"/>
    <path class="fil19" d="M2768.8 1075.59c48.82,-59.29 21.7,-76.89 7.23,-129.69 37.98,-6.49 3.62,12.04 30.74,-9.27 -12.66,-54.65 -27.12,-114.87 -60.57,-148.22 54.24,22.24 17.17,28.72 64.19,75.04 0,-83.37 -79.56,-228.81 -122.06,-250.12 17.18,5.56 10.85,0.93 23.51,12.04 0.9,-0.92 2.71,-61.14 18.99,20.38 64.19,-39.83 13.56,19.46 28.02,-47.24 -1.8,-4.63 -14.46,-31.5 -14.46,-31.5 -0.91,-2.78 -3.62,-20.38 -4.52,-25.01 19.89,-23.16 15.37,38.91 16.27,-48.17 -56.05,-19.46 69.62,20.38 -50.63,-12.97 29.84,73.18 12.66,27.79 -50.63,12.97 5.42,12.04 25.31,48.17 26.22,49.1 1.81,37.05 6.33,-6.49 -28.93,9.26 -3.62,63.92 -1.81,91.71 18.98,141.73 55.16,135.26 89.51,183.43 97.65,381.67z"/>
    <path class="fil19" d="M2896.28 2798.65l17.18 0c-12.66,69.48 -52.44,170.45 -11.75,238.08 18.08,-15.75 5.42,11.11 23.5,-31.5 8.14,-16.67 3.62,-9.26 7.24,-29.64 45.2,-220.48 92.22,-184.35 68.71,-476.16 -45.21,64.85 -36.16,150.07 -104.88,299.22z"/>
   </g>
   <g>
    <path class="fil20" d="M1701.93 925.52c-15.37,19.45 41.59,7.41 -46.11,25.94 -67.81,13.89 -3.62,-25.94 -23.51,0 52.44,18.52 26.22,-2.78 55.15,53.73l43.4 71.33c-13.56,-31.5 -7.23,-24.09 -25.32,-37.98 4.53,-5.56 9.05,-23.16 12.66,-17.61 4.52,6.49 -1.81,-7.41 25.32,-12.04 2.71,-0.92 8.13,3.71 12.66,3.71l-12.66 -63c20.79,27.8 -6.33,19.46 50.63,37.99 18.08,-37.06 -0.91,12.04 45.21,-29.65 48.82,-44.46 -15.37,-21.31 43.39,-42.61 30.74,25.01 24.42,-19.46 13.57,45.39 -1.81,12.97 -13.57,-3.7 -13.57,64.85 29.84,-2.78 84.99,28.71 88.61,-116.73 75.04,37.06 12.66,52.81 63.29,68.56 34.35,11.11 11.75,12.96 44.3,-16.68l22.6 -26.86c2.71,-1.86 4.52,-4.64 7.24,-7.42 27.12,-25.93 36.16,-27.79 65.09,-27.79 -12.65,-118.57 -33.45,-25.01 -10.85,-130.62 -2.71,1.86 -6.33,5.56 -8.13,6.49l-25.32 14.82c-43.4,11.12 -25.32,-14.82 -67.81,-13.89 -66,0.92 -27.12,6.48 -44.3,17.6l9.04 15.74c0,0.93 3.62,2.78 4.52,3.71 1.81,0.93 14.47,3.71 18.99,4.63 -48.83,11.12 -41.59,-4.63 -84.99,2.78l-56.96 12.97c-125.67,21.31 -157.32,2.78 -188.06,53.73l-18.08 38.91z"/>
    <path class="fil20" d="M2597.01 2743.99c71.43,1.86 -8.13,18.53 66.01,28.72l-28.94 -11.12c32.55,-65.77 -1.8,-9.26 38.88,-45.39l45.21 -34.27c57.86,31.49 -10.85,-5.56 51.53,45.39 57.87,46.32 -7.23,-18.53 11.76,8.34 29.83,-42.62 16.27,-223.26 -66.91,-144.52 -48.82,46.32 19.89,9.27 -47.01,43.54 -62.39,31.5 -74.14,25.94 -70.53,109.31z"/>
   </g>
   <g>
    <path class="fil21" d="M744.46 2794.94l-77.76 102.83c-39.78,40.76 -6.33,25.94 -54.25,60.22 -46.11,33.35 -41.59,-17.6 -39.78,81.52 57.87,0 63.29,-7.41 90.41,16.67 28.94,-28.72 -21.69,-9.26 12.66,-0.92 0.91,0 3.62,1.85 5.43,1.85l15.37 6.48c25.31,7.41 42.49,10.19 72.33,8.34 74.14,-4.63 186.25,-104.68 215.18,-173.23 17.18,-41.69 8.14,-14.82 9.95,-45.39 9.04,-26.87 -12.66,-8.34 20.79,-42.62l-32.55 -15.75 -79.56 36.13c-18.99,36.13 -10.85,22.24 -57.87,58.36 -35.26,27.8 -18.08,-2.77 -54.24,41.69 -1.81,2.78 -3.62,5.56 -5.43,8.34 -1.81,1.85 -4.52,5.56 -6.33,7.41 -25.31,29.64 -21.7,14.82 -49.72,22.23 12.65,-45.39 0,-48.17 19.89,-95.41 6.33,-18.53 -1.81,-7.41 16.27,-25.02 46.11,-43.54 17.18,0.93 47.92,-55.58 19.89,-37.05 -10.85,6.49 12.66,-19.45l19.89 -9.27c33.45,-21.3 14.46,-0.92 18.98,-21.3 -29.83,-39.84 -18.98,-31.5 -94.93,31.49 -14.46,12.05 -14.46,12.05 -25.31,20.38z"/>
    <path class="fil21" d="M1747.13 1351.65c9.05,40.76 -0.9,26.87 21.7,52.8 -2.71,8.34 -13.56,13.9 -13.56,13.9 -52.44,74.11 13.56,58.36 -66.9,96.34l-160.03 55.59c-37.98,-23.16 -8.14,-4.64 -44.31,-2.78 -36.16,11.11 -243.21,51.87 -280.28,55.58l-80.46 20.38c-3.62,1.85 -38.88,15.75 -39.79,16.67 -0.9,0 -20.79,12.97 -21.7,12.97l52.44 37.98c71.43,-17.6 92.23,-37.05 157.32,-53.72 70.52,-18.53 125.68,-14.83 193.49,-25.94 42.49,-39.84 69.61,-30.57 139.23,-40.76 84.09,-12.97 155.51,18.52 167.27,-73.19 3.61,-34.27 0,-31.49 9.94,-61.14l74.14 -27.79c29.84,37.06 19.89,31.5 26.22,56.51l64.19 -24.09c39.78,5.56 10.85,1.86 10.85,-11.11 9.04,-23.16 -1.81,-13.9 17.18,-25.02 -28.03,-36.12 -186.25,-107.45 -226.94,-73.18z"/>
    <path class="fil21" d="M35.62 2735.66c21.7,-26.87 24.41,-25.94 24.41,-72.26 0,0.93 -4.52,55.58 -1.81,84.3l8.14 64.85c0.9,4.63 0.9,7.41 1.81,12.04l4.52 23.16c2.71,-1.86 7.23,-9.27 9.04,-6.49 0.9,2.78 8.14,-4.63 15.37,-14.82l55.15 -158.41c12.66,-47.24 -18.98,-30.57 29.84,-63.92 0.9,-40.76 -9.04,-46.32 17.18,-58.36 -22.61,-45.39 26.22,-35.2 -24.41,-37.98l-2.72 -103.76c-43.4,20.38 -84.08,76.89 -113.01,115.8 -51.54,68.55 -19.89,123.21 -23.51,215.85z"/>
    <path class="fil21" d="M1730.86 1076.52c9.95,13.89 9.95,13.89 20.79,27.79 28.94,39.83 28.03,32.42 30.75,86.15 7.23,156.56 53.34,83.38 28.02,124.14 56.06,44.46 90.42,25.93 152.8,27.79 -16.27,-44.47 32.55,-28.72 -17.18,-37.98l76.85 -88.94c-17.17,-39.83 -37.07,0 -1.8,-59.28l4.52 -64.85c88.6,-1.85 43.39,6.48 59.67,-40.76 -42.5,7.41 -11.76,-1.85 -37.98,12.04l-25.31 25.94c-3.62,-2.78 -7.23,-6.48 -9.04,-8.34l-35.26 -20.38c51.53,0 23.5,-7.41 22.6,47.25l-2.71 42.61c0,-1.85 -0.91,10.19 -0.91,14.82l-51.53 -24.08c-75.95,-27.79 -32.55,28.72 -32.55,65.77 0,0.93 -0.9,4.63 -0.9,5.56l0 14.82c17.17,90.79 21.69,-53.73 9.04,22.23 -28.94,2.78 -28.94,3.71 -50.63,12.97l-33.46 -30.57c-0.9,0 -3.61,0 -4.52,-0.92 -0.9,0 -2.71,-2.78 -3.61,-2.78 -0.91,-1.86 -2.72,-4.64 -2.72,-6.49 -11.75,-27.79 -3.61,-50.95 -8.13,-82.45 -9.04,-77.81 -32.55,-60.21 -61.48,-125.98 -4.53,0 -9.95,-4.63 -12.66,-3.71 -27.13,4.63 -20.8,18.53 -25.32,12.04 -3.61,-5.55 -8.13,12.05 -12.66,17.61 18.09,13.89 11.76,6.48 25.32,37.98z"/>
    <path class="fil21" d="M1016.6 2671.74c-45.21,20.38 -52.44,55.58 -98.55,82.44l13.56 21.31c0.9,-1.85 3.62,7.41 6.33,9.26 18.99,-5.55 30.74,-10.19 49.73,-19.45 5.42,-2.78 25.31,-12.97 26.22,-13.9 37.97,-16.67 3.61,-4.63 45.2,-14.82l22.61 -6.48c2.71,-1.85 9.94,-10.19 11.75,-13.9 14.47,-22.23 6.33,-17.6 17.18,-43.54l-44.3 -45.39c-24.42,21.31 -32.55,28.72 -49.73,44.47z"/>
   </g>
   <g>
    <path class="fil22" d="M490.4 2615.23c-30.74,-39.84 -42.5,-61.14 -11.76,-131.55l11.76 -22.23c48.82,7.41 52.44,37.05 93.12,52.8 73.24,30.57 3.62,-7.41 47.02,-2.78l13.56 4.64c50.63,22.23 -27.13,2.77 23.5,16.67 -59.67,73.18 -49.72,25.94 -129.29,61.14 -24.41,10.19 17.18,9.26 -47.91,21.31zm-25.32 -344.61l0 47.24c19.89,12.04 -14.47,-3.7 32.55,19.45 53.34,25.02 45.21,-18.52 95.84,2.78 -4.52,25.94 -20.8,27.8 -39.79,79.67 -67.8,-22.23 -67.8,3.71 -135.61,28.72l14.46 113.02c0.91,2.78 1.81,6.48 3.62,9.26l7.23 18.53c4.52,11.12 21.7,43.54 21.7,45.39l125.67 0 -32.54 53.73c-7.24,20.38 -4.53,19.45 -2.72,40.76 53.35,-19.45 10.85,-6.48 52.44,-30.57 2.71,-37.98 0.91,-36.13 18.09,-65.77 6.32,-11.12 9.94,-12.97 16.27,-18.53 25.31,-22.23 -5.43,-3.7 16.27,-9.26 21.7,-38.91 -17.17,-18.53 34.36,-36.13 14.47,-22.23 5.43,0.92 -6.33,-28.72 19.89,-9.26 17.18,-6.48 36.17,-17.6l27.12 -15.75c0,-37.05 1.81,-15.75 6.33,-28.72 14.47,-51.87 6.33,-37.05 57.86,-64.84 36.17,-19.46 26.22,-2.78 43.4,-54.66l12.66 -53.73c-85.89,-60.21 -110.3,35.2 -113.92,39.84l-12.66 49.09c-19.89,4.64 -47.92,9.27 -53.34,10.19 -24.41,5.56 -18.08,4.64 -47.92,14.83 7.23,-99.13 20.79,-66.7 47.01,-100.98 3.62,-57.43 -6.32,-79.67 0.91,-146.37 6.33,-42.61 -3.62,-19.45 18.98,-66.7 27.13,-56.5 20.8,-1.85 29.84,-39.83 0.91,-4.63 5.43,-4.63 7.23,-7.41l-69.61 10.19c2.71,57.43 -0.91,88.01 -7.24,140.81 -19.89,152.85 -11.75,101.9 -65.09,121.35 -14.47,-23.16 -9.95,-3.7 -17.18,-37.05 0,-2.78 -0.91,-6.49 -0.91,-8.34l5.43 -17.6c-32.55,-4.63 5.42,-4.63 -18.08,16.67 -51.54,50.03 -98.55,-2.77 -99.46,-4.63 -1.81,-5.56 -6.33,-5.56 -9.04,-8.33z"/>
    <path class="fil22" d="M1135.94 1353.5c4.52,25.94 14.47,57.44 18.09,81.52 4.52,34.28 -9.95,68.56 -9.05,114.88l78.66 -3.71c6.33,-40.76 -2.71,-34.28 21.7,-55.58 -15.37,-68.55 -9.04,-21.31 -27.12,-66.7 -28.93,-71.33 39.78,-35.2 114.82,-47.25 122.96,-21.3 171.79,2.78 182.64,-50.02 -47.02,1.85 -375.22,21.31 -379.74,26.86z"/>
    <path class="fil22" d="M1822.18 2242.82l-65.1 26.87c-16.27,24.09 -3.62,-9.26 -9.95,25.01 -0.9,3.71 -0.9,18.53 -1.8,23.16 -5.43,33.35 13.56,28.72 -19.89,48.17l-25.32 90.79c45.21,-6.49 7.23,-17.6 55.15,12.04l9.95 -28.72c24.41,-44.46 79.56,-90.78 56.05,-136.17 2.72,0.92 25.32,12.04 28.03,12.04 0.9,0 24.41,27.79 36.17,-37.98 2.71,-13.9 14.46,9.26 -4.52,-48.17l-33.46 14.82c-45.2,11.11 5.43,39.83 -25.31,-1.86z"/>
    <path class="fil22" d="M1642.26 2857.94l14.46 12.97c47.02,45.39 31.65,43.54 112.11,48.17l0 -1.85c44.31,0.92 50.63,0.92 75.95,22.23 25.32,-17.6 4.52,4.63 18.99,-31.5 -27.13,-34.27 -1.81,-10.19 -20.8,-54.65 -27.12,-59.29 -57.86,-76.89 -127.48,-75.97l-9.95 86.16 -63.28 -5.56z"/>
    <path class="fil22" d="M537.41 1674.03c48.82,12.97 42.49,5.56 43.4,34.28 0,2.77 -11.75,45.39 -14.47,76.88 153.7,-15.74 53.35,-33.34 125.68,-164.89 10.85,-20.38 7.23,20.38 9.94,-27.79 -55.15,12.97 -125.67,50.95 -157.32,75.04 -1.8,0.92 -5.42,4.63 -7.23,6.48z"/>
   </g>
   <g>
    <path class="fil23" d="M2748.91 2292.85c2.71,41.69 -9.95,75.96 -22.6,116.72 -18.99,61.14 -12.66,42.62 -64.2,85.23 5.43,-68.55 26.22,-87.08 31.65,-141.74 6.33,-64.84 -18.09,-49.09 -6.33,-120.43 -34.36,-23.16 -2.71,24.09 -32.55,-20.38 -21.7,26.87 -150.09,163.05 -150.99,183.43 -2.71,77.81 -5.43,8.33 14.47,33.35 2.71,2.78 13.56,12.04 15.37,13.89l16.27 13.9c-13.56,54.65 -40.69,75.96 -66,108.38l-31.65 99.13c-24.41,-9.27 -9.04,2.77 -37.06,-16.68 -52.44,-37.05 -17.18,-55.58 -61.49,-85.23 23.51,67.63 -9.94,84.3 -28.02,148.22 52.44,26.87 13.56,-1.85 29.83,29.65l57.87 -18.53c-19.89,44.47 -31.65,50.95 -37.07,102.83 113.01,-17.6 1.81,17.6 132,-122.28 18.08,-19.46 75.04,-37.06 69.62,-160.27l153.7 -26.86c3.62,-0.93 7.23,-1.85 9.04,-2.78l15.37 -207.51c34.36,-11.11 0,-1.85 32.55,7.41l26.22 -45.39c-0.9,0 -0.9,0.93 -1.81,0.93l-26.22 14.82c-1.81,-3.71 -7.23,4.63 -11.75,6.48 19.89,-60.21 21.7,-29.64 10.85,-83.37 -34.36,20.38 -37.98,36.13 -37.07,87.08z"/>
    <path class="fil23" d="M1227.26 2448.48c18.99,7.41 14.47,15.75 22.6,30.57 56.96,-4.63 174.5,-36.13 217.9,13.9l-174.5 34.27c4.52,0 20.8,-1.85 24.41,-0.92 63.29,16.67 18.99,0.92 44.31,19.45l-43.4 43.54c-1.81,1.85 -3.62,5.56 -5.43,7.41 -18.98,25.01 3.62,14.82 -42.49,42.61l-14.47 6.49c-12.66,5.56 -67.81,21.3 -94.93,7.41 -27.12,7.41 -21.7,2.78 -37.97,15.75l-2.72 -36.13c-4.52,-0.93 -14.46,-0.93 -16.27,-0.93l-22.6 -10.19c-27.13,-12.97 -14.47,-20.38 -50.64,-12.97 -12.65,27.79 -11.75,25.01 -14.46,63 17.18,-15.75 25.31,-23.16 49.73,-44.47l44.3 45.39c-10.85,25.94 -2.71,21.31 -17.18,43.54 -1.81,3.71 -9.04,12.05 -11.75,13.9l-22.61 6.48c-25.31,35.2 -35.26,21.31 -76.85,58.36l32.55 15.75c-33.45,34.28 -11.75,15.75 -20.79,42.62 36.16,-14.83 58.76,-42.62 90.41,-68.56 55.15,-46.31 14.46,-25.93 86.79,-50.95 87.7,-29.64 117.54,-54.65 217.9,-73.18l-41.59 -25.94c44.3,-51.88 -8.14,17.6 82.28,-60.21 42.49,-37.06 84.98,-21.31 120.24,-131.55l-159.12 -19.45c-55.15,-13.9 -125.68,-10.19 -163.65,25.01z"/>
   </g>
   <g>
    <path class="fil24" d="M2785.98 2205.77c10.85,53.73 9.04,23.16 -10.85,83.37 4.52,-1.85 9.94,-10.19 11.75,-6.48l26.22 -14.82c0.91,0 0.91,-0.93 1.81,-0.93l-26.22 45.39c-32.55,-9.26 1.81,-18.52 -32.55,-7.41l-15.37 207.51c-1.81,0.93 -5.42,1.85 -9.04,2.78 2.71,2.78 6.33,1.85 8.14,6.48 5.42,25.02 13.56,4.64 29.83,39.84l116.64 -40.76c9.04,-37.06 17.17,-201.95 14.46,-253.83 -2.71,-49.1 -9.94,-85.23 0.91,-134.32 12.65,-55.59 27.12,-50.03 23.5,-116.73l-15.37 -14.82c-35.26,-35.2 -6.33,-19.45 -22.6,-56.51 -18.99,-43.54 -49.73,-15.75 -34.36,-96.34l20.8 -66.7c7.23,-41.69 -21.7,-127.84 -47.02,-157.48 -25.31,19.45 -11.75,-2.78 -15.37,32.42 -3.61,24.08 29.84,157.48 16.28,263.09 -13.56,105.61 -42.5,217.7 -41.59,286.25z"/>
    <path class="fil24" d="M1519.29 1926.93l84.09 -13.9c6.33,33.35 -33.45,25.02 11.75,37.06 -97.64,23.16 -34.36,-7.41 -81.37,0.93 -37.07,7.41 -15.37,23.16 -72.33,25.01 21.7,0 33.45,-1.85 54.25,3.7 41.59,10.19 10.85,-6.48 34.35,16.68 92.23,8.34 254.97,-32.42 358.04,-47.25 15.37,-37.05 -29.84,1.86 18.99,-20.38 -21.7,-10.19 -10.85,-4.63 -31.65,-9.26l-53.34 -14.82c-1.81,-4.63 -7.24,-2.78 -9.95,-4.63 25.32,-20.38 22.61,-29.65 101.26,-2.78 -2.71,-3.71 -12.65,-18.53 -14.46,-21.31l-11.75 -26.87c-36.17,-134.32 -0.91,-21.3 -41.59,-104.68 -7.24,-33.35 -8.14,-12.96 -24.42,-50.02 -13.56,60.21 -17.17,107.46 13.57,141.74 -45.21,30.57 -93.13,44.46 -149.19,50.95 -173.59,21.3 -158.22,-24.09 -186.25,39.83z"/>
    <path class="fil24" d="M2137.72 1126.54c16.27,-18.53 -37.98,-8.34 25.31,-14.82l-25.31 14.82zm1.81 -122.28c-8.14,36.13 16.27,18.53 -28.94,34.28 -12.65,26.86 -6.33,12.04 -25.31,12.04 -16.28,47.24 28.93,38.91 -59.67,40.76l-4.52 64.85c61.48,-62.07 138.33,-146.37 204.33,-153.78 -21.7,26.86 -65.1,54.65 -84.99,77.81 -29.84,34.28 -46.11,50.03 -73.23,85.23 31.64,-14.82 39.78,-23.16 70.52,-38.91l-37.98 52.81c-83.18,98.19 -2.71,-52.81 -98.55,121.35 31.65,-32.42 83.18,-92.64 130.2,-104.68 -29.84,23.16 -9.04,-1.85 -18.99,38.91 74.14,14.82 23.51,33.35 99.46,21.3l11.75 -68.55c-1.81,-52.8 -7.23,-90.78 21.7,-133.4 18.08,-13.89 5.42,-17.6 10.85,-39.83l-2.71 -37.05c-15.37,-12.05 -0.91,-7.42 -37.07,-13.9l-76.85 40.76z"/>
   </g>
   <g>
    <path class="fil25" d="M2910.75 1108.01c18.08,1.86 24.41,3.71 30.74,25.02 21.7,74.11 0.9,20.38 -2.71,43.54 -5.43,30.57 -7.24,75.96 -12.66,115.79 -5.43,45.4 -11.76,72.26 -24.41,108.39 -2.72,8.34 -10.85,37.05 -16.28,47.24 -14.46,31.5 1.81,19.46 -28.03,33.35 -37.97,8.34 -19.89,-40.76 -39.78,-74.11 -25.31,-40.76 -10.85,-16.67 -32.55,-33.35l8.14 61.14 33.45 188.99c25.32,29.64 54.25,115.79 47.02,157.48l-20.8 66.7c-15.37,80.59 15.37,52.8 34.36,96.34 16.27,37.06 -12.66,21.31 22.6,56.51l15.37 14.82 0 -25.01c0.91,-55.58 -20.79,-107.46 0.91,-151.93l27.12 75.97c0,-25.01 -6.33,-103.76 -4.52,-120.43 6.33,-50.95 43.4,-30.57 51.54,-300.15 6.33,-215.84 3.61,-254.75 -49.73,-426.13 32.55,8.34 7.23,-2.78 26.22,28.72 11.75,18.53 3.62,12.97 18.08,33.35 -2.71,-55.59 -7.23,-73.19 -21.7,-113.95 -29.83,8.34 -37.07,14.83 -49.72,37.98 -13.57,25.94 -11.76,30.57 -12.66,53.73z"/>
    <path class="fil25" d="M495.82 2177.98c-43.4,35.2 13.56,26.86 -56.06,50.95l0 1.85 -18.08 25.94c48.83,9.26 21.7,-2.78 43.4,13.9 2.71,2.77 7.23,2.77 9.04,8.33 0.91,1.86 47.92,54.66 99.46,4.63 23.5,-21.3 -14.47,-21.3 18.08,-16.67l-5.43 17.6c0,1.85 0.91,5.56 0.91,8.34 7.23,33.35 2.71,13.89 17.18,37.05 53.34,-19.45 45.2,31.5 65.09,-121.35 6.33,-52.8 9.95,-83.38 7.24,-140.81l69.61 -10.19 -0.9 -34.28c-14.47,-3.7 -33.45,-11.11 -37.97,-13.89l-20.8 -17.6c-0.9,-3.71 -3.61,-4.64 -6.33,-6.49l-46.11 45.39c-19.89,17.61 -22.6,13.9 -32.55,41.69 -6.33,15.75 -13.56,88.93 -15.37,105.61 -45.2,0.92 -55.15,-25.94 -68.71,37.98 -13.56,-45.39 0,-29.64 -21.7,-37.98z"/>
    <path class="fil25" d="M490.4 2615.23c65.09,-12.05 23.5,-11.12 47.91,-21.31 79.57,-35.2 69.62,12.04 129.29,-61.14 -50.63,-13.9 27.13,5.56 -23.5,-16.67l-13.56 -4.64c-43.4,-4.63 26.22,33.35 -47.02,2.78 -40.68,-15.75 -44.3,-45.39 -93.12,-52.8l-11.76 22.23c-30.74,70.41 -18.98,91.71 11.76,131.55z"/>
    <path class="fil25" d="M2160.32 1684.22l0 42.61c-13.56,16.68 -27.12,-7.41 -37.07,46.32 -0.9,2.78 0,8.34 0,12.04 57.87,43.54 45.21,-54.65 113.92,-12.04 -7.23,-28.72 -3.61,-24.08 -11.75,-50.95l47.01 -14.82c-28.03,-34.28 9.04,-8.34 -51.53,-32.42 -41.59,-16.68 -33.46,-14.83 -75.05,-12.05l-43.39 5.56c101.26,-8.34 30.74,-3.7 57.86,15.75z"/>
   </g>
   <g>
    <path class="fil26" d="M2252.54 2048.29c-44.3,31.49 -198.91,48.17 -255.87,50.95l7.24 2.78c34.35,36.12 76.85,-7.42 124.77,37.98 -37.98,43.54 -54.25,27.79 -105.79,50.95 -84.98,36.13 -3.61,27.79 -83.18,42.61l-10.85 84.3c-70.52,19.45 -67.81,23.16 -87.7,87.08 -12.65,38.91 -33.45,90.78 -39.78,125.06 9.95,61.14 35.26,116.72 38.88,154.71 8.14,87.07 -44.3,110.23 94.03,95.41l19.89 -10.19c-7.23,-61.14 27.12,-70.4 7.23,-164.89 -35.26,1.85 -76.85,18.52 -102.16,3.7 16.27,-27.79 38.87,-14.82 61.48,-50.02l-11.76 -20.38c-5.42,-10.19 -9.94,-14.82 -15.37,-27.79 -12.65,-31.5 -11.75,0 -8.13,-50.03 55.15,-32.42 80.46,-8.33 127.48,-41.68 -14.47,-39.84 4.52,-6.49 -18.99,-25.02 -2.71,-1.85 -26.22,-11.11 -30.74,-12.97 6.33,-35.2 8.14,-60.21 46.11,-72.25 27.13,17.6 15.37,42.61 37.97,72.25l17.18 -9.26c83.18,-36.13 42.5,8.34 77.76,-41.69 -14.47,-26.86 2.71,-5.55 -19.89,-25.93l-56.96 -34.28c0,0 3.61,-0.93 3.61,-0.93l7.24 -29.64c0,-0.93 -2.72,-2.78 -3.62,-1.85 31.64,0.92 118.44,32.42 112.11,-26.87 -0.9,-9.26 -18.08,-31.5 -20.79,-44.46 54.25,-71.34 15.37,-4.64 97.64,-66.7 11.76,-9.27 16.28,-17.6 40.69,-33.35 8.14,1.85 5.42,20.38 65.1,-10.19 1.8,-0.93 6.33,-3.71 9.04,-5.56l-0.91 -6.49 -122.96 4.64z"/>
    <path class="fil26" d="M2264.3 1640.68c18.08,29.64 31.64,50.95 58.76,72.26l15.37 -33.35c50.64,13.89 53.35,12.04 43.4,75.96 -14.46,88.93 -37.97,80.6 -45.2,87.08 -27.13,34.28 -59.68,65.77 -82.28,94.49l-138.33 75.04 72.33 13.89 97.64 -8.33c0.91,-53.73 55.16,-59.29 97.65,-53.73 0,-0.93 -8.14,0.92 3.62,-13.9 24.41,-32.42 12.65,-14.82 28.93,-27.79 1.81,-87.08 13.56,-133.4 0.9,-215.85 -13.56,-79.67 -26.22,-129.69 -35.26,-213.99 -10.85,1.85 -28.93,12.97 -33.45,5.56 -1.81,-2.78 -6.33,-2.78 -9.95,-3.71 -24.41,-29.64 -23.5,-12.97 -16.27,-50.95 -29.84,22.24 4.52,10.19 -44.3,25.94 22.6,75.04 35.26,75.04 35.26,163.04l-48.82 8.34z"/>
   </g>
   <g>
    <path class="fil27" d="M2085.28 2772.71c18.98,29.65 19.89,12.04 55.15,41.69l-116.63 184.35c150.99,-1.86 4.52,-42.62 128.38,-10.19 0.91,-49.1 0,-36.13 47.02,-120.43 25.31,-4.63 52.44,-14.82 68.71,-17.6l53.35 2.78 -3.62 36.12c-4.52,21.31 -2.71,-2.77 -7.23,26.87 -1.81,18.53 0.9,49.1 -1.81,76.89 -46.11,2.78 -29.84,4.63 -68.72,-5.56 -3.61,-0.93 -16.27,-11.12 -16.27,-11.12 -25.32,28.72 39.78,27.8 -49.73,21.31 77.76,48.17 194.39,36.13 266.72,14.82l240.5 -13.89c100.36,4.63 54.25,-12.05 74.14,52.8 -1.81,-41.69 25.31,-183.42 55.15,-214.92 -71.43,-32.42 -30.74,-19.45 -71.43,-50.02 -20.79,-16.68 5.43,-47.25 -75.94,-13.9l6.33 103.76c-47.92,-15.75 -30.75,-22.24 -90.42,-21.31l0 57.43c-59.67,-1.85 -30.74,-23.16 -47.01,22.24 -38.88,-11.12 -25.32,-13.9 -66.91,-21.31 -1.81,-29.64 21.7,-57.43 18.99,-108.39 -3.62,3.71 -6.33,7.42 -9.04,10.19l-35.26 45.4c-71.43,-32.43 22.6,-35.21 -88.61,-11.12 12.66,-88.93 36.17,-44.47 4.52,-109.31 -31.64,-10.19 -14.46,-7.41 -40.68,-5.56 -1.81,0 -27.13,6.48 -36.17,11.12 -23.51,12.04 -30.74,19.45 -54.25,31.49 -45.2,-20.38 -32.54,-29.64 -88.6,-43.54 -47.92,33.35 14.47,-5.55 -25.32,25.02 -18.08,13.89 8.14,6.48 -25.31,13.89z"/>
    <path class="fil27" d="M1550.03 1367.4c-8.13,39.83 3.62,47.24 1.81,113.94l-70.52 29.65c37.97,24.08 19.89,-8.34 45.21,27.79 -66.91,12.97 -21.7,0.93 -42.5,28.72 36.17,-1.86 6.33,-20.38 44.31,2.78l160.03 -55.59c80.46,-37.98 14.46,-22.23 66.9,-96.34 0,0 10.85,-5.56 13.56,-13.9 -22.6,-25.93 -12.65,-12.04 -21.7,-52.8 -11.75,-36.13 2.72,-10.19 -25.31,-24.08 -43.4,37.05 -120.25,-8.34 -171.79,39.83z"/>
    <path class="fil27" d="M35.62 2735.66l-1.81 164.89 53.34 13.9c1.81,0 6.33,0.92 8.14,1.85l28.03 24.09c69.62,-29.65 127.48,-5.56 207.05,-14.83l2.71 -50.95c-44.3,41.69 5.42,22.24 -67.81,35.2 -23.51,-69.47 -43.4,-30.57 -86.8,-60.21 9.04,-88.01 -9.04,-177.86 3.62,-245.49 -48.82,33.35 -17.18,16.68 -29.84,63.92l-55.15 158.41c-7.23,10.19 -14.47,17.6 -15.37,14.82 -1.81,-2.78 -6.33,4.63 -9.04,6.49l-4.52 -23.16c-0.91,-4.63 -0.91,-7.41 -1.81,-12.04l-8.14 -64.85c-2.71,-28.72 1.81,-83.37 1.81,-84.3 0,46.32 -2.71,45.39 -24.41,72.26z"/>
    <path class="fil27" d="M748.98 2873.69c-19.89,47.24 -7.24,50.02 -19.89,95.41 28.02,-7.41 24.41,7.41 49.72,-22.23 1.81,-1.85 4.52,-5.56 6.33,-7.41 1.81,-2.78 3.62,-5.56 5.43,-8.34 36.16,-44.46 18.98,-13.89 54.24,-41.69 47.02,-36.12 38.88,-22.23 57.87,-58.36 -27.13,4.63 -84.99,4.63 -87.7,5.56 -36.17,17.6 -11.76,29.65 -66,37.06z"/>
   </g>
   <g>
    <path class="fil28" d="M1101.59 2204.84l59.67 -0.92 -22.6 95.41c49.72,3.71 56.05,8.34 34.35,47.25 -16.27,26.86 61.48,25.94 -11.75,14.82 -12.66,24.09 15.37,0.93 -14.47,11.12 -0.9,0 -16.27,3.7 -21.7,3.7 -56.96,-0.92 -37.07,-13.89 -40.68,-19.45 -0.91,-1.85 -0.91,-5.56 -7.23,-16.68l-9.05 -15.74c-6.33,-6.49 -9.04,-7.42 -14.46,-12.05 -2.71,-1.85 -9.95,-7.41 -12.66,-9.26 -71.43,-55.58 72.33,-102.83 112.11,-117.65 -28.93,29.64 44.3,36.13 -51.53,19.45zm367.07 -136.17c-0.9,3.7 -4.52,33.35 -4.52,34.27 -11.75,36.13 14.47,7.41 -19.89,29.65 3.62,46.31 -18.08,23.16 20.8,45.39 -34.36,64.84 22.6,-12.97 -31.65,32.42 -37.97,31.5 -0.9,15.75 -63.29,31.5 -94.03,23.16 -168.17,56.51 -159.12,-25.94 3.61,-35.2 35.26,-47.25 66.9,-55.58 103.07,-27.79 91.32,-44.47 92.22,-45.4 -39.78,-10.19 -48.82,9.27 -84.08,-29.64 -67.81,18.53 -125.68,44.47 -207.95,61.14 -71.43,13.9 -166.36,13.9 -226.03,32.42l-95.84 165.83c3.62,-4.64 28.03,-100.05 113.92,-39.84l-12.66 53.73c-17.18,51.88 -7.23,35.2 -43.4,54.66 -51.53,27.79 -43.39,12.97 -57.86,64.84 -4.52,12.97 -6.33,-8.33 -6.33,28.72 55.15,-16.67 61.48,-20.38 105.78,-53.73 57.87,-43.54 28.03,-27.79 54.25,-92.64 3.62,-8.33 12.66,-31.49 17.18,-39.83 47.92,3.71 39.78,-11.12 71.43,14.82 -25.32,38.91 -3.62,20.38 -42.5,39.84l40.69 4.63c-16.28,52.8 -11.76,17.6 -2.71,77.81 0.9,2.78 0.9,7.41 1.8,11.12l38.88 -1.85 26.22 7.41 24.41 8.34c22.61,0 13.56,2.77 3.62,-23.16l-45.21 -20.38c51.54,-6.49 131.1,-10.19 161.84,-38.91l-31.64 -9.27c63.29,-37.98 51.53,-5.55 75.94,-51.87 18.99,-37.06 -8.13,0 12.66,-30.57 58.77,0 77.76,-6.49 131.1,-14.82l91.32 5.55c2.71,0.93 6.33,2.78 9.04,4.64l15.37 10.19c18.08,-63 15.37,-143.59 -23.51,-212.14 23.51,-30.58 -7.23,-18.53 18.08,8.33l-9.04 -64.84c-11.75,50.02 7.24,13.89 -26.22,23.16z"/>
    <path class="fil28" d="M1513.87 807.87c10.85,30.57 12.66,27.79 27.12,55.58 12.66,23.16 12.66,28.72 18.99,51.88 1.81,-3.71 3.62,-8.34 4.52,-10.19l7.23 -20.38c0.91,-2.78 0.91,-6.49 0.91,-9.27 0,-3.7 0,-7.41 -0.91,-10.19l-10.85 -29.64c54.25,-30.57 36.17,-7.41 75.05,-45.39 69.61,-68.55 69.61,-35.2 114.82,-63.92 2.71,-1.86 5.43,-4.63 7.23,-5.56l12.66 -12.04c18.99,-17.6 12.66,-12.05 17.18,-20.38 0.9,-0.93 4.52,-15.75 10.85,-24.09 135.62,0 201.62,30.57 232.36,3.71 13.56,-12.05 19.89,-35.21 23.51,-54.66 0.9,-8.34 20.79,4.63 -1.81,-43.54 -9.95,-21.31 -27.12,3.71 -41.59,-66.7l-57.86 -1.85c-0.91,59.29 -24.42,79.67 -47.02,118.57l-107.59 -5.55c-59.67,45.39 -179.02,30.57 -234.17,6.48 6.33,-80.59 14.47,-57.43 28.93,-110.24 -60.57,-11.11 -53.34,-22.23 -110.3,2.78 -9.95,60.22 12.66,81.52 26.22,132.47 -23.51,20.38 9.94,5.56 -16.28,4.63l-2.71 -4.63c39.78,43.54 81.37,117.65 23.51,162.12z"/>
   </g>
   <g>
    <path class="fil29" d="M206.5 2321.57l-3.62 60.21c3.62,25.01 14.47,17.6 16.28,17.6 6.33,-1.85 -22.61,-18.53 57.86,-20.38l-1.81 39.84c-35.26,87.08 -58.77,23.16 -56.96,126.91 96.74,-25.94 64.2,-75.04 144.66,-76.89 -18.98,52.8 -24.41,40.76 -23.5,114.87 35.26,27.79 181.73,147.29 216.08,145.44 -1.81,-21.31 -4.52,-20.38 2.72,-40.76l32.54 -53.73 -125.67 0c0,-1.85 -17.18,-34.27 -21.7,-45.39l-7.23 -18.53c-1.81,-2.78 -2.71,-6.48 -3.62,-9.26l-14.46 -113.02c67.81,-25.01 67.81,-50.95 135.61,-28.72 18.99,-51.87 35.27,-53.73 39.79,-79.67 -50.63,-21.3 -42.5,22.24 -95.84,-2.78 -47.02,-23.15 -12.66,-7.41 -32.55,-19.45l0 -47.24c-21.7,-16.68 5.43,-4.64 -43.4,-13.9 -47.92,10.19 1.81,-6.48 -37.97,29.64 -34.36,31.5 2.71,15.75 -49.73,23.16 7.23,-12.97 31.65,-51.87 40.69,-60.21 53.34,-49.1 -16.28,13.89 30.74,-12.97 0,-30.57 -4.52,-17.6 34.35,-5.56l0 -1.85 -22.6 -32.42c-0.9,-1.86 -2.71,-3.71 -5.42,-5.56 50.63,-33.35 -6.33,4.63 54.24,-72.26 29.84,-36.13 24.42,-41.69 31.65,-85.23l-31.65 15.75c-1.8,2.78 -4.52,5.56 -6.32,8.34l-36.17 30.57c-19.89,16.67 -33.45,31.5 -50.63,47.24 -8.14,-44.46 -4.52,-24.08 10.85,-62.99l19.89 -58.36c26.22,-95.42 46.11,-103.75 25.32,-114.87 -28.03,13.89 -104.88,151 -128.39,190.83 -38.88,63 -98.55,158.41 -94.03,231.6z"/>
    <path class="fil29" d="M2281.47 861.6l79.57 -44.47c7.23,-4.63 7.23,-7.41 28.03,-14.82 9.94,13.9 9.04,8.34 18.98,30.57 1.81,3.71 7.24,16.68 8.14,20.38 18.99,71.33 -24.41,68.55 -50.63,109.31 68.71,-2.78 55.15,-11.11 104.88,-30.57 41.59,-16.67 65.09,-2.78 121.15,-16.67 23.51,-63 38.88,-255.68 -45.21,-301.07 -2.71,-0.93 -6.33,-2.78 -9.04,-3.71 -2.71,-0.93 -6.33,-1.85 -9.04,-3.7l-45.21 -29.65c-12.65,-12.97 -7.23,-7.41 -17.17,-21.31l-63.29 4.64 -24.41 73.18c-18.09,46.32 -9.05,37.05 -21.7,83.37 -18.99,75.97 -47.92,88.01 -75.05,144.52z"/>
    <path class="fil29" d="M2229.03 928.3c27.13,2.78 10.85,-3.71 26.22,10.19 -69.61,11.11 -18.98,-2.78 -38.87,25.01 36.16,6.48 21.7,1.85 37.07,13.9l2.71 37.05c86.79,32.42 114.82,57.44 47.92,176.01 43.4,22.23 -10.85,-8.34 31.64,6.49 1.81,0.92 5.43,1.85 7.23,2.78l101.27 40.76c-7.24,38.9 -4.52,59.28 -9.04,84.3 -5.43,37.05 -16.28,-2.78 5.42,112.09l18.99 59.29 -4.52 -126.92c31.64,-17.6 19.89,48.17 14.46,1.85 20.8,-18.52 9.95,-89.85 -4.52,-130.61l-26.22 -101.91c-18.08,-38.9 -40.68,65.78 -73.23,-11.11 -12.66,-29.65 -3.62,-140.81 0,-176.94 -65.1,-42.61 47.01,31.5 -16.28,-12.97 -60.57,-42.61 -73.23,-14.82 -70.52,-75.96 -45.2,34.27 -47.01,22.23 -49.73,66.7z"/>
    <path class="fil29" d="M1205.56 2400.31c59.67,0.92 240.5,-31.5 287.51,-59.29l16.28 -26.86 -15.37 -10.19c-2.71,-1.86 -6.33,-3.71 -9.04,-4.64l-91.32 -5.55c-53.34,8.33 -72.33,14.82 -131.1,14.82 -20.79,30.57 6.33,-6.49 -12.66,30.57 -24.41,46.32 -12.65,13.89 -75.94,51.87l31.64 9.27z"/>
    <path class="fil29" d="M2112.4 1234.93c-34.35,13.89 -81.37,67.62 -106.68,93.56l149.18 -36.13 57.86 -27.79c24.41,-7.41 41.59,-11.11 61.48,-15.75l-28.93 -194.54c-28.93,42.62 -23.51,80.6 -21.7,133.4l-11.75 68.55c-75.95,12.05 -25.32,-6.48 -99.46,-21.3z"/>
   </g>
   <g>
    <path class="fil30" d="M1424.36 1666.62l-385.16 85.23c-34.36,7.41 -145.56,38.9 -176.3,52.8 -132.91,60.21 -66.91,78.74 -158.23,89.86l-8.13 32.42 -45.21 4.63c-21.7,26.87 -29.84,60.22 -47.92,95.42 -25.31,50.02 -31.64,73.18 -40.68,124.13l-46.11 -12.04c-13.57,30.57 -6.33,14.82 -20.8,38.91 21.7,8.34 8.14,-7.41 21.7,37.98 13.56,-63.92 23.51,-37.06 68.71,-37.98 1.81,-16.68 9.04,-89.86 15.37,-105.61 9.95,-27.79 12.66,-24.08 32.55,-41.69l46.11 -45.39c2.72,1.85 5.43,2.78 6.33,6.49l20.8 17.6c4.52,2.78 23.5,10.19 37.97,13.89 -13.56,-49.09 -1.81,-70.4 61.48,-133.39 -11.75,37.05 -10.85,18.52 -36.16,9.26 43.39,-18.53 23.5,-21.31 59.67,-29.64 16.27,-25.94 -2.71,-4.64 27.12,-13.9 42.5,30.57 -25.31,29.64 76.85,31.5 2.72,20.38 1.81,45.39 24.41,71.33l93.13 -5.56c0.9,-25.01 -1.81,-57.44 0,-80.6 6.33,-77.81 -7.23,-34.27 20.79,-49.09 23.51,-48.18 14.47,-19.46 49.73,-12.97 56.96,10.19 -23.51,12.04 16.28,3.7 39.78,-8.33 -3.62,7.41 8.13,-9.26 0,0 0.91,-3.71 1.81,-4.63 169.07,-11.12 20.8,-33.35 151.89,-89.86l23.51 33.35 35.26 -44.47c64.2,25.94 105.79,152.85 103.07,226.04l56.96 1.85c28.03,-63.92 12.66,-18.53 186.25,-39.83 56.06,-6.49 103.98,-20.38 149.19,-50.95 -30.74,-34.28 -27.13,-81.53 -13.57,-141.74 -62.38,-25.01 -11.75,1.85 -41.59,-32.42l-5.42 -0.93 -39.78 -1.85 0 17.6c62.38,51.88 -46.11,-45.39 7.23,16.67l45.21 28.72c-140.14,0 -19.89,-0.93 -63.29,77.82l-253.16 5.56 -5.42 -54.66c0,-12.97 3.61,-26.87 3.61,-44.47l-64.19 -39.83z"/>
    <path class="fil30" d="M2455.07 1874.13l-4.52 84.3c0.9,1.85 9.94,60.21 80.46,20.38 77.76,-43.54 -32.55,-36.13 73.24,-54.66 43.4,2.78 30.74,42.61 75.94,74.11 11.76,-22.23 23.51,-37.98 39.79,-52.8l-83.18 -40.76c-103.98,-79.67 -75.95,23.16 -147.38,-167.68l-11.75 -26.86c-2.71,35.2 -7.23,58.36 -9.95,89.86 0,2.78 -2.71,37.05 -2.71,37.98l-9.94 36.13z"/>
    <path class="fil30" d="M2338.43 510.5l63.29 7.41 -5.42 -100.97c30.74,-19.46 99.45,-54.66 2.71,-135.25 -36.16,-29.65 18.99,-20.38 -60.58,-25.01 -15.37,38.9 39.79,34.27 -16.27,41.68 9.04,92.64 -1.81,119.5 16.27,212.14z"/>
   </g>
   <g>
    <path class="fil31" d="M2794.11 94.56l75.05 12.04c1.81,-37.98 -4.52,2.78 13.56,-18.53 -2.71,2.78 -34.36,9.27 -24.41,96.35l6.33 25.01c0,1.85 1.81,5.56 1.81,7.41l66.9 175.09c-38.88,20.38 -11.75,-2.78 -21.7,37.05l-10.85 165.82c-104.88,20.38 47.02,32.43 -141.95,3.71 -14.46,66.7 36.17,7.41 -28.02,47.24 -16.28,-81.52 -18.09,-21.3 -18.99,-20.38 17.18,24.09 20.79,26.87 41.59,48.17 92.22,95.42 7.23,35.21 61.48,114.87 17.18,25.02 -5.42,-1.85 20.79,19.46 0,0 12.66,-42.61 37.98,60.21 13.56,52.81 16.27,71.33 15.37,126.92 -28.03,28.71 -9.95,-7.41 -9.04,36.13 0,66.69 0,200.09 -47.92,245.48 0,20.38 1.81,13.9 -12.66,37.99l75.95 0c-20.8,-42.62 3.61,-100.05 10.85,-138.03l4.52 -68.56c0.9,-23.16 -0.91,-27.79 12.66,-53.73 12.65,-23.15 19.89,-29.64 49.72,-37.98l27.13 -12.97 -5.43 -729.05c-2.71,-49.1 -0.9,-88.01 -8.14,-134.33 -12.65,-72.26 -1.8,-70.4 -53.34,-91.71 -3.62,3.71 -8.14,5.56 -12.66,8.34 -97.64,47.24 -87.7,-20.38 -126.58,37.98z"/>
    <path class="fil31" d="M2870.06 2875.54c-9.94,38.91 -9.94,69.48 -18.08,100.97 -9.04,36.13 -21.7,40.76 -24.41,74.11 28.03,6.49 2.71,10.19 42.49,3.71 61.48,-9.26 25.32,4.63 31.65,-17.6 -40.69,-67.63 -0.91,-168.6 11.75,-238.08l-17.18 0c-24.41,24.09 -30.74,46.32 -26.22,76.89z"/>
   </g>
   <g>
    <path class="fil32" d="M1760.7 290.95c32.54,36.13 53.34,37.98 70.52,50.03 56.96,38.9 2.71,58.36 116.63,90.78l5.43 69.48 57.86 1.85c14.47,70.41 31.64,45.39 41.59,66.7 22.6,48.17 2.71,35.2 1.81,43.54 -3.62,19.45 -9.95,42.61 -23.51,54.66 -30.74,26.86 -96.74,-3.71 -232.36,-3.71 -6.33,8.34 -9.95,23.16 -10.85,24.09 -4.52,8.33 1.81,2.78 -17.18,20.38l-12.66 12.04c-1.8,0.93 -4.52,3.7 -7.23,5.56 -45.21,28.72 -45.21,-4.63 -114.82,63.92 -38.88,37.98 -20.8,14.82 -75.05,45.39l10.85 29.64c0.91,2.78 0.91,6.49 0.91,10.19 0,2.78 0,6.49 -0.91,9.27l-7.23 20.38c-0.9,1.85 -2.71,6.48 -4.52,10.19 25.32,46.32 16.27,41.69 49.73,67.62l22.6 -31.49c19.89,-25.94 -44.3,13.89 23.51,0 87.7,-18.53 30.74,-6.49 46.11,-25.94 -2.71,-2.78 -13.56,-8.34 -15.37,-9.27l-48.83 -4.63 7.24 -88.93c124.77,-84.3 94.03,-37.05 162.74,-88.93 7.23,-5.56 5.43,-9.27 24.41,-19.46 37.07,12.97 4.52,-5.55 33.46,25.02 9.04,8.33 3.61,10.19 17.17,25.94 33.46,-37.06 -0.9,-1.86 3.62,-25.94l9.04 -37.98c113.02,16.67 98.55,3.7 202.53,-3.71l53.34 -73.18c1.81,-2.78 37.07,-116.73 37.97,-121.36l-103.97 4.63c19.89,-45.39 7.23,-4.63 28.93,-51.87 -20.79,-14.83 4.52,-9.27 -28.93,-13.9 -2.71,-0.93 -32.55,0.93 -35.26,0.93l-2.72 -203.81 -116.63 -37.05c0,-138.96 -10.85,-98.2 41.59,-104.68 -50.63,8.34 -1.81,4.63 -26.22,-30.57 -75.94,25.94 -225.13,21.3 -316.44,19.45l99.45 17.6c33.45,8.34 18.99,5.56 29.84,9.27 -25.32,52.8 0,11.11 -61.48,38.9 52.44,28.72 -16.28,16.68 56.05,25.02 6.33,57.43 18.99,57.43 7.24,113.94z"/>
    <path class="fil32" d="M906.29 1467.45c-5.42,28.72 -4.52,25.94 -14.46,39.83 25.31,12.97 12.66,12.97 -7.23,38.91 -1.81,1.85 -4.52,4.63 -6.33,7.41l-17.18 20.38c-1.81,1.85 -3.62,4.63 -5.43,6.49 -6.33,4.63 -49.72,25.01 -60.57,25.01 -59.68,0 -59.68,15.75 -38.88,-37.98l-12.66 12.04c6.33,84.3 -110.3,111.16 113.92,119.5 122.06,4.63 132,-30.57 158.22,25.01l98.55 -12.97 -52.44 -37.98c0.91,0 20.8,-12.97 21.7,-12.97 0.91,-0.92 36.17,-14.82 39.79,-16.67l-2.72 -25.94c-5.42,-25.01 16.28,4.63 -15.37,-30.57l-70.52 13.9c-20.79,-59.29 0,-35.21 -45.21,-68.56l7.24 -16.67c10.85,-44.47 -7.24,-42.61 -7.24,-42.61 -1.8,-1.86 -8.13,-9.27 -9.04,-11.12 -6.33,-20.38 -13.56,-8.34 14.47,-26.87 34.36,-23.15 9.94,-8.33 37.97,-17.6l-19.89 -5.55c-31.64,3.7 -34.35,3.7 -66,20.38 -0.9,0.92 -21.7,13.89 -21.7,14.82 -16.27,12.04 -13.56,8.34 -18.99,20.38z"/>
    <path class="fil32" d="M1203.75 1623.08c37.07,-3.71 244.12,-44.47 280.28,-55.58 20.8,-27.79 -24.41,-15.75 42.5,-28.72 -25.32,-36.13 -7.24,-3.71 -45.21,-27.79l70.52 -29.65c1.81,-66.7 -9.94,-74.11 -1.81,-113.94 -60.57,13.9 -73.23,12.97 -117.53,45.39 23.5,55.58 -7.24,17.6 48.82,43.54 -34.36,24.09 -10.85,-13.89 -115.73,63l-15.37 11.11c-20.79,12.04 3.62,3.71 -28.03,12.97 -37.97,11.12 -74.13,-12.97 -118.44,79.67z"/>
   </g>
   <g>
    <path class="fil33" d="M1554.55 77.88l75.05 8.34c91.31,1.85 240.5,6.49 316.44,-19.45 13.56,3.7 49.73,10.19 58.77,12.97 4.52,0.92 7.23,1.85 11.75,2.78l33.46 16.67c141.95,-18.53 228.74,66.7 209.76,205.66 51.53,3.7 29.83,146.36 34.35,190.83l44.3 14.82c-18.08,-92.64 -7.23,-119.5 -16.27,-212.14 56.06,-7.41 0.9,-2.78 16.27,-41.68 79.57,4.63 24.42,-4.64 60.58,25.01 96.74,80.59 28.03,115.79 -2.71,135.25l5.42 100.97c57.87,-8.33 28.03,4.63 50.63,-29.64l5.43 19.45c69.62,12.97 40.68,33.35 84.08,29.65 31.65,-2.78 31.65,-14.83 62.39,-45.4 21.7,-22.23 29.83,4.64 12.66,-22.23 -10.85,-16.67 10.85,-1.85 -27.13,-22.23 13.56,-13.9 -18.08,-20.38 18.08,-10.19 -11.75,-31.5 -4.52,-23.16 -23.5,-42.61l35.26 -7.42c-12.66,-28.71 6.33,-21.3 -17.18,-33.35 -6.33,-27.79 -9.04,-16.67 25.32,-17.6 2.71,-22.23 8.13,5.56 -4.53,-16.67 -3.61,-7.41 -8.13,4.63 -10.84,-12.97 -0.91,-3.71 -5.43,-3.71 -7.24,-6.49 -43.4,-4.63 -38.88,-14.82 -43.4,-70.4 -107.59,-12.04 -11.75,7.41 -100.35,26.87 -54.25,-106.54 -78.66,-51.88 -94.03,-126.92l2.71 -38.91c0,-5.55 0.9,-6.48 3.62,-15.74l78.65 12.04c1.81,-0.93 132.91,17.6 174.5,12.97 56.06,-6.49 131.1,-19.46 167.26,-5.56 38.88,-58.36 28.94,9.26 126.58,-37.98 4.52,-2.78 9.04,-4.63 12.66,-8.34 -207.95,-22.23 -480.09,1.85 -696.18,0.93 -170.88,0 -546.09,27.79 -688.04,-1.86l2.71 10.19 2.71 20.38z"/>
    <path class="fil33" d="M830.35 1869.5c66.9,29.64 65.1,23.15 65.1,118.57 44.3,-4.63 74.13,-18.53 113.92,-13.89 49.72,6.48 50.63,33.34 55.15,25.93 0.9,-2.78 4.52,4.64 8.13,6.49 59.68,-20.38 13.57,-12.97 75.95,-18.53 40.69,-2.78 33.45,2.78 82.28,-8.34 -0.91,-28.71 14.46,-131.54 23.5,-151 33.46,15.75 0.91,-5.55 33.46,46.32 23.5,36.13 3.61,8.34 30.74,32.43 -19.89,-84.3 3.61,7.41 12.66,-73.19 1.8,-20.38 -5.43,-60.21 -7.24,-90.78l-23.51 -33.35c-131.09,56.51 17.18,78.74 -151.89,89.86 -0.9,0.92 -1.81,4.63 -1.81,4.63 -11.75,16.67 31.65,0.93 -8.13,9.26 -39.79,8.34 40.68,6.49 -16.28,-3.7 -35.26,-6.49 -26.22,-35.21 -49.73,12.97 -28.02,14.82 -14.46,-28.72 -20.79,49.09 -1.81,23.16 0.9,55.59 0,80.6l-93.13 5.56c-22.6,-25.94 -21.69,-50.95 -24.41,-71.33 -102.16,-1.86 -34.35,-0.93 -76.85,-31.5 -29.83,9.26 -10.85,-12.04 -27.12,13.9z"/>
   </g>
   <g>
    <path class="fil34" d="M182.09 2604.11c-12.66,67.63 5.42,157.48 -3.62,245.49 43.4,29.64 63.29,-9.26 86.8,60.21 73.23,-12.96 23.51,6.49 67.81,-35.2l-2.71 50.95c-79.57,9.27 -137.43,-14.82 -207.05,14.83l-28.03 -24.09c-1.81,-0.93 -6.33,-1.85 -8.14,-1.85l-53.34 -13.9 12.66 164.9 545.19 6.48c50.63,-1.85 35.26,2.78 71.42,-15.75 -27.12,-24.08 -32.54,-16.67 -90.41,-16.67 -1.81,-99.12 -6.33,-48.17 39.78,-81.52 47.92,-34.28 14.47,-19.46 54.25,-60.22l77.76 -102.83c-87.7,8.34 -95.84,43.54 -121.16,62.07 -18.98,-39.83 -34.35,-38.91 -69.62,-58.36l23.51 -8.34c20.8,-5.56 9.04,26.87 24.41,-8.34l-56.05 -12.96c2.71,43.54 19.89,21.3 -28.03,37.98 -31.64,11.11 -36.17,2.78 -65.1,-4.63 -1.81,-2.78 -2.71,-7.42 -3.61,-10.19l-5.43 -17.61c-6.33,-27.79 12.66,-4.63 -8.14,-31.49l-20.79 54.65c-37.07,-19.45 -55.15,-62.99 -66.91,-3.7 -0.9,-61.14 -9.04,-49.1 -21.7,-63 -47.01,31.5 -7.23,-0.92 -37.97,38.91 -37.07,-44.46 -27.12,-23.16 -96.74,-29.64 12.66,-70.41 5.42,-125.06 8.14,-194.54 -26.22,12.04 -16.28,17.6 -17.18,58.36z"/>
    <path class="fil34" d="M2561.75 229.81l9.05 -78.74 -118.45 -63.92 -78.65 -12.04c-2.72,9.26 -3.62,10.19 -3.62,15.74l-2.71 38.91c15.37,75.04 39.78,20.38 94.03,126.92 88.6,-19.46 -7.24,-38.91 100.35,-26.87z"/>
   </g>
   <g>
    <path class="fil35" d="M1701.93 925.52l18.08 -38.91c30.74,-50.95 62.39,-32.42 188.06,-53.73l56.96 -12.97c43.4,-7.41 36.16,8.34 84.99,-2.78 -4.52,-0.92 -17.18,-3.7 -18.99,-4.63 -0.9,-0.93 -4.52,-2.78 -4.52,-3.71l-9.04 -15.74c17.18,-11.12 -21.7,-16.68 44.3,-17.6 42.49,-0.93 24.41,25.01 67.81,13.89l25.32 -14.82c1.8,-0.93 5.42,-4.63 8.13,-6.49 69.62,-37.98 57.87,2.78 98.55,40.76l14.47 0c0.9,-4.63 3.62,-7.41 6.33,-11.11 -35.26,-118.58 18.98,-113.95 -10.85,-193.61 -22.6,-59.29 -53.34,-54.66 -17.18,-170.46 18.99,-61.14 0.9,-72.25 5.43,-128.76 -31.65,-21.31 -5.43,8.33 -22.61,-36.13 -59.67,-154.71 -73.23,-101.9 -136.52,-113.02 -70.52,-12.04 -10.85,-10.19 -68.72,-27.79 -3.61,-37.06 -6.32,-12.04 18.09,-28.72l-33.46 -16.67c-4.52,-0.93 -7.23,-1.86 -11.75,-2.78 -9.04,-2.78 -45.21,-9.27 -58.77,-12.97 24.41,35.2 -24.41,38.91 26.22,30.57 -52.44,6.48 -41.59,-34.28 -41.59,104.68l116.63 37.05 2.72 203.81c2.71,0 32.55,-1.86 35.26,-0.93 33.45,4.63 8.14,-0.93 28.93,13.9 -21.7,47.24 -9.04,6.48 -28.93,51.87l103.97 -4.63c-0.9,4.63 -36.16,118.58 -37.97,121.36l-53.34 73.18c-103.98,7.41 -89.51,20.38 -202.53,3.71l-9.04 37.98c-4.52,24.08 29.84,-11.12 -3.62,25.94 -13.56,-15.75 -8.13,-17.61 -17.17,-25.94 -28.94,-30.57 3.61,-12.05 -33.46,-25.02 -18.98,10.19 -17.18,13.9 -24.41,19.46 -68.71,51.88 -37.97,4.63 -162.74,88.93l-7.24 88.93 48.83 4.63c1.81,0.93 12.66,6.49 15.37,9.27z"/>
    <path class="fil35" d="M2355.61 2740.29c31.65,64.84 8.14,20.38 -4.52,109.31 111.21,-24.09 17.18,-21.31 88.61,11.12l35.26 -45.4c2.71,-2.77 5.42,-6.48 9.04,-10.19 2.71,50.96 -20.8,78.75 -18.99,108.39 41.59,7.41 28.03,10.19 66.91,21.31 16.27,-45.4 -12.66,-24.09 47.01,-22.24l0 -57.43c-81.37,-24.09 -29.83,-62.07 -22.6,-112.09l40.68 0.92c-3.61,-83.37 8.14,-77.81 70.53,-109.31 66.9,-34.27 -1.81,2.78 47.01,-43.54 83.18,-78.74 96.74,101.9 66.91,144.52 -18.99,-26.87 46.11,37.98 -11.76,-8.34 -62.38,-50.95 6.33,-13.9 -51.53,-45.39l-45.21 34.27c-40.68,36.13 -6.33,-20.38 -38.88,45.39l28.94 11.12c81.37,-33.35 55.15,-2.78 75.94,13.9 40.69,30.57 0,17.6 71.43,50.02 36.16,-128.77 66,-157.48 75.95,-315.89l-116.64 40.76c-16.27,-35.2 -24.41,-14.82 -29.83,-39.84 -1.81,-4.63 -5.43,-3.7 -8.14,-6.48l-153.7 26.86c5.42,123.21 -51.54,140.81 -69.62,160.27 -130.19,139.88 -18.99,104.68 -132,122.28 5.42,-51.88 17.18,-58.36 37.07,-102.83l-57.87 18.53z"/>
    <path class="fil35" d="M2278.76 2745.85c9.04,-4.64 34.36,-11.12 36.17,-11.12 26.22,-1.85 9.04,-4.63 40.68,5.56 -16.27,-31.5 22.61,-2.78 -29.83,-29.65 18.08,-63.92 51.53,-80.59 28.02,-148.22l17.18 -113.94c-44.3,12.04 -132,27.79 -150.99,63.92 -15.37,29.64 -2.71,43.54 -3.61,30.57 0,-1.85 0.9,5.56 1.81,12.04l-56.96 15.75c17.17,67.63 21.69,72.26 63.28,129.69 2.72,-0.92 6.33,-3.7 8.14,-4.63 36.17,-19.45 29.84,-22.23 66,-17.6l-19.89 67.63z"/>
   </g>
   <g>
    <path class="fil36" d="M2465.92 1516.55c-10.85,37.05 -7.24,49.09 -0.91,100.97 0.91,4.63 3.62,38.91 3.62,41.69 -6.33,45.39 28.93,15.75 -18.08,37.05l4.52 177.87 9.94 -36.13c0,-0.93 2.71,-35.2 2.71,-37.98 2.72,-31.5 7.24,-54.66 9.95,-89.86l11.75 26.86c71.43,190.84 43.4,88.01 147.38,167.68l83.18 40.76c-16.28,14.82 -28.03,30.57 -39.79,52.8 -45.2,-31.5 -32.54,-71.33 -75.94,-74.11 -105.79,18.53 4.52,11.12 -73.24,54.66 -70.52,39.83 -79.56,-18.53 -80.46,-20.38 -18.99,24.08 -39.79,47.24 -55.16,75.96l18.99 17.6c37.97,-30.57 27.12,-34.27 79.56,-39.83 5.43,59.28 -9.94,71.33 -36.16,173.23 -28.03,113.02 -18.08,-37.06 -81.37,155.63 138.33,4.63 103.07,-12.04 118.44,-45.39 12.66,-26.87 -5.43,-21.31 47.01,-65.77 1.81,-1.86 4.52,-3.71 6.33,-5.56l159.13 -137.11c18.99,-136.17 74.14,-186.2 31.64,-347.39l-61.48 -286.25c0,-3.7 -0.9,-5.56 -0.9,-7.41 -45.21,12.04 -55.15,8.34 -71.43,47.25 -1.81,2.78 -19.89,75.03 -20.79,82.44 -101.27,-126.91 14.46,-6.48 -118.44,-59.28z"/>
    <path class="fil36" d="M1143.18 93.63l132 -12.04 9.04 28.72c33.45,140.81 109.4,26.86 82.28,146.37 -0.91,3.7 -3.62,13.89 -4.52,18.52l-25.32 63.92c-0.9,1.86 -3.62,4.63 -5.42,7.41l-24.42 42.62c-9.94,21.3 -13.56,34.27 -22.6,53.73 12.66,19.45 12.66,20.38 28.03,38.9 7.23,8.34 23.51,24.09 25.31,25.94 30.74,37.98 13.57,19.46 30.74,71.33 7.24,19.46 3.62,13.9 15.37,31.5 0.91,1.85 3.62,4.63 4.53,7.41 19.89,26.87 39.78,44.47 46.11,95.42 17.17,-67.63 -4.52,-31.5 -7.24,-51.88 -13.56,-110.24 -22.6,-25.94 25.32,-66.7 17.18,45.39 37.07,121.36 46.11,180.65 9.94,29.64 -2.71,0.92 15.37,32.42 57.86,-44.47 16.27,-118.58 -23.51,-162.12l2.71 4.63c26.22,0.93 -7.23,15.75 16.28,-4.63 -13.56,-50.95 -36.17,-72.25 -26.22,-132.47 56.96,-25.01 49.73,-13.89 110.3,-2.78 -14.46,52.81 -22.6,29.65 -28.93,110.24 55.15,24.09 174.5,38.91 234.17,-6.48 -23.51,-30.57 14.47,-3.71 -31.64,-27.8 -35.27,-17.6 -65.1,8.34 -127.49,0.93 -43.4,-179.72 -9.04,-103.75 -134.71,-153.78 -33.45,-37.05 11.75,-67.62 -47.02,-136.17 -48.82,-56.51 -38.87,-62.07 -59.67,-141.74 -9.94,-19.45 -29.84,-30.57 -44.3,-42.61l-6.33 -53.73 -215.18 2.78 10.85 31.49z"/>
    <path class="fil36" d="M1954.18 2769.93c2.71,130.62 -66.91,-14.82 -59.67,143.59l-30.74 -5.56c-14.47,36.13 6.33,13.9 -18.99,31.5 -25.32,-21.31 -31.64,-21.31 -75.95,-22.23 9.04,40.76 1.81,21.3 12.66,46.31l126.58 -0.92c19.89,-51.88 11.75,-74.11 35.26,-100.98l44.3 -46.32c22.61,-24.08 -8.13,-13.89 97.65,-42.61l-17.18 -30.57c-0.9,-3.7 -3.62,-4.63 -5.42,-6.48 43.39,-16.68 47.91,-1.86 65.09,-43.54 38.88,-96.35 -4.52,-130.62 -28.93,-157.49 -44.3,4.63 -19.89,-14.82 -46.11,45.4 -33.45,79.66 -53.34,105.6 -50.63,187.12l-47.92 2.78z"/>
    <path class="fil36" d="M1286.03 2085.34c35.26,38.91 44.3,19.45 84.08,29.64 -0.9,0.93 10.85,17.61 -92.22,45.4 -31.64,8.33 -63.29,20.38 -66.9,55.58 -9.05,82.45 65.09,49.1 159.12,25.94 62.39,-15.75 25.32,0 63.29,-31.5 54.25,-45.39 -2.71,32.42 31.65,-32.42 -38.88,-22.23 -17.18,0.92 -20.8,-45.39l-2.71 -59.29 27.12 -4.63c33.46,-9.27 14.47,26.86 26.22,-23.16 30.74,5.55 26.22,13.89 26.22,-12.05 -106.68,11.12 -141.95,13.9 -235.07,51.88z"/>
   </g>
   <g>
    <path class="fil37" d="M1173.92 3062.67l1582.22 -3.71 -0.9 -7.41c-19.89,-64.85 26.22,-48.17 -74.14,-52.8l-240.5 13.89c-72.33,21.31 -188.96,33.35 -266.72,-14.82l-21.7 -9.26c-123.86,-32.43 22.61,8.33 -128.38,10.19l116.63 -184.35c-35.26,-29.65 -36.17,-12.04 -55.15,-41.69 -105.78,28.72 -75.04,18.53 -97.65,42.61l-44.3 46.32c-23.51,26.87 -15.37,49.1 -35.26,100.98l-126.58 0.92c-10.85,-25.01 -3.62,-5.55 -12.66,-46.31l0 1.85c-27.12,42.61 5.43,16.67 -50.63,31.5l-141.95 -114.88 22.61 -87.07 -50.63 -30.57c-33.46,-14.83 -66.91,-10.2 -98.55,-2.78l-111.21 7.41c0,38.9 8.14,109.31 -3.62,141.73l-21.7 38.91c-12.66,51.88 12.66,22.23 12.66,22.23 -59.67,2.78 -60.58,14.83 -110.3,50.95 4.52,44.47 18.08,55.59 34.35,88.94 -60.57,-15.75 -50.63,-28.72 -75.94,-2.78z"/>
    <path class="fil37" d="M1197.42 2824.59c16.28,27.79 -5.42,-31.5 16.28,34.27 0.9,2.78 -0.91,14.83 -1.81,15.75l101.26 -12.04 9.04 -49.1c8.14,-30.57 -2.71,-14.82 16.28,-26.86 -6.33,-42.62 -0.91,-17.6 -13.56,-39.84l-26.22 -22.23c-108.5,37.05 -52.44,25.01 -101.27,100.05z"/>
   </g>
   <g>
    <path class="fil38" d="M2607.86 437.32c20.8,19.45 13.57,4.63 19.9,17.6 10.84,25.01 33.45,-4.63 -10.85,14.82 17.17,26.87 9.04,0 -12.66,22.23 -30.74,30.57 -30.74,42.62 -62.39,45.4 -43.4,3.7 -14.46,-16.68 -84.08,-29.65l-5.43 24.09c-95.83,0.93 -18.08,-5.56 -49.72,28.72l63.29 -4.64c9.94,13.9 4.52,8.34 17.17,21.31l45.21 29.65c2.71,1.85 6.33,2.77 9.04,3.7 2.71,0.93 6.33,2.78 9.04,3.71 84.09,45.39 68.72,238.07 45.21,301.07 -56.06,13.89 -79.56,0 -121.15,16.67 -49.73,19.46 -36.17,27.79 -104.88,30.57l0 -12.04c-3.62,36.13 -12.66,147.29 0,176.94 32.55,76.89 55.15,-27.79 73.23,11.11l26.22 101.91c14.47,40.76 25.32,112.09 4.52,130.61 5.43,46.32 17.18,-19.45 -14.46,-1.85l4.52 126.92 6.33 20.38c132.9,52.8 17.17,-67.63 118.44,59.28 0.9,-7.41 18.98,-79.66 20.79,-82.44 16.28,-38.91 26.22,-35.21 71.43,-47.25 41.59,-3.7 9.04,-7.41 12.66,-44.46 3.61,-39.84 -7.24,0.92 4.52,-8.34 1.8,-0.93 6.33,2.78 18.08,-12.04l9.94 -12.97c-10.84,-19.46 -4.52,3.7 -10.84,-26.87 -5.43,-26.86 6.32,-38.91 14.46,-82.45l26.22 -127.84c14.47,-19.45 29.84,-27.79 17.18,-55.58 -8.14,-198.24 -42.49,-246.41 -97.65,-381.67 -20.79,-50.02 -22.6,-77.81 -18.98,-141.73 35.26,-15.75 30.74,27.79 28.93,-9.26 -0.91,-0.93 -20.8,-37.06 -26.22,-49.1 -0.9,-4.63 -24.41,-59.29 40.68,-40.76 -23.5,-35.21 -40.68,-53.73 -75.94,-65.78l-35.26 7.42c18.98,19.45 11.75,11.11 23.5,42.61z"/>
    <path class="fil38" d="M545.55 2769.01l56.05 12.96c-15.37,35.21 -3.61,2.78 -24.41,8.34l-23.51 8.34c35.27,19.45 50.64,18.53 69.62,58.36 25.32,-18.53 33.46,-53.73 121.16,-62.07 10.85,-8.33 10.85,-8.33 25.31,-20.38 75.95,-62.99 65.1,-71.33 94.93,-31.49 -4.52,20.38 14.47,0 -18.98,21.3l-19.89 9.27c62.38,-2.78 58.77,-11.12 68.71,22.23 0,0.93 0.91,3.71 0.91,4.63 9.04,-3.7 27.12,-9.26 42.49,-15.75 -2.71,-1.85 -5.43,-11.11 -6.33,-9.26l-13.56 -21.31c46.11,-26.86 53.34,-62.06 98.55,-82.44 2.71,-37.99 1.81,-35.21 14.46,-63 36.17,-7.41 23.51,0 50.64,12.97l22.6 10.19c1.81,0 11.75,0 16.27,0.93l-37.97 -36.13 2.71 -113.94 -24.41 -8.34 -37.97 14.82c5.42,-17.6 -2.71,-8.34 11.75,-22.23l-38.88 1.85c-6.33,16.67 -3.61,12.97 -10.85,26.86 -19.89,40.77 -3.61,-23.15 -77.75,47.25l-39.78 38.91c41.59,-16.68 49.72,-13.9 77.75,-36.13l12.66 62.99c-3.62,2.78 -9.04,0.93 -11.75,6.49l-75.95 52.8c-104.88,-24.08 -56.06,-24.08 -66.91,-75.04 -28.93,10.19 -50.63,18.53 -84.98,20.38 18.98,-21.3 14.46,-12.96 24.41,-43.54 -46.11,36.13 -25.32,31.5 -84.09,35.21 -21.7,5.56 9.04,-12.97 -16.27,9.26 -6.33,5.56 -9.95,7.41 -16.27,18.53 -17.18,29.64 -15.38,27.79 -18.09,65.77 -1.81,2.78 -14.46,27.79 -15.37,28.72 -56.96,55.58 -13.56,23.16 -37.07,1.85 -34.35,1.85 -180.82,-117.65 -216.08,-145.44 -0.91,-74.11 4.52,-62.07 23.5,-114.87 -80.46,1.85 -47.92,50.95 -144.66,76.89 -1.81,-103.75 21.7,-39.83 56.96,-126.91l-62.38 19.45 -16.28 166.75c17.18,-12.97 68.72,-30.57 89.51,35.2 0,-0.93 47.92,-16.68 14.47,-31.5 22.6,42.62 -7.23,2.78 26.22,26.87l185.34 106.53c37.07,23.16 2.72,-20.38 33.46,26.87z"/>
    <path class="fil38" d="M745.36 2023.27l0.9 34.28c-1.8,2.78 -6.32,2.78 -7.23,7.41 -9.04,37.98 -2.71,-16.67 -29.84,39.83 -22.6,47.25 -12.65,24.09 -18.98,66.7l52.44 -12.04c6.33,-37.05 -28.03,-75.96 92.22,-71.33 -37.97,89.86 -19.89,53.73 -6.33,71.33 18.99,0.93 292.94,-48.17 330.91,-59.29 124.77,-38.91 156.42,-80.59 296.55,-97.27 -25.31,-15.75 -50.63,-12.04 -71.42,-9.26 0,0 -40.69,7.41 -50.63,7.41 -32.55,0.93 -67.81,-2.78 -103.07,-21.31 -48.83,11.12 -41.59,5.56 -82.28,8.34 -62.38,5.56 -16.27,-1.85 -75.95,18.53 -3.61,-1.85 -7.23,-9.27 -8.13,-6.49 -4.52,7.41 -5.43,-19.45 -55.15,-25.93 -39.79,-4.64 -69.62,9.26 -113.92,13.89 0,-95.42 1.8,-88.93 -65.1,-118.57 -36.17,8.33 -16.28,11.11 -59.67,29.64 25.31,9.26 24.41,27.79 36.16,-9.26 -63.29,62.99 -75.04,84.3 -61.48,133.39z"/>
    <path class="fil38" d="M1515.68 1326.64c-10.85,52.8 -59.68,28.72 -182.64,50.02 -75.04,12.05 -143.75,-24.08 -114.82,47.25 18.08,45.39 11.75,-1.85 27.12,66.7 -24.41,21.3 -15.37,14.82 -21.7,55.58l-78.66 3.71 -15.37 43.54 67.81 -8.34c-28.02,31.49 15.37,11.11 -29.83,29.64 -21.7,9.27 -21.7,3.71 -47.02,2.78l2.72 25.94 80.46 -20.38c44.31,-92.64 80.47,-68.55 118.44,-79.67 31.65,-9.26 7.24,-0.93 28.03,-12.97l15.37 -11.11c104.88,-76.89 81.37,-38.91 115.73,-63 -56.06,-25.94 -25.32,12.04 -48.82,-43.54 44.3,-32.42 56.96,-31.49 117.53,-45.39 51.54,-48.17 128.39,-2.78 171.79,-39.83l-206.14 -0.93z"/>
    <path class="fil38" d="M701.96 1592.51c-2.71,48.17 0.91,7.41 -9.94,27.79 -72.33,131.55 28.02,149.15 -125.68,164.89 2.72,-31.49 14.47,-74.11 14.47,-76.88 -0.91,-28.72 5.42,-21.31 -43.4,-34.28 -35.26,6.48 -12.66,-12.04 -27.12,30.57l41.59 4.63c0.9,27.79 -3.62,43.54 14.46,74.11 26.22,43.54 53.35,37.98 77.76,37.98 17.18,0 46.11,3.71 78.66,5.56 42.49,6.49 96.74,-25.01 140.14,-48.17 59.67,-32.42 84.08,-41.69 152.79,-54.66 -26.22,-55.58 -36.16,-20.38 -158.22,-25.01 -224.22,-8.34 -107.59,-35.2 -113.92,-119.5l-41.59 12.97z"/>
   </g>
   <g>
    <path class="fil39" d="M1085.31 3065.45l-204.33 0c184.44,-167.68 163.65,-198.25 199.81,-232.52 20.8,-19.46 70.52,-44.47 96.74,-60.22 -12.65,49.1 -33.45,95.42 -47.92,145.44l-44.3 147.3zm25.32 25.93c0,-93.56 -2.71,-25.01 18.08,-50.02 9.95,-7.41 63.29,-188.98 68.71,-216.77 48.83,-75.04 -7.23,-63 101.27,-100.05 47.92,-27.79 94.93,-30.57 146.47,-47.25 69.61,-23.15 70.52,-54.65 116.63,-84.3 39.78,-46.31 28.03,-31.49 72.33,-68.55 32.55,-26.86 12.66,-11.11 36.16,-40.76 25.32,-32.42 4.52,-25.01 29.84,-26.86l25.32 -90.79 -15.37 1.86c-9.05,12.04 -66.91,109.31 -71.43,119.5l-9.04 32.42 -57.87 0.93c-9.94,15.75 -62.38,70.4 -74.14,82.44 -41.59,41.69 -69.61,33.35 -108.49,57.44 -100.36,18.53 -130.2,43.54 -217.9,73.18 -72.33,25.02 -31.64,4.64 -86.79,50.95 -31.65,25.94 -54.25,53.73 -90.41,68.56 -1.81,30.57 7.23,3.7 -9.95,45.39 -28.93,68.55 -141.04,168.6 -215.18,173.23 -29.84,1.85 -47.02,-0.93 -72.33,-8.34l-15.37 -6.48c-1.81,0 -4.52,-1.85 -5.43,-1.85 -34.35,-8.34 16.28,-27.8 -12.66,0.92 -36.16,18.53 -20.79,13.9 -71.42,15.75l-545.19 -6.48 -12.66 -164.9 1.81 -164.89c3.62,-92.64 -28.03,-147.3 23.51,-215.85 28.93,-38.91 69.61,-95.42 113.01,-115.8 0,-31.49 -1.81,-66.7 34.36,-82.44 -4.52,-73.19 55.15,-168.6 94.03,-231.6 23.51,-39.83 100.36,-176.94 128.39,-190.83 13.56,-23.16 18.98,-31.5 23.5,-50.03 39.78,-17.6 12.66,3.71 31.65,-29.64 0.9,-0.93 10.85,-37.05 11.75,-41.69 6.33,-28.71 10.85,-43.54 14.47,-73.18 14.46,-42.61 -8.14,-24.09 27.12,-30.57 1.81,-1.85 5.43,-5.56 7.23,-6.48 31.65,-24.09 102.17,-62.07 157.32,-75.04l41.59 -12.97 12.66 -12.04c37.07,-31.5 29.84,-25.94 72.33,-51.88 43.4,-25.01 24.41,-25.94 77.75,-48.17 5.43,-12.04 2.72,-8.34 18.99,-20.38 0,-0.93 20.8,-13.9 21.7,-14.82 31.65,-16.68 34.36,-16.68 66,-20.38 34.36,-47.25 68.72,-32.43 122.96,-58.37 4.52,-5.55 332.72,-25.01 379.74,-26.86l206.14 0.93c28.03,13.89 13.56,-12.05 25.31,24.08 40.69,-34.27 198.91,37.06 226.94,73.18 73.23,0.93 146.47,40.77 128.39,135.26 -8.14,38.9 -9.04,13.89 2.71,60.21l-124.77 -3.71c-179.92,7.42 -332.72,19.46 -515.35,14.83 -67.81,11.11 -122.97,7.41 -193.49,25.94 -65.09,16.67 -85.89,36.12 -157.32,53.72l-98.55 12.97c-68.71,12.97 -93.12,22.24 -152.79,54.66 -43.4,23.16 -97.65,54.66 -140.14,48.17l33.45 17.6c-7.23,6.49 -28.03,23.16 -29.84,25.94 -17.18,16.68 -7.23,5.56 -21.7,24.09 91.32,-11.12 25.32,-29.65 158.23,-89.86 30.74,-13.9 141.94,-45.39 176.3,-52.8l385.16 -85.23 170.88 3.7c42.49,-27.79 103.98,-14.82 159.13,-11.11l39.78 1.85c47.92,-4.63 72.33,3.71 102.17,1.85 21.69,-1.85 155.51,-41.68 249.53,0 41.59,-2.78 33.46,-4.63 75.05,12.05 60.57,24.08 23.5,-1.86 51.53,32.42 0,0 51.54,-16.68 32.55,88.93 -7.23,39.84 -24.41,66.7 -37.97,95.42l-47.92 7.41c12.66,30.57 11.75,15.75 4.52,22.23 14.47,21.31 -25.32,20.38 30.74,15.75 22.6,-28.72 55.15,-60.21 82.28,-94.49l-13.57 -129.69c-27.12,-21.31 -40.68,-42.62 -58.76,-72.26 -28.03,2.78 -13.57,11.12 -27.13,-3.71 -149.18,-12.96 -102.16,-0.92 -88.6,-129.69l-27.13 -28.72 -0.9 -2.77c-19.89,-21.31 -35.26,-39.84 -71.43,-65.78l-94.03 -38.91 98.55 -22.23c33.46,-6.48 57.87,-14.82 92.22,-21.3 87.71,-14.83 103.08,-4.64 182.64,-0.93 23.51,21.31 12.66,4.63 27.12,38.91 0.91,3.7 7.24,27.79 9.95,37.98 8.14,31.49 11.75,56.51 16.27,88.93 9.04,84.3 21.7,134.32 35.26,213.99 12.66,82.45 0.91,128.77 -0.9,215.85 -15.37,75.03 -49.73,88 -130.2,95.42l-97.64 8.33c43.4,0.93 58.77,-15.75 64.19,22.24l122.96 -4.64c0,-20.38 -3.61,-13.89 19.89,-9.26 15.37,-28.72 36.17,-51.88 55.16,-75.96l4.52 -84.3 -4.52 -177.87c-28.94,-131.54 -45.21,-222.33 -53.35,-362.21 -106.68,-70.4 -103.07,-50.95 -242.3,-41.69l-149.18 36.13c25.31,-25.94 72.33,-79.67 106.68,-93.56 9.95,-40.76 -10.85,-15.75 18.99,-38.91 -47.02,12.04 -98.55,72.26 -130.2,104.68l-37.97 41.69c-62.38,-1.86 -96.74,16.67 -152.8,-27.79l-81.37 -13.9c-8.14,-38.91 -0.9,-213.07 -97.64,-273.28 36.16,125.06 59.67,-10.19 77.75,264.02 -46.11,-22.24 -108.49,-16.68 -173.59,-8.34 -0.91,-66.7 -10.85,-164.9 -59.67,-194.54l1.8 25.94c-4.52,-2.78 -9.04,-7.41 -11.75,-10.19 -87.7,-70.41 24.41,-33.35 -31.64,-21.31 18.98,88.93 70.52,71.33 67.81,196.39 -100.36,33.35 -199.82,33.35 -303.79,33.35 -99.46,0 -180.83,52.81 -266.72,85.23 -94.03,86.15 -188.96,138.03 -307.4,192.69 -238.69,111.16 -109.4,111.16 -223.32,282.54 -253.16,380.74 -176.31,337.2 -263.1,496.54 -37.07,66.7 -72.33,61.14 -103.98,144.51l10.85 -2046.36 6.33 -390.93 1043.36 -12.97c21.7,-27.79 -48.82,-9.26 28.94,-25.94 71.42,39.83 134.71,14.82 215.18,8.34 67.81,-5.56 148.28,-20.38 210.66,0.92 141.95,29.65 517.16,1.86 688.04,1.86 216.09,0.92 488.23,-23.16 696.18,-0.93 51.54,21.31 40.69,19.45 53.34,91.71 7.24,46.32 5.43,85.23 8.14,134.33 35.26,-23.16 4.52,20.38 28.93,-22.24 9.04,-345.53 62.39,-232.52 -381.54,-237.15 -354.42,-4.63 -763.08,12.04 -1126.54,14.82 -503.6,4.63 -1007.2,12.97 -1508.09,18.53l5.43 1535c0.9,252.91 -0.91,506.73 0,759.63 0.9,80.6 -24.42,729.99 -4.52,747.59 13.56,12.04 239.59,0.92 266.71,1.85 95.84,2.78 193.49,-1.85 292.04,1.85 127.48,3.71 392.39,7.41 543.38,-2.78z"/>
    <path class="fil39" d="M2135.91 1928.78l-227.84 20.38c-103.07,14.83 -265.81,55.59 -358.04,47.25 -42.49,22.23 -46.11,3.7 -94.03,6.48 -140.13,16.68 -171.78,58.36 -296.55,97.27 -37.97,11.12 -311.92,60.22 -330.91,59.29 0,28.72 -6.33,20.38 23.51,19.45 59.67,-18.52 154.6,-18.52 226.03,-32.42 82.27,-16.67 140.14,-42.61 207.95,-61.14 93.12,-37.98 128.39,-40.76 235.07,-51.88l165.46 -15.74c66,-30.58 75.94,-21.31 143.75,-22.24 74.14,-1.85 89.51,-26.86 141.05,-7.41 -3.62,2.78 -9.95,0.93 -12.66,6.49l-22.6 12.04c-33.46,17.6 0,-20.38 -30.74,17.6 18.98,15.75 18.08,3.71 14.46,50.02 0,0 -14.46,47.25 -14.46,47.25 -84.99,88 -138.33,121.35 -280.28,158.41l-14.47 28.72 36.17 -7.41c56.96,-29.65 54.24,-18.53 110.3,-31.5l65.1 -26.87c16.27,-16.67 21.7,-21.3 38.87,-35.2 21.7,-17.6 27.13,-25.01 47.02,-29.64 27.12,-52.81 28.03,-61.14 95.84,-75.96l-7.24 -2.78c3.62,-2.78 8.14,-12.05 9.95,-9.27 0.9,2.78 6.33,-6.48 8.14,-8.33 66,-74.12 -35.26,61.14 15.37,-19.46l-54.25 -5.56 13.56 -84.3c41.59,-7.41 86.8,-9.26 126.58,-14.82 126.58,-16.67 92.22,-35.2 96.74,-45.39l-38.88 -3.71 -37.97 20.38z"/>
    <path class="fil39" d="M1493.07 2341.02c-47.01,27.79 -227.84,60.21 -287.51,59.29 -30.74,28.72 -110.3,32.42 -161.84,38.91l45.21 20.38 24.41 2.78c19.89,-29.65 78.66,-19.46 113.92,-13.9 37.97,-35.2 108.5,-38.91 163.65,-25.01 28.93,-20.38 81.37,-29.65 121.15,-48.17 33.45,-14.83 77.76,-49.1 98.55,-66.7l-117.54 32.42z"/>
   </g>
   <g>
    <path class="fil40" d="M44.66 467.89l-10.85 2046.36c31.65,-83.37 66.91,-77.81 103.98,-144.51 86.79,-159.34 9.94,-115.8 263.1,-496.54 113.92,-171.38 -15.37,-171.38 223.32,-282.54 118.44,-54.66 213.37,-106.54 307.4,-192.69 24.41,-37.06 1.81,-101.9 1.81,-169.53l-101.26 0 0 -101.9 -101.27 0 0 -100.97 -202.52 0 3.62 -100.98 -104.88 0 0 -101.9 -101.27 0 3.62 -100.97 -104.88 0 0 -202.88 -101.26 0c-0.9,-3.71 -0.9,-16.68 -0.9,-20.38 -8.14,-56.51 32.54,8.34 -8.14,-27.79 -70.52,-63 -25.32,-8.34 -41.59,-2.78 66,35.2 71.42,-0.93 50.63,75.96 -19.89,6.49 -21.7,17.6 -59.67,-45.39 -8.14,-12.04 -11.76,-18.53 -18.99,-30.57z"/>
    <path class="fil40" d="M1129.61 2918.15c14.47,-50.02 35.27,-96.34 47.92,-145.44 -26.22,15.75 -75.94,40.76 -96.74,60.22 -36.16,34.27 -15.37,64.84 -199.81,232.52l204.33 0 44.3 -147.3z"/>
   </g>
   <path class="fil41" d="M44.66 467.89c7.23,12.04 10.85,18.53 18.99,30.57 37.97,62.99 39.78,51.88 59.67,45.39 20.79,-76.89 15.37,-40.76 -50.63,-75.96 16.27,-5.56 -28.93,-60.22 41.59,2.78 40.68,36.13 0,-28.72 8.14,27.79 0,3.7 0,16.67 0.9,20.38l101.26 0 0 202.88 104.88 0 -3.62 100.97 101.27 0 0 101.9 104.88 0 -3.62 100.98 202.52 0 0 100.97 101.27 0 0 101.9 101.26 0c0,67.63 22.6,132.47 -1.81,169.53 85.89,-32.42 167.26,-85.23 266.72,-85.23 103.97,0 203.43,0 303.79,-33.35 2.71,-125.06 -48.83,-107.46 -67.81,-196.39 -88.61,-51.87 -213.38,-302.92 -248.64,-424.28 -60.58,-203.8 -53.34,-400.19 -91.32,-594.73l-1043.36 12.97 -6.33 390.93z"/>
   <path class="fil42" d="M2997.54 3046.92c-54.24,-19.46 -53.34,32.42 -25.31,-57.44 9.04,-28.71 9.94,-38.9 23.51,-62.99l1.8 120.43zm-37.07 -536.37c-33.45,-56.51 1.81,-51.88 -3.61,-179.72 -3.62,-83.37 -2.71,-132.47 2.71,-215.85 11.75,-157.48 12.66,-236.22 42.49,-377.03 9.95,122.28 3.62,265.87 1.81,390 -5.42,267.73 -25.31,192.69 -43.4,382.6zm34.36 -2236.27l5.43 729.05 -27.13 12.97c14.47,40.76 18.99,58.36 21.7,113.95 -14.46,-20.38 -6.33,-14.82 -18.08,-33.35 -18.99,-31.5 6.33,-20.38 -26.22,-28.72 53.34,171.38 56.06,210.29 49.73,426.13 -8.14,269.58 -45.21,249.2 -51.54,300.15 -1.81,16.67 4.52,95.42 4.52,120.43l-27.12 -75.97c-21.7,44.47 0,96.35 -0.91,151.93 15.37,47.25 7.24,411.31 5.43,491.91 -4.52,169.52 -83.18,341.83 -83.18,347.39 -2.71,59.28 -21.7,21.3 22.6,45.39 -4.52,-30.57 1.81,-52.8 26.22,-76.89 68.72,-149.15 59.67,-234.37 104.88,-299.22 23.51,291.81 -23.51,255.68 -68.71,476.16 -3.62,20.38 0.9,12.97 -7.24,29.64 -18.08,42.61 -5.42,15.75 -23.5,31.5 -6.33,22.23 29.83,8.34 -31.65,17.6 -39.78,6.48 -14.46,2.78 -42.49,-3.71l-71.43 8.34 -1582.22 3.71c-73.24,12.04 -29.84,13.89 -45.21,-21.31 -20.79,25.01 -18.08,-43.54 -18.08,50.02 355.32,2.78 724.2,6.49 1076.81,-12.04l619.33 8.34c100.36,0.93 158.23,28.72 227.84,-22.23 15.37,-22.24 -18.98,-2185.32 -2.71,-2457.68 6.33,-109.31 -7.23,-239 -8.14,-355.73 -24.41,42.62 6.33,-0.92 -28.93,22.24z"/>
   <path class="fil43" d="M1192.9 328.01c-7.23,-48.18 5.43,-59.29 -5.42,-105.61 -13.56,-61.14 -34.36,-45.39 -36.17,-130.62 123.87,-7.41 113.02,44.47 114.83,96.34 0.9,47.25 35.26,73.19 26.22,143.59 2.71,-12.04 6.33,-3.7 -9.95,-22.23 -55.15,-61.14 -44.3,-23.16 -54.25,-15.75l-24.41 25.01c-1.81,-2.78 -6.33,7.41 -10.85,9.27zm-49.72 -234.38c10.85,755 303.78,898.59 332.72,994.93 48.82,29.64 58.76,127.84 59.67,194.54 65.1,-8.34 127.48,-13.9 173.59,8.34 -18.08,-274.21 -41.59,-138.96 -77.75,-264.02 -32.55,-19.45 -71.43,-56.51 -90.42,-104.68 -18.08,-45.39 -45.2,-106.53 -42.49,-147.29 -9.04,-59.29 -28.93,-135.26 -46.11,-180.65 -47.92,40.76 -38.88,-43.54 -25.32,66.7 2.72,20.38 24.41,-15.75 7.24,51.88 -6.33,-50.95 -26.22,-68.55 -46.11,-95.42 -0.91,-2.78 -3.62,-5.56 -4.53,-7.41 -11.75,-17.6 -8.13,-12.04 -15.37,-31.5 -17.17,-51.87 0,-33.35 -30.74,-71.33 -1.8,-1.85 -18.08,-17.6 -25.31,-25.94 -15.37,-18.52 -15.37,-19.45 -28.03,-38.9 9.04,-19.46 12.66,-32.43 22.6,-53.73l24.42 -42.62c1.8,-2.78 4.52,-5.55 5.42,-7.41l25.32 -63.92c0.9,-4.63 3.61,-14.82 4.52,-18.52 27.12,-119.51 -48.83,-5.56 -82.28,-146.37l-9.04 -28.72 -132 12.04z"/>
   <path class="fil44" d="M2414.38 2051.99l11.75 10.19c-0.9,0.93 -42.49,36.13 -42.49,36.13l-45.21 148.22c-15.37,52.8 -9.94,14.82 -17.17,50.02 -15.37,71.34 8.13,84.3 -28.94,105.61 -48.82,27.79 -18.08,10.19 -40.68,-17.6l0 69.48c-58.77,12.97 -20.8,21.3 -59.67,-5.56l-1.81 62.07c-4.52,-0.93 -9.04,-8.34 -10.85,-5.56l-16.28 -7.41c-43.39,-8.34 31.65,-34.28 -31.64,15.75 -22.6,18.52 -1.81,13.89 -32.55,21.3 24.41,26.87 67.81,61.14 28.93,157.49 -17.18,41.68 -21.7,26.86 -65.09,43.54 1.8,1.85 4.52,2.78 5.42,6.48l17.18 30.57c33.45,-7.41 7.23,0 25.31,-13.89 39.79,-30.57 -22.6,8.33 25.32,-25.02 56.06,13.9 43.4,23.16 88.6,43.54 23.51,-12.04 30.74,-19.45 54.25,-31.49l19.89 -67.63c-36.16,-4.63 -29.83,-1.85 -66,17.6 -1.81,0.93 -5.42,3.71 -8.14,4.63 -41.59,-57.43 -46.11,-62.06 -63.28,-129.69l56.96 -15.75c-0.91,-6.48 -1.81,-13.89 -1.81,-12.04 0.9,12.97 -11.76,-0.93 3.61,-30.57 18.99,-36.13 106.69,-51.88 150.99,-63.92l-17.18 113.94c44.31,29.65 9.05,48.18 61.49,85.23 28.02,19.45 12.65,7.41 37.06,16.68l31.65 -99.13c25.31,-32.42 52.44,-53.73 66,-108.38l-16.27 -13.9c-1.81,-1.85 -12.66,-11.11 -15.37,-13.89 -19.9,-25.02 -17.18,44.46 -14.47,-33.35 0.9,-20.38 129.29,-156.56 150.99,-183.43 29.84,44.47 -1.81,-2.78 32.55,20.38l19.89 -145.44 -159.13 137.11c-1.81,1.85 -4.52,3.7 -6.33,5.56 -52.44,44.46 -34.35,38.9 -47.01,65.77 -15.37,33.35 19.89,50.02 -118.44,45.39 63.29,-192.69 53.34,-42.61 81.37,-155.63 26.22,-101.9 41.59,-113.95 36.16,-173.23 -52.44,5.56 -41.59,9.26 -79.56,39.83z"/>
   <path class="fil45" d="M2452.35 87.15l118.45 63.92 -9.05 78.74c4.52,55.58 0,65.77 43.4,70.4 9.04,-13.89 3.62,-6.48 7.24,-15.74 17.17,-51.88 -12.66,22.23 4.52,-16.68 45.2,25.01 67.81,64.85 67.81,64.85l47.01 32.42c11.75,11.12 6.33,8.34 27.12,26.87l33.46 25.93c-25.32,33.35 -21.7,5.56 -29.84,44.47 -0.9,2.78 -0.9,18.53 -0.9,20.38 -11.76,51.88 8.13,-68.55 -5.43,11.12 -0.9,87.08 3.62,25.01 -16.27,48.17 0.9,4.63 3.61,22.23 4.52,25.01 0,0 12.66,26.87 14.46,31.5 188.97,28.72 37.07,16.67 141.95,-3.71l10.85 -165.82c9.95,-39.83 -17.18,-16.67 21.7,-37.05l-66.9 -175.09c0,-1.85 -1.81,-5.56 -1.81,-7.41l-6.33 -25.01c-9.95,-87.08 21.7,-93.57 24.41,-96.35 -18.08,21.31 -11.75,-19.45 -13.56,18.53l-75.05 -12.04c-36.16,-13.9 -111.2,-0.93 -167.26,5.56 -41.59,4.63 -172.69,-13.9 -174.5,-12.97z"/>
   <path class="fil46" d="M1954.18 2769.93l47.92 -2.78c-2.71,-81.52 17.18,-107.46 50.63,-187.12 26.22,-60.22 1.81,-40.77 46.11,-45.4 -0.9,-66.7 28.03,-61.14 47.01,-91.71 1.81,-2.78 35.27,-101.9 36.17,-111.16l48.82 2.78c29.84,-72.26 61.48,-46.32 59.68,-147.3 -36.17,-13.89 -28.03,-0.92 -44.31,-9.26 9.95,-48.17 37.98,-25.94 56.06,-112.09 -24.41,15.75 -28.93,24.08 -40.69,33.35 -82.27,62.06 -43.39,-4.64 -97.64,66.7 2.71,12.96 19.89,35.2 20.79,44.46 6.33,59.29 -80.47,27.79 -112.11,26.87 0.9,-0.93 3.62,0.92 3.62,1.85l-7.24 29.64c0,0 -3.61,0.93 -3.61,0.93l56.96 34.28c22.6,20.38 5.42,-0.93 19.89,25.93 -35.26,50.03 5.42,5.56 -77.76,41.69l-17.18 9.26c-22.6,-29.64 -10.84,-54.65 -37.97,-72.25 -37.97,12.04 -39.78,37.05 -46.11,72.25 4.52,1.86 28.03,11.12 30.74,12.97 23.51,18.53 4.52,-14.82 18.99,25.02 -47.02,33.35 -72.33,9.26 -127.48,41.68 -3.62,50.03 -4.52,18.53 8.13,50.03 5.43,12.97 9.95,17.6 15.37,27.79l11.76 20.38c-22.61,35.2 -45.21,22.23 -61.48,50.02 25.31,14.82 66.9,-1.85 102.16,-3.7 19.89,94.49 -14.46,103.75 -7.23,164.89z"/>
   <path class="fil47" d="M1756.18 1012.6c28.93,65.77 52.44,48.17 61.48,125.98 4.52,31.5 -3.62,54.66 8.13,82.45 0,1.85 1.81,4.63 2.72,6.49 0.9,0 2.71,2.78 3.61,2.78 0.91,0.92 3.62,0.92 4.52,0.92l33.46 30.57c21.69,-9.26 21.69,-10.19 50.63,-12.97 12.65,-75.96 8.13,68.56 -9.04,-22.23l0 -14.82c0,-0.93 0.9,-4.63 0.9,-5.56 0,-37.05 -43.4,-93.56 32.55,-65.77l51.53 24.08c0,-4.63 0.91,-16.67 0.91,-14.82l2.71 -42.61c0.9,-54.66 28.93,-47.25 -22.6,-47.25l35.26 20.38c1.81,1.86 5.42,5.56 9.04,8.34l25.31 -25.94c26.22,-13.89 -4.52,-4.63 37.98,-12.04 18.98,0 12.66,14.82 25.31,-12.04 45.21,-15.75 20.8,1.85 28.94,-34.28 19.89,-34.28 25.31,-29.64 89.5,-75.96 2.72,-44.47 4.53,-32.43 49.73,-66.7 0,-32.42 9.95,-45.39 -17.18,-52.81 -40.68,-37.98 -28.93,-78.74 -98.55,-40.76 -22.6,105.61 -1.8,12.05 10.85,130.62 -28.93,0 -37.97,1.86 -65.09,27.79 -2.72,2.78 -4.53,5.56 -7.24,7.42l-22.6 26.86c-32.55,29.64 -9.95,27.79 -44.3,16.68 -50.63,-15.75 11.75,-31.5 -63.29,-68.56 -3.62,145.44 -58.77,113.95 -88.61,116.73 0,-68.55 11.76,-51.88 13.57,-64.85 10.85,-64.85 17.17,-20.38 -13.57,-45.39 -58.76,21.3 5.43,-1.85 -43.39,42.61 -46.12,41.69 -27.13,-7.41 -45.21,29.65 -56.96,-18.53 -29.84,-10.19 -50.63,-37.99l12.66 63z"/>
   <path class="fil48" d="M1822.18 2242.82c30.74,41.69 -19.89,12.97 25.31,1.86l33.46 -14.82c18.98,57.43 7.23,34.27 4.52,48.17 -11.76,65.77 -35.27,37.98 -36.17,37.98 -2.71,0 -25.31,-11.12 -28.03,-12.04 23.51,45.39 -31.64,91.71 -56.05,136.17l-9.95 28.72c-47.92,-29.64 -9.94,-18.53 -55.15,-12.04 -25.32,1.85 -4.52,-5.56 -29.84,26.86 -23.5,29.65 -3.61,13.9 -36.16,40.76 -44.3,37.06 -32.55,22.24 -72.33,68.55l24.41 -0.92c1.81,0 6.33,0 7.23,0 26.22,4.63 6.33,-6.49 25.32,12.04 79.56,72.26 -14.47,220.48 -14.47,220.48 18.08,24.08 7.24,17.6 37.98,33.35l63.28 5.56 9.95 -86.16c69.62,-0.92 100.36,16.68 127.48,75.97 18.99,44.46 -6.33,20.38 20.8,54.65l30.74 5.56c-7.24,-158.41 62.38,-12.97 59.67,-143.59l-19.89 10.19c-28.03,39.84 -32.55,35.2 -87.7,40.76 -54.25,-99.12 -154.61,-94.49 -169.07,-98.19 3.61,-44.47 -4.52,-37.98 -9.04,-75.97 -2.72,-25.01 -3.62,-10.19 -1.81,-36.12 0.9,-18.53 1.81,-37.99 28.93,-35.21 60.58,4.64 -34.36,-20.38 17.18,2.78 51.53,23.16 -13.56,37.98 62.38,49.1 0,-90.78 0.91,-75.04 26.22,-97.27 6.33,-34.28 27.13,-86.15 39.78,-125.06 19.89,-63.92 17.18,-67.63 87.7,-87.08l10.85 -84.3c-3.61,-3.7 -7.23,-10.19 -9.94,-12.97l-21.7 -29.64c62.38,9.26 2.71,-11.12 0,-12.97 -19.89,4.63 -25.32,12.04 -47.02,29.64 -17.17,13.9 -22.6,18.53 -38.87,35.2z"/>
   <path class="fil49" d="M1561.79 2592.99c-46.11,29.65 -47.02,61.15 -116.63,84.3 -51.54,16.68 -98.55,19.46 -146.47,47.25l26.22 22.23c12.65,22.24 7.23,-2.78 13.56,39.84 -18.99,12.04 -8.14,-3.71 -16.28,26.86l-9.04 49.1 -101.26 12.04c0.9,-0.92 2.71,-12.97 1.81,-15.75 -21.7,-65.77 0,-6.48 -16.28,-34.27 -5.42,27.79 -58.76,209.36 -68.71,216.77 15.37,35.2 -28.03,33.35 45.21,21.31 25.31,-25.94 15.37,-12.97 75.94,2.78 -16.27,-33.35 -29.83,-44.47 -34.35,-88.94 49.72,-36.12 50.63,-48.17 110.3,-50.95 0,0 -25.32,29.65 -12.66,-22.23l21.7 -38.91c11.76,-32.42 3.62,-102.83 3.62,-141.73l111.21 -7.41c31.64,-7.42 65.09,-12.05 98.55,2.78l50.63 30.57 -22.61 87.07 141.95 114.88c56.06,-14.83 23.51,11.11 50.63,-31.5 -80.46,-4.63 -65.09,-2.78 -112.11,-48.17l-14.46 -12.97c-30.74,-15.75 -19.9,-9.27 -37.98,-33.35 0,0 94.03,-148.22 14.47,-220.48 -18.99,-18.53 0.9,-7.41 -25.32,-12.04 -0.9,0 -5.42,0 -7.23,0l-24.41 0.92z"/>
   <path class="fil50" d="M2049.11 1410.01l-27.12 -38.91c97.65,17.61 66,27.8 113.92,63l-15.37 41.69 0.9 2.77c1.81,0 38.88,0.93 39.79,0.93 34.35,6.49 19.89,5.56 30.74,11.12 17.17,41.68 25.31,105.6 45.2,146.36 13.56,14.83 -0.9,6.49 27.13,3.71l48.82 -8.34c0,-88 -12.66,-88 -35.26,-163.04 48.82,-15.75 14.46,-3.7 44.3,-25.94 -0.9,-71.33 5.42,-47.24 -19.89,-111.16l26.22 -5.56c-79.56,-3.71 -94.93,-13.9 -182.64,0.93 -34.35,6.48 -58.76,14.82 -92.22,21.3l-98.55 22.23 94.03 38.91z"/>
   <path class="fil51" d="M1324 1743.51c1.81,30.57 9.04,70.4 7.24,90.78 -9.05,80.6 -32.55,-11.11 -12.66,73.19 4.52,1.85 65.09,12.97 65.09,12.97 38.88,16.67 9.05,-7.42 17.18,26.86 -49.72,-14.82 -70.52,-2.78 -104.88,-29.64 -26.22,-20.38 -44.3,-43.54 -41.59,-88.94 -9.04,19.46 -24.41,122.29 -23.5,151 35.26,18.53 70.52,22.24 103.07,21.31 9.94,0 50.63,-7.41 50.63,-7.41 20.79,-2.78 46.11,-6.49 71.42,9.26 47.92,-2.78 51.54,15.75 94.03,-6.48 -23.5,-23.16 7.24,-6.49 -34.35,-16.68 -20.8,-5.55 -32.55,-3.7 -54.25,-3.7 56.96,-1.85 35.26,-17.6 72.33,-25.01 47.01,-8.34 -16.27,22.23 81.37,-0.93 -45.2,-12.04 -5.42,-3.71 -11.75,-37.06l-84.09 13.9 -56.96 -1.85c2.72,-73.19 -38.87,-200.1 -103.07,-226.04l-35.26 44.47z"/>
   <path class="fil52" d="M1434.31 1083c56.05,-12.04 -56.06,-49.1 31.64,21.31 2.71,2.78 7.23,7.41 11.75,10.19l-1.8 -25.94c-28.94,-96.34 -321.87,-239.93 -332.72,-994.93l-10.85 -31.49 215.18 -2.78 204.33 -1.86 -2.71 -10.19c-62.38,-21.3 -142.85,-6.48 -210.66,-0.92 -80.47,6.48 -143.76,31.49 -215.18,-8.34 -77.76,16.68 -7.24,-1.85 -28.94,25.94 37.98,194.54 30.74,390.93 91.32,594.73 35.26,121.36 160.03,372.41 248.64,424.28z"/>
   <path class="fil53" d="M1465.05 1631.42c182.63,4.63 335.43,-7.41 515.35,-14.83l-19.89 -25.93 33.45 -4.64 -53.34 -78.74 5.42 -46.32 -64.19 24.09c-6.33,-25.01 3.62,-19.45 -26.22,-56.51l-74.14 27.79c-9.94,29.65 -6.33,26.87 -9.94,61.14 -11.76,91.71 -83.18,60.22 -167.27,73.19 -69.62,10.19 -96.74,0.92 -139.23,40.76z"/>
   <path class="fil54" d="M1521.1 2033.46c0,25.94 4.52,17.6 -26.22,12.05l9.04 64.84 43.4 81.52c9.04,45.4 -11.75,84.3 -28.93,125.99 30.74,-7.41 86.8,-20.38 100.36,-62.99 32.55,-10.19 43.4,-2.78 62.38,-15.75 56.06,-37.98 -18.08,31.5 17.18,-20.38l53.34 -90.79c-71.42,9.27 -71.42,0.93 -136.52,0 43.4,-21.3 56.06,-13.89 25.32,-59.28l74.14 -12.05c-58.77,-3.7 -70.53,9.27 -122.97,-6.48 47.02,0.92 55.16,-6.49 94.94,-32.42l-165.46 15.74z"/>
   <path class="fil55" d="M1686.56 2017.72c-39.78,25.93 -47.92,33.34 -94.94,32.42 52.44,15.75 64.2,2.78 122.97,6.48l-74.14 12.05c30.74,45.39 18.08,37.98 -25.32,59.28 65.1,0.93 65.1,9.27 136.52,0l-53.34 90.79c-35.26,51.88 38.88,-17.6 -17.18,20.38 -18.98,12.97 -29.83,5.56 -62.38,15.75 -2.71,2.78 -7.23,3.7 -6.33,8.33 10.85,54.66 -39.78,-23.15 12.66,16.68 141.95,-37.06 195.29,-70.41 280.28,-158.41 3.61,-37.98 12.65,-28.72 -26.22,-28.72 -17.18,65.77 2.71,32.42 -88.61,49.1l21.7 -92.64c9.04,-31.49 51.54,-30.57 83.18,-35.2l9.95 10.19c30.74,-37.98 -2.72,0 30.74,-17.6l22.6 -12.04c2.71,-5.56 9.04,-3.71 12.66,-6.49 -51.54,-19.45 -66.91,5.56 -141.05,7.41 -67.81,0.93 -77.75,-8.34 -143.75,22.24z"/>
   <path class="fil56" d="M452.42 1849.11c-4.52,18.53 -9.94,26.87 -23.5,50.03 20.79,11.12 0.9,19.45 -25.32,114.87l-19.89 58.36c-15.37,38.91 -18.99,18.53 -10.85,62.99 17.18,-15.74 30.74,-30.57 50.63,-47.24l36.17 -30.57c1.8,-2.78 4.52,-5.56 6.32,-8.34l31.65 -15.75c19.89,-30.57 11.75,-34.27 34.36,-65.77 20.79,-29.64 30.74,-31.5 34.35,-68.55 53.35,-22.23 68.72,-23.16 95.84,-12.04l-10.85 44.46 45.21 -4.63 8.13 -32.42c14.47,-18.53 4.52,-7.41 21.7,-24.09 1.81,-2.78 22.61,-19.45 29.84,-25.94l-33.45 -17.6c-32.55,-1.85 -61.48,-5.56 -78.66,-5.56 -24.41,0 -51.54,5.56 -77.76,-37.98 -18.08,-30.57 -13.56,-46.32 -14.46,-74.11l-5.43 74.11c2.71,77.82 14.47,44.47 16.28,64.85 3.61,41.69 -41.59,51.88 -65.1,71.33l-9.04 9.26c-23.51,22.24 9.94,25.94 -5.43,5.56 -25.31,-2.78 -57.86,32.42 -21.7,-30.57 14.47,-24.08 27.13,-6.48 28.94,-4.63 -47.02,-33.35 -25.32,7.41 -37.98,-50.03z"/>
   <path class="fil57" d="M1161.26 2653.21c27.12,13.89 82.27,-1.85 94.93,-7.41l14.47 -6.49c46.11,-27.79 23.51,-17.6 42.49,-42.61 1.81,-1.85 3.62,-5.56 5.43,-7.41l43.4 -43.54c-25.32,-18.53 18.98,-2.78 -44.31,-19.45 -3.61,-0.93 -19.89,0.92 -24.41,0.92l174.5 -34.27c-43.4,-50.03 -160.94,-18.53 -217.9,-13.9 -8.13,-14.82 -3.61,-23.16 -22.6,-30.57 -35.26,-5.56 -94.03,-15.75 -113.92,13.9 42.49,12.96 84.08,75.03 102.17,121.35l-65.1 25.01c8.14,34.28 -3.62,19.46 29.84,30.57 -57.87,0 -8.14,-2.78 -18.99,13.9z"/>
   <path class="fil58" d="M1556.36 228.88l-8.13 32.43c122.05,0 123.86,-18.53 212.47,29.64 11.75,-56.51 -0.91,-56.51 -7.24,-113.94 -72.33,-8.34 -3.61,3.7 -56.05,-25.02 61.48,-27.79 36.16,13.9 61.48,-38.9 -10.85,-3.71 3.61,-0.93 -29.84,-9.27l-99.45 -17.6 -75.05 -8.34 1.81 151z"/>
   <path class="fil59" d="M1934.29 2780.12c-138.33,14.82 -85.89,-8.34 -94.03,-95.41 -3.62,-37.99 -28.93,-93.57 -38.88,-154.71 -25.31,22.23 -26.22,6.49 -26.22,97.27 -75.94,-11.12 -10.85,-25.94 -62.38,-49.1 -51.54,-23.16 43.4,1.86 -17.18,-2.78 -27.12,-2.78 -28.03,16.68 -28.93,35.21 -1.81,25.93 -0.91,11.11 1.81,36.12 4.52,37.99 12.65,31.5 9.04,75.97 14.46,3.7 114.82,-0.93 169.07,98.19 55.15,-5.56 59.67,-0.92 87.7,-40.76z"/>
   <path class="fil60" d="M2114.21 1699.97c-13.56,16.67 -19.89,22.23 -33.45,47.24 22.6,75.97 79.56,106.54 169.07,81.52 -22.6,40.77 -29.84,29.65 -75.04,31.5l11.75 37.06 -37.97 4.63 25.31 6.48 38.88 3.71c-9.95,-17.6 -13.56,-14.82 6.33,-12.97l47.92 -7.41c13.56,-28.72 30.74,-55.58 37.97,-95.42 18.99,-105.61 -32.55,-88.93 -32.55,-88.93l-47.01 14.82c8.14,26.87 4.52,22.23 11.75,50.95 -68.71,-42.61 -56.05,55.58 -113.92,12.04 0,-3.7 -0.9,-9.26 0,-12.04 9.95,-53.73 23.51,-29.64 37.07,-46.32l0 -42.61 -13.56 24.09 -32.55 -8.34z"/>
   <path class="fil61" d="M2960.47 2510.55c18.09,-189.91 37.98,-114.87 43.4,-382.6 1.81,-124.13 8.14,-267.72 -1.81,-390 -29.83,140.81 -30.74,219.55 -42.49,377.03 -5.42,83.38 -6.33,132.48 -2.71,215.85 5.42,127.84 -29.84,123.21 3.61,179.72z"/>
   <path class="fil62" d="M2910.75 1108.01l-4.52 68.56c-7.24,37.98 -31.65,95.41 -10.85,138.03l-75.95 0c-43.4,28.71 -30.74,8.33 -34.36,59.28 21.7,16.68 7.24,-7.41 32.55,33.35 19.89,33.35 1.81,82.45 39.78,74.11 29.84,-13.89 13.57,-1.85 28.03,-33.35 5.43,-10.19 13.56,-38.9 16.28,-47.24 12.65,-36.13 18.98,-62.99 24.41,-108.39 5.42,-39.83 7.23,-85.22 12.66,-115.79 3.61,-23.16 24.41,30.57 2.71,-43.54 -6.33,-21.31 -12.66,-23.16 -30.74,-25.02z"/>
   <path class="fil63" d="M2230.84 2334.54l-48.82 -2.78c-0.9,9.26 -34.36,108.38 -36.17,111.16 -18.98,30.57 -47.91,25.01 -47.01,91.71 30.74,-7.41 9.95,-2.78 32.55,-21.3 63.29,-50.03 -11.75,-24.09 31.64,-15.75l16.28 7.41c1.81,-2.78 6.33,4.63 10.85,5.56l1.81 -62.07c38.87,26.86 0.9,18.53 59.67,5.56l0 -69.48c22.6,27.79 -8.14,45.39 40.68,17.6 37.07,-21.31 13.57,-34.27 28.94,-105.61 7.23,-35.2 1.8,2.78 17.17,-50.02 -31.64,28.72 -47.91,32.42 -58.76,84.3l-48.83 3.71z"/>
   <path class="fil64" d="M2794.11 1178.42l50.64 4.63c3.61,64.85 14.46,39.83 -12.66,93.56 47.92,-45.39 47.92,-178.79 47.92,-245.48 -0.91,-43.54 -18.99,-7.42 9.04,-36.13 0.9,-55.59 -1.81,-74.11 -15.37,-126.92 -25.32,-102.82 -37.98,-60.21 -37.98,-60.21 -10.84,149.15 11.76,225.11 -41.59,370.55z"/>
   <path class="fil65" d="M1956.89 1449.85l45.21 -10.19c-18.08,42.61 -128.39,67.62 69.62,144.51l-77.76 1.85 -33.45 4.64 19.89 25.93 124.77 3.71c-11.75,-46.32 -10.85,-21.31 -2.71,-60.21 18.08,-94.49 -55.16,-134.33 -128.39,-135.26 -18.99,11.12 -8.14,1.86 -17.18,25.02z"/>
   <path class="fil66" d="M1192.9 328.01c4.52,-1.86 9.04,-12.05 10.85,-9.27l24.41 -25.01c9.95,-7.41 -0.9,-45.39 54.25,15.75 16.28,18.53 12.66,10.19 9.95,22.23 9.04,-70.4 -25.32,-96.34 -26.22,-143.59 -1.81,-51.87 9.04,-103.75 -114.83,-96.34 1.81,85.23 22.61,69.48 36.17,130.62 10.85,46.32 -1.81,57.43 5.42,105.61z"/>
   <path class="fil67" d="M566.34 1899.14l35.26 5.56c-59.67,58.36 -82.27,124.13 -84.98,234.37l46.11 12.04c9.04,-50.95 15.37,-74.11 40.68,-124.13 18.08,-35.2 26.22,-68.55 47.92,-95.42l10.85 -44.46c-27.12,-11.12 -42.49,-10.19 -95.84,12.04z"/>
   <path class="fil68" d="M2605.15 300.21c1.81,2.78 6.33,2.78 7.24,6.49 2.71,17.6 7.23,5.56 10.84,12.97 12.66,22.23 7.24,-5.56 4.53,16.67 16.27,22.24 8.13,16.68 21.69,37.06 41.59,60.21 46.11,10.19 78.66,109.31 -18.98,-12.04 -20.79,-15.75 -32.55,-29.64 -65.09,-18.53 -41.58,36.13 -40.68,40.76 63.29,14.82 80.47,60.21 50.63,-12.97 120.25,33.35 -5.42,-6.49 50.63,12.97 13.56,-79.67 -6.33,40.76 5.43,-11.12 0,-1.85 0,-17.6 0.9,-20.38 8.14,-38.91 4.52,-11.12 29.84,-44.47l-33.46 -25.93c-20.79,-18.53 -15.37,-15.75 -27.12,-26.87l-47.01 -32.42c0,0 -22.61,-39.84 -67.81,-64.85 -17.18,38.91 12.65,-35.2 -4.52,16.68 -3.62,9.26 1.8,1.85 -7.24,15.74z"/>
   <path class="fil69" d="M1643.16 466.96l6.33 33.35 70.52 6.49c0.9,-101.9 -1.81,-119.51 -27.12,-198.25l-84.09 1.85c-0.9,69.48 28.03,63 34.36,156.56z"/>
   <path class="fil70" d="M1085.31 2482.76l-2.71 113.94 37.97 36.13 2.72 36.13c16.27,-12.97 10.85,-8.34 37.97,-15.75 10.85,-16.68 -38.88,-13.9 18.99,-13.9 -33.46,-11.11 -21.7,3.71 -29.84,-30.57l65.1 -25.01c-18.09,-46.32 -59.68,-108.39 -102.17,-121.35l-24.41 -2.78c9.94,25.93 18.99,23.16 -3.62,23.16z"/>
   <path class="fil71" d="M1908.07 2177.98c2.71,1.85 62.38,22.23 0,12.97l21.7 29.64c2.71,2.78 6.33,9.27 9.94,12.97 79.57,-14.82 -1.8,-6.48 83.18,-42.61 51.54,-23.16 67.81,-7.41 105.79,-50.95 -47.92,-45.4 -90.42,-1.86 -124.77,-37.98 -67.81,14.82 -68.72,23.15 -95.84,75.96z"/>
   <path class="fil72" d="M2135.91 1928.78l37.97 -20.38 -25.31 -6.48 37.97 -4.63 -11.75 -37.06c-41.59,-12.97 -47.02,-17.6 -78.66,-35.2l-19.89 -3.71c-68.72,-14.82 -43.4,-22.23 -91.32,-37.05 5.42,19.45 18.08,42.61 20.8,52.8l3.61 12.04c14.47,50.03 11.76,46.32 55.15,56.51 28.03,6.49 12.66,-1.85 34.36,5.56 40.69,12.97 0.9,-19.45 37.07,17.6z"/>
   <path class="fil73" d="M1398.14 155.7c35.26,27.79 28.03,32.42 68.71,36.13l-2.71 -98.2 -3.61 -16.67 94.02 0.92 -2.71 -20.38 -204.33 1.86 6.33 53.73c14.46,12.04 34.36,23.16 44.3,42.61z"/>
   <path class="fil74" d="M497.63 2033.46c-7.23,43.54 -1.81,49.1 -31.65,85.23 -60.57,76.89 -3.61,38.91 -54.24,72.26 2.71,1.85 4.52,3.7 5.42,5.56l22.6 32.42c69.62,-24.09 12.66,-15.75 56.06,-50.95 14.47,-24.09 7.23,-8.34 20.8,-38.91 2.71,-110.24 25.31,-176.01 84.98,-234.37l-35.26 -5.56c-3.61,37.05 -13.56,38.91 -34.35,68.55 -22.61,31.5 -14.47,35.2 -34.36,65.77z"/>
   <path class="fil75" d="M2030.13 2062.18c-50.63,80.6 50.63,-54.66 -15.37,19.46 -1.81,1.85 -7.24,11.11 -8.14,8.33 -1.81,-2.78 -6.33,6.49 -9.95,9.27 56.96,-2.78 211.57,-19.46 255.87,-50.95 -5.42,-37.99 -20.79,-21.31 -64.19,-22.24l-72.33 -13.89c-0.91,1.85 0,6.48 0,6.48 7.23,37.06 43.4,26.87 -98.55,14.82 11.75,19.46 -5.43,17.6 12.66,28.72z"/>
   <path class="fil76" d="M867.42 2581.88c-37.98,-7.41 -30.74,-0.93 -64.2,11.11 10.85,50.96 -37.97,50.96 66.91,75.04l75.95 -52.8c2.71,-5.56 8.13,-3.71 11.75,-6.49l-12.66 -62.99c-28.03,22.23 -36.16,19.45 -77.75,36.13z"/>
   <path class="fil77" d="M2322.16 1443.36c-7.23,37.98 -8.14,21.31 16.27,50.95 3.62,0.93 8.14,0.93 9.95,3.71 4.52,7.41 22.6,-3.71 33.45,-5.56 -4.52,-32.42 -8.13,-57.44 -16.27,-88.93 -2.71,-10.19 -9.04,-34.28 -9.95,-37.98 -14.46,-34.28 -3.61,-17.6 -27.12,-38.91l-26.22 5.56c25.31,63.92 18.99,39.83 19.89,111.16z"/>
   <path class="fil78" d="M1464.14 93.63c34.36,24.09 28.93,26.87 46.11,64.85 3.62,8.34 13.56,32.42 14.47,34.28 17.18,32.42 0,21.3 31.64,36.12l-1.81 -151 -94.02 -0.92 3.61 16.67z"/>
   <path class="fil79" d="M1509.35 2314.16l-16.28 26.86 117.54 -32.42 14.47 -28.72c-52.44,-39.83 -1.81,37.98 -12.66,-16.68 -0.9,-4.63 3.62,-5.55 6.33,-8.33 -13.56,42.61 -69.62,55.58 -100.36,62.99 17.18,-41.69 37.97,-80.59 28.93,-125.99l-43.4 -81.52c-25.31,-26.86 5.43,-38.91 -18.08,-8.33 38.88,68.55 41.59,149.14 23.51,212.14z"/>
   <path class="fil80" d="M1646.78 2301.19l61.48 -5.56 1.81 72.26 15.37 -1.86c33.45,-19.45 14.46,-14.82 19.89,-48.17 0.9,-4.63 0.9,-19.45 1.8,-23.16 6.33,-34.27 -6.32,-0.92 9.95,-25.01 -56.06,12.97 -53.34,1.85 -110.3,31.5z"/>
   <path class="fil81" d="M2619.62 387.29c35.26,12.05 52.44,30.57 75.94,65.78 11.76,13.89 13.57,17.6 32.55,29.64 -32.55,-99.12 -37.07,-49.1 -78.66,-109.31 -13.56,-20.38 -5.42,-14.82 -21.69,-37.06 -34.36,0.93 -31.65,-10.19 -25.32,17.6 23.51,12.05 4.52,4.64 17.18,33.35z"/>
   <path class="fil82" d="M658.56 2605.04c58.77,-3.71 37.98,0.92 84.09,-35.21l6.33 -12.96 -26.22 -34.28c-18.99,11.12 -16.28,8.34 -36.17,17.6 11.76,29.64 20.8,6.49 6.33,28.72 -51.53,17.6 -12.66,-2.78 -34.36,36.13z"/>
   <path class="fil83" d="M1595.24 1670.32c14.47,25.02 113.92,5.56 159.13,6.49l0 -17.6c-55.15,-3.71 -116.64,-16.68 -159.13,11.11z"/>
   <path class="fil84" d="M421.68 2256.72l18.08 -25.94c-38.87,-12.04 -34.35,-25.01 -34.35,5.56 -47.02,26.86 22.6,-36.13 -30.74,12.97 -9.04,8.34 -33.46,47.24 -40.69,60.21 52.44,-7.41 15.37,8.34 49.73,-23.16 39.78,-36.12 -9.95,-19.45 37.97,-29.64z"/>
   <path class="fil85" d="M2995.74 2926.49c-13.57,24.09 -14.47,34.28 -23.51,62.99 -28.03,89.86 -28.93,37.98 25.31,57.44l-1.8 -120.43z"/>
   <path class="fil86" d="M1841.16 1694.41c16.28,37.06 17.18,16.67 24.42,50.02 8.13,8.34 20.79,9.27 27.12,17.61 -7.23,-33.35 -17.18,-34.28 -34.36,-52.81 -36.16,-38.91 0,-25.94 -58.77,-47.24 29.84,34.27 -20.79,7.41 41.59,32.42z"/>
   <path class="fil87" d="M555.49 2729.17c23.51,21.31 -19.89,53.73 37.07,-1.85 0.91,-0.93 13.56,-25.94 15.37,-28.72 -41.59,24.09 0.91,11.12 -52.44,30.57z"/>
  </g>
 </g>
</svg>
