<?xml version="1.0" encoding="UTF-8"?>
<!DOCTYPE svg PUBLIC "-//W3C//DTD SVG 1.1//EN" "http://www.w3.org/Graphics/SVG/1.1/DTD/svg11.dtd">
<!-- Creator: CorelDRAW 2017 -->
<svg xmlns="http://www.w3.org/2000/svg" xml:space="preserve" width="28.9558mm" height="29.1252mm" version="1.1" style="shape-rendering:geometricPrecision; text-rendering:geometricPrecision; image-rendering:optimizeQuality; fill-rule:evenodd; clip-rule:evenodd"
viewBox="0 0 2895.58 2912.52"
 xmlns:xlink="http://www.w3.org/1999/xlink">
 <defs>
  <style type="text/css">
   <![CDATA[
    .fil54 {fill:#26A597}
    .fil53 {fill:#309A8D}
    .fil27 {fill:#333333}
    .fil1 {fill:#37A699}
    .fil25 {fill:#3C3C3B}
    .fil2 {fill:#47AA99}
    .fil0 {fill:#55AA97}
    .fil10 {fill:#57443D}
    .fil62 {fill:#574948}
    .fil49 {fill:#6BB6A5}
    .fil56 {fill:#90655B}
    .fil60 {fill:#977976}
    .fil9 {fill:#979797}
    .fil35 {fill:#A2A2A4}
    .fil61 {fill:#A88987}
    .fil42 {fill:#A97977}
    .fil3 {fill:#ADD2BA}
    .fil4 {fill:#AFB1AF}
    .fil45 {fill:#B89997}
    .fil38 {fill:#C78886}
    .fil30 {fill:#C7C8C8}
    .fil63 {fill:#C8B9B6}
    .fil48 {fill:#C9A29D}
    .fil28 {fill:#D1D1D1}
    .fil55 {fill:#D4D4D3}
    .fil50 {fill:#D89A95}
    .fil44 {fill:#D9C7C6}
    .fil34 {fill:#DBDBDB}
    .fil57 {fill:#E6E9E8}
    .fil11 {fill:#E8ACA5}
    .fil51 {fill:#E9BAB6}
    .fil59 {fill:#EAD0CE}
    .fil37 {fill:#F3BBB4}
    .fil12 {fill:#F4ADA3}
    .fil32 {fill:#F4B3A5}
    .fil39 {fill:#F4CAC4}
    .fil43 {fill:#F5AB9D}
    .fil46 {fill:#F5B9AE}
    .fil17 {fill:#F5BDB6}
    .fil36 {fill:#F5C3BC}
    .fil21 {fill:#F6B5AA}
    .fil6 {fill:#F6B6AD}
    .fil31 {fill:#F6BAB1}
    .fil29 {fill:#F6C5BE}
    .fil52 {fill:#F6F6F6}
    .fil14 {fill:#F9BAB1}
    .fil33 {fill:#F9BDB2}
    .fil22 {fill:#F9BEB8}
    .fil24 {fill:#F9C5C2}
    .fil8 {fill:#F9E8E5}
    .fil18 {fill:#FABEB5}
    .fil13 {fill:#FAC5BC}
    .fil20 {fill:#FAC9C5}
    .fil26 {fill:#FACEC9}
    .fil16 {fill:#FAD2D2}
    .fil41 {fill:#FAE2DD}
    .fil15 {fill:#FBD4D4}
    .fil47 {fill:#FBDEE1}
    .fil58 {fill:#FCDBDB}
    .fil7 {fill:#FCFAF6}
    .fil19 {fill:#FCFCFC}
    .fil5 {fill:#FDE3E3}
    .fil40 {fill:#FED2D1}
    .fil23 {fill:#FEFEFE}
   ]]>
  </style>
 </defs>
 <g id="Capa_x0020_1">
  <metadata id="CorelCorpID_0Corel-Layer"/>
  <g id="_1368027069872">
   <g>
    <path class="fil0" d="M1282.39 1195.67l-18.19 121.6 71.9 5.32 -11.26 -39.05c-6.07,-54.14 -7.8,-109.17 -13,-165.09 -7.79,-87.86 0.87,-86.09 -85.76,-94.96 12.13,16.86 11.27,15.08 27.72,29.28 6.93,6.22 16.46,10.65 25.99,15.09l2.6 127.81z"/>
    <path class="fil0" d="M1019.05 1478.8c-18.19,65.68 -10.39,8.88 29.46,32.84 -3.47,-57.69 10.39,-46.15 12.12,-102.96 31.19,37.28 31.19,86.98 25.99,133.14 23.39,-11.54 12.99,7.1 21.66,-14.2 0,-32.84 2.59,-62.13 3.46,-93.2 1.73,-54.14 11.26,-47.04 -26.85,-66.56 -47.65,5.32 -40.72,-5.33 -56.31,23.07 -5.2,8.88 -7.79,72.78 -9.53,87.87z"/>
   </g>
   <g>
    <path class="fil1" d="M1209.63 1522.29c66.7,15.09 45.04,15.09 106.54,4.44l-14.72 -114.5c-0.87,-3.55 -1.74,-6.21 -3.47,-9.76l-34.65 -31.06c13.86,-20.42 -19.92,-9.77 23.39,-18.64l-45.04 -7.1c-31.19,45.26 -25.12,11.54 -28.59,76.33 -1.73,34.61 0,63.9 -3.46,100.29z"/>
    <path class="fil1" d="M1220.02 1296.85c-24.25,-60.35 -6.06,-42.6 6.06,-102.07l56.31 0.89 -2.6 -127.81c-9.53,-4.44 -19.06,-8.87 -25.99,-15.09 -16.45,-14.2 -15.59,-12.42 -27.72,-29.28l-36.38 -3.56c21.66,49.71 23.39,-3.55 12.13,136.69 -8.66,110.94 -20.79,118.93 18.19,140.23z"/>
   </g>
   <g>
    <path class="fil2" d="M1097.01 1101.59c-4.33,40.83 -6.06,78.1 -11.26,117.16l-29.45 121.59 88.36 -18.64c-6.07,-62.13 19.05,-183.72 -7.8,-253.84 -43.31,17.75 -0.86,-10.65 -39.85,33.73z"/>
    <path class="fil2" d="M1352.55 1560.46l44.18 -3.56 -32.91 -160.64c-25.99,7.99 19.92,-8.88 -23.39,1.77l-9.53 113.61 21.65 48.82z"/>
   </g>
   <g>
    <path class="fil3" d="M1097.01 1101.59c38.99,-44.38 -3.46,-15.98 39.85,-33.73 26.85,70.12 1.73,191.71 7.8,253.84l69.3 -11.54 6.06 -13.31c-38.98,-21.3 -26.85,-29.29 -18.19,-140.23 11.26,-140.24 9.53,-86.98 -12.13,-136.69 -77.96,20.42 -86.62,0 -92.69,81.66z"/>
    <path class="fil3" d="M1084.89 1367.86c38.11,19.52 28.58,12.42 26.85,66.56 -0.87,31.07 -3.46,60.36 -3.46,93.2l33.78 -15.98c-13.86,-133.13 13.86,-94.97 33.78,-100.29 13,39.94 2.6,89.64 -7.79,127.8l41.58 8.88 0 -25.74c3.46,-36.39 1.73,-65.68 3.46,-100.29 3.47,-64.79 -2.6,-31.07 28.59,-76.33l-116.08 -2.67 -40.71 24.86z"/>
   </g>
   <g>
    <path class="fil4" d="M1155.05 995.08l100.49 0c6.06,-113.6 23.38,-262.71 -67.57,-315.97l-19.06 71.01c-0.86,23.96 1.73,65.68 3.47,89.64 2.6,37.28 6.06,51.48 3.46,90.53 -3.46,59.47 -6.06,55.92 -20.79,64.79z"/>
    <path class="fil4" d="M966.21 1622.58l19.06 243.19c35.52,-36.39 30.32,-121.59 40.71,-202.36 0,-1.77 5.2,-34.61 5.2,-34.61 0.87,-2.67 1.73,-6.22 2.6,-9.77l14.73 -27.51 -82.3 31.06z"/>
   </g>
   <g>
    <path class="fil5" d="M2359.12 2708.95c58.91,-47.93 59.77,9.76 77.1,-69.23 -3.47,-2.66 -8.66,-9.76 -10.4,-7.1 -2.59,3.55 -7.79,-5.33 -11.26,-6.21 -102.21,-36.39 -99.61,54.14 -175.84,55.91 -76.23,2.67 -44.18,-71.89 -124.74,-32.84 -45.05,21.3 -29.45,3.55 -41.58,54.14 26.85,39.06 29.45,31.96 77.96,23.97 1.73,0 5.2,-1.78 6.93,-1.78 0.87,0 4.33,0 6.06,0 3.47,-0.88 27.72,4.44 31.19,5.33 57.17,7.99 103.08,-21.3 164.58,-22.19z"/>
    <path class="fil5" d="M2341.8 2336.18l21.66 -158.88 -51.11 2.67c-13,34.61 -31.19,41.71 -41.58,78.99 -10.4,35.5 -3.47,73.67 0,110.06l71.03 -32.84z"/>
   </g>
   <g>
    <path class="fil6" d="M2608.6 447.46l4.33 7.99c-11.26,61.24 -30.32,46.15 -8.66,98.52 31.18,54.14 13.86,39.05 24.25,117.16 68.44,-5.33 89.23,-20.42 131.67,-47.04 -41.58,-256.51 -25.98,-165.98 -151.59,-176.63z"/>
    <path class="fil6" d="M1097.01 220.25l30.32 10.65c46.78,16.86 24.26,15.98 77.1,15.98 -7.8,-43.49 -2.6,-76.33 -53.71,-82.55 -39.85,-4.43 -10.39,-1.77 -34.65,10.65 38.12,-34.61 33.78,13.32 13,-57.69l-66.71 -7.99c13,31.07 17.33,65.68 34.65,110.95z"/>
   </g>
   <g>
    <path class="fil7" d="M1066.7 671.13c30.31,27.51 35.51,51.47 40.71,92.3l31.18 16.87c1.74,1.77 6.07,5.32 8.67,8.87l5.19 -111.83 70.17 -6.21c-11.26,-61.25 -15.59,-92.31 -58.91,-149.11l-38.98 -44.38c-2.59,3.55 -5.19,7.99 -6.06,10.65 -0.87,2.66 -3.46,7.99 -4.33,10.65 -13.86,46.15 7.8,39.94 7.8,39.94 -19.06,-29.29 -48.51,-71 -66.71,-99.41 -22.52,28.41 -19.92,0.89 -17.32,53.26 0.87,10.65 12.13,33.72 19.06,44.38 14.72,24.85 33.78,44.37 51.11,62.12 -18.2,24.86 -21.66,44.38 -41.58,71.9z"/>
    <path class="fil7" d="M1672.2 1695.36l31.18 155.33c56.31,4.43 7.8,17.75 49.38,-9.77 12.99,-201.47 10.39,-244.96 -91.82,-246.74l11.26 101.18z"/>
   </g>
   <g>
    <path class="fil8" d="M1672.2 1695.36l-11.26 -101.18c102.21,1.78 104.81,45.27 91.82,246.74 -41.58,27.52 6.93,14.2 -49.38,9.77l-0.86 59.46c61.5,3.55 70.16,42.6 79.69,-143.78 4.33,-91.42 34.65,-88.76 49.37,-140.24 -10.39,-15.08 -23.38,-36.39 -38.11,-48.81 -12.99,-10.65 -6.06,-4.44 -23.39,-15.09l-58.04 -43.49c-51.97,-52.37 -18.19,-41.71 -70.16,-60.35l-8.66 176.62c12.99,47.93 22.52,42.6 38.98,60.35z"/>
    <path class="fil8" d="M1289.32 783.85c3.46,43.49 0.87,64.79 16.46,94.08l2.6 -78.11c55.44,51.48 77.96,67.46 85.75,142.9 -55.43,-7.99 -38.98,-13.32 -86.62,-23.08 30.32,46.15 19.06,11.54 60.64,57.69 17.32,18.64 36.38,39.94 48.51,64.79 16.46,32.84 10.39,45.27 37.24,77.22 32.06,38.17 51.98,17.75 42.45,55.03l39.85 12.42 4.33 -16.86c-15.59,-36.39 -45.91,-118.04 -73.63,-163.31 -55.44,-90.53 -32.05,-67.45 -32.92,-161.53l-13.86 -31.07c-1.73,0 -5.2,0.89 -5.2,0.89 -25.98,-4.44 4.34,21.3 -25.98,-13.31 -19.06,-21.3 -10.4,-18.64 -23.39,-39.94 -26.85,28.4 -43.31,18.64 -76.23,22.19z"/>
   </g>
   <g>
    <path class="fil9" d="M1301.45 1840.92c34.65,43.49 9.53,72.78 51.1,89.64 45.92,-64.79 -3.46,-145.55 54.58,-203.24 25.99,-26.63 -8.66,-27.52 32.92,-71.01l0.86 -11.54c-27.72,-56.8 -17.32,-17.75 -3.46,-41.71 -38.98,-27.52 -97.02,-23.08 -142.93,-28.4l6.93 266.26z"/>
    <path class="fil9" d="M1300.58 2822.56c-32.92,4.43 -28.59,6.21 -19.06,47.92l93.56 0.89c25.98,-54.14 40.71,-35.5 37.25,-117.16 -2.6,-58.57 -12.13,-73.66 -32.06,-112.71 -23.38,-32.84 -22.52,-69.23 -18.19,-101.19l-20.79 17.76c-34.65,36.39 -22.52,29.28 -26.85,119.82 -6.06,146.44 28.59,122.48 -13.86,144.67z"/>
   </g>
   <g>
    <path class="fil10" d="M2152.96 1499.21c-17.33,30.18 23.39,8.88 -34.65,24.86l34.65 -24.86zm64.97 -126.03l-29.45 11.54c-16.46,43.49 -15.6,37.28 -51.98,65.68l-10.39 7.1c-34.65,67.45 -31.19,17.75 -58.04,109.17 -8.66,30.17 12.99,-8.88 -8.66,19.52 -9.53,12.43 -32.92,28.41 -36.39,31.07 0.87,4.44 3.47,5.32 4.33,11.54 2.6,22.19 25.99,21.3 4.34,65.68 -63.24,134.9 -12.13,103.84 -85.76,292.89l-1.73 28.4 32.05 -4.44c12.12,-34.61 18.19,-62.13 28.58,-90.53 10.4,-29.29 19.93,-65.68 26.86,-99.4 21.65,-107.4 28.58,-97.64 67.56,-177.51 -10.39,-10.66 -12.12,-31.96 -13.86,-35.51 9.53,-7.99 18.19,-14.2 33.79,-27.51 24.25,-21.3 3.46,-9.76 37.24,-30.18 10.4,-38.16 23.39,-38.16 56.31,-46.15 12.13,-48.82 16.46,-43.49 53.71,-55.03 0,-19.53 4.33,-15.98 -13.86,-9.76 -32.05,23.96 -63.24,46.15 -99.62,59.46 17.32,-38.16 79.69,-110.94 116.94,-126.92 4.33,-42.6 13,-32.84 -29.45,-23.96 0.87,31.06 21.66,8.88 -22.52,24.85z"/>
    <path class="fil10" d="M2269.04 1261.35c-39.85,23.08 -54.58,48.81 -81.43,79.88 3.46,3.55 25.12,19.53 27.72,23.08 35.51,-61.25 70.16,-80.77 107.41,-113.61 12.13,-11.54 20.79,-24.85 32.05,-36.39 -41.58,9.76 -48.51,25.74 -85.75,47.04z"/>
    <path class="fil10" d="M2354.79 1098.04c-7.79,16.86 0.87,10.65 -19.05,26.63 -12.13,8.87 -8.67,3.55 -20.79,7.1 17.32,34.61 -12.13,17.75 19.05,15.09 18.19,-1.78 22.53,-14.21 27.72,-18.64 34.65,-35.51 10.4,-25.74 57.17,-47.04 18.2,-18.64 8.67,-1.78 7.8,-30.18l-71.9 47.04z"/>
   </g>
   <g>
    <path class="fil11" d="M2240.45 1348.33c42.45,-8.88 33.78,-18.64 29.45,23.96l77.1 -57.69c29.45,-16.86 46.77,-31.95 72.76,-47.93 -34.65,43.49 -6.06,9.77 -22.52,39.06 -4.33,8.87 -32.92,44.37 -35.52,46.15 -45.04,35.5 -82.29,20.41 -109.14,87.87 18.19,-6.22 13.86,-9.77 13.86,9.76 34.65,-7.99 39.84,-17.75 74.49,-32.84 12.13,-22.19 19.93,-31.06 50.25,-37.28 33.78,-7.1 41.57,-1.77 65.83,17.76 -24.26,10.65 -29.45,-13.32 -64.1,26.62 82.29,-1.77 158.52,15.98 202.7,-104.73 45.04,-10.65 23.39,7.1 34.65,-23.08 -42.45,-57.69 -5.2,31.96 -156.79,34.62 0,-63.91 -6.07,-50.59 19.06,-95.86l30.31 -43.49c-45.04,16.87 -28.58,-4.44 -65.83,7.1l-194.04 122.49c-1.73,2.66 -4.33,6.21 -6.93,8.87 -2.6,2.66 -6.06,6.21 -7.79,8.88 -1.74,2.66 -5.2,6.21 -7.8,9.76z"/>
    <path class="fil11" d="M1550.92 1620.81c3.47,-75.44 -8.66,-41.72 28.59,-43.49 -14.73,-54.14 -22.52,-89.64 -58.9,-134.02 -1.74,-1.78 -4.34,-4.44 -6.07,-6.21 -13.86,-15.09 -18.19,-9.77 -33.78,-27.52l-81.43 -125.14c-25.12,-29.29 -3.46,-49.71 -21.65,-7.1 -5.2,51.47 19.92,79.88 37.24,134.9 15.6,51.48 21.66,104.73 20.79,158.88 83.16,7.98 53.71,22.18 115.21,49.7z"/>
   </g>
   <g>
    <path class="fil12" d="M1720.71 2437.36c-21.66,-0.89 4.33,-24.85 -30.32,11.54 -41.58,45.26 1.73,-26.63 -17.33,55.02l-53.7 145.56c51.1,-4.43 12.12,-44.37 91.82,-40.82l-22.52 25.74c-2.6,1.77 -19.93,4.43 -24.26,5.32 8.66,65.68 6.93,130.47 32.92,172.19 51.11,6.21 58.9,-9.77 125.6,-21.31 13.86,-2.66 46.78,-3.55 50.24,-13.31 8.67,-22.19 -4.33,-0.89 -30.31,-36.39l-23.39 -7.99c1.73,-131.35 -11.26,-59.46 -34.65,-143.78 45.04,-47.04 74.49,2.66 72.76,-71.89 -0.86,-35.5 -16.46,-71.01 -13.86,-118.05 -21.65,5.33 6.93,26.63 -22.52,0.89 -20.79,-17.75 -23.39,-26.63 -25.12,-63.9 -19.92,33.72 -14.73,38.16 -25.12,58.58 -25.12,49.7 9.53,29.28 -50.24,42.6z"/>
    <path class="fil12" d="M2202.34 1167.27l-30.32 -17.75c-3.47,-1.78 -6.93,-2.66 -10.4,-4.44 -116.07,-44.38 -35.51,-31.06 -97.02,-52.37 4.33,-15.97 -7.79,-37.27 74.5,-57.69l36.38 71.01c12.13,-47.04 25.99,-48.82 55.44,-91.42 -32.05,-82.54 -180.18,-40.83 -278.93,-40.83l-1.73 132.25c223.49,47.93 50.24,52.36 252.08,61.24z"/>
   </g>
   <g>
    <path class="fil13" d="M2483 764.32c29.45,35.5 14.72,17.75 19.05,75.44 0,8.88 0.87,30.18 2.6,37.28 12.13,46.15 -12.12,15.97 22.52,39.94l1.74 -100.29c35.51,-12.43 40.71,-12.43 85.75,3.55l27.72 11.53c44.18,22.19 40.72,39.06 65.84,80.77l91.82 7.99c3.47,83.43 6.93,128.69 6.93,203.25 45.04,-18.64 16.46,-183.73 18.19,-233.43 4.33,-90.53 -1.73,-184.61 -0.87,-278.69l-12.99 75.44c-3.46,1.78 -6.93,3.55 -8.66,4.44 -52.84,21.3 -104.82,17.75 -168.92,9.76 -3.46,-44.37 -24.25,-84.31 -29.45,-147.33 -49.38,-25.74 -69.3,-52.37 -95.29,5.32 -20.79,46.16 26.86,55.92 38.98,94.09 10.4,33.72 -2.59,41.71 25.13,71l-78.83 33.73c-2.6,1.77 -7.8,4.43 -11.26,6.21z"/>
    <path class="fil13" d="M2854.61 2684.1c-56.3,17.75 -23.39,32.84 -45.91,52.36l-5.19 -134.9 -34.65 0c-1.74,-94.97 6.93,-54.15 -33.79,-71.01 -39.84,19.53 18.19,-26.63 -17.32,16.86 -1.74,2.67 -4.33,6.22 -6.07,7.99l-13.86 25.74c-19.92,23.08 52.84,-25.74 -13.86,8.88l-17.32 7.1c-0.87,-2.66 -6.93,2.66 -9.53,4.44 -2.6,55.91 -3.46,119.82 27.72,153.54 50.24,53.26 68.43,65.68 113.48,71.01 36.38,-40.83 25.98,-26.63 43.31,-91.42l12.99 -50.59z"/>
   </g>
   <g>
    <path class="fil14" d="M2527.17 916.98c33.79,14.2 18.2,4.44 39.85,42.6 6.07,84.32 2.6,18.64 -12.99,51.48 -27.72,58.58 -21.66,18.64 -21.66,18.64 0,3.55 1.73,5.32 2.6,9.76l26.85 54.14c-19.05,15.98 -35.51,24.85 -55.43,38.17l11.26 27.51c51.1,91.42 96.15,18.64 208.76,61.24 51.11,19.53 56.31,7.99 71.9,12.43 -1.73,3.55 -6.93,4.44 -7.8,10.65l-38.98 58.58c-0.87,0.88 -2.6,4.43 -3.46,7.1l16.45 1.77c22.53,-12.42 7.8,2.67 24.26,-25.74 8.66,-14.2 11.26,-24.85 16.46,-47.04 8.66,-35.5 8.66,-71.89 1.73,-114.49 0,-74.56 -3.46,-119.82 -6.93,-203.25l-91.82 -7.99c-25.12,-41.71 -21.66,-58.58 -65.84,-80.77l-27.72 -11.53c-45.04,-15.98 -50.24,-15.98 -85.75,-3.55l-1.74 100.29z"/>
    <path class="fil14" d="M1259 484.74l-10.39 26.63c146.39,12.42 66.7,-1.78 137.73,79.88 31.18,34.61 33.78,15.97 45.04,46.15 2.6,7.1 7.8,60.35 6.93,63.02 0.87,-0.89 0.87,-3.55 0.87,-3.55l20.79 -30.18c57.17,-66.57 21.65,-209.46 -48.51,-264.49 -71.9,-55.92 -79.69,-40.83 -90.96,-3.55 -9.52,31.06 0,12.42 -6.93,45.26 -0.86,4.44 -2.59,8.88 -2.59,11.54l-8.67 22.19c-41.58,-43.49 -27.72,-59.47 -27.72,-127.81 -5.19,39.94 2.6,39.05 0,71.89l-15.59 63.02z"/>
   </g>
   <g>
    <path class="fil15" d="M2359.12 2708.95c-61.5,0.89 -107.41,30.18 -164.58,22.19 -3.47,-0.89 -27.72,-6.21 -31.19,-5.33 -1.73,0 -5.19,0 -6.06,0 -1.73,0 -5.2,1.78 -6.93,1.78 -48.51,7.99 -51.11,15.09 -77.96,-23.97 12.13,-50.59 -3.47,-32.84 41.58,-54.14 80.56,-39.05 48.51,35.51 124.74,32.84 76.23,-1.77 73.63,-92.3 175.84,-55.91 3.47,0.88 8.67,9.76 11.26,6.21 1.74,-2.66 6.93,4.44 10.4,7.1 -17.33,78.99 -18.19,21.3 -77.1,69.23zm-16.45 -136.68c-84.03,-30.18 -73.63,20.41 -127.34,1.77 -71.9,-25.74 -22.52,-57.69 -134.27,-32.84 3.47,52.37 -2.6,28.4 -8.66,47.93l-39.85 139.35 54.58 52.36c-85.76,69.23 -58.04,31.07 -148.13,64.79 138.6,25.74 294.52,24.85 427.92,-1.77 -25.12,-29.29 -1.73,-12.43 -38.11,-23.08 -19.06,-5.32 -19.06,-2.66 -37.25,-3.55 -35.52,-3.55 -45.91,-0.89 -67.57,-12.42 26.85,-33.73 93.55,-39.06 122.14,-43.49l12.99 -52.37c18.2,0 47.65,0 70.17,-6.21 108.28,-28.41 -41.58,-54.14 126.47,-36.39l13.86 -115.38c91.82,-7.11 24.26,-3.56 50.24,-24.86 -0.86,-167.74 14.73,-173.96 -66.7,-194.37l-8.66 105.62c-64.97,14.2 -32.92,15.97 -38.11,20.41 -30.32,24.85 -38.12,41.72 -51.11,84.32 -6.93,26.63 8.66,-25.74 -6.07,23.08l-70.16 19.52c-4.33,0 -8.66,-2.66 -12.13,-2.66l-24.25 -9.76z"/>
    <path class="fil15" d="M2730.74 207.82c-4.33,63.91 10.4,25.74 25.12,67.46 19.06,51.48 -4.33,33.72 -14.72,94.97 63.23,7.98 25.98,-4.44 50.24,44.37 16.46,33.73 19.05,60.36 22.52,96.75 25.99,26.62 1.73,5.32 12.99,38.16 26.86,71.89 -25.12,-51.48 8.67,22.19 13.86,31.95 0.86,14.2 20.79,36.39 2.59,-95.86 2.59,-191.71 0.86,-288.46 -0.86,-86.98 -16.46,-213.01 -12.13,-283.12l-599.43 -7.11 -119.54 3.56c-43.32,15.97 -23.39,4.43 -50.25,33.72 129.94,0 253.81,-7.1 380.28,-8.87 112.61,-1.78 228.69,7.98 351.7,8.87 42.44,138.46 -49.38,10.65 -0.87,149.11l-76.23 -7.99z"/>
   </g>
   <g>
    <path class="fil16" d="M1703.38 1850.69l-31.18 -155.33c-16.46,-17.75 -25.99,-12.42 -38.98,-60.35l8.66 -176.62c51.97,18.64 18.19,7.98 70.16,60.35l58.04 43.49c17.33,10.65 10.4,4.44 23.39,15.09 14.73,12.42 27.72,33.73 38.11,48.81 -14.72,51.48 -45.04,48.82 -49.37,140.24 -9.53,186.38 -18.19,147.33 -79.69,143.78l0.86 -59.46zm-207.03 -676.32l34.65 69.23c52.84,71 74.5,115.38 56.31,226.32 -1.74,37.28 9.52,79 -7.8,107.4 -37.25,1.77 -25.12,-31.95 -28.59,43.49 19.93,97.63 7.8,334.61 11.26,461.53 4.34,155.32 -1.73,309.75 3.47,468.63 28.59,-41.72 25.12,-453.54 27.72,-521l56.3 71.01c32.06,30.17 50.25,25.73 109.15,31.06 16.46,-8.88 12.13,-2.66 24.26,-37.28 57.17,-159.76 17.32,-181.95 17.32,-228.99 0.87,-58.58 25.12,-74.55 38.98,-127.8 32.05,-121.6 7.8,-123.37 -2.6,-150 -12.12,-31.95 -6.93,-25.74 -15.59,-60.35 -45.04,-173.96 -60.64,-85.21 -194.9,-225.44 -34.65,-36.39 -51.98,-71.89 -64.11,-123.37l-9.52 -18.64 -12.13 9.76 -4.33 16.86 -39.85 -12.42z"/>
    <path class="fil16" d="M2324.47 1579.98l55.44 7.99c24.26,37.28 15.6,27.51 13,77.22 -60.64,-4.44 -76.23,-19.53 -68.44,-85.21zm17.33 756.2l-71.03 32.84c-3.47,-36.39 -10.4,-74.56 0,-110.06 10.39,-37.28 28.58,-44.38 41.58,-78.99l51.11 -2.67 -1.74 -197.03c-2.6,2.66 -6.06,2.66 -6.93,7.99l-30.32 26.62c-28.58,19.53 17.33,12.43 -41.57,13.32l-6.93 -108.29c-34.65,-14.2 -64.97,15.09 -38.12,-55.02 45.05,-14.2 11.26,-4.44 44.18,0.88 1.73,0 6.06,1.78 7.8,1.78 33.78,5.32 45.04,-7.1 76.22,-52.37 15.6,39.94 26.86,55.03 24.26,114.5l38.11 -12.43 -1.73 -16.86c-12.13,-162.42 32.92,-228.1 18.19,-330.17 -36.38,-19.53 -125.6,-18.64 -174.11,-16.87 -14.73,117.16 31.18,32.84 21.65,122.49 -6.93,65.68 -41.58,5.32 -19.05,114.49 -3.47,2.66 -7.8,1.78 -8.67,7.1 -2.59,7.99 -12.12,8.88 -16.45,13.32 -36.39,32.83 -42.45,49.7 -45.91,106.5 72.76,81.66 39.84,77.22 35.51,107.4 -1.73,16.86 -1.73,38.16 -2.6,57.69 -6.93,15.09 -72.76,3.55 -58.9,113.6 12.13,96.75 31.18,-15.08 33.78,126.92l16.46 12.43c7.8,7.1 16.46,15.98 19.06,18.64 38.98,38.16 17.32,31.06 58.04,45.26l38.11 -63.01z"/>
    <path class="fil16" d="M987.87 368.47c-13,-61.24 -6.07,-10.65 9.53,-33.73 30.32,23.97 40.71,31.96 51.11,65.68 64.96,-14.2 106.54,21.3 140.33,71.01 37.24,55.91 -16.46,31.06 47.64,43.49l2.6 -109.17c-60.64,-22.19 -24.26,-32.84 -123.01,-29.29 -10.39,-21.3 -15.59,-47.04 -24.25,-75.44 -126.47,14.2 -115.21,-2.67 -119.54,32.84 -7.8,57.69 4.33,22.18 15.59,34.61z"/>
   </g>
   <g>
    <path class="fil17" d="M2156.42 1550.69c-7.79,36.39 -3.46,39.94 -18.19,59.47 -0.86,1.77 -18.19,16.86 -21.65,19.52l-17.33 14.21c-38.98,79.87 -45.91,70.11 -67.56,177.51 -6.93,33.72 -16.46,70.11 -26.86,99.4 -10.39,28.4 -16.46,55.92 -28.58,90.53 -15.6,64.79 -47.65,126.92 -74.5,164.2 0,86.98 -89.22,134.91 -105.68,160.65 1.73,37.27 4.33,46.15 25.12,63.9 29.45,25.74 0.87,4.44 22.52,-0.89 -2.6,47.04 13,82.55 13.86,118.05 1.73,74.55 -27.72,24.85 -72.76,71.89 23.39,84.32 36.38,12.43 34.65,143.78l23.39 7.99c15.59,-25.74 -2.6,-16.86 29.45,-22.19 27.72,29.29 3.46,12.43 41.58,33.73 -6.07,104.73 -37.25,-6.21 -11.26,88.76 27.72,-9.77 38.11,13.31 48.51,-70.12 8.66,-58.58 -7.8,-85.21 46.77,-131.36 1.74,-18.64 4.33,-31.06 2.6,-50.59l-6.93 -31.06c-0.86,-2.67 -1.73,-6.22 -3.46,-9.77 68.43,-28.4 74.49,23.08 67.56,-57.69 -22.52,31.95 -7.79,19.53 -70.16,18.64l0 -43.49c62.37,-0.89 88.35,-23.96 62.37,-65.68 -26.86,-44.38 4.33,-12.42 -35.52,-28.4 4.33,-39.05 19.92,-15.09 31.19,-60.35 6.93,-25.74 -12.13,-12.43 17.32,-72.78 18.19,23.07 12.99,55.02 12.99,93.19l25.13 -198.81 51.1 -9.77c-17.32,-127.8 7.8,-68.34 32.05,-117.15 -0.86,-56.81 -38.11,-103.85 -25.98,-146.45 7.79,-31.06 45.91,-60.35 51.11,-119.82 -45.05,-28.4 -22.53,6.21 -58.04,-38.16 32.05,-11.54 27.72,-25.74 43.31,-71.01 3.46,-10.65 2.6,4.44 9.53,-31.06 4.33,-22.19 2.6,-21.3 3.46,-36.39 2.6,-30.18 -2.6,-22.19 5.2,-58.58 -32.92,7.99 -45.91,7.99 -56.31,46.15z"/>
    <path class="fil17" d="M2082.79 807.81c7.8,32.84 0.87,23.96 15.6,47.04 32.05,5.33 47.64,9.76 72.76,16.86 18.19,-23.96 37.25,-44.37 56.31,-63.01 21.65,7.1 37.24,13.31 58.9,20.41 -19.06,224.55 85.76,187.27 42.45,191.71 6.06,63.91 25.98,-5.32 -6.07,25.74l-26.85 14.2 -7.8 39.05 35.52 -6.21 -38.98 123.37 24.25 -32.84c0,-0.89 0.87,-4.44 0.87,-5.32l5.2 -47.04c12.12,-3.55 8.66,1.77 20.79,-7.1 19.92,-15.98 11.26,-9.77 19.05,-26.63 20.79,-40.83 20.79,-35.5 61.51,-53.25 -77.97,-71.01 -19.93,-66.57 -29.46,-154.44 -29.45,-10.65 0.87,4.44 -24.25,0 -1.73,0 -6.93,-0.89 -8.66,-1.77l-32.05 -10.65 10.39 -84.32c97.89,17.75 25.99,26.63 85.76,40.83l50.24 -79.88c0.87,-5.33 4.33,-6.22 5.2,-8.88l9.53 18.64c3.46,-1.78 8.66,-4.44 11.26,-6.21l78.83 -33.73c-27.72,-29.29 -14.73,-37.28 -25.13,-71 -12.12,-38.17 -59.77,-47.93 -38.98,-94.09 25.99,-57.69 45.91,-31.06 95.29,-5.32 -21.66,-52.37 -2.6,-37.28 8.66,-98.52 -42.44,19.53 -49.37,5.33 -106.54,-0.89 -206.17,-23.96 -86.63,181.95 -76.23,163.31 0.86,-2.66 5.19,4.44 8.66,6.22 -23.39,61.24 -24.26,66.56 -35.52,138.45l-178.44 -28.4c-16.46,46.16 1.73,27.52 -38.98,63.91 -49.38,44.37 -51.98,31.06 -103.09,9.76z"/>
   </g>
   <g>
    <path class="fil18" d="M1097.01 220.25c-17.32,-45.27 -21.65,-79.88 -34.65,-110.95l66.71 7.99c20.78,71.01 25.12,23.08 -13,57.69 24.26,-12.42 -5.2,-15.08 34.65,-10.65 51.11,6.22 45.91,39.06 53.71,82.55 -52.84,0 -30.32,0.88 -77.1,-15.98 0,1.77 6.93,23.08 8.67,25.74 18.19,31.95 8.66,15.09 20.78,30.18 8.67,-5.33 36.39,-17.76 56.31,-16.87 19.06,1.78 27.72,-40.83 43.31,36.39 0.87,0.89 2.6,165.09 2.6,178.4l15.59 -63.02c2.6,-32.84 -5.19,-31.95 0,-71.89 0,68.34 -13.86,84.32 27.72,127.81l8.67 -22.19c0,-2.66 1.73,-7.1 2.59,-11.54 6.93,-32.84 -2.59,-14.2 6.93,-45.26 11.27,-37.28 19.06,-52.37 90.96,3.55 70.16,55.03 105.68,197.92 48.51,264.49l-20.79 30.18c0,0 0,2.66 -0.87,3.55 10.4,52.36 -4.33,34.61 29.45,63.01 38.99,-10.65 -10.39,-6.21 37.25,-62.13l40.72 7.99c2.59,-160.65 -6.07,-87.87 -27.72,-157.98 -9.53,-29.29 -3.47,-43.49 7.79,-71.01 5.2,-14.2 24.26,-59.46 29.45,-71l88.36 0c-8.66,-71.89 -17.32,-145.56 28.59,-162.42 25.98,-60.36 28.58,-2.67 80.56,-31.96 30.32,-15.97 12.12,0 24.25,-31.95 0.87,0 11.26,-49.7 12.13,-53.25 28.59,-1.78 -38.98,22.19 30.32,13.31 67.56,-9.76 41.58,-6.21 52.84,-63.9 -71.9,-22.19 -55.44,6.21 -110.01,1.77 -19.93,-0.88 -74.5,-13.31 -117.81,-11.54 -47.65,1.78 -83.16,-0.88 -127.34,0.89 -49.38,1.78 -80.56,15.98 -124.74,16.87 -70.16,1.77 -166.32,-5.33 -251.21,2.66 -16.46,1.77 -99.61,7.99 -105.68,7.1l-15.59 -4.44c-2.6,-0.89 -6.06,-1.77 -7.8,-2.66 -2.6,-0.89 -6.06,-2.66 -8.66,-3.55 -2.6,0 -6.06,-1.78 -8.66,-2.66 -20.79,-5.33 -25.12,-6.22 -51.11,-4.44 61.5,-10.65 -21.66,7.1 56.31,86.09l58.9 40.83c59.77,25.74 -71.9,-27.52 38.11,14.2z"/>
    <path class="fil18" d="M2608.6 447.46c125.61,10.65 110.01,-79.88 151.59,176.63 -42.44,26.62 -63.23,41.71 -131.67,47.04 -10.39,-78.11 6.93,-63.02 -24.25,-117.16 5.2,63.02 25.99,102.96 29.45,147.33 64.1,7.99 116.08,11.54 168.92,-9.76 1.73,-0.89 5.2,-2.66 8.66,-4.44l12.99 -75.44c1.74,-23.96 -2.59,-13.31 32.06,-7.99l0 4.44c-19.93,-22.19 -6.93,-4.44 -20.79,-36.39 -33.79,-73.67 18.19,49.7 -8.67,-22.19 -11.26,-32.84 13,-11.54 -12.99,-38.16 -3.47,-2.67 -12.99,-7.99 -14.73,-8.88l-11.26 -5.32c-17.32,-6.22 19.06,8.87 -12.12,0 -1.74,-61.25 -11.27,-131.36 -129.94,-134.91l-37.25 85.2z"/>
   </g>
   <g>
    <path class="fil19" d="M937.63 1676.72c-6.93,42.61 -19.06,61.25 -2.6,88.76 0,187.27 -2.6,371 -4.33,557.38 -1.74,176.63 24.25,357.69 21.65,543.19l305.78 2.66c-31.18,-19.53 -34.64,0 -71.03,-25.74 5.2,-104.73 24.26,-225.44 8.67,-336.38 -15.6,-105.62 -23.39,-203.25 -24.26,-310.65 -3.46,-299.99 19.06,-189.05 28.59,-315.97 16.46,-242.3 -32.05,-96.74 -50.25,-295.55 47.65,1.77 54.58,7.1 89.23,-11.54l-127.34 6.21 -48.51 5.33c11.26,57.69 9.53,82.54 -12.99,144.67 -23.39,65.68 -19.06,394.07 -20.79,480.17 -3.47,205.91 48.51,454.42 33.78,647.91l-103.08 7.1c8.66,-208.57 20.79,-418.92 19.06,-630.16l-16.46 -443.78c0.86,-34.61 9.53,-118.93 -25.12,-113.61z"/>
    <path class="fil19" d="M1305.78 877.93l-4.33 36.39 6.06 5.32c47.64,9.76 31.19,15.09 86.62,23.08 -7.79,-75.44 -30.31,-91.42 -85.75,-142.9l-2.6 78.11z"/>
   </g>
   <g>
    <path class="fil20" d="M2266.44 1449.51c-37.25,11.54 -41.58,6.21 -53.71,55.03 -7.8,36.39 -2.6,28.4 -5.2,58.58 -0.86,15.09 0.87,14.2 -3.46,36.39 -6.93,35.5 -6.07,20.41 -9.53,31.06 -15.59,45.27 -11.26,59.47 -43.31,71.01 35.51,44.37 12.99,9.76 58.04,38.16 -5.2,59.47 -43.32,88.76 -51.11,119.82 -12.13,42.6 25.12,89.64 25.98,146.45 -24.25,48.81 -49.37,-10.65 -32.05,117.15 -5.19,201.48 9.53,110.95 -42.44,247.63l-28.59 170.41c111.75,-24.85 62.37,7.1 134.27,32.84 53.71,18.64 43.31,-31.95 127.34,-1.77l50.24 5.32 11.26 -33.73c0,-0.88 0,-25.73 0.87,-31.06 92.68,-21.3 42.44,-55.03 63.23,-145.56 13.86,-62.13 71.9,-65.68 102.22,-124.26l47.64 54.14c17.32,26.63 17.32,66.57 25.12,102.07l25.99 12.43 -19.06 -144.67c3.47,-46.15 6.93,-30.18 -8.66,-69.23 -5.2,-14.2 -2.6,-1.78 -14.73,-34.62 -0.86,-2.66 -6.06,-21.3 -6.06,-22.18 -88.36,-7.99 -81.43,11.53 -148.99,-37.28 -25.13,-18.64 -38.99,-7.99 -45.92,-49.71l2.6 -136.68 -38.11 12.43c-32.92,23.07 -23.39,18.64 -28.59,50.59l1.74 197.03 -21.66 158.88 -38.11 63.01c-40.72,-14.2 -19.06,-7.1 -58.04,-45.26 -2.6,-2.66 -11.26,-11.54 -19.06,-18.64l-16.46 -12.43c-2.6,-142 -21.65,-30.17 -33.78,-126.92 -13.86,-110.05 51.97,-98.51 58.9,-113.6 0.87,-19.53 0.87,-40.83 2.6,-57.69 4.33,-30.18 37.25,-25.74 -35.51,-107.4 3.46,-56.8 9.52,-73.67 45.91,-106.5 4.33,-4.44 13.86,-5.33 16.45,-13.32 0.87,-5.32 5.2,-4.44 8.67,-7.1 -22.53,-109.17 12.12,-48.81 19.05,-114.49 9.53,-89.65 -36.38,-5.33 -21.65,-122.49 48.51,-1.77 137.73,-2.66 174.11,16.87 14.73,102.07 -30.32,167.75 -18.19,330.17l68.43 -261.83c4.34,-90.53 -51.1,-173.96 -140.33,-170.41 -4.33,11.54 19.06,2.66 -25.98,52.37l-27.72 -30.18c-24.26,-31.95 -14.73,-35.5 -22.53,-17.75 35.52,-23.08 39.85,-20.42 62.37,-55.92 -34.65,15.09 -39.84,24.85 -74.49,32.84z"/>
    <path class="fil20" d="M2261.24 663.14l-65.83 6.21c-6.07,-13.31 -12.13,-28.4 -18.2,-40.83 -36.38,37.28 -23.38,57.69 -97.01,30.18 -20.79,-64.79 0.86,-122.48 36.38,-197.92 246.01,-79.88 176.71,71 171.51,112.72 65.84,-47.93 44.18,-82.55 90.09,-142.9 55.44,-70.12 57.17,-32.84 128.21,-28.4 25.12,-27.52 -6.07,20.41 12.12,-22.19 4.33,-10.65 4.33,-17.75 13.86,-37.28 24.26,-2.66 36.38,6.21 56.31,-5.32l32.05 -28.41c2.6,-1.77 6.06,-5.32 8.66,-7.1 1.73,-1.77 6.06,-4.43 8.66,-7.1l-30.31 -25.74c1.73,-2.66 4.33,-9.76 5.19,-7.1 4.33,10.65 0,-40.82 71.03,-44.37l48.51 141.12c1.74,3.55 4.33,8.87 8.67,11.54 10.39,-61.25 33.78,-43.49 14.72,-94.97 -14.72,-41.72 -29.45,-3.55 -25.12,-67.46 -3.46,-2.66 -9.53,-10.65 -12.13,-7.1l-93.55 -39.05c-56.31,-29.29 -64.1,-19.53 -130.8,-19.53 -2.6,3.55 -4.33,6.22 -5.2,12.43l-36.38 74.55c-0.87,1.78 -1.73,6.22 -1.73,7.99l-16.46 63.02c-17.33,23.08 -38.12,23.08 -71.9,39.94l-232.15 55.91c43.31,-8.87 26.85,-16.86 33.78,-63.01 -88.36,0.89 -65.83,3.55 -112.61,39.94 6.06,44.38 -16.46,29.29 36.38,48.81 -30.32,31.96 -21.65,39.06 -84.89,38.17 37.25,75.44 16.46,15.97 59.77,63.01 -24.25,65.68 -12.99,-43.49 -25.12,50.6 -45.91,-20.42 -6.93,-27.52 -76.23,-43.49l-51.11 119.81c45.91,-16.86 72.77,-25.73 127.34,-25.73l19.06 31.06c0.86,1.78 2.6,5.33 4.33,7.99l58.9 126.03c42.45,-9.76 20.79,-11.54 42.45,-30.18l92.69 -86.98c0.86,-1.77 3.46,-6.21 6.06,-8.87z"/>
    <path class="fil20" d="M2354.79 1098.04l71.9 -47.04 4.33 -7.99c26.86,-65.68 -8.66,-15.97 53.71,-51.48 57.17,-31.95 12.13,-26.62 82.29,-31.95 -21.65,-38.16 -6.06,-28.4 -39.85,-42.6 -34.64,-23.97 -10.39,6.21 -22.52,-39.94 -1.73,-7.1 -2.6,-28.4 -2.6,-37.28 -4.33,-57.69 10.4,-39.94 -19.05,-75.44l-9.53 -18.64c-0.87,2.66 -4.33,3.55 -5.2,8.88l-50.24 79.88c-59.77,-14.2 12.13,-23.08 -85.76,-40.83l-10.39 84.32 32.05 10.65c1.73,0.88 6.93,1.77 8.66,1.77 25.12,4.44 -5.2,-10.65 24.25,0 9.53,87.87 -48.51,83.43 29.46,154.44 -40.72,17.75 -40.72,12.42 -61.51,53.25z"/>
    <path class="fil20" d="M631.84 776.75c39.85,-15.09 21.66,-5.33 36.39,-55.03 0.86,-1.78 2.59,-5.33 3.46,-7.99 17.33,-58.58 11.26,-63.02 -11.26,-130.47 -35.52,-103.85 6.93,-106.51 -95.29,-161.54l-19.05 -9.76c-14.73,-7.99 -13,-7.1 -33.79,-15.98 6.07,120.71 78.83,280.47 119.54,380.77z"/>
   </g>
   <g>
    <path class="fil21" d="M1951.13 700.42l-5.2 87.86c-243.41,0 -109.15,26.63 -130.8,-56.8l-65.84 -0.89c-0.86,15.09 7.8,31.07 7.8,33.73 7.79,55.03 -50.24,1.77 1.73,343.48l124.74 16.87c-14.73,101.18 -19.92,19.52 -23.39,71 50.24,12.43 65.84,5.33 125.61,-3.55 1.73,-0.89 5.19,-1.77 6.93,-1.77l31.18 -6.22c39.85,171.3 -2.6,65.68 12.13,121.6l25.98 28.4c-17.32,24.85 -38.98,102.96 0.87,101.18 -10.39,18.64 3.47,13.31 -38.11,-5.33 -51.11,71.01 2.59,15.09 -41.58,52.37l-59.77 41.72c25.12,61.24 37.24,7.1 9.52,81.65 -81.42,221.89 25.13,91.42 -58.9,184.61l-51.97 88.76c10.39,30.17 53.7,83.43 6.06,199.7l-16.46 69.23c-26.85,113.6 -57.17,33.72 -57.17,170.41 0,6.21 -0.87,8.87 0.87,13.31 20.79,-29.29 24.25,-26.63 45.91,-66.57 45.91,-83.43 110.88,-324.84 125.6,-414.48 13.86,-89.65 14.73,-88.76 20.79,-168.64 16.46,-75.44 64.1,-181.06 123.87,-203.25 38.98,-15.09 -32.91,12.43 14.73,-6.21l39.85 -15.09 10.39 -7.1c-15.59,-47.93 12.13,-85.21 51.11,-109.17 26.85,-31.07 41.58,-56.8 81.43,-79.88l6.06 -28.4c-44.18,1.77 -22.52,19.52 -55.44,-18.64 -2.6,-3.55 -15.59,-42.6 -17.32,-47.04 -201.84,-8.88 -28.59,-13.31 -252.08,-61.24l1.73 -132.25c98.75,0 246.88,-41.71 278.93,40.83 53.71,10.65 13.86,-5.33 56.31,37.28l8.66 8.87 26.85 -14.2c32.05,-31.06 12.13,38.17 6.07,-25.74 43.31,-4.44 -61.51,32.84 -42.45,-191.71 -21.66,-7.1 -37.25,-13.31 -58.9,-20.41 -19.06,18.64 -38.12,39.05 -56.31,63.01 -25.12,-7.1 -40.71,-11.53 -72.76,-16.86 -14.73,-23.08 -7.8,-14.2 -15.6,-47.04l-32.05 -108.28c-16.46,-37.28 -45.91,-42.6 -92.68,-45.27l-6.93 46.16z"/>
    <path class="fil21" d="M1902.62 2841.2c-25.99,-94.97 5.19,15.97 11.26,-88.76 -38.12,-21.3 -13.86,-4.44 -41.58,-33.73 -32.05,5.33 -13.86,-3.55 -29.45,22.19 25.98,35.5 38.98,14.2 30.31,36.39 -3.46,9.76 -36.38,10.65 -50.24,13.31 -66.7,11.54 -74.49,27.52 -125.6,21.31 -25.99,-41.72 -24.26,-106.51 -32.92,-172.19 4.33,-0.89 21.66,-3.55 24.26,-5.32l22.52 -25.74c-79.7,-3.55 -40.72,36.39 -91.82,40.82l53.7 -145.56c19.06,-81.65 -24.25,-9.76 17.33,-55.02 34.65,-36.39 8.66,-12.43 30.32,-11.54l12.99 -63.91c-20.79,11.54 -9.53,11.54 -38.98,4.44l-22.52 -38.16c-2.6,1.77 -6.07,2.66 -6.93,7.1 -0.87,5.32 -9.53,11.54 -10.4,14.2 -58.04,93.19 -60.63,59.46 -51.11,176.62 6.07,80.77 -25.98,231.65 1.74,278.69 21.65,23.08 15.59,7.1 64.1,15.09 21.65,3.55 45.91,8.88 66.7,12.43 57.17,9.76 101.35,0 166.32,-2.66z"/>
   </g>
   <g>
    <path class="fil22" d="M1467.76 763.43c26.86,125.15 6.93,48.82 -19.05,71.89 -3.47,21.3 9.53,9.77 -14.73,9.77 0.87,94.08 -22.52,71 32.92,161.53 27.72,45.27 58.04,126.92 73.63,163.31l12.13 -9.76c0.86,-51.48 -13.86,-78.11 -7.8,-131.36 65.83,0 32.92,-18.64 75.36,9.76 23.39,15.98 79.7,133.14 84.89,187.28 -54.57,-2.67 -22.52,-0.89 -58.9,-17.75 -71.03,-32.84 -12.99,21.3 -84.03,-29.29 12.13,51.48 29.46,86.98 64.11,123.37 134.26,140.23 149.86,51.48 194.9,225.44 8.66,34.61 3.47,28.4 15.59,60.35 10.4,26.63 34.65,28.4 2.6,150 -13.86,53.25 -38.11,69.22 -38.98,127.8 0,47.04 39.85,69.23 -17.32,228.99 -12.13,34.62 -7.8,28.4 -24.26,37.28 4.33,55.03 27.72,23.96 -12.99,77.22 -52.84,0.88 -50.24,7.1 -60.64,-44.38l-1.73 130.47c-31.19,-1.78 -18.19,8.88 -40.72,-31.95l-10.39 -27.52c-7.8,59.47 -19.06,16.87 -11.26,86.98 21.65,15.09 -13.86,13.32 51.11,16.87l22.52 38.16c29.45,7.1 18.19,7.1 38.98,-4.44 36.38,-30.17 11.26,7.99 21.66,-41.71 -1.74,-4.44 -0.87,-7.1 -0.87,-13.31 0,-136.69 30.32,-56.81 57.17,-170.41l16.46 -69.23c47.64,-116.27 4.33,-169.53 -6.06,-199.7l51.97 -88.76c84.03,-93.19 -22.52,37.28 58.9,-184.61 27.72,-74.55 15.6,-20.41 -9.52,-81.65l59.77 -41.72c44.17,-37.28 -9.53,18.64 41.58,-52.37 41.58,18.64 27.72,23.97 38.11,5.33 -39.85,1.78 -18.19,-76.33 -0.87,-101.18l-25.98 -28.4c-14.73,-55.92 27.72,49.7 -12.13,-121.6l-31.18 6.22c-1.74,0 -5.2,0.88 -6.93,1.77 -59.77,8.88 -75.37,15.98 -125.61,3.55 3.47,-51.48 8.66,30.18 23.39,-71l-124.74 -16.87c-51.97,-341.71 6.06,-288.45 -1.73,-343.48 0,-2.66 -8.66,-18.64 -7.8,-33.73l65.84 0.89c21.65,83.43 -112.61,56.8 130.8,56.8l5.2 -87.86c-77.97,3.55 -85.76,27.51 -144.67,15.08 -12.12,-2.66 -31.18,-9.76 -46.77,-11.53 -76.23,-10.65 -58.91,7.98 -115.21,15.97 -48.51,6.21 -51.11,-4.44 -98.75,-10.65l-40.72 -7.99c-47.64,55.92 1.74,51.48 -37.25,62.13z"/>
    <path class="fil22" d="M477.65 256.64l34.65 139.34c20.79,8.88 19.06,7.99 33.79,15.98l19.05 9.76c102.22,55.03 59.77,57.69 95.29,161.54 22.52,67.45 28.59,71.89 11.26,130.47 -0.87,2.66 -2.6,6.21 -3.46,7.99 -14.73,49.7 3.46,39.94 -36.39,55.03l47.65 123.37c38.98,-48.82 22.52,-95.86 92.68,-134.03 53.71,-29.28 64.11,-17.75 124.74,-1.77 -6.06,31.95 0,27.51 -21.65,40.83 38.98,4.43 80.56,0 94.42,3.55 55.44,14.2 30.32,30.17 55.44,48.81 19.05,-38.16 -6.07,-13.31 39.84,-20.41 -23.38,-124.26 -164.58,-410.05 -123.87,-456.2l3.47 -23.08c-25.99,-23.96 -38.12,-90.53 -45.91,-121.6 -8.67,-32.83 -8.67,-39.05 -18.2,-71 -18.19,-57.69 -6.93,-52.37 -52.84,-55.92 -7.79,55.92 -38.98,82.55 -15.59,110.95 -44.18,7.1 -26.85,19.53 -58.04,-36.39l-9.52 -20.41c-64.97,91.41 -32.06,15.97 -129.94,54.14 -40.71,15.97 -2.6,23.07 -58.04,23.07 -84.89,-0.88 26.85,-14.2 -43.31,-12.42 -29.45,47.92 1.73,0 -35.52,28.4z"/>
    <path class="fil22" d="M2340.93 1416.67c-22.52,35.5 -26.85,32.84 -62.37,55.92 7.8,-17.75 -1.73,-14.2 22.53,17.75l27.72 30.18c45.04,-49.71 21.65,-40.83 25.98,-52.37 89.23,-3.55 144.67,79.88 140.33,170.41l-68.43 261.83 1.73 16.86 -2.6 136.68c6.93,41.72 20.79,31.07 45.92,49.71 67.56,48.81 60.63,29.29 148.99,37.28 0,0.88 5.2,19.52 6.06,22.18 12.13,32.84 9.53,20.42 14.73,34.62 15.59,39.05 12.13,23.08 8.66,69.23l19.06 144.67 -2.6 126.03c88.36,-33.73 -42.45,7.1 69.3,-49.7 0.86,-22.19 0.86,-39.05 6.06,-59.47 13.86,-56.8 14.73,4.44 11.26,-51.48 -5.19,-92.3 7.8,-27.51 13.86,-92.3 34.65,-17.75 -33.78,1.77 5.2,1.77 18.19,0 -16.46,12.43 9.53,-1.77 47.64,-205.91 50.24,-39.05 49.37,-355.02 0,-25.74 0,-37.28 3.47,-63.91 12.13,-93.19 12.99,-329.28 -36.38,-431.35 -27.72,-55.03 -28.59,-52.36 -33.79,-123.37l-16.45 -1.77 3.46 144.67 26.85 -17.75c38.98,93.19 57.18,231.65 3.47,315.97 1.73,1.77 6.06,-0.89 6.93,1.77 17.32,68.34 13.86,-54.14 23.39,26.63 1.73,15.09 -0.87,66.56 -0.87,86.09 10.4,-7.99 18.19,17.75 9.53,-27.51 -7.8,-39.06 -2.6,-21.3 -22.52,-43.49 -17.33,36.39 -9.53,39.05 1.73,96.74 23.39,128.7 18.19,181.95 -14.73,296.44 -21.65,-4.43 -6.06,13.32 -38.11,-44.37 -0.87,-1.78 -1.73,-6.22 -4.33,-8.88 -4.33,56.8 -38.12,43.49 -71.9,14.2 -51.11,-45.26 -26.85,0.89 -33.78,-169.52 -1.74,-39.05 7.79,-32.84 -0.87,-70.12 -16.46,-69.23 14.73,20.41 -22.52,-46.15 -12.13,-22.19 -1.73,-10.65 9.53,-39.94 19.05,-49.7 9.53,-78.99 25.12,-96.74 19.92,-207.69 -68.43,-97.64 -1.73,-212.13l11.26 -15.98c-17.33,-31.95 11.26,-22.18 -48.51,-23.07l-13.86 -157.1c-44.18,120.71 -120.41,102.96 -202.7,104.73 34.65,-39.94 39.84,-15.97 64.1,-26.62 -24.26,-19.53 -32.05,-24.86 -65.83,-17.76 -30.32,6.22 -38.12,15.09 -50.25,37.28z"/>
   </g>
   <path class="fil23" d="M34.14 332.97c-15.59,293.78 4.33,939.92 4.33,1279.85 -0.87,148.22 -21.66,1205.3 16.46,1246.13 36.38,33.72 733.7,12.42 847.18,12.42l-19.06 -1119.2c-2.6,-161.54 49.38,-141.12 91.82,-177.51 -12.12,-278.7 85.76,-53.26 -145.52,-363.01 -71.9,-95.86 -144.67,-217.45 -200.1,-333.72 -92.69,-199.7 -154.2,-402.95 -180.18,-621.29 -5.2,-50.59 -8.66,-66.57 -19.06,-114.5 -13.86,-58.57 -27.72,-73.66 -0.87,-110.94l-388.94 1.78 -6.06 299.99z"/>
   <path class="fil24" d="M827.61 109.3c45.91,3.55 34.65,-1.77 52.84,55.92 9.53,31.95 9.53,38.17 18.2,71 7.79,31.07 19.92,97.64 45.91,121.6l21.65 43.49c28.59,-18.64 25.12,27.51 21.66,-32.84 -11.26,-12.43 -23.39,23.08 -15.59,-34.61 4.33,-35.51 -6.93,-18.64 119.54,-32.84 8.66,28.4 13.86,54.14 24.25,75.44 98.75,-3.55 62.37,7.1 123.01,29.29l-2.6 109.17 12.13 -3.55 10.39 -26.63c0,-13.31 -1.73,-177.51 -2.6,-178.4 -15.59,-77.22 -24.25,-34.61 -43.31,-36.39 -19.92,-0.89 -47.64,11.54 -56.31,16.87 -12.12,-15.09 -2.59,1.77 -20.78,-30.18 -1.74,-2.66 -8.67,-23.97 -8.67,-25.74l-30.32 -10.65c-110.01,-41.72 21.66,11.54 -38.11,-14.2l-58.9 -40.83c-77.97,-78.99 5.19,-96.74 -56.31,-86.09 25.99,-1.78 30.32,-0.89 51.11,4.44 2.6,0.88 6.06,2.66 8.66,2.66 2.6,0.89 6.06,2.66 8.66,3.55 1.74,0.89 5.2,1.77 7.8,2.66l15.59 4.44c6.07,0.89 89.22,-5.33 105.68,-7.1 84.89,-7.99 181.05,-0.89 251.21,-2.66 44.18,-0.89 75.36,-15.09 124.74,-16.87 44.18,-1.77 79.69,0.89 127.34,-0.89 43.31,-1.77 97.88,10.66 117.81,11.54 54.57,4.44 38.11,-23.96 110.01,-1.77 -11.26,57.69 14.72,54.14 -52.84,63.9 -69.3,8.88 -1.73,-15.09 -30.32,-13.31 -0.87,3.55 -11.26,53.25 -12.13,53.25 -12.13,31.95 6.07,15.98 -24.25,31.95 -51.98,29.29 -54.58,-28.4 -80.56,31.96 -45.91,16.86 -37.25,90.53 -28.59,162.42l-88.36 0c-5.19,11.54 -24.25,56.8 -29.45,71 -11.26,27.52 -17.32,41.72 -7.79,71.01 21.65,70.11 30.31,-2.67 27.72,157.98 47.64,6.21 50.24,16.86 98.75,10.65 56.3,-7.99 38.98,-26.62 115.21,-15.97 15.59,1.77 34.65,8.87 46.77,11.53 58.91,12.43 66.7,-11.53 144.67,-15.08l6.93 -46.16c46.77,2.67 76.22,7.99 92.68,45.27l32.05 108.28c51.11,21.3 53.71,34.61 103.09,-9.76 40.71,-36.39 22.52,-17.75 38.98,-63.91l178.44 28.4c11.26,-71.89 12.13,-77.21 35.52,-138.45 -3.47,-1.78 -7.8,-8.88 -8.66,-6.22 -10.4,18.64 -129.94,-187.27 76.23,-163.31 57.17,6.22 64.1,20.42 106.54,0.89l-4.33 -7.99 37.25 -85.2c118.67,3.55 128.2,73.66 129.94,134.91 31.18,8.87 -5.2,-6.22 12.12,0l11.26 5.32c1.74,0.89 11.26,6.21 14.73,8.88 -3.47,-36.39 -6.06,-63.02 -22.52,-96.75 -24.26,-48.81 12.99,-36.39 -50.24,-44.37 -4.34,-2.67 -6.93,-7.99 -8.67,-11.54l-48.51 -141.12c-71.03,3.55 -66.7,55.02 -71.03,44.37 -0.86,-2.66 -3.46,4.44 -5.19,7.1l30.31 25.74c-2.6,2.67 -6.93,5.33 -8.66,7.1 -2.6,1.78 -6.06,5.33 -8.66,7.1l-32.05 28.41c-19.93,11.53 -32.05,2.66 -56.31,5.32 -9.53,19.53 -9.53,26.63 -13.86,37.28 -18.19,42.6 13,-5.33 -12.12,22.19 -71.04,-4.44 -72.77,-41.72 -128.21,28.4 -45.91,60.35 -24.25,94.97 -90.09,142.9 -19.92,19.52 -6.06,13.31 -14.72,45.26 -10.4,40.83 -3.47,2.66 -12.13,44.38 -2.6,2.66 -5.2,7.1 -6.06,8.87l-92.69 86.98c-21.66,18.64 0,20.42 -42.45,30.18l-58.9 -126.03c-1.73,-2.66 -3.47,-6.21 -4.33,-7.99l-19.06 -31.06c-54.57,0 -81.43,8.87 -127.34,25.73l51.11 -119.81c69.3,15.97 30.32,23.07 76.23,43.49 12.13,-94.09 0.87,15.08 25.12,-50.6 -43.31,-47.04 -22.52,12.43 -59.77,-63.01 63.24,0.89 54.57,-6.21 84.89,-38.17 -52.84,-19.52 -30.32,-4.43 -36.38,-48.81 46.78,-36.39 24.25,-39.05 112.61,-39.94 -6.93,46.15 9.53,54.14 -33.78,63.01l232.15 -55.91c33.78,-16.86 54.57,-16.86 71.9,-39.94l16.46 -63.02c0,-1.77 0.86,-6.21 1.73,-7.99l36.38 -74.55c0.87,-6.21 2.6,-8.88 5.2,-12.43 66.7,0 74.49,-9.76 130.8,19.53l93.55 39.05c2.6,-3.55 8.67,4.44 12.13,7.1l76.23 7.99c-48.51,-138.46 43.31,-10.65 0.87,-149.11 -123.01,-0.89 -239.09,-10.65 -351.7,-8.87 -126.47,1.77 -250.34,8.87 -380.28,8.87 26.86,-29.29 6.93,-17.75 50.25,-33.72l119.54 -3.56 -1768 -0.88c25.99,33.72 2.6,-48.82 7.8,15.97 0.87,13.32 0.87,7.1 -7.8,22.19 81.43,-13.31 152.46,-10.65 228.69,0l32.92 31.95c12.99,-15.97 74.49,-31.95 88.35,10.65z"/>
   <path class="fil25" d="M9.02 371.13c6.93,98.52 5.2,240.53 5.2,341.71 -0.87,108.28 0,196.15 1.73,304.43l-2.6 1884.28c141.2,25.74 556.99,-0.89 728.51,-0.89l1435.35 -10.65c155.06,0.89 606.37,-10.65 712.05,17.75 19.06,-182.83 -16.46,-2124.8 -12.99,-2141.67 -46.78,80.77 12.13,1809.73 -14.73,2090.19l-304.05 9.77 -983.18 -5.33 -8.66 -309.75c-5.2,-158.88 0.87,-313.31 -3.47,-468.63 -3.46,-126.92 8.67,-363.9 -11.26,-461.53 -61.5,-27.52 -32.05,-41.72 -115.21,-49.7 0.87,-54.15 -5.19,-107.4 -20.79,-158.88 -17.32,-55.02 -42.44,-83.43 -37.24,-134.9l-19.06 0c-19.06,17.75 12.13,29.28 -33.78,6.21l11.26 39.05 -71.9 -5.32 -50.24 -7.11 -69.3 11.54 -19.06 21.3 116.08 2.67 45.04 7.1c19.06,2.66 47.64,3.55 61.5,11.54 31.19,18.63 11.26,-0.89 15.6,31.95l32.91 160.64 -44.18 3.56 -142.06 -13.32 -115.21 0 8.66 7.1 7.8 24.85 127.34 -6.21 55.44 1.78c45.91,5.32 103.95,0.88 142.93,28.4l46.77 16.86c29.46,104.73 25.12,436.68 22.53,576.02 -3.47,197.04 0,399.4 9.52,596.44l19.06 77.22 -106.55 -0.89 -53.7 2.66 -93.56 -0.89 -23.39 -1.77 -305.78 -2.66c2.6,-185.5 -23.39,-366.56 -21.65,-543.19 1.73,-186.38 4.33,-370.11 4.33,-557.38 -25.12,-8.88 -15.59,-6.21 -51.98,-13.31l19.06 1119.2c-113.48,0 -810.8,21.3 -847.18,-12.42 -38.12,-40.83 -17.33,-1097.91 -16.46,-1246.13 0,-339.93 -19.92,-986.07 -4.33,-1279.85 -29.45,31.06 -25.99,-39.94 -25.12,38.16z"/>
   <path class="fil26" d="M2657.11 2601.56c2.6,-1.78 8.66,-7.1 9.53,-4.44l17.32 -7.1c66.7,-34.62 -6.06,14.2 13.86,-8.88l13.86 -25.74c1.74,-1.77 4.33,-5.32 6.07,-7.99 35.51,-43.49 -22.52,2.67 17.32,-16.86 40.72,16.86 32.05,-23.96 33.79,71.01l34.65 0 5.19 134.9c22.52,-19.52 -10.39,-34.61 45.91,-52.36l-12.99 50.59c-17.33,64.79 -6.93,50.59 -43.31,91.42 -45.05,-5.33 -63.24,-17.75 -113.48,-71.01 -31.18,-33.72 -30.32,-97.63 -27.72,-153.54zm149.86 -1477.78c6.93,42.6 6.93,78.99 -1.73,114.49 -5.2,22.19 -7.8,32.84 -16.46,47.04 -16.46,28.41 -1.73,13.32 -24.26,25.74 5.2,71.01 6.07,68.34 33.79,123.37 49.37,102.07 48.51,338.16 36.38,431.35 -3.47,26.63 -3.47,38.17 -3.47,63.91 0.87,315.97 -1.73,149.11 -49.37,355.02 -25.99,14.2 8.66,1.77 -9.53,1.77 -38.98,0 29.45,-19.52 -5.2,-1.77 -6.06,64.79 -19.05,0 -13.86,92.3 3.47,55.92 2.6,-5.32 -11.26,51.48 -5.2,20.42 -5.2,37.28 -6.06,59.47 -111.75,56.8 19.06,15.97 -69.3,49.7l2.6 -126.03 -25.99 -12.43c-7.8,-35.5 -7.8,-75.44 -25.12,-102.07l-47.64 -54.14c-30.32,58.58 -88.36,62.13 -102.22,124.26 -20.79,90.53 29.45,124.26 -63.23,145.56 -0.87,5.33 -0.87,30.18 -0.87,31.06l-11.26 33.73 -50.24 -5.32 24.25 9.76c3.47,0 7.8,2.66 12.13,2.66l70.16 -19.52c14.73,-48.82 -0.86,3.55 6.07,-23.08 12.99,-42.6 20.79,-59.47 51.11,-84.32 5.19,-4.44 -26.86,-6.21 38.11,-20.41l8.66 -105.62c81.43,20.41 65.84,26.63 66.7,194.37 -25.98,21.3 41.58,17.75 -50.24,24.86l-13.86 115.38c-168.05,-17.75 -18.19,7.98 -126.47,36.39 -22.52,6.21 -51.97,6.21 -70.17,6.21l-12.99 52.37c-28.59,4.43 -95.29,9.76 -122.14,43.49 21.66,11.53 32.05,8.87 67.57,12.42 18.19,0.89 18.19,-1.77 37.25,3.55 36.38,10.65 12.99,-6.21 38.11,23.08 27.72,-0.89 59.77,-1.78 88.36,0l90.09 16.86c3.46,1.78 7.79,2.66 12.12,5.33l304.05 -9.77c26.86,-280.46 -32.05,-2009.42 14.73,-2090.19 15.59,-50.59 14.73,-15.97 1.73,-66.56 -16.46,-20.42 -2.6,5.32 -12.13,-27.52 -18.19,-63.9 9.53,51.48 -4.33,-22.19 -3.46,-19.52 1.74,-15.97 -5.19,-46.15 -34.65,-5.32 -30.32,-15.97 -32.06,7.99 -0.86,94.08 5.2,188.16 0.87,278.69 -1.73,49.7 26.85,214.79 -18.19,233.43z"/>
   <path class="fil27" d="M1155.05 995.08c14.73,-8.87 17.33,-5.32 20.79,-64.79 2.6,-39.05 -0.86,-53.25 -3.46,-90.53 -1.74,-23.96 -4.33,-65.68 -3.47,-89.64l19.06 -71.01c90.95,53.26 73.63,202.37 67.57,315.97l-100.49 0zm-1146.03 -623.95c-0.87,-78.1 -4.33,-7.1 25.12,-38.16l6.06 -299.99 388.94 -1.78c-26.85,37.28 -12.99,52.37 0.87,110.94 10.4,47.93 13.86,63.91 19.06,114.5 25.98,218.34 87.49,421.59 180.18,621.29 55.43,116.27 128.2,237.86 200.1,333.72 231.28,309.75 133.4,84.31 145.52,363.01 -42.44,36.39 -94.42,15.97 -91.82,177.51 36.39,7.1 26.86,4.43 51.98,13.31 -16.46,-27.51 -4.33,-46.15 2.6,-88.76 6.06,-52.36 1.73,-39.05 28.58,-54.14l82.3 -31.06 14.72 -7.1 48.51 -5.33 -7.8 -24.85c-51.1,4.44 -60.63,15.09 -108.28,13.32 18.2,-45.27 14.73,-39.06 23.39,-88.76 1.74,-15.09 4.33,-78.99 9.53,-87.87 15.59,-28.4 8.66,-17.75 56.31,-23.07l40.71 -24.86 19.06 -21.3 -88.36 18.64 29.45 -121.59c5.2,-39.06 6.93,-76.33 11.26,-117.16 6.07,-81.66 14.73,-61.24 92.69,-81.66l36.38 3.56c86.63,8.87 77.97,7.1 85.76,94.96 5.2,55.92 6.93,110.95 13,165.09 45.91,23.07 14.72,11.54 33.78,-6.21l-7.8 -139.35c43.31,44.38 18.19,33.73 73.63,72.78l71.03 55.91c-46.77,-102.06 -82.29,-91.41 -127.33,-150.88 -38.98,-50.59 -59.77,-138.46 -66.7,-201.47l4.33 -36.39c-15.59,-29.29 -13,-50.59 -16.46,-94.08l-12.13 -51.48c-31.18,-18.64 -36.38,-36.39 -54.57,-61.24l-70.17 6.21 -5.19 111.83c-45.05,35.5 6.93,-7.1 -17.33,124.26 -5.2,30.18 -2.6,16.86 -7.79,28.4 3.46,79.88 -43.32,7.1 -71.04,194.37 -28.58,193.49 19.06,136.69 -53.7,209.47l-161.12 -196.15c-49.38,-78.99 -100.49,-151.77 -156.79,-249.4l-47.65 -123.37c-40.71,-100.3 -113.47,-260.06 -119.54,-380.77l-34.65 -139.34c-1.73,-49.7 -4.33,-182.84 -22.52,-222.78l22.52 -5.32 1768 0.88 599.43 7.11c-4.33,70.11 11.27,196.14 12.13,283.12 1.73,96.75 1.73,192.6 -0.86,288.46l0 -4.44c6.93,30.18 1.73,26.63 5.19,46.15 13.86,73.67 -13.86,-41.71 4.33,22.19 9.53,32.84 -4.33,7.1 12.13,27.52 -16.46,-71.01 -6.93,-255.62 -6.93,-341.71 -0.86,-311.53 103.08,-367.45 -148.99,-351.47 -287.59,18.64 -981.45,7.1 -1280.3,7.99 -242.55,0.88 -496.36,-7.99 -733.71,-6.22l-547.46 0.89c-193.17,-5.32 -161.99,-87.87 -151.59,362.12z"/>
   <path class="fil28" d="M1258.13 2868.71l23.39 1.77c-9.53,-41.71 -13.86,-43.49 19.06,-47.92 -5.2,-327.51 12.99,-650.58 0.87,-981.64l-6.93 -266.26 -55.44 -1.78c-34.65,18.64 -41.58,13.31 -89.23,11.54 18.2,198.81 66.71,53.25 50.25,295.55 -9.53,126.92 -32.05,15.98 -28.59,315.97 0.87,107.4 8.66,205.03 24.26,310.65 15.59,110.94 -3.47,231.65 -8.67,336.38 36.39,25.74 39.85,6.21 71.03,25.74z"/>
   <path class="fil29" d="M1565.65 2550.97l8.66 309.75 983.18 5.33c-4.33,-2.67 -8.66,-3.55 -12.12,-5.33l-90.09 -16.86c-28.59,-1.78 -60.64,-0.89 -88.36,0 -133.4,26.62 -289.32,27.51 -427.92,1.77 90.09,-33.72 62.37,4.44 148.13,-64.79l-54.58 -52.36 39.85 -139.35c6.06,-19.53 12.13,4.44 8.66,-47.93l28.59 -170.41c51.97,-136.68 37.25,-46.15 42.44,-247.63l-51.1 9.77 -25.13 198.81c0,-38.17 5.2,-70.12 -12.99,-93.19 -29.45,60.35 -10.39,47.04 -17.32,72.78 -11.27,45.26 -26.86,21.3 -31.19,60.35 39.85,15.98 8.66,-15.98 35.52,28.4 25.98,41.72 0,64.79 -62.37,65.68l0 43.49c62.37,0.89 47.64,13.31 70.16,-18.64 6.93,80.77 0.87,29.29 -67.56,57.69 1.73,3.55 2.6,7.1 3.46,9.77l6.93 31.06c1.73,19.53 -0.86,31.95 -2.6,50.59 -54.57,46.15 -38.11,72.78 -46.77,131.36 -10.4,83.43 -20.79,60.35 -48.51,70.12 -64.97,2.66 -109.15,12.42 -166.32,2.66 -20.79,-3.55 -45.05,-8.88 -66.7,-12.43 -48.51,-7.99 -42.45,7.99 -64.1,-15.09 -27.72,-47.04 4.33,-197.92 -1.74,-278.69 -9.52,-117.16 -6.93,-83.43 51.11,-176.62 0.87,-2.66 9.53,-8.88 10.4,-14.2 0.86,-4.44 4.33,-5.33 6.93,-7.1 -64.97,-3.55 -29.46,-1.78 -51.11,-16.87 -7.8,-70.11 3.46,-27.51 11.26,-86.98l10.39 27.52c22.53,40.83 9.53,30.17 40.72,31.95l1.73 -130.47c10.4,51.48 7.8,45.26 60.64,44.38 40.71,-53.26 17.32,-22.19 12.99,-77.22 -58.9,-5.33 -77.09,-0.89 -109.15,-31.06l-56.3 -71.01c-2.6,67.46 0.87,479.28 -27.72,521z"/>
   <path class="fil30" d="M1440.91 1644.77c25.99,-0.88 32.92,-9.76 38.98,42.61 0.87,8.87 1.73,205.02 -12.99,234.31 -4.33,-6.21 -7.8,-6.21 -15.59,-30.18 -15.6,-52.36 -11.26,-183.72 -11.26,-235.2 -41.58,43.49 -6.93,44.38 -32.92,71.01 -9.53,154.43 6.93,327.5 11.26,481.94 8.66,317.74 -30.32,247.62 -42.45,317.74 -5.19,29.29 3.47,81.66 4.33,114.5 19.93,39.05 29.46,54.14 32.06,112.71 3.46,81.66 -11.27,63.02 -37.25,117.16l53.7 -2.66c32.92,-31.07 -46.77,-25.74 51.11,-25.74 -19.92,20.41 21.66,29.29 -42.44,-50.59 35.51,-38.17 -10.4,5.32 54.57,-23.96 0,58.57 -7.8,-3.55 24.25,23.96 -9.52,-197.04 -12.99,-399.4 -9.52,-596.44 2.59,-139.34 6.93,-471.29 -22.53,-576.02l-46.77 -16.86c-13.86,23.96 -24.26,-15.09 3.46,41.71z"/>
   <path class="fil31" d="M2431.02 1043.01c40.72,-0.89 2.6,14.2 59.77,-4.44 -2.6,8.88 -4.33,19.53 -4.33,22.19l7.8 23.08c27.72,5.32 8.66,-8.88 23.39,10.65 -27.72,52.37 -33.79,28.4 -72.77,64.79 -32.05,29.29 -37.25,64.79 -90.09,55.03 -11.26,11.54 -19.92,24.85 -32.05,36.39 -37.25,32.84 -71.9,52.36 -107.41,113.61l2.6 8.87c44.18,-15.97 23.39,6.21 22.52,-24.85 2.6,-3.55 6.06,-7.1 7.8,-9.76 1.73,-2.67 5.19,-6.22 7.79,-8.88 2.6,-2.66 5.2,-6.21 6.93,-8.87l194.04 -122.49c37.25,-11.54 20.79,9.77 65.83,-7.1l-30.31 43.49c-25.13,45.27 -19.06,31.95 -19.06,95.86 151.59,-2.66 114.34,-92.31 156.79,-34.62 -11.26,30.18 10.39,12.43 -34.65,23.08l13.86 157.1c59.77,0.89 31.18,-8.88 48.51,23.07l-11.26 15.98c-66.7,114.49 21.65,4.44 1.73,212.13 104.81,25.73 90.95,-18.64 82.29,-107.4 -4.33,-41.71 -6.93,-54.14 6.93,-85.2 28.59,-66.57 27.72,26.62 13.86,-80.77l-3.46 -144.67c0.86,-2.67 2.59,-6.22 3.46,-7.1l38.98 -58.58c0.87,-6.21 6.07,-7.1 7.8,-10.65 -15.59,-4.44 -20.79,7.1 -71.9,-12.43 -112.61,-42.6 -157.66,30.18 -208.76,-61.24l-11.26 -27.51c19.92,-13.32 36.38,-22.19 55.43,-38.17l-26.85 -54.14c-0.87,-4.44 -2.6,-6.21 -2.6,-9.76 0,0 -6.06,39.94 21.66,-18.64 15.59,-32.84 19.06,32.84 12.99,-51.48 -70.16,5.33 -25.12,0 -82.29,31.95 -62.37,35.51 -26.85,-14.2 -53.71,51.48z"/>
   <path class="fil32" d="M679.49 900.12c56.3,97.63 107.41,170.41 156.79,249.4l13.86 -23.97c36.38,-58.57 38.11,-69.23 77.96,-86.09 96.15,-42.6 60.63,14.2 126.47,-39.94 56.3,-46.15 39.85,-39.05 32.05,-62.13 46.78,-16.86 9.53,14.2 15.59,-28.4 0,0 -14.72,-48.81 -37.25,-71.89 -45.91,7.1 -20.79,-17.75 -39.84,20.41 -25.12,-18.64 0,-34.61 -55.44,-48.81 -13.86,-3.55 -55.44,0.88 -94.42,-3.55 21.65,-13.32 15.59,-8.88 21.65,-40.83 -60.63,-15.98 -71.03,-27.51 -124.74,1.77 -70.16,38.17 -53.7,85.21 -92.68,134.03z"/>
   <path class="fil33" d="M2751.53 1453.95c13.86,107.39 14.73,14.2 -13.86,80.77 -13.86,31.06 -11.26,43.49 -6.93,85.2 8.66,88.76 22.52,133.13 -82.29,107.4 -15.59,17.75 -6.07,47.04 -25.12,96.74 -11.26,29.29 -21.66,17.75 -9.53,39.94 37.25,66.56 6.06,-23.08 22.52,46.15 8.66,37.28 -0.87,31.07 0.87,70.12 6.93,170.41 -17.33,124.26 33.78,169.52 33.78,29.29 67.57,42.6 71.9,-14.2 2.6,2.66 3.46,7.1 4.33,8.88 32.05,57.69 16.46,39.94 38.11,44.37 32.92,-114.49 38.12,-167.74 14.73,-296.44 -11.26,-57.69 -19.06,-60.35 -1.73,-96.74 19.92,22.19 14.72,4.43 22.52,43.49 8.66,45.26 0.87,19.52 -9.53,27.51 0,-19.53 2.6,-71 0.87,-86.09 -9.53,-80.77 -6.07,41.71 -23.39,-26.63 -0.87,-2.66 -5.2,0 -6.93,-1.77 53.71,-84.32 35.51,-222.78 -3.47,-315.97l-26.85 17.75z"/>
   <path class="fil34" d="M966.21 1622.58c-26.85,15.09 -22.52,1.78 -28.58,54.14 34.65,-5.32 25.98,79 25.12,113.61l16.46 443.78c1.73,211.24 -10.4,421.59 -19.06,630.16l103.08 -7.1c14.73,-193.49 -37.25,-442 -33.78,-647.91 1.73,-86.1 -2.6,-414.49 20.79,-480.17 22.52,-62.13 24.25,-86.98 12.99,-144.67l-14.72 7.1 -14.73 27.51c-0.87,3.55 -1.73,7.1 -2.6,9.77 0,0 -5.2,32.84 -5.2,34.61 -10.39,80.77 -5.19,165.97 -40.71,202.36l-19.06 -243.19z"/>
   <path class="fil35" d="M1301.45 1840.92c12.12,331.06 -6.07,654.13 -0.87,981.64 42.45,-22.19 7.8,1.77 13.86,-144.67 4.33,-90.54 -7.8,-83.43 26.85,-119.82l20.79 -17.76c-4.33,31.96 -5.19,68.35 18.19,101.19 -0.86,-32.84 -9.52,-85.21 -4.33,-114.5 12.13,-70.12 51.11,0 42.45,-317.74 -4.33,-154.44 -20.79,-327.51 -11.26,-481.94 -58.04,57.69 -8.66,138.45 -54.58,203.24 -41.57,-16.86 -16.45,-46.15 -51.1,-89.64z"/>
   <path class="fil36" d="M477.65 256.64c37.25,-28.4 6.07,19.52 35.52,-28.4 70.16,-1.78 -41.58,11.54 43.31,12.42 55.44,0 17.33,-7.1 58.04,-23.07 97.88,-38.17 64.97,37.27 129.94,-54.14l9.52 20.41c31.19,55.92 13.86,43.49 58.04,36.39 -23.39,-28.4 7.8,-55.03 15.59,-110.95 -13.86,-42.6 -75.36,-26.62 -88.35,-10.65l-32.92 -31.95c-76.23,-10.65 -147.26,-13.31 -228.69,0 8.67,-15.09 8.67,-8.87 7.8,-22.19 -5.2,-64.79 18.19,17.75 -7.8,-15.97l-22.52 5.32c18.19,39.94 20.79,173.08 22.52,222.78z"/>
   <path class="fil37" d="M836.28 1149.52l161.12 196.15c72.76,-72.78 25.12,-15.98 53.7,-209.47 27.72,-187.27 74.5,-114.49 71.04,-194.37 -3.47,-55.03 5.19,-15.98 -19.93,-32.84 -6.06,42.6 31.19,11.54 -15.59,28.4 7.8,23.08 24.25,15.98 -32.05,62.13 -65.84,54.14 -30.32,-2.66 -126.47,39.94 -39.85,16.86 -41.58,27.52 -77.96,86.09l-13.86 23.97z"/>
   <path class="fil38" d="M1947.66 1682.05c-6.06,79.88 -6.93,78.99 -20.79,168.64 -14.72,89.64 -79.69,331.05 -125.6,414.48 -21.66,39.94 -25.12,37.28 -45.91,66.57 -10.4,49.7 14.72,11.54 -21.66,41.71l-12.99 63.91c59.77,-13.32 25.12,7.1 50.24,-42.6 10.39,-20.42 5.2,-24.86 25.12,-58.58 16.46,-25.74 105.68,-73.67 105.68,-160.65 -15.59,-51.48 -16.46,-49.7 5.2,-97.63 13.86,-30.18 3.46,-9.76 14.72,-43.49 11.26,-34.62 6.07,-22.19 24.26,-47.04 73.63,-189.05 22.52,-157.99 85.76,-292.89 21.65,-44.38 -1.74,-43.49 -4.34,-65.68 -0.86,-6.22 -3.46,-7.1 -4.33,-11.54 -46.77,-47.04 26.86,22.19 -11.26,-36.39l-64.1 101.18z"/>
   <path class="fil39" d="M1277.19 732.37l12.13 51.48c32.92,-3.55 49.38,6.21 76.23,-22.19 12.99,21.3 4.33,18.64 23.39,39.94 30.32,34.61 0,8.87 25.98,13.31 0,0 3.47,-0.89 5.2,-0.89 37.25,7.1 23.39,-43.49 28.59,21.3 25.98,-23.07 45.91,53.26 19.05,-71.89 -33.78,-28.4 -19.05,-10.65 -29.45,-63.01 0.87,-2.67 -4.33,-55.92 -6.93,-63.02 -11.26,-30.18 -13.86,-11.54 -45.04,-46.15 -71.03,-81.66 8.66,-67.46 -137.73,-79.88 -15.6,53.25 3.46,19.52 5.19,56.8 2.6,47.04 -27.72,-17.75 1.74,75.44 0,1.78 0.86,5.33 1.73,7.1 14.72,49.71 12.99,49.71 51.97,72.78 -19.92,22.19 27.72,45.27 -32.05,8.88z"/>
   <path class="fil40" d="M2261.24 663.14c8.66,-41.72 1.73,-3.55 12.13,-44.38 8.66,-31.95 -5.2,-25.74 14.72,-45.26 5.2,-41.72 74.5,-192.6 -171.51,-112.72 -35.52,75.44 -57.17,133.13 -36.38,197.92 73.63,27.51 60.63,7.1 97.01,-30.18 6.07,12.43 12.13,27.52 18.2,40.83l65.83 -6.21z"/>
   <path class="fil41" d="M987.87 368.47c3.46,60.35 6.93,14.2 -21.66,32.84l-21.65 -43.49 -3.47 23.08 60.64 140.23c12.99,24.85 25.99,40.83 35.51,64.79 11.27,28.4 11.27,42.6 29.46,85.21 19.92,-27.52 23.38,-47.04 41.58,-71.9 -17.33,-17.75 -36.39,-37.27 -51.11,-62.12 -6.93,-10.66 -18.19,-33.73 -19.06,-44.38 -2.6,-52.37 -5.2,-24.85 17.32,-53.26 18.2,28.41 47.65,70.12 66.71,99.41 0,0 -21.66,6.21 -7.8,-39.94 0.87,-2.66 3.46,-7.99 4.33,-10.65 0.87,-2.66 3.47,-7.1 6.06,-10.65l38.98 44.38c43.32,56.8 47.65,87.86 58.91,149.11 18.19,24.85 23.39,42.6 54.57,61.24 59.77,36.39 12.13,13.31 32.05,-8.88 -38.98,-23.07 -37.25,-23.07 -51.97,-72.78 -0.87,-1.77 -1.73,-5.32 -1.73,-7.1 -29.46,-93.19 0.86,-28.4 -1.74,-75.44 -1.73,-37.28 -20.79,-3.55 -5.19,-56.8l-12.13 3.55c-64.1,-12.43 -10.4,12.42 -47.64,-43.49 -33.79,-49.71 -75.37,-85.21 -140.33,-71.01 -10.4,-33.72 -20.79,-41.71 -51.11,-65.68 -15.6,23.08 -22.53,-27.51 -9.53,33.73z"/>
   <path class="fil42" d="M1358.62 1277.33l19.06 0c18.19,-42.61 -3.47,-22.19 21.65,7.1l81.43 125.14c15.59,17.75 19.92,12.43 33.78,27.52 1.73,1.77 4.33,4.43 6.07,6.21 36.38,44.38 44.17,79.88 58.9,134.02 17.32,-28.4 6.06,-70.12 7.8,-107.4 -25.13,-56.8 -28.59,-148.22 -74.5,-191.71l-17.33 -11.54 -71.03 -55.91c-55.44,-39.05 -30.32,-28.4 -73.63,-72.78l7.8 139.35z"/>
   <path class="fil43" d="M2202.34 1167.27c1.73,4.44 14.72,43.49 17.32,47.04 32.92,38.16 11.26,20.41 55.44,18.64l8.66 14.2 0.87 -30.18 38.98 -123.37 -35.52 6.21 7.8 -39.05 -8.66 -8.87c-42.45,-42.61 -2.6,-26.63 -56.31,-37.28 -29.45,42.6 -43.31,44.38 -55.44,91.42l-36.38 -71.01c-82.29,20.42 -70.17,41.72 -74.5,57.69 61.51,21.31 -19.05,7.99 97.02,52.37 3.47,1.78 6.93,2.66 10.4,4.44l30.32 17.75z"/>
   <path class="fil44" d="M1495.48 1266.67l17.33 11.54c45.91,43.49 49.37,134.91 74.5,191.71 18.19,-110.94 -3.47,-155.32 -56.31,-226.32l-34.65 -69.23c9.53,-37.28 -10.39,-16.86 -42.45,-55.03 -26.85,-31.95 -20.78,-44.38 -37.24,-77.22 -12.13,-24.85 -31.19,-46.15 -48.51,-64.79 -41.58,-46.15 -30.32,-11.54 -60.64,-57.69l-6.06 -5.32c6.93,63.01 27.72,150.88 66.7,201.47 45.04,59.47 80.56,48.82 127.33,150.88z"/>
   <path class="fil45" d="M1064.96 837.1c22.53,23.08 37.25,71.89 37.25,71.89 25.12,16.86 16.46,-22.19 19.93,32.84 5.19,-11.54 2.59,1.78 7.79,-28.4 24.26,-131.36 -27.72,-88.76 17.33,-124.26 -2.6,-3.55 -6.93,-7.1 -8.67,-8.87l-31.18 -16.87c-5.2,-40.83 -10.4,-64.79 -40.71,-92.3 -18.19,-42.61 -18.19,-56.81 -29.46,-85.21 -9.52,-23.96 -22.52,-39.94 -35.51,-64.79l-60.64 -140.23c-40.71,46.15 100.49,331.94 123.87,456.2z"/>
   <path class="fil46" d="M1552.66 1160.17l9.52 18.64c71.04,50.59 13,-3.55 84.03,29.29 36.38,16.86 4.33,15.08 58.9,17.75 -5.19,-54.14 -61.5,-171.3 -84.89,-187.28 -42.44,-28.4 -9.53,-9.76 -75.36,-9.76 -6.06,53.25 8.66,79.88 7.8,131.36z"/>
   <path class="fil47" d="M2361.72 1980.27c5.2,-31.95 -4.33,-27.52 28.59,-50.59 2.6,-59.47 -8.66,-74.56 -24.26,-114.5 -31.18,45.27 -42.44,57.69 -76.22,52.37 -1.74,0 -6.07,-1.78 -7.8,-1.78 -32.92,-5.32 0.87,-15.08 -44.18,-0.88 -26.85,70.11 3.47,40.82 38.12,55.02l6.93 108.29c58.9,-0.89 12.99,6.21 41.57,-13.32l30.32 -26.62c0.87,-5.33 4.33,-5.33 6.93,-7.99z"/>
   <path class="fil48" d="M2314.95 1131.77l-5.2 47.04c0,0.88 -0.87,4.43 -0.87,5.32l-24.25 32.84 -0.87 30.18 -8.66 -14.2 -6.06 28.4c37.24,-21.3 44.17,-37.28 85.75,-47.04 52.84,9.76 58.04,-25.74 90.09,-55.03 38.98,-36.39 45.05,-12.42 72.77,-64.79 -14.73,-19.53 4.33,-5.33 -23.39,-10.65 -38.12,30.18 7.79,4.44 -32.92,24.85 -35.52,17.75 -18.19,7.99 -48.51,15.09l6.06 -42.6c-46.77,21.3 -22.52,11.53 -57.17,47.04 -5.19,4.43 -9.53,16.86 -27.72,18.64 -31.18,2.66 -1.73,19.52 -19.05,-15.09z"/>
   <path class="fil49" d="M1209.63 1522.29l0 25.74 0.86 -0.89 142.06 13.32 -21.65 -48.82 9.53 -113.61c43.31,-10.65 -2.6,6.22 23.39,-1.77 -4.34,-32.84 15.59,-13.32 -15.6,-31.95 -13.86,-7.99 -42.44,-8.88 -61.5,-11.54 -43.31,8.87 -9.53,-1.78 -23.39,18.64l34.65 31.06c1.73,3.55 2.6,6.21 3.47,9.76l14.72 114.5c-61.5,10.65 -39.84,10.65 -106.54,-4.44z"/>
   <path class="fil50" d="M1947.66 1682.05l64.1 -101.18c38.12,58.58 -35.51,-10.65 11.26,36.39 3.47,-2.66 26.86,-18.64 36.39,-31.07 21.65,-28.4 0,10.65 8.66,-19.52 26.85,-91.42 23.39,-41.72 58.04,-109.17l-39.85 15.09c-47.64,18.64 24.25,-8.88 -14.73,6.21 -59.77,22.19 -107.41,127.81 -123.87,203.25z"/>
   <path class="fil51" d="M2269.9 1372.29c-37.25,15.98 -99.62,88.76 -116.94,126.92 36.38,-13.31 67.57,-35.5 99.62,-59.46 26.85,-67.46 64.1,-52.37 109.14,-87.87 2.6,-1.78 31.19,-37.28 35.52,-46.15 16.46,-29.29 -12.13,4.43 22.52,-39.06 -25.99,15.98 -43.31,31.07 -72.76,47.93l-77.1 57.69z"/>
   <path class="fil52" d="M1440.05 1656.31c0,51.48 -4.34,182.84 11.26,235.2 7.79,23.97 11.26,23.97 15.59,30.18 14.72,-29.29 13.86,-225.44 12.99,-234.31 -6.06,-52.37 -12.99,-43.49 -38.98,-42.61l-0.86 11.54z"/>
   <path class="fil53" d="M1019.05 1478.8c-8.66,49.7 -5.19,43.49 -23.39,88.76 47.65,1.77 57.18,-8.88 108.28,-13.32l-8.66 -7.1 -8.66 -5.32c5.2,-46.16 5.2,-95.86 -25.99,-133.14 -1.73,56.81 -15.59,45.27 -12.12,102.96 -39.85,-23.96 -47.65,32.84 -29.46,-32.84z"/>
   <path class="fil54" d="M1220.02 1296.85l-6.06 13.31 50.24 7.11 18.19 -121.6 -56.31 -0.89c-12.12,59.47 -30.31,41.72 -6.06,102.07z"/>
   <path class="fil55" d="M1428.78 2868.71l106.55 0.89 -19.06 -77.22c-32.05,-27.51 -24.25,34.61 -24.25,-23.96 -64.97,29.28 -19.06,-14.21 -54.57,23.96 64.1,79.88 22.52,71 42.44,50.59 -97.88,0 -18.19,-5.33 -51.11,25.74z"/>
   <path class="fil56" d="M1901.75 2175.53c26.85,-37.28 58.9,-99.41 74.5,-164.2l-32.05 4.44 1.73 -28.4c-18.19,24.85 -13,12.42 -24.26,47.04 -11.26,33.73 -0.86,13.31 -14.72,43.49 -21.66,47.93 -20.79,46.15 -5.2,97.63z"/>
   <path class="fil57" d="M1108.28 1527.62c-8.67,21.3 1.73,2.66 -21.66,14.2l8.66 5.32 115.21 0 -0.86 0.89 -41.58 -8.88c10.39,-38.16 20.79,-87.86 7.79,-127.8 -19.92,5.32 -47.64,-32.84 -33.78,100.29l-33.78 15.98z"/>
   <path class="fil58" d="M2392.91 1665.19c2.6,-49.71 11.26,-39.94 -13,-77.22l-55.44 -7.99c-7.79,65.68 7.8,80.77 68.44,85.21z"/>
   <path class="fil59" d="M2418.89 1081.18l-6.06 42.6c30.32,-7.1 12.99,2.66 48.51,-15.09 40.71,-20.41 -5.2,5.33 32.92,-24.85l-7.8 -23.08c0,-2.66 1.73,-13.31 4.33,-22.19 -57.17,18.64 -19.05,3.55 -59.77,4.44l-4.33 7.99c0.87,28.4 10.4,11.54 -7.8,30.18z"/>
   <path class="fil60" d="M2136.5 1450.4c36.38,-28.4 35.52,-22.19 51.98,-65.68l29.45 -11.54 -2.6 -8.87c-2.6,-3.55 -24.26,-19.53 -27.72,-23.08 -38.98,23.96 -66.7,61.24 -51.11,109.17z"/>
   <path class="fil61" d="M2099.25 1643.89l17.33 -14.21c3.46,-2.66 20.79,-17.75 21.65,-19.52 14.73,-19.53 10.4,-23.08 18.19,-59.47 -33.78,20.42 -12.99,8.88 -37.24,30.18 -15.6,13.31 -24.26,19.52 -33.79,27.51 1.74,3.55 3.47,24.85 13.86,35.51z"/>
   <path class="fil62" d="M1433.98 845.09c24.26,0 11.26,11.53 14.73,-9.77 -5.2,-64.79 8.66,-14.2 -28.59,-21.3l13.86 31.07z"/>
   <path class="fil63" d="M2152.96 1499.21l-34.65 24.86c58.04,-15.98 17.32,5.32 34.65,-24.86z"/>
  </g>
 </g>
</svg>
