<?xml version="1.0" encoding="UTF-8"?>
<!DOCTYPE svg PUBLIC "-//W3C//DTD SVG 1.1//EN" "http://www.w3.org/Graphics/SVG/1.1/DTD/svg11.dtd">
<!-- Creator: CorelDRAW 2017 -->
<svg xmlns="http://www.w3.org/2000/svg" xml:space="preserve" width="28.6172mm" height="29.8026mm" version="1.1" style="shape-rendering:geometricPrecision; text-rendering:geometricPrecision; image-rendering:optimizeQuality; fill-rule:evenodd; clip-rule:evenodd"
viewBox="0 0 2861.72 2980.26"
 xmlns:xlink="http://www.w3.org/1999/xlink">
 <defs>
  <style type="text/css">
   <![CDATA[
    .fil79 {fill:#111010}
    .fil77 {fill:#191919}
    .fil93 {fill:#1D2224}
    .fil83 {fill:#232225}
    .fil6 {fill:#2A2A2A}
    .fil91 {fill:#2D2D32}
    .fil19 {fill:#2D2E2E}
    .fil7 {fill:#323232}
    .fil1 {fill:#333334}
    .fil41 {fill:#342E32}
    .fil94 {fill:#34353A}
    .fil101 {fill:#351A17}
    .fil100 {fill:#352A28}
    .fil60 {fill:#353535}
    .fil97 {fill:#38251C}
    .fil68 {fill:#393939}
    .fil71 {fill:#3C3C42}
    .fil34 {fill:#3D3D3D}
    .fil67 {fill:#414141}
    .fil20 {fill:#434344}
    .fil96 {fill:#453A38}
    .fil73 {fill:#464546}
    .fil10 {fill:#474748}
    .fil3 {fill:#49261C}
    .fil76 {fill:#4A4A4A}
    .fil5 {fill:#4B3029}
    .fil38 {fill:#515151}
    .fil98 {fill:#55514F}
    .fil99 {fill:#564A47}
    .fil17 {fill:#57443A}
    .fil8 {fill:#575859}
    .fil59 {fill:#595A5A}
    .fil86 {fill:#5A5C62}
    .fil92 {fill:#5E6365}
    .fil16 {fill:#636363}
    .fil11 {fill:#654A45}
    .fil70 {fill:#676768}
    .fil69 {fill:#6C443A}
    .fil84 {fill:#6E625B}
    .fil14 {fill:#737373}
    .fil63 {fill:#767779}
    .fil74 {fill:#7C8386}
    .fil89 {fill:#895C55}
    .fil85 {fill:#968B86}
    .fil80 {fill:#9C9D9D}
    .fil26 {fill:#A19FA1}
    .fil102 {fill:#A3A3A4}
    .fil81 {fill:#ABB2B6}
    .fil46 {fill:#AE756E}
    .fil62 {fill:#B9D4E7}
    .fil4 {fill:#BBBCBC}
    .fil12 {fill:#C0BEC0}
    .fil103 {fill:#C7C7C8}
    .fil64 {fill:#C88884}
    .fil51 {fill:#C8968F}
    .fil31 {fill:#C8DBE9}
    .fil13 {fill:#CAD2D8}
    .fil15 {fill:#CEE4F1}
    .fil65 {fill:#D4DDE7}
    .fil35 {fill:#D58C85}
    .fil95 {fill:#D7D8D8}
    .fil57 {fill:#D89688}
    .fil54 {fill:#D8B3AA}
    .fil47 {fill:#D9A799}
    .fil32 {fill:#D9E4EA}
    .fil52 {fill:#DBAB93}
    .fil58 {fill:#DC907F}
    .fil82 {fill:#DCEBF3}
    .fil66 {fill:#DDDDDC}
    .fil88 {fill:#E2E2E2}
    .fil104 {fill:#E3E0DE}
    .fil90 {fill:#E5E5E6}
    .fil0 {fill:#E6EFF5}
    .fil56 {fill:#E8A898}
    .fil53 {fill:#E8B7A8}
    .fil23 {fill:#EBB39A}
    .fil87 {fill:#EDEEEE}
    .fil50 {fill:#F2AC9A}
    .fil28 {fill:#F3B39C}
    .fil29 {fill:#F4C3B3}
    .fil55 {fill:#F4F4F3}
    .fil43 {fill:#F4F7F9}
    .fil30 {fill:#F5BAA6}
    .fil42 {fill:#F5CAB5}
    .fil24 {fill:#F5DCD4}
    .fil21 {fill:#F5E4D9}
    .fil75 {fill:#F6D8C9}
    .fil78 {fill:#F6F6F5}
    .fil18 {fill:#F7CCC3}
    .fil48 {fill:#F8EBE7}
    .fil40 {fill:#F9F9F9}
    .fil27 {fill:#FAD5CA}
    .fil44 {fill:#FAF1E9}
    .fil39 {fill:#FBC9B5}
    .fil49 {fill:#FBD1BC}
    .fil36 {fill:#FBD3C3}
    .fil72 {fill:#FCDBCC}
    .fil22 {fill:#FCDDD3}
    .fil45 {fill:#FCE5DA}
    .fil9 {fill:#FCF5F3}
    .fil61 {fill:#FDF2EC}
    .fil37 {fill:#FDF9F5}
    .fil33 {fill:#FDFCFA}
    .fil25 {fill:#FDFDFD}
    .fil2 {fill:#FEFEFE}
   ]]>
  </style>
 </defs>
 <g id="Capa_x0020_1">
  <metadata id="CorelCorpID_0Corel-Layer"/>
  <g id="_1368169470576">
   <path class="fil0" d="M1554.47 580.62c-20.67,-27.36 -16.37,-80.32 -11.2,-121.8l14.65 114.74c-0.87,-1.77 -2.59,4.41 -3.45,7.06zm24.12 -374.22c0,38.83 -11.2,33.54 -24.98,46.78l-6.03 -112.09c18.95,21.18 30.15,-30.01 31.01,65.31zm-153.33 109.44c26.7,-29.12 15.51,-35.3 45.66,-43.25l-14.65 92.68c16.37,37.95 6.03,82.96 18.09,142.09 1.72,-3.53 8.61,-16.77 11.2,-18.53 26.7,-24.71 2.58,-14.12 26.7,-15.01 17.23,35.31 18.95,32.66 12.06,95.32 -4.31,43.25 -4.31,68.85 -6.89,112.98 -3.44,73.25 -38.76,150.04 11.2,200.34 -2.59,-38.83 -7.75,-112.09 13.78,-145.62 34.46,14.12 28.43,26.47 20.67,72.37 0,0.88 -7.75,17.65 -7.75,19.42 -14.64,87.37 24.12,44.13 -6.03,84.72 20.68,45.9 31.01,99.74 31.01,163.28 18.09,-15 33.6,22.95 21.54,-27.36 5.17,-155.33 -5.17,-331.85 -6.89,-491.6l-2.59 -382.16c-2.58,-96.2 -6.89,-25.6 -37.04,-74.14 37.04,-59.13 26.71,50.31 36.18,-47.66l-122.32 0.88c-18.95,103.27 8.62,55.61 10.34,97.09 0,14.12 -23.26,89.14 -26.7,97.97 -29.29,-38.84 13.78,-46.78 -11.2,-124.45 -20.68,41.48 -14.65,132.39 -16.37,190.64z"/>
   <path class="fil1" d="M273.58 2783.56l-41.35 9.71 -4.31 67.96 54.27 88.26c-98.2,-9.71 -43.93,-13.24 -95.61,-62.66 -3.45,0.88 -8.62,-1.77 -10.34,1.76l-41.35 7.94c-45.65,11.48 -6.89,-2.64 -49.96,16.77 -0.86,0 0.86,31.78 -55.99,-1.76 16.37,-37.07 241.19,-163.28 271.34,-172.99 -21.53,47.66 1.72,17.65 -26.7,45.01zm-26.71 -275.37c22.4,97.09 45.66,17.66 55.99,130.63l-13.78 -4.41c-113.7,33.53 -97.34,-4.42 -205.87,72.37 -2.59,0.88 -5.17,3.53 -7.75,5.29l-49.1 28.25c-18.09,-68.85 -24.98,-45.02 -3.45,-112.98 15.51,-25.59 7.75,-13.23 5.17,-60.01 -7.75,-33.54 -19.81,-66.2 27.56,-90.91l-33.59 -12.35c-18.09,-78.56 -8.61,-133.28 -12.92,-210.94 23.26,-23.83 -34.46,-37.96 39.62,-12.36 21.54,-4.41 12.92,3.53 32.74,-16.77 11.19,-40.6 -7.76,-6.18 21.53,-33.54 40.49,-37.95 62.88,-11.47 62.88,-11.47l16.37 12.35c1.72,-3.53 5.17,5.3 8.61,7.07 4.31,-37.96 0.86,-24.72 18.09,-48.55 37.04,-27.36 12.92,-21.18 72.36,-33.54 -1.72,5.3 -4.31,9.71 -6.03,13.24 -1.72,3.53 -3.45,8.83 -6.03,12.36l-18.09 25.6c-48.24,70.6 -44.79,272.72 -4.31,340.67zm879.49 -796.97c11.2,-42.37 9.47,-38.84 45.65,-24.72 -26.7,35.31 -1.72,18.54 -45.65,24.72zm301.49 1055.57c-41.35,35.31 -44.8,129.74 -65.47,180.05l-70.63 -2.65 50.82 -157.98 -27.57 37.07c-30.15,98.85 -46.51,141.21 -165.38,120.91 -26.71,-4.41 -14.65,-3.53 -28.43,-12.35 1.72,-105.91 65.47,-251.54 113.7,-312.44 -2.58,-0.88 3.45,-36.18 -49.1,49.43 -24.12,39.71 -28.42,52.07 -43.93,97.08 -64.6,190.64 -15.5,176.52 -98.2,180.05 31.88,-82.08 50.83,-120.92 60.3,-217.12 -8.61,48.54 -52.54,127.1 -65.46,195.94 -18.96,17.65 -12.06,10.59 -28.43,22.06l-68.05 -4.41c10.34,-31.77 7.75,-9.71 -20.67,-17.65 -13.79,21.18 1.72,22.94 -17.23,12.35l19.81 -103.26c-4.31,4.41 -12.92,14.12 -17.23,23.83l-26.7 87.38 -118.87 -2.65c24.98,-10.59 42.2,-32.66 71.49,-55.6l-12.06 -23.83 -8.61 7.06c-31.01,20.3 -59.44,42.36 -74.08,59.13 -0.86,-61.78 12.06,-19.42 51.68,-60.9l-8.61 -2.65c-49.96,17.66 -48.24,36.19 -74.94,79.44l-178.31 1.76c-41.35,-1.76 17.23,4.42 -22.4,-0.88 -31.01,-4.41 -18.95,-3.53 -27.56,-7.94 18.09,-50.31 42.21,-75.02 75.8,-102.38 34.46,-26.48 19.81,-2.65 49.96,-38.84 12.92,-15.88 20.67,-30.01 36.18,-47.66 -7.75,-3.53 -14.64,32.66 -53.41,34.42 -2.58,2.65 -6.03,2.65 -7.75,7.06 -0.86,5.3 -6.03,6.18 -7.75,7.95l-59.44 58.25c-43.93,43.24 -31.87,45.89 -62.88,86.49 -124.04,0 -162.8,11.48 -185.2,-107.67l10.34 -52.08 41.34 -7.94c18.95,-26.48 20.68,-44.13 35.32,-78.55 -9.47,-28.24 -18.09,-97.97 -18.09,-132.39 0,-44.13 27.57,-58.25 49.96,-90.91 59.44,-88.26 31.87,-113.85 121.46,-180.93 25.84,-21.18 129.21,-45.89 167.97,-59.13 2.59,-2.65 28.43,-22.95 42.21,-33.54 37.04,-29.12 22.4,-22.95 45.65,-58.25 4.31,-31.77 20.68,-75.9 37.9,-101.5 10.34,-15.88 16.37,-19.41 28.43,-34.42 15.51,-18.53 16.37,-12.36 19.81,-30.01 31.87,-21.18 34.46,-7.06 3.45,-18.53l-32.73 2.65c-28.43,42.36 -50.83,66.19 -74.08,128.85 -25.85,70.61 -28.43,75.91 -87.01,114.74 -112.84,58.25 -150.74,13.24 -227.4,127.09 -28.43,42.37 -36.18,75.02 -61.16,114.74l-58.58 84.73c-3.44,3.53 -1.72,38.83 -18.09,15 -1.72,-2.64 -6.03,5.3 -9.47,7.06 -12.06,-65.31 -55.99,-126.21 -18.95,-187.99l-14.65 -71.49c6.9,-52.07 15.51,-96.2 40.49,-130.62 22.4,-41.48 68.05,-75.02 99.92,-99.73 46.52,-36.19 62.02,-57.37 88.72,-104.15 0,-33.54 0,-64.43 2.59,-97.08 0.86,-11.48 3.44,-35.31 5.17,-45.02 11.2,-46.77 11.2,-28.24 17.23,-37.06l27.56 -30.9c21.53,-46.77 2.58,-39.71 52.54,-58.25 31.88,-31.77 19.82,-27.36 61.16,-45.01 13.79,-50.31 18.09,-35.3 63.75,-60.01 18.09,-24.72 56.85,-9.71 87.86,-12.36 68.05,-3.53 37.04,-16.77 96.48,-20.3 27.56,-36.19 57.71,-34.42 104.22,-37.07l15.51 -31.77 74.94 7.06 -39.62 -22.07c-31.88,-11.47 -16.37,10.59 -21.54,-27.36 68.05,-54.72 93.03,-112.09 224.83,-85.61 97.33,19.42 167.97,122.68 61.15,132.39l-47.37 30.89c-54.27,7.94 -43.07,0 -74.08,24.71 -90.45,72.38 -134.38,73.26 -157.64,152.69 20.68,31.78 14.65,22.07 40.49,43.25l18.95 14.12c12.92,9.71 2.58,4.41 14.64,12.36 241.19,-147.4 50.83,27.36 282.54,-96.21 43.07,-22.94 60.3,-22.06 93.89,-36.18l-3.44 -99.73 -12.92 0 -2.59 85.61c-52.54,16.77 -239.47,120.03 -277.37,51.19l-5.17 -17.66 -43.07 3.54c-48.23,77.66 -11.19,27.36 -25.84,78.55l-55.13 -38.84c115.43,-184.46 374.71,-134.15 317.86,-288.61 -127.49,-182.69 -334.22,-26.47 -343.7,-23.83l-87 34.43c14.64,30.89 -27.56,34.42 16.37,25.59 43.93,-45.89 0,-24.71 54.26,-35.3 -12.92,51.19 -30.14,75.9 -84.41,84.73 -108.54,77.66 -177.45,24.71 -254.11,70.6l-148.16 143.87c-149.89,146.51 -20.68,227.7 -120.6,309.78l-82.69 66.2c-118.87,-59.13 -226.55,115.62 -295.46,138.57l30.15 -2160.59c74.08,-27.36 1164.6,-5.29 1345.5,-7.06 23.25,155.34 2.58,671.66 -12.92,870.24 -6.9,88.26 11.19,102.38 7.75,182.69 -0.86,3.53 -0.86,7.06 -0.86,10.6 -0.86,2.64 -0.86,6.17 -0.86,8.82l-1.73 100.62c-2.58,58.25 -5.17,117.38 2.59,174.75l6.89 47.66c9.47,-15.89 -2.59,-2.65 22.39,-10.59 -0.86,-81.2 -16.36,-165.93 -5.16,-257.72 12.92,-111.2 -7.76,-137.68 -5.17,-244.48 2.58,-99.73 24.98,-456.29 5.17,-523.37l3.44 -97.97c1.72,-58.25 -4.31,-149.16 16.37,-190.64 24.98,77.67 -18.09,85.61 11.2,124.45 3.44,-8.83 26.7,-83.85 26.7,-97.97 -1.72,-41.48 -29.29,6.18 -10.34,-97.09l122.32 -0.88c-9.47,97.97 0.86,-11.47 -36.18,47.66 30.15,48.54 34.46,-22.06 37.04,74.14l2.59 382.16c1.72,159.75 12.06,336.27 6.89,491.6 25.84,-30.89 13.78,27.36 21.53,-60.9 1.73,-12.35 -5.17,-62.66 -6.03,-76.78 23.26,-127.98 -12.06,-655.77 0,-857 176.59,1.77 1077.61,-12.35 1174.08,15.89 34.46,152.69 18.95,1202.97 24.12,1456.27 38.76,-55.6 18.95,-691.95 18.09,-753.73 -5.17,-806.68 85.28,-757.26 -139.54,-754.61l-2304.23 -0.88c-99.93,-0.89 -280.82,-12.36 -367.82,-3.53l0 733.43c0.86,244.47 -5.17,488.95 -7.75,734.31 -6.03,490.72 1.72,987.62 -16.37,1476.58 204.15,21.18 1118.95,3.53 1429.92,10.59 467.73,8.82 963.03,-11.48 1412.68,13.24l-6.89 -1412.15c0,0 18.95,7.94 -18.09,-44.13l1.72 1406.85c-142.13,21.18 -1156.85,10.59 -1394.59,12.36l88.72 -255.95c-35.32,44.13 -45.65,36.18 -68.05,105.91 -16.37,-18.54 -19.81,9.71 -15.5,-28.25z"/>
   <path class="fil2" d="M1526.91 2665.3c-3.45,-81.2 15.5,-108.56 57.71,-191.53l-57.71 191.53zm24.12 -15.89c26.7,-68.84 95.61,-246.24 130.93,-284.19 -10.34,52.07 -32.74,101.49 -51.69,152.68 -18.09,46.78 -36.18,106.8 -79.24,131.51zm76.66 -241.83c4.31,-22.95 4.31,-34.42 14.64,-52.07 19.82,-32.66 18.95,-20.3 30.15,-29.13 -12.92,46.78 -13.78,52.07 -44.79,81.2zm100.78 -245.36c16.37,-80.32 -18.09,-54.72 36.18,-75.9 9.48,73.25 -20.67,69.72 -47.38,192.4 -1.72,7.06 -5.16,26.48 -7.75,31.77 -31.87,73.26 30.15,-22.06 -26.7,23.83l34.45 -113.85c1.73,-44.13 -54.26,-25.59 1.73,-95.32l9.47 37.07zm280.82 -515.43l38.76 0c-0.86,58.25 -10.34,69.72 -61.16,73.25 11.2,-38.83 19.81,-25.59 44.79,-48.54 -43.07,-22.95 -0.86,-2.65 -22.39,-24.71zm-223.97 -259.48c-55.99,21.18 -50.82,21.18 -74.94,3.53 43.93,-24.72 23.26,11.47 48.24,-40.6 -64.6,18.53 -5.17,13.24 -61.16,15 45.66,-53.84 -1.72,-30.01 68.91,-41.48l18.95 63.55zm181.76 -241.83l43.93 16.76c-2.58,75.02 -27.56,79.44 -98.2,94.44l12.92 -52.95c-0.86,-0.89 -37.9,-8.83 -4.31,-48.55 19.82,-22.94 26.71,-13.23 45.66,-9.7zm-159.36 -30.01c14.64,-38.84 9.48,-39.72 43.07,-44.13 -1.72,52.07 -4.31,40.6 -43.07,44.13zm-190.37 -203.88c27.57,33.54 6.89,-3.53 24.12,49.42l14.65 127.1c0.86,62.66 6.03,132.39 -9.48,189.75 -4.31,37.07 -6.03,81.2 11.2,113.86 0.86,0.88 3.44,4.41 4.31,6.18l7.75 11.47c11.2,22.95 -3.45,4.41 11.2,35.3 24.11,-1.76 42.2,3.53 43.93,3.53 53.4,1.77 50.82,-30.89 203.29,-57.36 2.58,-3.53 6.03,-15.89 7.75,-19.42 1.72,-2.65 6.89,-15.01 8.61,-18.54 18.95,-30 -6.89,-0.88 24.12,-22.94 37.04,-6.18 0.86,7.06 43.07,-17.65 40.49,-42.37 -4.31,-18.54 55.13,-36.19 -9.47,46.78 -12.92,39.72 -32.73,83.85 61.16,-25.6 111.98,-56.49 185.2,-60.9l-35.32 28.24c-24.12,18.53 -44.79,31.77 -62.88,70.61l12.06 0.88c35.31,-3.53 32.73,-8.83 70.63,-17.65 -19.81,40.6 -15.5,22.94 -57.71,45.89 -30.15,16.77 -24.98,19.42 -63.74,37.07 -42.21,-19.42 3.44,24.71 -39.63,-26.48 15.51,76.79 5.17,15.89 28.43,59.14 14.64,26.47 21.53,12.35 11.2,54.72 -7.76,28.24 -56,70.6 -73.22,95.32l-37.04 32.65c-12.92,45.9 -13.79,59.14 -54.27,78.55 -12.06,21.19 -18.09,31.78 -32.73,53.84 -5.17,7.94 -15.51,22.07 -20.68,30.01 -12.06,15 -12.06,14.12 -18.09,18.53l5.17 41.49 -7.75 24.71 3.44 67.07c-40.48,25.6 -31.87,40.6 -66.32,45.9 -66.33,10.59 -4.31,3.53 -31.87,-8.83 -1.73,-18.53 4.3,-54.72 11.19,-77.66 7.76,-23.83 18.95,-39.72 26.71,-53.84 4.3,-36.19 -5.17,-30.89 19.81,-50.31 24.98,-20.3 1.72,-8.83 41.35,-8.83 12.92,-31.77 20.67,-37.06 31.87,-65.31 -108.54,56.49 -133.52,123.57 -198.12,225.95 -42.21,67.95 -52.55,38.83 -64.61,150.04 -7.75,71.49 -21.53,112.08 -44.79,153.57l12.92 15c45.65,-30.89 46.52,-121.8 62.02,-188.87l19.81 -58.25c-0.86,106.79 -15.5,170.34 -50.82,255.95 -27.56,65.31 3.45,1.76 -4.31,60.01 -7.75,61.78 -51.68,51.19 -78.38,123.57 -22.4,57.36 -31.01,79.43 -63.75,127.97 9.48,50.31 7.76,22.95 -10.33,69.73 -18.95,16.76 -1.73,0.88 -16.37,28.24 -14.64,26.48 4.31,4.41 -15.5,29.12 -4.31,37.96 -0.87,9.71 15.5,28.25 22.4,-69.73 32.73,-61.78 68.05,-105.91l-88.72 255.95c237.74,-1.77 1252.46,8.82 1394.59,-12.36l-1.72 -1406.85c37.04,52.07 18.09,44.13 18.09,44.13l6.89 1412.15c-449.65,-24.72 -944.95,-4.42 -1412.68,-13.24 -310.97,-7.06 -1225.77,10.59 -1429.92,-10.59 18.09,-488.96 10.34,-985.86 16.37,-1476.58 2.58,-245.36 8.61,-489.84 7.75,-734.31l0 -733.43c87,-8.83 267.89,2.64 367.82,3.53l2304.23 0.88c224.82,-2.65 134.37,-52.07 139.54,754.61 0.86,61.78 20.67,698.13 -18.09,753.73 -5.17,-253.3 10.34,-1303.58 -24.12,-1456.27 -96.47,-28.24 -997.49,-14.12 -1174.08,-15.89 -12.06,201.23 23.26,729.02 0,857zm-1619.42 2046.73l2842.6 23.83 23.26 -2984.04 -2841.74 15.89 -24.12 2944.32z"/>
   <path class="fil2" d="M794.72 1456.15c32.73,13.24 34.46,2.65 46.52,45.89 -47.38,-15 -24.12,-22.06 -46.52,-45.89zm23.26 -39.72l-53.41 -5.29c27.57,-21.19 -15.5,-19.42 26.71,-14.13 49.96,5.3 25.84,18.54 26.7,19.42zm166.25 -134.15c18.95,45.89 -11.2,68.84 -11.2,68.84 -62.02,-1.77 -74.08,-50.31 -51.68,-99.73 32.73,0 51.68,2.64 62.88,30.89zm35.31 -150.93c10.34,52.08 18.09,31.78 -9.47,75.02 -63.74,-11.47 -46.52,-20.3 -48.24,-87.37l57.71 12.35zm117.15 38.84c-10.33,-10.59 -35.31,-19.42 -18.08,-48.54 12.05,-19.42 27.56,-17.66 49.96,-14.13 5.16,49.43 1.72,45.9 -31.88,62.67zm-207.59 323.03c-1.72,-1.77 -5.17,-4.42 -6.03,-2.65l-65.47 -18.54c-25.84,-6.17 -12.92,1.77 -24.98,-15.88 -27.56,-38.84 -6.03,-5.3 -14.64,-39.72 66.33,22.07 18.09,37.95 84.42,38.83 -8.62,-32.65 -15.51,-24.71 18.95,-24.71 0,-27.36 -4.31,0 21.53,-12.35l87 -34.43c9.48,-2.64 216.21,-158.86 343.7,23.83l24.12 -5.29c-7.76,-57.37 -5.17,-116.5 -2.59,-174.75l1.73 -100.62c0,-2.65 0,-6.18 0.86,-8.82 0,-3.54 0,-7.07 0.86,-10.6 3.44,-80.31 -14.65,-94.43 -7.75,-182.69 15.5,-198.58 36.17,-714.9 12.92,-870.24 -180.9,1.77 -1271.42,-20.3 -1345.5,7.06l-30.15 2160.59c68.91,-22.95 176.59,-197.7 295.46,-138.57l82.69 -66.2c99.92,-82.08 -29.29,-163.27 120.6,-309.78l148.16 -143.87c76.66,-45.89 145.57,7.06 254.11,-70.6z"/>
   <g>
    <path class="fil3" d="M821.42 2794.15c18.09,-5.29 32.74,-9.7 48.24,-22.06 34.46,-25.6 18.95,-17.65 28.43,-37.95 -31.01,22.06 -7.75,9.71 -36.18,30.01 -7.75,6.17 -19.81,12.35 -23.26,14.12 -20.67,15.88 -10.33,7.94 -17.23,15.88z"/>
    <path class="fil3" d="M672.4 2486.13c37.04,-19.42 12.92,-2.65 39.63,-25.6 6.89,-7.06 18.95,-20.29 27.56,-29.12 -37.04,11.47 -40.48,20.3 -67.19,54.72z"/>
    <path class="fil4" d="M1418.37 2554.09l11.2 -34.42 -29.29 -18.54 -18.09 32.66c9.48,6.18 25.84,15 36.18,20.3z"/>
    <path class="fil4" d="M811.95 2870.06l-22.4 -1.77c-39.62,41.48 -52.54,-0.88 -51.68,60.9 14.64,-16.77 43.07,-38.83 74.08,-59.13z"/>
    <path class="fil5" d="M844.68 2647.64c30.15,-9.7 10.34,2.65 33.6,-19.41 0,0 16.36,-21.19 16.36,-22.07 13.78,-17.65 17.23,-22.06 25.84,-42.36 -43.07,14.12 -10.33,-6.18 -38.76,30.89 -7.75,9.71 -7.75,11.47 -15.5,22.06 -18.95,25.6 -0.86,-4.41 -21.54,30.89z"/>
    <polygon class="fil5" points="1029.88,2565.56 1081.57,2544.38 1085.87,2530.26 "/>
    <path class="fil6" d="M905.84 1678.56c-15.5,-68.84 -32.73,-27.36 -70.63,-89.14l-25.85 18.53c46.52,23.83 57.72,37.07 96.48,70.61z"/>
    <path class="fil6" d="M1600.99 1460.56c5.16,65.31 -4.31,40.6 37.9,63.55l-37.9 -63.55z"/>
    <path class="fil6" d="M1058.31 2731.49c21.53,-4.41 14.64,7.94 28.42,-6.18 -28.42,-51.19 17.23,-5.29 -23.25,-19.41l-5.17 25.59z"/>
    <path class="fil7" d="M2009.29 1646.79c21.53,22.06 -20.68,1.76 22.39,24.71 -24.98,22.95 -33.59,9.71 -44.79,48.54 50.82,-3.53 60.3,-15 61.16,-73.25l-38.76 0z"/>
    <path class="fil7" d="M1807.72 1115.47c38.76,-3.53 41.35,7.94 43.07,-44.13 -33.59,4.41 -28.43,5.29 -43.07,44.13z"/>
    <path class="fil8" d="M1541.55 1443.79c-25.84,31.77 -11.2,114.74 0,153.57 18.09,-22.06 17.23,-0.88 10.34,-78.55 -2.59,-34.42 1.72,-44.13 -10.34,-75.02z"/>
    <path class="fil8" d="M1069.51 1811.83l15.5 -15c-1.72,-2.65 -3.44,-6.18 -4.31,-7.06 -0.86,-1.77 -3.44,-5.3 -5.16,-7.06l-13.79 -15.01c-1.72,-5.29 -6.03,-5.29 -8.61,-7.94 -9.48,25.59 -18.95,11.47 -33.6,24.71 -18.08,15.89 -17.22,33.54 -17.22,63.55l24.12 -30.89c1.72,-2.65 5.16,-3.53 6.89,-8.83l36.18 3.53z"/>
    <path class="fil8" d="M1554.47 580.62c0.86,-2.65 2.58,-8.83 3.45,-7.06l-14.65 -114.74c-5.17,41.48 -9.47,94.44 11.2,121.8z"/>
    <path class="fil9" d="M500.99 1779.18c3.44,35.3 -0.87,24.71 15.5,47.66 40.49,-27.37 30.15,-10.6 47.38,-53.84l-35.32 -24.72 -27.56 30.9z"/>
    <path class="fil9" d="M273.58 2783.56l-10.34 52.08c30.15,6.17 19.81,13.23 43.93,-19.42 30.15,-39.72 19.81,-29.13 7.75,-40.6l-41.34 7.94z"/>
    <path class="fil10" d="M1580.31 1076.63c0,-63.54 -10.33,-117.38 -31.01,-163.28 -46.51,71.49 39.63,46.78 16.37,134.16 -10.34,37.07 -69.77,70.61 -9.48,114.73 23.26,-60.01 -18.95,-46.77 24.12,-85.61z"/>
    <path class="fil10" d="M1553.61 253.18c13.78,-13.24 24.98,-7.95 24.98,-46.78 -0.86,-95.32 -12.06,-44.13 -31.01,-65.31l6.03 112.09z"/>
    <path class="fil10" d="M857.6 1472.03c32.74,-3.53 18.09,0 31.87,-6.17 1.73,-0.89 6.9,-3.53 8.62,-4.42 0.86,-0.88 3.44,-3.53 4.31,-6.18 -66.33,-0.88 -18.09,-16.76 -84.42,-38.83 8.61,34.42 -12.92,0.88 14.64,39.72 12.06,17.65 -0.86,9.71 24.98,15.88z"/>
    <path class="fil11" d="M708.58 2304.32l24.12 43.24c-2.58,37.07 -22.4,32.66 68.05,26.48 -45.65,27.36 -28.43,17.65 -18.95,35.3l35.32 -22.94 6.89 -19.42c-0.86,-0.88 -1.72,-4.41 -1.72,-6.18 0,-1.76 -0.87,-7.06 -1.73,-7.94 0,-1.77 -0.86,-7.06 -0.86,-10.59 26.7,-12.36 -34.45,-14.12 37.9,-8.83l25.84 -4.41 -114.56 -0.88 -43.07 -6.18 7.75 -40.6c-30.15,11.47 -8.61,-15 -24.98,22.95z"/>
    <path class="fil11" d="M780.94 2865.64l8.61 2.65 22.4 1.77 8.61 -7.06 12.06 -19.42c0.86,-1.77 5.17,-4.41 5.17,-8.83 0.86,-5.29 4.31,-6.17 6.03,-9.71l-50.82 8.83c61.16,-30.01 18.09,-3.53 28.42,-39.72l-43.93 15.89 6.03 36.19c0,3.53 -1.72,15 -2.58,19.41z"/>
    <path class="fil12" d="M1121.19 1926.57c16.37,7.06 16.37,5.29 21.53,7.94l29.29 15.01c0.86,-4.42 2.59,-16.77 3.45,-14.13 8.61,15.89 -9.48,-30.89 40.48,-57.36 16.37,-7.95 0.86,8.82 17.23,-9.71l4.31 -8.83 -55.13 -17.65c-51.69,8.83 -55.99,35.3 -61.16,84.73z"/>
    <path class="fil12" d="M1414.06 2441.12c-7.75,-37.95 11.2,-5.3 -15.5,-29.13 -9.48,48.54 -19.81,24.72 15.5,29.13z"/>
    <path class="fil13" d="M1787.05 1899.21c-2.59,64.43 -40.49,70.6 -4.31,120.03 102.51,-72.37 -3.45,-80.32 61.16,-92.67l7.75 -24.71 -28.42 8.82c1.72,-23.83 -6.9,-0.88 5.16,-30.89 9.48,-22.06 11.2,-13.24 18.09,-19.42l1.73 -20.3c-39.63,0 -16.37,-11.47 -41.35,8.83 -24.98,19.42 -15.51,14.12 -19.81,50.31z"/>
    <path class="fil13" d="M898.95 1782.71l47.38 -2.65c-21.54,-33.54 22.39,-10.59 -18.09,-26.48l-11.2 0c-25.84,-30.89 -13.78,-19.42 -52.55,-30.89 -8.61,16.77 0,1.76 -7.75,24.71 24.12,24.71 12.92,15.89 42.21,35.31z"/>
    <path class="fil14" d="M1199.58 2819.75l15.5 -4.41c9.48,-15.01 16.37,-28.25 26.7,-41.49 43.94,-61.78 24.12,1.77 87.87,-97.08 -14.65,-26.48 -38.77,43.25 -3.45,-56.49 -3.44,2.65 -20.67,16.77 -23.26,18.54 -3.44,1.76 -6.89,5.29 -9.47,6.18 -2.59,0.88 -6.03,2.64 -7.75,3.53 -12.93,3.53 -14.65,-7.95 -17.23,-10.59l-18.09 0c3.44,49.42 -4.31,49.42 18.09,82.96 -59.44,21.18 -55.99,25.59 -68.91,98.85z"/>
    <path class="fil14" d="M1968.8 1329.94c17.23,35.3 42.21,-17.65 43.07,-17.65 -42.21,24.71 -6.03,11.47 -43.07,17.65z"/>
    <path class="fil15" d="M1216.8 2893c7.76,16.77 6.03,4.42 0.87,31.78l-96.48 7.06c13.78,8.82 1.72,7.94 28.43,12.35 118.87,20.3 135.23,-22.06 165.38,-120.91l-37.04 12.36 15.51 -35.31c-26.71,22.95 -59.44,62.67 -76.67,92.67z"/>
    <path class="fil15" d="M783.52 1685.62c30.15,-5.29 18.95,-2.65 37.9,-17.65l-39.62 -34.42c-39.62,22.06 -41.35,15 -27.56,52.95 34.45,-8.82 -18.09,7.95 29.28,-0.88z"/>
    <path class="fil16" d="M84.93 2913.3c43.07,-19.41 4.31,-5.29 49.96,-16.77l41.35 -7.94c1.72,-3.53 6.89,-0.88 10.34,-1.76 51.68,49.42 -2.59,52.95 95.61,62.66l-54.27 -88.26c-18.09,30.89 22.4,25.6 -18.09,25.6 6.03,-54.72 9.48,-18.54 -6.03,-53.84 -62.02,3.53 -102.5,20.3 -118.87,80.31z"/>
    <path class="fil16" d="M1010.07 1206.37c27.56,-43.24 19.81,-22.94 9.47,-75.02l-57.71 -12.35c1.72,67.07 -15.5,75.9 48.24,87.37z"/>
    <path class="fil17" d="M817.12 2386.4c-17.23,64.43 1.72,44.13 -47.38,70.6 -24.98,12.36 -13.78,-0.88 -31.87,19.42 -34.46,36.19 -8.62,15.01 -14.64,32.66 35.31,-6.18 59.43,-29.13 83.55,-50.31 14.64,25.59 -8.61,27.36 18.95,51.19 11.2,-47.66 7.75,-41.48 37.9,-63.55 2.59,-42.36 6.03,-30 20.68,-75.02 -33.6,-8.82 -26.71,43.25 -26.71,-37.95 -72.35,-5.29 -11.2,-3.53 -37.9,8.83 0,3.53 0.86,8.82 0.86,10.59 0.86,0.88 1.73,6.18 1.73,7.94 0,1.77 0.86,5.3 1.72,6.18l-6.89 19.42z"/>
    <path class="fil17" d="M1141 2423.47l-6.89 -1.77 12.06 11.47c25.84,-5.29 25.84,-51.19 87,-82.08 -15.5,-4.41 -25.84,4.42 -43.93,16.77 -37.04,24.72 -31.87,17.65 -48.24,55.61z"/>
    <path class="fil18" d="M1085.01 1796.83l-15.5 15 29.28 22.07 -74.08 44.13 67.19 -0.89c-2.58,44.13 -2.58,39.72 -31.87,73.26l41.35 15 18.09 -22.95 1.72 -15.88c5.17,-49.43 9.47,-75.9 61.16,-84.73 -18.95,-51.19 -1.72,0 -19.81,-33.54 -9.48,-17.65 -3.45,5.3 -12.92,-30.01l-64.61 18.54z"/>
    <path class="fil18" d="M287.36 2162.22c-24.98,34.42 -33.59,78.55 -40.49,130.62 46.52,-26.47 38.77,-41.48 74.95,-96.2l14.64 -18.53c30.15,-31.78 25.84,-5.3 52.54,-38.84 20.68,-26.48 31.01,-59.13 40.49,-78.55 -90.45,26.48 -119.73,112.09 -119.73,112.09 -34.46,13.24 -7.76,7.94 -22.4,-10.59z"/>
    <path class="fil19" d="M429.49 2060.72c-9.48,19.42 -19.81,52.07 -40.49,78.55 -26.7,33.54 -22.39,7.06 -52.54,38.84 1.72,32.65 -8.61,27.36 17.23,27.36 0,-61.78 -5.17,-21.19 21.53,-36.19 11.2,2.65 12.92,1.77 28.43,10.59 6.89,-95.32 37.9,-92.67 98.2,-129.74 49.96,-30.89 78.38,-54.72 140.4,-82.08 65.47,0 91.31,30.01 137.83,7.06 -209.32,-85.61 -228.27,55.6 -350.59,85.61z"/>
    <path class="fil19" d="M1325.34 1594.71c31.87,15.89 32.73,-5.29 18.95,37.07 -19.81,-17.65 -15.5,29.13 -18.95,-37.07zm0 0c-6.03,7.06 -43.93,-9.7 -0.86,61.79 43.07,-13.24 51.68,-30.01 27.56,-76.79 -52.54,-4.41 -13.78,-6.18 -26.7,15z"/>
    <path class="fil20" d="M1585.48 2319.32l-22.4 35.3c3.45,1.77 6.9,0.89 7.76,4.42 3.44,13.24 7.75,-6.18 24.98,21.18 -16.37,25.59 -17.23,40.6 -33.6,58.25 -19.81,21.18 -15.5,6.18 -28.42,22.95 -6.03,7.94 -8.62,22.06 -13.79,36.18 -26.7,72.38 -60.29,60.9 -49.96,142.1 32.74,-48.54 41.35,-70.61 63.75,-127.97 26.7,-72.38 70.63,-61.79 78.38,-123.57 7.76,-58.25 -23.25,5.3 4.31,-60.01 35.32,-85.61 49.96,-149.16 50.82,-255.95l-19.81 58.25c-15.5,67.07 -16.37,157.98 -62.02,188.87z"/>
    <path class="fil20" d="M2011.87 1312.29c9.48,26.47 6.89,12.35 -8.61,71.48 83.55,-5.29 56.85,-23.82 122.32,-50.3l-30.15 59.13c18.95,19.42 -5.17,8.83 25.84,5.3 18.09,-38.84 38.76,-52.08 62.88,-70.61l35.32 -28.24c-73.22,4.41 -124.04,35.3 -185.2,60.9 19.81,-44.13 23.26,-37.07 32.73,-83.85 -59.44,17.65 -14.64,-6.18 -55.13,36.19z"/>
    <path class="fil20" d="M1268.49 2637.94c2.58,2.64 4.3,14.12 17.23,10.59 1.72,-0.89 5.16,-2.65 7.75,-3.53 2.58,-0.89 6.03,-4.42 9.47,-6.18 2.59,-1.77 19.82,-15.89 23.26,-18.54 -35.32,99.74 -11.2,30.01 3.45,56.49l31.01 -54.72c-37.9,-21.18 -21.54,-7.06 -43.07,-16.77l-28.43 -13.24c-4.31,-2.65 -7.75,-6.18 -11.2,-7.94 -2.58,-2.65 -6.89,-6.18 -10.33,-9.71l0.86 63.55z"/>
    <path class="fil20" d="M1697.46 1365.24c55.99,-1.76 -3.44,3.53 61.16,-15 -24.98,52.07 -4.31,15.88 -48.24,40.6 24.12,17.65 18.95,17.65 74.94,-3.53l-18.95 -63.55c-70.63,11.47 -23.25,-12.36 -68.91,41.48z"/>
    <path class="fil21" d="M980.78 2241.65l-7.75 50.31c82.69,-63.55 123.18,39.72 205.01,-61.78 16.37,-19.42 18.09,-19.42 41.35,-41.48 -13.78,-7.95 1.72,-6.18 -24.12,-3.53 -1.72,0 -23.26,5.29 -29.29,6.17 -52.54,23.83 -11.2,7.07 -55.13,43.25l-80.97 -9.71 2.59 -18.53c12.06,-60.02 -16.37,-11.47 36.17,-48.54 17.23,-11.48 20.68,-11.48 37.04,-25.6l-15.5 -8.82c-6.89,5.29 -42.21,25.59 -43.93,26.47 -13.78,8.83 -9.48,2.65 -24.98,25.6 -1.73,1.76 -13.78,25.59 -18.95,32.65 -1.73,3.53 -8.62,14.13 -10.34,16.77 -0.86,1.77 -5.17,10.59 -6.03,7.95 -0.86,-1.77 -3.45,6.17 -5.17,8.82z"/>
    <path class="fil21" d="M1707.8 1757.11l-18.09 72.37c69.77,-6.18 119.73,-37.07 152.47,-75.9 -31.01,-27.36 45.65,-34.42 -37.9,-20.3 -16.37,37.95 -24.99,40.6 -72.36,54.72 -11.2,-11.47 -9.48,-2.65 -24.12,-30.89z"/>
    <path class="fil22" d="M503.57 2292.84c27.56,45.01 1.72,-26.47 -7.75,39.72 -6.89,47.66 -3.45,0 13.78,41.48 -25.84,37.07 -31.87,42.37 -52.55,94.44 143.86,-85.61 37.91,-45.9 103.37,-119.15 12.06,-13.24 45.66,-37.95 55.99,-45.9l29.29 -19.41c32.73,-30.89 19.81,3.53 25.84,-50.31 -38.76,13.24 -142.13,37.95 -167.97,59.13z"/>
    <path class="fil22" d="M661.2 1812.71l81.84 -52.95c-23.26,-23.83 7.75,-0.88 -24.98,-16.77l-61.16 -32.66c6.03,54.72 17.23,45.9 4.3,102.38z"/>
    <path class="fil23" d="M1045.39 1468.5l39.62 22.07 -74.94 -7.06 -15.51 31.77c11.2,12.36 7.76,12.36 22.4,30.01l49.96 -5.3c56.85,0 43.07,-3.53 80.11,-23.83 26.7,-15 -12.06,-0.88 34.46,-17.65 12.06,-4.41 24.98,-6.18 41.34,-9.71l46.52 -5.29 -3.45 -38.84c-90.44,-42.36 -93.03,40.6 -220.51,23.83z"/>
    <path class="fil23" d="M1085.87 2530.26l-4.3 14.12c10.33,7.94 -37.04,41.48 41.34,6.18 -12.06,34.42 2.59,15 -36.18,24.71 0,34.42 -4.3,-0.88 24.12,20.3 19.81,-0.88 31.87,7.94 31.87,-20.3l5.17 -19.42c6.03,-16.76 7.76,-19.41 13.78,-30 47.38,20.3 12.06,12.35 68.92,26.47 -20.68,-50.3 -12.92,-66.19 49.96,-77.66 -18.09,-30.01 29.28,-25.6 -32.74,-23.83 -60.29,28.24 -118.01,52.95 -161.94,79.43z"/>
    <path class="fil23" d="M1149.62 1778.29c9.47,35.31 3.44,12.36 12.92,30.01 18.09,33.54 0.86,-17.65 19.81,33.54l55.13 17.65c27.56,-13.24 12.06,-15 60.3,-41.48 22.39,-12.36 38.76,-28.24 58.57,-45.01l-49.1 5.29c-106.81,31.78 -55.99,1.77 -157.63,0z"/>
    <path class="fil24" d="M1247.81 2450.83c62.02,-1.77 14.65,-6.18 32.74,23.83 -62.88,11.47 -70.64,27.36 -49.96,77.66 -56.86,-14.12 -21.54,-6.17 -68.92,-26.47 -6.02,10.59 -7.75,13.24 -13.78,30l-5.17 19.42c165.39,-17.65 113.71,-75.9 175.73,-140.33 34.45,-36.19 144.71,-77.67 180.03,-117.38l-71.5 17.65 -22.39 -15.01c-36.18,14.12 -70.64,23.83 -94.76,55.61 -34.45,44.13 -23.25,41.48 -62.02,75.02z"/>
    <path class="fil24" d="M1307.25 1778.29l49.1 -5.29c-19.81,16.77 -36.18,32.65 -58.57,45.01 -48.24,26.48 -32.74,28.24 -60.3,41.48l-4.31 8.83c108.54,-18.54 6.89,-10.59 184.34,-92.68l36.18 -22.06c-26.71,-19.42 -9.48,-10.59 -38.77,-30.89 -34.45,16.77 -20.67,14.12 -59.43,27.36 -39.63,13.24 -24.98,-0.88 -48.24,28.24z"/>
    <path class="fil24" d="M1363.24 2092.49l-41.35 37.07c-7.75,6.18 -10.33,8.83 -26.7,17.66 -3.44,1.76 -15.5,5.29 -18.95,7.06 -25.84,13.24 -12.06,-0.89 -26.7,22.94 36.18,-12.35 73.22,-29.12 106.81,-46.77 49.1,-27.36 37.9,-40.6 75.8,-73.26l-10.33 -53.84 -18.95 0 -32.74 22.07c22.4,-6.18 27.57,10.59 26.71,10.59l-33.6 56.48z"/>
    <path class="fil25" d="M1121.19 2931.84l96.48 -7.06c5.16,-27.36 6.89,-15.01 -0.87,-31.78l-35.31 -20.3 18.09 -52.95c12.92,-73.26 9.47,-77.67 68.91,-98.85 -22.4,-33.54 -14.65,-33.54 -18.09,-82.96l-15.51 -18.54c-48.23,60.9 -111.98,206.53 -113.7,312.44z"/>
    <path class="fil25" d="M639.67 2749.14c-15.51,17.65 -23.26,31.78 -36.18,47.66 -30.15,36.19 -15.5,12.36 -49.96,38.84 -33.59,27.36 -57.71,52.07 -75.8,102.38l62.02 7.06c-9.48,-93.56 43.07,-91.79 94.75,-142.98 48.24,-46.78 80.97,-90.03 94.75,-141.22l18.09 -25.59 5.17 -33.54c-56.85,21.18 -41.34,22.06 -61.16,79.43 -20.67,58.25 -3.44,41.48 -51.68,67.96z"/>
    <path class="fil26" d="M208.97 2149.86c0,57.37 -1.72,94.44 -47.37,112.09l-7.76 52.96c-18.95,5.29 -46.51,13.24 -63.74,20.3l-60.3 37.07 3.45 60.01c12.92,-10.59 8.61,-5.29 20.67,-20.3l54.27 -60.01c71.5,8.82 25.84,-11.48 41.35,29.12 27.56,-41.48 -6.03,-33.54 44.79,-29.12l10.34 48.54c-1.73,67.96 34.45,80.31 -18.09,94.44 -16.37,25.59 -1.73,-3.53 -12.92,49.42l73.21 -36.19c-40.48,-67.95 -43.93,-270.07 4.31,-340.67l18.09 -25.6c2.58,-3.53 4.31,-8.83 6.03,-12.36 1.72,-3.53 4.31,-7.94 6.03,-13.24 -59.44,12.36 -35.32,6.18 -72.36,33.54z"/>
    <path class="fil26" d="M84.93 2913.3c16.37,-60.01 56.85,-76.78 118.87,-80.31 15.51,35.3 12.06,-0.88 6.03,53.84 40.49,0 0,5.29 18.09,-25.6l4.31 -67.96 41.35 -9.71c28.42,-27.36 5.17,2.65 26.7,-45.01 -30.15,9.71 -254.97,135.92 -271.34,172.99 56.85,33.54 55.13,1.76 55.99,1.76z"/>
    <path class="fil27" d="M890.34 1552.35l-55.13 37.07c37.9,61.78 55.13,20.3 70.63,89.14l6.03 7.94c39.62,-5.29 15.51,-12.35 47.38,4.42 41.34,-3.53 37.04,22.94 24.98,-95.32 42.21,-26.48 56.85,-13.24 82.69,-55.61l-49.96 5.3c-14.64,-17.65 -11.2,-17.65 -22.4,-30.01 -46.51,2.65 -76.66,0.88 -104.22,37.07z"/>
    <path class="fil27" d="M825.73 2509.96c13.78,24.71 8.61,25.6 2.59,51.19 -18.09,13.24 -71.5,72.37 -80.98,74.14l-18.09 25.59 7.76 11.48c36.18,-10.59 23.26,-9.71 44.79,-17.66 37.9,-14.12 7.75,-25.59 29.29,-0.88 24.98,-12.35 12.06,-5.29 33.59,-6.18 20.68,-35.3 2.59,-5.29 21.54,-30.89 7.75,-10.59 7.75,-12.35 15.5,-22.06 28.43,-37.07 -4.31,-16.77 38.76,-30.89 19.82,-42.37 21.54,-24.71 31.01,-52.96l0 -20.3c-81.83,-6.18 -12.92,-6.18 -49.96,-21.18 -38.76,-16.77 -5.16,52.96 -37.9,-22.95 -30.15,22.07 -26.7,15.89 -37.9,63.55z"/>
    <path class="fil28" d="M1236.62 2068.66c-9.48,7.07 -10.34,2.65 -24.12,18.54l-106.82 45.01c-16.36,14.12 -19.81,14.12 -37.04,25.6 -52.54,37.07 -24.11,-11.48 -36.17,48.54 77.52,-39.72 18.08,-43.25 173.14,-59.13l-39.63 44.12c6.03,-0.88 27.57,-6.17 29.29,-6.17 25.84,-2.65 10.34,-4.42 24.12,3.53l30.15 -11.48c14.64,-23.83 0.86,-9.7 26.7,-22.94 3.45,-1.77 15.51,-5.3 18.95,-7.06 16.37,-8.83 18.95,-11.48 26.7,-17.66l-49.96 3.53c81.84,-83.84 31.87,-76.78 92.17,-97.08l-0.86 56.48 33.6 -56.48c0.86,0 -4.31,-16.77 -26.71,-10.59l32.74 -22.07 -40.49 0 -23.26 -47.66c-16.36,11.48 -6.89,5.3 -30.15,19.42 15.51,42.36 15.51,22.95 -6.89,61.78 -1.72,3.53 -38.76,53.84 -38.76,54.72 -45.65,-5.29 -12.06,4.42 -26.7,-22.95z"/>
    <path class="fil28" d="M1768.96 1697.98c-24.12,10.59 -35.32,19.41 -52.55,33.54l-8.61 25.59c14.64,28.24 12.92,19.42 24.12,30.89 47.37,-14.12 55.99,-16.77 72.36,-54.72 83.55,-14.12 6.89,-7.06 37.9,20.3l16.36 -29.13 -6.03 -19.41c-0.86,-2.65 -2.58,-7.06 -2.58,-9.71 -10.34,-38.83 0,-8.83 -8.61,-32.66l-72.36 35.31z"/>
    <path class="fil29" d="M1134.11 2421.7l-31.87 39.72c-14.65,15 -11.2,10.59 -29.29,22.94 -33.59,8.83 -38.76,-5.29 -83.55,-15.88 -26.71,30.01 -3.45,7.94 -37.91,22.06l0 20.3c16.37,6.18 31.88,-13.24 5.17,28.25 -19.81,30 -6.03,12.35 -36.18,24.71 -8.61,20.3 -12.06,24.71 -25.84,42.36 0,0.88 -16.36,22.07 -16.36,22.07 -23.26,22.06 -3.45,9.71 -33.6,19.41l-3.44 22.07c55.99,-14.12 64.6,-49.43 124.04,-118.27 18.09,-21.18 7.75,-22.95 40.48,-42.36 -58.57,101.5 -60.3,74.14 -101.64,154.45 31.87,-11.47 22.39,-9.71 43.07,-42.36 0.86,-1.77 3.44,-6.18 5.17,-8.83 43.93,-7.06 29.28,-2.65 64.6,-34.42 -9.47,-27.36 -13.78,-22.95 12.92,-12.36l55.99 -35.3c24.12,-38.83 71.5,-54.72 113.71,-90.91l10.33 1.77c4.31,-48.54 12.92,-45.9 23.26,-90.03 -61.16,30.89 -61.16,76.79 -87,82.08l-12.06 -11.47z"/>
    <path class="fil29" d="M1699.18 1563.82c10.34,9.71 15.51,13.24 25.85,22.95l32.73 37.07c18.09,-49.43 41.35,-78.55 65.47,-105.03l-53.41 -13.24c-3.45,-0.88 -7.75,-2.65 -10.34,-3.53 -2.58,-0.88 -7.75,-0.88 -9.47,-4.41 -1.73,-4.41 -6.03,-3.53 -8.62,-6.18l-8.61 9.71c-16.37,34.42 37.04,10.59 -35.32,35.3 3.45,23.83 3.45,14.12 1.72,27.36z"/>
    <path class="fil30" d="M1402 2141.04c-90.44,32.65 -182.61,75.9 -208.45,148.27l18.95 17.65c39.62,-20.3 4.3,-2.64 31.01,-20.3 2.58,-1.76 5.17,-4.41 7.75,-6.17l24.98 -15.89 91.31 -32.66c-37.04,68.85 -37.9,13.24 -80.97,99.74 52.54,-0.89 125.76,-38.84 162.8,-69.73 22.4,-19.41 63.74,-124.44 80.97,-166.81 -85.28,29.13 -68.91,80.32 -125.76,128.86l-2.59 -82.96z"/>
    <path class="fil30" d="M1556.19 1796.83c-9.47,19.41 21.54,33.54 -24.98,6.18 0.86,72.37 -23.25,113.85 -40.48,180.04 79.25,-23.83 59.43,-13.24 99.06,-71.49l-12.92 -12.35c25.84,-30.01 13.78,-9.71 29.28,-53.84l39.63 -0.88 20.67 -65.31c-18.95,19.41 -36.18,22.06 -74.08,37.95l-36.18 -20.3z"/>
    <path class="fil30" d="M1014.38 1918.62c22.39,12.36 24.98,6.18 45.65,31.78 29.29,-33.54 29.29,-29.13 31.87,-73.26l-67.19 0.89 -18.95 5.29 8.62 35.3z"/>
    <path class="fil31" d="M1414.06 2441.12l-7.75 29.12c-25.84,-12.35 -32.73,-18.53 -44.79,-20.3 -34.46,22.95 -62.02,81.2 -80.11,116.51 43.93,-7.95 -1.72,-7.95 47.38,1.76l4.3 -29.12c71.5,-11.48 33.6,-82.09 68.05,-45.02 40.49,-41.48 20.68,-41.48 87,-57.36 -9.47,30 -66.32,195.05 -57.71,225.06 14.64,50.3 -9.48,14.12 29.29,47.66 18.09,-46.78 19.81,-19.42 10.33,-69.73 -10.33,-81.2 23.26,-69.72 49.96,-142.1 5.17,-14.12 7.76,-28.24 13.79,-36.18 12.92,-16.77 8.61,-1.77 28.42,-22.95 16.37,-17.65 17.23,-32.66 33.6,-58.25 -17.23,-27.36 -21.54,-7.94 -24.98,-21.18 -0.86,-3.53 -4.31,-2.65 -7.76,-4.42l22.4 -35.3 -12.92 -15c-68.05,27.36 -35.32,35.3 -87.86,67.07 -68.91,42.37 -62.88,69.73 -65.47,62.67 -0.86,-1.77 -3.44,5.29 -5.17,7.06z"/>
    <path class="fil31" d="M1136.69 1656.5l43.07 -3.54 5.17 17.66 52.55 0c6.03,-12.36 15.5,-28.25 16.36,-41.48 2.59,-41.49 -11.19,-27.37 -16.36,-32.66 -52.55,33.54 18.95,13.24 -66.33,43.25l-34.46 16.77z"/>
    <path class="fil32" d="M1063.48 2705.9c40.48,14.12 -5.17,-31.78 23.25,19.41 -13.78,14.12 -6.89,1.77 -28.42,6.18 -6.89,43.25 2.58,6.18 -43.07,31.77l-17.23 8.83c-20.67,18.53 -20.67,47.66 -23.26,75.9 53.41,32.66 -22.39,8.83 17.23,4.42 29.29,-3.54 -6.03,-34.43 17.23,25.59 15.5,41.48 1.72,20.3 29.29,46.78 12.92,-68.84 56.85,-147.4 65.46,-195.94 -9.47,96.2 -28.42,135.04 -60.3,217.12 82.7,-3.53 33.6,10.59 98.2,-180.05 15.51,-45.01 19.81,-57.37 43.93,-97.08 52.55,-85.61 46.52,-50.31 49.1,-49.43l15.51 18.54 18.09 0 -0.86 -63.55 -19.82 0 -184.33 131.51z"/>
    <path class="fil32" d="M1968.8 1329.94c-31.01,22.06 -5.17,-7.06 -24.12,22.94 -1.72,3.53 -6.89,15.89 -8.61,18.54 -1.72,3.53 -5.17,15.89 -7.75,19.42 70.63,-1.77 81.83,3.53 114.56,46.77 43.07,51.19 -2.58,7.06 39.63,26.48 22.39,-54.72 -4.31,-5.29 25.84,-37.95 25.84,-28.24 1.72,10.59 24.98,-27.36l-12.06 -0.88c-31.01,3.53 -6.89,14.12 -25.84,-5.3l30.15 -59.13c-65.47,26.48 -38.77,45.01 -122.32,50.3 15.5,-59.13 18.09,-45.01 8.61,-71.48 -0.86,0 -25.84,52.95 -43.07,17.65z"/>
    <path class="fil32" d="M1172.01 1949.52l-29.29 -15.01c-5.16,-2.65 -5.16,-0.88 -21.53,-7.94l-1.72 15.88 -6.89 62.67c115.42,-11.48 62.88,-7.94 132.65,-47.66 6.03,-37.95 -2.58,-3.53 6.03,-32.66 4.31,-13.24 10.34,-26.47 16.37,-41.48 -18.09,10.59 -7.76,2.65 -28.43,16.77 -76.66,52.96 -6.03,45.01 -67.19,49.43z"/>
    <path class="fil33" d="M1265.04 1953.93l-28.42 114.73c14.64,27.37 -18.95,17.66 26.7,22.95 0,-0.88 37.04,-51.19 38.76,-54.72 22.4,-38.83 22.4,-19.42 6.89,-61.78 23.26,-14.12 13.79,-7.94 30.15,-19.42l15.51 -24.71 12.92 51.19 47.37 4.41c1.73,-2.64 5.17,-7.94 6.9,-6.17 0,0.88 61.15,-23.83 87,-152.69 -55.99,24.71 -74.94,44.13 -124.91,58.25 24.12,-33.54 14.65,-24.71 53.41,-41.48 37.9,-16.77 43.07,-7.95 67.19,-33.54 -116.29,-74.14 -209.32,93.55 -239.47,142.98z"/>
    <path class="fil33" d="M1045.39 1468.5c127.48,16.77 130.07,-66.19 220.51,-23.83 69.78,3.53 43.93,17.66 43.93,43.25 106.82,-9.71 36.18,-112.97 -61.15,-132.39 -131.8,-26.48 -156.78,30.89 -224.83,85.61 5.17,37.95 -10.34,15.89 21.54,27.36z"/>
    <path class="fil33" d="M1716.41 1731.52c17.23,-14.13 28.43,-22.95 52.55,-33.54 29.29,-52.08 30.15,-43.25 82.69,-84.73 42.21,-32.66 45.66,-66.2 107.68,-44.13 28.42,-9.71 75.8,-21.18 103.36,-32.66 -53.4,-79.43 -176.58,-30.89 -217.07,7.95 -39.62,38.83 -111.98,132.38 -129.21,187.11z"/>
    <path class="fil34" d="M848.99 1957.46c31.01,11.47 28.42,-2.65 -3.45,18.53 105.09,-37.95 215.35,-39.71 247.22,62.67 -41.34,38.83 -17.22,-1.77 -54.26,53.83 -21.54,30.9 -33.6,51.2 -68.05,60.9 -136.97,37.95 -98.2,-51.19 -97.34,-116.5 -33.6,32.66 -33.6,57.37 -36.18,111.21 39.62,30.89 81.83,33.54 137.82,29.12l-13.78 31.78c29.29,23.83 7.75,-2.65 19.81,32.65 1.72,-2.65 4.31,-10.59 5.17,-8.82 0.86,2.64 5.17,-6.18 6.03,-7.95 1.72,-2.64 8.61,-13.24 10.34,-16.77 5.17,-7.06 17.22,-30.89 18.95,-32.65 15.5,-22.95 11.2,-16.77 24.98,-25.6 1.72,-0.88 37.04,-21.18 43.93,-26.47 6.03,-47.66 48.24,-80.32 96.48,-103.27 14.64,16.77 7.75,-1.76 18.95,28.25 6.89,19.41 3.44,19.41 6.89,38.83 13.78,-15.89 14.64,-11.47 24.12,-18.54l28.42 -114.73 -19.81 3.53c-69.77,39.72 -17.23,36.18 -132.65,47.66l6.89 -62.67 -18.09 22.95 -41.35 -15c-20.67,-25.6 -23.26,-19.42 -45.65,-31.78l-123.18 -12.35c-18.09,17.65 -29.29,22.95 -42.21,51.19z"/>
    <path class="fil34" d="M1843.9 1926.57c-64.61,12.35 41.35,20.3 -61.16,92.67 -36.18,-49.43 1.72,-55.6 4.31,-120.03 -7.76,14.12 -18.95,30.01 -26.71,53.84 -6.89,22.94 -12.92,59.13 -11.19,77.66 27.56,12.36 -34.46,19.42 31.87,8.83 34.45,-5.3 25.84,-20.3 66.32,-45.9l-3.44 -67.07z"/>
    <path class="fil34" d="M28.08 2567.33c2.58,46.78 10.34,34.42 -5.17,60.01 26.7,0 16.37,3.53 40.49,-2.64 37.04,-9.71 21.53,-8.83 33.59,-16.77l1.72 -46.78 -70.63 6.18z"/>
    <path class="fil34" d="M1545 1324.64c12.05,-5.29 35.31,34.42 31.01,-52.07 -1.73,-41.48 3.44,-37.07 -21.54,-65.31l-9.47 117.38z"/>
    <path class="fil35" d="M1029.88 2565.56c-26.7,-10.59 -22.39,-15 -12.92,12.36 -5.17,38.83 25.84,7.06 -26.7,38.83 -0.86,0 -22.4,4.42 -23.26,4.42 -54.27,0 37.9,54.72 -14.64,-8.83 -1.73,2.65 -4.31,7.06 -5.17,8.83 -20.68,32.65 -11.2,30.89 -43.07,42.36 -31.01,15 -23.26,12.36 -49.1,30.89 -24.98,15.89 -0.86,2.65 -24.12,15.01 -22.4,11.47 -3.45,2.64 -33.6,12.35 -29.28,3.53 -111.11,107.68 -127.48,128.86 -10.34,15 -19.81,43.25 -27.57,60.9l63.75 13.24c-27.57,21.18 -73.22,16.77 -126.63,19.41 -15.5,-22.06 -24.12,32.66 -12.92,-37.06 -20.67,80.31 2.59,7.94 -26.7,37.95l-62.02 -7.06c8.61,4.41 -3.45,3.53 27.56,7.94 39.63,5.3 -18.95,-0.88 22.4,0.88l178.31 -1.76c26.7,-43.25 24.98,-61.78 74.94,-79.44 0.86,-4.41 2.58,-15.88 2.58,-19.41l-6.03 -36.19 43.93 -15.89c6.9,-7.94 -3.44,0 17.23,-15.88 3.45,-1.77 15.51,-7.95 23.26,-14.12 28.43,-20.3 5.17,-7.95 36.18,-30.01l96.47 -76.79c11.2,-7.94 39.63,-30.01 52.55,-36.18 58.57,-28.25 47.38,0 55.13,-21.19 1.72,-3.53 6.03,-2.64 8.61,-4.41 -28.42,-21.18 -24.12,14.12 -24.12,-20.3 38.77,-9.71 24.12,9.71 36.18,-24.71 -78.38,35.3 -31.01,1.76 -41.34,-6.18l-51.69 21.18z"/>
    <path class="fil35" d="M1321.89 2129.56l41.35 -37.07 0.86 -56.48c-60.3,20.3 -10.33,13.24 -92.17,97.08l49.96 -3.53z"/>
    <path class="fil36" d="M363.16 2698.83l-12.92 -1.76c-14.64,34.42 -16.37,52.07 -35.32,78.55 12.06,11.47 22.4,0.88 -7.75,40.6 -24.12,32.65 -13.78,25.59 -43.93,19.42 22.4,119.15 61.16,107.67 185.2,107.67 31.01,-40.6 18.95,-43.25 62.88,-86.49l59.44 -58.25c1.72,-1.77 6.89,-2.65 7.75,-7.95 1.72,-4.41 5.17,-4.41 7.75,-7.06 -84.41,-5.29 -105.95,45.9 -141.27,27.36 -53.4,-26.47 11.2,-13.24 14.65,-75.02 6.03,-92.67 7.75,-22.94 -12.06,-40.6l-55.13 -1.76c-4.31,-78.55 -0.86,-29.13 16.37,-47.66 -14.65,-15.01 36.17,-45.9 -25.85,-4.41 0,0 -3.44,30 -3.44,30 -8.62,22.95 -6.03,15.89 -16.37,27.36z"/>
    <path class="fil36" d="M1768.96 1697.98l72.36 -35.31c8.61,23.83 -1.73,-6.17 8.61,32.66 0,2.65 1.72,7.06 2.58,9.71l6.03 19.41 37.04 -28.24 -7.75 -7.94 -24.98 -10.59c18.09,-35.31 69.77,-82.08 96.48,-108.56 -62.02,-22.07 -65.47,11.47 -107.68,44.13 -52.54,41.48 -53.4,32.65 -82.69,84.73z"/>
    <path class="fil37" d="M903.26 2041.3c28.42,-21.18 -6.03,-13.23 40.48,-15 2.59,0 27.57,4.41 31.01,5.3 55.99,5.29 54.27,-4.42 78.39,23.83l-149.88 -14.13zm-57.72 -65.31c-3.44,17.65 -4.3,11.48 -19.81,30.01 -12.06,15.01 -18.09,18.54 -28.43,34.42 -17.22,25.6 -33.59,69.73 -37.9,101.5l-5.16 41.48c51.68,-12.35 81.83,2.65 124.04,10.59 43.07,-11.47 52.54,-4.41 82.69,15.01l13.78 -31.78c-55.99,4.42 -98.2,1.77 -137.82,-29.12 2.58,-53.84 2.58,-78.55 36.18,-111.21 -0.86,65.31 -39.63,154.45 97.34,116.5 34.45,-9.7 46.51,-30 68.05,-60.9 37.04,-55.6 12.92,-15 54.26,-53.83 -31.87,-102.38 -142.13,-100.62 -247.22,-62.67z"/>
    <path class="fil37" d="M350.24 2697.07l12.92 1.76c-7.75,-65.31 -31.01,-67.07 -7.75,-123.56l18.95 0c1.72,0.88 6.89,1.77 8.61,2.65l39.63 8.83c9.47,-45.02 4.31,-86.5 34.45,-118.27 20.68,-52.07 26.71,-57.37 52.55,-94.44 -17.23,-41.48 -20.67,6.18 -13.78,-41.48 9.47,-66.19 35.31,5.29 7.75,-39.72 -89.59,67.08 -62.02,92.67 -121.46,180.93 -22.39,32.66 -49.96,46.78 -49.96,90.91 0,34.42 8.62,104.15 18.09,132.39z"/>
    <path class="fil37" d="M1276.24 2264.6l-15.5 78.55c-11.2,9.71 -12.06,3.53 -27.57,7.94 -10.34,44.13 -18.95,41.49 -23.26,90.03l-10.33 -1.77c59.43,-16.77 74.94,-44.13 87,-107.67 43.07,-86.5 43.93,-30.89 80.97,-99.74l-91.31 32.66z"/>
    <path class="fil37" d="M1090.18 2123.39l15.5 8.82 106.82 -45.01c-3.45,-19.42 0,-19.42 -6.89,-38.83 -11.2,-30.01 -4.31,-11.48 -18.95,-28.25 -48.24,22.95 -90.45,55.61 -96.48,103.27z"/>
    <path class="fil37" d="M764.57 2317.56c43.07,-3.54 27.57,2.64 50.82,-15.01 -36.17,-50.31 3.45,-39.72 -63.74,-56.48l12.92 71.49z"/>
    <path class="fil37" d="M1072.95 2484.36c18.09,-12.35 14.64,-7.94 29.29,-22.94l31.87 -39.72 6.89 1.77c-23.26,-20.3 31.87,-29.13 -28.42,-15.01 -28.43,37.07 -48.24,29.13 -39.63,75.9z"/>
    <path class="fil37" d="M447.58 2695.3c-2.59,-2.64 -6.89,-9.7 -8.62,-7.06 -9.47,18.54 -12.92,-11.47 -14.64,-14.12 -21.53,-24.71 -10.34,-8.82 -15.5,-28.24 -17.23,18.53 -20.68,-30.89 -16.37,47.66l55.13 1.76z"/>
    <path class="fil38" d="M81.49 2224c-7.76,30.01 7.75,12.36 -18.09,35.3 -25.84,22.95 -5.17,2.65 -36.18,15.89 18.95,-28.24 -7.75,-23.83 21.53,-34.42 -74.08,-25.6 -16.36,-11.47 -39.62,12.36 4.31,77.66 -5.17,132.38 12.92,210.94l33.59 12.35c-47.37,24.71 -35.31,57.37 -27.56,90.91l70.63 -6.18 -1.72 46.78c-12.06,7.94 3.45,7.06 -33.59,16.77 -24.12,6.17 -13.79,2.64 -40.49,2.64 -21.53,67.96 -14.64,44.13 3.45,112.98l49.1 -28.25c2.58,-1.76 5.16,-4.41 7.75,-5.29 108.53,-76.79 92.17,-38.84 205.87,-72.37 -30.15,-61.79 -53.4,-56.49 -134.38,-73.26l18.96 -16.77c11.19,-52.95 -3.45,-23.83 12.92,-49.42 -24.98,7.06 -59.44,-7.95 -59.44,-9.71 -1.72,-3.53 -6.89,-1.77 -9.48,-3.53 6.9,-62.67 29.29,-68.84 87.01,-81.2l-10.34 -48.54c-50.82,-4.42 -17.23,-12.36 -44.79,29.12 -15.51,-40.6 30.15,-20.3 -41.35,-29.12l-54.27 60.01c-12.06,15.01 -7.75,9.71 -20.67,20.3l-3.45 -60.01 31.87 -75.91c16.37,-4.41 8.62,1.77 31.01,-7.94 31.88,-14.12 25.85,-17.65 39.63,-37.95l29.29 11.47c45.65,-17.65 47.37,-54.72 47.37,-112.09 -17.23,23.83 -13.78,10.59 -18.09,48.55 -3.44,-1.77 -6.89,-10.6 -8.61,-7.07l-16.37 -12.35c0,0 -22.39,-26.48 -62.88,11.47 -29.29,27.36 -10.34,-7.06 -21.53,33.54z"/>
    <path class="fil38" d="M1728.47 2162.22l-9.47 -37.07c-55.99,69.73 0,51.19 -1.73,95.32l-34.45 113.85c56.85,-45.89 -5.17,49.43 26.7,-23.83 2.59,-5.29 6.03,-24.71 7.75,-31.77 26.71,-122.68 56.86,-119.15 47.38,-192.4 -54.27,21.18 -19.81,-4.42 -36.18,75.9z"/>
    <path class="fil38" d="M882.58 1818.01c6.89,27.36 5.17,41.48 21.54,17.65l8.61 -30.89 33.6 -6.18 0 -18.53 -47.38 2.65 -16.37 35.3z"/>
    <path class="fil38" d="M1627.69 2407.58c31.01,-29.13 31.87,-34.42 44.79,-81.2 -11.2,8.83 -10.33,-3.53 -30.15,29.13 -10.33,17.65 -10.33,29.12 -14.64,52.07z"/>
    <path class="fil0" d="M969.58 1304.34c-2.58,-30.01 -29.28,-31.77 -45.65,-37.95 10.34,77.67 -14.64,37.07 35.32,63.55 12.06,-21.19 15.5,36.18 10.33,-25.6z"/>
    <path class="fil39" d="M671.54 2233.71c-6.03,53.84 6.89,19.42 -25.84,50.31l-29.29 19.41c-10.33,7.95 -43.93,32.66 -55.99,45.9 -65.46,73.25 40.49,33.54 -103.37,119.15 -30.14,31.77 -24.98,73.25 -34.45,118.27l-39.63 -8.83c-1.72,-0.88 -6.89,-1.77 -8.61,-2.65l-18.95 0c-23.26,56.49 0,58.25 7.75,123.56 10.34,-11.47 7.75,-4.41 16.37,-27.36 0,0 3.44,-30 3.44,-30 62.02,-41.49 11.2,-10.6 25.85,4.41 5.16,19.42 -6.03,3.53 15.5,28.24 1.72,2.65 5.17,32.66 14.64,14.12 1.73,-2.64 6.03,4.42 8.62,7.06 19.81,17.66 18.09,-52.07 12.06,40.6 -3.45,61.78 -68.05,48.55 -14.65,75.02 35.32,18.54 56.86,-32.65 141.27,-27.36 38.77,-1.76 45.66,-37.95 53.41,-34.42 48.24,-26.48 31.01,-9.71 51.68,-67.96 19.82,-57.37 4.31,-58.25 61.16,-79.43 18.95,-17.65 23.26,-41.48 75.81,-40.6 6.02,-25.59 11.19,-26.48 -2.59,-51.19 -27.56,-23.83 -4.31,-25.6 -18.95,-51.19 -24.12,21.18 -48.24,44.13 -83.55,50.31 -9.48,19.41 -6.9,28.24 -44.8,47.66 -20.67,11.47 -37.9,15 -62.88,18.53 22.4,-52.95 5.17,-34.42 50.82,-61.78 -34.45,19.42 -29.28,26.48 -73.22,30.89 -33.59,-11.47 -63.74,-10.59 -56.85,-61.78 6.03,-42.36 27.57,-30.89 63.75,-56.49 66.32,-45.89 0,-128.85 108.53,-121.79 16.37,-37.95 -5.17,-11.48 24.98,-22.95l-7.75 40.6 43.07 6.18 -4.31 -10.59 -12.92 -71.49c67.19,16.76 27.57,6.17 63.74,56.48 45.66,-12.35 56.86,-5.29 75.81,-52.95l-42.21 -21.19c3.44,-3.53 10.34,-10.59 16.37,-17.65l12.92 -16.77c-42.21,-7.94 -72.36,-22.94 -124.04,-10.59l5.16 -41.48c-23.25,35.3 -8.61,29.13 -45.65,58.25 -13.78,10.59 -39.62,30.89 -42.21,33.54z"/>
    <path class="fil39" d="M581.09 1690.03l12.93 22.07c37.9,80.31 -18.09,111.2 -55.13,133.27 68.91,8.83 4.3,-2.65 65.46,20.3 34.46,-22.07 26.71,-23.83 56.85,-52.96 12.93,-56.48 1.73,-47.66 -4.3,-102.38l-9.48 -25.59 8.62 -35.31 -13.79 -4.41c-41.34,17.65 -29.28,13.24 -61.16,45.01z"/>
    <path class="fil40" d="M946.33 1798.59c34.45,8.83 15.5,-12.35 43.93,35.31 -23.26,-6.18 -13.78,3.53 -30.15,-11.48 -21.54,-19.41 -4.31,-0.88 -13.78,-23.83zm-192.09 -112.09c-13.79,-37.95 -12.06,-30.89 27.56,-52.95l39.62 34.42c-18.95,15 -7.75,12.36 -37.9,17.65 -47.37,8.83 5.17,-7.94 -29.28,0.88zm571.1 -91.79c12.92,-21.18 -25.84,-19.41 26.7,-15 24.12,46.78 15.51,63.55 -27.56,76.79 -43.07,-71.49 -5.17,-54.73 0.86,-61.79zm216.21 -150.92c12.06,30.89 7.75,40.6 10.34,75.02 6.89,77.67 7.75,56.49 -10.34,78.55 -11.2,-38.83 -25.84,-121.8 0,-153.57zm59.44 16.77l37.9 63.55c-42.21,-22.95 -32.74,1.76 -37.9,-63.55zm-55.99 -135.92l9.47 -117.38c24.98,28.24 19.81,23.83 21.54,65.31 4.3,86.49 -18.96,46.78 -31.01,52.07zm-123.18 -910.83c19.81,67.08 -2.59,423.64 -5.17,523.37 -2.59,106.8 18.09,133.28 5.17,244.48 -11.2,91.79 4.3,176.52 5.16,257.72 2.59,48.54 11.2,57.37 -12.06,91.79 -24.11,-35.31 -14.64,-29.13 -10.33,-81.2l-6.89 -47.66 -24.12 5.29c56.85,154.46 -202.43,104.15 -317.86,288.61l55.13 38.84c14.65,-51.19 -22.39,-0.89 25.84,-78.55l34.46 -16.77c85.28,-30.01 13.78,-9.71 66.33,-43.25 5.17,5.29 18.95,-8.83 16.36,32.66 -0.86,13.23 -10.33,29.12 -16.36,41.48l-52.55 0c37.9,68.84 224.83,-34.42 277.37,-51.19l2.59 -85.61 7.75 -42.37c24.98,42.37 20.67,10.59 5.17,42.37l3.44 99.73c-33.59,14.12 -50.82,13.24 -93.89,36.18 -231.71,123.57 -41.35,-51.19 -282.54,96.21 -12.06,-7.95 -1.72,-2.65 -14.64,-12.36l-18.95 -14.12c-25.84,-21.18 -19.81,-11.47 -40.49,-43.25 23.26,-79.43 67.19,-80.31 157.64,-152.69 31.01,-24.71 19.81,-16.77 74.08,-24.71l-31.01 -22.06c-2.59,-1.77 -6.03,-5.3 -8.62,-7.95 -16.36,3.53 -29.28,5.3 -41.34,9.71 -46.52,16.77 -7.76,2.65 -34.46,17.65 -37.04,20.3 -23.26,23.83 -80.11,23.83 -25.84,42.37 -40.48,29.13 -82.69,55.61 12.06,118.26 16.36,91.79 -24.98,95.32l40.48 21.18 -87.86 -25.6 -6.03 -7.94c-38.76,-33.54 -49.96,-46.78 -96.48,-70.61l25.85 -18.53 55.13 -37.07c-59.44,3.53 -28.43,16.77 -96.48,20.3 -31.01,2.65 -69.77,-12.36 -87.86,12.36 24.98,46.77 3.44,-14.13 21.53,31.77l-80.11 67.96 9.48 25.59 61.16 32.66c32.73,15.89 1.72,-7.06 24.98,16.77l-81.84 52.95c-30.14,29.13 -22.39,30.89 -56.85,52.96 -61.16,-22.95 3.45,-11.47 -65.46,-20.3l-14.65 1.76 -5.17 68.85c53.41,-12.36 102.51,-13.24 150.75,8.82 -19.81,23.83 7.75,17.65 -39.63,26.48l-154.19 7.06c-26.7,46.78 -42.2,67.96 -88.72,104.15 -31.87,24.71 -77.52,58.25 -99.92,99.73 14.64,18.53 -12.06,23.83 22.4,10.59 0,0 29.28,-85.61 119.73,-112.09 122.32,-30.01 141.27,-171.22 350.59,-85.61 -46.52,22.95 -72.36,-7.06 -137.83,-7.06 -62.02,27.36 -90.44,51.19 -140.4,82.08 -60.3,37.07 -91.31,34.42 -98.2,129.74l0 20.3c39.62,-22.95 43.93,-51.19 69.77,-61.78 41.35,-16.77 32.73,21.18 105.95,-13.24 -20.67,-39.72 -20.67,-15.89 -57.71,-36.19l80.11 -72.37c20.67,30.89 8.61,15.01 1.72,60.9l55.99 2.65c6.89,92.67 18.09,42.36 -4.31,123.56 58.58,-38.83 61.16,-44.13 87.01,-114.74 23.25,-62.66 45.65,-86.49 74.08,-128.85 -37.04,-42.37 -252.39,-21.19 -76.67,-140.34 49.1,-33.53 49.1,-35.3 118.01,-37.95 2.59,2.65 5.17,3.53 6.03,7.95l18.95 28.24 16.37 -35.3c-29.29,-19.42 -18.09,-10.6 -42.21,-35.31 7.75,-22.95 -0.86,-7.94 7.75,-24.71l-12.92 -22.95c58.58,10.59 114.57,44.13 155.05,72.37l-89.58 -18.53 11.2 0c40.48,15.89 -3.45,-7.06 18.09,26.48l0 18.53 -33.6 6.18 -8.61 30.89 36.18 2.65c-31.88,37.07 -37.04,12.36 -62.02,37.07 -1.73,1.76 -20.68,-26.48 -5.17,15.88 12.92,36.19 -24.98,7.07 18.09,15.01l123.18 12.35 -8.62 -35.3 18.95 -5.29 74.08 -44.13 -29.28 -22.07 -36.18 -3.53c-1.73,5.3 -5.17,6.18 -6.89,8.83l-24.12 30.89c0,-30.01 -0.86,-47.66 17.22,-63.55 14.65,-13.24 24.12,0.88 33.6,-24.71 2.58,2.65 6.89,2.65 8.61,7.94l13.79 15.01c1.72,1.76 4.3,5.29 5.16,7.06 0.87,0.88 2.59,4.41 4.31,7.06l64.61 -18.54c101.64,1.77 50.82,31.78 157.63,0 23.26,-29.12 8.61,-15 48.24,-28.24 38.76,-13.24 24.98,-10.59 59.43,-27.36 29.29,20.3 12.06,11.47 38.77,30.89 33.59,-50.31 24.12,-75.9 79.25,-128.86 49.1,-46.78 89.58,-52.95 166.24,-60.9 1.73,-13.24 1.73,-3.53 -1.72,-27.36 72.36,-24.71 18.95,-0.88 35.32,-35.3 -49.1,20.3 -31.01,30.01 -86.14,27.36 26.7,-31.77 31.01,-29.13 70.63,-51.19l-43.07 -16.77c-24.11,-15 0.87,3.53 -18.95,-15.89 -62.02,-62.66 -37.9,-80.31 -36.17,-104.14 6.03,-83.85 -6.9,-203 -6.9,-295.67l24.98 56.49c1.73,8.82 0,52.07 0,63.54 -2.58,44.13 -10.33,82.08 9.48,112.97 15.51,-57.36 10.34,-127.09 9.48,-189.75l-14.65 -127.1c-17.23,-52.95 3.45,-15.88 -24.12,-49.42 0.86,14.12 7.76,64.43 6.03,76.78 -7.75,88.26 4.31,30.01 -21.53,60.9 12.06,50.31 -3.45,12.36 -21.54,27.36 -43.07,38.84 -0.86,25.6 -24.12,85.61 -60.29,-44.12 -0.86,-77.66 9.48,-114.73 23.26,-87.38 -62.88,-62.67 -16.37,-134.16 30.15,-40.59 -8.61,2.65 6.03,-84.72 0,-1.77 7.75,-18.54 7.75,-19.42 -23.25,-15.01 -16.36,-30.01 -20.67,-72.37 -21.53,33.53 -16.37,106.79 -13.78,145.62 -49.96,-50.3 -14.64,-127.09 -11.2,-200.34 2.58,-44.13 2.58,-69.73 6.89,-112.98 6.89,-62.66 5.17,-60.01 -12.06,-95.32 -24.12,0.89 0,-9.7 -26.7,15.01 -2.59,1.76 -9.48,15 -11.2,18.53 -12.06,-59.13 -1.72,-104.14 -18.09,-142.09l-17.23 -9.71c-6.89,45.01 2.59,32.65 -17.22,58.25z"/>
    <path class="fil40" d="M1531.21 1803.01c46.52,27.36 15.51,13.23 24.98,-6.18l22.4 -2.65c99.06,-11.47 105.95,-64.43 141.27,-150.92 -87.86,35.3 -63.74,34.42 -97.34,9.7 129.21,-32.65 83.56,-19.41 101.65,-48.54 -67.19,-7.06 -111.12,-14.12 -156.78,29.13 -60.3,57.37 -68.05,59.13 -88.72,126.21 35.32,16.77 33.59,9.71 52.54,43.25z"/>
    <path class="fil40" d="M1741.39 1491.45c2.59,2.65 6.89,1.77 8.62,6.18 1.72,3.53 6.89,3.53 9.47,4.41 2.59,0.88 6.89,2.65 10.34,3.53l53.41 13.24c69.77,-39.72 99.92,-60.9 203.28,-48.54 -26.7,-70.61 -75.8,-63.55 -149.88,-45.01 -62.02,15.88 -94.75,39.71 -135.24,66.19z"/>
    <path class="fil40" d="M1887.83 1688.27l7.75 7.94c60.3,-25.59 26.71,-20.3 68.91,-57.37l68.92 -64.43c-63.75,-2.64 -115.43,60.02 -145.58,113.86z"/>
    <path class="fil1" d="M864.49 1722.69c38.77,11.47 26.71,0 52.55,30.89l89.58 18.53c-40.48,-28.24 -96.47,-61.78 -155.05,-72.37l12.92 22.95z"/>
    <path class="fil1" d="M1526.91 2665.3l57.71 -191.53c-42.21,82.97 -61.16,110.33 -57.71,191.53z"/>
    <path class="fil41" d="M1414.06 2441.12c-35.31,-4.41 -24.98,19.41 -15.5,-29.13 26.7,23.83 7.75,-8.82 15.5,29.13zm332.5 -576.33c-39.62,61.78 43.07,-25.6 -21.53,13.24l32.73 -35.31c-1.72,3.53 -3.45,9.71 -4.31,11.48 -1.72,2.64 -5.17,8.82 -6.89,10.59zm-190.37 -67.96l36.18 20.3c37.9,-15.89 55.13,-18.54 74.08,-37.95l-20.67 65.31c-15.51,42.36 -12.06,60.01 -55.99,67.07 -39.63,58.25 -19.81,47.66 -99.06,71.49 17.23,-66.19 41.34,-107.67 40.48,-180.04 -18.95,-33.54 -17.22,-26.48 -52.54,-43.25 20.67,-67.08 28.42,-68.84 88.72,-126.21 45.66,-43.25 89.59,-36.19 156.78,-29.13 -18.09,29.13 27.56,15.89 -101.65,48.54 33.6,24.72 9.48,25.6 97.34,-9.7 -35.32,86.49 -42.21,139.45 -141.27,150.92l-22.4 2.65zm403.14 -227.71c-26.71,26.48 -78.39,73.25 -96.48,108.56l24.98 10.59c30.15,-53.84 81.83,-116.5 145.58,-113.86l-68.92 64.43c-42.2,37.07 -8.61,31.78 -68.91,57.37l-37.04 28.24 -16.36 29.13c-32.74,38.83 -82.7,69.72 -152.47,75.9l18.09 -72.37 8.61 -25.59c17.23,-54.73 89.59,-148.28 129.21,-187.11 40.49,-38.84 163.67,-87.38 217.07,-7.95 -27.56,11.48 -74.94,22.95 -103.36,32.66zm-226.55 -67.96l8.61 -9.71c40.49,-26.48 73.22,-50.31 135.24,-66.19 74.08,-18.54 123.18,-25.6 149.88,45.01 -103.36,-12.36 -133.51,8.82 -203.28,48.54 -24.12,26.48 -47.38,55.6 -65.47,105.03l-32.73 -37.07c-10.34,-9.71 -15.51,-13.24 -25.85,-22.95 -76.66,7.95 -117.14,14.12 -166.24,60.9 -55.13,52.96 -45.66,78.55 -79.25,128.86l-36.18 22.06c-177.45,82.09 -75.8,74.14 -184.34,92.68 -16.37,18.53 -0.86,1.76 -17.23,9.71 -49.96,26.47 -31.87,73.25 -40.48,57.36 -0.86,-2.64 -2.59,9.71 -3.45,14.13 61.16,-4.42 -9.47,3.53 67.19,-49.43 20.67,-14.12 10.34,-6.18 28.43,-16.77 -6.03,15.01 -12.06,28.24 -16.37,41.48 -8.61,29.13 0,-5.29 -6.03,32.66l19.81 -3.53c30.15,-49.43 123.18,-217.12 239.47,-142.98 -24.12,25.59 -29.29,16.77 -67.19,33.54 -38.76,16.77 -29.29,7.94 -53.41,41.48 49.97,-14.12 68.92,-33.54 124.91,-58.25 -25.85,128.86 -87,153.57 -87,152.69 -1.73,-1.77 -5.17,3.53 -6.9,6.17 59.44,-1.76 6.03,19.42 54.27,-21.18 -18.95,71.49 -4.3,15.01 -22.39,53.84 -2.59,6.18 -13.79,37.07 -14.65,37.95 -37.9,32.66 -26.7,45.9 -75.8,73.26 -33.59,17.65 -70.63,34.42 -106.81,46.77l-30.15 11.48c-23.26,22.06 -24.98,22.06 -41.35,41.48 -81.83,101.5 -122.32,-1.77 -205.01,61.78l7.75 -50.31c-12.06,-35.3 9.48,-8.82 -19.81,-32.65 -8.61,19.41 -6.89,11.47 -16.37,29.12 -8.61,15.89 -12.06,27.36 -17.22,37.07 -23.26,43.25 -17.23,9.71 -43.94,53.84l-25.84 4.41c0,81.2 -6.89,29.13 26.71,37.95 21.53,-34.42 -5.17,-12.35 43.07,-36.18 76.66,-37.95 137.82,-40.6 214.48,-38.84 -11.2,7.95 -15.5,10.59 -29.28,19.42 -39.63,25.6 -31.88,3.53 -39.63,40.6 110.26,-13.24 62.88,-45.9 120.6,-67.08 25.84,-72.37 118.01,-115.62 208.45,-148.27l-6.89 0c11.2,-14.12 7.76,-10.59 21.54,-24.72l46.51 -55.6c25.84,-44.13 -14.64,-11.47 35.32,-39.71 29.29,-16.77 93.03,-45.02 125.76,-76.79 24.98,-23.83 31.01,-51.19 56.86,-82.96 14.64,14.12 19.81,-29.13 18.08,34.42 -0.86,30.01 -57.71,139.45 -132.65,179.16 -21.53,11.48 -18.09,7.95 -33.59,22.95l-2.59 -2.65c-17.23,42.37 -58.57,147.4 -80.97,166.81 -37.04,30.89 -110.26,68.84 -162.8,69.73 -12.06,63.54 -27.57,90.9 -87,107.67 -42.21,36.19 -89.59,52.08 -113.71,90.91 43.93,-26.48 101.65,-51.19 161.94,-79.43 38.77,-33.54 27.57,-30.89 62.02,-75.02 24.12,-31.78 58.58,-41.49 94.76,-55.61 29.29,-44.13 18.95,-13.24 61.16,-53.83 9.47,-8.83 38.76,-37.96 47.37,-53.84 37.91,-63.55 12.06,-81.2 89.59,-121.8 -13.78,119.15 -12.92,203 -104.23,226.83 -35.32,39.71 -145.58,81.19 -180.03,117.38 -62.02,64.43 -10.34,122.68 -175.73,140.33 0,28.24 -12.06,19.42 -31.87,20.3 -2.58,1.77 -6.89,0.88 -8.61,4.41 -7.75,21.19 3.44,-7.06 -55.13,21.19 -12.92,6.17 -41.35,28.24 -52.55,36.18l-96.47 76.79c67.19,-34.42 79.25,-83.85 225.68,-121.8 -43.07,90.91 -214.48,135.04 -279.95,212.7 -1.72,3.54 -5.17,4.42 -6.03,9.71 0,4.42 -4.31,7.06 -5.17,8.83l-12.06 19.42 12.06 23.83c9.48,-32.66 81.83,-69.73 95.62,-80.32 28.42,-21.18 0,-15 43.93,-31.77l-50.82 150.04c28.42,7.94 31.01,-14.12 20.67,17.65 0,-50.31 4.31,-64.43 32.73,-94.44 2.59,-28.24 2.59,-57.37 23.26,-75.9l17.23 -8.83c45.65,-25.59 36.18,11.48 43.07,-31.77 -41.35,4.41 -9.48,3.53 -19.81,-9.71l24.98 -15.88 184.33 -131.51 33.6 -7.94c18.09,-35.31 45.65,-93.56 80.11,-116.51 12.06,1.77 18.95,7.95 44.79,20.3l7.75 -29.12c1.73,-1.77 4.31,-8.83 5.17,-7.06 2.59,7.06 -3.44,-20.3 65.47,-62.67 52.54,-31.77 19.81,-39.71 87.86,-67.07 23.26,-41.49 37.04,-82.08 44.79,-153.57 12.06,-111.21 22.4,-82.09 64.61,-150.04 64.6,-102.38 89.58,-169.46 198.12,-225.95 -11.2,28.25 -18.95,33.54 -31.87,65.31l-1.73 20.3c6.03,-4.41 6.03,-3.53 18.09,-18.53 5.17,-7.94 15.51,-22.07 20.68,-30.01 14.64,-22.06 20.67,-32.65 32.73,-53.84l-19.81 -34.42c50.82,-9.71 35.31,-22.95 74.08,-44.13l37.04 -32.65c17.22,-24.72 65.46,-67.08 73.22,-95.32 10.33,-42.37 3.44,-28.25 -11.2,-54.72 -23.26,-43.25 -12.92,17.65 -28.43,-59.14 -32.73,-43.24 -43.93,-48.54 -114.56,-46.77 -152.47,26.47 -149.89,59.13 -203.29,57.36 -1.73,0 -19.82,-5.29 -43.93,-3.53 -14.65,-30.89 0,-12.35 -11.2,-35.3l-7.75 -11.47c-0.87,-1.77 -3.45,-5.3 -4.31,-6.18 -17.23,-32.66 -15.51,-76.79 -11.2,-113.86 -19.81,-30.89 -12.06,-68.84 -9.48,-112.97 0,-11.47 1.73,-54.72 0,-63.54l-24.98 -56.49c0,92.67 12.93,211.82 6.9,295.67 -1.73,23.83 -25.85,41.48 36.17,104.14 19.82,19.42 -5.16,0.89 18.95,15.89l43.07 16.77c-39.62,22.06 -43.93,19.42 -70.63,51.19 55.13,2.65 37.04,-7.06 86.14,-27.36z"/>
    <path class="fil42" d="M403.65 2200.17c-1.73,1.77 -55.13,11.47 -2.59,33.54l17.23 7.06c-5.17,38.83 -16.37,45.01 -29.29,78.55 -24.12,62.66 2.59,43.25 -62.88,73.26 -6.89,-15.01 -25.84,-60.9 -27.56,-65.32 -15.51,30.01 10.33,16.77 -37.04,37.07 -37.04,61.78 6.89,122.68 18.95,187.99 3.44,-1.76 7.75,-9.7 9.47,-7.06 16.37,23.83 14.65,-11.47 18.09,-15l58.58 -84.73c24.98,-39.72 32.73,-72.37 61.16,-114.74 76.66,-113.85 114.56,-68.84 227.4,-127.09 22.4,-81.2 11.2,-30.89 4.31,-123.56l-55.99 -2.65c6.89,-45.89 18.95,-30.01 -1.72,-60.9l-80.11 72.37c37.04,20.3 37.04,-3.53 57.71,36.19 -73.22,34.42 -64.6,-3.53 -105.95,13.24 -25.84,10.59 -30.15,38.83 -69.77,61.78z"/>
    <path class="fil43" d="M1379.61 2692.66c2.58,15 -24.12,31.77 -19.81,3.53 7.75,-48.55 17.22,-16.77 19.81,-3.53zm21.53 -198.59l-0.86 7.06 29.29 18.54 -11.2 34.42 -11.2 34.42c-28.42,1.77 -29.29,-8.83 -42.21,-26.48l-36.17 6.18c-49.1,-9.71 -3.45,-9.71 -47.38,-1.76l-33.6 7.94 19.82 0c3.44,3.53 7.75,7.06 10.33,9.71 3.45,1.76 6.89,5.29 11.2,7.94l28.43 13.24c21.53,9.71 5.17,-4.41 43.07,16.77l-31.01 54.72c-63.75,98.85 -43.93,35.3 -87.87,97.08 -10.33,13.24 -17.22,26.48 -26.7,41.49l-11.2 45.01c55.13,-33.54 43.07,-26.48 68.91,-88.26 17.23,13.24 7.76,1.76 20.68,28.24l-15.51 35.31 37.04 -12.36 27.57 -37.07 -50.82 157.98 70.63 2.65c20.67,-50.31 24.12,-144.74 65.47,-180.05 19.81,-24.71 0.86,-2.64 15.5,-29.12 14.64,-27.36 -2.58,-11.48 16.37,-28.24 -38.77,-33.54 -14.65,2.64 -29.29,-47.66 -8.61,-30.01 48.24,-195.06 57.71,-225.06 -66.32,15.88 -46.51,15.88 -87,57.36z"/>
    <path class="fil44" d="M884.31 2371.39c-14.65,45.02 -18.09,32.66 -20.68,75.02 32.74,75.91 -0.86,6.18 37.9,22.95 37.04,15 -31.87,15 49.96,21.18 34.46,-14.12 11.2,7.95 37.91,-22.06 16.36,-67.96 -2.59,-17.65 28.42,-37.95l20.68 -11.48 23.25 -48.54c0.86,-1.76 4.31,-2.65 5.17,-7.06 0.86,-4.41 4.31,-4.41 6.03,-7.06 7.75,-37.07 0,-15 39.63,-40.6 13.78,-8.83 18.08,-11.47 29.28,-19.42 -76.66,-1.76 -137.82,0.89 -214.48,38.84 -48.24,23.83 -21.54,1.76 -43.07,36.18z"/>
    <path class="fil45" d="M816.26 1960.11l32.73 -2.65c12.92,-28.24 24.12,-33.54 42.21,-51.19 -43.07,-7.94 -5.17,21.18 -18.09,-15.01 -15.51,-42.36 3.44,-14.12 5.17,-15.88 24.98,-24.71 30.14,0 62.02,-37.07l-36.18 -2.65c-16.37,23.83 -14.65,9.71 -21.54,-17.65l-18.95 -28.24c-0.86,-4.42 -3.44,-5.3 -6.03,-7.95 -68.91,2.65 -68.91,4.42 -118.01,37.95 -175.72,119.15 39.63,97.97 76.67,140.34z"/>
    <path class="fil46" d="M672.4 2486.13c26.71,-34.42 30.15,-43.25 67.19,-54.72 -8.61,8.83 -20.67,22.06 -27.56,29.12 -26.71,22.95 -2.59,6.18 -39.63,25.6zm-79.25 58.25c43.94,-4.41 38.77,-11.47 73.22,-30.89 -45.65,27.36 -28.42,8.83 -50.82,61.78 24.98,-3.53 42.21,-7.06 62.88,-18.53 37.9,-19.42 35.32,-28.25 44.8,-47.66 6.02,-17.65 -19.82,3.53 14.64,-32.66 18.09,-20.3 6.89,-7.06 31.87,-19.42 49.1,-26.47 30.15,-6.17 47.38,-70.6l-35.32 22.94c-9.48,-17.65 -26.7,-7.94 18.95,-35.3 -90.45,6.18 -70.63,10.59 -68.05,-26.48 -37.04,25.6 -17.23,20.3 -61.16,29.13l26.7 56.48c-35.31,14.13 -97.33,64.43 -105.09,111.21z"/>
    <path class="fil47" d="M1395.11 2141.04c62.02,-18.54 30.15,-10.59 64.61,-45.9 5.17,-4.41 10.33,-20.3 32.73,-20.3 80.11,-1.76 12.06,-12.35 40.49,22.95 15.5,-15 12.06,-11.47 33.59,-22.95 74.94,-39.71 131.79,-149.15 132.65,-179.16 1.73,-63.55 -3.44,-20.3 -18.08,-34.42 -25.85,31.77 -31.88,59.13 -56.86,82.96 -32.73,31.77 -96.47,60.02 -125.76,76.79 -49.96,28.24 -9.48,-4.42 -35.32,39.71l-46.51 55.6c-13.78,14.13 -10.34,10.6 -21.54,24.72z"/>
    <path class="fil48" d="M821.42 2670.59c-11.19,30.01 20.68,26.48 -48.23,34.42 17.22,-13.24 24.98,-21.18 48.23,-34.42zm-84.41 1.77c-23.26,39.71 -29.29,77.66 -55.13,113.85 -37.9,52.07 -50.82,73.26 -105.09,85.61l-10.34 35.31c-11.2,69.72 -2.58,15 12.92,37.06 53.41,-2.64 99.06,1.77 126.63,-19.41l-63.75 -13.24c7.76,-17.65 17.23,-45.9 27.57,-60.9 16.37,-21.18 98.2,-125.33 127.48,-128.86 18.09,-35.3 0,-7.06 24.99,-35.3 12.05,-13.24 1.72,0.88 18.95,-16.77l-19.82 0.88 -10.33 -16.77c-21.54,-24.71 8.61,-13.24 -29.29,0.88 -21.53,7.95 -8.61,7.07 -44.79,17.66z"/>
    <path class="fil49" d="M1193.55 2289.31c-57.72,21.18 -10.34,53.84 -120.6,67.08 -1.72,2.65 -5.17,2.65 -6.03,7.06 -0.86,4.41 -4.31,5.3 -5.17,7.06l-23.25 48.54 18.08 6.18c-48.23,43.25 -17.22,32.66 -38.76,5.3 -31.01,20.3 -12.06,-30.01 -28.42,37.95 44.79,10.59 49.96,24.71 83.55,15.88 -8.61,-46.77 11.2,-38.83 39.63,-75.9 60.29,-14.12 5.16,-5.29 28.42,15.01 16.37,-37.96 11.2,-30.89 48.24,-55.61 18.09,-12.35 28.43,-21.18 43.93,-16.77 15.51,-4.41 16.37,1.77 27.57,-7.94l15.5 -78.55 -24.98 15.89c-2.58,1.76 -5.17,4.41 -7.75,6.17 -26.71,17.66 8.61,0 -31.01,20.3l-18.95 -17.65z"/>
    <path class="fil50" d="M593.15 2544.38c7.76,-46.78 69.78,-97.08 105.09,-111.21l-26.7 -56.48c43.93,-8.83 24.12,-3.53 61.16,-29.13l-24.12 -43.24c-108.53,-7.06 -42.21,75.9 -108.53,121.79 -36.18,25.6 -57.72,14.13 -63.75,56.49 -6.89,51.19 23.26,50.31 56.85,61.78z"/>
    <path class="fil51" d="M1404.59 2320.2l22.39 15.01 71.5 -17.65c91.31,-23.83 90.45,-107.68 104.23,-226.83 -77.53,40.6 -51.68,58.25 -89.59,121.8 -8.61,15.88 -37.9,45.01 -47.37,53.84 -42.21,40.59 -31.87,9.7 -61.16,53.83z"/>
    <path class="fil52" d="M353.69 2205.47c-13.79,62.66 6.03,3.53 -36.18,54.72 -12.92,16.77 -26.7,35.3 -37.9,50.3 31.87,-11.47 4.3,-5.29 18.95,16.77 1.72,4.42 20.67,50.31 27.56,65.32 65.47,-30.01 38.76,-10.6 62.88,-73.26 12.92,-33.54 24.12,-39.72 29.29,-78.55l-17.23 -7.06c-52.54,-22.07 0.86,-31.77 2.59,-33.54l0 -20.3c-15.51,-8.82 -17.23,-7.94 -28.43,-10.59 -26.7,15 -21.53,-25.59 -21.53,36.19z"/>
    <path class="fil53" d="M898.09 2734.14c-9.48,20.3 6.03,12.35 -28.43,37.95 -15.5,12.36 -30.15,16.77 -48.24,22.06 -10.33,36.19 32.74,9.71 -28.42,39.72l50.82 -8.83c65.47,-77.66 236.88,-121.79 279.95,-212.7 -146.43,37.95 -158.49,87.38 -225.68,121.8z"/>
    <path class="fil54" d="M476 1958.34l154.19 -7.06c47.38,-8.83 19.82,-2.65 39.63,-26.48 -48.24,-22.06 -97.34,-21.18 -150.75,-8.82l5.17 -68.85c-6.89,-8.82 -22.39,14.13 -7.75,-20.29 -16.37,-22.95 -12.06,-12.36 -15.5,-47.66 -6.03,8.82 -6.03,-9.71 -17.23,37.06 -1.73,9.71 -4.31,33.54 -5.17,45.02 -2.59,32.65 -2.59,63.54 -2.59,97.08z"/>
    <path class="fil55" d="M832.62 2886.83c-29.29,22.94 -46.51,45.01 -71.49,55.6l118.87 2.65 26.7 -87.38c4.31,-9.71 12.92,-19.42 17.23,-23.83l-19.81 103.26c18.95,10.59 3.44,8.83 17.23,-12.35l50.82 -150.04c-43.93,16.77 -15.51,10.59 -43.93,31.77 -13.79,10.59 -86.14,47.66 -95.62,80.32z"/>
    <path class="fil56" d="M815.39 2302.55c-23.25,17.65 -7.75,11.47 -50.82,15.01l4.31 10.59 114.56 0.88c26.71,-44.13 20.68,-10.59 43.94,-53.84 5.16,-9.71 8.61,-21.18 17.22,-37.07 9.48,-17.65 7.76,-9.71 16.37,-29.12 -30.15,-19.42 -39.62,-26.48 -82.69,-15.01l-12.92 16.77c-6.03,7.06 -12.93,14.12 -16.37,17.65l42.21 21.19c-18.95,47.66 -30.15,40.6 -75.81,52.95z"/>
    <path class="fil57" d="M528.55 1748.28l35.32 24.72c-17.23,43.24 -6.89,26.47 -47.38,53.84 -14.64,34.42 0.86,11.47 7.75,20.29l14.65 -1.76c37.04,-22.07 93.03,-52.96 55.13,-133.27l-12.93 -22.07c-49.96,18.54 -31.01,11.48 -52.54,58.25z"/>
    <path class="fil58" d="M1032.47 2206.35l-2.59 18.53 80.97 9.71c43.93,-36.18 2.59,-19.42 55.13,-43.25l39.63 -44.12c-155.06,15.88 -95.62,19.41 -173.14,59.13z"/>
    <path class="fil59" d="M539.75 2945.08c29.29,-30.01 6.03,42.36 26.7,-37.95l10.34 -35.31c54.27,-12.35 67.19,-33.54 105.09,-85.61 25.84,-36.19 31.87,-74.14 55.13,-113.85l-7.76 -11.48c-13.78,51.19 -46.51,94.44 -94.75,141.22 -51.68,51.19 -104.23,49.42 -94.75,142.98z"/>
    <path class="fil60" d="M186.58 2494.96c52.54,-14.13 16.36,-26.48 18.09,-94.44 -57.72,12.36 -80.11,18.53 -87.01,81.2 2.59,1.76 7.76,0 9.48,3.53 0,1.76 34.46,16.77 59.44,9.71z"/>
    <path class="fil61" d="M1395.11 2141.04l6.89 0 2.59 82.96c56.85,-48.54 40.48,-99.73 125.76,-128.86l2.59 2.65c-28.43,-35.3 39.62,-24.71 -40.49,-22.95 -22.4,0 -27.56,15.89 -32.73,20.3 -34.46,35.31 -2.59,27.36 -64.61,45.9z"/>
    <path class="fil62" d="M974.75 2847.99c-28.42,30.01 -32.73,44.13 -32.73,94.44l68.05 4.41c16.37,-11.47 9.47,-4.41 28.43,-22.06 -27.57,-26.48 -13.79,-5.3 -29.29,-46.78 -23.26,-60.02 12.06,-29.13 -17.23,-25.59 -39.62,4.41 36.18,28.24 -17.23,-4.42z"/>
    <path class="fil63" d="M173.66 2544.38l-18.96 16.77c80.98,16.77 104.23,11.47 134.38,73.26l13.78 4.41c-10.33,-112.97 -33.59,-33.54 -55.99,-130.63l-73.21 36.19z"/>
    <path class="fil64" d="M246.87 2292.84l14.65 71.49c47.37,-20.3 21.53,-7.06 37.04,-37.07 -14.65,-22.06 12.92,-28.24 -18.95,-16.77 11.2,-15 24.98,-33.53 37.9,-50.3 42.21,-51.19 22.39,7.94 36.18,-54.72 -25.84,0 -15.51,5.29 -17.23,-27.36l-14.64 18.53c-36.18,54.72 -28.43,69.73 -74.95,96.2z"/>
    <path class="fil65" d="M942.88 1418.2c-25.84,12.35 -21.53,-15.01 -21.53,12.35 -34.46,0 -27.57,-7.94 -18.95,24.71 -0.87,2.65 -3.45,5.3 -4.31,6.18 -1.72,0.89 -6.89,3.53 -8.62,4.42 -13.78,6.17 0.87,2.64 -31.87,6.17l65.47 18.54c0.86,-1.77 4.31,0.88 6.03,2.65 54.27,-8.83 71.49,-33.54 84.41,-84.73 -54.26,10.59 -10.33,-10.59 -54.26,35.3 -43.93,8.83 -1.73,5.3 -16.37,-25.59z"/>
    <path class="fil66" d="M29.8 2372.28l60.3 -37.07c17.23,-7.06 44.79,-15.01 63.74,-20.3l7.76 -52.96 -29.29 -11.47c-13.78,20.3 -7.75,23.83 -39.63,37.95 -22.39,9.71 -14.64,3.53 -31.01,7.94l-31.87 75.91z"/>
    <path class="fil67" d="M1551.03 2649.41c43.06,-24.71 61.15,-84.73 79.24,-131.51 18.95,-51.19 41.35,-100.61 51.69,-152.68 -35.32,37.95 -104.23,215.35 -130.93,284.19z"/>
    <path class="fil68" d="M1944.68 1231.09c22.4,-52.08 3.45,-41.48 52.55,-53.84 -9.48,18.53 -7.76,19.42 -18.95,30.89 -19.82,20.3 -9.48,10.59 -33.6,22.95zm-18.95 -27.36l-12.92 52.95c70.64,-15 95.62,-19.42 98.2,-94.44l-43.93 -16.76 -41.35 58.25z"/>
    <path class="fil69" d="M841.24 2669.71c-17.23,17.65 -6.9,3.53 -18.95,16.77 -24.99,28.24 -6.9,0 -24.99,35.3 30.15,-9.71 11.2,-0.88 33.6,-12.35 23.26,-12.36 -0.86,0.88 24.12,-15.01 25.84,-18.53 18.09,-15.89 49.1,-30.89 41.34,-80.31 43.07,-52.95 101.64,-154.45 -32.73,19.41 -22.39,21.18 -40.48,42.36 -59.44,68.84 -68.05,104.15 -124.04,118.27z"/>
    <path class="fil70" d="M923.93 1266.39c16.37,6.18 43.07,7.94 45.65,37.95 5.17,61.78 1.73,4.41 -10.33,25.6 -49.96,-26.48 -24.98,14.12 -35.32,-63.55zm49.1 84.73c0,0 30.15,-22.95 11.2,-68.84 -11.2,-28.25 -30.15,-30.89 -62.88,-30.89 -22.4,49.42 -10.34,97.96 51.68,99.73z"/>
    <path class="fil71" d="M1328.79 2568.21l36.17 -6.18c12.92,17.65 13.79,28.25 42.21,26.48l11.2 -34.42c-10.34,-5.3 -26.7,-14.12 -36.18,-20.3l18.09 -32.66 0.86 -7.06c-34.45,-37.07 3.45,33.54 -68.05,45.02l-4.3 29.12z"/>
    <path class="fil72" d="M642.25 1645.02l13.79 4.41 -8.62 35.31 80.11 -67.96c-18.09,-45.9 3.45,15 -21.53,-31.77 -45.66,24.71 -49.96,9.7 -63.75,60.01z"/>
    <path class="fil73" d="M1215.08 2815.34l-15.5 4.41 -18.09 52.95 35.31 20.3c17.23,-30 49.96,-69.72 76.67,-92.67 -12.92,-26.48 -3.45,-15 -20.68,-28.24 -25.84,61.78 -13.78,54.72 -68.91,88.26l11.2 -45.01z"/>
    <path class="fil74" d="M1425.26 315.84l-3.44 97.97c19.81,-25.6 10.33,-13.24 17.22,-58.25l17.23 9.71 14.65 -92.68c-30.15,7.95 -18.96,14.13 -45.66,43.25z"/>
    <path class="fil75" d="M1222.83 1488.8c2.59,2.65 6.03,6.18 8.62,7.95l31.01 22.06 47.37 -30.89c0,-25.59 25.85,-39.72 -43.93,-43.25l3.45 38.84 -46.52 5.29z"/>
    <path class="fil76" d="M1136.69 1170.19c33.6,-16.77 37.04,-13.24 31.88,-62.67 -22.4,-3.53 -37.91,-5.29 -49.96,14.13 -17.23,29.12 7.75,37.95 18.08,48.54z"/>
    <path class="fil77" d="M2133.33 1398.78c-23.26,37.95 0.86,-0.88 -24.98,27.36 -30.15,32.66 -3.45,-16.77 -25.84,37.95 38.76,-17.65 33.59,-20.3 63.74,-37.07 42.21,-22.95 37.9,-5.29 57.71,-45.89 -37.9,8.82 -35.32,14.12 -70.63,17.65z"/>
    <path class="fil78" d="M1589.79 1911.56c43.93,-7.06 40.48,-24.71 55.99,-67.07l-39.63 0.88c-15.5,44.13 -3.44,23.83 -29.28,53.84l12.92 12.35z"/>
    <path class="fil79" d="M903.26 2041.3l149.88 14.13c-24.12,-28.25 -22.4,-18.54 -78.39,-23.83 -3.44,-0.89 -28.42,-5.3 -31.01,-5.3 -46.51,1.77 -12.06,-6.18 -40.48,15z"/>
    <path class="fil80" d="M1917.98 1757.99c40.48,-19.41 41.35,-32.65 54.27,-78.55 -38.77,21.18 -23.26,34.42 -74.08,44.13l19.81 34.42z"/>
    <path class="fil81" d="M1404.59 1449.97c-4.31,52.07 -13.78,45.89 10.33,81.2 23.26,-34.42 14.65,-43.25 12.06,-91.79 -24.98,7.94 -12.92,-5.3 -22.39,10.59z"/>
    <path class="fil82" d="M1925.73 1203.73l41.35 -58.25c-18.95,-3.53 -25.84,-13.24 -45.66,9.7 -33.59,39.72 3.45,47.66 4.31,48.55z"/>
    <polygon class="fil83" points="1339.12,1955.69 1362.38,2003.35 1402.87,2003.35 1421.82,2003.35 1414.92,1986.58 1367.55,1982.17 1354.63,1930.98 "/>
    <path class="fil84" d="M752.51 2601.75l-5.17 33.54c9.48,-1.77 62.89,-60.9 80.98,-74.14 -52.55,-0.88 -56.86,22.95 -75.81,40.6z"/>
    <path class="fil85" d="M1414.92 1986.58l6.9 16.77 10.33 53.84c0.86,-0.88 12.06,-31.77 14.65,-37.95 18.09,-38.83 3.44,17.65 22.39,-53.84 -48.24,40.6 5.17,19.42 -54.27,21.18z"/>
    <path class="fil86" d="M1563.08 809.21c7.76,-45.9 13.79,-58.25 -20.67,-72.37 4.31,42.36 -2.58,57.36 20.67,72.37z"/>
    <path class="fil87" d="M1944.68 1231.09c24.12,-12.36 13.78,-2.65 33.6,-22.95 11.19,-11.47 9.47,-12.36 18.95,-30.89 -49.1,12.36 -30.15,1.76 -52.55,53.84z"/>
    <path class="fil88" d="M48.75 2240.77c-29.28,10.59 -2.58,6.18 -21.53,34.42 31.01,-13.24 10.34,7.06 36.18,-15.89 25.84,-22.94 10.33,-5.29 18.09,-35.3 -19.82,20.3 -11.2,12.36 -32.74,16.77z"/>
    <path class="fil89" d="M920.48 2563.8c30.15,-12.36 16.37,5.29 36.18,-24.71 26.71,-41.49 11.2,-22.07 -5.17,-28.25 -9.47,28.25 -11.19,10.59 -31.01,52.96z"/>
    <path class="fil90" d="M1126.36 1711.22c43.93,-6.18 18.95,10.59 45.65,-24.72 -36.18,-14.12 -34.45,-17.65 -45.65,24.72z"/>
    <path class="fil91" d="M1851.65 1901.86l-5.17 -41.49c-6.89,6.18 -8.61,-2.64 -18.09,19.42 -12.06,30.01 -3.44,7.06 -5.16,30.89l28.42 -8.82z"/>
    <path class="fil92" d="M794.72 1456.15c22.4,23.83 -0.86,30.89 46.52,45.89 -12.06,-43.24 -13.79,-32.65 -46.52,-45.89z"/>
    <path class="fil93" d="M817.98 1416.43c-0.86,-0.88 23.26,-14.12 -26.7,-19.42 -42.21,-5.29 0.86,-7.06 -26.71,14.13l53.41 5.29z"/>
    <path class="fil94" d="M946.33 1798.59c9.47,22.95 -7.76,4.42 13.78,23.83 16.37,15.01 6.89,5.3 30.15,11.48 -28.43,-47.66 -9.48,-26.48 -43.93,-35.31z"/>
    <path class="fil95" d="M1325.34 1594.71c3.45,66.2 -0.86,19.42 18.95,37.07 13.78,-42.36 12.92,-21.18 -18.95,-37.07z"/>
    <path class="fil96" d="M821.42 2670.59c-23.25,13.24 -31.01,21.18 -48.23,34.42 68.91,-7.94 37.04,-4.41 48.23,-34.42z"/>
    <path class="fil97" d="M952.36 2612.34c52.54,63.55 -39.63,8.83 14.64,8.83 0.86,0 22.4,-4.42 23.26,-4.42 52.54,-31.77 21.53,0 26.7,-38.83 -35.32,31.77 -20.67,27.36 -64.6,34.42z"/>
    <path class="fil98" d="M959.25 1690.92c-31.87,-16.77 -7.76,-9.71 -47.38,-4.42l87.86 25.6 -40.48 -21.18z"/>
    <path class="fil99" d="M1017.82 2430.53c21.54,27.36 -9.47,37.95 38.76,-5.3l-18.08 -6.18 -20.68 11.48z"/>
    <path class="fil100" d="M1359.8 2696.19c-4.31,28.24 22.39,11.47 19.81,-3.53 -2.59,-13.24 -12.06,-45.02 -19.81,3.53z"/>
    <path class="fil101" d="M811.09 2653.82l10.33 16.77 19.82 -0.88 3.44 -22.07c-21.53,0.89 -8.61,-6.17 -33.59,6.18z"/>
    <path class="fil102" d="M1464.89 1533.82l12.92 0c15.5,-31.78 19.81,0 -5.17,-42.37l-7.75 42.37z"/>
    <path class="fil103" d="M1058.31 2731.49l5.17 -25.59 -24.98 15.88c10.33,13.24 -21.54,14.12 19.81,9.71z"/>
    <path class="fil104" d="M1725.03 1878.03c64.6,-38.84 -18.09,48.54 21.53,-13.24 1.72,-1.77 5.17,-7.95 6.89,-10.59 0.86,-1.77 2.59,-7.95 4.31,-11.48l-32.73 35.31z"/>
   </g>
  </g>
 </g>
</svg>
