<?xml version="1.0" encoding="UTF-8"?>
<!DOCTYPE svg PUBLIC "-//W3C//DTD SVG 1.1//EN" "http://www.w3.org/Graphics/SVG/1.1/DTD/svg11.dtd">
<!-- Creator: CorelDRAW 2017 -->
<svg xmlns="http://www.w3.org/2000/svg" xml:space="preserve" width="31.0726mm" height="31.8346mm" version="1.1" style="shape-rendering:geometricPrecision; text-rendering:geometricPrecision; image-rendering:optimizeQuality; fill-rule:evenodd; clip-rule:evenodd"
viewBox="0 0 3107.26 3183.46"
 xmlns:xlink="http://www.w3.org/1999/xlink">
 <defs>
  <style type="text/css">
   <![CDATA[
    .fil76 {fill:#232424}
    .fil78 {fill:#262829}
    .fil45 {fill:#26352C}
    .fil34 {fill:#293B35}
    .fil37 {fill:#2C2D32}
    .fil60 {fill:#2C936B}
    .fil30 {fill:#34453B}
    .fil64 {fill:#353030}
    .fil40 {fill:#359972}
    .fil73 {fill:#378666}
    .fil22 {fill:#394A45}
    .fil58 {fill:#395648}
    .fil28 {fill:#3B3B3C}
    .fil42 {fill:#3B9B75}
    .fil48 {fill:#439473}
    .fil26 {fill:#439E7A}
    .fil29 {fill:#443D43}
    .fil35 {fill:#447C63}
    .fil63 {fill:#44A27B}
    .fil41 {fill:#457763}
    .fil24 {fill:#458469}
    .fil36 {fill:#45926E}
    .fil49 {fill:#476658}
    .fil81 {fill:#4A4D52}
    .fil47 {fill:#4A9977}
    .fil38 {fill:#4B6B5C}
    .fil32 {fill:#4C7563}
    .fil86 {fill:#4E3630}
    .fil33 {fill:#527C6A}
    .fil20 {fill:#52A57E}
    .fil8 {fill:#535354}
    .fil9 {fill:#555050}
    .fil59 {fill:#564948}
    .fil67 {fill:#636363}
    .fil61 {fill:#64756C}
    .fil85 {fill:#65453A}
    .fil5 {fill:#666769}
    .fil50 {fill:#66A78A}
    .fil55 {fill:#68B695}
    .fil54 {fill:#6B6B6C}
    .fil79 {fill:#6B6D72}
    .fil83 {fill:#6D554E}
    .fil6 {fill:#73635B}
    .fil82 {fill:#779788}
    .fil72 {fill:#88898A}
    .fil84 {fill:#8C726C}
    .fil2 {fill:#91CAB0}
    .fil75 {fill:#92837B}
    .fil62 {fill:#979899}
    .fil7 {fill:#AE857A}
    .fil1 {fill:#B1D4C9}
    .fil80 {fill:#B7AAA7}
    .fil77 {fill:#C7AAA5}
    .fil43 {fill:#C9998A}
    .fil3 {fill:#C9A599}
    .fil0 {fill:#C9B3AA}
    .fil14 {fill:#CCCCD2}
    .fil17 {fill:#CCD4D4}
    .fil69 {fill:#D1E6D8}
    .fil15 {fill:#D7A799}
    .fil12 {fill:#D7ACA3}
    .fil4 {fill:#D7D7D9}
    .fil53 {fill:#D8CAC7}
    .fil19 {fill:#D9B5A9}
    .fil74 {fill:#DAC3B9}
    .fil46 {fill:#DADCE3}
    .fil44 {fill:#DCE3ED}
    .fil68 {fill:#E2E4EB}
    .fil31 {fill:#E2E7F2}
    .fil11 {fill:#E3E3E3}
    .fil57 {fill:#E4ADA4}
    .fil70 {fill:#E7B7AA}
    .fil10 {fill:#E7BCB5}
    .fil88 {fill:#E7DDE3}
    .fil23 {fill:#E8D4CB}
    .fil13 {fill:#E9C5B9}
    .fil65 {fill:#E9CAC5}
    .fil18 {fill:#EAEEF3}
    .fil87 {fill:#EAF8F8}
    .fil56 {fill:#EDF2F5}
    .fil21 {fill:#F1F6F9}
    .fil66 {fill:#F2F3F4}
    .fil71 {fill:#F4CAC4}
    .fil16 {fill:#F5C5B9}
    .fil52 {fill:#F6F6F6}
    .fil51 {fill:#F8FDFA}
    .fil39 {fill:#FAFAFE}
    .fil25 {fill:#FAFEFD}
    .fil27 {fill:#FDFDFD}
   ]]>
  </style>
 </defs>
 <g id="Capa_x0020_1">
  <metadata id="CorelCorpID_0Corel-Layer"/>
  <g id="_1368062782304">
   <g>
    <path class="fil0" d="M1188.13 1004.67c53.16,-23.48 55,-11.27 44,-65.74l-89.84 12.21c31.17,57.29 2.75,-2.82 53.17,25.36 -23.83,8.45 -1.83,-1.88 -7.33,28.17z"/>
    <path class="fil0" d="M1102.88 423.3c-33,-17.84 -42.17,-29.11 -60.5,-47.9l-1.84 76.08 66.92 5.63 -4.58 -33.81z"/>
   </g>
   <g>
    <path class="fil1" d="M1413.62 1497.76c24.75,46.96 11,63.87 55.92,84.53l-1.83 -105.19 -54.09 20.66z"/>
    <path class="fil1" d="M2161.62 3042.77l5.5 -23.48 -27.5 8.45 -29.34 40.38c-1.83,2.82 -5.5,6.58 -7.33,8.46 -0.92,1.88 -4.58,4.69 -6.42,7.51 22.92,31.93 11,30.06 54.09,39.45l-28.42 -51.66 39.42 -29.11z"/>
   </g>
   <g>
    <path class="fil2" d="M2124.95 2884.98l-66.92 34.75c23.84,9.39 45.84,19.72 73.34,15.03 39.41,-7.52 23.83,-15.03 56.83,-28.18l15.58 -47.9 -78.83 26.3z"/>
    <path class="fil2" d="M768.3 2688.68c-6.42,29.12 37.58,31.94 71.5,40.39l-19.25 -31c0,-0.93 0,-4.69 0,-4.69 0,-0.94 0,-4.7 0,-4.7 0,-0.94 0.91,-3.75 0.91,-4.69l0.92 -8.46c-74.25,-29.11 -46.75,-22.54 -54.08,13.15z"/>
   </g>
   <g>
    <path class="fil3" d="M1271.54 557.61c17.42,54.47 -1.83,50.72 29.33,90.16l1.84 -32.87 73.33 33.81 -24.75 -70.44c-20.17,-46.96 -36.67,-66.68 -78.83,-81.71l-3.67 25.36 2.75 35.69z"/>
    <path class="fil3" d="M1409.96 670.31c24.75,-1.87 36.66,5.64 52.25,-15.96 0.91,-1.88 1.83,-6.58 2.75,-8.46l-8.25 -28.17c-31.17,15.03 -29.34,6.57 -46.75,52.59z"/>
   </g>
   <g>
    <path class="fil4" d="M1199.13 761.42l20.16 74.2 49.5 -2.82c21.08,7.51 9.17,-23.48 16.5,15.03 34.83,-10.34 3.67,1.87 29.33,-11.28 2.75,-0.93 25.67,-15.02 28.42,-16.9 -4.58,-16.91 -5.5,-23.48 -10.08,-38.51 -0.92,-3.76 -4.59,-15.97 -5.5,-20.66 -11,-27.24 -8.25,-17.85 -15.59,-29.12 -10.08,32.88 -8.25,23.48 -16.5,36.63 -8.25,-31.93 -37.58,0.94 -44.91,2.82 -30.25,6.57 -11,11.27 -51.33,-9.39z"/>
    <path class="fil4" d="M1040.54 571.7c0.92,-1.88 38.5,-21.61 -21.08,-26.3 -5.5,36.63 -13.75,28.17 21.08,26.3z"/>
   </g>
   <g>
    <path class="fil5" d="M486.88 3166.74c55.92,24.42 205.33,23.48 258.5,5.64 -22,-38.51 -42.17,3.75 -98.08,-26.3 44.91,6.57 92.58,25.36 122.83,-10.33l-186.08 -0.94 -68.75 1.88c4.58,1.88 9.17,2.82 12.83,3.75l38.5 9.4c40.33,12.21 10.09,-0.94 37.58,18.78 -64.16,-9.39 -54.08,-11.27 -117.33,-1.88z"/>
    <path class="fil5" d="M54.22 1114.56c20.17,-17.84 3.67,-2.82 19.25,-26.3 -65.08,2.82 -33,-24.42 -50.42,47.9 26.59,-19.72 12.84,-5.63 31.17,-21.6z"/>
   </g>
   <g>
    <path class="fil6" d="M837.96 232.64l-53.16 -5.63 -22.92 17.84c9.17,7.51 45.83,-6.57 -9.17,30.99l-144.83 67.63 0.92 30.05c-7.34,18.79 -21.09,21.6 -22,22.54l93.5 -56.35c71.5,-21.6 108.16,-57.29 162.25,-76.08l63.25 -23.48 -10.09 -24.42c-35.75,11.28 -8.25,5.64 -33.91,15.97 -22,8.45 -11.92,6.58 -23.84,0.94z"/>
    <path class="fil6" d="M617.96 865.67l5.5 11.27 33.92 -10.33c57.75,-9.39 10.08,38.51 77.92,66.68 -10.09,-30.99 -7.34,-27.23 -18.34,-49.77l-61.41 -32.88 -22.92 -27.23c-1.83,-3.76 -6.42,-15.97 -8.25,-18.79 -22,-38.51 -1.83,-11.27 -24.75,-28.18l18.33 89.23z"/>
   </g>
   <g>
    <path class="fil7" d="M497.88 393.25l2.75 33.81c-81.58,9.39 -16.5,2.82 -67.83,44.14 -15.58,12.21 -62.33,30.06 -81.58,35.69 13.75,15.03 27.5,32.87 49.5,31.93 62.33,-2.81 -14.67,-47.9 102.66,-57.29l17.42 -56.35c6.42,0 10.08,-3.76 11,-0.94 0.92,1.88 5.5,-1.88 6.42,-1.88 51.33,-9.39 35.75,8.45 48.58,-26.3 0.91,-0.94 14.66,-3.75 22,-22.54l-0.92 -30.05 -110 49.78z"/>
    <path class="fil7" d="M1074.46 776.44c-13.75,63.87 0,42.27 2.75,86.41 -2.75,1.88 -5.5,4.7 -6.42,9.39 -0.91,5.64 -11,14.09 -14.66,15.97 36.66,20.66 21.08,15.97 68.75,17.85 29.33,-34.75 -36.67,-26.3 32.08,-29.12l-29.33 -42.26c-22,-21.61 -13.75,-29.12 -15.59,-101.44l-37.58 43.2z"/>
   </g>
   <g>
    <path class="fil8" d="M1300.87 647.77l6.42 23.48 4.58 60.11c7.34,11.27 4.59,1.88 15.59,29.12 0.91,4.69 4.58,16.9 5.5,20.66 4.58,15.03 5.5,21.6 10.08,38.51 1.83,7.51 11,40.38 11.92,41.32 10.08,15.03 6.41,10.34 12.83,15.97 18.33,15.97 0,-1.88 28.42,13.15 -17.42,-95.8 -0.92,-125.85 7.33,-209.44l-25.67 -8.46c3.67,-12.21 14.67,-32.87 16.5,-37.57l9.17 -38.5c-3.67,-0.94 -7.33,-2.82 -10.08,-3.76l-42.17 -14.09 24.75 70.44 -73.33 -33.81 -1.84 32.87z"/>
    <path class="fil8" d="M1565.79 297.45c-7.33,15.96 -3.67,28.17 9.17,64.8 3.66,11.27 13.74,22.54 14.66,37.57 2.75,48.84 13.75,15.97 -18.33,42.27 25.66,38.5 40.33,5.63 74.25,41.32 -12.84,-85.47 -24.75,-144.64 -56.84,-211.32 6.42,40.38 15.59,34.75 -22.91,25.36z"/>
   </g>
   <g>
    <path class="fil9" d="M1071.71 669.37c-3.67,-1.87 -13.75,-8.45 -18.33,-16.9 -5.5,-13.15 -6.42,-3.76 -11,-36.63l-81.59 16.91c2.75,-2.82 10.09,-11.28 11,-13.15l68.75 -47.9c-34.83,1.87 -26.58,10.33 -21.08,-26.3 -75.17,12.21 -18.33,22.54 -64.17,22.54l-18.33 -57.29c-16.5,-14.09 -10.08,-8.46 -27.5,-14.09l9.17 6.57c12.83,69.51 -7.34,34.75 -18.33,48.84l-13.75 -23.48 13.75 82.65c-26.59,-12.21 -11.92,0 -36.67,-20.66 -39.42,-32.87 -8.25,-3.76 -17.42,-26.3 -22.91,-13.15 -18.33,2.82 -39.41,-34.75 -1.84,-3.76 -10.09,-56.35 -56.84,-70.44 -73.33,-22.54 -57.75,13.15 -59.58,15.03 132.92,30.05 57.75,18.78 131.08,93.92 20.17,20.66 15.59,13.15 33,38.51 -103.58,-2.82 -71.5,-65.75 -132.91,-35.69l70.58 42.26c27.5,15.03 66.92,20.66 98.08,28.18 44,10.33 47.67,15.03 90.75,12.21l46.75 1.88c38.5,11.27 -9.17,10.33 44,14.08z"/>
    <path class="fil9" d="M408.05 618.66c-10.08,35.69 -33.92,63.86 -69.67,86.4 67.84,-10.33 95.34,-40.38 114.59,-94.86 -32.09,-0.94 -21.09,-2.81 -44.92,8.46z"/>
   </g>
   <g>
    <path class="fil10" d="M1309.12 477.78l15.59 0.93 40.33 -18.78 50.42 39.45c3.66,2.81 8.25,5.63 12.83,7.51l-1.83 -113.64c-33.92,-22.55 -17.42,-16.91 -35.75,-37.57 -40.34,-44.15 4.58,-16.91 -50.42,-28.18 -49.5,-10.33 -82.5,-15.03 -132.91,-28.18 8.25,61.05 33.91,108.95 50.41,163.43 30.25,-42.27 28.42,-80.77 78.83,-104.25l-42.16 82.65 14.66 36.63z"/>
    <path class="fil10" d="M1121.21 1268.59c9.17,-49.78 11.92,-24.42 -9.17,-50.71 3.67,-53.54 1.84,-87.35 22.92,-127.74 19.25,-37.57 39.42,-46.02 53.17,-85.47 -97.17,10.34 -186.09,114.59 -163.17,242.32 50.42,29.12 29.33,37.57 96.25,21.6z"/>
    <path class="fil10" d="M842.55 263.63l29.33 10.34 -26.58 30.05 63.25 0c-28.42,38.51 -24.75,25.36 -24.75,76.08l20.16 -3.76c7.33,-1.88 6.42,-6.57 32.08,-22.54 14.67,28.18 -4.58,8.45 38.5,39.45l0.92 -45.09c9.17,17.85 18.33,43.21 24.75,71.38l9.17 -15.02c1.83,-1.88 4.58,-5.64 6.41,-7.52 15.59,-17.84 -2.75,-3.75 26.59,-21.6 -1.84,-2.82 -4.59,-6.57 -5.5,-8.45 -0.92,-1.88 -3.67,-6.58 -4.59,-9.39l-6.41 -41.33c0,-24.42 1.83,-46.96 4.58,-70.44 -13.75,2.82 -57.75,14.09 -71.5,14.09 -77,0 -36.67,7.51 -53.16,-19.73l-63.25 23.48z"/>
    <path class="fil10" d="M515.3 1015.01c44.92,46.96 120.08,42.26 190.66,42.26 15.59,-21.6 6.42,-9.39 23.84,-29.12 2.75,-2.81 11,-10.33 12.83,-14.08 13.75,-15.97 7.33,-7.52 19.25,-25.36l-51.33 3.75c-46.75,-30.05 9.16,-18.78 -85.25,-9.39 -40.34,4.7 -90.75,0 -110,31.94z"/>
   </g>
   <g>
    <path class="fil11" d="M510.72 529.43c-18.34,5.64 -12.84,-3.76 -35.75,15.03 -5.5,50.72 0.91,20.66 -15.59,63.87l65.09 9.39c0,0 40.33,-14.09 66.91,-7.52 55.92,14.09 22,3.76 44.92,23.48 -10.09,24.42 -22,35.69 -29.34,48.84l-14.66 34.75 -51.33 -49.77c-40.34,5.63 -10.09,-1.88 -46.75,20.66 -21.09,13.15 -28.42,14.09 -45.84,37.57l117.34 3.75c19.24,0.94 12.83,0 40.33,4.7 33.91,-3.76 35.75,-6.57 66.91,-10.33 20.17,-66.69 -0.91,-46.02 1.84,-77.96 4.58,-45.08 22.91,-24.42 28.41,-49.77 1.84,-5.64 6.42,-5.64 9.17,-8.46 -93.5,-5.63 -81.58,-10.33 -158.58,-27.23 0,-25.36 -0.92,-1.88 8.25,-21.61 14.67,-32.87 -0.92,10.34 17.41,-36.63 -29.33,12.21 -31.16,17.85 -68.74,27.24z"/>
    <path class="fil11" d="M272.38 793.35l40.34 15.03 110.91 -19.73 9.17 -63.86c-50.42,16.9 -14.67,2.82 -30.25,3.76 -70.58,6.57 -0.92,27.23 -59.58,11.27 -18.34,-4.7 -6.42,27.23 -18.34,-19.73 -0.91,-0.94 -4.58,-3.75 -4.58,-1.88 -0.92,1.88 -4.58,-0.94 -4.58,-0.94l-27.5 27.24c-12.84,34.75 3.66,24.42 -15.59,48.84z"/>
   </g>
   <g>
    <path class="fil12" d="M1071.71 669.37c80.67,0.94 23.83,0 44,15.97 -22.92,61.05 -10.08,24.42 -28.42,31.93l-13.75 15.97c-7.33,31.93 -0.91,2.82 2.75,5.64 -11,25.36 -28.41,-36.63 -1.83,37.56l37.58 -43.2c1.84,72.32 -6.41,79.83 15.59,101.44l29.33 42.26c-68.75,2.82 -2.75,-5.63 -32.08,29.12 64.16,-10.34 126.49,-19.73 160.41,-58.23 -7.33,-38.51 4.58,-7.52 -16.5,-15.03 -1.83,0.94 2.75,49.78 -60.5,11.27 -33.91,-20.66 -33,-123.98 -29.33,-165.3l84.33 -37.57c-80.66,-13.15 -139.33,-15.97 -220.91,-25.36 4.58,32.87 5.5,23.48 11,36.63 4.58,8.45 14.66,15.03 18.33,16.9z"/>
    <path class="fil12" d="M1202.79 1065.72l2.75 0.94c-2.75,41.33 5.5,62.93 5.5,90.17 -1.83,48.84 -13.75,27.23 -26.58,85.46l69.66 -3.75c39.42,-15.03 33,-22.54 14.67,-124.92 -6.42,-33.81 -10.08,-80.77 -30.25,-107.07l-35.75 59.17z"/>
    <path class="fil12" d="M1415.46 922.02c21.08,42.27 35.75,53.54 97.16,49.78l21.09 -200.99 -38.5 44.14c-8.25,19.73 -9.17,40.39 -16.5,58.23 -23.84,55.42 -18.34,24.42 -63.25,48.84z"/>
   </g>
   <g>
    <path class="fil13" d="M846.21 564.18c9.17,22.54 -22,-6.57 17.42,26.3 24.75,20.66 10.08,8.45 36.67,20.66l-13.75 -82.65 -47.67 -57.29c-17.42,-41.32 -6.42,-56.35 -1.83,-73.26 11.91,21.6 11,20.66 32.08,46.02 15.58,19.73 19.25,30.06 40.33,52.6 17.42,5.63 11,0 27.5,14.09 54.08,-38.51 -8.25,-31 52.25,-71.38l-14.67 -46.02c-43.08,-31 -23.83,-11.27 -38.5,-39.45 -25.66,15.97 -24.75,20.66 -32.08,22.54l-20.16 3.76c0,-50.72 -3.67,-37.57 24.75,-76.08l-63.25 0c-6.42,15.97 -5.5,33.81 -26.59,43.2l-22.91 -9.39c-0.92,0 -2.75,-3.75 -4.59,-4.69 -1.83,5.63 -4.58,9.39 -5.5,28.17l8.25 31.94c29.34,37.56 7.34,-31.94 15.59,58.23l16.5 73.26c11,30.99 -6.42,2.81 20.16,39.44z"/>
    <path class="fil13" d="M1526.37 574.51l37.59 12.21 -107.25 31 8.25 28.17c-0.92,1.88 -1.84,6.58 -2.75,8.46 -15.59,21.6 -27.5,14.09 -52.25,15.96l0 9.4c83.41,66.68 -52.25,-15.97 33.91,20.66 46.75,19.72 21.09,-6.58 76.09,32.87l24.75 16.91 11 -18.79c-12.84,-59.17 94.41,-119.28 52.24,-187.84l-32.99 -27.24c-2.75,-0.94 -11.92,-3.75 -13.75,-4.69l-14.67 -3.76c-0.92,3.76 0,9.39 0.92,12.21 0,2.82 0,8.45 0.91,11.27 0,1.88 1.84,7.51 1.84,9.39l11 9.39c29.33,15.03 6.41,-1.87 7.33,-4.69 -83.42,11.27 -20.17,-0.94 -42.17,29.11z"/>
   </g>
   <g>
    <path class="fil14" d="M1284.37 908.87c60.5,39.45 96.25,407.62 156.75,527.84 45.84,-16.9 16.5,12.21 34.84,-41.32 -27.5,-195.36 -102.67,-349.39 -133.84,-524.08 -33,26.29 -22.91,20.66 -57.75,37.56z"/>
    <path class="fil14" d="M133.05 997.16c17.42,37.57 18.34,27.24 69.67,27.24 46.75,-7.52 22.92,3.75 40.33,-34.75 -20.16,-8.46 -18.33,-5.64 -29.33,-13.15l-41.25 36.63 -39.42 -15.97z"/>
   </g>
   <g>
    <path class="fil15" d="M1409.04 982.13c1.83,86.41 1.83,191.6 90.75,181.27 1.83,-2.82 4.58,-9.39 5.5,-7.51 0.92,1.88 3.67,-6.58 4.58,-8.46 3.67,-5.63 8.25,-15.96 12.84,-26.29 7.33,-16.91 14.66,-38.51 22,-55.42 54.99,-143.7 125.58,-154.97 113.66,-331.54 -68.75,47.9 -57.75,92.98 -75.17,191.6 -21.08,121.16 -97.16,88.29 -174.16,56.35z"/>
    <path class="fil15" d="M1207.38 299.32c50.41,13.15 83.41,17.85 132.91,28.18 55,11.27 10.08,-15.97 50.42,28.18 18.33,20.66 1.83,15.02 35.75,37.57l53.16 68.56c1.84,-1.88 4.59,-11.27 4.59,-8.45 0,0 24.75,-13.15 -9.17,-47.9l-80.67 -95.8c-46.75,-20.67 -99,25.35 -55,-27.24 -15.58,-17.85 7.34,-4.7 -30.25,-22.54 -0.91,-0.94 -33.91,-10.33 -38.5,-12.21 -34.83,-10.33 -35.74,-3.76 -57.74,-23.48 -56.84,22.54 -24.75,-12.21 -22.92,36.63 0.92,2.81 15.58,33.81 17.42,38.5z"/>
    <path class="fil15" d="M837.96 232.64c11.92,5.64 1.84,7.51 23.84,-0.94 25.66,-10.33 -1.84,-4.69 33.91,-15.97l10.09 24.42c16.49,27.24 -23.84,19.73 53.16,19.73 13.75,0 57.75,-11.27 71.5,-14.09l18.33 -22.54 -12.83 -37.57c-47.67,-10.33 -74.25,-38.51 -126.5,-24.42 -50.41,14.09 -28.41,26.3 -71.5,71.38z"/>
    <path class="fil15" d="M213.72 888.21l32.08 86.41c33,-11.27 78.83,-22.54 130.17,-17.85 20.16,-19.72 14.66,0 -11,-9.39l-51.34 -53.53 -32.08 -17.85c-45.83,15.03 -31.17,16.91 -67.83,12.21z"/>
   </g>
   <g>
    <path class="fil16" d="M858.13 752.96c-36.67,2.82 -66.92,9.4 -102.67,-2.81l-16.5 -9.4c-33.91,-18.78 1.84,-15.96 -17.41,-8.45l-53.17 22.54 -13.75 6.58c48.58,4.69 22,0 50.42,13.15 -2.75,0.94 -5.5,0 -7.34,3.75 -0.91,2.82 -6.41,1.88 -8.25,2.82 -11.91,0.94 -22,0.94 -33.91,0l0 69.5 61.41 32.88c41.25,2.81 51.34,0.93 82.5,-22.55 18.34,-86.4 149.42,-37.56 220,-87.34 -11.92,-31.94 -20.17,-52.6 -49.5,-75.14 -16.5,-14.09 -2.75,-7.51 -32.08,-20.66l-21.09 68.56 -58.66 6.57z"/>
    <path class="fil16" d="M262.3 675.95l-44 3.76c16.5,38.5 33.92,69.5 11,112.7l-22.91 -23.48c-0.92,-4.69 -4.59,-5.63 -8.25,-8.45l4.58 50.72c-4.58,47.9 -3.67,34.75 11,77.01 36.66,4.7 22,2.82 67.83,-12.21l32.08 17.85 -0.91 -44.15 5.5 0c-34.84,-23.48 -28.42,-11.27 -45.84,-56.35 19.25,-24.42 2.75,-14.09 15.59,-48.84l27.5 -27.24c0,0 3.66,2.82 4.58,0.94 0,-1.87 3.67,0.94 4.58,1.88l13.75 -15.03c35.75,-22.54 59.59,-50.71 69.67,-86.4l-6.42 -25.36c-26.58,66.68 -60.5,121.16 -139.33,82.65z"/>
   </g>
   <g>
    <path class="fil17" d="M1221.13 474.96c-19.25,-29.12 -65.09,-230.11 -75.17,-285.52 -22,-76.08 -11.92,-47.9 -33.92,-71.38l-55 13.15c14.67,100.49 121.92,420.76 117.34,471.48l85.24 15.03 -38.49 -142.76z"/>
    <path class="fil17" d="M2136.87 2734.7l23.83 23.48 -72.42 26.3 -14.66 -9.39c-58.67,7.51 -111.84,29.12 -188.83,38.51 -92.59,12.21 -129.25,3.75 -220,0 -275.92,-12.21 -248.42,-50.72 -387.75,-72.32 -11.92,-0.94 -14.67,-3.76 -24.75,-0.94 -22.91,4.7 -15.58,2.82 -27.5,11.27 83.42,0.94 306.17,106.13 635.25,86.41 119.16,-6.58 119.16,-31 142.99,-35.69 88,-15.97 37.59,-0.94 54.09,15.02 29.33,-16.9 65.08,-23.48 92.58,-42.26 69.67,-44.14 -47.67,-7.51 53.17,-58.23 45.83,-15.97 85.24,-42.27 127.41,-64.81 42.17,-22.54 71.5,-62.92 106.33,-68.56l-2.75 -0.94c-44.91,20.66 -96.25,48.84 -154,73.26 -13.75,5.64 -133.83,71.38 -142.99,78.89z"/>
    <path class="fil17" d="M1001.13 76.73c23.83,47.9 81.58,24.42 132,19.72 -37.59,-30.05 54.08,-20.66 -102.67,-7.51l-29.33 -12.21z"/>
   </g>
   <g>
    <path class="fil18" d="M584.05 3134.81l186.08 0.94c42.17,-5.64 11.92,8.45 35.75,-15.03 -37.58,-31.93 -61.42,-120.22 -84.33,-177.51 -18.34,-42.27 0,-21.6 -33,-48.84 -88,29.12 41.25,91.1 -207.17,147.46 -33.91,7.51 -18.33,7.51 -46.75,17.84 -55.91,20.66 -74.25,6.58 -80.66,16.91l-2.75 8.45c0,0.94 -1.84,3.76 -2.75,4.7 -29.34,56.35 49.5,2.81 146.66,18.78 11,1.88 4.59,0.94 16.5,1.88 2.75,0 39.42,-9.39 72.42,24.42z"/>
    <path class="fil18" d="M2767.53 2614.48l2.75 9.4 23.83 64.8c34.83,-15.96 26.58,-6.57 42.17,-42.26l22 25.36c1.83,1.88 6.41,5.63 8.25,7.51 1.83,1.88 5.5,5.64 8.25,8.45 153.08,-57.29 131.99,96.74 164.99,125.86 12.84,-109.89 1.84,-89.23 5.5,-148.4 -1.83,-2.82 -5.5,-6.57 -7.33,-8.45 -23.83,-30.99 -28.42,-34.75 -30.25,-79.83l-22 18.78c-35.75,11.27 10.08,-42.26 -30.25,9.39 -4.58,4.7 -11,18.79 -13.75,22.54 -53.16,5.64 -115.5,-5.63 -174.16,-13.15z"/>
   </g>
   <g>
    <path class="fil19" d="M586.8 396.06c-12.83,34.75 2.75,16.91 -48.58,26.3 -0.92,0 -5.5,3.76 -6.42,1.88 -0.92,-2.82 -4.58,0.94 -11,0.94l-17.42 56.35c-117.33,9.39 -40.33,54.48 -102.66,57.29 -22,0.94 -35.75,-16.9 -49.5,-31.93 19.25,-5.63 66,-23.48 81.58,-35.69 51.33,-41.32 -13.75,-34.75 67.83,-44.14l-2.75 -33.81c-73.33,44.14 -93.5,55.41 -155.83,105.19 -52.25,42.26 -55,58.23 -110.91,77.01 -28.42,10.33 -24.75,-6.57 -33,28.18 -12.84,54.47 -27.5,166.24 4.58,207.57l-4.58 -50.72c3.66,2.82 7.33,3.76 8.25,8.45l22.91 23.48c22.92,-43.2 5.5,-74.2 -11,-112.7 24.75,-32.88 16.5,-13.15 44,-33.82 30.25,-21.6 10.08,-12.21 35.75,-33.81 -8.25,34.75 -18.33,42.27 -35.75,63.87 78.83,38.51 112.75,-15.97 139.33,-82.65l6.42 25.36c23.83,-11.27 12.83,-9.4 44.92,-8.46l6.41 -1.87c16.5,-43.21 10.09,-13.15 15.59,-63.87 12.83,-46.02 25.66,-46.02 66,-70.44 14.66,7.51 15.58,-22.54 10.08,18.78 1.83,-1.88 6.42,-7.51 7.33,-5.63l15.59 -10.33c50.41,-28.18 77.91,-51.66 131.08,-61.99 -26.59,-8.46 -91.67,-20.66 -2.75,-50.72 -50.42,-11.27 4.58,7.51 -22,-24.42l-93.5 56.35z"/>
    <path class="fil19" d="M1426.46 393.25l1.83 113.64c-4.58,-1.88 -9.17,-4.7 -12.83,-7.51l-50.42 -39.45 -40.33 18.78c38.5,73.26 74.25,62.93 110,121.16l91.66 -25.36c22,-30.05 -41.25,-17.84 42.17,-29.11 -0.92,2.82 22,19.72 -7.33,4.69l-11 -9.39c0,-1.88 -1.84,-7.51 -1.84,-9.39 -0.91,-2.82 -0.91,-8.45 -0.91,-11.27 -0.92,-2.82 -1.84,-8.45 -0.92,-12.21l14.67 3.76c1.83,0.94 11,3.75 13.75,4.69l32.99 27.24c42.17,68.56 -65.08,128.67 -52.24,187.84l47.66 -0.94c21.08,-26.29 47.67,-51.65 58.67,-92.04 18.33,-61.99 -0.92,-83.59 -9.17,-127.73 -51.33,-20.67 -111.83,-80.77 -151.25,-127.74 -55.91,-68.56 -52.25,-119.28 -162.25,-100.49 -44,52.59 8.25,6.57 55,27.24l80.67 95.8c33.92,34.75 9.17,47.9 9.17,47.9 0,-2.82 -2.75,6.57 -4.59,8.45l-53.16 -68.56z"/>
    <path class="fil19" d="M1571.29 442.09c32.08,-26.3 21.08,6.57 18.33,-42.27 -0.92,-15.03 -11,-26.3 -14.66,-37.57 -12.84,-36.63 -16.5,-48.84 -9.17,-64.8 -35.75,-31.94 -78.83,-32.88 -132.92,-41.33l25.67 30.99c2.75,2.82 12.83,13.15 19.25,20.67 33.92,41.32 82.5,92.04 93.5,134.31z"/>
   </g>
   <g>
    <path class="fil20" d="M1075.38 2131.73c76.08,-0.94 25.66,-25.36 150.33,25.36 -41.25,15.96 -42.17,10.33 -83.42,0l28.42 19.72c36.67,39.45 7.33,74.2 50.42,93.92 -1.84,-42.26 -15.59,-55.41 23.83,-55.41l-2.75 14.09c13.75,-0.94 43.08,-5.64 56.83,-3.76l44 20.66c15.58,10.33 23.83,22.54 47.67,21.61 27.5,0 5.5,4.69 27.5,-7.52l-66.92 -31.93 52.25 -30.06c59.58,46.02 166.83,34.75 231,67.63l-127.42 -26.3c-45.83,-12.21 -69.66,-23.48 -125.58,-26.3 16.5,15.03 6.42,10.33 33,24.42 0.92,0 22,7.51 25.67,8.45 -22,26.3 -21.09,15.03 -26.59,54.48l123.75 -9.39c3.67,-0.94 7.34,-1.88 10.09,-2.82 43.08,-10.33 -6.42,-18.79 56.83,-9.39 -26.58,61.04 -21.09,6.57 -45.83,55.41 37.58,-5.64 54.08,-13.15 98.99,-15.97 66.92,-4.69 77,-1.88 93.5,21.6 -99.91,-5.63 -69.66,-10.33 -167.75,32.88l174.17 -10.33c67.83,-31 77,-9.4 158.58,-23.48l-169.58 -30.06c49.5,-30.99 165.91,-6.57 167.75,-6.57 43.08,7.51 33.91,22.54 71.5,11.27l-817.66 -196.3 33 -14.09 -25.67 -15.96 -52.25 25.36c-59.58,14.08 -44.91,-39.45 -47.66,18.78z"/>
    <path class="fil20" d="M2032.37 3054.04l10.08 40.38c5.5,15.97 14.67,43.21 28.42,40.39 66,6.57 131.08,3.76 197.08,-14.09 -2.75,-1.88 -6.42,-4.7 -8.25,-5.63l-88 -68.57c-1.83,-3.75 -6.42,-1.88 -10.08,-3.75l-39.42 29.11 28.42 51.66c-43.09,-9.39 -31.17,-7.52 -54.09,-39.45 1.84,-2.82 5.5,-5.63 6.42,-7.51 1.83,-1.88 5.5,-5.64 7.33,-8.46l29.34 -40.38c-33.92,0.94 -85.25,-6.58 -98.09,-6.58 -11,13.15 -22.91,-18.78 -9.16,32.88z"/>
   </g>
   <g>
    <path class="fil21" d="M105.55 3024.92l-10.08 -10.33c-4.58,-0.94 -13.75,1.88 -15.58,-21.6 -6.42,18.78 -9.17,36.63 -12.84,50.72 -11,42.26 13.75,7.51 -10.08,28.17l16.5 62.93 441.83 1.88 68.75 -1.88c-33,-33.81 -69.67,-24.42 -72.42,-24.42 -11.91,-0.94 -5.5,0 -16.5,-1.88 -97.16,-15.97 -176,37.57 -146.66,-18.78 0.91,-0.94 2.75,-3.76 2.75,-4.7l2.75 -8.45c6.41,-10.33 24.75,3.75 80.66,-16.91 28.42,-10.33 12.84,-10.33 46.75,-17.84 248.42,-56.36 119.17,-118.34 207.17,-147.46 2.75,-43.2 -8.25,-103.31 -40.34,-133.37l0 85.47c-6.41,38.51 -32.08,69.5 -59.58,82.65 -18.33,9.39 -2.75,-1.88 -23.83,11.27 -66.92,39.45 8.25,25.36 -74.25,35.69 -44,4.7 -93.5,7.52 -144.83,5.64l-20.17 52.59c-142.08,0 -177.83,45.09 -220,-9.39z"/>
    <path class="fil21" d="M2981.11 2173.99c49.5,40.39 14.66,17.85 8.25,48.84 -9.17,42.27 -22,111.77 -3.67,166.24l34.83 60.11c-33.91,11.27 -22,-23.48 -51.33,18.79l-35.75 43.2c-2.75,1.88 -6.42,2.82 -9.17,3.76l-43.99 -7.52c7.33,66.69 -11.92,40.39 -18.34,47.9l-76.08 0c-1.83,-2.81 -4.58,-6.57 -5.5,-8.45 -1.83,-1.88 -4.58,-5.63 -6.42,-7.51l-15.58 -24.42c-0.92,-1.88 -4.58,-3.76 -5.5,-8.45 -0.92,-4.7 -2.75,-5.64 -5.5,-8.46 -19.25,29.12 7.33,8.46 -24.75,24.42l-2.75 40.39c12.83,-18.79 -2.75,-21.6 29.33,-13.15 6.42,42.26 4.59,34.75 18.34,64.8 58.66,7.52 121,18.79 174.16,13.15 2.75,-3.75 9.17,-17.84 13.75,-22.54 40.33,-51.65 -5.5,1.88 30.25,-9.39l22 -18.78c1.83,45.08 6.42,48.84 30.25,79.83 1.83,1.88 5.5,5.63 7.33,8.45 6.42,-43.2 -8.25,-37.57 21.09,-37.57l0.91 -450.82c-55,-2.82 -65.08,-17.84 -86.16,-2.82z"/>
   </g>
   <g>
    <path class="fil22" d="M2299.11 3133.87c27.5,-23.48 62.34,-40.39 99.92,-56.35l203.5 -139.95c22.91,-19.72 0.91,-15.02 48.58,-27.23l-4.58 73.26c-30.25,18.78 -16.5,5.63 -43.09,19.72 -24.74,14.09 -11.91,6.57 -29.33,20.66l-58.66 55.42c-32.09,28.17 -63.25,63.86 -123.75,55.41 33.91,-18.79 31.16,-20.66 58.66,-43.2 52.25,-42.27 152.17,-65.75 164.08,-119.28 1.84,-8.46 4.59,-10.34 6.42,-15.03 -100.83,31.93 -55.91,35.69 -162.25,102.37 -62.33,38.51 -62.33,84.53 -159.5,74.2zm314.42 -310.88l-133.83 119.28c-50.42,39.45 -148.5,73.26 -179.67,127.73 91.67,-15.96 197.08,-98.61 275,-155.91 25.66,-18.78 46.75,-44.14 77.91,-61.98 -11.91,45.08 -48.58,54.47 -85.24,76.07l-149.42 104.25c-50.42,40.39 -73.33,63.87 -150.33,88.29 -66,17.85 -131.08,20.66 -197.08,14.09 -36.67,9.39 -69.67,11.27 -96.25,31.93l633.41 -0.94 23.83 -19.72c33.92,-27.24 27.5,7.51 27.5,-16.91l15.58 -244.19c-9.16,-58.23 -6.41,-73.26 9.17,-129.61 -3.67,3.75 -8.25,6.57 -11.92,9.39 -3.66,1.88 -7.33,4.7 -11.91,8.45l-46.75 49.78z"/>
    <path class="fil22" d="M1952.62 3044.64l33.91 -25.35 56.84 -31c-41.25,-9.39 -49.5,-1.88 -78.84,-21.6l92.59 -15.03c-18.34,-20.66 23.83,-24.42 -23.84,-15.96 -3.66,0.93 -9.16,-0.94 -11,2.81 -1.83,3.76 -8.25,1.88 -11,1.88l-169.58 10.33c-22.91,4.7 -0.91,-4.69 -16.5,6.58 42.17,18.78 6.42,0.94 36.67,7.51l-115.5 20.66c94.42,21.61 96.25,-0.94 125.58,35.69l-27.5 9.4c-44.91,7.51 -18.33,-8.46 -63.25,6.57l171.42 7.51z"/>
    <path class="fil22" d="M1982.87 2917.85l17.41 -37.57c-1.83,-1.88 -5.5,-3.75 -6.41,-8.45 -1.84,-5.64 -5.5,-6.58 -7.34,-12.21l-36.66 0 -156.75 34.75 99.92 7.51 -77 35.69c71.5,0 101.74,-6.57 166.83,-19.72z"/>
   </g>
   <g>
    <path class="fil23" d="M680.3 339.71c26.58,31.93 -28.42,13.15 22,24.42 -88.92,30.06 -23.84,42.26 2.75,50.72 -53.17,10.33 -80.67,33.81 -131.08,61.99l-15.59 10.33c-0.91,-1.88 -5.5,3.75 -7.33,5.63l-31.17 6.58 -9.16 30.05c37.58,-9.39 39.41,-15.03 68.74,-27.24 -18.33,46.97 -2.74,3.76 -17.41,36.63 -9.17,19.73 -8.25,-3.75 -8.25,21.61 77,16.9 65.08,21.6 158.58,27.23 -2.75,2.82 -7.33,2.82 -9.17,8.46 -5.5,25.35 -23.83,4.69 -28.41,49.77 -2.75,31.94 18.33,11.27 -1.84,77.96l-4.58 30.99 53.17 -22.54c19.25,-7.51 -16.5,-10.33 17.41,8.45l16.5 9.4c35.75,12.21 66,5.63 102.67,2.81 -8.25,-42.26 -14.67,-37.56 -11.92,-80.77l31.17 -9.39c55,26.3 35.75,14.09 94.41,15.03 94.42,2.82 29.34,16.9 105.42,23.48l-5.5 -31.94c-53.17,-3.75 -5.5,-2.81 -44,-14.08l-46.75 -1.88c-43.08,2.82 -46.75,-1.88 -90.75,-12.21 -31.16,-7.52 -70.58,-13.15 -98.08,-28.18l-70.58 -42.26c61.41,-30.06 29.33,32.87 132.91,35.69 -17.41,-25.36 -12.83,-17.85 -33,-38.51 -73.33,-75.14 1.84,-63.87 -131.08,-93.92 1.83,-1.88 -13.75,-37.57 59.58,-15.03 46.75,14.09 55,66.68 56.84,70.44 21.08,37.57 16.5,21.6 39.41,34.75 -26.58,-36.63 -9.16,-8.45 -20.16,-39.44l-16.5 -73.26c-8.25,-90.17 13.75,-20.67 -15.59,-58.23l-8.25 -31.94c0.92,-18.78 3.67,-22.54 5.5,-28.17 1.84,0.94 3.67,4.69 4.59,4.69l22.91 9.39c21.09,-9.39 20.17,-27.23 26.59,-43.2l26.58 -30.05 -29.33 -10.34c-54.09,18.79 -90.75,54.48 -162.25,76.08z"/>
    <path class="fil23" d="M312.72 808.38l5.5 41.32 -5.5 0c57.75,21.61 14.66,-12.21 63.25,33.82l11.91 -34.76c50.42,38.51 0.92,15.03 51.34,25.36 0.91,0 61.41,7.52 65.08,7.52 65.08,4.69 58.67,-14.09 113.66,-15.97l-18.33 -89.23 6.42 -42.26c-27.5,-4.7 -21.09,-3.76 -40.33,-4.7l-117.34 -3.75 -15.58 -0.94 -9.17 63.86 -110.91 19.73z"/>
    <path class="fil23" d="M1030.46 245.79c-2.75,23.48 -4.58,46.02 -4.58,70.44l6.41 41.33c0.92,2.81 3.67,7.51 4.59,9.39 0.91,1.88 3.66,5.63 5.5,8.45 18.33,18.79 27.5,30.06 60.5,47.9l-54.09 -200.05 -18.33 22.54z"/>
   </g>
   <g>
    <path class="fil24" d="M1079.96 2190.9c-1.83,-76.08 21.08,194.42 22,200.99 6.42,85.47 14.67,175.63 10.08,260.16 62.34,18.79 181.5,63.87 228.25,67.63 57.75,-31 87.08,-32.88 152.17,-32.88 126.49,0 5.5,-29.11 155.83,-30.99l11.91 -64.81c47.67,11.28 30.25,16.91 60.5,-5.63l193.42 -3.76c12.83,-56.35 38.5,-49.78 58.66,-58.23 1.84,-0.94 5.5,-2.82 7.34,-2.82 25.66,-8.45 25.66,-2.81 53.16,14.09l17.42 -58.23c22,36.63 80.67,4.7 146.67,24.42 129.24,38.51 85.24,19.72 157.66,5.64 20.17,73.25 0.92,26.29 50.42,44.14 19.25,-25.36 18.33,-22.54 61.41,-26.3 60.5,-48.84 60.5,-56.35 103.59,-36.63 -47.67,24.42 -110.92,62.93 -136.59,94.86l2.75 0.94c60.5,-15.97 4.59,8.45 60.5,-30.99 40.34,-28.18 -23.83,-4.7 48.59,-28.18l110.91 -38.51c-19.25,-25.36 -20.17,-30.05 -71.5,-41.32 -26.58,-5.64 -33,-3.76 -62.33,-9.39 -44,-8.46 -77.92,-22.55 -122.83,-31 -72.42,-15.03 -185.17,-46.96 -248.42,-55.41 -31.16,9.39 -54.08,-2.82 -88.91,-13.15l-57.75 83.59c-1.84,1.88 -4.59,4.69 -6.42,6.57 -29.33,23.48 -107.25,24.42 -141.16,34.75 -44.92,14.09 -30.25,17.85 -35.75,20.67 -36.67,15.02 9.16,-1.88 -42.17,1.88 -7.33,85.46 2.75,18.78 -26.58,49.77 -13.75,3.76 -102.67,15.97 -121.92,19.73 -52.25,10.33 -80.66,20.66 -138.41,24.42 -53.17,3.75 -108.17,3.75 -153.09,11.27 -92.58,16.9 -24.75,35.69 -75.16,35.69 -36.67,0 -17.42,6.57 -21.08,-16.91 -10.09,-1.88 12.83,18.79 -11.92,-10.33 -29.33,-34.75 24.75,1.88 -91.67,4.7l-0.91 -167.18 -1.84 -47.9c2.75,-0.94 5.5,-4.7 6.42,-2.82 0.92,1.88 4.58,-2.82 5.5,-3.76 44,-18.78 -11.92,-18.78 44,-11.27 -64.17,-40.39 -99.92,-119.28 -87.08,-207.57l-32.09 -8.45c-31.16,17.85 -7.33,-2.82 -37.58,30.06l44 8.45z"/>
    <path class="fil24" d="M2329.36 2702.77c30.25,-28.18 -7.33,-12.21 39.42,-14.09 -12.83,93.92 13.75,20.67 -57.75,67.63 40.33,54.47 67.83,37.56 76.08,77.95 -1.83,70.44 -3.66,9.39 -14.66,44.14 -0.92,2.82 -2.75,6.58 -3.67,9.4l-3.67 33.81c0,1.88 0.92,5.63 0,6.57 -4.58,21.6 -22,24.42 -48.58,79.84 144.83,-7.52 101.75,-47.9 101.75,-51.66 12.83,-59.17 1.83,-9.39 20.17,-45.08 9.16,-17.85 4.58,12.21 18.33,-32.88l-61.42 31.94c7.34,-13.15 11,-15.97 21.09,-30.06l17.41 -27.23c1.84,-1.88 4.59,-6.58 6.42,-9.4 -4.58,-0.94 -22.92,0.94 -26.58,-0.94 41.25,-17.84 36.66,-28.17 42.16,-38.5 3.67,-7.52 6.42,-16.91 11,-27.24 15.59,-29.12 -0.91,-8.45 17.42,-23.48 2.75,-40.39 5.5,-32.87 10.08,-54.48l11.92 -29.11c0.92,-1.88 1.83,-14.09 0.92,-16.91 -11,-61.99 10.08,-24.42 -23.84,-42.26l-154 92.04z"/>
   </g>
   <g>
    <path class="fil25" d="M58.8 491.86c138.42,-17.84 104.5,-62.92 198.92,25.36 1.83,-0.94 356.58,-244.19 504.16,-272.37l22.92 -17.84c86.16,-89.23 119.16,-136.19 239.24,-69.51 -27.5,-68.56 -24.75,9.4 -64.16,-93.92l-916.66 12.21 15.58 416.07z"/>
    <path class="fil25" d="M2542.03 2415.37l142.08 31c7.33,12.21 15.58,-10.34 13.75,29.11 31.17,18.79 24.75,-34.75 24.75,46.96 32.08,-15.96 5.5,4.7 24.75,-24.42 2.75,2.82 4.58,3.76 5.5,8.46 0.92,4.69 4.58,6.57 5.5,8.45l15.58 24.42c1.84,1.88 4.59,5.63 6.42,7.51 0.92,1.88 3.67,5.64 5.5,8.45l76.08 0c6.42,-7.51 25.67,18.79 18.34,-47.9l43.99 7.52c2.75,-0.94 6.42,-1.88 9.17,-3.76l35.75 -43.2c29.33,-42.27 17.42,-7.52 51.33,-18.79l-34.83 -60.11c-18.33,-54.47 -5.5,-123.97 3.67,-166.24 6.41,-30.99 41.25,-8.45 -8.25,-48.84l-406.08 0.94 0 185.97c-57.75,3.75 -25.67,-5.64 -56.83,25.36 24.75,42.26 -8.25,1.87 23.83,29.11z"/>
    <path class="fil25" d="M1581.37 1974.88c1.83,14.09 -22.91,6.58 8.25,9.39 5.5,72.32 10.08,20.67 -33.91,39.45l-4.59 159.67 129.25 33.81 175.08 -44.15c15.59,-3.75 11.92,-4.69 33,-8.45 31.17,-7.51 35.75,-6.57 67.83,-6.57l0 -185.97 -338.24 -10.33c-37.59,2.82 -20.17,-10.33 -36.67,13.15z"/>
    <path class="fil25" d="M95.47 3014.59l10.08 10.33 118.25 -5.63c2.75,-1.88 6.42,-10.34 8.25,-7.52l38.5 -49.78c31.17,-43.2 22.92,-59.17 66,-72.32l-5.5 -105.19 -187.91 0c-11,74.2 10.08,134.31 -11.92,177.51 -0.92,2.82 -3.67,4.7 -5.5,7.52l-30.25 45.08z"/>
    <path class="fil25" d="M601.46 2378.74l41.25 -30.99c44,-32.87 101.75,-68.56 127.42,-106.13 -70.58,33.81 -13.75,11.27 -27.5,-7.52 43.08,-42.26 -13.75,-48.84 0.92,-56.35l-197.08 -1.88 -1.84 140.88c11.92,54.48 43.08,55.42 56.83,61.99z"/>
   </g>
   <g>
    <path class="fil26" d="M768.3 2688.68c7.33,-35.69 -20.17,-42.26 54.08,-13.15l-0.92 8.46c0,0.94 -0.91,3.75 -0.91,4.69 0,0 0,3.76 0,4.7 0,0 0,3.76 0,4.69l19.25 31c2.75,3.76 6.41,7.51 8.25,10.33l77.91 52.6c-44.91,4.69 4.58,-7.52 -80.66,-25.36 2.75,90.16 -23.84,63.86 40.33,77.01 -50.42,-15.96 -22.92,-16.9 -90.75,-26.3 0.92,5.64 3.67,10.34 5.5,15.03l22.92 74.2c-17.42,-68.56 -43.09,-27.24 -47.67,-25.36l0 60.11c7.33,58.23 42.17,139 67.83,179.39l96.25 -16.91c26.58,-61.98 39.42,-36.62 -11,-70.44l33.92 -7.51c-61.42,-61.05 -16.5,-2.82 -40.34,-68.56 55.92,7.51 43.09,-1.88 89.84,36.63 1.83,0.94 4.58,3.75 6.41,5.63 13.75,11.27 65.09,12.21 24.75,97.68l40.34 14.09c52.25,46.96 -2.75,-14.09 15.58,22.54 106.33,-24.42 520.66,17.84 659.08,-7.51l-25.67 -79.84c-17.42,-44.14 -36.67,-66.68 20.17,-85.47 -11,0 -9.17,7.52 -22,-11.27l-11.92 -81.71c-205.33,-20.66 -311.66,-31.93 -493.16,-95.8l-117.33 -39.44c-24.75,-14.09 -12.84,-5.64 -29.34,-23.48 53.17,12.21 111.84,17.84 145.75,42.26 11.92,-8.45 4.59,-6.57 27.5,-11.27 10.08,-2.82 12.83,0 24.75,0.94 -51.33,-35.69 -88.91,-31.93 -151.25,-50.72 -132.91,-40.38 -360.24,-156.85 -377.66,-162.48 -39.42,-12.21 8.25,0.94 -55,-12.21 17.42,38.51 -7.33,12.21 53.17,57.29l40.33 21.6c112.75,31 76.08,-17.84 109.08,58.23 -105.41,8.46 -106.33,-108.01 -198,-50.71 0.92,44.14 -23.83,43.2 70.59,86.4z"/>
    <path class="fil26" d="M1413.62 2300.79l-1.83 34.75 7.33 75.14c55.92,-5.64 80.67,0 123.75,11.27l10.09 46.96c0,2.81 0.91,6.57 2.75,9.39 23.83,0.94 25.66,0.94 50.41,-1.88l150.33 -15.97 -33.91 -23.48 39.41 -21.6 -4.58 -52.59 -174.17 10.33c98.09,-43.21 67.84,-38.51 167.75,-32.88 -16.5,-23.48 -26.58,-26.29 -93.5,-21.6 -44.91,2.82 -61.41,10.33 -98.99,15.97 24.74,-48.84 19.25,5.63 45.83,-55.41 -63.25,-9.4 -13.75,-0.94 -56.83,9.39 -2.75,0.94 -6.42,1.88 -10.09,2.82l-123.75 9.39z"/>
   </g>
   <g>
    <path class="fil27" d="M1588.7 272.09c32.09,66.68 44,125.85 56.84,211.32 34.83,14.09 35.75,11.27 45.83,46.96 11.92,15.97 5.5,2.82 12.83,30.06 16.5,55.41 -4.58,-36.63 4.59,22.54 2.75,15.02 0,26.29 2.75,48.84 63.25,18.78 77,19.72 143.91,19.72 0,102.37 5.5,83.59 -25.66,92.04 0,141.82 4.58,87.35 -22.92,103.32 -56.83,31.93 -8.25,-28.18 -61.42,49.77l-10.08 -8.45c-0.92,-0.94 -3.67,-2.82 -4.58,-2.82 -76.09,-31.93 74.25,9.4 -33,-1.87 -1.84,0 -13.75,-0.94 -18.34,-4.7 -108.16,165.3 -67.83,254.53 -186.99,329.66l-17.42 9.4c17.42,74.19 50.42,178.45 42.17,246.07l-4.59 133.37c-0.91,3.75 -5.5,69.5 8.25,137.12 19.25,91.11 44.92,157.79 60.5,240.44 16.5,-23.48 -0.92,-10.33 36.67,-13.15l338.24 10.33 0 185.97c-32.08,0 -36.66,-0.94 -67.83,6.57 -21.08,3.76 -17.41,4.7 -33,8.45l-175.08 44.15 861.66 198.17c-32.08,-27.24 0.92,13.15 -23.83,-29.11 31.16,-31 -0.92,-21.61 56.83,-25.36l0 -185.97 406.08 -0.94c21.08,-15.02 31.16,0 86.16,2.82l-2.75 -2123.56c-198.91,4.7 -1711.4,-11.27 -1826.89,6.58 -72.42,11.27 -110.92,81.71 -13.75,104.25 45.83,11.27 76.08,13.15 122.83,30.05 67.83,23.48 193.41,46.02 241.99,77.96z"/>
    <path class="fil27" d="M744.46 1066.66c-29.33,43.21 -149.41,31 -201.66,10.33 -29.33,-12.21 -145.75,-75.13 -154.92,-87.34l-44 -0.94 -2.75 43.2c-39.41,80.77 -56.83,52.6 -141.16,73.26 -44,11.27 -113.67,28.18 -155.83,49.78l12.83 1916.93c23.83,-20.66 -0.92,14.09 10.08,-28.17 3.67,-14.09 6.42,-31.94 12.84,-50.72 1.83,23.48 11,20.66 15.58,21.6l30.25 -45.08c1.83,-2.82 4.58,-4.7 5.5,-7.52 22,-43.2 0.92,-103.31 11.92,-177.51l187.91 0 5.5 105.19 115.5 -0.93c65.08,-48.84 -52.25,66.68 21.08,-22.55 22,-27.23 0,-15.96 30.25,-32.87 47.67,16.91 45.84,2.82 37.59,61.05 22.91,-26.3 38.49,-26.3 20.16,-98.62 -0.91,-4.69 -1.83,-7.51 -3.66,-12.21 -0.92,-3.75 -1.84,-6.57 -3.67,-10.33l8.25 -174.69c-1.83,-27.24 0.92,-54.48 11,-93.92 3.67,-39.45 -2.75,-39.45 6.41,-69.5 10.09,-32.88 17.42,-20.67 22,-56.36 -13.75,-6.57 -44.91,-7.51 -56.83,-61.99l1.84 -140.88 197.08 1.88c-14.67,7.51 42.16,14.09 -0.92,56.35 13.75,18.79 -43.08,41.33 27.5,7.52 62.33,-12.21 220.91,-156.85 283.25,-165.3l121.91 11.27 25.67 15.96 350.16 79.84 4.59 -159.67c-10.09,-44.14 -19.25,-29.12 -34.84,-87.35 -9.16,-36.63 -12.83,-68.56 -21.08,-103.31 -15.58,-71.38 -30.25,-139 -48.58,-208.51 -33.92,-7.51 -24.75,-6.57 -50.42,-74.19 -24.75,-68.57 -22.92,-37.57 -49.5,-77.02 -25.67,-39.45 -43.08,-151.21 -55,-203.81l-43.08 14.09c-12.83,15.97 -31.17,21.6 -60.5,15.97 -38.5,-6.58 -17.42,-14.09 -72.42,-12.21l-16.5 32.87c-258.49,-45.08 -3.66,-330.6 4.59,-369.11 -85.25,-39.45 -117.34,-50.72 -205.33,-4.7 -190.67,96.74 -51.34,59.17 -158.59,120.22z"/>
   </g>
   <path class="fil28" d="M23.05 1136.16c17.42,-72.32 -14.66,-45.08 50.42,-47.9 -15.58,23.48 0.92,8.46 -19.25,26.3 -18.33,15.97 -4.58,1.88 -31.17,21.6zm11 -548.5l-12.83 -67.62 84.33 5.63c-24.75,47.9 -27.5,40.39 -71.5,61.99zm996.41 -498.72c156.75,-13.15 65.08,-22.54 102.67,7.51 -50.42,4.7 -108.17,28.18 -132,-19.72l29.33 12.21zm-543.58 3077.8c63.25,-9.39 53.17,-7.51 117.33,1.88 -27.49,-19.72 2.75,-6.57 -37.58,-18.78l-38.5 -9.4c-3.66,-0.93 -8.25,-1.87 -12.83,-3.75l-441.83 -1.88 -16.5 -62.93 -12.83 -1916.93c42.16,-21.6 111.83,-38.51 155.83,-49.78 84.33,-20.66 101.75,7.51 141.16,-73.26 -31.16,8.45 -17.41,5.64 -32.08,13.15l-85.25 24.42 -21.08 -45.08c-51.33,0 -52.25,10.33 -69.67,-27.24l-22.91 -5.64 -13.75 11.28 -25.67 -33.82c-33.92,-29.11 -11,-75.13 0.92,-107.07 -37.59,-5.63 -25.67,12.21 -38.5,-7.51 8.25,-34.75 0.91,-30.99 -2.75,-82.65l18.33 16.9c53.17,-21.6 2.75,2.82 30.25,-19.72 20.17,-15.97 3.67,-12.21 25.67,-20.66l15.58 -76.08c-50.42,-35.69 -17.42,11.27 -46.75,-39.44 38.5,-48.84 33,-11.28 65.08,-44.15 16.5,-17.84 24.75,-49.78 23.84,-87.34 -54.09,6.57 -40.34,15.02 -78.84,3.75l-24.75 -13.15 -15.58 -416.07 916.66 -12.21c39.41,103.32 36.66,25.36 64.16,93.92 -120.08,-66.68 -153.08,-19.72 -239.24,69.51l53.16 5.63c43.09,-45.08 21.09,-57.29 71.5,-71.38 52.25,-14.09 78.83,14.09 126.5,24.42l12.83 37.57 54.09 200.05 4.58 33.81 -66.92 -5.63 1.84 -76.08c-29.34,17.85 -11,3.76 -26.59,21.6 -1.83,1.88 -4.58,5.64 -6.41,7.52l-9.17 15.02c-6.42,-28.17 -15.58,-53.53 -24.75,-71.38l-0.92 45.09 14.67 46.02 4.58 16.9c39.42,16.91 -0.91,13.15 50.42,16.91 13.75,17.84 8.25,0.94 7.33,32.87l60.5 -1.88 28.42 68.57c-34.83,-16.91 -53.17,-31 -91.67,-52.6l-53.16 -3.76 -40.34 51.66c45.84,0 -11,-10.33 64.17,-22.54 59.58,4.69 22,24.42 21.08,26.3l-68.75 47.9c-0.91,1.87 -8.25,10.33 -11,13.15l81.59 -16.91c81.58,9.39 140.25,12.21 220.91,25.36l-84.33 37.57c-3.67,41.32 -4.58,144.64 29.33,165.3 63.25,38.51 58.67,-10.33 60.5,-11.27l-49.5 2.82 -20.16 -74.2c-17.42,-96.74 21.08,-67.63 108.16,-90.17l-6.42 -23.48c-31.16,-39.44 -11.91,-35.69 -29.33,-90.16l-14.67 -45.08c-24.74,-57.3 -5.5,-25.36 -35.74,-37.57l38.49 142.76 -85.24 -15.03c4.58,-50.72 -102.67,-370.99 -117.34,-471.48l55 -13.15c22,23.48 11.92,-4.7 33.92,71.38 46.75,-12.21 43.08,-2.82 66.92,34.75 22,19.72 22.91,13.15 57.74,23.48 4.59,1.88 37.59,11.27 38.5,12.21 37.59,17.84 14.67,4.69 30.25,22.54 110,-18.79 106.34,31.93 162.25,100.49 39.42,46.97 99.92,107.07 151.25,127.74 41.25,-5.64 37.58,15.96 38.5,19.72 -10.08,-35.69 -11,-32.87 -45.83,-46.96 -33.92,-35.69 -48.59,-2.82 -74.25,-41.32 -11,-42.27 -59.58,-92.99 -93.5,-134.31 -6.42,-7.52 -16.5,-17.85 -19.25,-20.67l-25.67 -30.99c54.09,8.45 97.17,9.39 132.92,41.33 38.5,9.39 29.33,15.02 22.91,-25.36 -48.58,-31.94 -174.16,-54.48 -241.99,-77.96 -46.75,-16.9 -77,-18.78 -122.83,-30.05 -97.17,-22.54 -58.67,-92.98 13.75,-104.25 115.49,-17.85 1627.98,-1.88 1826.89,-6.58l2.75 2123.56 -0.91 450.82c-5.5,127.74 13.75,383.2 -21.09,485.58 -78.83,40.38 -217.24,11.27 -309.83,17.84l-76.08 -1.88c0,24.42 6.42,-10.33 -27.5,16.91l-23.83 19.72c634.33,20.67 469.33,14.09 491.33,-176.57 6.41,-61.05 6.41,-118.34 5.5,-170l-16.5 -2817.64c-54.09,-13.14 -282.33,14.09 -365.75,12.21 -842.41,-14.08 -1869.98,15.97 -2720.64,23.48l13.75 773.92c14.67,533.47 2.75,1064.12 8.25,1600.41l0 597.34c-2.75,90.17 -27.5,105.2 12.83,161.55l450.08 -3.76z"/>
   <path class="fil29" d="M1413.62 1497.76l54.09 -20.66 1.83 105.19c-44.92,-20.66 -31.17,-37.57 -55.92,-84.53zm-225.49 -493.09c5.5,-30.05 -16.5,-19.72 7.33,-28.17 -50.42,-28.18 -22,31.93 -53.17,-25.36l89.84 -12.21c11,54.47 9.16,42.26 -44,65.74zm96.24 -95.8c34.84,-16.9 24.75,-11.27 57.75,-37.56 31.17,174.69 106.34,328.72 133.84,524.08l14.66 38.5 -112.75 33.82c-24.75,-90.17 -42.16,-183.15 -62.33,-278.01 -16.5,-73.26 -33.92,-200.05 -57.75,-263.92l26.58 -16.91zm124.67 73.26c77,31.94 153.08,64.81 174.16,-56.35 17.42,-98.62 6.42,-143.7 75.17,-191.6 11.92,176.57 -58.67,187.84 -113.66,331.54 -7.34,16.91 -14.67,38.51 -22,55.42 -4.59,10.33 -9.17,20.66 -12.84,26.29 -0.91,1.88 -3.66,10.34 -4.58,8.46 -0.92,-1.88 -3.67,4.69 -5.5,7.51 -88.92,10.33 -88.92,-94.86 -90.75,-181.27zm146.67 -250.77l-11 18.79 -11 20.66 -21.09 200.99c-61.41,3.76 -76.08,-7.51 -97.16,-49.78l-19.25 -31.93c-28.42,-15.03 -10.09,2.82 -28.42,-13.15 -6.42,-5.63 -2.75,-0.94 -12.83,-15.97 -0.92,-0.94 -10.09,-33.81 -11.92,-41.32 -2.75,1.88 -25.67,15.97 -28.42,16.9 -25.66,13.15 5.5,0.94 -29.33,11.28 -33.92,38.5 -96.25,47.89 -160.41,58.23 -47.67,-1.88 -32.09,2.81 -68.75,-17.85 3.66,-1.88 13.75,-10.33 14.66,-15.97 0.92,-4.69 3.67,-7.51 6.42,-9.39l-79.75 -11.27 -47.67 6.58c1.84,20.66 21.09,-2.82 -4.58,18.78 -18.33,15.03 -33,12.21 -56.83,17.85 -43.08,8.45 -75.17,24.42 -119.17,34.75 -7.33,33.81 -22,-36.63 9.17,6.57 0,0 11,12.21 0,31.93 -12.83,25.36 -11.92,15.97 -16.5,20.67 -11.92,17.84 -5.5,9.39 -19.25,25.36 -1.83,3.75 -10.08,11.27 -12.83,14.08 -17.42,19.73 -8.25,7.52 -23.84,29.12 61.42,-29.12 26.59,-21.6 38.5,9.39 107.25,-61.05 -32.08,-23.48 158.59,-120.22 87.99,-46.02 120.08,-34.75 205.33,4.7 -8.25,38.51 -263.08,324.03 -4.59,369.11l16.5 -32.87c-31.16,-12.21 -26.58,0.94 0.92,-18.79 -66.92,15.97 -45.83,7.52 -96.25,-21.6 -22.92,-127.73 66,-231.98 163.17,-242.32 -13.75,39.45 -33.92,47.9 -53.17,85.47 -21.08,40.39 -19.25,74.2 -22.92,127.74l23.84 0c1.83,-51.66 31.16,-132.43 66.91,-152.16l35.75 -59.17c20.17,26.3 23.83,73.26 30.25,107.07 18.33,102.38 24.75,109.89 -14.67,124.92 -24.74,29.11 9.17,7.51 -29.33,19.72 -13.75,3.76 -33,0.94 -46.75,-0.94 0,83.59 70.58,-29.11 75.17,26.3l43.08 -14.09c11.92,52.6 29.33,164.36 55,203.81 26.58,39.45 24.75,8.45 49.5,77.02 25.67,67.62 16.5,66.68 50.42,74.19 20.16,-15.02 30.25,19.73 8.25,-37.56 38.5,6.57 19.25,15.02 36.66,-0.94 -2.75,-62.93 -14.66,-77.02 21.09,-122.1 8.25,-67.62 -24.75,-171.88 -42.17,-246.07l17.42 -9.4c119.16,-75.13 78.83,-164.36 186.99,-329.66 11.92,-52.6 22,-83.59 16.5,-143.7 -0.91,-18.78 -8.25,-51.66 -6.41,-62.93 5.5,-36.63 5.5,-22.54 22,-40.38 -2.75,-22.55 0,-33.82 -2.75,-48.84 -9.17,-59.17 11.91,32.87 -4.59,-22.54 -7.33,-27.24 -0.91,-14.09 -12.83,-30.06 -0.92,-3.76 2.75,-25.36 -38.5,-19.72 8.25,44.14 27.5,65.74 9.17,127.73 -11,40.39 -37.59,65.75 -58.67,92.04l-47.66 0.94z"/>
   <path class="fil30" d="M663.8 2478.3l31.16 9.39c0,0 7.34,53.54 -31.16,-9.39zm252.08 29.11l5.5 64.81c-61.42,-14.09 -167.75,-71.38 -211.75,-112.71l-18.33 -22.54c7.33,-30.99 15.58,-45.08 27.5,-73.25 -41.25,43.2 -62.34,59.17 -55,114.58l-9.17 -1.88c-56.83,-20.66 -13.75,-12.21 -33,22.54 27.5,10.33 42.17,12.21 58.67,31 32.08,-15.03 7.33,12.21 12.83,-14.09 63.25,13.15 15.58,0 55,12.21 17.42,5.63 244.75,122.1 377.66,162.48 62.34,18.79 99.92,15.03 151.25,50.72 139.33,21.6 111.83,60.11 387.75,72.32 90.75,3.75 127.41,12.21 220,0 76.99,-9.39 130.16,-31 188.83,-38.51 18.33,-27.24 29.33,-28.18 63.25,-40.39 9.16,-7.51 129.24,-73.25 142.99,-78.89 57.75,-24.42 109.09,-52.6 154,-73.26 25.67,-31.93 88.92,-70.44 136.59,-94.86 -43.09,-19.72 -43.09,-12.21 -103.59,36.63 -77.91,18.78 -127.41,67.62 -197.08,94.86 -19.25,7.51 -165,78.89 -168.66,95.8 -65.09,14.09 -111.84,47.9 -180.59,60.11 -27.49,5.64 -58.66,7.51 -79.74,11.27 -72.42,14.09 -444.58,-37.57 -500.5,-66.68 -46.75,-3.76 -165.91,-48.84 -228.25,-67.63 4.59,-84.53 -3.66,-174.69 -10.08,-260.16 -0.92,-6.57 -23.83,-277.07 -22,-200.99 -14.67,75.14 26.58,185.02 -17.42,246.07 -12.83,-73.25 -3.66,-114.58 2.75,-186.9 -25.66,31.93 -21.08,11.27 -28.41,96.74l-19.25 251.71c0,-2.82 -0.92,-6.58 -1.84,-10.33l-6.41 -75.14c-2.75,-33.81 -4.59,-64.81 -6.42,-98.62 3.67,86.41 -3.67,24.42 -17.42,33.81l-19.25 140.89 -44.91 -73.26c-0.92,-4.7 -2.75,-5.64 -5.5,-8.46z"/>
   <path class="fil31" d="M2778.53 2758.18c30.25,29.12 168.66,22.55 216.33,15.97l-29.34 46.02c-33.91,32.88 -39.41,-0.94 -39.41,87.35 -88.92,2.82 -66.92,1.88 -76.08,23.48 86.16,3.76 44.91,1.88 57.75,34.75 -96.25,45.08 -62.34,0.94 -147.59,10.33 -5.5,16.91 -6.41,1.88 -4.58,21.6l21.08 34.75c0.92,1.88 3.67,5.64 4.59,7.52l42.16 64.8 -48.58 -7.51c-23.83,6.57 -39.42,10.33 -64.17,13.15l-26.58 -0.94c99.92,0 15.58,-3.76 51.33,21.6 92.59,-6.57 231,22.54 309.83,-17.84 34.84,-102.38 15.59,-357.84 21.09,-485.58 -29.34,0 -14.67,-5.63 -21.09,37.57 -3.66,59.17 7.34,38.51 -5.5,148.4 -33,-29.12 -11.91,-183.15 -164.99,-125.86 -2.75,-2.81 -6.42,-6.57 -8.25,-8.45 -1.84,-1.88 -6.42,-5.63 -8.25,-7.51l-22 -25.36c-15.59,35.69 -7.34,26.3 -42.17,42.26l-23.83 -64.8 -22.92 28.17c21.08,46.96 13.75,25.36 27.5,81.71 -28.42,-17.84 -18.33,-12.2 -37.58,-48.83l0.91 65.74 40.34 7.51z"/>
   <path class="fil32" d="M1099.21 3133.87l-15.58 7.51c25.66,-5.63 241.08,-0.94 294.24,0l230.08 2.82c80.67,8.45 54.09,9.39 59.59,23.48 40.33,22.54 224.58,-8.45 307.08,-0.94 26.58,-20.66 59.58,-22.54 96.25,-31.93 -13.75,2.82 -22.92,-24.42 -28.42,-40.39l-10.08 -40.38c-4.59,1.88 -39.42,8.45 -45.84,7.51 -40.33,-1.88 -11,12.21 -33.91,-16.91l-171.42 -7.51c44.92,-15.03 18.34,0.94 63.25,-6.57l27.5 -9.4c-29.33,-36.63 -31.16,-14.08 -125.58,-35.69l115.5 -20.66c-30.25,-6.57 5.5,11.27 -36.67,-7.51 15.59,-11.27 -6.41,-1.88 16.5,-6.58l169.58 -10.33c2.75,0 9.17,1.88 11,-1.88 1.84,-3.75 7.34,-1.88 11,-2.81 -85.25,8.45 -31.16,6.57 -50.41,-17.85 -65.09,13.15 -95.33,19.72 -166.83,19.72l77 -35.69 -99.92 -7.51 156.75 -34.75 107.25 -42.27c-16.5,-15.96 33.91,-30.99 -54.09,-15.02 -23.83,4.69 -23.83,29.11 -142.99,35.69 -329.08,19.72 -551.83,-85.47 -635.25,-86.41 -33.91,-24.42 -92.58,-30.05 -145.75,-42.26 16.5,17.84 4.59,9.39 29.34,23.48l117.33 39.44c181.5,63.87 287.83,75.14 493.16,95.8l11.92 81.71c12.83,18.79 11,11.27 22,11.27 -56.84,18.79 -37.59,41.33 -20.17,85.47l25.67 79.84c-138.42,25.35 -552.75,-16.91 -659.08,7.51z"/>
   <path class="fil33" d="M1340.29 2719.68c55.92,29.11 428.08,80.77 500.5,66.68 21.08,-3.76 52.25,-5.63 79.74,-11.27 68.75,-12.21 115.5,-46.02 180.59,-60.11 -24.75,-34.75 1.83,-16.91 -35.75,-26.3 -30.25,-7.51 -33,21.6 -114.59,34.75 -54.08,9.4 -125.58,30.06 -166.83,6.58 5.5,-17.85 -9.16,-34.75 94.42,-60.11 90.75,-22.54 52.25,24.42 129.25,4.69 -7.34,-77.95 -4.59,-56.35 -71.5,-47.9 -29.33,-49.77 18.33,-26.29 -22,-45.08l-193.42 3.76c-30.25,22.54 -12.83,16.91 -60.5,5.63l-11.91 64.81c-150.33,1.88 -29.34,30.99 -155.83,30.99 -65.09,0 -94.42,1.88 -152.17,32.88z"/>
   <path class="fil34" d="M770.13 2241.62c-25.67,37.57 -83.42,73.26 -127.42,106.13l-41.25 30.99c-4.58,35.69 -11.91,23.48 -22,56.36 -9.16,30.05 -2.74,30.05 -6.41,69.5 21.08,24.42 74.25,216.96 75.16,256.4 32.09,30.06 43.09,90.17 40.34,133.37 33,27.24 14.66,6.57 33,48.84 22.91,57.29 46.75,145.58 84.33,177.51 -23.83,23.48 6.42,9.39 -35.75,15.03 -30.25,35.69 -77.92,16.9 -122.83,10.33 55.91,30.05 76.08,-12.21 98.08,26.3 67.83,-18.79 374.91,-12.21 467.5,-11.27 158.58,1.88 298.83,5.63 454.66,6.57 -5.5,-14.09 21.08,-15.03 -59.59,-23.48l-230.08 -2.82c-53.16,-0.94 -268.58,-5.63 -294.24,0 -46.75,-3.75 -77.92,-2.81 -124.67,-1.87 -13.75,0 -51.33,-0.94 -63.25,-1.88 -5.5,-0.94 -20.16,-1.88 -23.83,-3.76 -27.5,-6.57 -11.92,-1.88 -28.42,-13.15 -25.66,-40.39 -60.5,-121.16 -67.83,-179.39 -14.67,-18.78 -43.08,-92.98 -56.83,-123.04 -22,-47.9 -29.34,-87.34 -43.09,-136.18 -21.08,-75.14 -92.58,-212.26 -22.91,-280.83 47.66,-67.62 45.83,-54.47 117.33,-103.31 45.83,-31.93 94.42,-55.41 135.67,-87.35l124.66 -103.31c38.5,-13.15 33.92,27.24 22.92,-30.99 -62.34,8.45 -220.92,153.09 -283.25,165.3z"/>
   <path class="fil35" d="M1914.12 2581.61c40.33,18.79 -7.33,-4.69 22,45.08 66.91,-8.45 64.16,-30.05 71.5,47.9 -77,19.73 -38.5,-27.23 -129.25,-4.69 -103.58,25.36 -88.92,42.26 -94.42,60.11 41.25,23.48 112.75,2.82 166.83,-6.58 81.59,-13.15 84.34,-42.26 114.59,-34.75 37.58,9.39 11,-8.45 35.75,26.3 3.66,-16.91 149.41,-88.29 168.66,-95.8 69.67,-27.24 119.17,-76.08 197.08,-94.86 -43.08,3.76 -42.16,0.94 -61.41,26.3 -49.5,-17.85 -30.25,29.11 -50.42,-44.14 -72.42,14.08 -28.42,32.87 -157.66,-5.64 -66,-19.72 -124.67,12.21 -146.67,-24.42l-17.42 58.23c-27.5,-16.9 -27.5,-22.54 -53.16,-14.09 -1.84,0 -5.5,1.88 -7.34,2.82 -20.16,8.45 -45.83,1.88 -58.66,58.23z"/>
   <path class="fil36" d="M2202.87 2716.86c-100.84,50.72 16.5,14.09 -53.17,58.23 -27.5,18.78 -63.25,25.36 -92.58,42.26 14.66,8.46 -1.84,5.64 28.41,3.76 38.5,-2.82 -14.66,0.94 40.34,-7.51 26.58,-4.7 22,-3.76 58.66,-16.91 -14.66,24.42 -0.91,19.73 -22.91,33.81 -15.59,34.75 -9.17,30.06 -36.67,54.48l78.83 -26.3 -15.58 47.9c17.42,-9.39 -28.42,-19.72 34.83,2.82l0 56.35c0,-0.94 0,5.64 1.84,8.45l-48.59 5.64c-2.75,-0.94 -6.41,-1.88 -8.25,-1.88l-16.5 -8.45c-1.83,-3.76 -5.5,-3.76 -8.25,-5.64 3.67,6.58 1.84,-5.63 3.67,14.09 1.83,37.57 -27.5,-4.7 20.17,41.33l-5.5 23.48c3.66,1.87 8.25,0 10.08,3.75l88 68.57c1.83,0.93 5.5,3.75 8.25,5.63 77,-24.42 99.91,-47.9 150.33,-88.29l149.42 -104.25c36.66,-21.6 73.33,-30.99 85.24,-76.07 -31.16,17.84 -52.25,43.2 -77.91,61.98 -77.92,57.3 -183.33,139.95 -275,155.91 31.17,-54.47 129.25,-88.28 179.67,-127.73l133.83 -119.28c-13.75,62.93 -166.83,127.73 -195.25,133.37 0,3.76 43.08,44.14 -101.75,51.66 26.58,-55.42 44,-58.24 48.58,-79.84 0.92,-0.94 0,-4.69 0,-6.57l3.67 -33.81c0.92,-2.82 2.75,-6.58 3.67,-9.4 11,-34.75 12.83,26.3 14.66,-44.14 -8.25,-40.39 -35.75,-23.48 -76.08,-77.95 71.5,-46.96 44.92,26.29 57.75,-67.63 -46.75,1.88 -9.17,-14.09 -39.42,14.09 -48.58,1.88 -67.83,1.88 -92.58,44.14 -42.16,-18.78 -33.91,27.24 -33.91,-30.05z"/>
   <path class="fil37" d="M58.8 491.86l24.75 13.15c38.5,11.27 24.75,2.82 78.84,-3.75 27.5,-3.76 42.16,6.57 72.41,18.78 -2.75,1.88 -5.5,3.76 -7.33,4.7 -45.83,35.69 -62.33,30.05 -63.25,224.47 -7.33,96.74 20.17,122.1 36.67,200.05 -28.42,-21.6 -33,-39.45 -47.67,-82.65 -41.25,-13.15 -17.42,-2.82 -50.42,-21.6l-31.16 16.9c-11.92,31.94 -34.84,77.96 -0.92,107.07 36.67,-50.71 -29.33,-31.93 32.08,-55.41 56.84,-20.66 13.75,-2.82 38.5,20.66l-31.16 57.29 22.91 5.64 39.42 15.97 41.25 -36.63c11,7.51 9.17,4.69 29.33,13.15l24.75 22.54c9.17,-21.6 -5.5,-30.06 44,-38.51 1.83,0 38.5,0 39.42,0.94 34.83,5.63 25.66,8.45 36.66,15.03 9.17,12.21 125.59,75.13 154.92,87.34 52.25,20.67 172.33,32.88 201.66,-10.33 -11.91,-30.99 22.92,-38.51 -38.5,-9.39 -70.58,0 -145.74,4.7 -190.66,-42.26 -48.58,-17.85 -99.92,-36.63 -110.92,-89.23 -74.25,-8.45 -15.58,-7.51 -39.41,21.6 25.66,9.39 31.16,-10.33 11,9.39 -51.34,-4.69 -97.17,6.58 -130.17,17.85l-32.08 -86.41c-14.67,-42.26 -15.58,-29.11 -11,-77.01 -32.08,-41.33 -17.42,-153.1 -4.58,-207.57 8.25,-34.75 4.58,-17.85 33,-28.18 55.91,-18.78 58.66,-34.75 110.91,-77.01 62.33,-49.78 82.5,-61.05 155.83,-105.19l110 -49.78 144.83 -67.63c55,-37.56 18.34,-23.48 9.17,-30.99 -147.58,28.18 -502.33,271.43 -504.16,272.37 -94.42,-88.28 -60.5,-43.2 -198.92,-25.36z"/>
   <path class="fil38" d="M2436.61 2583.49c-34.83,5.64 -64.16,46.02 -106.33,68.56 -42.17,22.54 -81.58,48.84 -127.41,64.81 0,57.29 -8.25,11.27 33.91,30.05 24.75,-42.26 44,-42.26 92.58,-44.14l154 -92.04c33.92,17.84 12.84,-19.73 23.84,42.26 0.91,2.82 0,15.03 -0.92,16.91l-11.92 29.11c-4.58,21.61 -7.33,14.09 -10.08,54.48 41.25,-13.15 28.42,-8.45 56.83,-28.18 10.09,-6.57 12.84,-9.39 21.09,-17.84 34.83,-31 36.66,-51.66 79.74,-56.36l17.42 1.88c-13.75,26.3 -22.92,40.39 -70.58,60.11 -127.42,50.72 -84.33,-21.6 -120.08,78.9 92.58,-26.3 12.83,4.69 70.58,-44.15 1.83,-1.88 4.58,-4.69 6.42,-5.63 33.91,-28.18 75.16,-38.51 113.66,-57.29l-82.5 79.83c12.83,-8.45 31.17,-37.57 75.17,-10.33 -3.67,1.88 -15.59,7.51 -19.25,9.39l-85.25 56.35c-2.75,1.88 -13.75,5.64 -17.42,7.52 -2.75,0.94 -6.41,2.81 -9.16,3.75l-64.17 46.96c-13.75,45.09 -9.17,15.03 -18.33,32.88 -18.34,35.69 -7.34,-14.09 -20.17,45.08 28.42,-5.64 181.5,-70.44 195.25,-133.37l46.75 -49.78c4.58,-3.75 8.25,-6.57 11.91,-8.45 3.67,-2.82 8.25,-5.64 11.92,-9.39 -15.58,56.35 -18.33,71.38 -9.17,129.61l11.92 -128.67c-22,-15.97 -8.25,16.9 -17.42,-23.48l10.09 -118.35c-15.59,-4.69 -10.09,-8.45 -39.42,-5.63 -26.58,2.82 -10.08,0 -29.33,13.15 17.41,-16.91 7.33,-6.58 31.16,-23.48 32.09,-22.54 19.25,1.88 41.25,-34.75 -19.25,-20.67 5.5,-28.18 -19.25,-13.15 0,-2.82 -0.91,-8.45 -1.83,-10.33 -0.92,0 -5.5,-32.88 -39.42,-5.64 44,-15.96 38.5,-19.72 61.42,-60.11l-27.5 11.27 -110.91 38.51c-72.42,23.48 -8.25,0 -48.59,28.18 -55.91,39.44 0,15.02 -60.5,30.99z"/>
   <path class="fil39" d="M336.55 2889.67c-43.08,13.15 -34.83,29.12 -66,72.32l-38.5 49.78c-1.83,-2.82 -5.5,5.64 -8.25,7.52l-118.25 5.63c42.17,54.48 77.92,9.39 220,9.39l20.17 -52.59c51.33,1.88 100.83,-0.94 144.83,-5.64 82.5,-10.33 7.33,3.76 74.25,-35.69 21.08,-13.15 5.5,-1.88 23.83,-11.27 27.5,-13.15 53.17,-44.14 59.58,-82.65l0 -85.47c-0.91,-39.44 -54.08,-231.98 -75.16,-256.4 -10.08,39.44 -12.83,66.68 -11,93.92l-8.25 174.69c1.83,3.76 2.75,6.58 3.67,10.33 1.83,4.7 2.75,7.52 3.66,12.21 18.33,72.32 2.75,72.32 -20.16,98.62 8.25,-58.23 10.08,-44.14 -37.59,-61.05 -30.25,16.91 -8.25,5.64 -30.25,32.87 -73.33,89.23 44,-26.29 -21.08,22.55l-115.5 0.93z"/>
   <path class="fil40" d="M1277.04 2498.96c46.75,5.64 20.17,-12.21 42.17,14.09 -39.42,61.05 -38.5,13.15 -68.75,79.83 -13.75,29.12 38.5,-10.33 -7.33,14.09 3.66,23.48 -15.59,16.91 21.08,16.91 50.41,0 -17.42,-18.79 75.16,-35.69 44.92,-7.52 99.92,-7.52 153.09,-11.27 57.75,-3.76 86.16,-14.09 138.41,-24.42 19.25,-3.76 108.17,-15.97 121.92,-19.73l3.66 -72.32 -150.33 15.97c-24.75,2.82 -26.58,2.82 -50.41,1.88 -1.84,-2.82 -2.75,-6.58 -2.75,-9.39l-10.09 -46.96c-43.08,-11.27 -67.83,-16.91 -123.75,-11.27l-7.33 -75.14c-19.25,7.51 2.75,-7.52 -19.25,34.75l-78.83 101.43c-2.75,1.88 -6.42,4.7 -8.25,6.58 -9.17,6.57 -17.42,15.97 -19.25,13.15 -1.84,-2.82 -6.42,4.69 -9.17,7.51z"/>
   <path class="fil41" d="M786.63 2381.56c13.75,-93.92 -1.83,-34.75 52.25,-65.74 46.75,-26.3 -15.58,-13.15 69.67,-42.27 -23.84,89.23 -69.67,102.37 -121.92,108.01zm119.17 -170.94c23.83,16.91 25.66,-10.33 -31.17,39.45 -26.58,23.48 -22,22.54 -49.5,38.51 -27.5,15.03 -45.83,26.3 -63.25,38.51l-43.08 36.63c-11.92,28.17 -20.17,42.26 -27.5,73.25l18.33 22.54c44,41.33 150.33,98.62 211.75,112.71l-5.5 -64.81c-11,-34.75 -11,-15.02 -1.84,-42.26l30.25 -48.84c-33.91,-15.03 -20.16,-30.99 -48.58,-4.7 18.33,-26.29 -5.5,-21.6 24.75,-9.39 29.33,12.21 9.17,-12.21 20.17,23.48l22.91 -53.53c0,0 25.67,-36.63 28.42,-44.15 11.92,-23.48 17.42,-50.71 22,-66.68l22 -77.95 -107.25 50.71 101.75 -126.79 -124.66 103.31z"/>
   <path class="fil42" d="M1073.54 2152.39l32.09 8.45c-12.84,88.29 22.91,167.18 87.08,207.57 -55.92,-7.51 0,-7.51 -44,11.27 -0.92,0.94 -4.58,5.64 -5.5,3.76 -0.92,-1.88 -3.67,1.88 -6.42,2.82l1.84 47.9 36.66 -8.46c-3.66,33.81 -13.75,42.27 -30.25,63.87 77,12.21 64.17,-0.94 119.17,43.2l12.83 -33.81c2.75,-2.82 7.33,-10.33 9.17,-7.51 1.83,2.82 10.08,-6.58 19.25,-13.15 1.83,-1.88 5.5,-4.7 8.25,-6.58l78.83 -101.43c22,-42.27 0,-27.24 19.25,-34.75l1.83 -34.75c5.5,-39.45 4.59,-28.18 26.59,-54.48 -3.67,-0.94 -24.75,-8.45 -25.67,-8.45 -26.58,-14.09 -16.5,-9.39 -33,-24.42 55.92,2.82 79.75,14.09 125.58,26.3l127.42 26.3c-64.17,-32.88 -171.42,-21.61 -231,-67.63l-52.25 30.06 66.92 31.93c-22,12.21 0,7.52 -27.5,7.52 -23.84,0.93 -32.09,-11.28 -47.67,-21.61l-44 -20.66c-13.75,-1.88 -43.08,2.82 -56.83,3.76l2.75 -14.09 0.91 40.39c23.84,-23.48 66,-59.17 105.42,8.45 0.92,3.76 2.75,6.57 4.58,9.39 13.75,32.87 4.59,48.84 4.59,48.84 -20.17,13.15 -5.5,6.57 -33.92,12.21 -15.58,3.76 -21.08,1.88 -37.58,2.82 -64.17,4.69 -33,39.44 -48.58,3.75 -1.84,-2.81 -5.5,0.94 -8.25,0.94 -3.67,-6.57 -13.75,3.76 -11,-71.38 -43.09,-19.72 -13.75,-54.47 -50.42,-93.92l-28.42 -19.72c41.25,10.33 42.17,15.96 83.42,0 -124.67,-50.72 -74.25,-26.3 -150.33,-25.36l-1.84 20.66z"/>
   <path class="fil43" d="M799.46 860.97c-31.16,23.48 -41.25,25.36 -82.5,22.55 11,22.54 8.25,18.78 18.34,49.77 -67.84,-28.17 -20.17,-76.07 -77.92,-66.68l-33.92 10.33 0.92 43.2 -248.41 -36.62c-48.59,-46.03 -5.5,-12.21 -63.25,-33.82l0.91 44.15 51.34 53.53c23.83,-29.11 -34.84,-30.05 39.41,-21.6 11,52.6 62.34,71.38 110.92,89.23 19.25,-31.94 69.66,-27.24 110,-31.94 94.41,-9.39 38.5,-20.66 85.25,9.39l51.33 -3.75c4.58,-4.7 3.67,4.69 16.5,-20.67 11,-19.72 0,-31.93 0,-31.93 -31.17,-43.2 -16.5,27.24 -9.17,-6.57 44,-10.33 76.09,-26.3 119.17,-34.75 23.83,-5.64 38.5,-2.82 56.83,-17.85 25.67,-21.6 6.42,1.88 4.58,-18.78l47.67 -6.58c-36.67,-36.63 48.58,-18.78 -64.17,-27.24 -14.66,-0.93 -43.08,8.46 -46.74,9.4 -41.25,14.09 -28.42,15.96 -87.09,27.23z"/>
   <path class="fil44" d="M2774.86 3097.24l48.58 7.51 -42.16 -64.8c-0.92,-1.88 -3.67,-5.64 -4.59,-7.52l-21.08 -34.75c-1.83,-19.72 -0.92,-4.69 4.58,-21.6 85.25,-9.39 51.34,34.75 147.59,-10.33 -12.84,-32.87 28.41,-30.99 -57.75,-34.75 9.16,-21.6 -12.84,-20.66 76.08,-23.48 0,-88.29 5.5,-54.47 39.41,-87.35l29.34 -46.02c-47.67,6.58 -186.08,13.15 -216.33,-15.97 -27.5,14.09 -22.92,2.82 -39.42,20.67 7.33,30.99 0,19.72 28.42,38.5l-44.92 21.61c3.67,5.63 7.33,2.81 8.25,5.63 0.92,1.88 5.5,0.94 5.5,1.88 46.75,27.24 14.67,63.87 7.33,111.77l-22 136.18 53.17 2.82z"/>
   <path class="fil45" d="M1985.62 2313.94l165.91 34.75c63.25,8.45 176,40.38 248.42,55.41 44.91,8.45 78.83,22.54 122.83,31 29.33,5.63 35.75,3.75 62.33,9.39 51.33,11.27 52.25,15.96 71.5,41.32l27.5 -11.27c-22.92,40.39 -17.42,44.15 -61.42,60.11 33.92,-27.24 38.5,5.64 39.42,5.64 0.92,1.88 1.83,7.51 1.83,10.33 24.75,-15.03 0,-7.52 19.25,13.15 -22,36.63 -9.16,12.21 -41.25,34.75 -23.83,16.9 -13.75,6.57 -31.16,23.48 19.25,-13.15 2.75,-10.33 29.33,-13.15 29.33,-2.82 23.83,0.94 39.42,5.63l-10.09 118.35c9.17,40.38 -4.58,7.51 17.42,23.48l11 -280.83c1.83,-39.45 -6.42,-16.9 -13.75,-29.11l-142.08 -31 -861.66 -198.17 -129.25 -33.81 -350.16 -79.84 -33 14.09 817.66 196.3z"/>
   <path class="fil46" d="M2686.86 2756.31l-11.92 128.67 -15.58 244.19 76.08 1.88c-35.75,-25.36 48.59,-21.6 -51.33,-21.6l26.58 0.94c24.75,-2.82 40.34,-6.58 64.17,-13.15l-53.17 -2.82 22 -136.18c7.34,-47.9 39.42,-84.53 -7.33,-111.77 0,-0.94 -4.58,0 -5.5,-1.88 -0.92,-2.82 -4.58,0 -8.25,-5.63l44.92 -21.61c-28.42,-18.78 -21.09,-7.51 -28.42,-38.5 16.5,-17.85 11.92,-6.58 39.42,-20.67l-40.34 -7.51 -0.91 -65.74c19.25,36.63 9.16,30.99 37.58,48.83 -13.75,-56.35 -6.42,-34.75 -27.5,-81.71l22.92 -28.17 -2.75 -9.4c-13.75,-30.05 -11.92,-22.54 -18.34,-64.8 -32.08,-8.45 -16.5,-5.64 -29.33,13.15l2.75 -40.39c0,-81.71 6.42,-28.17 -24.75,-46.96l-11 280.83z"/>
   <path class="fil47" d="M1757.37 2362.78l4.58 52.59 -39.41 21.6 33.91 23.48 -3.66 72.32c29.33,-30.99 19.25,35.69 26.58,-49.77 51.33,-3.76 5.5,13.14 42.17,-1.88 5.5,-2.82 -9.17,-6.58 35.75,-20.67 33.91,-10.33 111.83,-11.27 141.16,-34.75 1.83,-1.88 4.58,-4.69 6.42,-6.57l57.75 -83.59c34.83,10.33 57.75,22.54 88.91,13.15l-165.91 -34.75c-37.59,11.27 -28.42,-3.76 -71.5,-11.27 -1.84,0 -118.25,-24.42 -167.75,6.57l169.58 30.06c-81.58,14.08 -90.75,-7.52 -158.58,23.48z"/>
   <path class="fil48" d="M775.63 2941.33l0 -60.11c4.58,-1.88 30.25,-43.2 47.67,25.36l-22.92 -74.2c-1.83,-4.69 -4.58,-9.39 -5.5,-15.03 67.83,9.4 40.33,10.34 90.75,26.3 -64.17,-13.15 -37.58,13.15 -40.33,-77.01 85.24,17.84 35.75,30.05 80.66,25.36l-77.91 -52.6c-1.84,-2.82 -5.5,-6.57 -8.25,-10.33 -33.92,-8.45 -77.92,-11.27 -71.5,-40.39 -94.42,-43.2 -69.67,-42.26 -70.59,-86.4 91.67,-57.3 92.59,59.17 198,50.71 -33,-76.07 3.67,-27.23 -109.08,-58.23l-40.33 -21.6c-60.5,-45.08 -35.75,-18.78 -53.17,-57.29 -5.5,26.3 19.25,-0.94 -12.83,14.09 -16.5,-18.79 -31.17,-20.67 -58.67,-31 19.25,-34.75 -23.83,-43.2 33,-22.54l-1.83 -75.14c-69.67,68.57 1.83,205.69 22.91,280.83 13.75,48.84 21.09,88.28 43.09,136.18 13.75,30.06 42.16,104.26 56.83,123.04z"/>
   <path class="fil49" d="M1030.46 2107.31l-101.75 126.79 107.25 -50.71 -22 77.95c-4.58,15.97 -10.08,43.2 -22,66.68 -2.75,7.52 -28.42,44.15 -28.42,44.15l-22.91 53.53c-11,-35.69 9.16,-11.27 -20.17,-23.48 -30.25,-12.21 -6.42,-16.9 -24.75,9.39 28.42,-26.29 14.67,-10.33 48.58,4.7l-30.25 48.84c-9.16,27.24 -9.16,7.51 1.84,42.26 2.75,2.82 4.58,3.76 5.5,8.46l44.91 73.26 19.25 -140.89c13.75,-9.39 21.09,52.6 17.42,-33.81 1.83,33.81 3.67,64.81 6.42,98.62l6.41 75.14c0.92,3.75 1.84,7.51 1.84,10.33l19.25 -251.71c7.33,-85.47 2.75,-64.81 28.41,-96.74 -6.41,72.32 -15.58,113.65 -2.75,186.9 44,-61.05 2.75,-170.93 17.42,-246.07l-44 -8.45c30.25,-32.88 6.42,-12.21 37.58,-30.06l1.84 -20.66c2.75,-58.23 -11.92,-4.7 47.66,-18.78l52.25 -25.36 -121.91 -11.27c11,58.23 15.58,17.84 -22.92,30.99z"/>
   <path class="fil50" d="M1949.87 2859.62l36.66 0c1.84,5.63 5.5,6.57 7.34,12.21 0.91,4.7 4.58,6.57 6.41,8.45l-17.41 37.57c19.25,24.42 -34.84,26.3 50.41,17.85 47.67,-8.46 5.5,-4.7 23.84,15.96l-92.59 15.03c29.34,19.72 37.59,12.21 78.84,21.6l-56.84 31 -33.91 25.35c22.91,29.12 -6.42,15.03 33.91,16.91 6.42,0.94 41.25,-5.63 45.84,-7.51 -13.75,-51.66 -1.84,-19.73 9.16,-32.88 12.84,0 64.17,7.52 98.09,6.58l27.5 -8.45c-47.67,-46.03 -18.34,-3.76 -20.17,-41.33 -1.83,-19.72 0,-7.51 -3.67,-14.09 2.75,1.88 6.42,1.88 8.25,5.64l16.5 8.45c1.84,0 5.5,0.94 8.25,1.88l48.59 -5.64c-1.84,-2.81 -1.84,-9.39 -1.84,-8.45l0 -56.35c-63.25,-22.54 -17.41,-12.21 -34.83,-2.82 -33,13.15 -17.42,20.66 -56.83,28.18 -27.5,4.69 -49.5,-5.64 -73.34,-15.03l66.92 -34.75c27.5,-24.42 21.08,-19.73 36.67,-54.48 -57.75,3.76 -25.67,7.52 -35.75,-16.9 -55,8.45 -1.84,4.69 -40.34,7.51 -30.25,1.88 -13.75,4.7 -28.41,-3.76l-107.25 42.27z"/>
   <path class="fil51" d="M1679.45 878.82c4.59,3.76 16.5,4.7 18.34,4.7 107.25,11.27 -43.09,-30.06 33,1.87 0.91,0 3.66,1.88 4.58,2.82l10.08 8.45c53.17,-77.95 4.59,-17.84 61.42,-49.77 27.5,-15.97 22.92,38.5 22.92,-103.32 31.16,-8.45 25.66,10.33 25.66,-92.04 -66.91,0 -80.66,-0.94 -143.91,-19.72 -16.5,17.84 -16.5,3.75 -22,40.38 -1.84,11.27 5.5,44.15 6.41,62.93 5.5,60.11 -4.58,91.1 -16.5,143.7z"/>
   <path class="fil52" d="M1475.96 1395.39c-18.34,53.53 11,24.42 -34.84,41.32 -60.5,-120.22 -96.25,-488.39 -156.75,-527.84l-26.58 16.91c23.83,63.87 41.25,190.66 57.75,263.92 20.17,94.86 37.58,187.84 62.33,278.01l112.75 -33.82 -14.66 -38.5z"/>
   <path class="fil53" d="M1396.21 890.09l19.25 31.93c44.91,-24.42 39.41,6.58 63.25,-48.84 7.33,-17.84 8.25,-38.5 16.5,-58.23l38.5 -44.14 11 -20.66 -24.75 -16.91c-55,-39.45 -29.34,-13.15 -76.09,-32.87 -86.16,-36.63 49.5,46.02 -33.91,-20.66l-6.42 0.94c-8.25,83.59 -24.75,113.64 -7.33,209.44z"/>
   <path class="fil54" d="M1451.21 1624.55c18.33,69.51 33,137.13 48.58,208.51 8.25,34.75 11.92,66.68 21.08,103.31 15.59,58.23 24.75,43.21 34.84,87.35 43.99,-18.78 39.41,32.87 33.91,-39.45 -31.16,-2.81 -6.42,4.7 -8.25,-9.39 -15.58,-82.65 -41.25,-149.33 -60.5,-240.44 -13.75,-67.62 -9.16,-133.37 -8.25,-137.12l4.59 -133.37c-35.75,45.08 -23.84,59.17 -21.09,122.1 -17.41,15.96 1.84,7.51 -36.66,0.94 22,57.29 11.91,22.54 -8.25,37.56z"/>
   <path class="fil55" d="M843.46 3120.72c16.5,11.27 0.92,6.58 28.42,13.15 3.67,1.88 18.33,2.82 23.83,3.76 11.92,0.94 49.5,1.88 63.25,1.88 46.75,-0.94 77.92,-1.88 124.67,1.87l15.58 -7.51c-18.33,-36.63 36.67,24.42 -15.58,-22.54l-40.34 -14.09c40.34,-85.47 -11,-86.41 -24.75,-97.68 -1.83,-1.88 -4.58,-4.69 -6.41,-5.63 -46.75,-38.51 -33.92,-29.12 -89.84,-36.63 23.84,65.74 -21.08,7.51 40.34,68.56l-33.92 7.51c50.42,33.82 37.58,8.46 11,70.44l-96.25 16.91z"/>
   <path class="fil56" d="M338.38 705.06l-13.75 15.03c11.92,46.96 0,15.03 18.34,19.73 58.66,15.96 -11,-4.7 59.58,-11.27 15.58,-0.94 -20.17,13.14 30.25,-3.76l15.58 0.94c17.42,-23.48 24.75,-24.42 45.84,-37.57 36.66,-22.54 6.41,-15.03 46.75,-20.66l51.33 49.77 14.66 -34.75c7.34,-13.15 19.25,-24.42 29.34,-48.84 -22.92,-19.72 11,-9.39 -44.92,-23.48 -26.58,-6.57 -66.91,7.52 -66.91,7.52l-65.09 -9.39 -6.41 1.87c-19.25,54.48 -46.75,84.53 -114.59,94.86z"/>
   <path class="fil57" d="M937.88 677.83c29.33,13.15 15.58,6.57 32.08,20.66 29.33,22.54 37.58,43.2 49.5,75.14 -70.58,49.78 -201.66,0.94 -220,87.34 58.67,-11.27 45.84,-13.14 87.09,-27.23 3.66,-0.94 32.08,-10.33 46.74,-9.4 112.75,8.46 27.5,-9.39 64.17,27.24l79.75 11.27c-2.75,-44.14 -16.5,-22.54 -2.75,-86.41 -26.58,-74.19 -9.17,-12.2 1.83,-37.56 -3.66,-2.82 -10.08,26.29 -2.75,-5.64l13.75 -15.97 -10.08 -15.96c-76.08,-6.58 -11,-20.66 -105.42,-23.48 -58.66,-0.94 -39.41,11.27 -94.41,-15.03l60.5 15.03z"/>
   <path class="fil58" d="M2484.28 2753.49c-18.33,15.03 -1.83,-5.64 -17.42,23.48 -4.58,10.33 -7.33,19.72 -11,27.24 -5.5,10.33 -0.91,20.66 -42.16,38.5 3.66,1.88 22,0 26.58,0.94 -1.83,2.82 -4.58,7.52 -6.42,9.4l-17.41 27.23c-10.09,14.09 -13.75,16.91 -21.09,30.06l61.42 -31.94 64.17 -46.96c2.75,-0.94 6.41,-2.81 9.16,-3.75 3.67,-1.88 14.67,-5.64 17.42,-7.52l85.25 -56.35c3.66,-1.88 15.58,-7.51 19.25,-9.39 -44,-27.24 -62.34,1.88 -75.17,10.33l82.5 -79.83c-38.5,18.78 -79.75,29.11 -113.66,57.29 -1.84,0.94 -4.59,3.75 -6.42,5.63 -57.75,48.84 22,17.85 -70.58,44.15 35.75,-100.5 -7.34,-28.18 120.08,-78.9 47.66,-19.72 56.83,-33.81 70.58,-60.11l-17.42 -1.88c-43.08,4.7 -44.91,25.36 -79.74,56.36 -8.25,8.45 -11,11.27 -21.09,17.84 -28.41,19.73 -15.58,15.03 -56.83,28.18z"/>
   <path class="fil59" d="M1221.13 474.96c30.24,12.21 11,-19.73 35.74,37.57l14.67 45.08 -2.75 -35.69 3.67 -25.36c4.58,-0.94 16.5,-3.76 18.33,-4.7 42.17,-23.48 0.92,5.64 18.33,-14.08l-14.66 -36.63 42.16 -82.65c-50.41,23.48 -48.58,61.98 -78.83,104.25 -16.5,-54.48 -42.16,-102.38 -50.41,-163.43 -1.84,-4.69 -16.5,-35.69 -17.42,-38.5 -1.83,-48.84 -33.92,-14.09 22.92,-36.63 -23.84,-37.57 -20.17,-46.96 -66.92,-34.75 10.08,55.41 55.92,256.4 75.17,285.52z"/>
   <path class="fil60" d="M1138.63 2434.16l0.91 167.18c116.42,-2.82 62.34,-39.45 91.67,-4.7 24.75,29.12 1.83,8.45 11.92,10.33 45.83,-24.42 -6.42,15.03 7.33,-14.09 30.25,-66.68 29.33,-18.78 68.75,-79.83 -22,-26.3 4.58,-8.45 -42.17,-14.09l-12.83 33.81c-55,-44.14 -42.17,-30.99 -119.17,-43.2 16.5,-21.6 26.59,-30.06 30.25,-63.87l-36.66 8.46z"/>
   <path class="fil61" d="M2299.11 3133.87c97.17,10.33 97.17,-35.69 159.5,-74.2 106.34,-66.68 61.42,-70.44 162.25,-102.37 -1.83,4.69 -4.58,6.57 -6.42,15.03 -11.91,53.53 -111.83,77.01 -164.08,119.28 -27.5,22.54 -24.75,24.41 -58.66,43.2 60.5,8.45 91.66,-27.24 123.75,-55.41l58.66 -55.42c17.42,-14.09 4.59,-6.57 29.33,-20.66 26.59,-14.09 12.84,-0.94 43.09,-19.72l4.58 -73.26c-47.67,12.21 -25.67,7.51 -48.58,27.23l-203.5 139.95c-37.58,15.96 -72.42,32.87 -99.92,56.35z"/>
   <path class="fil62" d="M162.39 501.26c0.91,37.56 -7.34,69.5 -23.84,87.34 -32.08,32.87 -26.58,-4.69 -65.08,44.15 29.33,50.71 -3.67,3.75 46.75,39.44l-15.58 76.08 15.58 17.84 44 -16.9c0.92,-194.42 17.42,-188.78 63.25,-224.47 1.83,-0.94 4.58,-2.82 7.33,-4.7 -30.25,-12.21 -44.91,-22.54 -72.41,-18.78z"/>
   <path class="fil63" d="M1221.13 2270.73c-2.75,75.14 7.33,64.81 11,71.38 2.75,0 6.41,-3.75 8.25,-0.94 15.58,35.69 -15.59,0.94 48.58,-3.75 16.5,-0.94 22,0.94 37.58,-2.82 28.42,-5.64 13.75,0.94 33.92,-12.21 0,0 9.16,-15.97 -4.59,-48.84 -1.83,-2.82 -3.66,-5.63 -4.58,-9.39 -39.42,-67.62 -81.58,-31.93 -105.42,-8.45l-0.91 -40.39c-39.42,0 -25.67,13.15 -23.83,55.41z"/>
   <path class="fil64" d="M1272.46 496.56c42.16,15.03 58.66,34.75 78.83,81.71l42.17 14.09c2.75,0.94 6.41,2.82 10.08,3.76l-9.17 38.5c-1.83,4.7 -12.83,25.36 -16.5,37.57l25.67 8.46 6.42 -0.94 0 -9.4c17.41,-46.02 15.58,-37.56 46.75,-52.59l107.25 -31 -37.59 -12.21 -91.66 25.36c-35.75,-58.23 -71.5,-47.9 -110,-121.16l-15.59 -0.93c-17.41,19.72 23.84,-9.4 -18.33,14.08 -1.83,0.94 -13.75,3.76 -18.33,4.7z"/>
   <path class="fil65" d="M1135.88 1217.88c11,8.45 26.58,25.35 42.16,39.44 13.75,1.88 33,4.7 46.75,0.94 38.5,-12.21 4.59,9.39 29.33,-19.72l-69.66 3.75c12.83,-58.23 24.75,-36.62 26.58,-85.46 0,-27.24 -8.25,-48.84 -5.5,-90.17l-2.75 -0.94c-35.75,19.73 -65.08,100.5 -66.91,152.16z"/>
   <path class="fil66" d="M1199.13 761.42c40.33,20.66 21.08,15.96 51.33,9.39 7.33,-1.88 36.66,-34.75 44.91,-2.82 8.25,-13.15 6.42,-3.75 16.5,-36.63l-4.58 -60.11c-87.08,22.54 -125.58,-6.57 -108.16,90.17z"/>
   <path class="fil67" d="M243.05 989.65c-17.41,38.5 6.42,27.23 -40.33,34.75l21.08 45.08 85.25 -24.42c14.67,-7.51 0.92,-4.7 32.08,-13.15l2.75 -43.2 44 0.94c-11,-6.58 -1.83,-9.4 -36.66,-15.03 -0.92,-0.94 -37.59,-0.94 -39.42,-0.94 -49.5,8.45 -34.83,16.91 -44,38.51l-24.75 -22.54z"/>
   <path class="fil68" d="M48.72 788.65l-6.42 31.94c61.42,-34.75 97.17,-31 110.92,46.02 14.67,43.2 19.25,61.05 47.67,82.65 -16.5,-77.95 -44,-103.31 -36.67,-200.05l-44 16.9 -15.58 -17.84c-22,8.45 -5.5,4.69 -25.67,20.66 -27.5,22.54 22.92,-1.88 -30.25,19.72z"/>
   <path class="fil69" d="M652.8 2401.28l1.83 75.14 9.17 1.88c-7.34,-55.41 13.75,-71.38 55,-114.58l43.08 -36.63c17.42,-12.21 35.75,-23.48 63.25,-38.51 27.5,-15.97 22.92,-15.03 49.5,-38.51 56.83,-49.78 55,-22.54 31.17,-39.45 -41.25,31.94 -89.84,55.42 -135.67,87.35 -71.5,48.84 -69.67,35.69 -117.33,103.31z"/>
   <path class="fil70" d="M375.97 883.52l248.41 36.62 -0.92 -43.2 -5.5 -11.27c-54.99,1.88 -48.58,20.66 -113.66,15.97 -3.67,0 -64.17,-7.52 -65.08,-7.52 -50.42,-10.33 -0.92,13.15 -51.34,-25.36l-11.91 34.76z"/>
   <path class="fil71" d="M858.13 752.96l58.66 -6.57 21.09 -68.56 -60.5 -15.03 -31.17 9.39c-2.75,43.21 3.67,38.51 11.92,80.77z"/>
   <path class="fil72" d="M71.64 861.91l31.16 -16.9c33,18.78 9.17,8.45 50.42,21.6 -13.75,-77.02 -49.5,-80.77 -110.92,-46.02l6.42 -31.94 -18.33 -16.9c3.66,51.66 11,47.9 2.75,82.65 12.83,19.72 0.91,1.88 38.5,7.51z"/>
   <path class="fil73" d="M786.63 2381.56c52.25,-5.64 98.08,-18.78 121.92,-108.01 -85.25,29.12 -22.92,15.97 -69.67,42.27 -54.08,30.99 -38.5,-28.18 -52.25,65.74z"/>
   <path class="fil74" d="M606.05 734.18l-6.42 42.26c22.92,16.91 2.75,-10.33 24.75,28.18 1.83,2.82 6.42,15.03 8.25,18.79l22.92 27.23 0 -69.5c11.91,0.94 22,0.94 33.91,0 1.84,-0.94 7.34,0 8.25,-2.82 1.84,-3.75 4.59,-2.81 7.34,-3.75 -28.42,-13.15 -1.84,-8.46 -50.42,-13.15l13.75 -6.58 4.58 -30.99c-31.16,3.76 -33,6.57 -66.91,10.33z"/>
   <path class="fil75" d="M886.55 528.49l13.75 23.48c10.99,-14.09 31.16,20.67 18.33,-48.84l-9.17 -6.57c-21.08,-22.54 -24.75,-32.87 -40.33,-52.6 -21.08,-25.36 -20.17,-24.42 -32.08,-46.02 -4.59,16.91 -15.59,31.94 1.83,73.26l47.67 57.29z"/>
   <path class="fil76" d="M1121.21 1268.59c-27.5,19.73 -32.08,6.58 -0.92,18.79 55,-1.88 33.92,5.63 72.42,12.21 29.33,5.63 47.67,0 60.5,-15.97 -4.59,-55.41 -75.17,57.29 -75.17,-26.3 -15.58,-14.09 -31.16,-30.99 -42.16,-39.44l-23.84 0c21.09,26.29 18.34,0.93 9.17,50.71z"/>
   <path class="fil77" d="M936.96 510.65l18.33 57.29 40.34 -51.66 -1.84 -60.11 -4.58 -16.9c-60.5,40.38 1.83,32.87 -52.25,71.38z"/>
   <path class="fil78" d="M70.72 968.98l25.67 33.82 13.75 -11.28 31.16 -57.29c-24.75,-23.48 18.34,-41.32 -38.5,-20.66 -61.41,23.48 4.59,4.7 -32.08,55.41z"/>
   <path class="fil79" d="M34.05 587.66c44,-21.6 46.75,-14.09 71.5,-61.99l-84.33 -5.63 12.83 67.62z"/>
   <path class="fil80" d="M1051.54 505.95l-2.75 14.09c38.5,21.6 56.84,35.69 91.67,52.6l-28.42 -68.57 -60.5 1.88z"/>
   <path class="fil81" d="M995.63 516.28l53.16 3.76 2.75 -14.09c0.92,-31.93 6.42,-15.03 -7.33,-32.87 -51.33,-3.76 -11,0 -50.42,-16.91l1.84 60.11z"/>
   <path class="fil82" d="M2073.62 2775.09l14.66 9.39 72.42 -26.3 -23.83 -23.48c-33.92,12.21 -44.92,13.15 -63.25,40.39z"/>
   <path class="fil83" d="M474.97 544.46c22.91,-18.79 17.41,-9.39 35.75,-15.03l9.16 -30.05 31.17 -6.58c5.5,-41.32 4.58,-11.27 -10.08,-18.78 -40.34,24.42 -53.17,24.42 -66,70.44z"/>
   <path class="fil84" d="M1077.21 701.31l10.08 15.96c18.34,-7.51 5.5,29.12 28.42,-31.93 -20.17,-15.97 36.67,-15.03 -44,-15.97l5.5 31.94z"/>
   <path class="fil85" d="M218.3 679.71l44 -3.76c17.42,-21.6 27.5,-29.12 35.75,-63.87 -25.67,21.6 -5.5,12.21 -35.75,33.81 -27.5,20.67 -19.25,0.94 -44,33.82z"/>
   <path class="fil86" d="M318.22 849.7l-5.5 -41.32 -40.34 -15.03c17.42,45.08 11,32.87 45.84,56.35z"/>
   <path class="fil87" d="M2125.87 2813.6c10.08,24.42 -22,20.66 35.75,16.9 22,-14.08 8.25,-9.39 22.91,-33.81 -36.66,13.15 -32.08,12.21 -58.66,16.91z"/>
   <path class="fil88" d="M663.8 2478.3c38.5,62.93 31.16,9.39 31.16,9.39l-31.16 -9.39z"/>
  </g>
 </g>
</svg>
