<?xml version="1.0" encoding="UTF-8"?>
<!DOCTYPE svg PUBLIC "-//W3C//DTD SVG 1.1//EN" "http://www.w3.org/Graphics/SVG/1.1/DTD/svg11.dtd">
<!-- Creator: CorelDRAW 2017 -->
<svg xmlns="http://www.w3.org/2000/svg" xml:space="preserve" width="29.2098mm" height="29.3792mm" version="1.1" style="shape-rendering:geometricPrecision; text-rendering:geometricPrecision; image-rendering:optimizeQuality; fill-rule:evenodd; clip-rule:evenodd"
viewBox="0 0 2920.98 2937.92"
 xmlns:xlink="http://www.w3.org/1999/xlink">
 <defs>
  <style type="text/css">
   <![CDATA[
    .fil79 {fill:#25160B}
    .fil39 {fill:#2C2C2C}
    .fil30 {fill:#343433}
    .fil61 {fill:#349D9A}
    .fil35 {fill:#38332B}
    .fil71 {fill:#3A3734}
    .fil34 {fill:#424242}
    .fil78 {fill:#46281B}
    .fil16 {fill:#464646}
    .fil33 {fill:#473937}
    .fil63 {fill:#53322C}
    .fil56 {fill:#553A37}
    .fil36 {fill:#595656}
    .fil64 {fill:#66544A}
    .fil4 {fill:#675956}
    .fil76 {fill:#6B6B6B}
    .fil77 {fill:#73493A}
    .fil1 {fill:#787777}
    .fil82 {fill:#79736A}
    .fil47 {fill:#848484}
    .fil74 {fill:#866966}
    .fil80 {fill:#988479}
    .fil55 {fill:#A3A3A3}
    .fil54 {fill:#A87A76}
    .fil67 {fill:#A8A7A7}
    .fil66 {fill:#AA6B66}
    .fil59 {fill:#B3B4B4}
    .fil19 {fill:#B7766B}
    .fil9 {fill:#B87A76}
    .fil5 {fill:#B88579}
    .fil2 {fill:#B89995}
    .fil75 {fill:#B8A9A6}
    .fil68 {fill:#B8B7B8}
    .fil26 {fill:#B98885}
    .fil65 {fill:#BCBCBC}
    .fil10 {fill:#C78679}
    .fil14 {fill:#C78986}
    .fil43 {fill:#C89589}
    .fil73 {fill:#CA898F}
    .fil69 {fill:#CBCBCB}
    .fil24 {fill:#D89688}
    .fil60 {fill:#D8A698}
    .fil72 {fill:#D9B6A8}
    .fil44 {fill:gainsboro}
    .fil49 {fill:#E5E8E7}
    .fil18 {fill:#E6A896}
    .fil3 {fill:#E6ACA4}
    .fil46 {fill:#E8A58B}
    .fil8 {fill:#E8B8A7}
    .fil6 {fill:#E8CAC4}
    .fil62 {fill:#E9B598}
    .fil15 {fill:#ECAB94}
    .fil13 {fill:#ECAC9B}
    .fil29 {fill:#ECB39C}
    .fil81 {fill:#EFEFF1}
    .fil70 {fill:#F2F3F2}
    .fil52 {fill:#F3B3A3}
    .fil20 {fill:#F4B39C}
    .fil48 {fill:#F4BBA4}
    .fil17 {fill:#F4BCAB}
    .fil40 {fill:#F4C3AC}
    .fil22 {fill:#F4CCBB}
    .fil0 {fill:#F4D4CB}
    .fil57 {fill:#F5B69A}
    .fil50 {fill:#F5CBC5}
    .fil53 {fill:#F5DAC8}
    .fil21 {fill:#F7DBD5}
    .fil58 {fill:#F7E5D7}
    .fil42 {fill:#F8E9E6}
    .fil51 {fill:#F9C5BA}
    .fil7 {fill:#F9F9F9}
    .fil28 {fill:#FBC5B2}
    .fil27 {fill:#FBD4C4}
    .fil41 {fill:#FBFBFB}
    .fil38 {fill:#FBFCFB}
    .fil25 {fill:#FCCCBB}
    .fil45 {fill:#FDD5CA}
    .fil23 {fill:#FDDBCB}
    .fil11 {fill:#FDDBD2}
    .fil32 {fill:#FDFDFD}
    .fil37 {fill:#FED2C2}
    .fil12 {fill:#FEF3EB}
    .fil31 {fill:#FEFEFE}
   ]]>
  </style>
 </defs>
 <g id="Capa_x0020_1">
  <metadata id="CorelCorpID_0Corel-Layer"/>
  <g id="_1368055764144">
   <g>
    <path class="fil0" d="M2463.58 526.91c-30.31,-55.02 -40.71,-63.9 -109.13,-75.43 12.99,15.97 3.46,7.1 21.65,22.18 12.13,10.65 19.06,12.43 28.58,22.19 42.44,39.05 0,29.29 58.9,31.06z"/>
    <path class="fil0" d="M1916.17 1136.6c13.86,52.36 0.87,23.96 26.85,39.94 21.66,-39.05 24.25,-19.53 44.18,-67.45l-71.03 27.51z"/>
   </g>
   <g>
    <path class="fil1" d="M2506.89 2145.65c27.72,16.87 -6.06,6.22 42.44,12.43 18.19,-19.53 7.8,0.89 12.13,-36.39 -39.85,-29.28 -25.12,-39.93 -82.29,-50.58 19.06,61.23 15.59,16.86 27.72,74.54z"/>
    <path class="fil1" d="M1345.37 1894.5c17.33,15.98 4.34,11.54 37.25,18.64 7.79,1.77 27.72,1.77 41.57,4.43 -15.59,4.44 -11.26,0 -28.58,28.4 38.98,-10.65 4.33,-3.55 50.24,-8.87 49.37,-5.33 -8.66,3.55 38.11,-2.66 -9.53,-70.11 1.73,-23.96 -25.12,-37.28l-40.71 -8.87c-15.59,12.42 15.59,8.87 -35.51,12.42 -25.99,1.78 -15.59,-0.88 -37.25,-6.21z"/>
   </g>
   <g>
    <path class="fil2" d="M2523.35 1898.94l-0.87 -36.39 -34.65 -16.86c-61.49,-10.65 -28.58,-17.75 -84.01,-31.95 42.44,66.56 21.65,79.87 119.53,85.2z"/>
    <path class="fil2" d="M2783.19 1677.96c33.78,-31.06 25.99,-55.02 19.92,-101.17 0.87,-75.44 3.47,-22.19 -12.99,-36.39 -27.71,46.15 -23.38,63.9 -25.98,120.7l19.05 16.86z"/>
   </g>
   <g>
    <path class="fil3" d="M2634.21 818.89c3.47,44.37 6.93,33.72 44.18,40.82 0,0 -3.47,-48.81 54.57,6.21 85.75,80.76 -58.9,13.32 50.23,32.84 -18.19,-57.68 -48.5,-71.88 -101.34,-95.85 -40.71,6.22 -19.05,-2.66 -47.64,15.98z"/>
    <path class="fil3" d="M35.75 2765.99c45.9,-20.41 22.52,-7.98 47.64,-37.27 29.44,-35.5 24.25,-11.54 33.78,-64.78l-81.42 38.16 0 63.89z"/>
    <path class="fil3" d="M2312.87 1116.19l38.98 57.69 48.5 0.88c22.52,-21.3 17.33,22.19 17.33,-19.52 -85.75,-8.88 -29.45,-31.95 -97.01,-55.02 -9.53,8.87 -14.73,-28.4 -7.8,15.97z"/>
   </g>
   <g>
    <path class="fil4" d="M404.73 1977.04c19.92,-24.85 6.06,-6.22 19.05,-28.4l4.34 21.3c25.11,-38.17 22.52,-102.06 30.31,-150.87l-1.73 -23.08 -38.11 10.65 -13.86 170.4z"/>
    <path class="fil4" d="M1004.98 1419.71c-1.74,2.66 -5.2,3.54 -5.2,8.87 -0.87,4.44 -3.47,7.1 -4.33,8.87 -5.2,15.98 -3.47,7.99 -7.8,30.18 41.58,-19.53 39.85,-27.51 61.5,-57.69l-44.17 9.77z"/>
   </g>
   <g>
    <path class="fil5" d="M1949.95 1418.82c44.17,61.23 106.54,32.83 177.56,64.78 50.24,5.33 38.11,8.88 55.44,-16.86 -17.33,1.78 -12.13,5.33 -12.13,-12.42 -34.65,-12.43 -29.45,-5.33 -64.09,-12.43 -35.52,-6.21 -4.34,5.33 -45.91,-18.64 -41.58,-23.96 -45.04,-16.86 -95.28,-36.38l-6.06 16.86c-11.26,29.29 9.53,17.75 -9.53,15.09z"/>
    <path class="fil5" d="M1651.99 881.01c50.24,8.88 55.44,31.95 83.15,68.34l38.98 -15.98c-0.86,-1.77 -2.6,-7.1 -3.46,-6.21l-24.26 -43.49c-48.5,-18.63 -65.82,-42.59 -121.26,-39.93l26.85 37.27z"/>
   </g>
   <g>
    <path class="fil6" d="M458.43 1819.07c-7.79,48.81 -5.2,112.7 -30.31,150.87l13.85 43.48c60.63,-90.52 13,-159.74 83.15,-290.2l104.81 -30.17c14.72,-86.98 47.64,-46.15 67.56,-137.56 19.06,-12.43 12.13,-0.89 32.91,-7.1l-3.46 0c-50.24,27.51 -82.29,92.29 -144.65,132.23 -84.02,53.25 -100.47,23.96 -123.86,138.45z"/>
    <path class="fil6" d="M2127.51 1483.6c29.45,76.33 26.85,51.48 44.18,63.9l33.78 -67.45c-12.13,-23.07 19.92,-28.4 -22.52,-13.31 -17.33,25.74 -5.2,22.19 -55.44,16.86z"/>
   </g>
   <g>
    <path class="fil7" d="M2489.57 1922.9l4.33 31.06c32.91,11.54 77.08,31.06 106.53,45.26l5.2 33.73c2.6,1.77 5.2,2.66 6.06,7.1l34.65 21.29 14.72 -55.91 -25.98 -55.02c28.58,-27.51 26.85,-25.74 51.97,-40.82 6.93,-19.53 -9.53,-7.1 10.39,-19.53 -81.42,23.08 -113.46,49.7 -207.87,32.84z"/>
    <path class="fil7" d="M1944.75 611.22l-75.35 59.46c12.12,27.51 54.57,82.54 82.28,121.58 -10.39,-86.97 -24.25,-134.89 55.44,-173.05l14.72 -44.38c-71.89,4.44 -29.45,-6.21 -77.09,36.39z"/>
   </g>
   <g>
    <path class="fil8" d="M1753.33 741.68l86.62 42.6c-25.99,13.31 -75.36,65.67 -93.55,99.39l24.26 43.49c0.86,-0.89 2.6,4.44 3.46,6.21 41.58,-22.18 19.06,-27.51 83.15,-85.19 10.4,-21.3 25.12,-55.03 33.78,-70.11 -9.53,-29.29 0.87,-30.18 -29.45,-47.93l-136.85 -3.55c0,23.08 -4.33,12.43 28.58,15.09z"/>
    <path class="fil8" d="M1321.12 1442.78c41.58,14.2 19.06,10.65 73.63,6.21l0 -10.65c95.27,-8.87 72.75,67.45 138.58,38.16 -60.63,-23.07 -15.59,-0.88 -27.72,-39.93l-12.12 -27.51c-19.92,-39.94 0,-8.88 -22.52,-37.28l-38.11 3.55c-14.73,0.89 -35.52,6.21 -38.11,7.1l-73.63 60.35z"/>
   </g>
   <g>
    <path class="fil9" d="M2285.15 1043.42c3.47,41.71 0,49.7 27.72,72.77 -6.93,-44.37 -1.73,-7.1 7.8,-15.97 67.56,23.07 11.26,46.14 97.01,55.02 0,41.71 5.19,-1.78 -17.33,19.52l23.39 15.09c-2.6,-50.59 -19.92,-102.06 -22.52,-131.34 -3.47,-39.94 31.18,-65.68 45.04,-103.84 -10.4,-17.75 -9.53,-2.66 19.05,-59.46 -32.91,7.1 -33.78,7.99 -52.83,30.18 -38.98,43.48 -50.24,107.38 -78.82,142.88l-48.51 -24.85z"/>
    <path class="fil9" d="M881.98 1385.98c-34.65,22.19 -100.47,72.77 -128.19,111.82l-26.85 50.59 3.46 0c31.19,15.08 53.71,16.86 82.29,-5.33 23.38,-18.63 32.91,-39.05 54.57,-60.34l63.23 -71.89c2.59,-2.66 5.19,-4.44 7.79,-6.21 2.6,-2.66 5.2,-4.44 7.8,-7.1l-64.1 -11.54z"/>
   </g>
   <g>
    <path class="fil10" d="M1143.56 2465.14l1.73 16.86c24.25,-23.07 24.25,-19.52 55.44,-42.59 23.38,-17.75 28.58,-23.97 49.37,-52.36 22.52,-29.29 45.9,-98.51 67.56,-146.44 -82.29,28.4 18.19,36.39 -66.7,35.5l0 -80.76c-71.89,53.25 -40.71,165.07 -107.4,269.79z"/>
    <path class="fil10" d="M1024.03 2576.08l-3.46 2.66c-14.73,30.17 -3.47,8.87 -16.46,29.29 -1.73,3.55 -8.66,13.31 -10.39,15.97 -12.13,17.75 -17.33,22.19 -26.86,35.5l-23.38 22.19c-2.6,1.77 -5.2,4.43 -8.66,6.21l-69.3 17.75c-17.32,-1.78 -5.19,3.55 -29.45,-11.54l-31.18 63.9 141.19 -21.3c66.69,-20.41 39.84,-20.41 70.16,-76.32 20.78,-38.17 29.44,-35.5 32.91,-97.63 -6.06,24.85 1.73,0 -25.12,13.32z"/>
    <path class="fil10" d="M1792.31 1036.32c32.05,6.21 16.46,-35.5 36.38,23.96 78.82,-12.42 8.66,5.33 40.71,-37.27l-8.66 -24.85c-10.4,-2.66 -1.74,-0.89 -14.73,-9.76 -13.86,-7.99 0,-4.44 -23.38,-14.2 -17.33,-7.99 -17.33,-2.67 -40.71,-11.54l-40.71 0.89 51.1 72.77z"/>
   </g>
   <g>
    <path class="fil11" d="M2422.01 1421.48c-21.66,30.17 -12.13,22.19 -8.67,70.11 84.89,33.72 25.12,-3.55 71.9,53.25 38.11,47.03 46.77,16.86 103.93,40.82l-5.19 -49.7c-32.92,-157.08 -101.34,-124.24 -161.97,-114.48z"/>
    <path class="fil11" d="M1030.09 2300.07l32.92 31.95c26.85,2.67 9.53,-37.27 27.71,26.63 0.87,-9.77 1.74,-29.29 0.87,-42.6 -0.87,-10.65 -19.05,-23.08 22.52,-63.01l-21.65 -43.49 -105.67 41.71c17.32,33.73 -4.33,3.55 16.45,25.74 0,0.89 25.99,23.07 26.85,23.07z"/>
   </g>
   <g>
    <path class="fil12" d="M1693.57 614.77l-31.18 -22.19 58.03 -31.06c19.06,-7.98 46.77,-15.97 66.69,-21.3l-26.85 0.89c-31.18,-4.44 -35.51,1.78 -74.49,-9.76 -43.3,-13.31 -45.9,-15.09 -60.63,-35.5l124.73 24.85c-18.19,-27.51 17.32,-31.06 -19.92,-23.07 69.29,-23.08 11.26,-14.2 58.03,-52.37l28.58 32.84 -6.06 -55.02c-97.01,-35.5 -229.53,100.28 -230.4,118.03 16.46,51.47 59.77,82.54 113.47,73.66z"/>
    <path class="fil12" d="M738.2 2452.72l-21.65 37.27c-4.34,37.28 -6.07,86.97 41.57,75.44 25.12,-6.22 58.03,-50.59 78.82,-71.89l18.19 -72.77c-35.51,24.85 -71.02,23.07 -116.93,31.95z"/>
   </g>
   <g>
    <path class="fil13" d="M1120.17 1956.62c21.66,20.42 35.52,23.08 68.43,39.94l-3.46 -141.11c-99.61,-46.15 -222.61,-55.91 -348.2,-59.46l-11.26 25.74c148.11,55.02 165.44,15.09 201.82,65.67 12.12,-11.54 8.66,-13.31 27.71,-18.64 22.52,-5.32 43.31,-2.66 65.83,-1.77l-0.87 89.63z"/>
    <path class="fil13" d="M1250.96 2195.35l0 80.76c84.89,0.89 -15.59,-7.1 66.7,-35.5l3.46 1.78c-17.32,-12.43 -18.19,0 -0.86,-10.65l5.19 -47.92 -38.97 9.76c0.86,-40.83 11.26,-7.99 -23.39,-25.74 -18.19,7.1 -13.86,-13.31 -12.13,27.51z"/>
   </g>
   <g>
    <path class="fil14" d="M256.62 2418.11l19.92 56.8c0.86,2.66 1.73,6.21 2.6,9.76 64.96,-15.09 70.16,-47.04 64.09,-104.72 72.76,-3.55 84.89,-32.84 75.36,-102.06 -6.93,2.66 -28.59,5.32 -38.98,13.31l0.87 7.99c-5.2,4.43 -23.39,14.2 -26.85,15.97 8.66,-31.06 17.32,-57.68 28.58,-89.63 34.65,-95.85 14.72,-72.78 -6.93,-94.96 -16.46,95.84 -86.62,189.92 -118.66,287.54z"/>
    <path class="fil14" d="M491.34 1944.2l9.53 50.58c9.53,-16.86 33.78,-12.42 46.77,-85.19 8.67,-50.59 -14.72,-16.86 3.47,-78.1 13.86,-45.26 0.87,13.31 9.53,-16.86 1.73,-3.55 7.79,-41.71 8.66,-54.14l-30.32 4.44c-35.51,44.37 -35.51,111.82 -47.64,179.27z"/>
    <path class="fil14" d="M2184.68 402.67l72.76 -8.88c-15.59,-29.29 -26.85,-28.4 -46.78,-58.57 -30.31,-45.26 -18.19,-40.83 -72.75,-55.91 -32.05,23.07 -19.06,-4.44 -42.44,38.16l54.56 12.42c12.13,50.59 14.73,41.71 34.65,72.78z"/>
   </g>
   <g>
    <path class="fil15" d="M173.47 2710.08c-38.12,11.54 -60.64,59.46 -80.56,91.41l-56.3 2.67 6.93 110.93c2.6,-2.66 7.8,-4.44 10.4,-5.33 3.46,-0.88 7.79,-2.66 11.26,-4.43 4.33,-0.89 6.93,-1.78 11.26,-2.67l64.09 -1.77c35.51,-0.89 53.7,-3.55 88.35,-13.31l-9.53 -29.29c-0.86,-1.77 -1.73,-5.32 -1.73,-7.1 -16.46,-62.12 -25.99,-39.05 -32.91,-66.56 51.97,-24.85 28.58,-28.4 107.4,-63.01 -3.47,-57.68 -20.79,-4.44 -38.11,-50.58 -21.66,29.28 -1.73,-1.78 -20.79,31.06l-84.02 55.91 24.26 -47.93z"/>
    <path class="fil15" d="M1352.3 2079.09c0,37.28 8.67,30.18 -27.71,22.19l41.57 32.84c-36.38,17.75 -4.33,6.21 -46.77,17.75 12.99,14.2 3.46,15.08 13.86,34.61l51.1 -21.3c1.73,1.77 8.66,7.99 12.13,10.65 46.77,-38.16 205.28,-104.72 234.73,-145.55l-20.79 -26.62c-90.08,0.89 -181.89,40.82 -258.12,75.43z"/>
    <path class="fil15" d="M730.4 2011.65l-50.23 79.87 21.65 7.1c41.58,-3.55 38.11,-2.66 84.88,-10.65l-6.06 2.66 31.18 -31.95 24.25 -20.41c-43.3,-46.15 -25.98,-3.55 -23.38,-50.59 0.86,-8.87 19.05,-55.91 23.38,-65.67l-37.24 -7.98c-45.04,0 -14.72,-16.87 -40.71,46.14 -8.66,20.42 -11.26,31.06 -27.72,51.48z"/>
    <path class="fil15" d="M2441.06 1220.91l5.2 23.08c27.72,21.3 78.82,60.34 123.86,32.83 -6.93,-37.27 6.06,-10.65 -21.66,-34.61l-97.87 -77.21 -9.53 55.91z"/>
   </g>
   <g>
    <path class="fil16" d="M2739.02 1898.94l-51.97 10.65 26.85 43.48c1.73,1.78 5.2,5.33 7.8,7.99 -11.26,47.92 -12.13,54.14 -19.06,114.48 40.71,19.53 20.79,-3.55 55.43,24.85 66.7,-5.32 23.39,-6.21 123.86,114.49l-3.46 12.42c-0.87,-59.46 0.87,-93.18 10.39,-151.76 -29.45,87.86 -25.11,55.03 -35.51,61.24 -19.92,-63.01 -18.19,-9.76 -6.93,-78.1 0,-3.55 1.73,-7.1 1.73,-9.76 17.33,-96.73 -10.39,-78.1 -12.99,-150.87 64.1,0 3.47,2.66 29.45,-13.31l-38.98 -1.78c-22.52,43.49 0.87,23.97 -52.83,36.39 -36.38,7.99 19.05,7.1 -38.11,5.32l4.33 -25.73z"/>
    <path class="fil16" d="M2803.11 1576.79c6.07,46.15 13.86,70.11 -19.92,101.17l-21.65 3.55c23.39,24.85 11.26,-7.99 14.72,39.93 -3.46,62.13 0.87,26.63 -13.85,41.72l-11.26 51.47c32.04,-7.99 16.45,26.62 25.98,-11.54l8.66 13.31 31.18 -60.34c59.77,-17.75 58.04,0.88 53.7,2.66 -7.79,-97.62 -5.19,-15.98 20.79,-50.59 6.93,-0.89 -10.39,0.89 -1.73,-17.75 1.73,-1.77 4.33,-7.1 6.06,-9.76 1.74,-2.66 5.2,-7.1 8.66,-9.76l1.74 0 -42.44 -6.21 -10.4 38.16c-2.6,-1.78 -12.12,15.08 -23.38,-23.96 -13,-40.83 6.92,-71 29.44,-96.74 -6.06,-37.27 3.47,-76.32 -39.84,-87.86 -6.93,41.71 0.87,24.85 -3.46,48.81 -5.2,25.74 -4.33,19.53 -13,33.73z"/>
   </g>
   <g>
    <path class="fil17" d="M1936.96 282.86c-32.05,20.41 -45.04,6.21 -92.68,35.5 -21.65,13.31 -51.97,38.16 -77.09,62.12 76.22,32.84 47.64,22.19 95.28,55.91l50.24 5.32c-0.87,-55.02 -11.26,-42.59 -26.85,-94.95 101.34,4.43 214.8,-19.53 257.24,4.43 -19.05,35.5 -0.86,1.78 -28.58,31.95l-31.18 36.39c-1.73,1.77 -3.47,5.32 -6.06,7.99l19.92 26.62c30.31,-35.5 34.64,-33.72 87.48,-51.47 -19.92,-31.07 -22.52,-22.19 -34.65,-72.78l-54.56 -12.42c23.38,-42.6 10.39,-15.09 42.44,-38.16 -87.48,-23.96 -127.33,9.76 -200.95,3.55z"/>
    <path class="fil17" d="M2444.53 1017.68l-27.72 30.18 28.58 46.14c2.6,-3.55 6.93,-12.42 8.66,-9.76l19.93 -49.7 194.88 75.44c2.6,1.77 6.93,4.44 10.39,6.21l11.26 -36.39 14.73 49.7c32.05,-32.83 16.46,-45.26 37.24,-91.41 -27.71,-55.02 64.1,-117.14 -40.71,-160.63 -14.72,111.82 8.67,43.49 -84.88,112.71 -72.76,54.14 -72.76,63.9 -143.78,17.75 -32.05,19.52 -25.12,-34.61 -17.32,40.82 -13,-24.85 -13.86,31.06 -11.26,-31.06z"/>
   </g>
   <g>
    <path class="fil18" d="M1949.95 1418.82c19.06,2.66 -1.73,14.2 9.53,-15.09l6.06 -16.86c50.24,19.52 53.7,12.42 95.28,36.38 41.57,23.97 10.39,12.43 45.91,18.64 34.64,7.1 29.44,0 64.09,12.43 9.53,-4.44 19.06,-8.88 31.18,-16.87l-45.9 -39.93c-93.55,-1.78 -96.15,8.87 -181.03,-29.29l-13.86 -158.86c-45.91,34.62 20.79,-54.13 -24.25,40.83 -1.73,3.55 -4.33,7.99 -5.2,10.65 -1.73,3.55 -2.6,7.99 -5.2,11.54 0,-39.94 5.2,-67.45 16.46,-95.85 -25.98,-15.98 -12.99,12.42 -26.85,-39.94l-2.6 -24.85c12.13,-15.08 -0.86,-37.27 -2.6,-42.6 -19.92,-52.36 -4.33,-24.84 -41.57,-46.14 -32.05,42.6 38.11,24.85 -40.71,37.27 -19.92,-59.46 -4.33,-17.75 -36.38,-23.96 25.99,27.51 13.86,16.86 31.18,39.93 68.43,92.3 42.44,39.94 60.63,143.77 10.4,62.13 18.19,165.96 65.83,198.8z"/>
    <path class="fil18" d="M659.38 1801.32l-32.91 93.18c-5.2,-4.44 -12.13,-8.87 -13.86,-9.76l-21.66 32.83c28.59,18.64 19.06,-27.51 24.26,31.07 -17.33,25.73 -28.59,33.72 -50.24,57.68 -13.86,15.09 -27.72,36.39 -41.58,60.35l28.59 4.44c1.73,-0.89 5.19,-6.22 6.06,-3.55 0,0 56.3,-23.08 77.09,-54.14l45.04 -69.22c36.38,-38.16 6.93,-156.2 62.36,-149.98 9.53,0.88 19.92,4.43 26.85,6.21 35.51,6.21 7.8,16.86 57.17,0 -58.04,-47.92 -73.63,-47.92 -153.31,-46.15 -31.18,-7.1 -19.92,7.1 -38.98,-8.87l35.51 27.51c16.46,18.63 16.46,31.95 -10.39,28.4z"/>
    <path class="fil18" d="M972.06 1984.14c115.2,35.49 128.19,76.32 216.54,152.64 23.39,-22.19 8.66,-3.55 20.79,-35.5l6.06 63.01c18.19,-33.72 14.73,-42.6 11.26,-88.75 -48.5,-44.37 -36.38,-40.82 -99.61,-74.54 -54.56,-29.29 -88.34,-32.84 -132.52,-55.91 -4.33,1.77 -8.66,0.88 -9.53,8.87 -1.73,7.99 -5.19,7.99 -7.79,12.43 -1.73,6.21 -2.6,11.53 -5.2,17.75z"/>
    <path class="fil18" d="M1024.03 2576.08c26.85,-13.32 19.06,11.53 25.12,-13.32 -3.47,62.13 -12.13,59.46 -32.91,97.63 -30.32,55.91 -3.47,55.91 -70.16,76.32 70.16,-22.19 76.22,-47.04 101.34,-95.85 12.99,-24.85 30.31,-44.37 39.84,-62.12 16.46,-31.95 4.33,-37.27 23.39,-69.22 -31.19,-6.22 -42.45,-7.99 -70.16,-9.77l-6.93 37.28c-2.6,26.62 8.66,3.55 -9.53,39.05z"/>
   </g>
   <g>
    <path class="fil19" d="M2441.06 1220.91l9.53 -55.91 97.87 77.21c27.72,23.96 14.73,-2.66 21.66,34.61 -45.04,27.51 -96.14,-11.53 -123.86,-32.83 19.05,69.22 8.66,64.78 77.95,83.42 46.77,13.31 97.88,34.61 129.93,-8.88 -26.86,-16.86 -11.26,-18.63 -17.33,-29.28l19.06 -66.56 23.38 -69.23c-25.11,-19.52 -10.39,22.19 -23.38,-21.29l-59.77 24.84c-48.5,26.63 -2.6,12.43 -91.81,-15.97l-78.82 -41.71 15.59 121.58z"/>
    <path class="fil19" d="M2115.39 997.27c22.52,-33.72 23.38,-9.76 -32.92,-122.47 38.11,3.55 20.79,2.66 57.17,18.64l-4.33 -76.33 -7.8 -16.86 -38.97 -11.54c-22.52,21.3 10.39,13.32 -25.99,9.77 -37.24,-4.44 -24.25,-31.06 -96.14,-47.04 18.19,54.14 45.9,93.19 63.23,132.23 37.24,81.65 18.19,62.13 85.75,113.6z"/>
   </g>
   <g>
    <path class="fil20" d="M173.47 2710.08l-24.26 47.93 84.02 -55.91c19.06,-32.84 -0.87,-1.78 20.79,-31.06 17.32,46.14 34.64,-7.1 38.11,50.58 -78.82,34.61 -55.43,38.16 -107.4,63.01 6.92,27.51 16.45,4.44 32.91,66.56 0,1.78 0.87,5.33 1.73,7.1l9.53 29.29 33.78 11.54c5.2,-45.27 6.06,-36.39 14.72,-65.68 0,-0.89 10.4,-29.28 13.86,-36.38 22.52,-49.7 0,-20.42 46.78,-49.7 -2.6,-63.01 -16.46,-53.25 -29.45,-88.75 50.23,-37.27 113.46,-64.78 105.67,-198.79 -45.04,17.75 -67.56,43.48 -76.22,105.61 -104.81,7.98 -67.56,-6.22 -105.68,63.89 -20.78,38.17 -39.84,18.64 -58.89,80.76z"/>
    <path class="fil20" d="M2445.39 1094c44.18,39.94 -0.86,32.84 58.9,47.04 89.21,28.4 43.31,42.6 91.81,15.97l59.77 -24.84c12.99,43.48 -1.73,1.77 23.38,21.29l0 -37.27c-3.46,-1.77 -7.79,-4.44 -10.39,-6.21l-194.88 -75.44 -19.93 49.7c-1.73,-2.66 -6.06,6.21 -8.66,9.76z"/>
   </g>
   <g>
    <path class="fil21" d="M1128.84 1618.5c66.69,18.63 194.88,-62.12 232.99,-94.96 13.86,39.05 13.86,0 -12.99,41.71 73.62,14.2 183.62,20.41 252.05,-20.41 42.44,-24.85 18.19,-24.85 51.1,-39.94 -22.52,-46.15 7.8,-11.54 -32.04,-36.38 -11.26,-6.22 -26.86,-7.1 -39.85,-10.65 -37.24,-8.88 -33.78,-13.32 -74.49,-21.3 12.13,39.05 -32.91,16.86 27.72,39.93 -65.83,29.29 -43.31,-47.03 -138.58,-38.16l0 10.65 -107.41 71c-68.42,68.33 -111.73,41.71 -158.5,98.51z"/>
    <path class="fil21" d="M1749.87 520.7c26.85,0.89 4.33,-5.33 10.39,20.41l26.85 -0.89c-19.92,5.33 -47.63,13.32 -66.69,21.3l-58.03 31.06 31.18 22.19 56.3 17.75c68.43,6.21 119.53,-25.74 164.57,-39.94l25.98 -9.76c-33.78,-27.51 47.64,-25.73 -64.96,-28.4 -43.31,0 13.86,11.54 -60.63,12.43 48.51,-34.61 23.39,4.44 32.91,-42.6 37.25,11.54 25.12,22.19 76.23,35.5 -45.04,-78.99 -40.71,-47.93 -80.56,-33.73 32.05,-54.13 32.92,-48.81 19.06,-67.44 -18.19,3.55 -6.93,0.88 -24.25,12.42 -8.66,4.44 -3.47,4.44 -13,7.99 -46.77,17.75 -6.92,6.21 -8.66,-0.89l-28.58 -32.84c-46.77,38.17 11.26,29.29 -58.03,52.37 37.24,-7.99 1.73,-4.44 19.92,23.07z"/>
    <path class="fil21" d="M1610.42 837.53l33.78 -26.63c0.86,-0.89 3.46,-2.66 4.33,-3.55l61.5 -41.71 -32.92 -30.17 76.22 6.21c-32.91,-2.66 -28.58,7.99 -28.58,-15.09 -18.19,-13.31 -41.57,-32.83 -62.36,-47.92 -23.39,-15.98 -37.25,-17.75 -65.83,-35.5 6.93,-29.29 -19.06,-18.64 7.79,-24.85 -17.32,-29.29 0.87,-10.65 -30.31,-23.96 -34.65,87.86 -16.46,173.06 36.38,243.17z"/>
   </g>
   <g>
    <path class="fil22" d="M1265.69 2088.86l-2.6 78.98c34.65,17.75 24.25,-15.09 23.39,25.74l38.97 -9.76 7.8 2.66c-10.4,-19.53 -0.87,-20.41 -13.86,-34.61 42.44,-11.54 10.39,0 46.77,-17.75l-41.57 -32.84 -19.92 -45.26c25.98,24.85 10.39,14.2 47.63,23.07 76.23,-34.61 168.04,-74.54 258.12,-75.43l20.79 26.62c29.45,-3.55 58.03,-14.2 77.08,-22.18 60.63,-25.74 31.19,7.1 55.44,-49.7l0 -15.09c-58.9,-22.19 -29.45,2.66 -66.7,7.1 -64.09,7.1 -161.97,-72.77 -380.24,76.32l-51.1 62.13z"/>
    <path class="fil22" d="M786.7 1759.61c43.31,4.43 113.47,8.87 155.91,8.87 59.77,0.89 64.96,-23.07 95.28,-55.91 114.33,-151.76 75.35,-122.47 90.95,-94.07 46.77,-56.8 90.08,-30.18 158.5,-98.51l107.41 -71c-54.57,4.44 -32.05,7.99 -73.63,-6.21 -55.43,47.92 -58.03,3.55 -140.32,74.55 -84.01,73.66 -148.97,86.08 -182.75,109.16l-110.87 100.28c-37.25,17.75 -5.2,-12.43 -87.48,24.85 -4.33,1.77 -9.53,4.44 -13,7.99z"/>
    <path class="fil22" d="M1860.74 998.16l8.66 24.85c37.24,21.3 21.65,-6.22 41.57,46.14 1.74,5.33 14.73,27.52 2.6,42.6 66.7,-15.08 129.06,-52.36 161.97,-91.41 -9.52,-21.3 -12.99,-26.62 -30.31,-52.36 -7.8,-11.53 -32.05,-39.93 -35.51,-43.48 -70.16,30.17 -17.33,-7.1 -40.71,46.15l-32.92 54.13c-1.73,-2.66 -5.19,5.33 -8.66,8.88l-54.57 -29.29c-2.6,-6.21 -7.79,-4.44 -12.12,-6.21z"/>
   </g>
   <g>
    <path class="fil23" d="M539.85 2891.13c57.17,-5.33 97.01,-34.61 157.64,-55.03 12.99,-23.96 -19.06,18.64 13.86,-15.08l42.44 -43.49c62.36,-80.76 78.82,-181.04 83.15,-283.99 -20.79,21.3 -53.7,65.67 -78.82,71.89 -47.64,11.53 -45.91,-38.16 -41.57,-75.44l-24.26 41.71c-6.06,21.3 7.8,57.69 -45.04,244.06 -57.16,-28.4 -118.66,44.37 -107.4,115.37z"/>
    <path class="fil23" d="M1037.02 2198.01c-25.98,-39.04 38.98,-30.17 -25.12,-30.17 -6.06,5.33 13.86,32.84 -21.65,6.21 -39.84,-31.06 -0.87,-96.73 -49.37,-34.61l-3.46 78.99c56.3,0 58.89,7.98 99.6,-20.42z"/>
   </g>
   <g>
    <path class="fil24" d="M418.59 2277.89c9.53,69.22 -2.6,98.51 -75.36,102.06 6.07,57.68 0.87,89.63 -64.09,104.72 -0.87,-3.55 -1.74,-7.1 -2.6,-9.76l-19.92 -56.8 -139.45 245.83c-9.53,53.24 -4.34,29.28 -33.78,64.78 -25.12,29.29 -1.74,16.86 -47.64,37.27l0.86 38.17 56.3 -2.67c19.92,-31.95 42.44,-79.87 80.56,-91.41 19.05,-62.12 38.11,-42.59 58.89,-80.76 38.12,-70.11 0.87,-55.91 105.68,-63.89 8.66,-62.13 31.18,-87.86 76.22,-105.61l4.33 -50.59c70.16,-81.64 15.59,-14.2 51.97,-90.52 13.86,-29.29 55.43,-66.56 32.04,-118.92 -13.85,23.96 -26.85,7.99 -58.03,26.62l-25.98 51.48z"/>
    <path class="fil24" d="M836.07 2694.11c24.26,15.09 12.13,9.76 29.45,11.54l69.3 -17.75c3.46,-1.78 6.06,-4.44 8.66,-6.21l23.38 -22.19 -76.22 11.54c0,-52.36 -1.73,-94.96 24.25,-134.01 25.12,-72.77 26.86,10.65 30.32,-83.42l-68.43 4.43c-14.72,74.55 -24.25,157.97 -40.71,236.07z"/>
    <path class="fil24" d="M1105.45 1407.28l23.39 1.78c0.86,1.77 0.86,2.66 0.86,5.32l191.42 28.4 73.63 -60.35c2.59,-0.89 23.38,-6.21 38.11,-7.1 -12.13,-23.96 -295.36,17.75 -327.41,31.95z"/>
   </g>
   <g>
    <path class="fil25" d="M338.04 2747.36c-46.78,29.28 -24.26,0 -46.78,49.7 -3.46,7.1 -13.86,35.49 -13.86,36.38 -8.66,29.29 -9.52,20.41 -14.72,65.68l67.56 -38.17c117.8,-23.07 36.38,-57.68 82.28,-78.98 58.9,-26.62 25.99,27.51 133.39,-38.16 -33.78,37.27 -0.86,54.13 37.25,17.75 111.73,-109.16 39.84,-177.5 71.02,-221.87 1.73,-1.77 5.2,-4.44 6.93,-6.21 1.73,-1.78 6.93,-4.44 8.66,-6.21 1.74,-0.89 7.8,0 9.53,-4.44 10.39,-33.73 1.73,-88.75 -0.87,-130.46 -54.56,32.84 -6.06,7.1 -42.44,52.36 -13.86,16.86 -25.12,21.3 -45.04,44.37 -22.52,27.52 -45.9,80.76 -62.36,104.73l-15.59 17.75c-1.73,1.77 -5.2,3.55 -7.8,4.43 -90.94,53.25 -20.78,-21.3 -89.21,78.99l-16.46 22.18c-28.58,27.52 -9.53,23.08 -61.49,30.18z"/>
    <path class="fil25" d="M2202.87 1618.5l19.92 29.28c20.79,23.08 38.98,47.93 87.48,54.14 -0.86,-16.86 41.58,18.64 -43.31,-35.5 28.59,-4.44 23.39,-8.87 58.04,-4.44 17.32,1.78 15.59,3.55 23.38,5.33l14.73 5.32c1.73,0 6.06,0.89 7.79,1.78 43.31,12.42 188.82,54.13 179.3,110.04 -10.4,66.56 -54.57,14.2 -100.48,2.67 48.51,-7.99 2.6,-2.67 23.39,17.75 37.24,34.61 72.76,31.06 98.74,-12.43 12.13,22.19 6.06,-7.99 6.06,21.3 0,1.78 -3.46,14.2 -3.46,18.64 61.5,38.16 -11.26,53.25 -30.32,65.67 -2.59,1.78 -6.93,4.44 -9.52,7.99 115.19,-18.64 110.86,-39.94 181.89,-61.24 0.86,-23.07 -9.53,-8.87 6.93,-23.07 -43.31,0 -20.79,-1.78 -47.64,6.21 -17.32,-52.36 -14.73,-74.55 -31.18,-114.48 -32.92,6.21 -51.97,-1.78 -77.96,-23.96l-118.66 -111.83c-9.53,-14.2 -24.25,-36.38 -29.45,-39.93l-72.76 -71c38.98,15.98 12.13,73.66 -3.46,92.3 -28.58,33.72 12.13,15.08 -46.77,34.61l-62.37 -72.77c25.99,63.01 22.52,6.21 10.4,56.79 -12.99,56.8 -17.33,29.29 -40.71,40.83z"/>
    <path class="fil25" d="M2260.9 767.42c20.79,-14.2 8.66,-3.55 25.12,-18.64 65.83,-60.35 45.91,-111.82 89.21,-168.62 0,-46.15 10.4,-6.21 -15.59,-54.14 -15.59,-31.06 -12.12,-23.96 -32.05,-40.82l-4.33 92.3c0,0 -10.39,26.62 -11.26,27.51 -61.49,-22.19 -59.76,-50.59 -43.3,-84.31 0.86,-2.66 10.39,-15.09 13.85,-16.86 -45.04,-8.88 -15.59,-6.21 -37.24,-26.63 -18.19,-16.86 -12.99,-7.98 -25.98,-24.85 4.33,1.78 6.92,-54.13 5.19,11.54 -0.86,40.82 11.26,18.64 -22.52,36.39 0,0 -17.32,29.28 -54.57,-9.76 3.47,7.98 -1.73,-7.99 10.4,14.19l6.06 12.43c0.87,2.66 4.33,25.74 5.2,29.29 9.53,54.13 14.72,17.75 31.18,70.99 21.65,72.78 -6.93,89.64 37.24,133.12 13,12.43 10.4,10.65 23.39,16.87z"/>
   </g>
   <g>
    <path class="fil26" d="M2701.77 877.46c104.81,43.49 13,105.61 40.71,160.63 19.06,-13.31 12.13,29.29 19.06,-15.97l-32.05 192.58c-9.53,28.4 7.8,29.29 -31.18,63.01 -0.87,35.5 -18.19,70.11 -48.51,86.97 -35.51,20.41 -84.88,9.76 -125.59,11.54 19.06,35.5 37.25,35.5 75.36,52.36 15.59,2.66 36.38,6.21 52.83,7.1 73.63,0.89 36.38,-7.99 36.38,-7.99 0,215.66 -28.58,160.63 49.37,189.92 10.4,-66.56 29.45,-131.34 43.31,-199.68 15.59,-75.43 -8.66,-88.75 45.04,-160.63l13.86 -18.64c-18.19,-68.33 -34.65,-57.68 -31.18,-164.18 1.73,-84.31 -2.6,-142.88 -25.99,-175.72 -109.13,-19.52 35.52,47.92 -50.23,-32.84 -58.04,-55.02 -54.57,-6.21 -54.57,-6.21l23.38 17.75z"/>
    <path class="fil26" d="M2571.85 771.85l-6.06 32.84 22.52 0 51.1 -49.7c-25.98,41.71 -20.79,15.98 -22.52,71l17.32 -7.1c28.59,-18.64 6.93,-9.76 47.64,-15.98l-21.65 -17.74c26.85,-8.88 7.79,4.43 40.71,-15.09 -49.37,-77.21 -12.99,-133.12 -128.19,-153.53l-13.86 26.62c16.46,26.62 25.98,51.47 40.71,89.63l-27.72 39.05z"/>
    <path class="fil26" d="M2268.7 1314.98c46.77,-60.34 -7.8,-34.61 42.44,-142.88 -62.37,-12.42 -13.86,-23.96 -91.81,-37.27 3.46,-2.66 9.52,-10.65 11.26,-7.99 1.73,3.55 12.12,-7.1 19.92,-10.65 0.86,-0.89 5.19,-1.77 6.93,-2.66l10.39 -1.78c-17.32,-22.18 -6.06,1.78 -14.72,-38.16l-123.86 -3.55c30.31,64.79 80.55,55.91 103.93,90.52 15.59,23.08 34.65,126.02 35.52,154.42z"/>
    <path class="fil26" d="M2327.59 485.2c19.93,16.86 16.46,9.76 32.05,40.82 25.99,47.93 15.59,7.99 15.59,54.14l7.8 14.2c0.87,1.77 4.33,11.54 5.2,13.31 17.32,27.51 -19.06,7.1 17.32,15.09 41.57,-56.8 19.05,-23.96 78.82,-55.91 -8.66,-21.3 -6.93,-17.75 -20.79,-39.94 -58.9,-1.77 -16.46,7.99 -58.9,-31.06 -9.52,-9.76 -16.45,-11.54 -28.58,-22.19 -18.19,-15.08 -8.66,-6.21 -21.65,-22.18l-36.38 1.77c-12.13,33.73 -18.19,7.99 9.52,31.95z"/>
    <path class="fil26" d="M2376.97 1318.53c4.33,23.08 1.73,24.85 12.99,39.94 39.84,48.81 -2.6,-0.89 40.71,31.95l-23.39 -81.65 23.39 18.64 -20.79 -117.15 -77.09 -11.53c19.92,61.23 42.44,58.57 44.18,119.8z"/>
   </g>
   <g>
    <path class="fil27" d="M1961.21 1209.37l13.86 158.86c84.88,38.16 87.48,27.51 181.03,29.29l45.9 39.93c28.59,-48.81 51.97,-55.02 66.7,-122.47 -0.87,-28.4 -19.93,-131.34 -35.52,-154.42 -23.38,-34.61 -73.62,-25.73 -103.93,-90.52l-30.32 -32.83 -104.81 102.94c-44.17,59.46 -29.44,16.86 -32.91,69.22z"/>
    <path class="fil27" d="M2589.17 1585.66c-57.16,-23.96 -65.82,6.21 -103.93,-40.82 -46.78,-56.8 12.99,-19.53 -71.9,-53.25 -3.46,-47.92 -12.99,-39.94 8.67,-70.11 60.63,-9.76 129.05,-42.6 161.97,114.48l5.19 49.7zm-386.3 32.84c23.38,-11.54 27.72,15.97 40.71,-40.83 12.12,-50.58 15.59,6.22 -10.4,-56.79l62.37 72.77c58.9,-19.53 18.19,-0.89 46.77,-34.61 15.59,-18.64 42.44,-76.32 3.46,-92.3l72.76 71c5.2,3.55 19.92,25.73 29.45,39.93l118.66 111.83c25.99,22.18 45.04,30.17 77.96,23.96 -32.92,-79.88 -14.73,-169.51 -11.26,-259.14 -2.6,-2.67 -6.93,-11.54 -8.66,-8.88l-25.12 -16.86c-38.11,-16.86 -56.3,-16.86 -75.36,-52.36 -49.37,-11.54 -61.49,-33.72 -93.54,-48.81l-23.39 -18.64 23.39 81.65c-43.31,-32.84 -0.87,16.86 -40.71,-31.95 -11.26,-15.09 -8.66,-16.86 -12.99,-39.94l-58.04 -101.17c-10.39,56.8 25.99,96.74 37.25,157.97 -15.59,-23.96 -32.05,-45.26 -48.51,-60.35 -38.97,92.3 -104.8,227.2 -104.8,303.52z"/>
    <path class="fil27" d="M2012.31 632.52l8.67 5.33c38.97,16.86 25.98,15.08 47.63,44.37 41.58,-26.63 40.71,-47.04 66.7,11.54 -30.32,10.65 -51.1,3.55 -90.95,0l16.46 26.62c2.6,2.66 6.06,7.1 8.66,9.76l58.03 70.11 7.8 16.86c76.22,11.54 -9.53,0.89 39.84,-15.97 38.98,-13.31 -44.17,-22.19 28.58,-5.33 5.2,1.78 7.8,3.55 12.13,5.33l26.85 17.75c-14.72,-31.06 -6.93,-41.71 -6.06,-46.15l24.25 -5.32c-12.99,-6.22 -10.39,-4.44 -23.39,-16.87 -44.17,-43.48 -15.59,-60.34 -37.24,-133.12 -16.46,-53.24 -21.65,-16.86 -31.18,-70.99 -0.87,-3.55 -4.33,-26.63 -5.2,-29.29l-6.06 -12.43c-12.13,-22.18 -6.93,-6.21 -10.4,-14.19 37.25,39.04 54.57,9.76 54.57,9.76 33.78,-17.75 21.66,4.43 22.52,-36.39 1.73,-65.67 -0.86,-9.76 -5.19,-11.54 12.99,16.87 7.79,7.99 25.98,24.85 21.65,20.42 -7.8,17.75 37.24,26.63 -3.46,1.77 -12.99,14.2 -13.85,16.86 -16.46,33.72 -18.19,62.12 43.3,84.31 0.87,-0.89 11.26,-27.51 11.26,-27.51l4.33 -92.3c-27.71,-23.96 -21.65,1.78 -9.52,-31.95 -162.84,-21.3 -109.14,-105.61 -288.43,154.42l-17.33 24.85z"/>
    <path class="fil27" d="M2422.87 617.43c-25.98,43.49 -109.13,170.4 -110.87,213 20.79,8.87 -1.73,-4.44 45.91,-20.42l33.78 64.79c65.83,-52.36 107.4,-69.22 180.16,-102.95l27.72 -39.05c-14.73,-38.16 -24.25,-63.01 -40.71,-89.63l13.86 -26.62c-31.18,-4.44 -48.51,-13.32 -75.36,-15.09 -69.29,-2.66 -33.78,11.54 -74.49,15.97z"/>
    <path class="fil27" d="M1862.47 436.39l0 22.19c13.86,18.63 12.99,13.31 -19.06,67.44 39.85,-14.2 35.52,-45.26 80.56,33.73 -51.11,-13.31 -38.98,-23.96 -76.23,-35.5 -9.52,47.04 15.6,7.99 -32.91,42.6 74.49,-0.89 17.32,-12.43 60.63,-12.43 112.6,2.67 31.18,0.89 64.96,28.4 16.46,-67.45 60.63,-36.38 74.49,-125.13l10.4 38.16c2.6,16.86 -15.59,-7.99 3.46,27.51 54.57,-12.42 33.78,-23.96 68.43,-69.22l-19.92 -26.62c2.59,-2.67 4.33,-6.22 6.06,-7.99l31.18 -36.39c27.72,-30.17 9.53,3.55 28.58,-31.95 -42.44,-23.96 -155.9,0 -257.24,-4.43 15.59,52.36 25.98,39.93 26.85,94.95l-50.24 -5.32z"/>
    <path class="fil27" d="M1857.27 848.18c36.38,9.76 28.59,4.43 -32.91,42.59 77.95,75.44 -82.29,-33.72 49.37,29.29 2.6,0.89 6.93,1.78 10.39,4.44l-102.2 38.16c23.38,8.87 23.38,3.55 40.71,11.54 23.38,9.76 9.52,6.21 23.38,14.2 12.99,8.87 4.33,7.1 14.73,9.76 4.33,1.77 9.52,0 12.12,6.21l54.57 29.29c3.47,-3.55 6.93,-11.54 8.66,-8.88l32.92 -54.13c23.38,-53.25 -29.45,-15.98 40.71,-46.15 -37.25,-106.5 -89.22,-78.99 -118.67,-146.43 -8.66,15.08 -23.38,48.81 -33.78,70.11z"/>
    <path class="fil27" d="M1610.42 837.53l14.72 6.21c55.44,-2.66 72.76,21.3 121.26,39.93 18.19,-33.72 67.56,-86.08 93.55,-99.39l-86.62 -42.6 -76.22 -6.21 32.92 30.17 -61.5 41.71c-0.87,0.89 -3.47,2.66 -4.33,3.55l-33.78 26.63z"/>
   </g>
   <g>
    <path class="fil28" d="M418.59 2409.23l-4.33 50.59c7.79,134.01 -55.44,161.52 -105.67,198.79 12.99,35.5 26.85,25.74 29.45,88.75 51.96,-7.1 32.91,-2.66 61.49,-30.18l16.46 -22.18c68.43,-100.29 -1.73,-25.74 89.21,-78.99 2.6,-0.88 6.07,-2.66 7.8,-4.43l15.59 -17.75c16.46,-23.97 39.84,-77.21 62.36,-104.73 19.92,-23.07 31.18,-27.51 45.04,-44.37 36.38,-45.26 -12.12,-19.52 42.44,-52.36 74.49,-53.25 14.73,-108.27 27.72,-158.86 5.2,-21.3 43.31,-50.58 64.96,-102.06 8.66,-19.52 5.2,7.1 15.59,-43.48 -46.77,7.99 -43.3,7.1 -84.88,10.65 29.45,-0.89 6.93,-7.99 29.45,21.3 -60.63,31.95 -159.37,111.82 -199.22,173.05l-46.77 65.68c-0.86,2.66 -12.99,23.07 -12.99,23.07l-53.7 27.51z"/>
    <path class="fil28" d="M811.82 2058.68l-31.18 31.95c25.99,-5.32 26.85,-5.32 56.3,-12.42 3.47,2.66 13.86,6.21 16.46,7.98l24.25 14.2c12.99,-43.48 24.25,8.88 63.23,39.05 48.5,-62.12 9.53,3.55 49.37,34.61 35.51,26.63 15.59,-0.88 21.65,-6.21 64.1,0 -0.86,-8.87 25.12,30.17 21.66,-5.32 69.3,-10.64 71.03,-63.89l-12.99 66.56c0,1.77 -1.74,5.32 -2.6,8.87l21.65 43.49c-41.57,39.93 -23.39,52.36 -22.52,63.01 0.87,13.31 0,32.83 -0.87,42.6l0 33.72c19.06,-63.9 -0.86,-26.62 41.58,-42.6 -32.91,119.81 -7.8,39.05 12.13,58.57 14.72,-85.19 68.42,-188.14 71.02,-244.05l-6.06 -63.01c-12.13,31.95 2.6,13.31 -20.79,35.5 -88.35,-76.32 -101.34,-117.15 -216.54,-152.64 -53.7,-37.28 -57.17,-53.25 -122.13,-29.29 -6.93,18.64 -8.66,-22.19 -8.66,29.29l26.85 63.89c1.73,-2.66 5.2,9.76 6.93,13.31l-63.23 -2.66z"/>
   </g>
   <g>
    <path class="fil29" d="M1049.15 1409.94c-21.65,30.18 -19.92,38.16 -61.5,57.69 -37.24,35.5 -64.96,45.26 -103.94,83.42l-161.97 130.46c-67.56,47.92 -61.49,28.4 -128.19,48.81 -8.66,2.66 -27.72,9.76 -35.51,15.09 -30.32,20.41 -1.73,-9.77 -19.06,19.52l30.32 -4.44c-0.87,12.43 -6.93,50.59 -8.66,54.14 -8.66,30.17 4.33,-28.4 -9.53,16.86 -18.19,61.24 5.2,27.51 -3.47,78.1 -12.99,72.77 -37.24,68.33 -46.77,85.19l-9.53 -50.58c-32.91,61.23 -64.96,99.4 -74.48,165.07 -8.67,60.35 -38.98,126.91 -36.38,189.92l-0.87 -7.99c10.39,-7.99 32.05,-10.65 38.98,-13.31l25.98 -51.48c31.18,-18.63 44.18,-2.66 58.03,-26.62 23.39,52.36 -18.18,89.63 -32.04,118.92 -36.38,76.32 18.19,8.88 -51.97,90.52l53.7 -27.51c0,0 12.13,-20.41 12.99,-23.07l46.77 -65.68c39.85,-61.23 138.59,-141.1 199.22,-173.05 -22.52,-29.29 0,-22.19 -29.45,-21.3l-21.65 -7.1c-6.07,25.74 13.86,2.66 -27.72,41.71 -13.86,12.42 -4.33,9.76 -27.72,17.75l-27.71 -1.78c-37.25,39.94 -5.2,17.75 -38.98,63.9 -26.85,-23.96 -16.46,-6.21 -16.46,-39.93 0,-14.2 12.13,-26.63 12.99,-28.4 46.78,-83.43 23.39,-54.14 -2.59,-73.66l-28.59 -4.44c-11.26,47.04 -26.85,94.96 -51.97,123.36 78.82,-266.24 112.6,-173.06 119.53,-272.46l21.66 -32.83c6.06,-55.91 -1.74,-55.91 46.77,-83.42 26.85,3.55 26.85,-9.77 10.39,-28.4l-35.51 -27.51c19.06,15.97 7.8,1.77 38.98,8.87 53.7,-22.19 63.23,-29.29 113.46,5.33 3.47,-3.55 8.67,-6.22 13,-7.99 82.28,-37.28 50.23,-7.1 87.48,-24.85l110.87 -100.28c33.78,-23.08 98.74,-35.5 182.75,-109.16 82.29,-71 84.89,-26.63 140.32,-74.55l-191.42 -28.4c0,-2.66 0,-3.55 -0.86,-5.32l-23.39 -1.78 -56.3 2.66z"/>
    <path class="fil29" d="M2312 830.43c-25.98,25.73 -84.88,156.19 -26.85,212.99l48.51 24.85c28.58,-35.5 39.84,-99.4 78.82,-142.88 19.05,-22.19 19.92,-23.08 52.83,-30.18 -28.58,56.8 -29.45,41.71 -19.05,59.46 0.86,-0.89 25.98,-20.41 32.91,-26.62 26.85,-27.51 9.53,-14.2 32.05,-43.49 35.51,-46.15 54.57,-37.27 77.09,-79.87l-22.52 0 6.06 -32.84c-72.76,33.73 -114.33,50.59 -180.16,102.95l-33.78 -64.79c-47.64,15.98 -25.12,29.29 -45.91,20.42z"/>
    <path class="fil29" d="M2599.57 1428.58l25.12 16.86c1.73,-2.66 6.06,6.21 8.66,8.88 -3.47,89.63 -21.66,179.26 11.26,259.14 16.45,39.93 13.86,62.12 31.18,114.48 26.85,-7.99 4.33,-6.21 47.64,-6.21 20.79,-12.43 9.53,-6.21 27.72,-7.1l11.26 -51.47 -11.26 -29.29 25.11 -12.43c-3.46,-47.92 8.67,-15.08 -14.72,-39.93l-23.39 -63.9c-77.95,-29.29 -49.37,25.74 -49.37,-189.92 0,0 37.25,8.88 -36.38,7.99 -16.45,-0.89 -37.24,-4.44 -52.83,-7.1z"/>
    <path class="fil29" d="M1040.49 2369.3c30.31,30.17 -43.31,24.85 26.85,19.52l-82.29 10.65c16.46,31.06 15.59,4.44 2.6,28.4 7.8,7.99 7.8,10.65 21.66,19.52 8.66,5.33 16.45,8.88 24.25,10.65 19.92,5.33 41.57,2.67 58.9,-2.66 55.43,-17.75 45.04,-24.85 51.97,-47.04 -19.93,-19.52 -45.04,61.24 -12.13,-58.57 -42.44,15.98 -22.52,-21.3 -41.58,42.6l0 -33.72c-18.18,-63.9 -0.86,-23.96 -27.71,-26.63 33.78,67.45 -3.47,31.06 -22.52,37.28z"/>
   </g>
   <g>
    <path class="fil30" d="M989.38 2922.19l-232.13 -4.44 -170.63 -9.76c58.03,-29.29 73.63,-8.87 108.27,-63.9l2.6 -7.99c-60.63,20.42 -100.47,49.7 -157.64,55.03 -51.1,39.93 -394.1,23.07 -496.31,23.96l-6.93 -110.93 -0.86 -38.17 0 -63.89 81.42 -38.16 139.45 -245.83c32.04,-97.62 102.2,-191.7 118.66,-287.54 21.65,22.18 41.58,-0.89 6.93,94.96 -11.26,31.95 -19.92,58.57 -28.58,89.63 3.46,-1.77 21.65,-11.54 26.85,-15.97 -2.6,-63.01 27.71,-129.57 36.38,-189.92 9.52,-65.67 41.57,-103.84 74.48,-165.07 12.13,-67.45 12.13,-134.9 47.64,-179.27 17.33,-29.29 -11.26,0.89 19.06,-19.52 7.79,-5.33 26.85,-12.43 35.51,-15.09 66.7,-20.41 60.63,-0.89 128.19,-48.81l161.97 -130.46c38.98,-38.16 66.7,-47.92 103.94,-83.42 4.33,-22.19 2.6,-14.2 7.8,-30.18 0.86,-1.77 3.46,-4.43 4.33,-8.87 0,-5.33 3.46,-6.21 5.2,-8.87l-206.15 173.05c-17.32,15.98 -0.87,2.66 -21.65,16.86 -2.6,0.89 -6.07,2.67 -7.8,4.44 -88.35,57.69 -79.69,75.44 -139.45,78.99l-104.81 30.17c-70.15,130.46 -22.52,199.68 -83.15,290.2l-13.85 -43.48 -4.34 -21.3c-12.99,22.18 0.87,3.55 -19.05,28.4 -5.2,118.92 -85.75,217.43 -157.64,370.96 -59.77,127.79 -77.09,262.69 -210.48,329.25 1.74,-756.13 -13.86,-1561.95 -2.6,-2313.63 1.74,-111.82 13.86,-231.63 13,-335.47l1502.78 4.44 -32.05 229.86 0 83.42c22.52,-32.84 17.32,-16.86 23.39,-77.21 7.79,-84.31 32.04,-179.27 10.39,-241.39l29.45 0 1300.1 9.76 -0.87 1454.56c-39.84,-27.51 -17.32,-29.29 -70.16,-47.04 6.93,-47.92 6.07,-100.28 22.52,-139.33 17.33,-42.6 36.38,-52.36 23.39,-106.49 -12.99,-52.37 -25.98,-52.37 -21.65,-120.7 15.59,-259.14 -44.18,-182.82 -109.14,-307.06 -39.84,-77.21 -38.98,-135.79 -105.67,-185.49 -53.7,-40.82 -71.89,-7.1 -106.54,-47.03 -31.18,-36.39 -5.19,-48.81 -64.96,-87.86 -49.37,-31.95 -73.62,-18.64 -114.33,-35.5 -33.78,-14.2 -50.24,-47.04 -70.16,-71 -62.36,-73.66 -72.76,-97.62 -185.36,-101.17 -52.83,-1.77 -206.14,2.66 -239.06,31.06 6.93,16.87 -13.86,45.26 13,7.99l84.88 0.89c73.62,6.21 113.47,-27.51 200.95,-3.55 54.56,15.08 42.44,10.65 72.75,55.91 19.93,30.17 31.19,29.28 46.78,58.57l-72.76 8.88c-52.84,17.75 -57.17,15.97 -87.48,51.47 -34.65,45.26 -13.86,56.8 -68.43,69.22 -19.05,-35.5 -0.86,-10.65 -3.46,-27.51l-10.4 -38.16c-13.86,88.75 -58.03,57.68 -74.49,125.13l-25.98 9.76c6.93,21.3 -32.05,15.09 30.31,18.64 47.64,-42.6 5.2,-31.95 77.09,-36.39l-14.72 44.38 5.19 13.31 17.33 -24.85c179.29,-260.03 125.59,-175.72 288.43,-154.42l36.38 -1.77c68.42,11.53 78.82,20.41 109.13,75.43 13.86,22.19 12.13,18.64 20.79,39.94 -59.77,31.95 -37.25,-0.89 -78.82,55.91l17.32 -5.33c40.71,-4.43 5.2,-18.63 74.49,-15.97 26.85,1.77 44.18,10.65 75.36,15.09 115.2,20.41 78.82,76.32 128.19,153.53 -32.92,19.52 -13.86,6.21 -40.71,15.09l21.65 17.74c52.84,23.97 83.15,38.17 101.34,95.85 23.39,32.84 27.72,91.41 25.99,175.72 -3.47,106.5 12.99,95.85 31.18,164.18l-13.86 18.64c-53.7,71.88 -29.45,85.2 -45.04,160.63 -13.86,68.34 -32.91,133.12 -43.31,199.68l23.39 63.9 21.65 -3.55 -19.05 -16.86c2.6,-56.8 -1.73,-74.55 25.98,-120.7 16.46,14.2 13.86,-39.05 12.99,36.39 8.67,-14.2 7.8,-7.99 13,-33.73 4.33,-23.96 -3.47,-7.1 3.46,-48.81 43.31,11.54 33.78,50.59 39.84,87.86 19.06,38.16 5.2,33.73 4.34,82.54l42.44 6.21c-17.33,-173.06 0.86,-1003.73 4.33,-1280.62 0.86,-67.45 2.6,-135.78 4.33,-203.23 0.86,-115.37 16.46,-118.03 -19.06,-182.82 -46.77,34.61 -1273.25,4.44 -1449.94,5.33l-722.38 -7.99c-237.32,10.65 -474.65,-3.55 -712.84,7.99 -12.99,112.71 -2.6,1244.23 -2.6,1469.65 0,487.22 -2.6,971.77 -6.06,1457.22l987.41 -14.2z"/>
    <path class="fil30" d="M2785.79 1816.4l-46.77 82.54 -4.33 25.73c57.16,1.78 1.73,2.67 38.11,-5.32 53.7,-12.42 30.31,7.1 52.83,-36.39l38.98 1.78c-5.2,-57.69 13.86,-106.5 26.85,-176.61 -25.98,34.61 -28.58,-47.03 -20.79,50.59 4.34,-1.78 6.07,-20.41 -53.7,-2.66l-31.18 60.34z"/>
   </g>
   <g>
    <path class="fil31" d="M404.73 1977.04l13.86 -170.4c45.04,-145.54 91.81,-93.18 177.56,-187.25 34.65,-38.17 55.43,-66.56 91.81,-98.51 69.29,-62.13 42.44,-46.15 84.89,-93.19 111.73,-124.24 148.97,-115.37 254.65,-112.71 52.83,1.78 128.19,-4.43 176.69,1.78 71.89,8.87 55.43,39.93 127.33,27.51 22.52,-34.61 17.32,-91.41 24.25,-133.12 28.58,-174.83 45.9,-457.93 70.16,-648.74 14.72,-112.71 38.97,-50.59 71.02,-212.99 1.73,-12.43 4.33,-39.94 6.93,-49.7 6.93,-28.4 10.39,-30.17 13.86,-37.27l32.05 -229.86 -1502.78 -4.44c0.86,103.84 -11.26,223.65 -13,335.47 -11.26,751.68 4.34,1557.5 2.6,2313.63 133.39,-66.56 150.71,-201.46 210.48,-329.25 71.89,-153.53 152.44,-252.04 157.64,-370.96z"/>
    <path class="fil31" d="M1669.32 1489.82c-13,87.85 -126.46,104.72 -204.42,126.02l-21.65 226.3c84.02,-23.96 77.95,-50.59 179.29,-42.6 57.17,4.44 123.86,24.85 161.11,48.81 20.79,52.36 31.18,120.7 -11.26,158.86l-312.68 158.86c-128.19,81.64 14.72,82.53 -216.54,264.46l-118.67 120.7c-34.64,53.25 -45.9,109.16 -85.74,156.19 -37.25,45.26 -270.25,122.47 -343.87,136.67 -34.64,55.03 -50.24,34.61 -108.27,63.9l170.63 9.76c38.98,-26.62 1851.85,-16.86 2092.64,-33.72 25.98,-96.74 54.56,-257.37 -51.11,-307.07 -78.82,-37.27 -94.41,-15.08 -201.81,-207.66l-218.27 -389.6c-39.85,-73.66 -25.99,-92.3 -25.99,-181.05 -55.43,-73.66 -114.33,-56.79 -172.36,-154.42 -38.11,-50.58 21.65,-31.94 -45.91,-92.29 -25.12,-22.19 -55.43,-47.93 -95.27,-58.58 -109.14,-30.17 -129.06,-11.53 -155.91,-134 -17.33,-75.44 -13,-174.83 -59.77,-232.52 -35.51,-42.6 -34.64,-26.62 -68.42,-82.53 -29.45,-49.7 -35.52,-45.27 -47.64,-91.41 -42.44,-20.42 -64.1,-13.32 -78.82,-65.68 -59.77,-16.86 -37.25,-34.61 -71.89,-47.03 -14.73,106.49 -58.04,441.07 -44.18,525.38 59.77,23.96 224.34,55.91 156.78,124.25z"/>
   </g>
   <path class="fil32" d="M1839.08 273.98c32.92,-28.4 186.23,-32.83 239.06,-31.06 112.6,3.55 123,27.51 185.36,101.17 19.92,23.96 36.38,56.8 70.16,71 40.71,16.86 64.96,3.55 114.33,35.5 59.77,39.05 33.78,51.47 64.96,87.86 34.65,39.93 52.84,6.21 106.54,47.03 66.69,49.7 65.83,108.28 105.67,185.49 64.96,124.24 124.73,47.92 109.14,307.06 -4.33,68.33 8.66,68.33 21.65,120.7 12.99,54.13 -6.06,63.89 -23.39,106.49 -16.45,39.05 -15.59,91.41 -22.52,139.33 52.84,17.75 30.32,19.53 70.16,47.04l0.87 -1454.56 -1300.1 -9.76 4.33 17.75c47.64,-4.44 7.79,68.33 0,192.58 -5.2,88.74 4.33,144.65 1.73,224.53l135.12 -77.21c57.17,-41.71 24.25,-74.55 116.93,-110.94z"/>
   <path class="fil33" d="M1520.34 1403.73c122.99,47.92 116.06,12.43 145.51,67.45 -24.25,-7.99 -57.16,-12.43 -85.75,-23.08 -48.5,-17.75 -37.24,-23.07 -59.76,-44.37zm-73.63 -70.11l-63.22 -3.55 82.28 -834.22 46.77 -3.55 45.04 11.54c-38.11,126.91 -21.65,263.58 -37.24,404.68 -13.86,130.46 -37.25,290.21 -43.31,418.89 -6.06,3.55 4.33,26.62 -30.32,6.21zm66.7 -859.07c-26.85,-103.83 38.11,-99.4 41.57,-101.17 12.13,39.05 14.73,51.47 0,98.51l-41.57 2.66zm-16.46 -125.13c-32.05,162.4 -56.3,100.28 -71.02,212.99 -24.26,190.81 -41.58,473.91 -70.16,648.74 -6.93,41.71 -1.73,98.51 -24.25,133.12 -71.9,12.42 -55.44,-18.64 -127.33,-27.51 -48.5,-6.21 -123.86,0 -176.69,-1.78 -105.68,-2.66 -142.92,-11.53 -254.65,112.71 -42.45,47.04 -15.6,31.06 -84.89,93.19 -36.38,31.95 -57.16,60.34 -91.81,98.51 -85.75,94.07 -132.52,41.71 -177.56,187.25l38.11 -10.65 1.73 23.08c23.39,-114.49 39.84,-85.2 123.86,-138.45 62.36,-39.94 94.41,-104.72 144.65,-132.23l26.85 -50.59c27.72,-39.05 93.54,-89.63 128.19,-111.82 45.04,-58.57 173.23,-31.95 297.96,-44.37 84.88,-7.99 74.49,6.21 93.54,21.3 -75.35,13.31 -78.82,8.87 -144.64,8.87 -25.12,0 -80.56,2.66 -102.21,17.75 -30.32,20.41 -16.46,-11.54 -21.65,30.18l44.17 -9.77 56.3 -2.66c32.05,-14.2 315.28,-55.91 327.41,-31.95l38.11 -3.55c22.52,28.4 2.6,-2.66 22.52,37.28l12.12 27.51c40.71,7.98 37.25,12.42 74.49,21.3 12.99,3.55 28.59,4.43 39.85,10.65 39.84,24.84 9.52,-9.77 32.04,36.38 35.52,0 21.66,6.21 21.66,-38.16 -26.85,0 -2.6,-2.66 -4.33,23.08 67.56,-68.34 -97.01,-100.29 -156.78,-124.25 -13.86,-84.31 29.45,-418.89 44.18,-525.38 34.64,12.42 12.12,30.17 71.89,47.03l23.38 -6.21 -26.85 -37.27 -14.72 -6.21c-52.84,-70.11 -71.03,-155.31 -36.38,-243.17 31.18,13.31 12.99,-5.33 30.31,23.96l60.64 34.61c15.59,7.1 45.04,18.64 71.89,22.19 92.68,10.65 94.41,-34.61 124.72,55.02 30.32,17.75 19.92,18.64 29.45,47.93 29.45,67.44 81.42,39.93 118.67,146.43 3.46,3.55 27.71,31.95 35.51,43.48 17.32,25.74 20.79,31.06 30.31,52.36 -32.91,39.05 -95.27,76.33 -161.97,91.41l2.6 24.85 71.03 -27.51c-19.93,47.92 -22.52,28.4 -44.18,67.45 -11.26,28.4 -16.46,55.91 -16.46,95.85 2.6,-3.55 3.47,-7.99 5.2,-11.54 0.87,-2.66 3.47,-7.1 5.2,-10.65 45.04,-94.96 -21.66,-6.21 24.25,-40.83 3.47,-52.36 -11.26,-9.76 32.91,-69.22l104.81 -102.94 30.32 32.83 123.86 3.55c8.66,39.94 -2.6,15.98 14.72,38.16l-10.39 1.78c-1.74,0.89 -6.07,1.77 -6.93,2.66 -7.8,3.55 -18.19,14.2 -19.92,10.65 -1.74,-2.66 -7.8,5.33 -11.26,7.99 77.95,13.31 29.44,24.85 91.81,37.27 -50.24,108.27 4.33,82.54 -42.44,142.88 -14.73,67.45 -38.11,73.66 -66.7,122.47 -12.12,7.99 -21.65,12.43 -31.18,16.87 0,17.75 -5.2,14.2 12.13,12.42 42.44,-15.09 10.39,-9.76 22.52,13.31l-33.78 67.45c-17.33,-12.42 -14.73,12.43 -44.18,-63.9 -71.02,-31.95 -133.39,-3.55 -177.56,-64.78 -47.64,-32.84 -55.43,-136.67 -65.83,-198.8 -18.19,-103.83 7.8,-51.47 -60.63,-143.77 -17.32,-23.07 -5.19,-12.42 -31.18,-39.93l-51.1 -72.77 40.71 -0.89 102.2 -38.16c-3.46,-2.66 -7.79,-3.55 -10.39,-4.44 -131.66,-63.01 28.58,46.15 -49.37,-29.29 61.5,-38.16 69.29,-32.83 32.91,-42.59 -64.09,57.68 -41.57,63.01 -83.15,85.19l-38.98 15.98 -27.71 3.55c12.12,46.14 18.19,41.71 47.64,91.41 33.78,55.91 32.91,39.93 68.42,82.53 46.77,57.69 42.44,157.08 59.77,232.52 26.85,122.47 46.77,103.83 155.91,134 39.84,10.65 70.15,36.39 95.27,58.58 67.56,60.35 7.8,41.71 45.91,92.29 34.64,-8.87 11.26,-11.53 42.44,3.55l-19.92 -29.28c0,-76.32 65.83,-211.22 104.8,-303.52 16.46,15.09 32.92,36.39 48.51,60.35 -11.26,-61.23 -47.64,-101.17 -37.25,-157.97l58.04 101.17c-1.74,-61.23 -24.26,-58.57 -44.18,-119.8l77.09 11.53 20.79 117.15c32.05,15.09 44.17,37.27 93.54,48.81 40.71,-1.78 90.08,8.87 125.59,-11.54 30.32,-16.86 47.64,-51.47 48.51,-86.97 -1.73,3.55 -8.66,17.75 -12.13,21.3 -17.32,15.97 -6.06,10.65 -32.04,19.52 -32.05,43.49 -83.16,22.19 -129.93,8.88 -69.29,-18.64 -58.9,-14.2 -77.95,-83.42l-5.2 -23.08 -15.59 -121.58 78.82 41.71c-59.76,-14.2 -14.72,-7.1 -58.9,-47.04l-28.58 -46.14 27.72 -30.18c24.25,-55.91 56.3,-87.86 99.6,-139.33 1.74,-1.78 4.33,-4.44 6.07,-6.21 1.73,-2.67 4.33,-5.33 6.06,-7.1 1.73,-2.67 3.46,-5.33 5.2,-7.1 33.78,-35.5 5.19,-23.08 55.43,-31.95 1.73,-55.02 -3.46,-29.29 22.52,-71l-51.1 49.7c-22.52,42.6 -41.58,33.72 -77.09,79.87 -22.52,29.29 -5.2,15.98 -32.05,43.49 -6.93,6.21 -32.05,25.73 -32.91,26.62 -13.86,38.16 -48.51,63.9 -45.04,103.84 2.6,29.28 19.92,80.75 22.52,131.34l-23.39 -15.09 -48.5 -0.88 -38.98 -57.69c-27.72,-23.07 -24.25,-31.06 -27.72,-72.77 -58.03,-56.8 0.87,-187.26 26.85,-212.99 1.74,-42.6 84.89,-169.51 110.87,-213l-17.32 5.33c-36.38,-7.99 0,12.42 -17.32,-15.09 -0.87,-1.77 -4.33,-11.54 -5.2,-13.31l-7.8 -14.2c-43.3,56.8 -23.38,108.27 -89.21,168.62 -16.46,15.09 -4.33,4.44 -25.12,18.64l-24.25 5.32c30.31,88.75 36.38,82.54 0.86,161.52 0.87,70.11 -7.79,144.66 -90.08,85.2 -57.16,-16.87 -23.38,3.55 -32.04,-22.19 -67.56,-51.47 -48.51,-31.95 -85.75,-113.6 -17.33,-39.04 -45.04,-78.09 -63.23,-132.23 71.89,15.98 58.9,42.6 96.14,47.04 36.38,3.55 3.47,11.53 25.99,-9.77 -44.18,-10.64 -79.69,-29.28 -110.87,-67.44l43.31 -83.42 -8.67 -5.33 -5.19 -13.31c-79.69,38.16 -65.83,86.08 -55.44,173.05 -27.71,-39.04 -70.16,-94.07 -82.28,-121.58l75.35 -59.46c-62.36,-3.55 -23.38,2.66 -30.31,-18.64 -45.04,14.2 -96.14,46.15 -164.57,39.94l-56.3 -17.75c-53.7,8.88 -97.01,-22.19 -113.47,-73.66 0.87,-17.75 133.39,-153.53 230.4,-118.03l6.06 55.02c1.74,7.1 -38.11,18.64 8.66,0.89 9.53,-3.55 4.34,-3.55 13,-7.99 17.32,-11.54 6.06,-8.87 24.25,-12.42l0 -22.19c-47.64,-33.72 -19.06,-23.07 -95.28,-55.91 25.12,-23.96 55.44,-48.81 77.09,-62.12 47.64,-29.29 60.63,-15.09 92.68,-35.5l-84.88 -0.89c-26.86,37.27 -6.07,8.88 -13,-7.99 -92.68,36.39 -59.76,69.23 -116.93,110.94l-135.12 77.21c2.6,-79.88 -6.93,-135.79 -1.73,-224.53 7.79,-124.25 47.64,-197.02 0,-192.58l-38.11 314.16c-32.92,-25.74 -1.73,-7.99 -50.24,-9.76z"/>
   <path class="fil34" d="M2793.59 2507.74l-54.57 1.78c-1.73,-23.97 -6.06,-47.93 13.86,-44.38 60.63,12.43 -4.33,-7.98 30.31,31.06 32.92,38.17 0.87,1.78 10.4,11.54zm-613.24 -863.51c58.03,97.63 116.93,80.76 172.36,154.42 0,88.75 -13.86,107.39 25.99,181.05l218.27 389.6c107.4,192.58 122.99,170.39 201.81,207.66 105.67,49.7 77.09,210.33 51.11,307.07 -240.79,16.86 -2053.66,7.1 -2092.64,33.72l232.13 4.44c224.34,-3.55 1824.99,-31.95 1898.62,-2.66 25.98,-68.34 7.79,-366.53 10.39,-464.15 -35.51,109.16 -4.33,60.35 -10.39,165.07 -51.11,-13.31 -32.05,7.99 -47.64,-39.05l0 -28.4 38.11 -41.71 -85.75 3.55c16.46,-21.3 25.99,-31.06 37.25,-57.68 -22.52,-8.88 -41.58,-20.42 -55.44,-35.5l-122.99 -66.56c-1.74,-2.67 -3.47,-6.22 -5.2,-7.99l-10.39 -15.09c-33.78,-43.48 -77.09,-78.09 -102.21,-138.44 -11.26,-27.51 -7.8,-38.16 -26.85,-47.93 -12.13,-57.68 -8.66,-13.31 -27.72,-74.54 57.17,10.65 42.44,21.3 82.29,50.58l35.51 12.43c-0.87,1.77 -1.73,6.21 -1.73,7.98 -0.87,1.78 -1.74,6.22 -2.6,7.99 -3.47,18.64 -13.86,-24.85 -2.6,22.19 6.93,29.28 -14.72,0.89 36.38,23.07 54.57,24.85 67.56,52.36 99.61,30.18 -21.66,-50.59 -17.33,-17.75 -39.85,-53.25l-35.51 -7.99c21.65,-47.03 -6.06,-41.71 -51.1,-63.01 -45.91,-22.19 -14.73,-2.66 -37.25,-24.85l43.31 -43.48c-25.12,-9.77 -47.64,-16.87 -71.02,-32.84 -1.74,-0.89 -25.99,-23.07 -26.85,-23.96 -16.46,-17.75 -5.2,-4.44 -13.86,-22.19 -73.63,0.89 -91.82,-12.42 -116.07,-77.21 3.47,2.66 6.93,6.21 9.53,8.88 45.04,38.16 36.38,38.16 102.21,37.27 94.41,16.86 126.45,-9.76 207.87,-32.84 35.52,-40.82 9.53,-1.77 19.06,-45.26 -71.03,21.3 -66.7,42.6 -181.89,61.24l-11.26 -7.1c-97.88,-5.33 -77.09,-18.64 -119.53,-85.2 55.43,14.2 22.52,21.3 84.01,31.95l86.62 -13.31c0,-4.44 3.46,-16.86 3.46,-18.64 0,-29.29 6.07,0.89 -6.06,-21.3 -25.98,43.49 -61.5,47.04 -98.74,12.43 -49.37,-20.42 -47.64,-28.4 -84.02,-51.48 -13.86,-7.98 -32.05,-15.97 -41.57,-22.18 -22.52,-14.2 -21.66,-13.32 -37.25,-29.29 -48.5,-6.21 -66.69,-31.06 -87.48,-54.14 -31.18,-15.08 -7.8,-12.42 -42.44,-3.55z"/>
   <path class="fil35" d="M1330.65 2322.26c9.53,-66.56 -1.73,-58.57 47.64,-94.96 -9.53,31.06 -9.53,39.05 -22.52,63.9 -18.19,33.72 -12.13,17.75 -25.12,31.06zm-543.95 -562.65c-50.23,-34.62 -59.76,-27.52 -113.46,-5.33 79.68,-1.77 95.27,-1.77 153.31,46.15l10.39 -4.44c125.59,3.55 248.59,13.31 348.2,59.46l3.46 141.11c-32.91,-16.86 -46.77,-19.52 -68.43,-39.94 -177.56,-26.62 -204.41,-108.27 -257.24,-107.38 -106.54,35.5 -92.68,63.9 -149.85,126.02l17.32 36.39c16.46,-20.42 19.06,-31.06 27.72,-51.48 25.99,-63.01 -4.33,-46.14 40.71,-46.14 15.59,-18.64 12.99,-25.74 48.5,-33.73 19.06,-4.44 37.25,-0.89 52.84,7.1 59.77,29.29 13.86,36.39 94.41,57.69 44.18,23.07 77.96,26.62 132.52,55.91 63.23,33.72 51.11,30.17 99.61,74.54 3.47,46.15 6.93,55.03 -11.26,88.75 -2.6,55.91 -56.3,158.86 -71.02,244.05 -6.93,22.19 3.46,29.29 -51.97,47.04 -17.33,5.33 -38.98,7.99 -58.9,2.66 -7.8,-1.77 -15.59,-5.32 -24.25,-10.65 -13.86,-8.87 -13.86,-11.53 -21.66,-19.52 -20.79,0 -32.05,1.77 -52.83,-0.89 -18.19,-2.66 -16.46,-3.55 -33.78,-8.87l-22.52 -13.31c5.19,-44.38 0.86,-62.13 35.51,-76.33l24.25 -71.88c26.85,7.1 13.86,-0.89 32.05,15.08 25.98,23.08 12.99,18.64 20.79,32.84 25.12,27.51 36.38,39.05 49.37,64.79 19.05,-6.22 56.3,30.17 22.52,-37.28 -1.73,0.89 -1.73,5.33 -2.6,6.21l-30.32 -38.16c-0.86,0 -26.85,-22.18 -26.85,-23.07 -20.78,-22.19 0.87,7.99 -16.45,-25.74l105.67 -41.71c0.86,-3.55 2.6,-7.1 2.6,-8.87l12.99 -66.56c-1.73,53.25 -49.37,58.57 -71.03,63.89 -40.71,28.4 -43.3,20.42 -99.6,20.42l3.46 -78.99c-38.98,-30.17 -50.24,-82.53 -63.23,-39.05 72.76,37.28 41.58,155.31 5.2,210.33l-17.33 23.08 -10.39 86.97 -18.19 72.77c-4.33,102.95 -20.79,203.23 -83.15,283.99l-42.44 43.49c-32.92,33.72 -0.87,-8.88 -13.86,15.08l-2.6 7.99c73.62,-14.2 306.62,-91.41 343.87,-136.67 39.84,-47.03 51.1,-102.94 85.74,-156.19l118.67 -120.7c231.26,-181.93 88.35,-182.82 216.54,-264.46l312.68 -158.86c7.79,-11.54 55.43,-74.55 -8.66,-48.81 -24.25,56.8 5.19,23.96 -55.44,49.7 -19.05,7.98 -47.63,18.63 -77.08,22.18 -29.45,40.83 -187.96,107.39 -234.73,145.55 -11.26,13.31 -5.2,7.99 -19.92,20.41 -0.87,0.89 -17.33,14.2 -20.79,16.86 -15.59,12.43 -25.99,21.3 -34.65,29.29l-3.46 -1.78c-21.66,47.93 -45.04,117.15 -67.56,146.44 -20.79,28.39 -25.99,34.61 -49.37,52.36 -31.19,23.07 -31.19,19.52 -55.44,42.59l-34.64 27.52c-19.06,31.95 -6.93,37.27 -23.39,69.22 -9.53,17.75 -26.85,37.27 -39.84,62.12 -25.12,48.81 -31.18,73.66 -101.34,95.85l-141.19 21.3 31.18 -63.9c16.46,-78.1 25.99,-161.52 40.71,-236.07l68.43 -4.43c39.84,28.39 43.31,31.94 107.4,36.38 58.04,4.44 39.85,-1.77 90.95,-24.85 66.69,-104.72 35.51,-216.54 107.4,-269.79 -1.73,-40.82 -6.06,-20.41 12.13,-27.51l2.6 -78.98 -21.66 -39.94c80.56,-39.94 38.98,-26.62 94.42,-97.62 -12.13,-35.5 37.24,-28.4 -32.92,-28.4 -22.52,55.02 -29.45,62.12 -81.42,94.07 -5.19,-167.73 -12.99,-222.75 -188.82,-240.5l32.91 -56.8 -30.31 -7.1c-30.32,32.84 -35.51,56.8 -95.28,55.91 -42.44,0 -112.6,-4.44 -155.91,-8.87z"/>
   <path class="fil36" d="M2891.46 1708.13c-12.99,70.11 -32.05,118.92 -26.85,176.61 -25.98,15.97 34.65,13.31 -29.45,13.31 2.6,72.77 30.32,54.14 12.99,150.87 0,2.66 -1.73,6.21 -1.73,9.76 -11.26,68.34 -12.99,15.09 6.93,78.1 10.4,-6.21 6.06,26.62 35.51,-61.24 -9.52,58.58 -11.26,92.3 -10.39,151.76l3.46 -12.42c-100.47,-120.7 -57.16,-119.81 -123.86,-114.49 0.87,23.97 1.74,28.4 2.6,45.26l-2.6 40.83c0,-1.78 -0.86,7.1 -1.73,10.65 104.81,-5.33 62.37,22.18 54.57,87.86 -59.76,-20.41 -58.9,-34.61 -84.88,-59.46 -32.05,22.18 -45.04,-5.33 -99.61,-30.18 -51.1,-22.18 -29.45,6.21 -36.38,-23.07 -11.26,-47.04 -0.87,-3.55 2.6,-22.19 0.86,-1.77 1.73,-6.21 2.6,-7.99 0,-1.77 0.86,-6.21 1.73,-7.98l-35.51 -12.43c-4.33,37.28 6.06,16.86 -12.13,36.39 -48.5,-6.21 -14.72,4.44 -42.44,-12.43 19.05,9.77 15.59,20.42 26.85,47.93 25.12,60.35 68.43,94.96 102.21,138.44l10.39 15.09c1.73,1.77 3.46,5.32 5.2,7.99l122.99 66.56c13.86,15.08 32.92,26.62 55.44,35.5 -11.26,26.62 -20.79,36.38 -37.25,57.68l85.75 -3.55 -38.11 41.71c45.04,-5.32 36.38,-15.08 19.92,15.98 -0.87,0.88 -5.2,5.32 -6.06,6.21 -1.73,2.66 -8.66,5.32 -13.86,6.21 15.59,47.04 -3.47,25.74 47.64,39.05 6.06,-104.72 -25.12,-55.91 10.39,-165.07 0.87,-0.89 4.33,-347 10.4,-399.36 14.72,-131.35 -9.53,-254.7 -4.34,-385.16 -3.46,2.66 -6.92,7.1 -8.66,9.76 -1.73,2.66 -4.33,7.99 -6.06,9.76 -8.66,18.64 8.66,16.86 1.73,17.75z"/>
   <path class="fil37" d="M780.64 2090.63l6.06 -2.66c-10.39,50.58 -6.93,23.96 -15.59,43.48 -21.65,51.48 -59.76,80.76 -64.96,102.06 -12.99,50.59 46.77,105.61 -27.72,158.86 2.6,41.71 11.26,96.73 0.87,130.46 -1.73,4.44 -7.79,3.55 -9.53,4.44 -1.73,1.77 -6.93,4.43 -8.66,6.21 -1.73,1.77 -5.2,4.44 -6.93,6.21 -31.18,44.37 40.71,112.71 -71.02,221.87 -38.11,36.38 -71.03,19.52 -37.25,-17.75 -107.4,65.67 -74.49,11.54 -133.39,38.16 -45.9,21.3 35.52,55.91 -82.28,78.98l-67.56 38.17 -33.78 -11.54c-34.65,9.76 -52.84,12.42 -88.35,13.31l-64.09 1.77c-4.33,0.89 -6.93,1.78 -11.26,2.67 -3.47,1.77 -7.8,3.55 -11.26,4.43 -2.6,0.89 -7.8,2.67 -10.4,5.33 102.21,-0.89 445.21,15.97 496.31,-23.96 -11.26,-71 50.24,-143.77 107.4,-115.37 52.84,-186.37 38.98,-222.76 45.04,-244.06l24.26 -41.71 21.65 -37.27c8.66,-26.63 7.79,-22.19 19.05,-39.05 1.74,-2.66 27.72,-36.39 28.59,-36.39 21.65,-21.3 42.44,-31.95 79.68,-43.48l17.33 -23.08c36.38,-55.02 67.56,-173.05 -5.2,-210.33l-24.25 -14.2c-2.6,-1.77 -12.99,-5.32 -16.46,-7.98 -29.45,7.1 -30.31,7.1 -56.3,12.42z"/>
   <path class="fil38" d="M1068.2 1719.67l-32.91 56.8c175.83,17.75 183.63,72.77 188.82,240.5 51.97,-31.95 58.9,-39.05 81.42,-94.07 -10.39,-25.74 -5.2,-4.44 -23.39,-39.05 53.71,-39.94 38.12,-57.68 55.44,-213.88l0.87 -71.88c-47.64,-0.89 -96.15,29.28 -145.52,47.03 -83.15,31.06 -74.49,18.64 -124.73,74.55z"/>
   <path class="fil39" d="M1651.99 1504.9c-32.91,15.09 -8.66,15.09 -51.1,39.94 -68.43,40.82 -178.43,34.61 -252.05,20.41 26.85,-41.71 26.85,-2.66 12.99,-41.71 -38.11,32.84 -166.3,113.59 -232.99,94.96 -15.6,-28.4 23.38,-57.69 -90.95,94.07l30.31 7.1c50.24,-55.91 41.58,-43.49 124.73,-74.55 49.37,-17.75 97.88,-47.92 145.52,-47.03l-0.87 71.88c-17.32,156.2 -1.73,173.94 -55.44,213.88 18.19,34.61 13,13.31 23.39,39.05 70.16,0 20.79,-7.1 32.92,28.4l57.16 -5.33c17.32,-28.4 12.99,-23.96 28.58,-28.4 -13.85,-2.66 -33.78,-2.66 -41.57,-4.43 -32.91,-7.1 -19.92,-2.66 -37.25,-18.64l32.05 -282.21 63.23 0.88c-23.38,43.49 -13.86,-16.86 -22.52,55.03l0 220.09 40.71 8.87 -12.99 -32.83c155.04,-47.93 196.62,-60.35 330,21.3l-12.12 57.68 0 15.09c64.09,-25.74 16.45,37.27 8.66,48.81 42.44,-38.16 32.05,-106.5 11.26,-158.86 -37.25,-23.96 -103.94,-44.37 -161.11,-48.81 -101.34,-7.99 -95.27,18.64 -179.29,42.6l21.65 -226.3c77.96,-21.3 191.42,-38.17 204.42,-126.02 1.73,-25.74 -22.52,-23.08 4.33,-23.08 0,44.37 13.86,38.16 -21.66,38.16z"/>
   <path class="fil40" d="M551.98 2071.11c25.98,19.52 49.37,-9.77 2.59,73.66 -0.86,1.77 -12.99,14.2 -12.99,28.4 0,33.72 -10.39,15.97 16.46,39.93 33.78,-46.15 1.73,-23.96 38.98,-63.9l27.71 1.78c16.46,-34.61 -6.06,-7.1 23.39,-38.16 5.2,-5.33 25.98,-17.75 32.05,-21.3l50.23 -79.87 -17.32 -36.39c57.17,-62.12 43.31,-90.52 149.85,-126.02 52.83,-0.89 79.68,80.76 257.24,107.38l0.87 -89.63c-22.52,-0.89 -43.31,-3.55 -65.83,1.77 -19.05,5.33 -15.59,7.1 -27.71,18.64 -36.38,-50.58 -53.71,-10.65 -201.82,-65.67l11.26 -25.74 -10.39 4.44c-49.37,16.86 -21.66,6.21 -57.17,0 -6.93,-1.78 -17.32,-5.33 -26.85,-6.21 -55.43,-6.22 -25.98,111.82 -62.36,149.98l-45.04 69.22c-20.79,31.06 -77.09,54.14 -77.09,54.14 -0.87,-2.67 -4.33,2.66 -6.06,3.55z"/>
   <path class="fil41" d="M1446.71 1333.62c-6.06,-66.56 15.6,-143.77 18.19,-220.98l24.26 -427.76c3.46,-60.35 23.38,-156.19 23.38,-192.58l-46.77 3.55 -82.28 834.22 63.22 3.55z"/>
   <path class="fil42" d="M1458.84 1897.16c26.85,13.32 15.59,-32.83 25.12,37.28 -46.77,6.21 11.26,-2.67 -38.11,2.66 -45.91,5.32 -11.26,-1.78 -50.24,8.87l-57.16 5.33c-55.44,71 -13.86,57.68 -94.42,97.62l21.66 39.94 51.1 -62.13c218.27,-149.09 316.15,-69.22 380.24,-76.32 37.25,-4.44 7.8,-29.29 66.7,-7.1l12.12 -57.68c-133.38,-81.65 -174.96,-69.23 -330,-21.3l12.99 32.83z"/>
   <path class="fil43" d="M881.98 1385.98l64.1 11.54c-2.6,2.66 -5.2,4.44 -7.8,7.1 -2.6,1.77 -5.2,3.55 -7.79,6.21l-63.23 71.89c-21.66,21.29 -31.19,41.71 -54.57,60.34 -28.58,22.19 -51.1,20.41 -82.29,5.33 -20.78,6.21 -13.85,-5.33 -32.91,7.1 -19.92,91.41 -52.84,50.58 -67.56,137.56 59.76,-3.55 51.1,-21.3 139.45,-78.99 1.73,-1.77 5.2,-3.55 7.8,-4.44 20.78,-14.2 4.33,-0.88 21.65,-16.86l206.15 -173.05c5.19,-41.72 -8.67,-9.77 21.65,-30.18 21.65,-15.09 77.09,-17.75 102.21,-17.75 65.82,0 69.29,4.44 144.64,-8.87 -19.05,-15.09 -8.66,-29.29 -93.54,-21.3 -124.73,12.42 -252.92,-14.2 -297.96,44.37z"/>
   <path class="fil44" d="M1446.71 1333.62c34.65,20.41 24.26,-2.66 30.32,-6.21 6.06,-128.68 29.45,-288.43 43.31,-418.89 15.59,-141.1 -0.87,-277.77 37.24,-404.68l-45.04 -11.54c0,36.39 -19.92,132.23 -23.38,192.58l-24.26 427.76c-2.59,77.21 -24.25,154.42 -18.19,220.98z"/>
   <path class="fil45" d="M2444.53 1017.68c-2.6,62.12 -1.74,6.21 11.26,31.06 -7.8,-75.43 -14.73,-21.3 17.32,-40.82 71.02,46.15 71.02,36.39 143.78,-17.75 93.55,-69.22 70.16,-0.89 84.88,-112.71l-23.38 -17.75c-37.25,-7.1 -40.71,3.55 -44.18,-40.82l-17.32 7.1c-50.24,8.87 -21.65,-3.55 -55.43,31.95 -1.74,1.77 -3.47,4.43 -5.2,7.1 -1.73,1.77 -4.33,4.43 -6.06,7.1 -1.74,1.77 -4.33,4.43 -6.07,6.21 -43.3,51.47 -75.35,83.42 -99.6,139.33z"/>
   <path class="fil46" d="M2135.31 817.11l4.33 76.33c-36.38,-15.98 -19.06,-15.09 -57.17,-18.64 56.3,112.71 55.44,88.75 32.92,122.47 8.66,25.74 -25.12,5.32 32.04,22.19l0.87 -15.09c25.12,32.84 41.58,-5.33 83.15,-60.35 0.87,-1.77 4.33,-6.21 6.06,-9.76 35.52,-78.98 29.45,-72.77 -0.86,-161.52 -0.87,4.44 -8.66,15.09 6.06,46.15l-26.85 -17.75c-4.33,-1.78 -6.93,-3.55 -12.13,-5.33 -72.75,-16.86 10.4,-7.98 -28.58,5.33 -49.37,16.86 36.38,27.51 -39.84,15.97z"/>
   <path class="fil47" d="M2661.06 2005.43c9.53,7.99 23.39,-7.1 26.86,44.38 2.59,30.17 -8.67,9.76 -10.4,39.93 -0.86,16.87 16.46,46.15 26.85,74.55 -12.12,10.65 35.52,26.63 -18.19,7.99 22.52,35.5 18.19,2.66 39.85,53.25 25.98,24.85 25.12,39.05 84.88,59.46 7.8,-65.68 50.24,-93.19 -54.57,-87.86 0.87,-3.55 1.73,-12.43 1.73,-10.65l2.6 -40.83c-0.86,-16.86 -1.73,-21.29 -2.6,-45.26 -34.64,-28.4 -14.72,-5.32 -55.43,-24.85 6.93,-60.34 7.8,-66.56 19.06,-114.48 -2.6,-2.66 -6.07,-6.21 -7.8,-7.99l-26.85 -43.48c-25.12,15.08 -23.39,13.31 -51.97,40.82l25.98 55.02z"/>
   <path class="fil48" d="M2310.27 1701.92c15.59,15.97 14.73,15.09 37.25,29.29 9.52,6.21 27.71,14.2 41.57,22.18 36.38,23.08 34.65,31.06 84.02,51.48 -20.79,-20.42 25.12,-25.74 -23.39,-17.75 45.91,11.53 90.08,63.89 100.48,-2.67 9.52,-55.91 -135.99,-97.62 -179.3,-110.04 -1.73,-0.89 -6.06,-1.78 -7.79,-1.78l-14.73 -5.32c-7.79,-1.78 -6.06,-3.55 -23.38,-5.33 -34.65,-4.43 -29.45,0 -58.04,4.44 84.89,54.14 42.45,18.64 43.31,35.5z"/>
   <path class="fil49" d="M1345.37 1894.5c21.66,5.33 11.26,7.99 37.25,6.21 51.1,-3.55 19.92,0 35.51,-12.42l0 -220.09c8.66,-71.89 -0.86,-11.54 22.52,-55.03l-63.23 -0.88 -32.05 282.21z"/>
   <path class="fil50" d="M914.03 2328.47c-34.65,14.2 -30.32,31.95 -35.51,76.33l22.52 13.31c17.32,5.32 15.59,6.21 33.78,8.87 20.78,2.66 32.04,0.89 52.83,0.89 12.99,-23.96 13.86,2.66 -2.6,-28.4l82.29 -10.65c-70.16,5.33 3.46,10.65 -26.85,-19.52 -12.99,-25.74 -24.25,-37.28 -49.37,-64.79l-38.11 -7.1c-12.13,35.5 1.73,16.86 -38.98,31.06z"/>
   <path class="fil51" d="M914.89 2537.03c-6.06,89.63 -2.59,27.51 11.26,53.25l94.42 -11.54 3.46 -2.66c18.19,-35.5 6.93,-12.43 9.53,-39.05l6.93 -37.28c27.71,1.78 38.97,3.55 70.16,9.77l34.64 -27.52 -1.73 -16.86c-51.1,23.08 -32.91,29.29 -90.95,24.85 -64.09,-4.44 -67.56,-7.99 -107.4,-36.38 -3.46,94.07 -5.2,10.65 -30.32,83.42z"/>
   <path class="fil52" d="M798.83 1914.03l37.24 7.98c-4.33,9.76 -22.52,56.8 -23.38,65.67 -2.6,47.04 -19.92,4.44 23.38,50.59l-24.25 20.41 63.23 2.66c-1.73,-3.55 -5.2,-15.97 -6.93,-13.31l-26.85 -63.89c0,-51.48 1.73,-10.65 8.66,-29.29 64.96,-23.96 68.43,-7.99 122.13,29.29 2.6,-6.22 3.47,-11.54 5.2,-17.75 2.6,-4.44 6.06,-4.44 7.79,-12.43 0.87,-7.99 5.2,-7.1 9.53,-8.87 -80.55,-21.3 -34.64,-28.4 -94.41,-57.69 -15.59,-7.99 -33.78,-11.54 -52.84,-7.1 -35.51,7.99 -32.91,15.09 -48.5,33.73z"/>
   <path class="fil53" d="M2088.54 788.71l38.97 11.54 -58.03 -70.11c-2.6,-2.66 -6.06,-7.1 -8.66,-9.76l-16.46 -26.62c39.85,3.55 60.63,10.65 90.95,0 -25.99,-58.58 -25.12,-38.17 -66.7,-11.54 -21.65,-29.29 -8.66,-27.51 -47.63,-44.37l-43.31 83.42c31.18,38.16 66.69,56.8 110.87,67.44z"/>
   <path class="fil54" d="M1724.75 726.59l136.85 3.55c-30.31,-89.63 -32.04,-44.37 -124.72,-55.02 -26.85,-3.55 -56.3,-15.09 -71.89,-22.19l-60.64 -34.61c-26.85,6.21 -0.86,-4.44 -7.79,24.85 28.58,17.75 42.44,19.52 65.83,35.5 20.79,15.09 44.17,34.61 62.36,47.92z"/>
   <path class="fil55" d="M2605.63 2032.95l-43.31 43.48c22.52,22.19 -8.66,2.66 37.25,24.85 45.04,21.3 72.75,15.98 51.1,63.01l35.51 7.99c53.71,18.64 6.07,2.66 18.19,-7.99 -10.39,-28.4 -27.71,-57.68 -26.85,-74.55 1.73,-30.17 12.99,-9.76 10.4,-39.93 -3.47,-51.48 -17.33,-36.39 -26.86,-44.38l-14.72 55.91 -34.65 -21.29c-0.86,-4.44 -3.46,-5.33 -6.06,-7.1z"/>
   <path class="fil56" d="M2742.48 1038.09c-20.78,46.15 -5.19,58.58 -37.24,91.41l-14.73 -49.7 -11.26 36.39 0 37.27 -23.38 69.23 45.04 -31.95 -2.6 86.97c38.98,-33.72 21.65,-34.61 31.18,-63.01l32.05 -192.58c-6.93,45.26 0,2.66 -19.06,15.97z"/>
   <path class="fil57" d="M966.86 2659.5c9.53,-13.31 14.73,-17.75 26.86,-35.5 1.73,-2.66 8.66,-12.42 10.39,-15.97 12.99,-20.42 1.73,0.88 16.46,-29.29l-94.42 11.54c-13.85,-25.74 -17.32,36.38 -11.26,-53.25 -25.98,39.05 -24.25,81.65 -24.25,134.01l76.22 -11.54z"/>
   <path class="fil58" d="M738.2 2452.72c45.91,-8.88 81.42,-7.1 116.93,-31.95l10.39 -86.97c-37.24,11.53 -58.03,22.18 -79.68,43.48 -0.87,0 -26.85,33.73 -28.59,36.39 -11.26,16.86 -10.39,12.42 -19.05,39.05z"/>
   <path class="fil59" d="M1517.74 262.45c-3.47,7.1 -6.93,8.87 -13.86,37.27 -2.6,9.76 -5.2,37.27 -6.93,49.7 48.51,1.77 17.32,-15.98 50.24,9.76l38.11 -314.16 -4.33 -17.75 -29.45 0c21.65,62.12 -2.6,157.08 -10.39,241.39 -6.07,60.35 -0.87,44.37 -23.39,77.21l0 -83.42z"/>
   <path class="fil60" d="M2655.87 1222.69l-19.06 66.56c6.07,10.65 -9.53,12.42 17.33,29.28 25.98,-8.87 14.72,-3.55 32.04,-19.52 3.47,-3.55 10.4,-17.75 12.13,-21.3l2.6 -86.97 -45.04 31.95z"/>
   <path class="fil61" d="M1513.41 474.55l41.57 -2.66c14.73,-47.04 12.13,-59.46 0,-98.51 -3.46,1.77 -68.42,-2.66 -41.57,101.17z"/>
   <path class="fil62" d="M2487.83 1845.69l34.65 16.86 0.87 36.39 11.26 7.1c2.59,-3.55 6.93,-6.21 9.52,-7.99 19.06,-12.42 91.82,-27.51 30.32,-65.67l-86.62 13.31z"/>
   <path class="fil63" d="M523.39 2066.67c13.86,-23.96 27.72,-45.26 41.58,-60.35 21.65,-23.96 32.91,-31.95 50.24,-57.68 -5.2,-58.58 4.33,-12.43 -24.26,-31.07 -6.93,99.4 -40.71,6.22 -119.53,272.46 25.12,-28.4 40.71,-76.32 51.97,-123.36z"/>
   <path class="fil64" d="M1628.61 887.22c14.72,52.36 36.38,45.26 78.82,65.68l27.71 -3.55c-27.71,-36.39 -32.91,-59.46 -83.15,-68.34l-23.38 6.21z"/>
   <path class="fil65" d="M2751.15 1814.63c-9.53,24.85 -0.87,18.64 -34.65,30.17 -9.53,43.49 16.46,4.44 -19.06,45.26 -19.92,12.43 -3.46,0 -10.39,19.53l51.97 -10.65 46.77 -82.54 -8.66 -13.31c-9.53,38.16 6.06,3.55 -25.98,11.54z"/>
   <path class="fil66" d="M2147.43 1019.46c82.29,59.46 90.95,-15.09 90.08,-85.2 -1.73,3.55 -5.19,7.99 -6.06,9.76 -41.57,55.02 -58.03,93.19 -83.15,60.35l-0.87 15.09z"/>
   <path class="fil67" d="M2863.75 1664.65c0.86,-48.81 14.72,-44.38 -4.34,-82.54 -22.52,25.74 -42.44,55.91 -29.44,96.74 11.26,39.04 20.78,22.18 23.38,23.96l10.4 -38.16z"/>
   <path class="fil68" d="M2605.63 2032.95l-5.2 -33.73c-29.45,-14.2 -73.62,-33.72 -106.53,-45.26 8.66,17.75 -2.6,4.44 13.86,22.19 0.86,0.89 25.11,23.07 26.85,23.96 23.38,15.97 45.9,23.07 71.02,32.84z"/>
   <path class="fil69" d="M2493.9 1953.96l-4.33 -31.06c-65.83,0.89 -57.17,0.89 -102.21,-37.27 -2.6,-2.67 -6.06,-6.22 -9.53,-8.88 24.25,64.79 42.44,78.1 116.07,77.21z"/>
   <path class="fil70" d="M1520.34 1403.73c22.52,21.3 11.26,26.62 59.76,44.37 28.59,10.65 61.5,15.09 85.75,23.08 -29.45,-55.02 -22.52,-19.53 -145.51,-67.45z"/>
   <path class="fil71" d="M1760.26 541.11c-6.06,-25.74 16.46,-19.52 -10.39,-20.41l-124.73 -24.85c14.73,20.41 17.33,22.19 60.63,35.5 38.98,11.54 43.31,5.32 74.49,9.76z"/>
   <path class="fil72" d="M914.03 2328.47c40.71,-14.2 26.85,4.44 38.98,-31.06l38.11 7.1c-7.8,-14.2 5.19,-9.76 -20.79,-32.84 -18.19,-15.97 -5.2,-7.98 -32.05,-15.08l-24.25 71.88z"/>
   <path class="fil73" d="M1333.25 2186.48l-7.8 -2.66 -5.19 47.92c-17.33,10.65 -16.46,-1.78 0.86,10.65 8.66,-7.99 19.06,-16.86 34.65,-29.29 3.46,-2.66 19.92,-15.97 20.79,-16.86 14.72,-12.42 8.66,-7.1 19.92,-20.41 -3.47,-2.66 -10.4,-8.88 -12.13,-10.65l-51.1 21.3z"/>
   <path class="fil74" d="M612.61 1884.74c1.73,0.89 8.66,5.32 13.86,9.76l32.91 -93.18c-48.51,27.51 -40.71,27.51 -46.77,83.42z"/>
   <path class="fil75" d="M1330.65 2322.26c12.99,-13.31 6.93,2.66 25.12,-31.06 12.99,-24.85 12.99,-32.84 22.52,-63.9 -49.37,36.39 -38.11,28.4 -47.64,94.96z"/>
   <path class="fil76" d="M2752.88 2465.14c-19.92,-3.55 -15.59,20.41 -13.86,44.38l54.57 -1.78c-9.53,-9.76 22.52,26.63 -10.4,-11.54 -34.64,-39.04 30.32,-18.63 -30.31,-31.06z"/>
   <path class="fil77" d="M624.73 2150.98c23.39,-7.99 13.86,-5.33 27.72,-17.75 41.58,-39.05 21.65,-15.97 27.72,-41.71 -6.07,3.55 -26.85,15.97 -32.05,21.3 -29.45,31.06 -6.93,3.55 -23.39,38.16z"/>
   <path class="fil78" d="M1324.59 2101.28c36.38,7.99 27.71,15.09 27.71,-22.19 -37.24,-8.87 -21.65,1.78 -47.63,-23.07l19.92 45.26z"/>
   <path class="fil79" d="M2723.43 1821.73c-16.46,14.2 -6.07,0 -6.93,23.07 33.78,-11.53 25.12,-5.32 34.65,-30.17 -18.19,0.89 -6.93,-5.33 -27.72,7.1z"/>
   <path class="fil80" d="M2762.41 1763.16c14.72,-15.09 10.39,20.41 13.85,-41.72l-25.11 12.43 11.26 29.29z"/>
   <path class="fil81" d="M2840.36 2581.4c5.2,-0.89 12.13,-3.55 13.86,-6.21 0.86,-0.89 5.19,-5.33 6.06,-6.21 16.46,-31.06 25.12,-21.3 -19.92,-15.98l0 28.4z"/>
   <path class="fil82" d="M1063.01 2332.02l-32.92 -31.95 30.32 38.16c0.87,-0.88 0.87,-5.32 2.6,-6.21z"/>
  </g>
 </g>
</svg>
