<?xml version="1.0" encoding="UTF-8"?>
<!DOCTYPE svg PUBLIC "-//W3C//DTD SVG 1.1//EN" "http://www.w3.org/Graphics/SVG/1.1/DTD/svg11.dtd">
<!-- Creator: CorelDRAW 2017 -->
<svg xmlns="http://www.w3.org/2000/svg" xml:space="preserve" width="29.1252mm" height="29.1252mm" version="1.1" style="shape-rendering:geometricPrecision; text-rendering:geometricPrecision; image-rendering:optimizeQuality; fill-rule:evenodd; clip-rule:evenodd"
viewBox="0 0 2912.52 2912.52"
 xmlns:xlink="http://www.w3.org/1999/xlink">
 <defs>
  <style type="text/css">
   <![CDATA[
    .fil87 {fill:#1C2526}
    .fil34 {fill:#2C2C2C}
    .fil91 {fill:#343434}
    .fil80 {fill:#36251B}
    .fil54 {fill:#36332C}
    .fil41 {fill:#383736}
    .fil44 {fill:#453A37}
    .fil90 {fill:#51332C}
    .fil74 {fill:#57473B}
    .fil81 {fill:#656565}
    .fil77 {fill:#665A57}
    .fil1 {fill:#6F4839}
    .fil2 {fill:#70544B}
    .fil79 {fill:#7B8589}
    .fil86 {fill:#864F3D}
    .fil72 {fill:#877B77}
    .fil0 {fill:#878888}
    .fil89 {fill:#8A584C}
    .fil82 {fill:#8F6659}
    .fil71 {fill:#8F9291}
    .fil3 {fill:#979BA3}
    .fil78 {fill:#98847A}
    .fil73 {fill:#A39EA2}
    .fil76 {fill:#A8A8A8}
    .fil13 {fill:#AFB0B1}
    .fil88 {fill:#B0A59B}
    .fil59 {fill:#B7786C}
    .fil49 {fill:#B98579}
    .fil62 {fill:#B9C8D8}
    .fil69 {fill:#BBD2E6}
    .fil92 {fill:#C5BBB7}
    .fil27 {fill:#C8D8E6}
    .fil23 {fill:#D4DDE5}
    .fil61 {fill:#D5917B}
    .fil83 {fill:#D7D8D8}
    .fil65 {fill:#D89887}
    .fil84 {fill:gainsboro}
    .fil85 {fill:#E3E3E3}
    .fil57 {fill:#E4A493}
    .fil67 {fill:#E4AC9B}
    .fil20 {fill:#E69987}
    .fil50 {fill:#E7A58A}
    .fil29 {fill:#E7A897}
    .fil75 {fill:#E8BCB4}
    .fil64 {fill:#EB9B85}
    .fil43 {fill:#EC9D8A}
    .fil30 {fill:#ECA493}
    .fil12 {fill:#ECAC9B}
    .fil35 {fill:#ECB29C}
    .fil8 {fill:#ECB4A3}
    .fil17 {fill:#ECBBAB}
    .fil60 {fill:#ECC1AD}
    .fil56 {fill:#F3AD9B}
    .fil22 {fill:#F3B4A3}
    .fil66 {fill:#F3F3F3}
    .fil25 {fill:#F4B39C}
    .fil58 {fill:#F4BAA5}
    .fil36 {fill:#F4BCAB}
    .fil51 {fill:#F4C2AD}
    .fil68 {fill:#F5BCB3}
    .fil9 {fill:#F5C3B3}
    .fil55 {fill:#F5CAB4}
    .fil24 {fill:#F5D9CD}
    .fil6 {fill:#F5D9D7}
    .fil5 {fill:#F5E3DB}
    .fil28 {fill:#F5F2EC}
    .fil4 {fill:#F6F6F6}
    .fil46 {fill:#FABBAC}
    .fil38 {fill:#FAD2C1}
    .fil63 {fill:#FBBCB2}
    .fil52 {fill:#FBC2AD}
    .fil18 {fill:#FBC4B3}
    .fil33 {fill:#FBD4CB}
    .fil47 {fill:#FBDAC5}
    .fil37 {fill:#FBDBCC}
    .fil11 {fill:#FBDCD3}
    .fil15 {fill:#FCC5B9}
    .fil10 {fill:#FCCBBC}
    .fil14 {fill:#FCCECA}
    .fil45 {fill:#FCD4C4}
    .fil31 {fill:#FCF4F2}
    .fil21 {fill:#FDE2D5}
    .fil26 {fill:#FDE4DB}
    .fil7 {fill:#FDE5E2}
    .fil16 {fill:#FDEADD}
    .fil70 {fill:#FDECE4}
    .fil19 {fill:#FDEDEB}
    .fil53 {fill:#FDF2E5}
    .fil48 {fill:#FDF3EC}
    .fil39 {fill:#FDFDFD}
    .fil32 {fill:#FEF9F5}
    .fil42 {fill:#FEFDFA}
    .fil40 {fill:#FEFFFF}
   ]]>
  </style>
 </defs>
 <g id="Capa_x0020_1">
  <metadata id="CorelCorpID_0Corel-Layer"/>
  <g id="_1404503899664">
   <g>
    <path class="fil0" d="M657.6 1268.24c85.66,-8.86 74.41,12.41 127.2,-54.96 -87.4,7.97 -53.65,10.63 -106.43,44.32 -2.6,0.89 -6.92,3.55 -9.52,5.32 -2.59,0.89 -6.92,3.55 -11.25,5.32z"/>
    <path class="fil0" d="M759.7 1458.85c45,0 102.1,13.3 126.33,-18.62l-76.14 -5.32 -12.12 2.66c-32.01,8.87 -29.41,14.19 -38.07,21.28z"/>
   </g>
   <g>
    <path class="fil1" d="M1529.78 1437.57l-2.59 -113.48c-18.17,13.3 0.86,-1.77 -15.58,17.74 -1.73,1.77 -5.19,6.2 -7.78,8.86l-20.77 23.05c-19.03,-73.58 -38.07,-54.08 11.25,-111.7l16.44 16.84c1.73,2.66 4.33,6.21 5.19,8.87 32.88,39.89 -9.52,-3.55 7.79,12.41 0.86,0.88 3.46,3.54 4.32,3.54l54.52 -15.95c-78.74,-13.3 -46.73,-40.79 -99.51,-51.42l-24.23 0.88c45,39.01 -13.84,19.51 0,93.98 10.39,53.19 32.88,28.37 48.46,109.04l22.49 -2.66z"/>
    <path class="fil1" d="M2254.87 1300.16c-14.71,85.99 -25.95,109.04 23.37,174.65 31.14,13.3 38.93,7.09 62.29,-3.55l-62.29 -19.5 -16.44 -80.68c10.38,-51.42 0,-52.31 42.39,-75.36l-1.73 -13.29 -47.59 17.73z"/>
    <path class="fil1" d="M724.23 2272.7c-10.39,50.54 -3.46,5.32 54.51,16.85 19.03,4.43 64.89,20.39 91.72,26.59l-14.71 -25.71c-12.12,-2.65 -73.55,-23.05 -76.15,-23.05 -56.24,-3.54 11.25,23.94 -55.37,5.32z"/>
    <path class="fil1" d="M2372.55 620.17c35.47,-28.37 85.66,-56.74 115.08,-89.54 -51.92,4.43 -67.49,45.22 -116.81,67.38l1.73 22.16z"/>
    <path class="fil1" d="M851.42 2278.91l14.71 -8.87c-27.69,-47.87 0,-26.59 -39.8,-31.03l25.09 39.9z"/>
   </g>
   <g>
    <path class="fil2" d="M2883.92 2669.88c-18.17,76.24 8.65,33.69 -31.15,43.44l31.15 -43.44zm-77.88 95.75l21.64 -21.28 28.55 5.32 24.23 -19.51 -5.2 58.52c2.6,-3.55 6.06,-13.3 6.93,-11.53 4.32,9.75 20.76,-53.19 14.71,-125l-55.38 -9.75c-49.32,31.91 -12.98,33.68 -52.78,61.17l8.65 7.09c0,0 2.6,2.66 3.46,2.66l1.73 2.66c-21.63,29.26 -44.99,51.42 3.46,49.65z"/>
    <path class="fil2" d="M873.92 1668.08c-40.67,29.25 -95.18,3.54 -140.17,15.07l-33.75 -0.89c57.97,40.78 14.71,37.24 -38.07,47.87 11.25,4.44 10.38,8.87 32.01,8.87 23.37,0 15.58,-0.89 37.21,-8.87 25.96,-28.37 31.15,-36.34 110.75,-35.46 0,0 16.44,1.78 25.1,3.55 32.88,9.75 1.73,24.82 70.95,-14.19l35.47 -69.15c-64.89,32.81 -54.51,46.99 -99.5,53.2z"/>
    <path class="fil2" d="M1039.18 1959.75l-5.19 -3.55c-38.07,42.56 -66.62,78.91 -133.25,93.98 39.8,1.77 69.22,-8.87 103.83,-23.94l25.09 -11.52c1.74,-0.89 5.2,-2.66 7.79,-3.55 19.9,-31.03 42.4,-50.53 75.28,-88.65 -32.02,-6.21 -40.67,17.73 -73.55,37.23z"/>
    <path class="fil2" d="M1408.65 1059.9c6.92,13.3 -3.46,-8.86 11.25,19.51 0.86,2.66 6.05,31.03 9.51,21.27 0.87,-2.66 3.47,7.98 6.06,12.41 -0.86,0.89 -17.3,29.26 -30.28,45.22 27.69,-9.75 23.36,-5.32 39.8,-23.94l28.55 -42.55 6.06 -19.51c-19.9,17.73 -29.42,39.01 -46.72,-5.32 -13.85,-34.57 -1.73,-25.71 -6.06,-47.87l-16.44 -41.67 -1.73 82.45z"/>
   </g>
   <g>
    <path class="fil3" d="M2154.5 1817.9l19.9 35.47c-3.46,-71.82 -5.19,-23.06 14.71,-40.79 6.93,55.86 13.85,86 -15.57,125.89 -27.69,39.01 -53.65,40.79 -84.8,65.61l-3.46 43.44c41.53,-7.98 57.11,-22.16 96.05,-39.01 37.2,-15.96 12.97,18.62 36.34,-25.71 8.65,-16.84 8.65,-49.65 10.38,-69.15 -17.31,-39.89 -15.57,-73.58 19.04,-99.29l7.78 -34.58 -100.37 38.12z"/>
    <path class="fil3" d="M2473.78 1329.41c52.78,5.32 13.85,7.98 31.15,-31.91l-47.59 13.3 -32.01 -34.58c-11.25,-54.08 25.96,-70.92 -38.07,-90.43 0,46.1 -10.39,51.42 -32.88,73.59 40.67,22.16 46.72,43.44 64.89,101.06 56.24,-28.37 -45.86,25.71 21.63,-15.96 32.88,-21.27 -19.03,-6.2 32.88,-15.07z"/>
   </g>
   <g>
    <path class="fil4" d="M2256.6 1208.84l-15.57 24.83 83.93 16.84c55.38,-70.04 45.86,-128.55 -7.79,-192.38l-72.68 0c-50.19,113.48 38.07,110.82 69.22,171.99 -28.55,-1.77 -36.34,-9.75 -57.11,-21.28z"/>
    <path class="fil4" d="M2304.19 1295.72c-42.39,23.05 -32.01,23.94 -42.39,75.36l55.37 16.85c42.4,-10.64 13.85,0 51.05,-27.49l-0.86 69.15c14.71,-48.76 6.05,-7.98 25.09,-28.37 10.38,-25.71 7.79,-26.59 -6.92,-55.85 -20.77,-39.01 -25.96,-47.87 -68.36,-64.72 -1.73,0 -6.06,0.89 -6.92,0.89 0,0.89 -3.46,2.66 -4.33,2.66 -22.49,15.96 -3.46,-8.87 -1.73,11.52z"/>
   </g>
   <g>
    <path class="fil5" d="M2261.8 1371.08l16.44 80.68 62.29 19.5c-23.36,10.64 -31.15,16.85 -62.29,3.55l-83.07 39.89c-15.57,5.32 -13.84,3.55 -30.28,5.32 -55.38,5.32 -120.28,2.66 -176.52,-0.88l-16.44 14.18c145.37,10.64 250.93,28.37 368.6,-35.46 50.19,-26.6 45.86,-34.58 51.92,-96.64 -19.04,20.39 -10.38,-20.39 -25.09,28.37l0.86 -69.15c-37.2,27.49 -8.65,16.85 -51.05,27.49l-55.37 -16.85z"/>
    <path class="fil5" d="M737.21 2450.01c-16.44,68.27 -28.56,-11.52 -57.98,76.25 32.88,23.05 10.39,16.84 51.92,11.52 31.15,-15.07 12.11,-3.54 40.67,-24.82l89.12 -74.47 -88.26 3.54 -35.47 7.98z"/>
   </g>
   <g>
    <path class="fil6" d="M533.87 1484.56c-31.15,0 -27.69,-25.71 -27.69,2.66 -20.76,0 -13.84,-2.66 -6.05,20.39 -12.12,27.48 6.05,1.77 -13.85,24.82l-61.43 46.99c15.57,65.61 46.72,-24.82 93.45,-3.55 44.99,19.51 29.41,54.08 25.09,101.96 47.59,-14.19 25.09,-23.94 121.13,-35.46l24.23 -11.53c-12.98,-62.06 -5.19,-31.03 -18.17,-53.19 -1.73,1.77 -18.17,15.96 -19.03,15.96 -28.56,-5.32 9.51,25.71 -21.64,-17.74l-38.93 63.84 -19.9 -43.44c-0.87,-2.66 -3.46,-4.44 -4.33,-10.64 -0.87,-5.32 -2.6,-6.21 -4.33,-9.76 54.52,-16.84 12.12,-11.52 68.36,-31.02 -6.06,-50.54 6.92,-21.28 -14.71,-49.65 -31.15,-10.64 -24.23,13.3 -25.96,-13.3 -22.49,31.92 -7.79,15.96 -48.45,38.12l-7.79 -35.46z"/>
    <path class="fil6" d="M189.5 1819.68l-4.33 38.12 22.5 -32.8c7.78,-18.62 7.78,-17.74 13.84,-26.6 0.87,-0.89 11.25,-14.19 13.85,-16.85l24.22 -12.41c21.63,44.33 30.29,80.68 69.22,93.98 17.31,-39.9 21.64,-67.38 5.2,-99.3l-42.4 -78.9c-31.15,44.33 -92.59,79.79 -102.1,134.76z"/>
   </g>
   <g>
    <path class="fil7" d="M1342.02 1853.37c70.09,0 147.1,18.61 193.82,15.07l86.53 -12.42c-15.58,-39.89 6.05,-44.32 4.32,-101.95 -0.86,-38.12 -6.05,-79.79 -8.65,-131.21l23.36 -7.98c-11.24,-32.8 2.6,-12.41 -33.74,-25.71 -14.71,21.28 -9.52,47.88 -9.52,62.06 0.87,36.35 25.09,76.24 -38.94,73.59 -3.46,0 -20.76,-7.98 -24.22,-8.87 -46.73,-13.3 -17.31,-27.48 -56.25,0 3.47,31.03 -1.73,22.16 29.42,33.69l59.71 16.84c-25.96,61.18 -0.87,39.01 -73.55,48.76l3.46 23.05c0,-2.66 -1.73,7.1 -3.46,10.64 -19.04,-3.54 -61.43,-14.18 -77.01,-15.07 -25.09,-0.89 -11.25,-2.66 -38.07,2.66 -33.75,7.09 -25.96,8.87 -37.21,16.85z"/>
    <path class="fil7" d="M616.07 1495.2c21.63,28.37 8.65,-0.89 14.71,49.65 -56.24,19.5 -13.84,14.18 -68.36,31.02 1.73,3.55 3.46,4.44 4.33,9.76 0.87,6.2 3.46,7.98 4.33,10.64l19.9 43.44 38.93 -63.84c49.32,-4.43 38.08,-23.93 64.03,-64.71 29.42,-46.1 38.07,-18.62 63.17,-72.7l40.66 -0.89 12.12 -2.66c33.74,-28.37 -41.53,-12.41 51.91,-29.25 34.61,-7.1 22.5,2.66 57.98,6.2l-37.21 -44.32c-12.11,49.64 32.01,29.25 -50.18,31.91 -22.5,0.89 -45,-7.09 -72.69,-10.64l-25.09 25.71c-28.55,36.35 -21.63,17.73 -12.98,35.46l-63.16 -15.07c4.32,-17.73 8.65,-59.4 11.25,-66.49 6.05,-16.84 2.59,-7.09 12.11,-23.05 3.46,-5.32 8.65,3.55 12.11,-15.07 0.87,-5.32 5.2,-6.21 6.93,-8.87 -89.99,39.01 -44.13,85.11 -70.96,147.17 0,0.89 -1.73,3.55 -1.73,3.55 -0.86,0.88 -2.59,3.54 -3.46,4.43 -8.65,14.19 -12.11,-31.91 -8.65,18.62z"/>
   </g>
   <g>
    <path class="fil8" d="M1223.48 1981.91c14.71,58.52 -2.59,-2.65 25.96,42.56l329.66 7.98c7.79,-20.39 -1.73,-18.62 11.25,-46.1 0.87,-1.78 3.46,-5.32 5.19,-7.98 0.87,-2.66 3.47,-5.32 5.2,-7.09 36.34,-65.61 36.34,42.55 10.38,-23.05l-387.64 33.68z"/>
    <path class="fil8" d="M2061.05 1695.56c-10.38,28.37 -19.9,23.05 -1.73,46.99 -16.44,10.63 -14.71,7.98 -28.55,13.29 -2.6,1.78 -6.06,2.66 -9.52,4.44 -2.59,0.88 -6.05,1.77 -8.65,3.54l-67.49 23.05c-46.72,16.85 -78.74,29.26 -123.73,42.56 26.82,23.05 25.96,12.41 64.89,17.73 128.93,-12.41 177.38,-58.51 301.11,-83.34l84.8 -23.93 -40.67 -28.37c-12.11,-9.76 -13.84,-11.53 -26.82,-27.49 -21.63,26.6 -6.06,7.98 -7.79,49.65 -33.74,1.77 -58.84,9.75 -103.83,-14.18 -1.73,-0.89 -4.33,-2.66 -6.06,-3.55l-25.96 -20.39z"/>
    <path class="fil8" d="M1426.82 885.25l8.65 23.05c-0.86,44.33 -5.19,34.58 -25.09,69.15l16.44 41.67c4.33,22.16 -7.79,13.3 6.06,47.87 17.3,44.33 26.82,23.05 46.72,5.32l-6.06 19.51 38.07 -18.62c3.47,-1.77 8.66,-1.77 12.98,-2.66 17.31,-37.23 16.44,-40.78 -22.49,-47.87l-10.39 -104.62c-85.66,-13.29 -19.03,-2.66 -47.59,-23.05 42.4,5.32 181.71,8.87 212.86,1.78 -47.59,-21.28 -182.57,-17.73 -230.16,-11.53z"/>
   </g>
   <g>
    <path class="fil9" d="M1046.1 1856.91l4.33 24.82c-19.9,57.63 -15.57,19.51 -11.25,78.02 32.88,-19.5 41.53,-43.44 73.55,-37.23l39.8 18.61 -6.06 32.81c234.49,-80.68 175.65,-45.22 374.66,-62.06 14.71,-1.78 32.88,3.54 39.8,-11.53 15.58,-34.57 -6.92,1.78 -25.09,-31.91 -46.72,3.54 -123.73,-15.07 -193.82,-15.07 -64.89,7.09 -78.74,11.52 -131.52,23.05 -77,16.84 -93.44,7.97 -117.67,-37.24 -12.12,4.43 -39.8,14.19 -46.73,17.73z"/>
    <path class="fil9" d="M1012.36 1538.64c-14.71,22.16 -44.13,53.19 -51.05,54.97l-64.9 13.29c-27.68,41.67 -26.82,16.85 -22.49,61.18 44.99,-6.21 34.61,-20.39 99.5,-53.2l-35.47 69.15c32.88,-2.66 19.03,-15.07 24.22,15.08 3.47,0 7.79,-5.32 9.52,-1.78 12.98,23.94 12.98,-2.66 19.04,-4.43 20.76,-2.66 14.71,-4.43 38.93,-4.43l189.5 -47.88c-21.64,-20.39 -7.79,-23.93 -79.61,-15.96 23.36,-64.71 22.5,3.55 18.17,-50.53l-135.84 35.46c12.98,-16.84 18.17,-17.73 29.42,-34.57 19.03,-29.26 7.78,-4.43 24.22,-49.65l-63.16 13.3z"/>
    <path class="fil9" d="M1323.85 1033.31l-12.11 9.75c2.6,29.25 5.19,47.87 6.92,77.13 89.12,-1.78 -19.03,15.07 48.46,-59.4 34.61,39.01 -6.06,60.28 68.35,52.3 -2.59,-4.43 -5.19,-15.07 -6.06,-12.41 -3.46,9.76 -8.65,-18.61 -9.51,-21.27 -14.71,-28.37 -4.33,-6.21 -11.25,-19.51l-21.63 -57.62c-57.11,15.95 -12.98,-1.78 -63.17,31.03z"/>
   </g>
   <g>
    <path class="fil10" d="M1116.19 2022.7c-9.52,23.93 -13.84,39 -24.23,63.83l-70.08 -2.66 -13.85 20.39 40.67 9.75 0 77.13 -109.02 7.09c15.57,7.98 -4.33,2.66 34.61,11.53 123.73,29.25 134.11,-16.85 175.65,-37.24 24.22,-12.41 38.07,-13.29 56.24,-13.29 94.31,-2.66 122,53.19 146.23,-5.32l-66.63 -26.6c-43.26,-28.37 -48.45,-3.55 -85.66,-70.04 22.5,-42.55 47.59,-32.8 49.32,-32.8 -28.55,-45.21 -11.25,15.96 -25.96,-42.56l-107.29 40.79z"/>
    <path class="fil10" d="M340.92 1957.98c31.15,31.91 54.51,27.48 99.5,27.48 6.06,19.51 7.79,24.82 13.85,41.67 12.11,31.91 -6.93,7.98 25.09,32.8l36.34 23.94c0,0 14.71,18.62 52.78,-9.75l7.79 -8.87c6.92,-17.73 8.65,-18.62 14.71,-27.48 2.59,-5.32 9.52,-14.19 16.44,-25.71 -57.97,-33.69 -12.98,10.64 -35.48,-35.46 -5.19,-11.53 -3.46,-30.15 -3.46,-46.99l-63.16 4.43 -164.4 23.94z"/>
   </g>
   <g>
    <path class="fil11" d="M2587.13 749.61c103.83,-11.53 165.27,7.09 226.7,68.26 18.17,7.98 41.53,12.42 50.19,-10.64 13.84,-38.12 6.92,-6.2 -1.73,-23.93 0.86,-81.56 24.22,-129.44 18.17,-195.04 -6.06,-67.38 -5.2,-118.8 -6.93,-187.95l-15.57 35.46c-19.04,54.97 -21.63,117.91 -49.32,163.13l-16.44 23.05c-18.17,39 0,70.03 -19.04,85.99 -30.28,15.07 -125.46,16.85 -165.26,1.77 -68.36,-25.71 21.63,-25.71 -63.16,-28.37 -96.05,-2.66 -13.85,-5.31 -62.3,33.69 26.82,32.81 2.59,33.69 104.69,34.58z"/>
    <path class="fil11" d="M1949.44 1129.94l89.12 -6.21 5.19 -20.39 -27.69 -26.59c-12.11,-27.49 -4.33,-31.03 -4.33,-69.15 -13.84,4.43 -21.63,13.29 -36.34,0l-13.84 -39.01c0,-2.66 0,-8.87 0.87,-12.41 0,-0.89 0,-4.44 0,-3.55 0,0.89 0.86,-2.66 0.86,-3.55l33.75 -25.71c-3.47,-37.23 6.05,-0.88 -34.61,-18.61 -27.69,51.42 -28.56,1.77 -54.52,50.53 -15.57,28.37 14.71,39.89 33.75,63.83l-34.61 50.53c32.01,37.24 24.23,10.64 42.4,60.29z"/>
   </g>
   <g>
    <path class="fil12" d="M2628.67 2395.93c-8.66,44.33 1.73,21.28 -15.58,48.76l-20.77 127.67c40.67,-22.17 44.13,-61.17 70.96,-105.5 18.17,-31.03 48.45,-64.72 74.41,-101.95 89.12,-130.33 74.41,-173.77 142.77,-212.78l10.38 -94.86c-41.53,-10.64 -5.19,1.77 -32.88,-23.05 -44.99,-40.78 19.9,5.32 -21.63,-25.71 -31.15,52.31 -19.04,55.85 -39.8,110.82l-167.86 276.6z"/>
    <path class="fil12" d="M2220.26 1232.78l20.77 0.89 15.57 -24.83c-11.24,-19.5 -69.22,-72.69 -34.61,-143.62 8.66,-16.84 12.12,-15.96 19.04,-24.82l25.96 -30.14c-80.47,-5.32 -80.47,-26.6 -145.37,-39.9l-19.9 -5.32 -5.19 130.32c26.82,24.83 90.85,9.76 87.39,82.45 -3.46,66.49 -16.44,-9.75 -6.06,23.94 14.71,7.09 29.42,12.41 42.4,31.03z"/>
    <path class="fil12" d="M731.15 1730.13c-21.63,7.98 -13.84,8.87 -37.21,8.87 -21.63,0 -20.76,-4.43 -32.01,-8.87 17.3,-33.68 -30.29,-27.48 17.3,-26.59l-54.51 42.55c-28.55,31.03 -19.03,12.41 -16.44,70.93 87.39,-23.94 38.94,-37.24 143.64,-49.65 -3.47,-3.55 -17.31,-30.14 -20.77,-37.24z"/>
   </g>
   <g>
    <path class="fil13" d="M1216.56 2324.12l128.92 24.83 199.01 24.82c85.67,-2.66 156.62,-27.48 235.36,-6.21 80.46,21.28 139.3,34.58 224.1,46.99l105.56 18.62c68.35,12.41 262.17,14.18 295.05,-34.58 -277.75,29.26 -371.19,-12.41 -620.39,-61.17 -102.96,-20.39 -201.6,5.32 -315.82,-12.41 -109.89,-15.96 -156.61,-89.54 -251.79,-0.89z"/>
    <path class="fil13" d="M2365.63 1592.72c40.66,-7.98 27.68,-21.28 37.2,-68.27 -40.66,23.94 -51.05,27.49 -37.2,68.27z"/>
   </g>
   <g>
    <path class="fil14" d="M291.6 1684.92l42.4 78.9c16.44,31.92 12.11,59.4 -5.2,99.3 -38.93,-13.3 -47.59,-49.65 -69.22,-93.98l-24.22 12.41c50.18,63.84 -6.93,101.96 58.83,145.4 43.27,27.48 20.77,-29.26 46.73,31.03l164.4 -23.94c-64.9,-88.65 -61.44,26.6 -53.65,-193.27 -61.43,-15.95 -35.48,6.21 -72.68,-38.12 44.99,1.77 32.01,15.96 0.86,12.41l-21.63 -7.09c-1.73,-4.43 -8.65,-2.66 -12.11,-5.32 11.25,-6.2 79.6,-15.07 58.84,-70.04l-17.31 -30.14c-48.45,32.8 -57.11,54.97 -96.04,82.45z"/>
    <path class="fil14" d="M552.91 2540.44c-39.81,60.29 -13.85,5.32 -67.49,48.76l-6.06 63.83 -1.73 -0.88c0,0 197.28,-40.78 253.52,-114.37 -41.53,5.32 -19.04,11.53 -51.92,-11.52 29.42,-87.77 41.54,-7.98 57.98,-76.25 -70.95,24.83 -102.97,67.38 -184.3,90.43z"/>
    <path class="fil14" d="M919.78 2136.17c-74.42,-3.54 -69.22,-15.95 -88.26,47.88 34.61,23.94 66.62,18.62 108.16,14.18l109.02 -7.09 0 -77.13 -40.67 -9.75c-36.34,10.64 -44.13,18.62 -88.25,31.91z"/>
   </g>
   <g>
    <path class="fil15" d="M2188.25 402.08c67.49,-12.41 30.28,9.75 83.93,-10.64l45.86 -18.62c12.98,-5.31 47.59,-22.16 59.7,-28.36 103.83,-54.97 50.19,-63.84 186.03,28.36l13.85 88.66c-64.03,0 -8.66,2.66 -32.02,-12.41l-25.96 26.59c-28.55,20.4 -6.05,7.1 -43.26,22.17l58.84 -8.87 -2.6 25.71 63.17 -10.64c33.74,-110.81 -9.52,-50.53 21.63,-142.73 19.9,-60.29 20.76,-97.52 24.22,-178.2 -47.58,-23.05 -46.72,11.53 -83.93,-44.32l-131.52 89.54c8.66,-0.89 67.49,-5.32 72.69,-4.44 44.99,6.21 29.42,-2.66 35.47,50.54 -215.45,7.98 -128.06,43.44 -268.23,86.88 -43.26,13.3 -51.05,11.52 -77.87,40.78z"/>
    <path class="fil15" d="M48.46 2077.66l1.73 393.63c13.84,11.53 14.71,7.98 31.15,17.73 0.86,-35.46 13.84,-89.54 42.4,-102.84 12.98,-85.11 80.47,-21.27 90.85,-109.93 35.47,-57.63 37.21,-31.03 57.97,-79.79 -11.25,-8.87 -10.38,-20.39 -65.76,-15.07 -3.46,0 -39.8,9.75 -55.37,11.52 -29.42,-66.49 6.92,-39.89 -77.88,-52.3l15.58 -118.8c-46.73,12.41 -8.66,-1.77 -40.67,55.85z"/>
    <path class="fil15" d="M207.67 1825c26.82,31.02 20.76,45.21 6.92,57.62l-32.88 27.48c-25.09,25.71 -41.53,49.65 -67.49,74.47 57.97,15.08 166.13,100.18 176.51,-15.95l50.19 -10.64c-25.96,-60.29 -3.46,-3.55 -46.73,-31.03 -65.76,-43.44 -8.65,-81.56 -58.83,-145.4 -2.6,2.66 -12.98,15.96 -13.85,16.85 -6.06,8.86 -6.06,7.98 -13.84,26.6z"/>
   </g>
   <g>
    <path class="fil16" d="M2693.56 1444.67c-16.44,101.06 -28.55,236.7 -4.33,335.11l25.96 104.61c0.87,-2.66 2.6,-7.97 3.46,-9.75 0.87,-2.66 1.73,-7.09 3.46,-9.75 14.71,39.01 -11.24,12.41 17.31,22.16 46.72,16.85 29.42,-5.32 32.01,-7.09 -1.73,-0.88 -3.46,-3.54 -4.32,-1.77 0,0.89 -3.46,-2.66 -4.33,-2.66l-70.09 -35.46c45,-16.85 62.3,-49.65 92.59,-86.89 -11.25,-31.91 19.03,0 -34.61,-24.82 -5.19,-39.01 -1.73,-53.19 -5.19,-68.26l-8.66 -22.17c-6.92,-20.39 -5.19,-19.5 -11.25,-36.35l49.32 -20.39c0,-34.57 -7.78,-75.35 -0.86,-106.38 8.65,-39.9 15.57,-41.67 51.91,-42.56 12.12,-69.15 18.18,-160.46 -42.39,-199.47 -11.25,26.6 -9.52,39.01 -19.04,72.7l-20.76 35.46c-0.87,0.89 -5.2,3.54 -6.06,3.54 -0.87,0.89 -4.33,2.66 -6.06,3.55 15.58,39.01 25.96,13.3 29.42,30.14 -33.74,30.15 -19.9,35.47 -25.96,54.97l-41.53 11.53z"/>
    <path class="fil16" d="M896.41 1606.9l64.9 -13.29c6.92,-1.78 36.34,-32.81 51.05,-54.97 -2.6,-2.66 -24.23,-10.64 -43.26,-5.32 -20.77,4.43 -7.79,26.6 -113.35,0.89l-60.57 -14.19c0,1.77 0.86,2.66 0.86,4.43 0,2.66 0,7.1 0,7.98 -14.71,44.33 -25.09,0.89 -24.22,68.27 41.53,20.39 71.81,23.93 124.59,6.2z"/>
   </g>
   <g>
    <path class="fil17" d="M899.01 2398.59c-36.34,21.28 -52.78,10.64 -89.99,23.94l-36.34 19.5 88.26 -3.54 -89.12 74.47c-28.56,21.28 -9.52,9.75 -40.67,24.82 -56.24,73.59 -253.52,114.37 -253.52,114.37l35.47 7.09c-3.46,8.87 -7.78,8.87 -8.65,13.3 -1.73,4.43 -6.06,5.32 -7.79,7.09 -6.05,5.32 -17.3,12.41 -23.36,19.5 -21.63,24.83 -7.79,-12.41 -12.98,21.28 -7.78,48.76 -14.71,-2.66 7.79,27.49 99.51,-25.71 508.77,-250.01 565.02,-365.26 -3.47,0 -8.66,-1.78 -10.39,2.66l-75.28 16.84c-0.86,0 -46.72,-3.55 -48.45,-3.55z"/>
    <path class="fil17" d="M607.42 2012.06c-6.92,11.52 -13.85,20.39 -16.44,25.71 -6.06,8.86 -7.79,9.75 -14.71,27.48l93.45 -24.82c-25.96,72.69 33.74,41.67 -61.44,55.85 82.2,14.18 47.59,9.75 126.33,-37.24 44.99,-25.71 69.22,-37.23 116.81,-26.59l1.73 20.39c-6.92,46.99 -17.3,5.32 -18.17,4.43 4.33,3.55 9.52,2.66 12.11,9.75l35.48 40.79c12.11,15.07 -14.71,-6.21 13.84,15.95l23.37 12.41c44.12,-13.29 51.91,-21.27 88.25,-31.91l13.85 -20.39c16.44,-21.28 -23.36,-17.73 24.22,-17.73 -42.39,-3.55 -13.84,1.77 -41.53,-30.15 2.6,-0.88 6.92,-6.2 8.65,-3.54 10.39,28.37 9.52,-8.87 24.23,-21.28 -2.59,0.89 -6.05,2.66 -7.79,3.55l-25.09 11.52c-34.61,15.07 -64.03,25.71 -103.83,23.94 66.63,-15.07 95.18,-51.42 133.25,-93.98 -34.61,14.19 -39.8,11.53 -71.82,15.08 -43.26,44.32 -110.75,39.89 -165.26,21.27l-8.65 17.73c-12.98,13.3 -12.12,3.55 -27.69,6.21 -31.15,7.09 -23.36,13.3 -75.28,28.37l21.63 -39.01c13.85,-16.84 -0.86,-4.43 26.83,-24.82 12.97,-9.75 8.65,-5.32 23.36,-15.07 36.34,-23.05 28.55,-1.78 41.53,-38.12l-128.06 1.77c-21.63,26.59 -44.13,57.62 -63.16,82.45z"/>
   </g>
   <g>
    <path class="fil18" d="M2202.96 2848.96l67.49 10.64c-9.52,-51.42 -12.12,-35.46 3.46,-58.51 70.95,-102.84 71.82,-57.63 72.68,-131.21l33.75 -3.55c13.84,-143.62 89.98,-0.88 84.79,-115.25 -16.44,-7.98 -110.75,-18.62 -148.82,-28.37 -56.25,-14.18 -92.59,-9.75 -155.75,-9.75l128.06 15.07 -119.41 11.53c-6.05,68.26 -4.32,64.71 37.21,95.74 45.86,35.47 36.34,44.33 67.49,80.68 -26.82,61.17 44.13,-51.42 -13.85,15.96 -26.82,31.91 -23.36,-3.55 -9.51,25.71 41.53,92.2 -4.33,-72.7 12.11,21.27l-60.57 28.37 0.87 41.67z"/>
    <path class="fil18" d="M1303.95 505.81c57.97,-5.32 15.58,-24.83 79.61,-41.67 134.11,-35.46 154.88,43.44 138.44,165.78 -5.19,36.35 -2.6,0 -1.73,13.3 0.86,32.81 6.05,5.32 15.57,46.1 35.48,-46.98 26.82,-17.73 24.23,-99.29 -1.73,-46.1 -6.06,-99.29 -5.19,-143.62 -71.82,-28.37 -41.54,-64.72 -91.72,-80.68 -13.84,-20.39 12.11,24.83 -64.89,3.55 -69.23,-19.51 -18.18,-58.51 -53.65,-31.92 -39.8,28.37 -40.67,118.8 -40.67,168.45z"/>
   </g>
   <g>
    <path class="fil19" d="M1544.49 2373.77c129.79,19.5 137.58,-23.94 184.3,31.92l-54.51 57.62c69.22,-22.16 45,-39.89 115.08,-7.09 70.95,31.92 89.99,2.66 89.12,91.31 -0.86,27.49 -8.65,4.44 0.87,41.67 15.57,64.72 13.84,11.53 17.31,114.37 26.82,15.07 12.97,2.66 27.68,27.48l114.22 7.98 -53.65 -118.8c-16.44,-34.57 -7.79,-7.09 -12.11,-93.97l-12.98 -78.91 44.13 -32.8c-84.8,-12.41 -143.64,-25.71 -224.1,-46.99 -78.74,-21.27 -149.69,3.55 -235.36,6.21z"/>
    <path class="fil19" d="M1107.54 1345.37c-11.25,39.01 37.2,15.96 -31.15,34.58l14.71 20.39c0,2.66 -1.73,5.32 -2.6,8.86 -0.86,3.55 -2.59,7.1 -3.46,7.98 -11.25,12.41 -20.77,20.39 -34.61,-2.66 2.6,1.78 4.33,3.55 4.33,7.98l8.65 45.22c221.51,-78.02 64.03,-78.91 199.87,-132.1 0.87,-51.42 23.37,-7.09 -12.97,-40.78l-142.77 50.53z"/>
   </g>
   <g>
    <path class="fil20" d="M1994.43 1502.29l-6.06 16.85c56.24,3.54 121.14,6.2 176.52,0.88 16.44,-1.77 14.71,0 30.28,-5.32l83.07 -39.89c-49.32,-65.61 -38.08,-88.66 -23.37,-174.65 -38.93,-28.37 -179.97,-48.76 -202.47,-24.83 -20.76,38.13 8.65,75.36 -11.25,118.8 -19.03,39.9 -22.49,19.51 -39.8,80.68l-6.92 27.48z"/>
    <path class="fil20" d="M2067.11 1690.24l-6.06 5.32 25.96 20.39c1.73,0.89 4.33,2.66 6.06,3.55 44.99,23.93 70.09,15.95 103.83,14.18 1.73,-41.67 -13.84,-23.05 7.79,-49.65l0.86 -19.5c-19.9,-21.28 -37.2,35.46 -19.9,-52.31 -57.97,2.66 -19.9,-3.54 -71.81,20.39 7.78,-23.05 14.71,-0.88 5.19,-44.32 -0.87,-2.66 -1.73,-7.98 -4.33,-11.53l-63.16 14.19c12.11,42.55 33.74,57.62 15.57,99.29z"/>
   </g>
   <g>
    <path class="fil21" d="M1029.66 1688.47c-24.22,0 -18.17,1.77 -38.93,4.43 -6.06,1.77 -6.06,28.37 -19.04,4.43 -1.73,-3.54 -6.05,1.78 -9.52,1.78l0 40.78c-46.72,2.66 -56.24,6.2 -83.93,34.57 -1.73,4.43 -6.05,4.43 -7.78,10.64 -6.93,31.03 -2.6,0 -14.71,19.5 -13.85,22.17 -25.1,53.2 -15.58,79.79 1.73,4.44 -27.69,60.29 119.41,41.67 -12.12,-32.8 -13.85,-30.14 -1.73,-75.35 1.73,-8.87 16.44,-70.04 16.44,-70.04 12.98,-31.92 3.46,-32.8 62.3,-32.8 17.3,0 56.24,6.2 74.41,7.97l53.65 21.28c172.18,-124.12 319.28,-100.18 372.06,-149.83 -44.13,-20.39 -67.49,3.55 -95.18,-15.07 -75.28,7.98 -142.77,19.51 -212.86,39.9 -51.05,15.07 -141.03,51.42 -190.35,58.51l-8.66 -22.16z"/>
    <path class="fil21" d="M1558.34 2619.35c30.28,78.01 24.23,35.46 41.53,70.92 -21.63,50.53 -13.84,48.76 -30.28,101.95l-61.44 15.07c-30.28,27.49 2.6,-7.97 -29.42,13.3 -33.74,21.28 -12.97,-12.41 -35.47,30.15 302.84,-15.96 172.19,-6.21 166.13,-83.34 -7.79,-91.32 48.45,-5.32 -32.02,-282.81 69.23,-1.77 44.13,10.64 96.91,-21.28l54.51 -57.62c-46.72,-55.86 -54.51,-12.42 -184.3,-31.92l-199.01 -24.82 12.98 46.98c116.81,-52.3 102.1,41.67 198.15,14.19l83.93 -6.21c-14.71,32.81 -8.65,42.56 -37.21,53.2 -70.08,25.71 6.92,-23.94 -111.62,-7.1 -68.35,9.76 -63.16,-5.32 -50.18,30.15 0.86,2.66 19.03,19.5 22.5,21.27 21.63,8.87 62.29,7.1 90.85,9.76l3.46 108.16z"/>
    <path class="fil21" d="M2164.02 382.58c37.21,-23.05 21.63,-16.85 56.24,-55.86 62.3,-69.15 35.48,-15.95 51.05,-92.2 6.06,-31.91 44.13,-134.75 70.95,-164.9l-44.99 13.3c-11.25,25.71 -36.34,64.72 -44.99,85.11 -25.1,55.85 2.59,52.31 -36.34,92.2 -76.15,-31.03 7.78,-76.24 -88.26,-75.35 -24.23,32.8 -22.5,86.88 0,113.47 57.11,68.27 39.8,-45.21 36.34,84.23z"/>
   </g>
   <g>
    <path class="fil22" d="M1303.95 505.81c4.33,72.69 0.87,34.57 -27.69,49.64l64.03 147.17c31.15,4.43 72.68,-6.2 89.99,84.22 0.87,1.78 0.87,5.32 0,8.87 29.42,-38.12 12.98,-35.46 25.96,-78.02 4.32,-1.77 10.38,-12.41 12.11,-7.09l19.9 18.62c29.42,-10.64 38.94,-7.98 60.57,-33.69l-12.98 -6.21c-9.52,-40.78 -14.71,-13.29 -15.57,-46.1 -0.87,-13.3 -3.46,23.05 1.73,-13.3 16.44,-122.34 -4.33,-201.24 -138.44,-165.78 -64.03,16.84 -21.64,36.35 -79.61,41.67z"/>
    <path class="fil22" d="M1157.72 1574.1c4.33,54.08 5.19,-14.18 -18.17,50.53 71.82,-7.97 57.97,-4.43 79.61,15.96 95.18,-42.55 179.97,-21.27 224.1,-69.15 -15.58,1.77 -12.11,-22.16 -12.11,4.43 31.14,0 25.09,8.87 25.09,-19.5l-92.59 -7.98c17.31,-17.73 -25.95,-15.07 32.88,-14.18 -66.62,-29.26 -53.64,5.32 -110.75,20.39 -54.51,15.07 -86.52,-5.32 -128.06,19.5z"/>
   </g>
   <g>
    <path class="fil23" d="M2692.69 968.59c-43.26,96.63 -8.65,159.58 -18.17,261.53 -92.58,82.45 -53.64,70.92 -51.91,194.15l-14.71 89.55c-9.52,25.71 -24.23,39 -6.92,91.31 15.57,46.99 10.38,7.98 30.28,70.04 -53.64,27.48 -51.91,44.33 -57.11,205.68 -5.19,144.51 22.5,166.67 30.29,228.73 9.52,-13.3 3.46,7.09 12.98,-29.26 4.32,-15.96 4.32,-18.62 6.05,-34.57 31.15,-255.33 6.06,-498.25 81.34,-792.58 23.36,-92.2 59.7,-168.44 50.18,-265.97l-4.32 -27.48c-6.06,14.19 -10.39,46.99 -11.25,48.76 -1.73,3.55 -3.46,7.09 -4.33,9.75l-15.57 15.08c-0.87,-1.78 -6.06,5.31 -9.52,7.09l-17.31 -71.81z"/>
    <path class="fil23" d="M1759.94 863.09c351.3,-18.62 277.75,64.72 512.24,131.21 28.55,-37.24 10.38,0.88 13.84,-38.12 -2.59,-2.66 -242.27,-164.02 -297.65,-139.19 -31.15,30.14 -15.57,24.82 -80.47,24.82 35.48,-12.41 22.5,0.89 11.25,-21.28 -33.74,-6.2 -96.04,-7.09 -127.19,5.32 -43.26,17.73 0.86,11.53 0.86,12.41 6.06,35.47 52.78,-41.66 -32.88,24.83z"/>
   </g>
   <g>
    <path class="fil24" d="M700.87 1321.43c-1.73,2.66 -6.06,3.55 -6.93,8.87 -3.46,18.62 -8.65,9.75 -12.11,15.07 -9.52,15.96 -6.06,6.21 -12.11,23.05 -2.6,7.09 -6.93,48.76 -11.25,66.49l63.16 15.07c-8.65,-17.73 -15.57,0.89 12.98,-35.46l25.09 -25.71c27.69,3.55 50.19,11.53 72.69,10.64 82.19,-2.66 38.07,17.73 50.18,-31.91l37.21 44.32c72.68,-14.18 22.49,0.89 41.53,-27.48 -2.6,-1.77 -4.33,-4.43 -5.19,-4.43 -22.5,-17.73 -39.8,-29.26 -83.93,-23.05l181.7 -20.39c-14.71,-10.64 5.19,-1.78 -29.42,-15.96 -7.78,-2.66 -22.49,-7.09 -31.15,-10.64 16.44,-40.78 81.34,-72.7 131.52,-93.98 57.11,-23.93 77.88,-8.86 105.56,-69.15l53.65 -34.57 -1.73 -117.91c-30.28,-21.28 -71.82,1.77 -121.14,24.82 -5.19,30.14 -4.32,82.45 -8.65,100.18 -12.11,54.97 -1.73,15.96 -31.15,45.21 -1.73,1.78 -5.19,4.44 -6.92,6.21 -50.19,50.53 -65.76,63.83 -140.17,75.36 -95.18,14.18 -89.12,31.91 -155.75,48.76l-63.16 6.2c-1.73,0.89 -4.33,2.66 -5.19,2.66l-49.32 17.73z"/>
    <path class="fil24" d="M1367.98 1241.64c9.52,49.65 12.11,11.53 35.48,49.65l12.98 210.11c55.37,1.78 30.28,-5.31 83.93,-7.09 12.11,-10.64 4.32,10.64 23.36,-28.37 10.38,-20.39 1.73,-5.32 6.05,-28.37l-22.49 2.66c-15.58,-80.67 -38.07,-55.85 -48.46,-109.04 -13.84,-74.47 45,-54.97 0,-93.98l24.23 -0.88c8.65,-15.96 5.19,-15.08 15.58,-29.26 -73.55,6.21 -96.05,7.98 -130.66,34.57z"/>
   </g>
   <g>
    <path class="fil25" d="M2380.34 2666.33l-33.75 3.55c-0.86,73.58 -1.73,28.37 -72.68,131.21 -15.58,23.05 -12.98,7.09 -3.46,58.51l1.73 13.3 424.84 -1.77c-29.42,-25.71 43.26,-14.19 -50.18,-28.37 -20.77,15.95 23.36,21.27 6.05,-31.03 -14.71,-42.56 1.73,1.77 -12.98,-23.05 -45.85,-72.7 5.2,46.1 -16.44,-22.17 21.64,-13.3 60.57,-37.23 82.2,-57.62 2.6,-2.66 28.56,-35.47 28.56,-37.24 6.92,-42.55 26.82,60.29 -6.06,-31.91l-18.17 -24.83c-19.9,29.26 -28.55,60.29 -67.49,78.02 -40.67,49.65 -37.21,14.18 -74.41,85.11l-26.83 47.87c-7.78,17.73 -2.59,13.3 -2.59,14.19l-74.41 15.07c14.71,-54.97 13.84,-21.28 24.22,-66.49 12.12,-52.31 11.25,-90.43 77.88,-153.38 17.3,-16.84 0.86,-3.54 23.36,-17.73l2.59 -45.21c-53.64,23.93 0.87,7.09 -46.72,27.48 -28.55,12.41 -32.88,9.75 -58.84,17.73l-106.42 48.76z"/>
    <path class="fil25" d="M2298.14 629.04c1.73,-37.24 3.46,-18.62 -6.06,-41.67 -6.06,-12.41 -6.92,-10.64 -19.04,-15.96 2.6,2.66 -37.2,10.64 12.98,3.55 16.44,-2.66 12.98,-11.53 44.13,-48.76 45.86,-56.74 52.78,-93.98 114.22,-79.79l50.18 -9.75c11.25,-11.53 19.9,-24.83 30.28,-39.01l-43.26 -46.99c-13.84,6.21 -57.97,17.73 -73.55,24.82 -41.53,19.51 -6.05,-3.54 -31.15,45.22 -49.32,-24.82 -50.18,-11.53 -89.12,12.41 -50.18,31.92 -119.4,31.03 -134.98,218.98 6.92,-7.09 43.27,22.16 -12.98,-46.99 -1.73,2.66 -4.32,7.09 -6.05,8.87l-12.12 14.18c-5.19,5.32 -42.39,4.43 -19.9,67.38 209.39,62.94 163.54,-20.39 196.42,-66.49z"/>
   </g>
   <g>
    <path class="fil26" d="M1184.55 2384.41c0.86,110.82 -74.42,405.15 -119.41,495.58l1117.92 -2.66c40.66,-13.3 38.93,-8.86 89.12,-4.43l-1.73 -13.3 -67.49 -10.64c-35.48,-10.64 -65.76,-42.55 -83.93,-82.45 15.57,-33.69 10.38,-25.71 40.66,-38.12 -21.63,-8.86 -66.62,-18.62 -97.77,-21.28l-6.92 -130.32c-73.55,-14.18 -25.09,-8.86 -43.27,-21.28 -5.19,-2.66 -28.55,-21.27 -38.93,-29.25 4.32,86.88 -4.33,59.4 12.11,93.97l53.65 118.8c11.25,34.58 18.17,24.82 21.63,56.74 6.06,63.83 3.46,35.46 -17.31,50.53l47.59 8.87c-147.96,0 -612.6,24.82 -708.64,-5.32l-231.03 -7.98c-16.44,-42.55 -1.73,14.18 7.79,-49.65 12.98,-89.54 -9.52,-25.71 22.5,-152.48l6.92 -32.81c12.11,-57.62 40.66,-172.87 24.22,-229.61 -0.86,-2.66 -4.32,-4.44 -4.32,-9.76 -0.87,-5.31 -3.46,-7.09 -6.06,-9.75l-17.3 26.6z"/>
    <path class="fil26" d="M1883.68 690.21c61.43,20.39 134.98,47.87 196.41,39.89 15.58,-12.41 53.65,-0.88 -21.63,-20.39 -23.36,-15.95 -25.96,16.85 -10.38,-54.08 3.46,-17.73 17.3,-44.32 27.68,-62.94l-68.35 7.09c-7.79,-116.14 -8.65,-156.03 111.62,-143.62l-12.12 62.95c41.54,-35.47 22.5,-19.51 29.42,-69.16 7.79,-50.53 3.46,-39 26.83,-76.24 -129.79,36.35 -71.82,0.89 -142.77,-20.39 -55.38,-16.84 -13.85,19.5 -159.21,5.32 -31.15,-50.53 12.98,-22.16 -44.13,-79.79 -32.88,-32.8 -27.69,-18.62 -44.13,-74.47l-18.17 0.89c6.92,43.44 39.8,89.54 55.38,193.26l-46.72 10.64c-0.87,0.89 -5.2,0.89 -6.93,1.78l80.47 19.5c6.92,0 28.56,-4.43 32.02,-4.43 94.31,-4.43 9.51,61.17 95.18,83.33 -4.33,104.62 -5.2,8.87 -31.15,59.4 22.49,51.42 -7.79,25.71 42.39,35.46 -2.59,2.66 -8.65,2.66 -10.38,7.98l-12.11 37.24c0.86,1.77 4.32,7.09 5.19,8.86 0.86,1.78 5.19,6.21 6.06,10.64 -89.99,-13.3 -71.82,8.87 -80.47,21.28z"/>
    <path class="fil26" d="M1352.41 2153.91c44.12,-5.32 86.52,-6.21 122,-13.3 53.64,-9.75 96.04,-26.6 153.15,-30.15l13.84 -65.6c-39.8,-23.94 0.87,-16.84 -24.22,5.32l-21.64 32.8c-25.09,-26.59 -27.68,41.67 -16.44,-50.53l-329.66 -7.98c-1.73,0 -26.82,-9.75 -49.32,32.8 37.21,66.49 42.4,41.67 85.66,70.04l66.63 26.6z"/>
   </g>
   <g>
    <path class="fil27" d="M1707.16 2194.69l-31.15 -4.44 19.9 -13.29c-62.29,1.77 -59.7,22.16 -115.07,33.69l-3.47 43.44 -63.16 20.39 12.11 21.27 300.25 24.83c6.92,3.54 196.41,54.08 247.46,50.53l37.21 -1.77c117.68,9.75 -19.9,-12.41 98.64,-1.78 50.18,4.44 22.5,18.62 44.99,-27.48l12.12 28.37c38.93,-8.86 21.63,-4.43 50.18,-35.46 1.73,2.66 2.6,4.43 2.6,7.09l11.25 31.92 35.47 -37.24 13.85 33.69c9.51,-3.54 30.28,-16.84 30.28,-17.73 73.55,-30.14 9.52,-6.21 29.42,-2.66 33.74,6.21 4.33,-5.32 53.64,-24.82 53.65,-6.21 22.5,-5.32 72.69,1.77l44.99 -187.95c-52.78,-21.28 -54.51,-8.86 -74.41,51.42 -13.85,41.67 -30.29,71.81 -45.86,111.71 -67.49,6.2 -109.02,10.64 -174.78,13.3 -72.69,3.54 -123.74,4.43 -194.69,-9.76 -202.47,-41.66 -124.59,41.67 -250.06,-15.95 -67.49,-30.15 -12.98,11.52 -48.45,-51.42 -65.76,4.43 -63.17,21.27 -134.12,7.09 -8.65,-39.9 11.25,-42.56 18.17,-48.76z"/>
    <path class="fil27" d="M1680.34 865.75c19.04,-24.83 5.19,-9.75 25.09,-27.49 15.58,-15.07 8.66,-3.54 26.83,-22.16 -84.8,-55.85 -123.74,-42.55 -144.5,-45.21 16.44,-29.26 -4.33,-15.96 55.37,-43.44l1.73 -28.37 -120.27 42.55c0.87,-0.89 6.06,-0.89 6.93,5.32l17.3 24.82c14.71,44.33 0,-14.18 -3.46,27.49 0,0.88 0.86,4.43 0.86,5.32 -1.73,50.53 -42.39,43.44 134.12,61.17z"/>
    <path class="fil27" d="M2387.26 1185.79c64.03,19.51 26.82,36.35 38.07,90.43l32.01 34.58 47.59 -13.3c-2.59,-59.4 63.17,-8.87 5.19,-127.67 -73.54,11.53 -11.24,9.76 -65.75,23.05 -23.37,-30.14 -33.75,-41.66 -60.57,-72.69l3.46 65.6z"/>
   </g>
   <g>
    <path class="fil28" d="M2813.83 817.87c31.15,111.71 -107.29,481.4 -120.27,626.8l41.53 -11.53c6.06,-19.5 -7.78,-24.82 25.96,-54.97 -3.46,-16.84 -13.84,8.87 -29.42,-30.14 1.73,-0.89 5.19,-2.66 6.06,-3.55 0.86,0 5.19,-2.65 6.06,-3.54l20.76 -35.46c9.52,-33.69 7.79,-46.1 19.04,-72.7 60.57,39.01 54.51,130.32 42.39,199.47 -5.19,39.9 -6.05,89.54 -2.59,132.1 4.33,62.94 26.82,67.38 19.03,108.16 -0.86,2.66 -85.66,168.44 19.91,198.59 31.15,-99.3 12.97,-646.3 5.19,-789.03l-5.19 -298.77c8.65,17.73 15.57,-14.19 1.73,23.93 -8.66,23.06 -32.02,18.62 -50.19,10.64z"/>
    <path class="fil28" d="M2087.88 1854.25c-7.79,41.67 -14.71,30.14 -1.73,63.83 65.76,40.78 86.52,-7.98 88.25,-64.71l-19.9 -35.47 -52.78 9.76 -13.84 26.59z"/>
   </g>
   <g>
    <path class="fil29" d="M1282.32 994.3l1.73 117.91c7.79,97.52 8.65,-5.32 -23.36,59.4 -22.5,43.44 -7.79,-16.85 -19.9,57.62l92.58 0c92.58,-49.64 199.88,-39.01 312.36,-41.66 113.35,-1.78 255.25,-10.64 357.35,-4.44l22.5 -24.82c8.65,-9.75 8.65,-22.16 12.98,-34.58l-89.12 6.21c-64.9,-16.85 -19.04,-23.05 -94.32,-38.12 -86.52,-16.85 -140.17,3.54 -209.39,7.98 -86.53,5.32 -70.95,-2.66 -84.8,-6.21 -2.59,-0.89 -8.65,0 -10.38,-3.55 -1.73,-4.43 -6.92,-2.66 -9.52,-4.43 -22.49,11.53 -10.38,14.19 -16.44,-15.07 -4.32,0.89 -9.51,0.89 -12.98,2.66l-38.07 18.62 -28.55 42.55c-16.44,18.62 -12.11,14.19 -39.8,23.94 12.98,-15.96 29.42,-44.33 30.28,-45.22 -74.41,7.98 -33.74,-13.29 -68.35,-52.3 -67.49,74.47 40.66,57.62 -48.46,59.4 -1.73,-29.26 -4.32,-47.88 -6.92,-77.13 19.04,-54.97 23.36,-53.2 4.33,-108.16l-33.75 59.4z"/>
    <path class="fil29" d="M181.71 2801.97c-64.9,7.98 -51.92,24.83 -107.29,45.22l89.98 -63.83c30.29,14.18 2.6,-9.75 17.31,18.61zm0 0l42.4 -15.95c2.59,-2.66 6.92,-5.32 9.52,-6.21l-21.64 -31.91 28.56 -120.58c37.2,-64.71 174.78,-4.43 223.23,-62.94 -70.95,8.86 -169.59,21.28 -240.54,19.5 2.6,28.37 -10.38,86.89 -6.92,133.87 -85.66,4.44 -63.16,3.55 -119.41,-34.57 -35.47,-54.97 -15.57,-43.44 -15.57,-43.44 -0.87,-5.32 -0.87,-42.56 -0.87,-50.54 2.6,-46.98 10.39,-51.42 0.87,-100.18 -16.44,-9.75 -17.31,-6.2 -31.15,-17.73l1.73 402.5c83.07,4.43 117.68,0 129.79,-71.82z"/>
    <path class="fil29" d="M2863.15 2362.25c-19.03,43.44 -28.55,71.81 -40.67,99.29 -24.22,52.31 -127.19,188.83 -175.64,216.32l-4.33 15.07c38.94,-17.73 47.59,-48.76 67.49,-78.02l18.17 24.83c32.88,92.2 12.98,-10.64 6.06,31.91 0,1.77 -25.96,34.58 -28.56,37.24 -21.63,20.39 -60.56,44.32 -82.2,57.62 21.64,68.27 -29.41,-50.53 16.44,22.17 14.71,24.82 -1.73,-19.51 12.98,23.05 17.31,52.3 -26.82,46.98 -6.05,31.03 93.44,14.18 20.76,2.66 50.18,28.37l-12.98 -24.83c19.04,-19.5 28.56,-12.41 39.8,-44.33 6.93,-18.61 3.47,-35.46 6.06,-57.62 9.52,-90.43 67.49,-134.76 106.43,-177.31 6.05,-7.09 12.11,-14.19 19.03,-20.39l17.31 -11.53 10.38 -196.81c-25.09,15.96 -10.38,8.86 -19.9,23.94z"/>
   </g>
   <g>
    <path class="fil30" d="M333.13 2216.85c-39.8,15.07 -45.86,41.67 -66.63,70.93l-51.91 -11.53c-10.38,88.66 -77.87,24.82 -90.85,109.93 32.01,-11.52 27.69,15.07 27.69,-12.41l25.09 0c6.92,31.03 6.92,20.39 25.09,40.78l18.17 18.62c0.87,0.89 0.87,3.55 1.73,4.43l44.13 50.54c38.94,-93.09 20.77,-24.83 205.07,-109.94l39.8 -16.84 -6.92 -48.76c-141.91,42.55 -53.65,6.2 -149.69,-14.19 35.47,-31.91 48.45,0 76.14,16.85 7.79,-12.41 8.65,-4.43 10.38,-31.03 0.87,-18.62 -3.46,-37.24 -7.79,-57.63 127.2,93.09 53.65,8.87 99.51,65.61 -17.31,-43.44 -22.5,31.03 -20.77,-75.36 57.11,7.98 66.63,-11.52 104.7,70.04 56.24,119.68 27.69,114.36 193.82,118.8 5.19,-7.1 17.3,-66.49 65.76,-31.92l10.38 9.75c35.48,34.58 -4.33,-29.25 12.98,15.07 1.73,0 47.59,3.55 48.45,3.55l75.28 -16.84c1.73,-4.44 6.92,-2.66 10.39,-2.66 57.97,-23.05 26.82,-31.03 70.08,-83.34 -52.78,11.53 -110.75,2.66 -155.75,-25.71 -47.58,0.89 -40.66,-8.87 -81.33,-3.55l-14.71 8.87 4.33 11.52 14.71 25.71c-26.83,-6.2 -72.69,-22.16 -91.72,-26.59 -57.97,-11.53 -64.9,33.69 -54.51,-16.85l-41.53 20.39c12.11,-31.02 -6.06,-30.14 35.47,-43.44l-41.53 4.44c-6.92,-64.72 -6.92,-27.49 -27.69,-77.13 -18.17,3.54 -89.12,20.39 -94.31,20.39 -45.86,0 -4.33,5.32 -35.48,-15.07 -75.28,-49.65 -41.53,30.14 -186.03,34.57z"/>
    <path class="fil30" d="M1641.4 1614.88l-23.36 7.98c2.6,51.42 7.79,93.09 8.65,131.21 1.73,57.63 -19.9,62.06 -4.32,101.95 38.07,0 12.98,-3.54 21.63,15.08 84.79,9.75 49.32,-7.1 118.54,-14.19 0.87,-1.77 0,-8.86 0,-7.09l5.19 -30.14c12.12,-32.81 78.74,-91.32 109.02,-115.26 37.21,-29.25 67.49,-52.3 123.74,-47.87 102.1,9.75 41.53,-7.09 66.62,33.69 18.17,-41.67 -3.46,-56.74 -15.57,-99.29l63.16 -14.19c2.6,3.55 3.46,8.87 4.33,11.53 9.52,43.44 2.59,21.27 -5.19,44.32 51.91,-23.93 13.84,-17.73 71.81,-20.39 -17.3,87.77 0,31.03 19.9,52.31 3.46,-53.19 13.85,-69.15 29.42,-100.18 -106.42,3.55 -204.2,-11.53 -297.65,-7.09 -91.72,3.54 -183.43,14.18 -278.61,19.5 -0.87,1.77 -0.87,3.55 -0.87,6.21l-16.44 31.91z"/>
   </g>
   <g>
    <path class="fil31" d="M1250.31 1294.84c36.34,33.69 13.84,-10.64 12.97,40.78 -135.84,53.19 21.64,54.08 -199.87,132.1l-8.65 -45.22c0,-4.43 -1.73,-6.2 -4.33,-7.98 13.84,23.05 23.36,15.07 34.61,2.66 0.87,-0.88 2.6,-4.43 3.46,-7.98 0.87,-3.54 2.6,-6.2 2.6,-8.86l-14.71 -20.39c68.35,-18.62 19.9,4.43 31.15,-34.58l-146.23 39.01c-19.04,28.37 31.15,13.3 -41.53,27.48 -35.48,-3.54 -23.37,-13.3 -57.98,-6.2 -93.44,16.84 -18.17,0.88 -51.91,29.25l76.14 5.32c-24.23,31.92 -81.33,18.62 -126.33,18.62 -14.71,46.99 -30.28,23.05 -42.39,86.88l-3.47 46.99c8.66,-70.93 8.66,-29.26 32.88,-80.68l48.46 7.98 60.57 14.19c105.56,25.71 92.58,3.54 113.35,-0.89 19.03,-5.32 40.66,2.66 43.26,5.32l63.16 -13.3c-16.44,45.22 -5.19,20.39 -24.22,49.65 -11.25,16.84 -16.44,17.73 -29.42,34.57l135.84 -35.46c41.54,-24.82 73.55,-4.43 128.06,-19.5 57.11,-15.07 44.13,-49.65 110.75,-20.39 62.3,-1.78 75.28,-7.98 103.84,-39.9 -53.65,1.78 -28.56,8.87 -83.93,7.09l-12.98 -210.11c-23.37,-38.12 -25.96,0 -35.48,-49.65l-117.67 53.2z"/>
    <path class="fil31" d="M533.87 1484.56l31.15 -44.33c0,20.39 17.3,-0.88 -2.6,29.26 -16.44,24.82 -2.59,9.75 -28.55,15.07zm328.8 -343.98c-12.98,22.16 -19.9,31.03 -36.34,46.99 -35.48,35.46 16.44,18.61 -41.53,25.71 -52.79,67.37 -41.54,46.1 -127.2,54.96 -122.86,216.32 -72.68,101.95 -132.38,175.54 -19.9,24.82 -30.29,42.55 -25.09,63.83 -7.79,-23.05 -14.71,-20.39 6.05,-20.39 0,-28.37 -3.46,-2.66 27.69,-2.66l7.79 35.46c40.66,-22.16 25.96,-6.2 48.45,-38.12 1.73,26.6 -5.19,2.66 25.96,13.3 -3.46,-50.53 0,-4.43 8.65,-18.62 0.87,-0.89 2.6,-3.55 3.46,-4.43 0,0 1.73,-2.66 1.73,-3.55 26.83,-62.06 -19.03,-108.16 70.96,-147.17l49.32 -17.73c0.86,0 3.46,-1.77 5.19,-2.66l63.16 -6.2c66.63,-16.85 60.57,-34.58 155.75,-48.76 74.41,-11.53 89.98,-24.83 140.17,-75.36 1.73,-1.77 5.19,-4.43 6.92,-6.21 29.42,-29.25 19.04,9.76 31.15,-45.21 4.33,-17.73 3.46,-70.04 8.65,-100.18 49.32,-23.05 90.86,-46.1 121.14,-24.82l33.75 -59.4c19.03,54.96 14.71,53.19 -4.33,108.16l12.11 -9.75 32.02 -77.13c2.59,-1.78 10.38,-8.87 12.98,-10.64l66.62 -37.24 -8.65 -23.05c-134.12,15.07 -194.68,66.49 -301.98,118.8 -57.97,27.48 -153.15,61.17 -205.93,98.41 -21.63,15.07 -6.92,7.09 -28.55,22.16 -20.77,15.07 -6.06,10.64 -27.69,15.96z"/>
    <path class="fil31" d="M2075.76 592.69l31.15 -73.58 12.12 -62.95c-120.27,-12.41 -119.41,27.48 -111.62,143.62l68.35 -7.09z"/>
   </g>
   <g>
    <path class="fil32" d="M1754.75 205.27l18.17 -0.89c3.46,1.77 6.93,2.66 7.79,7.09l69.22 52.31c31.15,12.41 86.53,30.14 112.49,32.8 51.05,-7.98 127.19,-101.95 164.39,-126.78 66.63,-43.44 38.94,-2.66 84.8,-30.14 21.63,-12.41 19.9,-33.69 22.5,-37.23l24.22 15.95c11.25,-44.32 -13.84,-23.05 38.94,-35.46l44.99 -13.3c70.09,-19.5 67.49,-25.71 141.91,-3.54 87.39,25.71 100.37,-20.39 224.1,15.96 41.53,12.41 0.86,21.27 41.53,0.88l12.12 -7.09c46.72,-25.71 72.68,-31.03 87.39,6.21l6.05 -38.13 -556.36 -9.75 -32.88 8.87c-40.67,6.2 -659.33,0 -814.21,13.3 43.26,5.32 90.85,7.98 134.12,14.18 61.43,9.75 70.08,23.94 122,26.6 0,94.86 13.84,54.96 46.72,108.16z"/>
    <path class="fil32" d="M959.58 1926.06c88.25,-15.96 35.47,6.21 90.85,-44.33l-4.33 -24.82c4.33,-43.44 6.06,-33.69 6.06,-34.57 38.07,-70.04 37.21,26.59 58.84,-66.5 -18.17,-1.77 -57.11,-7.97 -74.41,-7.97 -58.84,0 -49.32,0.88 -62.3,32.8 0,0 -14.71,61.17 -16.44,70.04 -12.12,45.21 -10.39,42.55 1.73,75.35z"/>
   </g>
   <g>
    <path class="fil33" d="M2825.94 1432.25c-36.34,0.89 -43.26,2.66 -51.91,42.56 -6.92,31.03 0.86,71.81 0.86,106.38l-49.32 20.39c6.06,16.85 4.33,15.96 11.25,36.35l8.66 22.17c3.46,15.07 0,29.25 5.19,68.26 53.64,24.82 23.36,-7.09 34.61,24.82 -30.29,37.24 -47.59,70.04 -92.59,86.89l70.09 35.46c0.87,0 4.33,3.55 4.33,2.66 0.86,-1.77 2.59,0.89 4.32,1.77 -2.59,1.77 14.71,23.94 -32.01,7.09 -28.55,-9.75 -2.6,16.85 -17.31,-22.16 -1.73,2.66 -2.59,7.09 -3.46,9.75 -0.86,1.78 -2.59,7.09 -3.46,9.75l-25.96 -104.61 -12.11 74.47c-0.87,35.46 -3.46,54.08 -7.79,89.54l-52.78 316.5c-9.52,56.74 5.19,26.6 -41.53,93.09l-24.23 36.35 57.11 11.52c2.59,-32.8 -5.19,-17.73 20.77,-5.32l167.86 -276.6c20.76,-54.97 8.65,-58.51 39.8,-110.82 41.53,31.03 -23.36,-15.07 21.63,25.71 27.69,24.82 -8.65,12.41 32.88,23.05l-7.79 -975.2 -15.57 0c7.78,142.73 25.96,689.73 -5.19,789.03 -105.57,-30.15 -20.77,-195.93 -19.91,-198.59 7.79,-40.78 -14.7,-45.22 -19.03,-108.16 -3.46,-42.56 -2.6,-92.2 2.59,-132.1z"/>
    <path class="fil33" d="M424.85 1579.42c-13.85,8.87 -19.9,11.53 -37.21,23.05l17.31 30.14c20.76,54.97 -47.59,63.84 -58.84,70.04 3.46,2.66 10.38,0.89 12.11,5.32l21.63 7.09c31.15,3.55 44.13,-10.64 -0.86,-12.41 37.2,44.33 11.25,22.17 72.68,38.12 -7.79,219.87 -11.25,104.62 53.65,193.27l63.16 -4.43c0,16.84 -1.73,35.46 3.46,46.99 22.5,46.1 -22.49,1.77 35.48,35.46 19.03,-24.83 41.53,-55.86 63.16,-82.45l128.06 -1.77c-12.98,36.34 -5.19,15.07 -41.53,38.12 -14.71,9.75 -10.39,5.32 -23.36,15.07 -27.69,20.39 -12.98,7.98 -26.83,24.82 102.97,-79.79 139.31,-19.5 255.25,-34.57 32.02,-3.55 37.21,-0.89 71.82,-15.08l5.19 3.55c-4.32,-58.51 -8.65,-20.39 11.25,-78.02 -55.38,50.54 -2.6,28.37 -90.85,44.33 -147.1,18.62 -117.68,-37.23 -119.41,-41.67 -9.52,-26.59 1.73,-57.62 15.58,-79.79 12.11,-19.5 7.78,11.53 14.71,-19.5 1.73,-6.21 6.05,-6.21 7.78,-10.64 -77.87,43.44 -182.57,62.06 -287.26,57.63 -6.06,-50.54 -16.44,-72.7 6.92,-113.48 20.77,-37.24 43.26,-27.48 66.62,-76.24 -96.04,11.52 -73.54,21.27 -121.13,35.46 4.32,-47.88 19.9,-82.45 -25.09,-101.96 -46.73,-21.27 -77.88,69.16 -93.45,3.55z"/>
    <path class="fil33" d="M713.84 1592.72c-20.76,49.65 14.71,16.84 51.92,28.37 -38.94,39.01 -13.84,-7.98 -32.01,62.06 44.99,-11.53 99.5,14.18 140.17,-15.07 -4.33,-44.33 -5.19,-19.51 22.49,-61.18 -52.78,17.73 -83.06,14.19 -124.59,-6.2 -0.87,-67.38 9.51,-23.94 24.22,-68.27 0,-0.88 0,-5.32 0,-7.98 0,-1.77 -0.86,-2.66 -0.86,-4.43l-48.46 -7.98c-24.22,51.42 -24.22,9.75 -32.88,80.68z"/>
    <path class="fil33" d="M1889.73 1776.24c100.37,-13.3 111.62,-52.31 119.41,-92.21 -146.23,10.64 -117.68,73.59 -119.41,92.21z"/>
   </g>
   <g>
    <path class="fil34" d="M1152.53 165.37c19.9,209.23 118.54,549.66 224.1,676.44l-278.61 136.53c-167,64.72 -150.56,75.36 -271.69,148.05 17.3,18.62 -33.75,14.19 36.34,14.19 21.63,-5.32 6.92,-0.89 27.69,-15.96 21.63,-15.07 6.92,-7.09 28.55,-22.16 52.78,-37.24 147.96,-70.93 205.93,-98.41 107.3,-52.31 167.86,-103.73 301.98,-118.8 47.59,-6.2 182.57,-9.75 230.16,11.53 120.27,-16.85 411,-19.51 464.64,73.58 64.9,13.3 64.9,34.58 145.37,39.9l50.18 4.43 -44.99 -20.39c-234.49,-66.49 -160.94,-149.83 -512.24,-131.21l-79.6 2.66c-176.51,-17.73 -135.85,-10.64 -134.12,-61.17 0,-0.89 -0.86,-4.44 -0.86,-5.32 3.46,-41.67 18.17,16.84 3.46,-27.49l-17.3 -24.82c-0.87,-6.21 -6.06,-6.21 -6.93,-5.32l120.27 -42.55c89.99,-35.47 140.18,4.43 221.51,23.93 75.28,17.73 173.05,29.26 250.06,41.67 166.13,25.71 335.72,24.82 507.04,1.77l-36.34 -9.75c-54.51,-13.3 -105.56,-5.32 -162.67,0 -15.57,1.77 -38.93,6.21 -57.97,0.89 -38.07,-9.75 -31.15,26.59 -32.01,-26.6l-42.4 17.73c-12.11,-22.16 -5.19,-2.66 -33.75,-15.96 -14.71,18.62 -1.73,11.53 -37.2,14.19 -1.73,0.89 -38.94,-1.77 -44.13,-2.66 -35.48,-2.66 -70.09,-6.21 -96.91,-14.19 -61.43,7.98 -134.98,-19.5 -196.41,-39.89 -46.73,-12.41 -130.66,-39.01 -174.79,-36.35 -62.29,2.66 -102.1,39.01 -160.07,41.67 -21.63,25.71 -31.15,23.05 -60.57,33.69 -24.22,39.89 -15.57,70.04 -10.38,125.89 -90.85,-1.77 -43.26,10.64 -89.12,-60.29 -28.56,-43.44 -32.02,-30.14 -48.46,-92.2l-64.03 -147.17c-24.22,-94.86 -45.86,-143.62 -64.89,-255.32 -12.98,-78.91 -18.17,-217.21 -46.72,-259.76 -15.58,20.39 -6.06,0 -12.98,30.14 -0.87,4.43 -2.6,18.62 -2.6,23.05 -0.86,13.3 2.6,57.63 3.46,71.81z"/>
    <path class="fil34" d="M629.91 1575.87c31.15,43.45 -6.92,12.42 21.64,17.74 0.86,0 17.3,-14.19 19.03,-15.96l46.73 -31.92c12.11,-63.83 27.68,-39.89 42.39,-86.88 8.66,-7.09 6.06,-12.41 38.07,-21.28l-40.66 0.89c-25.1,54.08 -33.75,26.6 -63.17,72.7 -25.95,40.78 -14.71,60.28 -64.03,64.71z"/>
   </g>
   <g>
    <path class="fil35" d="M1165.51 2247.88c13.84,-29.26 5.19,-21.28 39.8,-41.67 -24.22,63.83 -19.9,35.46 -39.8,41.67zm-589.24 -182.63l-7.79 8.87c16.44,24.82 7.79,21.27 31.15,33.69 -33.75,17.73 -194.68,26.59 -246.6,28.36 -24.23,53.2 -7.79,29.26 -19.9,80.68 144.5,-4.43 110.75,-84.22 186.03,-34.57 31.15,20.39 -10.38,15.07 35.48,15.07 5.19,0 76.14,-16.85 94.31,-20.39 20.77,49.64 20.77,12.41 27.69,77.13l41.53 -4.44c-41.53,13.3 -23.36,12.42 -35.47,43.44l41.53 -20.39c66.62,18.62 -0.87,-8.86 55.37,-5.32 2.6,0 64.03,20.4 76.15,23.05l-4.33 -11.52 -25.09 -39.9c39.8,4.44 12.11,-16.84 39.8,31.03 40.67,-5.32 33.75,4.44 81.33,3.55 -10.38,-46.1 50.19,6.21 115.95,7.09 27.69,0 20.77,-1.77 44.99,-10.64l46.73 -19.5c2.59,-0.89 6.92,-1.77 10.38,-2.66 -19.9,62.95 -8.65,9.75 12.11,30.14 78.74,-25.71 321.02,-64.72 329.67,-92.2l-0.87 -10.64c91.72,-1.77 86.53,-7.09 121.14,-64.72 -57.11,3.55 -99.51,20.4 -153.15,30.15 -35.48,7.09 -77.88,7.98 -122,13.3 -24.23,58.51 -51.92,2.66 -146.23,5.32 -18.17,0 -32.02,0.88 -56.24,13.29 -41.54,20.39 -51.92,66.49 -175.65,37.24 -38.94,-8.87 -19.04,-3.55 -34.61,-11.53 -41.54,4.44 -73.55,9.76 -108.16,-14.18 19.04,-63.83 13.84,-51.42 88.26,-47.88l-23.37 -12.41c-28.55,-22.16 -1.73,-0.88 -13.84,-15.95l-35.48 -40.79c-2.59,-7.09 -7.78,-6.2 -12.11,-9.75 0.87,0.89 11.25,42.56 18.17,-4.43l-1.73 -20.39c-47.59,-10.64 -71.82,0.88 -116.81,26.59 -78.74,46.99 -44.13,51.42 -126.33,37.24 95.18,-14.18 35.48,16.84 61.44,-55.85l-93.45 24.82z"/>
    <path class="fil35" d="M1675.15 2023.58l-12.12 117.91c42.4,-18.61 104.7,-39 156.62,-50.53 86.52,-18.62 89.98,-27.48 149.69,-69.15 -2.6,-3.55 -6.92,-11.53 -7.79,-9.75l-22.5 -52.31 -123.73 -3.55c-95.18,19.51 -72.68,36.35 -57.97,93.09 -19.04,-31.03 -18.17,-87.77 -82.2,-25.71z"/>
    <path class="fil35" d="M1037.45 2011.17c-14.71,12.41 -13.84,49.65 -24.23,21.28 -1.73,-2.66 -6.05,2.66 -8.65,3.54 27.69,31.92 -0.86,26.6 41.53,30.15 -47.58,0 -7.78,-3.55 -24.22,17.73l70.08 2.66c10.39,-24.83 14.71,-39.9 24.23,-63.83 9.52,-44.33 25.09,-44.33 30.28,-48.76l6.06 -32.81 -39.8 -18.61c-32.88,38.12 -55.38,57.62 -75.28,88.65z"/>
   </g>
   <g>
    <path class="fil36" d="M1483.06 1236.33c52.78,10.63 20.77,38.12 99.51,51.42 6.92,17.73 12.97,-37.24 12.97,47.87 -36.34,-7.98 -26.82,2.66 -25.95,-11.53 34.61,42.56 17.3,-50.53 25.95,62.06 3.47,0 12.98,0 14.71,0 0.87,-0.88 6.06,-0.88 6.93,-0.88 62.29,-7.98 -14.71,-26.6 32.01,11.52 38.07,30.14 166.13,21.28 216.32,63.83 32.01,25.71 0.86,13.3 54.51,56.74l30.28 23.94 44.13 -39.01 6.92 -27.48c17.31,-61.17 20.77,-40.78 39.8,-80.68 19.9,-43.44 -9.51,-80.67 11.25,-118.8 22.5,-23.93 163.54,-3.54 202.47,24.83l47.59 -17.73c-17.3,-15.08 0,-7.1 -25.96,-16.85l-161.8 -31.91c-161.8,-36.35 -421.38,-21.28 -616.06,-26.6 -10.39,14.18 -6.93,13.3 -15.58,29.26z"/>
    <path class="fil36" d="M2188.25 402.08c-36.34,36.35 -24.23,99.29 -36.34,126.78 -9.52,20.39 -29.42,12.41 -56.24,53.19 -27.69,40.78 -23.37,76.24 -37.21,127.66 75.28,19.51 37.21,7.98 21.63,20.39 26.82,7.98 61.43,11.53 96.91,14.19 5.19,0.89 42.4,3.55 44.13,2.66 35.47,-2.66 22.49,4.43 37.2,-14.19 -6.92,-29.25 -8.65,-19.5 19.91,-7.09l57.1 -98.41 -37.2 1.78c-32.88,46.1 12.97,129.43 -196.42,66.49 -22.49,-62.95 14.71,-62.06 19.9,-67.38l12.12 -14.18c1.73,-1.78 4.32,-6.21 6.05,-8.87 56.25,69.15 19.9,39.9 12.98,46.99 15.58,-187.95 84.8,-187.06 134.98,-218.98 38.94,-23.94 39.8,-37.23 89.12,-12.41 25.1,-48.76 -10.38,-25.71 31.15,-45.22 15.58,-7.09 59.71,-18.61 73.55,-24.82l43.26 46.99c-10.38,14.18 -19.03,27.48 -30.28,39.01l51.05 12.41c23.36,15.07 -32.01,12.41 32.02,12.41l-13.85 -88.66c-135.84,-92.2 -82.2,-83.33 -186.03,-28.36 -12.11,6.2 -46.72,23.05 -59.7,28.36l-45.86 18.62c-53.65,20.39 -16.44,-1.77 -83.93,10.64z"/>
    <path class="fil36" d="M670.58 1577.65c12.98,22.16 5.19,-8.87 18.17,53.19l-24.23 11.53c-23.36,48.76 -45.85,39 -66.62,76.24 -23.36,40.78 -12.98,62.94 -6.92,113.48 104.69,4.43 209.39,-14.19 287.26,-57.63 27.69,-28.37 37.21,-31.91 83.93,-34.57l0 -40.78c-5.19,-30.15 8.66,-17.74 -24.22,-15.08 -69.22,39.01 -38.07,23.94 -70.95,14.19 -8.66,-1.77 -25.1,-3.55 -25.1,-3.55 -79.6,-0.88 -84.79,7.09 -110.75,35.46 3.46,7.1 17.3,33.69 20.77,37.24 -104.7,12.41 -56.25,25.71 -143.64,49.65 -2.59,-58.52 -12.11,-39.9 16.44,-70.93l54.51 -42.55c-47.59,-0.89 0,-7.09 -17.3,26.59 52.78,-10.63 96.04,-7.09 38.07,-47.87l33.75 0.89c18.17,-70.04 -6.93,-23.05 32.01,-62.06 -37.21,-11.53 -72.68,21.28 -51.92,-28.37l3.47 -46.99 -46.73 31.92z"/>
   </g>
   <g>
    <path class="fil37" d="M1754.75 494.28c58.84,-7.09 18.17,-23.93 68.36,-43.44 48.45,44.33 44.13,45.22 36.34,127.66 -98.64,0.89 -44.13,-6.2 -76.14,-56.73 -1.73,-1.78 -4.33,-4.44 -5.2,-6.21l-14.7 -13.3c-1.74,-1.77 -5.2,-5.32 -8.66,-7.98zm-199.87 -47.87c-0.87,44.33 3.46,97.52 5.19,143.62 2.59,81.56 11.25,52.31 -24.23,99.29l12.98 6.21c57.97,-2.66 97.78,-39.01 160.07,-41.67 44.13,-2.66 128.06,23.94 174.79,36.35 8.65,-12.41 -9.52,-34.58 80.47,-21.28 -0.87,-4.43 -5.2,-8.86 -6.06,-10.64 -0.87,-1.77 -4.33,-7.09 -5.19,-8.86l12.11 -37.24c1.73,-5.32 7.79,-5.32 10.38,-7.98 -50.18,-9.75 -19.9,15.96 -42.39,-35.46 25.95,-50.53 26.82,45.22 31.15,-59.4 -85.67,-22.16 -0.87,-87.76 -95.18,-83.33 -3.46,0 -25.1,4.43 -32.02,4.43l-80.47 -19.5c1.73,-0.89 6.06,-0.89 6.93,-1.78l46.72 -10.64c-15.58,-103.72 -48.46,-149.82 -55.38,-193.26 -32.88,-53.2 -46.72,-13.3 -46.72,-108.16 -51.92,-2.66 -60.57,-16.85 -122,-26.6 -43.27,-6.2 -90.86,-8.86 -134.12,-14.18 154.88,-13.3 773.54,-7.1 814.21,-13.3l32.88 -8.87 -995.05 3.55c-4.32,2.66 -8.65,4.43 -12.98,6.2 -3.46,0.89 -7.78,3.55 -12.11,5.32l-63.16 20.39c48.45,-13.29 84.79,-11.52 139.3,5.32l33.75 12.42c19.9,4.43 28.55,4.43 53.64,6.2l-40.66 52.31c-1.73,8.86 0,64.72 -0.87,79.79l73.55 42.55c41.53,26.6 29.42,4.43 49.32,37.24 23.36,0.88 -6.06,-13.3 1.73,16.84 16.44,68.27 33.74,23.05 29.42,124.12z"/>
    <path class="fil37" d="M1972.8 2526.26c10.38,7.98 33.74,26.59 38.93,29.25 18.18,12.42 -30.28,7.1 43.27,21.28 -12.12,-17.73 -3.46,-17.73 -14.71,-38.12l61.43 -38.12 7.79 -67.38 -105.56 -18.62 -44.13 32.8 12.98 78.91z"/>
   </g>
   <g>
    <path class="fil38" d="M2342.26 69.62c-26.82,30.15 -64.89,132.99 -70.95,164.9 -15.57,76.25 11.25,23.05 -51.05,92.2 -34.61,39.01 -19.03,32.81 -56.24,55.86l-0.86 -8.87c-23.37,37.24 -19.04,25.71 -26.83,76.24 -6.92,49.65 12.12,33.69 -29.42,69.16l-31.15 73.58c-10.38,18.62 -24.22,45.21 -27.68,62.94 -15.58,70.93 -12.98,38.13 10.38,54.08 13.84,-51.42 9.52,-86.88 37.21,-127.66 26.82,-40.78 46.72,-32.8 56.24,-53.19 12.11,-27.49 0,-90.43 36.34,-126.78 26.82,-29.26 34.61,-27.48 77.87,-40.78 140.17,-43.44 52.78,-78.9 268.23,-86.88 -6.05,-53.2 9.52,-44.33 -35.47,-50.54 -5.2,-0.88 -64.03,3.55 -72.69,4.44l131.52 -89.54c37.21,55.85 36.35,21.27 83.93,44.32 -3.46,80.68 -4.32,117.91 -24.22,178.2 -31.15,92.2 12.11,31.92 -21.63,142.73l-63.17 10.64 8.65 63.83c-0.86,45.22 -23.36,19.51 -64.89,96.64 -25.96,47.87 -6.06,14.18 -39.8,43.44l-30.29 30.14 18.17 7.98c57.11,-5.32 108.16,-13.3 162.67,0l0 -7.09c-102.1,-0.89 -77.87,-1.77 -104.69,-34.58 48.45,-39 -33.75,-36.35 62.3,-33.69 84.79,2.66 -5.2,2.66 63.16,28.37 39.8,15.08 134.98,13.3 165.26,-1.77 19.04,-15.96 0.87,-46.99 19.04,-85.99l16.44 -23.05c27.69,-45.22 30.28,-108.16 49.32,-163.13l15.57 -35.46c1.73,69.15 0.87,120.57 6.93,187.95 6.05,65.6 -17.31,113.48 -18.17,195.04l5.19 298.77 15.57 0 2.6 -797.01c1.73,-61.18 11.25,-181.75 -30.29,-241.15l-6.05 38.13c-14.71,-37.24 -40.67,-31.92 -87.39,-6.21l-12.12 7.09c-40.67,20.39 0,11.53 -41.53,-0.88 -123.73,-36.35 -136.71,9.75 -224.1,-15.96 -74.42,-22.17 -71.82,-15.96 -141.91,3.54z"/>
    <path class="fil38" d="M1152.53 165.37c-0.86,-14.18 -4.32,-58.51 -3.46,-71.81 0,-4.43 1.73,-18.62 2.6,-23.05 6.92,-30.14 -2.6,-9.75 12.98,-30.14 28.55,42.55 33.74,180.85 46.72,259.76 19.03,111.7 40.67,160.46 64.89,255.32 28.56,-15.07 32.02,23.05 27.69,-49.64 0,-49.65 0.87,-140.08 40.67,-168.45 35.47,-26.59 -15.58,12.41 53.65,31.92 77,21.28 51.05,-23.94 64.89,-3.55 50.18,15.96 19.9,52.31 91.72,80.68 4.32,-101.07 -12.98,-55.85 -29.42,-124.12 -7.79,-30.14 21.63,-15.96 -1.73,-16.84 -19.9,-32.81 -7.79,-10.64 -49.32,-37.24l-73.55 -42.55c0.87,-15.07 -0.86,-70.93 0.87,-79.79l40.66 -52.31c-25.09,-1.77 -33.74,-1.77 -53.64,-6.2l-33.75 -12.42c-54.51,-16.84 -90.85,-18.61 -139.3,-5.32l63.16 -20.39c4.33,-1.77 8.65,-4.43 12.11,-5.32 4.33,-1.77 8.66,-3.54 12.98,-6.2l-481.95 -5.32c-63.16,3.55 -51.91,10.64 -58.84,16.84l364.28 3.55 11.25 78.9c9.52,35.46 -3.46,9.76 13.84,33.69z"/>
    <path class="fil38" d="M1524.59 1070.54c6.06,29.26 -6.05,26.6 16.44,15.07 2.6,1.77 7.79,0 9.52,4.43 1.73,3.55 7.79,2.66 10.38,3.55 13.85,3.55 -1.73,11.53 84.8,6.21 69.22,-4.44 122.87,-24.83 209.39,-7.98 75.28,15.07 29.42,21.27 94.32,38.12 -18.17,-49.65 -10.39,-23.05 -42.4,-60.29l34.61 -50.53c-19.04,-23.94 -49.32,-35.46 -33.75,-63.83 25.96,-48.76 26.83,0.89 54.52,-50.53 40.66,17.73 31.14,-18.62 34.61,18.61 19.9,12.41 18.17,14.19 44.99,18.62 64.03,6.21 26.82,-10.64 59.7,23.05l19.9 5.32c-53.64,-93.09 -344.37,-90.43 -464.64,-73.58 -31.15,7.09 -170.46,3.54 -212.86,-1.78 28.56,20.39 -38.07,9.76 47.59,23.05l10.39 104.62c38.93,7.09 39.8,10.64 22.49,47.87z"/>
    <path class="fil38" d="M2550.79 2389.73l-146.23 8.86c-32.88,48.76 -226.7,46.99 -295.05,34.58l-7.79 67.38 -61.43 38.12c11.25,20.39 2.59,20.39 14.71,38.12l6.92 130.32c31.15,2.66 76.14,12.42 97.77,21.28 -30.28,12.41 -25.09,4.43 -40.66,38.12 18.17,39.9 48.45,71.81 83.93,82.45l-0.87 -41.67 60.57 -28.37c-16.44,-93.97 29.42,70.93 -12.11,-21.27 -13.85,-29.26 -17.31,6.2 9.51,-25.71 57.98,-67.38 -12.97,45.21 13.85,-15.96 -31.15,-36.35 -21.63,-45.21 -67.49,-80.68 -41.53,-31.03 -43.26,-27.48 -37.21,-95.74l119.41 -11.53 -128.06 -15.07 0 -53.19c74.41,3.54 213.72,12.41 282.07,-8.87l127.2 -18.62c1.73,0.89 4.32,2.66 5.19,3.55 28.55,16.84 -24.23,23.94 38.07,8.86 17.31,-27.48 6.92,-4.43 15.58,-48.76 -25.96,-12.41 -18.18,-27.48 -20.77,5.32l-57.11 -11.52z"/>
    <path class="fil38" d="M1859.45 578.5c7.79,-82.44 12.11,-83.33 -36.34,-127.66 -50.19,19.51 -9.52,36.35 -68.36,43.44 3.46,2.66 6.92,6.21 8.66,7.98l14.7 13.3c0.87,1.77 3.47,4.43 5.2,6.21 32.01,50.53 -22.5,57.62 76.14,56.73z"/>
    <path class="fil38" d="M1323.85 1033.31c50.19,-32.81 6.06,-15.08 63.17,-31.03l21.63 57.62 1.73 -82.45c19.9,-34.57 24.23,-24.82 25.09,-69.15l-66.62 37.24c-2.6,1.77 -10.39,8.86 -12.98,10.64l-32.02 77.13z"/>
   </g>
   <g>
    <path class="fil39" d="M1644.86 699.08l-1.73 28.37c-59.7,27.48 -38.93,14.18 -55.37,43.44 20.76,2.66 59.7,-10.64 144.5,45.21 -18.17,18.62 -11.25,7.09 -26.83,22.16 -19.9,17.74 -6.05,2.66 -25.09,27.49l79.6 -2.66c85.66,-66.49 38.94,10.64 32.88,-24.83 0,-0.88 -44.12,5.32 -0.86,-12.41 31.15,-12.41 93.45,-11.52 127.19,-5.32 11.25,22.17 24.23,8.87 -11.25,21.28 64.9,0 49.32,5.32 80.47,-24.82 55.38,-24.83 295.06,136.53 297.65,139.19 -3.46,39 14.71,0.88 -13.84,38.12l44.99 20.39 66.63 105.5c26.82,31.03 37.2,42.55 60.57,72.69 54.51,-13.29 -7.79,-11.52 65.75,-23.05 57.98,118.8 -7.78,68.27 -5.19,127.67 -17.3,39.89 21.63,37.23 -31.15,31.91 -33.74,46.1 -47.59,66.49 -66.62,117.03 7.79,-8.87 12.98,-18.62 25.96,-31.92 28.55,-31.03 -1.73,-15.07 30.28,-23.05 -11.25,44.33 -42.4,79.79 -60.57,132.98 -9.52,46.99 3.46,60.29 -37.2,68.27 -22.5,123.23 -2.6,79.79 -67.49,173.76 13.84,43.44 -1.73,43.44 -51.05,47.88 -34.61,25.71 -36.35,59.4 -19.04,99.29 6.92,7.98 15.57,7.98 20.77,33.69 5.19,28.37 -6.93,35.46 -18.17,48.76l-207.67 137.42c2.6,2.65 6.06,5.31 6.93,7.09l14.7 13.3c25.96,24.82 36.35,29.25 46.73,68.26 -19.9,0.89 -48.46,5.32 -65.76,3.55l-41.53 -16.85 -38.94 -27.48 -16.44 -8.87c-28.55,0 -21.63,-7.09 -19.04,23.05 5.2,27.49 2.6,3.55 -12.11,15.08 -28.55,-38.13 -50.18,-43.45 -74.41,-72.7 -11.25,24.82 19.9,44.33 -30.29,18.62 -12.97,35.46 -2.59,23.93 -42.39,35.46 -12.98,4.43 -30.29,1.77 -43.27,2.66 -6.92,6.2 -26.82,8.86 -18.17,48.76 70.95,14.18 68.36,-2.66 134.12,-7.09 35.47,62.94 -19.04,21.27 48.45,51.42 125.47,57.62 47.59,-25.71 250.06,15.95 70.95,14.19 122,13.3 194.69,9.76 65.76,-2.66 107.29,-7.1 174.78,-13.3 15.57,-39.9 32.01,-70.04 45.86,-111.71 19.9,-60.28 21.63,-72.7 74.41,-51.42l-6.92 -27.48c-7.79,-62.06 -35.48,-84.22 -30.29,-228.73 5.2,-161.35 3.47,-178.2 57.11,-205.68 -19.9,-62.06 -14.71,-23.05 -30.28,-70.04 -17.31,-52.31 -2.6,-65.6 6.92,-91.31l14.71 -89.55c-1.73,-123.23 -40.67,-111.7 51.91,-194.15 9.52,-101.95 -25.09,-164.9 18.17,-261.53l7.79 -110.82c43.27,2.66 46.73,5.32 60.57,37.23 9.52,-78.01 -2.6,-14.18 24.23,-40.78 -21.63,-78.9 -83.93,-71.81 -161.81,-87.77 -171.32,23.05 -340.91,23.94 -507.04,-1.77 -77.01,-12.41 -174.78,-23.94 -250.06,-41.67 -81.33,-19.5 -131.52,-59.4 -221.51,-23.93z"/>
    <path class="fil39" d="M1162.05 2361.36c0,-23.94 4.33,-15.96 -22.5,-12.41 -16.44,31.03 -153.15,140.07 -195.55,171.1l-223.23 145.4c-391.1,234.93 -386.77,92.2 -518.29,210.11l831.51 0c56.24,-125.01 99.51,-369.69 128.06,-514.2z"/>
   </g>
   <path class="fil40" d="M826.33 1126.39c121.13,-72.69 104.69,-83.33 271.69,-148.05l278.61 -136.53c-105.56,-126.78 -204.2,-467.21 -224.1,-676.44 -17.3,-23.93 -4.32,1.77 -13.84,-33.69l-11.25 -78.9 -364.28 -3.55c-118.54,-26.59 -562.41,-5.32 -716.43,-6.2 1.73,9.75 -18.17,1679.13 7.79,1873.28l444.74 -524.84c46.72,-52.3 70.95,-31.91 102.1,-100.18 59.7,-132.98 141.04,-88.65 224.97,-164.9z"/>
   <path class="fil41" d="M1169.84 2279.8c-15.58,27.48 15.57,11.52 -26.83,34.57 -57.97,31.92 -33.74,-3.54 -36.34,-8.86l63.17 -25.71zm431.76 -117.92c20.77,-42.55 6.06,-19.5 44.13,-42.55 -16.44,64.72 4.33,26.6 -44.13,42.55zm-1195.79 -607.28c29.42,-41.67 42.4,-54.97 76.14,-77.13 -9.51,18.62 -16.44,42.55 -22.49,50.53 -25.96,29.26 -19.04,15.07 -53.65,26.6zm2217.66 -788.15c77.88,15.96 140.18,8.87 161.81,87.77l6.05 42.56c-6.05,16.84 -30.28,82.45 -36.34,90.42 9.52,97.53 -26.82,173.77 -50.18,265.97 -75.28,294.33 -50.19,537.25 -81.34,792.58 -1.73,15.95 -1.73,18.61 -6.05,34.57 -9.52,36.35 -3.46,15.96 -12.98,29.26l6.92 27.48 -44.99 187.95c-29.42,25.71 -30.29,28.37 -89.13,44.33 8.66,-40.78 -6.92,-18.62 16.44,-46.1 -49.31,19.5 -19.9,31.03 -53.64,24.82 -19.9,-3.55 44.13,-27.48 -29.42,2.66 0,0.89 -20.77,14.19 -30.28,17.73l-13.85 -33.69 -35.47 37.24 -11.25 -31.92c0,-2.66 -0.87,-4.43 -2.6,-7.09 -28.55,31.03 -11.25,26.6 -50.18,35.46l-12.12 -28.37c-22.49,46.1 5.19,31.92 -44.99,27.48 -118.54,-10.63 19.04,11.53 -98.64,1.78l-37.21 1.77c-51.05,3.55 -240.54,-46.99 -247.46,-50.53l-300.25 -24.83 -147.96 -19.5c21.64,-16.84 -19.03,1.77 27.69,-16.84l174.79 -48.76c55.37,-11.53 52.78,-31.92 115.07,-33.69 9.52,-9.76 -5.19,-16.85 44.13,-27.49 11.25,-2.66 20.77,-1.77 32.02,-0.88l20.76 7.98c50.19,25.71 19.04,6.2 30.29,-18.62 24.23,29.25 45.86,34.57 74.41,72.7 14.71,-11.53 17.31,12.41 12.11,-15.08l-58.83 -83.33c72.68,-10.64 139.3,-59.4 202.47,-101.07l35.47 -7.09c31.15,-24.82 57.11,-26.6 84.8,-65.61 29.42,-39.89 22.5,-70.03 15.57,-125.89 -19.9,17.73 -18.17,-31.03 -14.71,40.79 -1.73,56.73 -22.49,105.49 -88.25,64.71 -12.98,-33.69 -6.06,-22.16 1.73,-63.83 -1.73,-1.77 1.73,-42.55 -18.17,19.51 -7.79,27.48 -7.79,13.29 -2.6,39 4.33,20.39 10.38,23.05 19.04,31.92l33.74 24.82c-52.78,12.41 -109.89,32.81 -150.55,52.31 -59.71,41.67 -63.17,50.53 -149.69,69.15 -51.92,11.53 -114.22,31.92 -156.62,50.53l12.12 -117.91c-63.17,-23.93 -22.5,-17.73 -33.75,21.28l-13.84 65.6c-34.61,57.63 -29.42,62.95 -121.14,64.72l0.87 10.64c-8.65,27.48 -250.93,66.49 -329.67,92.2 -20.76,-20.39 -32.01,32.81 -12.11,-30.14 -3.46,0.89 -7.79,1.77 -10.38,2.66l-46.73 19.5c-24.22,8.87 -17.3,10.64 -44.99,10.64 -65.76,-0.88 -126.33,-53.19 -115.95,-7.09 45,28.37 102.97,37.24 155.75,25.71 -43.26,52.31 -12.11,60.29 -70.08,83.34 -56.25,115.25 -465.51,339.55 -565.02,365.26l-244 38.12 -42.4 15.95c-12.11,71.82 -46.72,76.25 -129.79,71.82l-1.73 -402.5 -1.73 -393.63 -2.6 -116.14c56.25,-42.55 79.61,-57.62 123.74,-117.02l19.9 -24.82c9.51,-54.97 70.95,-90.43 102.1,-134.76 38.93,-27.48 47.59,-49.65 96.04,-82.45 17.31,-11.52 23.36,-14.18 37.21,-23.05l61.43 -46.99c19.9,-23.05 1.73,2.66 13.85,-24.82 -5.2,-21.28 5.19,-39.01 25.09,-63.83 59.7,-73.59 9.52,40.78 132.38,-175.54 4.33,-1.77 8.66,-4.43 11.25,-5.32 2.6,-1.77 6.92,-4.43 9.52,-5.32 52.78,-33.69 19.03,-36.35 106.43,-44.32 57.97,-7.1 6.05,9.75 41.53,-25.71 16.44,-15.96 23.36,-24.83 36.34,-46.99 -70.09,0 -19.04,4.43 -36.34,-14.19 -83.93,76.25 -165.27,31.92 -224.97,164.9 -31.15,68.27 -55.38,47.88 -102.1,100.18l-444.74 524.84c-25.96,-194.15 -6.06,-1863.53 -7.79,-1873.28 154.02,0.88 597.89,-20.39 716.43,6.2 6.93,-6.2 -4.32,-13.29 58.84,-16.84l481.95 5.32 995.05 -3.55 556.36 9.75c41.54,59.4 32.02,179.97 30.29,241.15l-2.6 797.01 7.79 975.2 -10.38 94.86c12.98,9.75 9.51,3.55 8.65,31.92 -1.73,55.85 -47.59,54.08 -91.72,184.4 41.53,-44.33 44.99,-66.49 82.2,-117.02 14.71,68.26 -16.44,74.47 -47.59,117.02 -19.9,28.37 -17.3,31.03 -42.4,59.4 -25.09,28.37 -17.3,10.64 -38.93,46.1 58.83,-35.46 63.16,-78.02 112.48,-111.7 9.52,-15.08 -5.19,-7.98 19.9,-23.94l-10.38 196.81c27.69,57.63 -15.58,48.76 -31.15,107.28l55.38 9.75c6.05,71.81 -10.39,134.75 -14.71,125 -0.87,-1.77 -4.33,7.98 -6.93,11.53 -11.24,47.87 -19.9,39.89 -0.86,73.58l-53.65 13.3 -43.26 -21.28c16.44,-36.35 38.07,-46.99 60.57,-74.47l18.17 -30.14 -28.55 -5.32 -21.64 21.28c-13.84,45.21 -38.93,80.67 -70.95,110.81l-552.03 0.89 -1117.92 2.66c44.99,-90.43 120.27,-384.76 119.41,-495.58l3.46 -39.01c-6.06,6.21 -19.9,9.75 -25.96,15.96 -28.55,144.51 -71.82,389.19 -128.06,514.2l-831.51 0c131.52,-117.91 127.19,24.82 518.29,-210.11l223.23 -145.4c42.4,-31.03 179.11,-140.07 195.55,-171.1l17.31 -15.96c34.61,-24.82 45.86,-24.82 59.7,-8.87 95.18,-88.65 141.9,-15.07 251.79,0.89 114.22,17.73 212.86,-7.98 315.82,12.41 249.2,48.76 342.64,90.43 620.39,61.17l146.23 -8.86 24.23 -36.35c46.72,-66.49 32.01,-36.35 41.53,-93.09l52.78 -316.5c4.33,-35.46 6.92,-54.08 7.79,-89.54l12.11 -74.47c-24.22,-98.41 -12.11,-234.05 4.33,-335.11 12.98,-145.4 151.42,-515.09 120.27,-626.8 -61.43,-61.17 -122.87,-79.79 -226.7,-68.26l0 7.09 36.34 9.75zm274.29 2148.12c25.09,-134.76 -0.86,-1187.1 5.19,-1452.17 3.46,-143.63 15.58,-1429.12 8.66,-1439.76 -26.83,-43.44 -102.97,-16.85 -150.56,-14.19 -62.3,3.55 -127.19,0.89 -190.36,1.78l-2203.81 6.2c-77.88,0 -304.58,-25.71 -348.7,20.39 -30.29,29.26 -17.31,25.71 -12.12,73.59 20.77,166.67 19.04,1207.48 16.44,1351.99l0.87 1441.53c68.35,13.3 1306.54,-7.98 1432.87,-7.98 266.5,2.66 1258.09,-4.43 1441.52,18.62z"/>
   <path class="fil42" d="M1674.28 2463.31c-52.78,31.92 -27.68,19.51 -96.91,21.28 80.47,277.49 24.23,191.49 32.02,282.81 6.06,77.13 136.71,67.38 -166.13,83.34l-61.43 -0.89c96.04,30.14 560.68,5.32 708.64,5.32l-47.59 -8.87c20.77,-15.07 23.37,13.3 17.31,-50.53 -3.46,-31.92 -10.38,-22.16 -21.63,-56.74l-114.22 -7.98c-14.71,-24.82 -0.86,-12.41 -27.68,-27.48 -3.47,-102.84 -1.74,-49.65 -17.31,-114.37 -9.52,-37.23 -1.73,-14.18 -0.87,-41.67 0.87,-88.65 -18.17,-59.39 -89.12,-91.31 -70.08,-32.8 -45.86,-15.07 -115.08,7.09z"/>
   <path class="fil43" d="M123.74 2386.18c-28.56,13.3 -41.54,67.38 -42.4,102.84 9.52,48.76 1.73,53.2 -0.87,100.18 0,7.98 0,45.22 0.87,50.54 0,0 -19.9,-11.53 15.57,43.44 -3.46,-41.67 5.2,-59.4 12.98,-87.77l19.04 -31.92c38.07,-73.58 -29.42,-5.32 25.09,-38.12 5.19,-3.55 8.65,-4.43 13.85,-7.09 28.55,-13.3 -27.69,3.54 33.74,-5.32l21.63 70.92c70.95,1.78 169.59,-10.64 240.54,-19.5l89.13 -23.94c81.33,-23.05 113.35,-65.6 184.3,-90.43l35.47 -7.98 36.34 -19.5c37.21,-13.3 53.65,-2.66 89.99,-23.94 -17.31,-44.32 22.5,19.51 -12.98,-15.07l-10.38 -9.75c-48.46,-34.57 -60.57,24.82 -65.76,31.92 -166.13,-4.44 -137.58,0.88 -193.82,-118.8 -38.07,-81.56 -47.59,-62.06 -104.7,-70.04 -1.73,106.39 3.46,31.92 20.77,75.36 -45.86,-56.74 27.69,27.48 -99.51,-65.61 4.33,20.39 8.66,39.01 7.79,57.63 -1.73,26.6 -2.59,18.62 -10.38,31.03 -27.69,-16.85 -40.67,-48.76 -76.14,-16.85 96.04,20.39 7.78,56.74 149.69,14.19l6.92 48.76 -39.8 16.84c-184.3,85.11 -166.13,16.85 -205.07,109.94l-44.13 -50.54c-0.86,-0.88 -0.86,-3.54 -1.73,-4.43l-18.17 -18.62c-18.17,-20.39 -18.17,-9.75 -25.09,-40.78l-25.09 0c0,27.48 4.32,0.89 -27.69,12.41z"/>
   <path class="fil44" d="M2326.69 1541.3c-12.11,35.46 32.01,54.08 8.65,129.44 -19.03,60.28 -55.37,44.32 -110.75,23.93l0 -110.82 102.1 -42.55zm-70.09 -332.46c20.77,11.53 28.56,19.51 57.11,21.28 -31.15,-61.17 -119.41,-58.51 -69.22,-171.99l72.68 0c53.65,63.83 63.17,122.34 7.79,192.38 -25.09,3.55 22.5,32.8 -32.88,-3.55 17.3,31.03 -24.23,50.54 25.09,33.69 42.4,16.85 47.59,25.71 68.36,64.72 14.71,29.26 17.3,30.14 6.92,55.85 -6.06,62.06 -1.73,70.04 -51.92,96.64 -117.67,63.83 -223.23,46.1 -368.6,35.46l16.44 -14.18 6.06 -16.85 -44.13 39.01 -507.04 30.14c-44.13,47.88 -128.92,26.6 -224.1,69.15l-189.5 47.88 8.66 22.16c49.32,-7.09 139.3,-43.44 190.35,-58.51 70.09,-20.39 137.58,-31.92 212.86,-39.9l166.13 -23.05c36.34,13.3 22.5,-7.09 33.74,25.71l16.44 -31.91c0,-2.66 0,-4.44 0.87,-6.21 95.18,-5.32 186.89,-15.96 278.61,-19.5 93.45,-4.44 191.23,10.64 297.65,7.09 -15.57,31.03 -25.96,46.99 -29.42,100.18l-0.86 19.5c12.98,15.96 14.71,17.73 26.82,27.49l40.67 28.37 -84.8 23.93c-123.73,24.83 -172.18,70.93 -301.11,83.34 -94.31,31.03 -210.26,51.42 -314.95,52.31l33.74 -19.51c3.46,-0.88 7.79,-2.66 10.39,-3.54 14.71,-6.21 17.3,-3.55 28.55,-5.32 -8.65,-18.62 16.44,-15.08 -21.63,-15.08l-86.53 12.42c18.17,33.69 40.67,-2.66 25.09,31.91 -6.92,15.07 -25.09,9.75 -39.8,11.53 -199.01,16.84 -140.17,-18.62 -374.66,62.06 -5.19,4.43 -20.76,4.43 -30.28,48.76l107.29 -40.79 387.64 -33.68c25.96,-22.17 298.51,-85.11 358.22,-92.21l12.11 84.23 11.25 -87.77c47.59,-13.3 63.16,-23.94 109.02,-24.82l52.78 -9.76 100.37 -38.12 43.27 -13.3c64.89,-93.97 44.99,-50.53 67.49,-173.76 -13.85,-40.78 -3.46,-44.33 37.2,-68.27 18.17,-53.19 49.32,-88.65 60.57,-132.98 -32.01,7.98 -1.73,-7.98 -30.28,23.05 -12.98,13.3 -18.17,23.05 -25.96,31.92 19.03,-50.54 32.88,-70.93 66.62,-117.03 -51.91,8.87 0,-6.2 -32.88,15.07 -67.49,41.67 34.61,-12.41 -21.63,15.96 -18.17,-57.62 -24.22,-78.9 -64.89,-101.06 22.49,-22.17 32.88,-27.49 32.88,-73.59l-3.46 -65.6 -66.63 -105.5 -50.18 -4.43 -25.96 30.14c-6.92,8.86 -10.38,7.98 -19.04,24.82 -34.61,70.93 23.37,124.12 34.61,143.62z"/>
   <path class="fil45" d="M1508.15 2807.29l61.44 -15.07c16.44,-53.19 8.65,-51.42 30.28,-101.95 -17.3,-35.46 -11.25,7.09 -41.53,-70.92 -69.22,-20.4 -124.6,-19.51 -198.15,-19.51l-2.59 -137.41 -104.7 -39.9 -31.15 111.71c-13.84,33.69 -24.23,0.88 -13.84,68.26 12.11,76.24 -8.65,22.16 44.13,62.95 -30.29,36.34 -32.02,-2.66 -31.15,38.12l6.05 16.84c1.73,3.55 5.2,7.09 7.79,10.64l-70.95 -15.07 12.11 56.74c78.74,19.5 154.89,-32.8 185.17,31.91 -19.9,15.96 0.86,7.1 -32.88,15.96 -16.44,4.44 -19.9,4.44 -37.21,5.32 -24.22,1.77 -56.24,0 -76.14,0.89 8.65,-2.66 91.72,6.2 130.65,-1.77 44.13,-8.87 85.67,-28.37 162.67,-17.74z"/>
   <path class="fil46" d="M48.46 2077.66c32.01,-57.62 -6.06,-43.44 40.67,-55.85l-15.58 118.8c84.8,12.41 48.46,-14.19 77.88,52.3 15.57,-1.77 51.91,-11.52 55.37,-11.52 55.38,-5.32 54.51,6.2 65.76,15.07 -20.76,48.76 -22.5,22.16 -57.97,79.79l51.91 11.53c20.77,-29.26 26.83,-55.86 66.63,-70.93 12.11,-51.42 -4.33,-27.48 19.9,-80.68 51.92,-1.77 212.85,-10.63 246.6,-28.36 -23.36,-12.42 -14.71,-8.87 -31.15,-33.69 -38.07,28.37 -52.78,9.75 -52.78,9.75l-36.34 -23.94c-32.02,-24.82 -12.98,-0.89 -25.09,-32.8 -6.06,-16.85 -7.79,-22.16 -13.85,-41.67 -44.99,0 -68.35,4.43 -99.5,-27.48l-50.19 10.64c-10.38,116.13 -118.54,31.03 -176.51,15.95 25.96,-24.82 42.4,-48.76 67.49,-74.47l32.88 -27.48c13.84,-12.41 19.9,-26.6 -6.92,-57.62l-22.5 32.8 4.33 -38.12 -19.9 24.82c-44.13,59.4 -67.49,74.47 -123.74,117.02l2.6 116.14z"/>
   <path class="fil47" d="M1201.85 2357.81c2.6,2.66 5.19,4.44 6.06,9.75 0,5.32 3.46,7.1 4.32,9.76 16.44,56.74 -12.11,171.99 -24.22,229.61l-6.92 32.81c-32.02,126.77 -9.52,62.94 -22.5,152.48 -9.52,63.83 -24.23,7.1 -7.79,49.65l231.03 7.98 61.43 0.89c22.5,-42.56 1.73,-8.87 35.47,-30.15 32.02,-21.27 -0.86,14.19 29.42,-13.3 -77,-10.63 -118.54,8.87 -162.67,17.74 -38.93,7.97 -122,-0.89 -130.65,1.77 19.9,-0.89 51.92,0.88 76.14,-0.89 17.31,-0.88 20.77,-0.88 37.21,-5.32 33.74,-8.86 12.98,0 32.88,-15.96 -30.28,-64.71 -106.43,-12.41 -185.17,-31.91l-12.11 -56.74 70.95 15.07c-2.59,-3.55 -6.06,-7.09 -7.79,-10.64l-6.05 -16.84c-0.87,-40.78 0.86,-1.78 31.15,-38.12 -52.78,-40.79 -32.02,13.29 -44.13,-62.95 -10.39,-67.38 0,-34.57 13.84,-68.26l31.15 -111.71 104.7 39.9 2.59 137.41c73.55,0 128.93,-0.89 198.15,19.51l-3.46 -108.16c-28.56,-2.66 -69.22,-0.89 -90.85,-9.76 -3.47,-1.77 -21.64,-18.61 -22.5,-21.27 -12.98,-35.47 -18.17,-20.39 50.18,-30.15 118.54,-16.84 41.54,32.81 111.62,7.1 28.56,-10.64 22.5,-20.39 37.21,-53.2l-83.93 6.21c-96.05,27.48 -81.34,-66.49 -198.15,-14.19l-12.98 -46.98 -128.92 -24.83 -14.71 33.69z"/>
   <path class="fil48" d="M1441.53 1612.22c27.69,18.62 51.05,-5.32 95.18,15.07 -52.78,49.65 -199.88,25.71 -372.06,149.83l-53.65 -21.28c-21.63,93.09 -20.77,-3.54 -58.84,66.5 0,0.88 -1.73,-8.87 -6.06,34.57 6.93,-3.54 34.61,-13.3 46.73,-17.73 24.23,45.21 40.67,54.08 117.67,37.24 52.78,-11.53 66.63,-15.96 131.52,-23.05 11.25,-7.98 3.46,-9.76 37.21,-16.85 26.82,-5.32 12.98,-3.55 38.07,-2.66 15.58,0.89 57.97,11.53 77.01,15.07 1.73,-3.54 3.46,-13.3 3.46,-10.64l-3.46 -23.05c72.68,-9.75 47.59,12.42 73.55,-48.76l-59.71 -16.84c-31.15,-11.53 -25.95,-2.66 -29.42,-33.69 38.94,-27.48 9.52,-13.3 56.25,0 3.46,0.89 20.76,8.87 24.22,8.87 64.03,2.65 39.81,-37.24 38.94,-73.59 0,-14.18 -5.19,-40.78 9.52,-62.06l-166.13 23.05z"/>
   <path class="fil49" d="M2592.32 2572.36l-2.59 45.21 57.11 60.29c48.45,-27.49 151.42,-164.01 175.64,-216.32 12.12,-27.48 21.64,-55.85 40.67,-99.29 -49.32,33.68 -53.65,76.24 -112.48,111.7 21.63,-35.46 13.84,-17.73 38.93,-46.1 25.1,-28.37 22.5,-31.03 42.4,-59.4 31.15,-42.55 62.3,-48.76 47.59,-117.02 -37.21,50.53 -40.67,72.69 -82.2,117.02 44.13,-130.32 89.99,-128.55 91.72,-184.4 0.86,-28.37 4.33,-22.17 -8.65,-31.92 -68.36,39.01 -53.65,82.45 -142.77,212.78 -25.96,37.23 -56.24,70.92 -74.41,101.95 -26.83,44.33 -30.29,83.33 -70.96,105.5z"/>
   <path class="fil50" d="M1611.12 1948.23c25.96,65.6 25.96,-42.56 -10.38,23.05 -1.73,1.77 -4.33,4.43 -5.2,7.09 -1.73,2.66 -4.32,6.2 -5.19,7.98 -12.98,27.48 -3.46,25.71 -11.25,46.1 -11.24,92.2 -8.65,23.94 16.44,50.53l21.64 -32.8c25.09,-22.16 -15.58,-29.26 24.22,-5.32 11.25,-39.01 -29.42,-45.21 33.75,-21.28 64.03,-62.06 63.16,-5.32 82.2,25.71 -14.71,-56.74 -37.21,-73.58 57.97,-93.09l123.73 3.55 22.5 52.31c0.87,-1.78 5.19,6.2 7.79,9.75 40.66,-19.5 97.77,-39.9 150.55,-52.31l-33.74 -24.82c-8.66,-8.87 -14.71,-11.53 -19.04,-31.92 -5.19,-25.71 -5.19,-11.52 2.6,-39 19.9,-62.06 16.44,-21.28 18.17,-19.51l13.84 -26.59c-45.86,0.88 -61.43,11.52 -109.02,24.82l-11.25 87.77 -12.11 -84.23c-59.71,7.1 -332.26,70.04 -358.22,92.21z"/>
   <path class="fil51" d="M1595.54 1386.15c-1.73,14.19 -3.46,40.78 -10.38,39.9 -0.86,0 -5.19,7.98 -8.65,10.64 -10.38,48.76 -4.33,53.19 -34.61,85.99l-35.48 -27.48c-22.49,55.85 -10.38,25.71 -50.18,61.17 0,28.37 6.05,19.5 -25.09,19.5 0,-26.59 -3.47,-2.66 12.11,-4.43l507.04 -30.14 -30.28 -23.94c-53.65,-43.44 -22.5,-31.03 -54.51,-56.74 -50.19,-42.55 -178.25,-33.69 -216.32,-63.83 -46.72,-38.12 30.28,-19.5 -32.01,-11.52 -0.87,0 -6.06,0 -6.93,0.88 -1.73,0 -11.24,0 -14.71,0z"/>
   <path class="fil52" d="M2160.56 2512.96c63.16,0 99.5,-4.43 155.75,9.75 38.07,9.75 132.38,20.39 148.82,28.37 5.19,114.37 -70.95,-28.37 -84.79,115.25l106.42 -48.76c25.96,-7.98 30.29,-5.32 58.84,-17.73 47.59,-20.39 -6.92,-3.55 46.72,-27.48l20.77 -127.67c-62.3,15.08 -9.52,7.98 -38.07,-8.86 -0.87,-0.89 -3.46,-2.66 -5.19,-3.55l-127.2 18.62c-68.35,21.28 -207.66,12.41 -282.07,8.87l0 53.19z"/>
   <path class="fil53" d="M1772.92 204.38c16.44,55.85 11.25,41.67 44.13,74.47 57.11,57.63 12.98,29.26 44.13,79.79 145.36,14.18 103.83,-22.16 159.21,-5.32 70.95,21.28 12.98,56.74 142.77,20.39l0.86 8.87c3.46,-129.44 20.77,-15.96 -36.34,-84.23 -22.5,-26.59 -24.23,-80.67 0,-113.47 96.04,-0.89 12.11,44.32 88.26,75.35 38.93,-39.89 11.24,-36.35 36.34,-92.2 8.65,-20.39 33.74,-59.4 44.99,-85.11 -52.78,12.41 -27.69,-8.86 -38.94,35.46l-24.22 -15.95c-2.6,3.54 -0.87,24.82 -22.5,37.23 -45.86,27.48 -18.17,-13.3 -84.8,30.14 -37.2,24.83 -113.34,118.8 -164.39,126.78 -25.96,-2.66 -81.34,-20.39 -112.49,-32.8l-69.22 -52.31c-0.86,-4.43 -4.33,-5.32 -7.79,-7.09z"/>
   <path class="fil54" d="M1333.37 1229.23c-45.86,20.39 -93.45,32.81 -138.44,50.54 -20.77,7.98 -48.46,18.61 -70.09,29.25 -25.09,11.53 -42.39,18.62 -70.95,27.49l-181.7 20.39c44.13,-6.21 61.43,5.32 83.93,23.05 0.86,0 2.59,2.66 5.19,4.43l146.23 -39.01 142.77 -50.53 117.67 -53.2c34.61,-26.59 57.11,-28.36 130.66,-34.57 194.68,5.32 454.26,-9.75 616.06,26.6l161.8 31.91c25.96,9.75 8.66,1.77 25.96,16.85l1.73 13.29c-1.73,-20.39 -20.76,4.44 1.73,-11.52 0.87,0 4.33,-1.77 4.33,-2.66 0.86,0 5.19,-0.89 6.92,-0.89 -49.32,16.85 -7.79,-2.66 -25.09,-33.69 55.38,36.35 7.79,7.1 32.88,3.55l-83.93 -16.84 -20.77 -0.89 -217.18 -49.65c-102.1,-6.2 -244,2.66 -357.35,4.44 -112.48,2.65 -219.78,-7.98 -312.36,41.66z"/>
   <path class="fil55" d="M1889.73 1776.24c1.73,-18.62 -26.82,-81.57 119.41,-92.21 -7.79,39.9 -19.04,78.91 -119.41,92.21zm-245.73 94.86c-11.25,1.77 -13.84,-0.89 -28.55,5.32 -2.6,0.88 -6.93,2.66 -10.39,3.54l-33.74 19.51c104.69,-0.89 220.64,-21.28 314.95,-52.31 -38.93,-5.32 -38.07,5.32 -64.89,-17.73 44.99,-13.3 77.01,-25.71 123.73,-42.56l67.49 -23.05c2.6,-1.77 6.06,-2.66 8.65,-3.54 3.46,-1.78 6.92,-2.66 9.52,-4.44 13.84,-5.31 12.11,-2.66 28.55,-13.29 -18.17,-23.94 -8.65,-18.62 1.73,-46.99l6.06 -5.32c-25.09,-40.78 35.48,-23.94 -66.62,-33.69 -56.25,-4.43 -86.53,18.62 -123.74,47.87 -30.28,23.94 -96.9,82.45 -109.02,115.26l-5.19 30.14c0,-1.77 0.87,5.32 0,7.09 -69.22,7.09 -33.75,23.94 -118.54,14.19z"/>
   <path class="fil56" d="M224.11 2786.02l244 -38.12c-22.5,-30.15 -15.57,21.27 -7.79,-27.49 5.19,-33.69 -8.65,3.55 12.98,-21.28 6.06,-7.09 17.31,-14.18 23.36,-19.5 1.73,-1.77 6.06,-2.66 7.79,-7.09 0.87,-4.43 5.19,-4.43 8.65,-13.3l-35.47 -7.09 1.73 0.88c-67.49,-13.29 -35.48,31.03 -114.22,35.47 -138.44,7.09 40.67,-62.06 -125.46,-16.85l0.87 -44.33 -28.56 120.58 21.64 31.91c-2.6,0.89 -6.93,3.55 -9.52,6.21z"/>
   <path class="fil57" d="M2298.14 629.04l37.2 -1.78 26.83 2.66c24.22,11.53 21.63,15.96 10.38,-9.75l-1.73 -22.16c49.32,-22.16 64.89,-62.95 116.81,-67.38 37.2,-24.82 27.69,-13.3 44.99,-15.96l2.6 -25.71 -58.84 8.87c37.21,-15.07 14.71,-1.77 43.26,-22.17l25.96 -26.59 -51.05 -12.41 -50.18 9.75c-61.44,-14.19 -68.36,23.05 -114.22,79.79 -31.15,37.23 -27.69,46.1 -44.13,48.76 -50.18,7.09 -10.38,-0.89 -12.98,-3.55 12.12,5.32 12.98,3.55 19.04,15.96 9.52,23.05 7.79,4.43 6.06,41.67z"/>
   <path class="fil58" d="M1053.89 1336.51c28.56,-8.87 45.86,-15.96 70.95,-27.49 21.63,-10.64 49.32,-21.27 70.09,-29.25 44.99,-17.73 92.58,-30.15 138.44,-50.54l-92.58 0c12.11,-74.47 -2.6,-14.18 19.9,-57.62 32.01,-64.72 31.15,38.12 23.36,-59.4l-53.65 34.57c-27.68,60.29 -48.45,45.22 -105.56,69.15 -50.18,21.28 -115.08,53.2 -131.52,93.98 8.66,3.55 23.37,7.98 31.15,10.64 34.61,14.18 14.71,5.32 29.42,15.96z"/>
   <path class="fil59" d="M2697.02 2871.13l-424.84 1.77c-50.19,-4.43 -48.46,-8.87 -89.12,4.43l552.03 -0.89c32.02,-30.14 57.11,-65.6 70.95,-110.81 -48.45,1.77 -25.09,-20.39 -3.46,-49.65l-1.73 -2.66c-0.86,0 -3.46,-2.66 -3.46,-2.66l-8.65 -7.09c39.8,-27.49 3.46,-29.26 52.78,-61.17 15.57,-58.52 58.84,-49.65 31.15,-107.28l-17.31 11.53c-6.92,6.2 -12.98,13.3 -19.03,20.39 -38.94,42.55 -96.91,86.88 -106.43,177.31 -2.59,22.16 0.87,39.01 -6.06,57.62 -11.24,31.92 -20.76,24.83 -39.8,44.33l12.98 24.83z"/>
   <path class="fil60" d="M2387.26 647.66c21.63,-35.47 -2.6,-6.21 21.63,-29.26l53.65 -24.82c-13.85,12.41 -8.66,7.97 -19.91,17.73 -19.9,15.95 -29.41,20.39 -55.37,36.35zm100.37 -117.03c-29.42,32.8 -79.61,61.17 -115.08,89.54 11.25,25.71 13.84,21.28 -10.38,9.75l-9.52 15.96 39.8 -7.09c-24.23,37.24 -6.92,17.73 -36.34,40.78 -5.19,4.43 -14.71,5.32 -32.88,21.28 -6.92,28.37 -26.82,22.16 -44.99,24.82 -28.56,-12.41 -26.83,-22.16 -19.91,7.09 28.56,13.3 21.64,-6.2 33.75,15.96l42.4 -17.73c8.65,-11.52 4.32,-15.96 26.82,-35.46 31.15,-26.6 1.73,-10.64 50.19,-19.5 -21.64,37.23 -35.48,48.76 -58.84,64.71l53.64 7.98 30.29 -30.14c33.74,-29.26 13.84,4.43 39.8,-43.44 41.53,-77.13 64.03,-51.42 64.89,-96.64l-8.65 -63.83c-17.3,2.66 -7.79,-8.86 -44.99,15.96z"/>
   <path class="fil61" d="M2043.75 1103.34l-5.19 20.39c-4.33,12.42 -4.33,24.83 -12.98,34.58l-22.5 24.82 217.18 49.65c-12.98,-18.62 -27.69,-23.94 -42.4,-31.03 -10.38,-33.69 2.6,42.55 6.06,-23.94 3.46,-72.69 -60.57,-57.62 -87.39,-82.45l5.19 -130.32c-32.88,-33.69 4.33,-16.84 -59.7,-23.05 6.92,66.49 4.33,19.5 10.38,46.1 3.46,14.19 6.92,25.71 7.79,44.33 1.73,21.28 6.92,78.02 -16.44,70.92z"/>
   <path class="fil62" d="M2088.74 2004.08l-35.47 7.09 -28.56 46.99c-13.84,16.84 -14.71,15.96 -28.55,31.91 -19.9,22.17 -42.4,44.33 -58.84,72.7 13.85,7.09 25.96,8.87 40.67,21.28 42.4,35.46 18.17,12.41 6.06,24.82l41.53 16.85c17.3,1.77 45.86,-2.66 65.76,-3.55 -10.38,-39.01 -20.77,-43.44 -46.73,-68.26l-14.7 -13.3c-0.87,-1.78 -4.33,-4.44 -6.93,-7.09l207.67 -137.42c11.24,-13.3 23.36,-20.39 18.17,-48.76 -5.2,-25.71 -13.85,-25.71 -20.77,-33.69 -1.73,19.5 -1.73,52.31 -10.38,69.15 -23.37,44.33 0.86,9.75 -36.34,25.71 -38.94,16.85 -54.52,31.03 -96.05,39.01l3.46 -43.44z"/>
   <path class="fil63" d="M463.78 2564.38c-48.45,58.51 -186.03,-1.77 -223.23,62.94l-0.87 44.33c166.13,-45.21 -12.98,23.94 125.46,16.85 78.74,-4.44 46.73,-48.76 114.22,-35.47l6.06 -63.83c53.64,-43.44 27.68,11.53 67.49,-48.76l-89.13 23.94z"/>
   <path class="fil64" d="M96.91 2683.18c56.25,38.12 33.75,39.01 119.41,34.57 -3.46,-46.98 9.52,-105.5 6.92,-133.87l-21.63 -70.92c-61.43,8.86 -5.19,-7.98 -33.74,5.32 -5.2,2.66 -8.66,3.54 -13.85,7.09 -54.51,32.8 12.98,-35.46 -25.09,38.12l-19.04 31.92c-7.78,28.37 -16.44,46.1 -12.98,87.77z"/>
   <path class="fil65" d="M2642.51 2692.93l4.33 -15.07 -57.11 -60.29c-22.5,14.19 -6.06,0.89 -23.36,17.73 -66.63,62.95 -65.76,101.07 -77.88,153.38 -10.38,45.21 -9.51,11.52 -24.22,66.49l74.41 -15.07c0,-0.89 -5.19,3.54 2.59,-14.19l26.83 -47.87c37.2,-70.93 33.74,-35.46 74.41,-85.11z"/>
   <path class="fil66" d="M2224.59 1583.85l0 110.82c55.38,20.39 91.72,36.35 110.75,-23.93 23.36,-75.36 -20.76,-93.98 -8.65,-129.44l-102.1 42.55z"/>
   <path class="fil67" d="M1529.78 1437.57c2.6,-2.66 5.2,-8.86 6.06,-7.09 10.38,23.05 -6.92,1.77 32.88,-43.44 2.6,-3.55 6.92,-7.09 10.38,-10.64l-2.59 60.29c3.46,-2.66 7.79,-10.64 8.65,-10.64 6.92,0.88 8.65,-25.71 10.38,-39.9 -8.65,-112.59 8.66,-19.5 -25.95,-62.06 -0.87,14.19 -10.39,3.55 25.95,11.53 0,-85.11 -6.05,-30.14 -12.97,-47.87l-54.52 15.95c-0.86,0 -3.46,-2.66 -4.32,-3.54 -17.31,-15.96 25.09,27.48 -7.79,-12.41 -0.86,-2.66 -3.46,-6.21 -5.19,-8.87l-16.44 -16.84c-49.32,57.62 -30.28,38.12 -11.25,111.7l20.77 -23.05c2.59,-2.66 6.05,-7.09 7.78,-8.86 16.44,-19.51 -2.59,-4.44 15.58,-17.74l2.59 113.48z"/>
   <path class="fil68" d="M1488.25 729.22l-19.9 -18.62c-1.73,-5.32 -7.79,5.32 -12.11,7.09 -12.98,42.56 3.46,39.9 -25.96,78.02 0.87,-3.55 0.87,-7.09 0,-8.87 -17.31,-90.42 -58.84,-79.79 -89.99,-84.22 16.44,62.06 19.9,48.76 48.46,92.2 45.86,70.93 -1.73,58.52 89.12,60.29 -5.19,-55.85 -13.84,-86 10.38,-125.89z"/>
   <path class="fil69" d="M2692.69 968.59l17.31 71.81c3.46,-1.78 8.65,-8.87 9.52,-7.09l15.57 -15.08c0.87,-2.66 2.6,-6.2 4.33,-9.75 0.86,-1.77 5.19,-34.57 11.25,-48.76l4.32 27.48c6.06,-7.97 30.29,-73.58 36.34,-90.42l-6.05 -42.56c-26.83,26.6 -14.71,-37.23 -24.23,40.78 -13.84,-31.91 -17.3,-34.57 -60.57,-37.23l-7.79 110.82z"/>
   <path class="fil70" d="M2043.75 1103.34c23.36,7.1 18.17,-49.64 16.44,-70.92 -0.87,-18.62 -4.33,-30.14 -7.79,-44.33 -6.05,-26.6 -3.46,20.39 -10.38,-46.1 -26.82,-4.43 -25.09,-6.21 -44.99,-18.62l-33.75 25.71c0,0.89 -0.86,4.44 -0.86,3.55 0,-0.89 0,2.66 0,3.55 -0.87,3.54 -0.87,9.75 -0.87,12.41l13.84 39.01c14.71,13.29 22.5,4.43 36.34,0 0,38.12 -7.78,41.66 4.33,69.15l27.69 26.59z"/>
   <path class="fil71" d="M1909.63 2195.57c-2.59,-30.14 -9.51,-23.05 19.04,-23.05l16.44 8.87 -7.79 -18.62c16.44,-28.37 38.94,-50.53 58.84,-72.7 13.84,-15.95 14.71,-15.07 28.55,-31.91l28.56 -46.99c-63.17,41.67 -129.79,90.43 -202.47,101.07l58.83 83.33z"/>
   <path class="fil72" d="M706.92 2005.85l-21.63 39.01c51.92,-15.07 44.13,-21.28 75.28,-28.37 15.57,-2.66 14.71,7.09 27.69,-6.21l8.65 -17.73c54.51,18.62 122,23.05 165.26,-21.27 -115.94,15.07 -152.28,-45.22 -255.25,34.57z"/>
   <path class="fil73" d="M1526.32 2295.75l-12.11 -21.27 63.16 -20.39 3.47 -43.44 -174.79 48.76c-46.72,18.61 -6.05,0 -27.69,16.84l147.96 19.5z"/>
   <path class="fil74" d="M1529.78 1437.57c-4.32,23.05 4.33,7.98 -6.05,28.37 -19.04,39.01 -11.25,17.73 -23.36,28.37 -28.56,31.92 -41.54,38.12 -103.84,39.9 -58.83,-0.89 -15.57,-3.55 -32.88,14.18l92.59 7.98c39.8,-35.46 27.69,-5.32 50.18,-61.17l35.48 27.48c30.28,-32.8 24.23,-37.23 34.61,-85.99l2.59 -60.29c-3.46,3.55 -7.78,7.09 -10.38,10.64 -39.8,45.21 -22.5,66.49 -32.88,43.44 -0.86,-1.77 -3.46,4.43 -6.06,7.09z"/>
   <path class="fil75" d="M2838.06 2779.81l6.92 37.24c-11.25,23.93 -20.77,33.69 -24.23,58.51l53.65 -13.3c-19.04,-33.69 -10.38,-25.71 0.86,-73.58l5.2 -58.52 -24.23 19.51 -18.17 30.14z"/>
   <path class="fil76" d="M1695.91 2176.96l-19.9 13.29 31.15 4.44c12.98,-0.89 30.29,1.77 43.27,-2.66 39.8,-11.53 29.42,0 42.39,-35.46l-20.76 -7.98c-11.25,-0.89 -20.77,-1.78 -32.02,0.88 -49.32,10.64 -34.61,17.73 -44.13,27.49z"/>
   <path class="fil77" d="M2334.48 730.99c0.86,53.19 -6.06,16.85 32.01,26.6 19.04,5.32 42.4,0.88 57.97,-0.89l-18.17 -7.98 -53.64 -7.98c23.36,-15.95 37.2,-27.48 58.84,-64.71 -48.46,8.86 -19.04,-7.1 -50.19,19.5 -22.5,19.5 -18.17,23.94 -26.82,35.46z"/>
   <path class="fil78" d="M2820.75 2875.56c3.46,-24.82 12.98,-34.58 24.23,-58.51l-6.92 -37.24c-22.5,27.48 -44.13,38.12 -60.57,74.47l43.26 21.28z"/>
   <path class="fil79" d="M2566.37 2325.01c-50.19,-7.09 -19.04,-7.98 -72.69,-1.77 -23.36,27.48 -7.78,5.32 -16.44,46.1 58.84,-15.96 59.71,-18.62 89.13,-44.33z"/>
   <path class="fil80" d="M2278.24 725.67c18.17,-2.66 38.07,3.55 44.99,-24.82 20.76,-51.42 -5.19,-68.27 29.42,-54.97l9.52 -15.96 -26.83 -2.66 -57.1 98.41z"/>
   <path class="fil81" d="M1139.55 2348.95c26.83,-3.55 22.5,-11.53 22.5,12.41 6.06,-6.21 19.9,-9.75 25.96,-15.96l-3.46 39.01 17.3 -26.6 14.71 -33.69c-13.84,-15.95 -25.09,-15.95 -59.7,8.87l-17.31 15.96z"/>
   <path class="fil82" d="M2323.23 700.85c18.17,-15.96 27.69,-16.85 32.88,-21.28 29.42,-23.05 12.11,-3.54 36.34,-40.78l-39.8 7.09c-34.61,-13.3 -8.66,3.55 -29.42,54.97z"/>
   <path class="fil83" d="M2254.87 1779.78l-7.78 34.58c49.32,-4.44 64.89,-4.44 51.05,-47.88l-43.27 13.3z"/>
   <path class="fil84" d="M405.81 1554.6c34.61,-11.53 27.69,2.66 53.65,-26.6 6.05,-7.98 12.98,-31.91 22.49,-50.53 -33.74,22.16 -46.72,35.46 -76.14,77.13z"/>
   <path class="fil85" d="M1106.67 2305.51c2.6,5.32 -21.63,40.78 36.34,8.86 42.4,-23.05 11.25,-7.09 26.83,-34.57l-63.17 25.71z"/>
   <path class="fil86" d="M181.71 2801.97c-14.71,-28.36 12.98,-4.43 -17.31,-18.61l-89.98 63.83c55.37,-20.39 42.39,-37.24 107.29,-45.22z"/>
   <path class="fil87" d="M1945.11 2181.39l38.94 27.48c12.11,-12.41 36.34,10.64 -6.06,-24.82 -14.71,-12.41 -26.82,-14.19 -40.67,-21.28l7.79 18.62z"/>
   <path class="fil88" d="M1601.6 2161.88c48.46,-15.95 27.69,22.17 44.13,-42.55 -38.07,23.05 -23.36,0 -44.13,42.55z"/>
   <path class="fil89" d="M2387.26 647.66c25.96,-15.96 35.47,-20.4 55.37,-36.35 11.25,-9.76 6.06,-5.32 19.91,-17.73l-53.65 24.82c-24.23,23.05 0,-6.21 -21.63,29.26z"/>
   <path class="fil90" d="M1165.51 2247.88c19.9,-6.21 15.58,22.16 39.8,-41.67 -34.61,20.39 -25.96,12.41 -39.8,41.67z"/>
   <path class="fil91" d="M533.87 1484.56c25.96,-5.32 12.11,9.75 28.55,-15.07 19.9,-30.14 2.6,-8.87 2.6,-29.26l-31.15 44.33z"/>
   <path class="fil92" d="M2852.77 2713.32c39.8,-9.75 12.98,32.8 31.15,-43.44l-31.15 43.44z"/>
  </g>
 </g>
</svg>
