<?xml version="1.0" encoding="UTF-8"?>
<!DOCTYPE svg PUBLIC "-//W3C//DTD SVG 1.1//EN" "http://www.w3.org/Graphics/SVG/1.1/DTD/svg11.dtd">
<!-- Creator: CorelDRAW 2017 -->
<svg xmlns="http://www.w3.org/2000/svg" xml:space="preserve" width="29.7178mm" height="30.7338mm" version="1.1" style="shape-rendering:geometricPrecision; text-rendering:geometricPrecision; image-rendering:optimizeQuality; fill-rule:evenodd; clip-rule:evenodd"
viewBox="0 0 2971.78 3073.38"
 xmlns:xlink="http://www.w3.org/1999/xlink">
 <defs>
  <style type="text/css">
   <![CDATA[
    .fil47 {fill:#292726}
    .fil54 {fill:#362928}
    .fil48 {fill:#393736}
    .fil46 {fill:#3A3A3A}
    .fil59 {fill:#3E3D3D}
    .fil87 {fill:#444343}
    .fil92 {fill:#452B28}
    .fil9 {fill:#473836}
    .fil112 {fill:#47433C}
    .fil105 {fill:#493D42}
    .fil43 {fill:#494646}
    .fil5 {fill:#4B4B4B}
    .fil15 {fill:#4F4F52}
    .fil94 {fill:#50312C}
    .fil111 {fill:#545353}
    .fil18 {fill:#553A38}
    .fil2 {fill:#564947}
    .fil84 {fill:#57433A}
    .fil0 {fill:#58534B}
    .fil4 {fill:#5A5A5A}
    .fil97 {fill:#636363}
    .fil74 {fill:#654A48}
    .fil101 {fill:#67483B}
    .fil66 {fill:#696766}
    .fil102 {fill:#6DC0B4}
    .fil78 {fill:#73716F}
    .fil82 {fill:#737373}
    .fil86 {fill:#765A58}
    .fil109 {fill:#797676}
    .fil110 {fill:#848384}
    .fil106 {fill:#887877}
    .fil100 {fill:#8A8378}
    .fil3 {fill:#8B8B8B}
    .fil60 {fill:#91716B}
    .fil89 {fill:#978886}
    .fil95 {fill:#9C9C9C}
    .fil88 {fill:#9CA2A2}
    .fil77 {fill:#A4A4A3}
    .fil64 {fill:#A87978}
    .fil81 {fill:#A8847A}
    .fil99 {fill:#A8948A}
    .fil93 {fill:#A8A7A7}
    .fil8 {fill:#AB7B83}
    .fil76 {fill:#ABABAC}
    .fil85 {fill:#B4B4B4}
    .fil79 {fill:#B67B78}
    .fil29 {fill:#B88987}
    .fil104 {fill:#B8A9A7}
    .fil21 {fill:#B9857B}
    .fil107 {fill:#C3C3C4}
    .fil56 {fill:#C4877C}
    .fil13 {fill:#C68A87}
    .fil12 {fill:#C79996}
    .fil90 {fill:#C9A599}
    .fil26 {fill:#CA958A}
    .fil80 {fill:#CB8D90}
    .fil113 {fill:#CCC2B9}
    .fil61 {fill:#D1ABB3}
    .fil108 {fill:lightgrey}
    .fil69 {fill:#D5998A}
    .fil19 {fill:#D69A94}
    .fil7 {fill:#D7ABA5}
    .fil11 {fill:#DCAC9C}
    .fil57 {fill:#E4A493}
    .fil33 {fill:#E4AC9B}
    .fil24 {fill:#E4ADA2}
    .fil65 {fill:#E4B29D}
    .fil10 {fill:#E4B3A3}
    .fil6 {fill:#E4B4AB}
    .fil17 {fill:#E4BBAB}
    .fil52 {fill:#E4BBB3}
    .fil103 {fill:#E4C3BB}
    .fil1 {fill:#E4E4E3}
    .fil25 {fill:#E5D7D7}
    .fil71 {fill:#E6A797}
    .fil38 {fill:#E8BAB7}
    .fil55 {fill:#E9C2AD}
    .fil68 {fill:#E9E9E7}
    .fil39 {fill:#EAB19D}
    .fil31 {fill:#EBC5C3}
    .fil58 {fill:#ECB5AB}
    .fil51 {fill:#ECBBAC}
    .fil36 {fill:#ECBCB4}
    .fil37 {fill:#ECC3B4}
    .fil14 {fill:#ECC3BB}
    .fil70 {fill:#ECCBBC}
    .fil34 {fill:#ECCBC4}
    .fil16 {fill:#ECCCCB}
    .fil32 {fill:#ECD3CC}
    .fil20 {fill:#ECD4D3}
    .fil62 {fill:#ECDBD4}
    .fil75 {fill:#ECDCDB}
    .fil23 {fill:#ECE2DC}
    .fil27 {fill:#ECE4E3}
    .fil98 {fill:#ECECEC}
    .fil91 {fill:#EEDDE2}
    .fil73 {fill:#F2C3B4}
    .fil96 {fill:#F2DDDA}
    .fil30 {fill:#F2F2F2}
    .fil28 {fill:#F3C4BC}
    .fil63 {fill:#F3CBC4}
    .fil42 {fill:#F3CCCA}
    .fil50 {fill:#F3D4D2}
    .fil72 {fill:#F3E4E3}
    .fil83 {fill:#F3EBE3}
    .fil40 {fill:#F3ECEC}
    .fil53 {fill:#F4BCB9}
    .fil35 {fill:#F4CBBC}
    .fil44 {fill:#F4D3C4}
    .fil49 {fill:#F4D9CC}
    .fil41 {fill:#F4E2DB}
    .fil67 {fill:#F4F2ED}
    .fil22 {fill:#F6F6F6}
    .fil45 {fill:#FCFCFC}
   ]]>
  </style>
 </defs>
 <g id="Capa_x0020_1">
  <metadata id="CorelCorpID_0Corel-Layer"/>
  <g id="_1368032472720">
   <g>
    <path class="fil0" d="M1450.37 1570.4l-5.35 -18.25 -25.83 -0.92c-3.56,14.61 0.89,12.78 -18.71,36.51l49.89 -17.34z"/>
    <path class="fil0" d="M1505.6 1488.26c10.69,-15.52 -24.05,4.56 12.47,-12.78 24.94,-11.87 8.02,-3.65 24.94,-6.39l-20.49 -19.17c-3.56,3.65 -23.16,17.34 -24.05,19.17 -14.25,27.38 -22.27,4.56 7.13,19.17z"/>
   </g>
   <g>
    <path class="fil1" d="M1225.88 2237.61c-26.72,-29.2 -11.58,-20.99 -64.14,-27.38 16.04,26.47 -20.49,8.22 25.84,30.12 20.48,9.13 27.61,0 38.3,-2.74z"/>
    <path class="fil1" d="M438.4 1942.8l29.4 -13.69c8.9,-43.81 6.23,-6.39 -17.82,-21.91 -16.04,11.87 -1.78,3.65 -11.58,35.6z"/>
   </g>
   <g>
    <path class="fil2" d="M621.02 2097.05c0,43.81 -3.57,13.69 15.14,24.65 0,58.41 6.24,0 -14.25,10.95l-0.89 21.9 168.36 -1.82c-13.36,-24.64 26.72,-17.34 -41.87,-20.08 -51.67,7.3 -61.46,13.69 -105.11,-9.13l27.61 -62.06 -35.63 8.21 -13.36 27.38z"/>
    <path class="fil2" d="M673.57 1894.42l9.8 0c-2.67,-44.72 2.68,-15.51 -17.81,-62.97 1.78,-2.74 4.45,-6.39 6.23,-8.22l35.64 -31.03c-72.16,19.17 -73.05,70.28 -33.86,102.22z"/>
   </g>
   <g>
    <path class="fil3" d="M198.77 2212.06c-2.67,-1.83 -8.02,-10.04 -8.91,-6.39l-30.29 -19.17c-37.41,-31.95 -25.83,-14.6 -51.67,-41.07l-64.13 -21c-1.79,-4.56 -8.02,-2.73 -11.58,-3.65 5.34,52.03 0,53.85 31.17,78.5 29.4,22.82 78.4,46.55 108.68,34.68 25.84,-9.12 14.26,-7.3 26.73,-21.9z"/>
    <path class="fil3" d="M1231.23 2129.91c26.72,0 21.38,7.3 21.38,-16.43l-0.9 5.48c26.73,-30.12 1.79,20.99 14.26,-23.73 8.91,-28.3 3.56,-19.17 8.02,-46.55 -36.53,36.51 -32.07,20.99 -42.76,81.23z"/>
   </g>
   <g>
    <path class="fil4" d="M32.19 2120.78c3.56,0.92 9.79,-0.91 11.58,3.65l64.13 21c50.78,1.82 26.73,-1.83 81.96,16.43 21.38,-104.97 37.41,0.91 59.68,-84.89 -18.7,-13.69 -11.58,-6.39 -24.94,-11.86 -32.96,-13.69 -1.78,9.12 -26.72,-11.87 -24.95,15.52 -12.47,11.87 -49,15.52 -9.8,-10.04 -17.81,-21 -32.96,-34.69 -21.38,-20.08 -16.03,-5.47 -25.83,-33.77 -10.69,19.17 -0.89,3.65 -9.8,22.82l29.4 42.9c1.78,0.91 6.23,4.56 8.9,6.39l-79.28 9.13 -7.12 39.24z"/>
    <path class="fil4" d="M35.75 1929.11c29.4,25.55 16.03,12.78 53.45,29.21l0.89 41.98c69.48,23.73 63.25,8.22 124.71,0 56.12,-37.42 18.71,-20.99 92.65,-25.55 -12.47,-32.86 -11.58,-10.96 0,-45.64 -52.56,11.86 -60.58,16.43 -114.92,3.65l-27.61 18.25c31.18,-27.38 -19.6,8.22 -31.18,-58.41 -69.49,37.42 -5.35,30.12 -97.99,36.51z"/>
    <path class="fil4" d="M1314.96 1425.28c34.74,21.9 35.64,22.82 47.22,58.41 1.78,-58.41 -12.48,-74.84 -39.2,-109.53 -40.09,30.12 -34.74,21 -44.54,74.85l36.52 -23.73z"/>
   </g>
   <g>
    <path class="fil5" d="M939.93 1309.36l-16.04 59.33c20.49,-26.47 27.62,-41.99 48.11,-73.93 20.49,-32.86 30.29,-52.03 47.21,-77.59 46.32,33.77 40.09,71.2 73.05,120.48 22.27,26.47 34.74,41.99 50.78,79.41 14.25,21 8.01,11.87 28.5,18.26l32.07 -7.3 16.04 -24.65 -27.62 -29.21c-126.5,-126.87 -57.9,-102.22 -121.15,-170.68l-4.46 16.43c-22.27,-55.68 -36.52,-52.02 -15.14,-34.68 -24.05,-43.81 35.63,-44.73 -38.3,-31.95l-21.38 31.95 28.5 12.78 -34.74 48.37c-0.89,2.74 -2.67,6.39 -4.45,9.13 -8.91,15.51 -6.24,15.51 -19.6,31.94 -9.8,13.69 -9.8,10.96 -21.38,21.91z"/>
    <path class="fil5" d="M2607.54 604.73c40.98,-5.48 65.03,1.82 76.61,2.73 34.74,-29.2 12.47,15.52 9.8,-31.94 -40.98,-33.77 -47.21,-31.95 -79.28,-24.65l-7.13 53.86z"/>
   </g>
   <g>
    <path class="fil6" d="M377.82 2550.68c-24.94,73.02 -24.05,216.32 28.51,284.78 1.78,-3.65 9.8,-59.33 13.36,-74.85 8.91,-2.74 8.91,-9.13 30.29,-2.74 1.78,0 13.36,9.13 16.92,11.87l24.06 -84.88c-1.79,-2.74 -4.46,-7.31 -6.24,-9.13 -24.05,-27.38 -23.16,-31.04 -64.14,-24.65 5.35,-26.47 10.69,-45.63 9.8,-72.1 -1.78,-50.2 -8.91,-39.25 -12.47,-46.55l-29.4 73.93c-0.89,-2.74 -3.56,8.21 -3.56,10.95l-7.13 -66.63z"/>
    <path class="fil6" d="M1051.28 2181.94c-33.85,39.24 40.09,26.47 -36.52,31.94 -23.16,31.95 -11.58,-34.68 7.12,11.87 7.13,17.34 11.58,-9.13 4.46,18.25 -41.87,21 -37.42,15.52 -92.65,19.17 -4.45,25.56 -12.47,13.69 1.78,41.07l24.06 17.35c1.78,-2.74 7.12,2.73 10.69,4.56 83.73,-24.64 78.39,-10.04 145.2,-69.37 -5.35,-52.94 1.78,-20.08 -21.38,-70.28l-42.76 -4.56z"/>
   </g>
   <g>
    <path class="fil7" d="M882.03 1668.98c-10.69,28.29 6.23,4.56 -23.17,21.9 -2.67,1.83 -13.36,6.39 -16.03,8.22 -30.29,11.86 -40.09,-4.57 -103.34,2.74 29.4,71.19 -24.05,18.25 56.13,63.89 48.99,-14.61 187.07,-55.68 218.25,-69.37 0,-32.86 -8.02,-24.64 26.72,-22.82l-8.02 -70.28c-53.45,20.08 -112.24,38.34 -150.54,65.72z"/>
    <path class="fil7" d="M1119.87 2093.4c-38.3,34.69 -14.25,1.83 -22.27,43.81l28.51 14.61 26.72 -20.08 0 -53.86c4.46,0 16.93,0 22.27,-0.91l49.89 -8.21c0,0 24.05,-47.47 -5.34,-73.93 -19.6,-17.35 -57.91,-5.48 -91.76,-3.66l-8.02 102.23z"/>
   </g>
   <g>
    <path class="fil8" d="M456.21 699.65l-1.78 15.52c-8.91,62.06 -13.36,42.9 16.04,79.41 4.45,41.98 8.01,15.51 23.16,29.2 1.78,-3.65 5.34,-12.78 6.23,-10.95l-6.23 -71.19c20.49,-20.08 19.6,-21.91 34.74,-38.34l27.62 12.78c8.01,3.65 25.83,10.04 29.39,11.87 30.29,16.42 -0.89,-6.39 24.95,20.99 -49.89,11.86 -34.75,20.08 -92.65,6.39l-6.23 39.25c57.01,14.6 16.92,16.42 75.71,18.25 27.62,-34.68 19.6,-19.17 26.73,-51.11 8.02,-41.08 -13.36,-18.26 37.41,-29.21 -0.89,0 -24.05,-9.13 -24.94,-9.13 -17.82,-11.86 -8.02,-3.65 -19.6,-16.43 57.02,-25.55 0.89,7.3 27.62,-17.34 2.67,-1.82 16.03,-20.08 18.71,-22.82l-9.8 -12.78c-101.56,-10.04 -8.91,-17.34 -147.88,-0.91l-39.2 46.55z"/>
    <path class="fil8" d="M198.77 857.55c12.47,21 0,20.08 -15.15,36.51 39.2,10.04 10.69,11.87 19.6,25.56 30.29,-10.95 12.47,14.6 32.07,-20.08 31.18,62.07 6.24,46.55 47.22,71.19l-9.8 -206.27c-13.37,-41.08 -8.91,-23.74 -23.17,-35.6l-24.05 3.65c-6.23,46.55 -14.25,92.19 -26.72,125.04z"/>
    <path class="fil8" d="M316.36 1845.14c-8.91,24.64 13.36,16.43 -48.11,19.16l156.79 53.86 18.7 -150.61c-25.83,37.43 -13.36,21.91 -36.52,43.82l-11.58 10.95c-24.94,24.64 2.67,17.34 -79.28,22.82z"/>
   </g>
   <g>
    <path class="fil9" d="M1174.21 162.05c27.62,46.55 2.68,42.9 48.11,97.66 89.08,21.91 87.3,55.68 216.47,59.33l35.63 71.19c47.21,23.73 66.81,80.32 92.64,130.52l-8.01 -63.89c-43.65,-31.03 -31.18,-51.11 -61.47,-98.57 -27.61,-42.9 -43.65,-80.32 -24.05,-133.26 -20.49,14.6 -14.25,22.82 -45.43,34.68 8.01,49.29 15.14,20.99 -9.8,31.03 -48.11,-20.99 -99.77,-23.73 -132.73,-36.51 -57.91,-23.73 -67.71,-63.89 -70.38,-117.74l-0.89 -71.19 -42.76 9.13 2.67 87.62z"/>
    <path class="fil9" d="M470.47 794.58c10.69,47.46 2.67,19.16 18.7,25.55 54.34,13.69 16.93,11.87 68.6,35.6 78.39,-14.6 35.63,-19.17 74.83,-51.11 24.05,-87.63 9.8,-10.04 -18.71,-42.9 -7.13,31.94 0.89,16.43 -26.73,51.11 -58.79,-1.83 -18.7,-3.65 -75.71,-18.25l6.23 -39.25c25.83,-51.12 -2.67,-22.82 38.31,-39.25l-27.62 -12.78c-15.14,16.43 -14.25,18.26 -34.74,38.34l6.23 71.19c-0.89,-1.83 -4.45,7.3 -6.23,10.95 -15.15,-13.69 -18.71,12.78 -23.16,-29.2z"/>
    <path class="fil9" d="M1061.08 1522.03c-0.89,17.34 -15.14,5.47 16.03,12.78 18.71,-28.3 11.59,-23.74 37.42,-41.08 -7.13,-16.43 24.05,-24.64 -23.16,-7.3l-30.29 35.6z"/>
   </g>
   <g>
    <path class="fil10" d="M2140.75 288.01l0.89 37.42c16.93,29.21 23.16,66.63 51.67,93.1l-5.35 -59.33c20.49,-156.99 114.03,-120.48 155.9,-219.06 40.98,55.68 -30.29,74.85 14.25,127.79 19.6,-49.29 49.89,-135.09 18.71,-183.46l-81.07 -11.87c-43.65,62.98 -6.23,16.43 -17.81,72.11 -10.69,50.2 -60.58,45.63 -70.38,58.41l-5.34 -17.34c16.92,49.29 -22.27,79.41 -61.47,102.23z"/>
    <path class="fil10" d="M743.06 2438.42l-21.38 -1.83c-0.89,1.83 -4.46,1.83 -4.46,4.56 -0.89,3.66 -4.45,4.57 -5.34,5.48 -1.78,0.91 -10.69,8.22 -13.36,10.04 -18.71,16.43 -9.8,3.65 -27.62,24.64 54.34,24.65 -75.72,55.68 -146.09,-15.51 18.7,36.51 25.83,28.29 25.83,81.23l4.46 -1.82 40.08 -10.04 220.92 -27.39c0.9,28.3 -11.58,-21.9 1.79,23.74 11.58,39.24 8.01,21.9 14.25,33.77l-2.67 -91.28c2.67,-28.29 -5.35,-41.98 -6.24,-42.9 -35.63,-8.21 -20.49,-9.12 -36.52,0.92 -19.6,11.86 -26.73,20.08 -39.2,31.03 -8.02,-77.58 36.53,24.64 -4.45,-24.64z"/>
   </g>
   <g>
    <path class="fil11" d="M2065.03 849.34c10.69,74.84 10.69,0.91 -15.14,69.37 32.07,6.39 22.27,22.82 23.16,24.64 -39.2,31.95 -41.87,31.95 -65.92,77.58 -4.46,26.47 -12.47,43.82 1.78,67.55 0.89,1.82 5.34,0 13.36,17.34l51.67 -51.11c60.58,-47.47 100.66,-132.35 119.37,-209.93 -24.94,-20.08 -33.85,44.72 -18.71,-27.39 -7.12,23.74 -21.38,31.04 -40.08,36.51l-69.49 -4.56z"/>
    <path class="fil11" d="M1421.86 2484.05c18.71,60.24 -18.71,9.13 -12.47,102.23l27.61 0c0.9,-77.58 5.35,-17.34 30.29,-45.64 8.02,-10.04 21.38,-39.25 32.96,-58.41 19.6,-33.77 16.93,-15.52 33.85,-55.68 14.26,-31.03 -2.67,-25.56 28.51,-54.76 -28.51,-66.63 13.36,-12.78 -28.51,-21.91 -22.27,46.55 0,4.56 -31.17,35.6 -16.04,16.43 -13.37,15.51 -29.4,33.77 -29.4,34.68 -27.62,16.43 -51.67,64.8z"/>
    <path class="fil11" d="M530.15 2921.25c41.87,-2.73 15.15,8.22 35.64,-11.86 -25.84,-62.98 -8.02,37.42 -19.6,-145.13l-41.87 4.57c-4.46,72.1 0,47.46 17.82,104.96 1.78,3.65 2.67,7.3 3.56,10.95 0,0 4.45,32.86 4.45,36.51z"/>
   </g>
   <g>
    <path class="fil12" d="M1723.85 1525.68c22.27,68.45 -4.46,104.05 1.78,175.24 38.31,-25.55 15.14,-17.34 38.31,-56.59 18.7,-32.85 1.78,-11.86 21.37,-29.2 31.18,-27.39 15.15,-10.04 33.86,-19.17 23.16,-2.74 13.36,9.13 30.28,-5.48 5.35,-8.21 38.31,-129.61 34.75,-173.42l-97.99 117.75c-3.57,-18.26 -16.04,-65.72 -31.18,-98.58 -36.53,-83.06 -50.78,-63.89 -79.29,-72.11l60.58 125.05c6.24,78.49 2.67,6.39 -12.47,36.51z"/>
    <path class="fil12" d="M441.96 1398.81l52.56 209.01 36.52 -1.82c4.46,-99.49 -4.45,-127.78 -22.27,-215.41 -40.08,2.74 -38.3,0 -66.81,8.22z"/>
   </g>
   <g>
    <path class="fil13" d="M1511.83 2776.13c98.88,25.56 25.84,11.86 59.69,59.33 29.4,-76.67 24.05,-20.08 40.98,-72.11 81.95,45.64 61.46,93.1 136.29,103.14 0.89,-39.25 -4.45,-29.21 10.69,-51.11l-21.38 -118.66c-43.65,50.2 -13.36,31.03 -26.72,85.8 -68.6,-13.69 -21.38,-67.54 -114.03,-62.98l7.13 -66.63c-5.35,-50.2 5.34,-41.99 -0.89,-88.54 -39.2,56.59 -63.25,138.74 -91.76,211.76z"/>
    <path class="fil13" d="M1392.46 2785.26c26.73,13.69 24.06,-10.04 -7.12,104.96 -33.85,121.4 -12.47,84.89 -65.92,84.89 39.19,25.55 11.58,-5.48 34.74,31.94 22.27,-25.56 13.36,-17.34 52.56,-30.12 31.18,-62.07 50.77,-127.78 63.25,-193.5 13.36,-64.8 46.32,-114.09 66.81,-183.46l-32.96 -2.74c-1.79,51.12 -84.63,130.52 -111.36,188.03z"/>
   </g>
   <g>
    <path class="fil14" d="M377.82 2550.68l7.13 66.63c0,-2.74 2.67,-13.69 3.56,-10.95l29.4 -73.93c3.56,7.3 10.69,-3.65 12.47,46.55 0.89,26.47 -4.45,45.63 -9.8,72.1 40.98,-6.39 40.09,-2.73 64.14,24.65 1.78,1.82 4.45,6.39 6.24,9.13 11.58,-49.29 31.18,-105.88 59.68,-137.83 0,-52.94 -7.13,-44.72 -25.83,-81.23 70.37,71.19 200.43,40.16 146.09,15.51 -93.53,-0.91 -65.92,8.22 -138.97,-32.85 -26.72,46.55 -3.56,40.16 -53.45,46.55 -15.14,1.82 -86.4,0 -105.11,0l4.45 55.67z"/>
    <path class="fil14" d="M254.89 597.42c-3.56,18.26 -12.47,45.64 -15.14,58.42 0,3.65 -3.57,33.77 -3.57,33.77l13.36 39.25c14.26,11.86 9.8,-5.48 23.17,35.6 23.16,-31.95 36.52,46.54 16.03,-40.17 34.74,-37.42 5.35,-38.33 15.14,-68.45l58.8 5.48 16.92 -132.35c-81.95,-0.91 -54.34,17.34 -81.95,80.32l-6.24 -7.3c-27.61,21.9 -13.36,18.25 -36.52,-4.57z"/>
    <path class="fil14" d="M835.7 1641.6l139.86 -48.38c-25.83,-33.77 41.87,-27.38 -50.78,-27.38 -5.34,10.95 13.37,23.73 -23.16,20.08l-27.61 -22.82c-1.78,-1.82 -3.57,-7.3 -6.24,-10.04 16.04,-22.82 9.8,-10.95 23.16,-20.99l30.29 -48.38c-43.65,34.69 -68.59,8.22 -137.18,67.54 0,0 -41.87,25.56 -18.71,56.59 24.05,31.04 8.91,5.48 21.38,10.04 1.78,0 5.34,0.92 8.02,1.83l29.39 13.69c3.57,1.83 8.91,4.57 11.58,8.22z"/>
    <path class="fil14" d="M434.83 1196.18l-23.16 7.3 3.57 14.61 10.69 34.68 45.43 20.99c15.14,-6.39 -8.02,-21.9 12.47,1.83 14.25,17.34 8.91,16.43 15.14,31.03 53.45,0 -2.67,7.3 21.38,-19.17l1.79 -76.67c-46.33,-28.29 -31.18,-25.55 -87.31,-14.6z"/>
   </g>
   <g>
    <path class="fil15" d="M2432.94 1160.58c65.92,30.12 146.09,102.23 219.14,108.62l24.94 -14.6c-78.39,-10.96 -91.75,-47.47 -74.83,-65.72 25.84,-28.3 -7.12,-10.95 45.44,-5.48 -74.83,-55.68 -4.46,-32.86 -75.72,-61.15 0.89,-4.57 4.45,-26.47 3.56,-29.21l-25.83 -79.41c-0.89,-28.29 23.16,-10.04 -13.37,-26.47 -7.12,-3.65 14.26,-58.41 -25.83,9.13 -0.89,1.83 -1.78,6.39 -1.78,8.22l-0.89 49.28c-12.47,54.77 -15.15,41.08 -56.12,18.26 1.78,4.56 4.45,5.47 5.34,12.78l29.4 57.5c-24.05,-17.34 -13.36,-10.95 -53.45,18.25z"/>
    <path class="fil15" d="M1393.35 1960.14c13.37,16.43 -21.37,-4.56 15.15,14.61 0.89,0 5.34,0.91 6.23,-0.92 0,-1.82 3.57,-1.82 6.24,-6.39l-27.62 -7.3z"/>
   </g>
   <g>
    <path class="fil16" d="M601.42 1089.39c32.96,15.52 74.83,34.68 111.35,55.68 13.36,7.3 34.74,22.82 46.32,29.2 23.16,11.87 27.62,6.39 51.67,21l101.55 -10.96c-11.58,109.53 -43.65,118.66 -3.56,169.77l15.14 14.61 16.04 -59.33c-32.96,-36.51 -27.62,53.85 -27.62,-48.38 55.23,-48.37 16.93,-83.05 49.89,-115.91l-40.09 -10.04c-111.35,-2.74 -220.03,-34.69 -319.8,-80.32l-31.18 -18.26 -64.14 -21.9c-26.72,2.73 0,-12.78 -23.16,28.29 32.07,10.95 29.4,14.6 61.47,26.47 19.59,8.21 35.63,13.69 56.12,20.08z"/>
    <path class="fil16" d="M1040.59 1673.54c-34.74,-1.82 -26.72,-10.04 -26.72,22.82l151.44 32.86 38.3 -24.65 -37.41 -76.67c-26.73,-48.37 -83.74,10.05 -89.98,13.7l-11.58 -30.12 -11.58 39.24c-0.89,1.83 -2.67,6.39 -3.56,8.22l-8.91 14.6z"/>
   </g>
   <g>
    <path class="fil17" d="M747.51 2132.65c68.59,2.74 28.51,-4.56 41.87,20.08 3.56,-0.91 20.49,-6.39 24.05,-5.48 19.6,2.74 26.73,7.3 35.64,11.87l248.53 -21.91c8.02,-41.98 -16.03,-9.12 22.27,-43.81 -1.78,-52.94 -11.58,-62.07 -27.61,-104.96l-165.69 0.91c0,3.65 0.89,26.47 0.89,29.21 0.89,1.82 3.56,10.95 4.45,10.04 0,-1.83 3.56,4.56 5.35,7.3 81.06,-3.65 51.66,-22.82 145.2,0 -21.38,50.2 29.4,18.25 -49.89,45.64 -52.55,18.25 -123.82,16.42 -163.02,-28.3 -28.5,75.76 -61.46,15.52 -122.04,79.41z"/>
    <path class="fil17" d="M922.11 1135.03l40.09 10.04c-32.96,32.86 5.34,67.54 -49.89,115.91 0,102.23 -5.34,11.87 27.62,48.38 11.58,-10.95 11.58,-8.22 21.38,-21.91 13.36,-16.43 10.69,-16.43 19.6,-31.94 1.78,-2.74 3.56,-6.39 4.45,-9.13l34.74 -48.37 -28.5 -12.78 21.38 -31.95 6.23 -0.91 -3.56 -52.03c-38.31,17.34 -67.7,22.82 -93.54,34.69z"/>
    <path class="fil17" d="M1152.83 2131.74c48.11,-2.74 -40.97,0.91 28.51,11.86l43.65 -74.84 -49.89 8.21c-5.34,0.91 -17.81,0.91 -22.27,0.91l0 53.86z"/>
   </g>
   <g>
    <path class="fil18" d="M1478.87 2386.39c-25.83,20.08 -20.49,9.13 -40.08,22.82 -30.29,20.99 -13.37,4.56 -32.07,35.6 -24.05,40.16 -12.47,30.12 -42.76,26.46l-31.18 100.41 -11.58 63.89c64.14,-70.28 -8.91,-76.67 90.86,-145.13 2.67,-1.82 7.13,-4.56 9.8,-6.39 24.05,-48.37 22.27,-30.12 51.67,-64.8 16.03,-18.26 13.36,-17.34 29.4,-33.77 31.17,-31.04 8.9,10.95 31.17,-35.6 14.26,-52.94 0,-10.95 30.29,-44.72l32.96 -41.99c14.26,-20.08 11.58,-11.87 21.38,-31.03 66.81,-123.22 -2.67,-323.11 62.36,-454.55 18.71,-38.33 13.36,-49.28 44.54,-76.67 -6.24,-71.19 20.49,-106.79 -1.78,-175.24l-7.13 -27.38 -23.16 47.46c-8.02,32.86 17.82,83.97 -16.93,173.42 -115.8,293.9 21.38,418.03 -152.32,598.75 -10.69,10.96 -5.35,1.83 -17.82,20.08 -15.15,23.74 -1.78,18.26 -27.62,48.38z"/>
    <path class="fil18" d="M358.22 2095.23l55.24 -25.56 26.72 -27.38c-52.56,20.08 -93.54,22.82 -108.68,67.54l26.72 -14.6z"/>
    <path class="fil18" d="M1766.61 1143.24l43.65 -9.13 14.25 -53.85c-37.41,31.95 -16.03,31.95 -57.9,62.98z"/>
   </g>
   <g>
    <path class="fil19" d="M1808.48 971.65c5.34,6.39 10.69,16.43 10.69,12.77 1.78,-4.56 2.67,11.87 5.34,18.26 -52.56,20.99 -16.03,18.25 -75.72,29.21 16.04,-31.95 -13.36,79.41 -12.47,118.65 43.65,3.65 30.29,10.04 30.29,-7.3 41.87,-31.03 20.49,-31.03 57.9,-62.98 -5.34,-42.9 0.89,-19.17 -12.47,-44.72 47.21,-10.95 99.77,-27.38 146.09,-35.6 88.19,-14.6 65.03,-21.9 114.92,-56.59 -0.89,-1.82 8.91,-18.25 -23.16,-24.64 25.83,-68.46 25.83,5.47 15.14,-69.37 -59.68,-18.26 6.24,19.17 -146.98,56.59 -75.72,18.25 -97.99,77.58 -144.32,25.56 -1.78,3.65 -4.45,6.39 -4.45,7.3 0,0 -8.02,-6.39 2.67,6.39 69.49,4.56 7.13,-4.57 36.53,26.47z"/>
    <path class="fil19" d="M1511.83 2776.13l-54.34 171.59c0,0 23.16,20.08 24.95,23.73 12.47,-34.68 -3.57,0 24.94,-17.34l-14.25 -46.55c46.32,31.04 21.38,-3.65 33.85,34.69 16.03,-40.16 37.41,-57.51 69.48,-90.36 22.27,31.03 8.02,41.98 40.09,59.32l9.8 -39.24c66.81,22.81 16.92,44.72 76.61,73.93 33.85,-45.64 36.52,-28.3 25.83,-79.41 -74.83,-10.04 -54.34,-57.5 -136.29,-103.14 -16.93,52.03 -11.58,-4.56 -40.98,72.11 -33.85,-47.47 39.19,-33.77 -59.69,-59.33z"/>
    <path class="fil19" d="M2000.89 145.62l-2.67 51.11c-70.37,42.9 -24.05,-1.82 -65.03,55.68 -32.07,44.72 -40.09,32.86 -49.89,89.45 39.2,-32.86 49.89,-27.38 70.38,-95.84 38.3,41.07 32.96,20.08 46.32,26.47 1.78,33.77 0.89,56.59 26.73,84.88 -6.24,-47.46 9.8,-105.87 24.94,-148.77 12.47,-35.6 8.91,-31.95 34.74,-52.94 52.56,-43.81 24.94,6.39 53.45,-60.24l-89.08 30.12c-54.34,23.73 23.16,10.95 -49.89,20.08z"/>
    <path class="fil19" d="M1215.19 136.49c2.67,53.85 12.47,94.01 70.38,117.74 32.96,12.78 84.62,15.52 132.73,36.51 24.94,-10.04 17.81,18.26 9.8,-31.03 -61.47,-47.46 -88.19,-40.16 -102.45,-87.62 -8.91,-26.47 17.82,-1.83 -6.23,-24.65 -42.76,-40.16 36.52,1.83 -25.84,4.57 -49.88,0.91 -45.43,-17.34 -63.24,-39.25l-15.15 23.73z"/>
    <path class="fil19" d="M152.45 1794.02c24.05,48.38 45.43,80.32 115.8,70.28 61.47,-2.73 39.2,5.48 48.11,-19.16 -128.28,-28.3 -13.37,-10.04 -117.59,-72.11 -3.57,-1.83 -13.36,-14.6 -28.51,-9.13 -25.83,8.22 -6.23,2.74 -13.36,16.43l-4.45 13.69z"/>
    <path class="fil19" d="M497.19 3024.39l65.92 -13.69c-0.89,-49.29 10.69,-77.58 -29.39,-80.32 -7.13,34.69 16.92,27.38 -9.8,30.12 -26.73,42.9 8.01,27.38 -32.96,30.12l6.23 33.77z"/>
   </g>
   <g>
    <path class="fil20" d="M670.01 2061.46l-27.61 62.06c43.65,22.82 53.44,16.43 105.11,9.13 60.58,-63.89 93.54,-3.65 122.04,-79.41 39.2,44.72 110.47,46.55 163.02,28.3 79.29,-27.39 28.51,4.56 49.89,-45.64 -93.54,-22.82 -64.14,-3.65 -145.2,0 -1.79,-2.74 -5.35,-9.13 -5.35,-7.3 -0.89,0.91 -3.56,-8.22 -4.45,-10.04 0,-2.74 -0.89,-25.56 -0.89,-29.21l-146.1 4.56c-35.63,44.73 -40.08,17.34 -91.75,36.51l-42.76 29.21c38.3,-38.34 -35.63,4.56 9.8,-7.3 0,0 5.34,5.47 6.23,2.74 0.89,-2.74 5.35,4.56 8.02,6.39z"/>
    <path class="fil20" d="M1064.64 1611.48l11.58 30.12c6.24,-3.65 63.25,-62.07 89.98,-13.7l37.41 76.67 -38.3 24.65c26.72,7.3 87.3,25.56 115.8,35.6 67.7,24.64 47.22,45.63 103.34,67.54l8.01 -27.38 -1.78 -49.29c-16.03,-8.22 -1.78,-1.83 -27.61,7.3 84.62,-136 -114.92,-140.56 -204,-164.29 -103.34,-28.3 -82.85,-1.83 -94.43,12.78z"/>
   </g>
   <g>
    <path class="fil21" d="M475.81 954.3l36.53 21.91c101.55,58.42 96.2,46.55 58.79,60.24l31.18 18.26c99.77,45.63 208.45,77.58 319.8,80.32 25.84,-11.87 55.23,-17.35 93.54,-34.69l3.56 52.03c16.93,-40.16 6.24,-95.84 8.02,-152.43 -67.7,11.87 -108.68,64.81 -156.79,70.28 -98.88,10.96 -31.17,17.34 -57.01,-18.25l-24.94 -5.48c-27.62,-15.52 -15.14,-7.3 -52.56,-19.17 -21.38,-7.3 -8.91,-0.91 -28.5,-10.04 -28.51,-12.77 -5.35,1.83 -21.38,-16.43 -72.16,13.7 -47.22,18.26 -106.9,-15.51 -41.87,-24.65 -60.58,-39.25 -103.34,-31.04z"/>
    <path class="fil21" d="M2187.96 359.2l5.35 59.33 13.36 -4.57c16.04,18.26 4.46,3.65 16.04,27.39l26.72 48.37c16.04,-27.38 40.98,-68.45 57.9,-98.57l-12.47 -15.52c-21.38,-32.86 -23.16,-35.6 -13.36,-52.94 -7.13,0.91 -29.4,5.48 -31.18,5.48l-62.36 31.03z"/>
   </g>
   <g>
    <path class="fil22" d="M1824.51 544.49l-19.6 4.56 -59.68 0 -18.71 78.49c43.65,-3.65 74.83,-22.81 123.82,-14.6 -1.78,-0.91 -6.23,-20.99 -40.08,-2.74 -45.43,24.65 -15.15,-12.78 -36.53,42.9l104.23 35.6c32.07,15.51 48.1,30.12 87.3,8.21 130.06,-72.1 -16.03,-179.81 -16.03,-179.81l-124.72 27.39z"/>
    <path class="fil22" d="M1864.6 44.31l3.56 -2.74 -390.18 1.82c13.36,31.04 8.02,10.04 28.51,30.12 21.38,22.82 0,-3.65 18.71,20.08 37.41,43.81 -5.35,15.52 35.63,38.34 23.16,12.78 24.94,0 76.61,37.42 43.65,31.95 116.7,14.6 123.82,-43.81 27.62,13.69 57.01,9.13 90.87,-0.91 -0.89,-51.12 0,-31.95 12.47,-80.32z"/>
    <path class="fil22" d="M1409.39 1804.98l32.07 34.68 20.49 -0.91c11.58,-35.6 24.05,-56.59 6.23,-81.24 -13.36,-19.16 -8.01,-7.3 -24.05,-20.08 -43.65,30.12 -29.4,9.13 -34.74,67.55z"/>
   </g>
   <g>
    <path class="fil23" d="M1864.6 44.31c-12.47,48.37 -13.36,29.2 -12.47,80.32 -33.86,10.04 -63.25,14.6 -90.87,0.91 -7.12,58.41 -80.17,75.76 -123.82,43.81 -51.67,-37.42 -53.45,-24.64 -76.61,-37.42 -40.98,-22.82 1.78,5.47 -35.63,-38.34 -18.71,-23.73 2.67,2.74 -18.71,-20.08 -20.49,-20.08 -15.15,0.92 -28.51,-30.12l-114.91 -3.65 83.73 41.99c56.13,40.16 27.62,53.85 65.03,97.66 32.07,37.42 151.44,72.11 211.13,87.62l149.65 -96.75 14.26 -69.37c1.78,-3.65 2.67,-7.3 4.45,-10.95 0.89,-3.65 7.13,-16.43 8.91,-20.08 -24.94,-30.12 5.35,-10.04 -35.63,-25.55z"/>
    <path class="fil23" d="M1032.57 2352.62c6.24,42.9 5.35,104.96 4.46,123.22 -3.57,35.59 7.12,31.94 -29.4,65.72 73.05,53.85 -13.36,87.62 94.43,122.3 84.63,-116.83 -18.71,-52.02 101.55,-98.57l-46.32 -18.26c-54.34,-8.21 -59.69,-2.74 -81.96,-42.9 57.02,-41.98 -6.23,-2.74 59.69,-20.99l40.08 -175.25 -48.99 168.86 26.72 -213.58c-59.68,20.08 -57.9,69.37 -120.26,89.45z"/>
    <path class="fil23" d="M2036.53 445.91c-0.9,3.65 -7.13,27.38 -7.13,31.03 6.23,45.64 -23.16,3.65 17.82,40.16 24.94,-12.78 12.47,-5.47 24.94,-38.33 17.81,-43.81 37.41,-115.92 69.48,-153.34l-0.89 -37.42c13.36,-71.2 -0.89,-73.02 14.25,-94.93 31.18,-44.72 32.07,-8.21 37.42,-77.58 -36.53,26.47 -117.59,87.62 -130.06,125.96 -16.04,45.63 -41.87,175.24 -25.83,204.45z"/>
    <path class="fil23" d="M555.1 2545.21l-4.46 25.55c36.52,34.69 -20.49,-13.69 32.07,97.67 3.56,-0.92 8.02,-7.31 9.8,-4.57l28.51 -15.51c40.97,-14.61 86.41,52.02 78.39,-68.46 -41.87,-31.95 -16.04,-12.78 -63.25,-23.73 -101.55,-22.82 -36.52,-8.22 -40.98,-20.99l-40.08 10.04z"/>
   </g>
   <g>
    <path class="fil24" d="M386.73 711.52c-4.45,42.9 11.58,115.91 24.05,152.42 8.02,21 16.93,37.43 32.07,56.59 10.69,12.78 15.15,15.52 32.96,33.77 42.76,-8.21 61.47,6.39 103.34,31.04 59.68,33.77 34.74,29.21 106.9,15.51 65.03,12.78 15.14,4.57 30.28,-5.47 -20.49,-112.27 -60.57,-12.78 12.47,-164.3 -57.9,83.98 -202.21,108.62 -239.63,-10.95 -16.03,-6.39 -8.01,21.91 -18.7,-25.55 -29.4,-36.51 -24.95,-17.35 -16.04,-79.41l1.78 -15.52c-12.47,-33.77 -12.47,-23.73 -1.78,-9.13 -29.39,8.22 -40.97,10.04 -67.7,21z"/>
    <path class="fil24" d="M1755.92 513.45l35.63 12.78c10.69,-70.28 14.25,-42.9 51.67,-83.06 37.41,-39.25 20.49,-41.98 40.08,-101.31 9.8,-56.59 17.82,-44.73 49.89,-89.45 40.98,-57.5 -5.34,-12.78 65.03,-55.68l2.67 -51.11c-80.17,26.47 -15.14,16.43 -73.94,51.11 -23.16,13.69 -14.25,5.48 -35.63,15.52 -36.52,16.43 -60.57,48.37 -94.42,72.11l-37.42 180.72c-34.74,25.55 -0.89,0 0,-0.92l-3.56 49.29z"/>
    <path class="fil24" d="M272.71 764.46l26.72 186.19c48.1,43.82 -10.69,0.92 53.45,25.56 0,-37.42 -32.07,25.56 13.36,-7.3 25.84,-20.08 13.36,-9.13 23.16,-24.65l-10.69 8.22c-0.89,3.65 43.65,15.52 51.67,17.34 15.14,18.26 2.67,7.3 4.45,31.95 27.62,-12.78 6.24,0 17.82,-22.82 -63.25,-52.03 -108.68,-209.93 -89.97,-317.63l-58.8 -5.48c-9.79,30.12 19.6,31.03 -15.14,68.45 20.49,86.71 7.13,8.22 -16.03,40.17z"/>
   </g>
   <g>
    <path class="fil25" d="M513.23 1925.46c11.58,-28.3 0,-5.48 43.65,-17.34 8.01,35.59 0.89,32.85 25.83,58.41l65.92 -2.74c0,-0.91 -48.99,-32.86 1.78,-59.33 1.78,-0.91 8.91,-3.65 10.69,-4.56l12.47 -5.48c-39.19,-31.94 -38.3,-83.05 33.86,-102.22l-35.64 31.03c-1.78,1.83 -4.45,5.48 -6.23,8.22 20.49,47.46 15.14,18.25 17.81,62.97 31.18,27.39 46.33,20.08 114.92,24.65l84.63 -120.48c44.54,-48.38 11.58,6.39 26.72,-27.39 -73.05,25.56 -127.39,37.43 -208.45,30.13 24.05,-21.91 0.89,-10.96 44.54,-27.39 13.36,-5.47 35.63,-6.39 49.89,-8.21 -80.18,-45.64 -26.73,7.3 -56.13,-63.89 63.25,-7.31 73.05,9.12 103.34,-2.74 2.67,-1.83 13.36,-6.39 16.03,-8.22 29.4,-17.34 12.48,6.39 23.17,-21.9 -51.67,15.51 -86.41,9.13 -126.5,18.25 -53.45,13.69 -37.42,39.25 -83.74,82.15 -29.39,28.29 -97.1,33.77 -158.56,156.08z"/>
    <path class="fil25" d="M433.05 2372.7c95.32,45.64 171.93,107.7 282.39,28.29 40.98,-21.9 42.76,-22.81 68.6,-51.11 -69.49,-31.03 -41.87,3.65 -115.81,8.22l-29.4 -44.73 -24.94 10.95c-42.76,21 -38.31,29.21 -69.48,69.37 -43.65,-13.69 -6.24,-2.74 -26.73,-15.51 -74.83,-49.29 32.07,6.38 -24.94,-19.17 -99.77,-44.73 -45.43,-1.83 -59.69,13.69z"/>
    <path class="fil25" d="M1219.65 1403.37l-16.04 24.65c-4.45,80.32 -21.38,83.05 -38.3,146.95 80.17,20.99 81.95,-13.69 88.19,-81.24l14.25 -22.82 43.65 -38.33c0.89,-1.83 2.67,-5.48 3.56,-7.3l-36.52 23.73c9.8,-53.85 4.45,-44.73 44.54,-74.85 -5.34,-51.11 12.47,-3.65 -9.8,-31.03 -20.49,-24.64 7.13,-8.21 -27.61,-7.3 -41.87,0.91 -22.27,6.39 -49,-18.26 -16.92,-17.34 0.89,-3.65 -16.92,-23.73 -1.79,-0.91 -7.13,-1.82 -8.02,-5.47 -0.89,-4.57 -5.35,-4.57 -8.02,-6.39 44.54,110.44 40.09,57.5 63.25,99.49 -24.05,11.86 -30.29,16.43 -47.21,21.9z"/>
   </g>
   <g>
    <path class="fil26" d="M1478.87 2386.39c25.84,-30.12 12.47,-24.64 27.62,-48.38 12.47,-18.25 7.13,-9.12 17.82,-20.08 173.7,-180.72 36.52,-304.85 152.32,-598.75 34.75,-89.45 8.91,-140.56 16.93,-173.42l23.16 -47.46c6.24,-50.2 7.13,-23.74 -6.23,-59.33 -58.8,48.37 -24.06,-17.34 -43.65,129.61 -6.24,43.81 -14.26,84.88 -32.96,125.95 -13.37,28.3 -27.62,69.37 -40.98,106.8 0,0 -16.04,19.16 -13.36,66.62 2.67,40.17 8.9,28.3 15.14,66.63 15.14,101.32 -32.07,160.65 -61.47,241.88 -21.38,60.24 0.89,68.46 -22.27,92.19 -2.67,2.73 -5.34,-31.95 -24.05,35.59 -8.02,29.21 -6.24,53.86 -8.02,82.15z"/>
    <path class="fil26" d="M1291.8 2796.21c-25.83,92.19 -24.05,66.63 -63.25,138.74 1.79,0.91 4.46,-0.92 5.35,0.91 12.47,52.94 -7.13,-20.08 26.72,13.69 29.4,-106.79 27.62,-75.76 61.47,-90.36 -37.41,52.02 -38.31,37.42 -42.76,113.18l72.16 -71.2c19.59,-38.33 24.05,-52.02 21.38,-89.44 4.45,-57.51 58.79,-101.32 65.92,-155.17l-1.79 -70.28 -27.61 0c-9.8,25.56 -9.8,22.82 -25.83,47.46 -0.89,1.83 -14.26,21.91 -15.15,22.82 -5.34,10.95 -11.58,24.64 -16.92,34.68l-24.06 38.34c-1.78,3.65 -8.01,11.86 -9.79,15.52 -11.59,19.16 -11.59,31.03 -25.84,51.11z"/>
    <path class="fil26" d="M406.33 2835.46c51.67,101.31 10.69,114.09 32.07,203.54 24.94,-43.81 1.78,-21.91 37.41,-28.3 29.4,-125.96 -23.16,-102.22 -8.91,-240.96 -3.56,-2.74 -15.14,-11.87 -16.92,-11.87 -21.38,-6.39 -21.38,0 -30.29,2.74 -3.56,15.52 -11.58,71.2 -13.36,74.85z"/>
   </g>
   <g>
    <path class="fil27" d="M723.46 1286.54c2.67,3.65 12.47,18.26 14.25,20.99 2.68,2.74 6.24,12.78 8.02,10.96 1.78,-2.74 4.45,6.39 7.13,10.04l29.39 14.6c45.44,11.87 33.85,14.6 56.13,12.78 23.16,43.81 10.69,79.41 18.7,113.18l80.18 -18.26c67.7,-28.29 87.3,-76.67 101.55,-86.71 20.49,-15.51 7.13,-4.56 24.94,-12.77l28.51 -13.7c-32.96,-49.28 -26.73,-86.71 -73.05,-120.48 -16.92,25.56 -26.72,44.73 -47.21,77.59 -20.49,31.94 -27.62,47.46 -48.11,73.93l-15.14 -14.61c-40.09,-51.11 -8.02,-60.24 3.56,-169.77l-101.55 10.96c16.03,40.16 11.58,37.42 17.82,66.63 5.34,27.38 11.58,15.51 8.01,37.42 -55.23,7.3 -61.46,-4.56 -113.13,-12.78z"/>
    <path class="fil27" d="M1193.81 2501.39c63.25,-33.77 67.7,-92.18 62.36,-183.46 73.94,-29.2 70.37,-30.12 99.77,-104.05 24.94,-64.8 25.83,-111.35 40.09,-181.63l-103.34 10.95c-56.12,191.68 82.85,115.92 -47.21,222.71 -38.31,31.94 -19.6,-22.82 -39.2,75.76 -16.92,87.62 -15.14,104.05 -50.77,173.42l38.3 -13.7z"/>
    <path class="fil27" d="M552.42 1701.84c8.02,32.86 -7.12,7.3 19.6,41.98 -55.23,-1.82 -48.1,-10.95 -72.16,-44.72 -23.16,41.98 -29.39,157.9 -16.03,201.71 28.51,-46.55 7.13,-10.04 35.63,-42.9 19.6,-24.64 10.69,-19.16 38.31,-50.2 29.39,-31.94 59.68,-64.8 102.44,-75.75l2.67 -36.51c-8.01,-2.74 -9.79,-7.3 -34.74,-3.65 -24.05,3.65 10.69,-1.83 -25.83,10.04 -65.92,21.9 -12.47,-0.92 -49.89,0z"/>
    <path class="fil27" d="M1393.35 1960.14l27.62 7.3c-2.67,4.57 -6.24,4.57 -6.24,6.39 -0.89,1.83 -5.34,0.92 -6.23,0.92 -36.52,-19.17 -1.78,1.82 -15.15,-14.61zm-126.49 27.38c146.09,24.65 180.83,25.56 185.29,-72.1l-44.54 0.91c-17.82,21.91 -14.26,-10.04 -14.26,43.81 -34.74,10.95 -16.03,-11.86 -32.96,-56.59 -9.79,38.34 6.24,18.26 -17.81,40.16l0.89 31.04c-51.67,-0.92 -49,-5.48 -76.61,12.77z"/>
   </g>
   <g>
    <path class="fil28" d="M920.33 533.53c-16.03,45.64 4.45,-4.56 -15.14,23.73 -0.89,2.74 -3.57,5.48 -5.35,8.22l-10.69 14.6c-50.77,66.63 -40.08,19.17 -71.26,61.16 -16.93,22.81 -3.57,0.91 -13.37,39.24l115.81 -24.64c1.78,-0.91 5.35,0 6.24,0 0.89,0 4.45,0 5.34,0 46.32,-1.83 8.02,-4.56 65.92,-57.5l33.85 -35.6c13.37,-47.46 16.04,8.21 -2.67,-19.17 138.97,10.04 44.54,-44.72 149.66,-96.75l-19.6 48.38c-16.03,22.82 3.56,3.65 -19.6,20.99 14.25,12.78 -1.78,5.48 23.16,5.48l60.58 -83.97 -42.76 -29.21c-15.14,-9.13 -26.73,-15.52 -38.31,-23.73 -34.74,-23.73 -37.41,-28.3 -58.79,-62.07l-21.38 9.13c-3.56,0.91 -7.13,2.74 -11.58,3.65l-50.78 12.78c4.46,123.22 23.16,88.53 -24.94,189.85l-54.34 -4.57z"/>
    <path class="fil28" d="M937.26 1450.83l-3.57 18.26 44.54 -16.43c1.79,-0.91 6.24,-1.83 9.8,-2.74 2.68,3.65 6.24,13.69 8.02,15.52 11.58,14.6 -0.89,13.69 55.23,11.86 16.04,18.26 7.13,31.95 9.8,44.73l30.29 -35.6 14.25 -58.41 37.42 -10.96c-16.04,-37.42 -28.51,-52.94 -50.78,-79.41l-28.51 13.7c-17.81,8.21 -4.45,-2.74 -24.94,12.77 -14.25,10.04 -33.85,58.42 -101.55,86.71z"/>
    <path class="fil28" d="M719.01 478.77c-72.16,-3.65 -83.74,19.17 -75.72,86.71l65.92 8.21c24.94,-42.9 21.38,-34.68 9.8,-94.92z"/>
   </g>
   <g>
    <path class="fil29" d="M1534.1 2349.88c41.87,9.13 0,-44.72 28.51,21.91 -31.18,29.2 -14.25,23.73 -28.51,54.76 -16.92,40.16 -14.25,21.91 -33.85,55.68 -11.58,19.16 -24.94,48.37 -32.96,58.41 -24.94,28.3 -29.39,-31.94 -30.29,45.64l1.79 70.28c2.67,-1.83 8.01,-8.21 8.9,-5.48 5.35,9.13 30.29,-44.72 56.13,-53.85 -0.89,-73.93 11.58,-52.02 37.41,-87.62 31.18,-44.72 8.91,-46.55 73.05,-78.5 -14.26,54.77 -21.38,45.64 -36.53,81.24l-5.34 24.64 73.05 -123.22c19.59,-34.68 39.19,-94.92 54.34,-140.56l-29.4 37.42c-0.89,0.92 -3.56,5.48 -5.35,6.39 -0.89,1.83 -2.67,4.57 -4.45,7.3 42.76,-137.82 27.62,-172.5 24.05,-302.11 -2.67,-112.27 67.7,-162.47 40.98,-321.29 -31.18,27.39 -25.83,38.34 -44.54,76.67 -65.03,131.44 4.45,331.33 -62.36,454.55 -9.8,19.16 -7.12,10.95 -21.38,31.03l-32.96 41.99c-30.29,33.77 -16.03,-8.22 -30.29,44.72z"/>
    <path class="fil29" d="M299.43 950.65c-1.78,2.74 -30.29,-28.29 -17.82,43.82 3.57,19.16 3.57,8.21 25.84,34.68 30.29,36.51 14.25,31.03 63.25,59.33 -24.95,-53.85 -44.54,-44.73 -59.69,-83.06 0.89,16.43 -0.89,16.43 29.4,40.16 32.07,25.55 15.14,15.51 52.56,32.86l41.86 -76.67c-1.78,-24.65 10.69,-13.69 -4.45,-31.95 -8.02,-1.82 -52.56,-13.69 -51.67,-17.34l10.69 -8.22c-9.8,15.52 2.68,4.57 -23.16,24.65 -45.43,32.86 -13.36,-30.12 -13.36,7.3 -64.14,-24.64 -5.35,18.26 -53.45,-25.56z"/>
   </g>
   <g>
    <path class="fil30" d="M1159.96 608.38c36.52,19.16 33.85,-41.08 27.62,44.72 -33.86,20.99 -25.84,37.42 -28.51,46.55l-3.56 41.99c26.72,2.73 33.85,24.64 32.96,-42.9 5.34,58.41 -7.13,10.95 40.08,30.12 -1.78,-17.34 -24.05,-50.2 64.14,-97.66 -12.47,49.28 -13.36,36.5 -27.61,77.58 -1.78,4.56 -16.04,50.2 -21.38,65.72 -1.78,2.73 -2.67,5.47 -4.46,8.21l-20.49 61.15c-8.01,53.85 4.46,64.81 23.17,87.63 2.67,-2.74 7.12,-10.96 8.9,-9.13 16.93,25.56 44.54,-153.34 85.52,-177.07 7.13,-75.76 40.09,-82.15 48.11,-193.5 -2.68,-2.74 -8.02,-8.22 -9.8,-5.48l-46.32 -13.69 5.34 -82.15c-2.67,-0.91 -6.24,-2.73 -7.13,-0.91 0,1.83 -4.45,-0.91 -5.34,-0.91 0,0 -3.56,-0.91 -4.46,-0.91 -17.81,-10.04 11.59,35.59 -8.01,-8.22 -5.35,-10.95 -9.8,-20.99 -0.89,-35.6 -19.6,-26.47 5.34,-7.3 -31.18,-16.43 -36.53,81.24 -79.29,142.39 -116.7,220.89z"/>
    <path class="fil30" d="M673.57 328.17l6.24 52.02 97.1 -2.74c40.09,-58.41 32.96,-103.13 102.44,-138.73 -7.12,-62.07 12.47,-66.63 -11.58,-125.96 -47.21,-16.43 -48.99,-26.47 -99.77,0 -50.78,49.29 -41.87,14.6 -61.47,94.93 -12.47,48.37 -36.52,74.84 -32.96,120.48z"/>
    <path class="fil30" d="M572.02 1203.48c25.83,27.38 111.35,84.89 151.44,83.06 51.67,8.22 57.9,20.08 113.13,12.78 3.57,-21.91 -2.67,-10.04 -8.01,-37.42 -6.24,-29.21 -1.79,-26.47 -17.82,-66.63 -24.05,-14.61 -28.51,-9.13 -51.67,-21 -11.58,-6.38 -32.96,-21.9 -46.32,-29.2 -36.52,-21 -78.39,-40.16 -111.35,-55.68 -56.12,18.25 -8.91,-25.56 -42.76,29.21 33.85,3.65 34.74,-11.87 -2.67,53.85 17.81,12.78 13.36,26.47 16.03,31.03z"/>
    <path class="fil30" d="M159.57 2186.5l30.29 19.17c0.89,-3.65 6.24,4.56 8.91,6.39l28.5 -7.3c24.95,34.68 41.87,60.24 63.25,93.09l13.36 -8.21 -18.7 -97.66c-28.51,-21.91 -22.27,-19.17 -29.4,-60.24 -24.94,26.47 -86.41,49.28 -86.41,49.28 -1.78,-3.65 -6.23,3.65 -9.8,5.48z"/>
   </g>
   <g>
    <path class="fil31" d="M689.61 1464.52c32.96,48.38 51.67,44.73 22.27,118.66l-88.19 4.56c-8.02,-39.24 -13.36,-82.14 -22.27,-115 -24.95,-91.27 -29.4,-20.99 -67.7,-70.28l-24.95 -11.87c17.82,87.63 26.73,115.92 22.27,215.41l-36.52 1.82c35.63,66.63 3.56,72.11 57.9,94.02 37.42,-0.92 -16.03,21.9 49.89,0 36.52,-11.87 1.78,-6.39 25.83,-10.04 24.95,-3.65 26.73,0.91 34.74,3.65l172.82 -53.85c-2.67,-3.65 -8.01,-6.39 -11.58,-8.22l-29.39 -13.69c-2.68,-0.91 -6.24,-1.83 -8.02,-1.83 -12.47,-4.56 2.67,21 -21.38,-10.04 -23.16,-31.03 18.71,-56.59 18.71,-56.59 68.59,-59.32 93.53,-32.85 137.18,-67.54l12.47 -14.6 3.57 -18.26 -80.18 18.26c-8.01,-33.77 4.46,-69.37 -18.7,-113.18 -22.28,1.82 -10.69,-0.91 -56.13,-12.78 0.89,4.56 2.68,9.13 3.57,11.87 31.18,91.27 24.94,36.51 8.01,129.61 -90.86,-0.92 -41.86,-21.91 -104.22,-20.09z"/>
    <path class="fil31" d="M513.23 1925.46c-13.37,35.59 -22.27,37.42 -36.53,65.71l32.07 34.69c0.89,0.91 0.89,5.47 0.89,6.39 0.89,2.74 -0.89,14.6 -1.78,16.43 0,0.91 -1.78,2.74 -1.78,3.65 -7.13,8.21 -27.62,0.91 -36.52,52.02 27.61,7.31 49.88,14.61 62.35,18.26l29.4 -35.6c0.89,-2.74 3.56,-6.39 4.46,-8.21 1.78,-2.74 8.01,-13.69 9.79,-17.34 75.72,29.2 -20.48,-28.3 25.84,11.86l15.14 14.6c1.78,1.83 2.67,6.39 4.46,9.13l13.36 -27.38 35.63 -8.21c-2.67,-1.83 -7.13,-9.13 -8.02,-6.39 -0.89,2.73 -6.23,-2.74 -6.23,-2.74 -45.43,11.86 28.5,-31.04 -9.8,7.3l42.76 -29.21c51.67,-19.17 56.12,8.22 91.75,-36.51l49 -16.43 -58.8 -14.6c-49.88,-16.43 -65.03,-30.12 -122.04,0.91l-65.92 2.74c-24.94,-25.56 -17.82,-22.82 -25.83,-58.41 -43.65,11.86 -32.07,-10.96 -43.65,17.34z"/>
   </g>
   <g>
    <path class="fil32" d="M595.18 2535.17c4.46,12.77 -60.57,-1.83 40.98,20.99 47.21,10.95 21.38,-8.22 63.25,23.73 8.02,120.48 -37.42,53.85 -78.39,68.46l-28.51 15.51c-1.78,-2.74 -6.24,3.65 -9.8,4.57 -52.56,-111.36 4.45,-62.98 -32.07,-97.67 -11.58,13.69 -23.16,59.33 -31.18,110.44l40.09 -18.25c0,21.91 2.67,45.64 4.45,50.2 24.06,73.02 0,10.04 31.18,43.81l114.92 -64.8c60.57,-40.16 -8.02,-33.77 49.88,-36.51 6.24,112.26 42.76,101.31 50.78,126.87 0,106.79 -38.31,36.51 -30.29,84.88 13.36,78.5 -2.67,41.99 -8.91,113.18l-4.45 31.95c-13.36,3.65 -6.24,9.13 -32.07,7.3 -32.07,-1.83 -2.67,5.48 -36.52,-12.78 -5.35,-55.68 -92.65,-4.56 -119.37,15.52 -4.46,3.65 -7.13,6.39 -10.69,9.13 -3.57,2.73 -8.02,6.38 -10.69,10.04l233.39 -5.48 78.39 -376.05c-31.17,-25.56 -23.16,-51.11 -37.41,-94.92 -6.24,-11.87 -2.67,5.47 -14.25,-33.77 -13.37,-45.64 -0.89,4.56 -1.79,-23.74l-220.92 27.39z"/>
    <path class="fil32" d="M1070.88 1203.48c63.25,68.46 -5.35,43.81 121.15,170.68l27.62 29.21c16.92,-5.47 23.16,-10.04 47.21,-21.9 -23.16,-41.99 -18.71,10.95 -63.25,-99.49 -2.67,-7.3 -6.24,-25.56 -8.91,-36.51l-4.45 -11.87c-27.62,-13.69 -17.82,9.13 -32.07,-27.38 -6.24,-14.6 -1.78,-28.29 0,-42.9 -1.78,-48.37 -12.47,-46.55 -24.94,-99.49 -8.91,-37.42 -16.93,-68.45 -20.49,-106.79 -7.13,-63.89 18.7,-177.98 -0.89,-213.58 -33.85,44.73 -51.67,146.04 -56.13,216.32 -6.23,93.1 16.93,165.21 15.15,243.7z"/>
   </g>
   <g>
    <path class="fil33" d="M1282 2565.29l32.96 8.21 17.82 -1.82 31.18 -100.41c30.29,3.66 18.71,13.7 42.76,-26.46 18.7,-31.04 1.78,-14.61 32.07,-35.6 19.59,-13.69 14.25,-2.74 40.08,-22.82 1.78,-28.29 0,-52.94 8.02,-82.15 18.71,-67.54 21.38,-32.86 24.05,-35.59 23.16,-23.73 0.89,-31.95 22.27,-92.19 29.4,-81.23 76.61,-140.56 61.47,-241.88 -6.24,-38.33 -12.47,-26.46 -15.14,-66.63 -2.68,-47.46 13.36,-66.62 13.36,-66.62 13.36,-37.43 27.61,-78.5 40.98,-106.8 18.7,-41.07 26.72,-82.14 32.96,-125.95 19.59,-146.95 -15.15,-81.24 43.65,-129.61 13.36,35.59 12.47,9.13 6.23,59.33l7.13 27.38c15.14,-30.12 18.71,41.98 12.47,-36.51l-60.58 -125.05 -28.5 2.74c-31.18,115.01 8.02,115.92 13.36,160.64 -90.86,86.71 -24.05,1.83 -61.47,117.75 -18.7,60.24 -25.83,73.02 -38.3,140.56 -17.82,100.4 0.89,201.71 -34.74,292.99 -67.71,175.24 -89.09,177.07 -171.93,308.5 -2.67,2.74 -8.02,12.78 -9.8,16.43 -39.2,61.16 -50.78,76.67 -62.36,161.56z"/>
    <path class="fil33" d="M358.22 2095.23c-2.67,80.32 -1.78,15.51 -17.81,52.02 27.61,22.82 -0.89,3.65 39.19,16.43 52.56,16.43 -13.36,-4.56 20.49,5.48l18.71 4.56c-17.82,20.99 -17.82,27.38 -49.89,20.08 -0.89,0 -4.45,-1.82 -5.34,-1.82l-28.51 -5.48c-1.78,75.76 40.98,132.35 101.56,142.39 65.03,10.95 -11.58,-3.65 36.52,0.91 28.51,3.65 88.19,-5.48 46.32,34.68 17.82,-23.73 8.02,-46.55 50.78,-94.01l53.45 17.34c12.47,-17.34 8.02,11.87 8.91,-24.64 0.89,-31.95 5.34,-1.83 -8.02,-31.03 1.78,-3.65 3.56,-9.13 4.45,-10.96l-8.01 -66.63 0.89 -21.9 -19.6 9.13c-9.8,5.47 -34.74,25.55 -81.96,19.16l-28.5 -9.12c-1.78,-0.92 -4.46,-3.65 -6.24,-4.57 -0.89,0 -3.56,-3.65 -4.45,-3.65 -15.15,-9.13 18.7,-37.42 -38.31,4.57 5.35,-73.94 25.84,-22.82 -8.91,-57.51 -15.14,-14.6 -2.67,20.08 -20.48,-20.99l-55.24 25.56z"/>
    <path class="fil33" d="M198.77 1773.03c104.22,62.07 -10.69,43.81 117.59,72.11 3.56,-10.96 26.72,-31.95 6.23,-84.89 62.36,-0.91 16.04,-34.68 95.32,-56.59l26.72 48.38 19.6 -110.44c-18.71,29.2 -20.49,-43.82 -20.49,61.15 12.47,-56.59 -7.12,-80.32 -38.3,-110.44l-49.89 27.38c-37.41,25.56 -64.14,86.71 -68.59,129.61 -6.24,0.91 -46.32,2.74 -46.32,2.74 -45.44,10.95 -16.93,-4.57 -41.87,20.99z"/>
   </g>
   <g>
    <path class="fil34" d="M519.46 2681.2l-15.14 87.63 41.87 -4.57c11.58,182.55 -6.24,82.15 19.6,145.13 -20.49,20.08 6.23,9.13 -35.64,11.86l3.57 9.13c40.08,2.74 28.5,31.03 29.39,80.32l-65.92 13.69 -21.38 -13.69c-35.63,6.39 -12.47,-15.51 -37.41,28.3l119.37 2.74c2.67,-3.66 7.12,-7.31 10.69,-10.04 3.56,-2.74 6.23,-5.48 10.69,-9.13 26.72,-20.08 114.02,-71.2 119.37,-15.52l-9.8 -55.68c24.94,-14.6 27.61,-20.08 58.79,-30.12l24.05 59.33c6.24,-71.19 22.27,-34.68 8.91,-113.18 -8.02,-48.37 30.29,21.91 30.29,-84.88 -8.02,-25.56 -44.54,-14.61 -50.78,-126.87 -57.9,2.74 10.69,-3.65 -49.88,36.51l-114.92 64.8c-31.18,-33.77 -7.12,29.21 -31.18,-43.81 -1.78,-4.56 -4.45,-28.29 -4.45,-50.2l-40.09 18.25z"/>
    <path class="fil34" d="M263.8 1223.56l35.63 21c32.07,23.73 1.78,-41.99 17.82,20.99 10.69,46.55 -47.22,54.76 -114.92,184.37 -65.03,-30.12 -8.02,-27.38 -48.1,-26.47 -32.96,1.83 -45.43,20.99 -49,13.69 -1.78,-3.65 -8.02,3.65 -12.47,3.65l-17.82 24.65c-42.75,94.92 -37.41,232.75 -37.41,328.58 2.67,0.92 7.13,2.74 8.91,2.74l102.44 35.6c-19.6,-43.81 -21.38,-29.21 -55.23,-66.63 25.84,-31.95 -52.56,-22.82 23.16,-22.82 -74.83,-13.69 2.68,-21.91 -58.79,-25.56 0,-4.56 1.78,-10.04 2.67,-14.6 0.89,-3.65 2.67,-9.13 3.56,-13.69l21.38 -110.44c2.68,-0.92 6.24,-0.92 8.02,-0.92l15.15 -1.82c2.67,-0.91 6.23,-0.91 8.9,-0.91 73.05,-17.35 9.8,-31.04 106.01,-90.36 41.87,-24.65 31.18,-33.78 60.58,-67.55 22.27,-26.47 54.34,-21.9 78.39,-35.59 -16.93,50.2 -43.65,40.16 29.4,85.79 1.78,0.92 5.34,3.65 6.23,4.57 1.78,0 5.35,1.82 7.13,2.73l21.38 2.74c-6.24,-73.93 4.45,-70.28 -44.54,-124.13 -18.71,-62.07 -46.33,-17.34 -43.65,-104.05 1.78,-68.46 31.18,-69.37 3.56,-128.7 -34.74,30.12 -53.45,64.81 -78.39,103.14z"/>
    <path class="fil34" d="M621.02 2154.55l8.01 66.63c-0.89,1.83 -2.67,7.31 -4.45,10.96 28.51,33.77 5.34,0.91 18.71,43.81 4.45,13.69 3.56,14.6 10.69,31.03 7.12,17.34 7.12,17.34 14.25,25.56l66.81 -10.04 -14.25 -46.55c3.56,-1.83 7.12,-6.39 8.01,-4.57l16.93 -8.21c40.98,-24.64 5.35,-20.99 97.99,-12.78 -24.94,25.56 -13.36,31.95 -25.83,55.68l33.85 4.56c-4.46,-2.74 11.58,-29.2 -47.22,12.78 69.49,6.39 101.56,14.6 165.7,2.74 -3.57,-1.83 -8.91,-7.3 -10.69,-4.56l-24.06 -17.35c-14.25,-27.38 -6.23,-15.51 -1.78,-41.07 55.23,-3.65 50.78,1.83 92.65,-19.17 7.12,-27.38 2.67,-0.91 -4.46,-18.25 -18.7,-46.55 -30.28,20.08 -7.12,-11.87 76.61,-5.47 2.67,7.3 36.52,-31.94l-333.17 6.39 130.96 -29.21c-8.91,-4.57 -16.04,-9.13 -35.64,-11.87 -3.56,-0.91 -20.49,4.57 -24.05,5.48l-168.36 1.82z"/>
    <path class="fil34" d="M254.89 597.42c23.16,22.82 8.91,26.47 36.52,4.57l6.24 7.3c27.61,-62.98 0,-81.23 81.95,-80.32 28.51,-40.16 46.33,-175.25 158.57,-366.01 -75.72,31.95 -32.07,17.34 -87.3,91.27 -27.62,37.43 -54.34,66.63 -76.61,101.32 -113.13,172.51 -73.05,156.08 -119.37,241.87z"/>
    <path class="fil34" d="M434.83 1196.18c56.13,-10.95 40.98,-13.69 87.31,14.6l-1.79 76.67c55.23,31.95 -12.47,-4.56 31.18,31.04 52.56,42.9 27.62,-37.43 93.54,80.32l21.38 0.91c29.39,4.56 2.67,1.83 2.67,26.47 40.09,5.48 12.47,-28.29 45.43,25.56 -16.03,-61.16 -2.67,-19.17 -18.71,-50.2l-49.88 -77.59 106.9 4.57c-2.68,-3.65 -5.35,-12.78 -7.13,-10.04 -1.78,1.82 -5.34,-8.22 -8.02,-10.96 -1.78,-2.73 -11.58,-17.34 -14.25,-20.99 -40.09,1.83 -125.61,-55.68 -151.44,-83.06 -32.96,-10.95 -51.67,-26.47 -69.48,-31.03 -49.89,-10.95 -49,-8.22 -67.71,23.73z"/>
   </g>
   <g>
    <path class="fil35" d="M1531.43 690.52c-17.81,32.86 -9.8,19.17 -23.16,48.38 31.18,15.52 30.29,-36.51 12.47,38.33 -5.34,20.08 -11.58,20.08 -17.81,49.29 -8.91,38.34 -8.91,62.98 15.14,86.71 24.05,-20.08 8.91,-0.91 13.36,-31.03 0.89,-3.65 0.89,-30.12 1.78,-41.07 75.72,35.59 29.4,1.82 71.27,-20.09l2.67 100.41c81.07,-10.96 32.96,-28.3 96.21,-47.47 18.71,-5.47 47.21,-7.3 64.14,-0.91 28.5,10.95 25.83,21.91 44.54,41.07 228.94,-97.66 97.99,11.87 278.83,-170.68 16.92,18.26 32.06,47.46 45.43,67.54 -1.78,-9.12 13.36,-52.93 29.39,-73.01 21.38,-26.47 3.57,-19.17 29.4,-10.04 0.89,0 4.45,2.73 5.35,2.73 45.43,21.91 -38.31,17.35 15.14,10.96l9.8 -44.73 -32.07 -62.98 -87.3 48.38c-32.96,43.81 7.13,68.45 -65.92,63.89l-18.71 -2.74c-19.6,110.44 -89.97,92.19 -108.68,94.01 -77.5,9.13 -81.95,37.43 -113.13,-57.5 -81.96,7.3 -56.12,-4.56 -122.04,-51.11 18.7,-76.67 0.89,-110.44 -56.13,-141.48l-7.12 26.47c0,2.74 0,6.39 -0.89,9.13 -5.35,68.46 14.25,95.84 -55.23,125.96 0,-111.36 5.34,-20.99 -26.73,-58.42z"/>
    <path class="fil35" d="M1824.51 1080.26l-14.25 53.85 25.83 -10.95c2.67,0 -20.49,-24.64 23.16,3.65 33.85,20.99 29.4,22.82 22.27,69.37l-57.01 109.53 -107.79 -11.87 -33.85 32.86c137.19,-21.9 33.85,25.56 130.06,31.03 95.32,5.48 76.61,-102.22 143.42,-179.8 39.2,-46.55 55.23,-62.98 22.27,-132.35 0.89,3.65 45.43,15.51 -9.8,6.39 -28.5,-4.57 -13.36,2.74 -32.07,-13.69 -32.96,-2.74 -39.19,-4.57 -69.48,13.69 -20.49,11.86 2.67,-0.92 -21.38,15.51 -12.47,9.13 -12.47,9.13 -21.38,12.78z"/>
   </g>
   <g>
    <path class="fil36" d="M93.65 1765.73c42.76,11.86 25.84,4.56 58.8,28.29l4.45 -13.69c7.13,-13.69 -12.47,-8.21 13.36,-16.43 15.15,-5.47 24.94,7.3 28.51,9.13 24.94,-25.56 -3.57,-10.04 41.87,-20.99 0,0 40.08,-1.83 46.32,-2.74 4.45,-42.9 31.18,-104.05 68.59,-129.61l49.89 -27.38c31.18,30.12 50.77,53.85 38.3,110.44 0,-104.97 1.78,-31.95 20.49,-61.15l-37.41 -164.3 -21.38 -2.74c-1.78,-0.91 -5.35,-2.73 -7.13,-2.73 -0.89,-0.92 -4.45,-3.65 -6.23,-4.57 -73.05,-45.63 -46.33,-35.59 -29.4,-85.79 -24.05,13.69 -56.12,9.12 -78.39,35.59 -29.4,33.77 -18.71,42.9 -60.58,67.55 -96.21,59.32 -32.96,73.01 -106.01,90.36 -2.67,0 -6.23,0 -8.9,0.91l-15.15 1.82c-1.78,0 -5.34,0 -8.02,0.92l-21.38 110.44c-0.89,4.56 -2.67,10.04 -3.56,13.69 -0.89,4.56 -2.67,10.04 -2.67,14.6 61.47,3.65 -16.04,11.87 58.79,25.56 -75.72,0 2.68,-9.13 -23.16,22.82z"/>
    <path class="fil36" d="M933.69 1469.09l-12.47 14.6 -30.29 48.38c-13.36,10.04 -7.12,-1.83 -23.16,20.99 2.67,2.74 4.46,8.22 6.24,10.04l27.61 22.82c36.53,3.65 17.82,-9.13 23.16,-20.08 92.65,0 24.95,-6.39 50.78,27.38 41.87,-34.68 97.99,-35.6 152.33,-38.33l37.42 -81.24 -4.46 -21.9c-10.69,16.43 -5.34,13.69 -18.71,27.38 -17.81,16.43 -3.56,3.65 -27.61,14.6 -25.83,17.34 -18.71,12.78 -37.42,41.08 -31.17,-7.31 -16.92,4.56 -16.03,-12.78 -2.67,-12.78 6.24,-26.47 -9.8,-44.73 -56.12,1.83 -43.65,2.74 -55.23,-11.86 -1.78,-1.83 -5.34,-11.87 -8.02,-15.52 -3.56,0.91 -8.01,1.83 -9.8,2.74l-44.54 16.43z"/>
    <path class="fil36" d="M1092.26 290.74c1.78,58.42 50.78,69.37 108.68,99.49 31.18,-41.98 38.3,-72.1 21.38,-130.52 -45.43,-54.76 -20.49,-51.11 -48.11,-97.66 -18.7,30.12 6.24,-10.95 -45.43,21.9l24.05 19.17c8.91,26.47 -1.78,-8.21 -3.56,20.08 -1.78,43.81 4.45,14.61 16.04,55.68 -53.45,-17.34 -40.98,6.39 -40.09,-26.47l-28.51 31.03c-0.89,-1.82 -2.67,4.57 -4.45,7.3z"/>
   </g>
   <g>
    <path class="fil37" d="M1214.3 65.3l0.89 71.19 15.15 -23.73c1.78,-53.85 58.79,-29.21 121.15,-20.99l73.93 33.77c38.31,63.89 22.27,58.41 52.56,76.67l13.36 7.3c1.79,1.83 5.35,3.65 6.24,5.48 22.27,20.08 17.82,34.68 32.07,55.67 31.18,47.47 127.39,73.02 153.22,131.44 14.25,30.12 13.36,53.85 2.67,75.76 -89.08,55.67 -54.34,-15.52 -99.77,-1.83 24.05,93.1 88.19,-1.83 170.15,37.42l3.56 -49.29c-0.89,0.92 -34.74,26.47 0,0.92l37.42 -180.72c33.85,-23.74 57.9,-55.68 94.42,-72.11 21.38,-10.04 12.47,-1.83 35.63,-15.52 58.8,-34.68 -6.23,-24.64 73.94,-51.11 73.05,-9.13 -4.45,3.65 49.89,-20.08l89.08 -30.12c19.6,-9.13 37.41,-29.21 49.89,-50.2l-321.59 -3.65 -3.56 2.74c40.98,15.51 10.69,-4.57 35.63,25.55 -1.78,3.65 -8.02,16.43 -8.91,20.08 -1.78,3.65 -2.67,7.3 -4.45,10.95l-14.26 69.37 -149.65 96.75c-59.69,-15.51 -179.06,-50.2 -211.13,-87.62 -37.41,-43.81 -8.9,-57.5 -65.03,-97.66l-83.73 -41.99 -63.25 2.74 -44.54 20.08c-0.89,0 -32.96,1.83 -40.98,2.74z"/>
    <path class="fil37" d="M1682.87 1326.7c-61.47,23.73 -16.92,-3.65 -35.63,40.16l28.5 -2.74c28.51,8.22 42.76,-10.95 79.29,72.11 15.14,32.86 27.61,80.32 31.18,98.58l97.99 -117.75c3.56,43.81 -29.4,165.21 -34.75,173.42 -16.92,14.61 -7.12,2.74 -30.28,5.48 -24.06,60.24 -73.05,90.36 -68.6,146.95 28.51,41.07 11.58,-45.64 29.4,51.11 8.91,-74.84 23.16,-44.72 -6.24,-105.87l53.45 2.73c64.14,-34.68 199.55,-492.87 195.09,-585.06 -8.02,-17.34 -12.47,-15.52 -13.36,-17.34 -14.25,-23.73 -6.24,-41.08 -1.78,-67.55 -40.98,0 -48.11,-8.21 -70.38,17.35 18.71,16.43 3.57,9.12 32.07,13.69 55.23,9.12 10.69,-2.74 9.8,-6.39 32.96,69.37 16.93,85.8 -22.27,132.35 -66.81,77.58 -48.1,185.28 -143.42,179.8 -96.21,-5.47 7.13,-52.93 -130.06,-31.03z"/>
   </g>
   <g>
    <path class="fil38" d="M909.64 1771.2c-15.14,33.78 17.82,-20.99 -26.72,27.39l-84.63 120.48c-68.59,-4.57 -83.74,2.74 -114.92,-24.65l-9.8 0 -12.47 5.48c-1.78,0.91 -8.91,3.65 -10.69,4.56 -50.77,26.47 -1.78,58.42 -1.78,59.33 57.01,-31.03 72.16,-17.34 122.04,-0.91 91.76,-28.3 396.42,-6.39 496.19,24.64 27.61,-18.25 24.94,-13.69 76.61,-12.77l-0.89 -31.04c24.05,-21.9 8.02,-1.82 17.81,-40.16 -5.34,1.83 -9.79,4.57 -14.25,6.39 -3.56,1.83 -8.02,4.56 -12.47,6.39 -19.6,10.95 -14.25,33.77 -24.05,15.52 0,-1.83 -2.67,2.73 -4.46,3.65 -47.21,-19.17 -32.96,1.82 -47.21,-52.94 38.31,-30.12 28.51,-20.99 86.41,-24.65l-9.8 -42.89c-144.31,-19.17 -182.62,-90.36 -313.57,-83.06l-70.37 87.62c6.23,-30.12 16.92,-44.72 27.61,-68.46l-68.59 20.08z"/>
    <path class="fil38" d="M698.52 3007.05c33.85,18.26 4.45,10.95 36.52,12.78 25.83,1.83 18.71,-3.65 32.07,-7.3l4.45 -31.95 -24.05 -59.33c-31.18,10.04 -33.85,15.52 -58.79,30.12l9.8 55.68z"/>
   </g>
   <g>
    <path class="fil39" d="M804.52 680.48c-3.56,41.08 6.24,7.31 -24.05,31.95l-47.21 3.65 8.91 88.54c12.47,17.34 -8.02,7.3 7.12,0l22.27 -11.87c1.79,-0.91 6.24,-4.56 9.8,-5.48 13.37,21.91 -7.12,0 13.37,21 21.37,20.08 31.17,20.08 89.97,27.38l-7.13 114.09 -100.66 -1.82c15.14,18.25 23.16,11.86 32.07,32.85l2.67 20.08c-1.78,64.81 -31.18,-24.64 0.89,17.35 18.71,23.73 -2.67,-36.51 12.47,14.6l-36.52 13.69 24.94 5.48c64.14,2.74 150.55,-46.55 208.45,-76.67 16.93,-80.32 30.29,-157.91 51.67,-237.31 24.05,-83.98 75.72,-146.96 89.08,-216.32 -24.94,0 -8.91,7.3 -23.16,-5.48 23.16,-17.34 3.57,1.83 19.6,-20.99l19.6 -48.38c-105.12,52.03 -10.69,106.79 -149.66,96.75 18.71,27.38 16.04,-28.29 2.67,19.17l-33.85 35.6c-57.9,52.94 -19.6,55.67 -65.92,57.5 -0.89,0 -4.45,0 -5.34,0 -0.89,0 -4.46,-0.91 -6.24,0l-115.81 24.64z"/>
    <path class="fil39" d="M1230.34 112.76c17.81,21.91 13.36,40.16 63.24,39.25 62.36,-2.74 -16.92,-44.73 25.84,-4.57 24.05,22.82 -2.68,-1.82 6.23,24.65 14.26,47.46 40.98,40.16 102.45,87.62 31.18,-11.86 24.94,-20.08 45.43,-34.68 -19.6,52.94 -3.56,90.36 24.05,133.26 30.29,47.46 17.82,67.54 61.47,98.57 12.47,-7.3 1.78,-58.41 26.72,19.17 45.43,-13.69 10.69,57.5 99.77,1.83 10.69,-21.91 11.58,-45.64 -2.67,-75.76 -25.83,-58.42 -122.04,-83.97 -153.22,-131.44 -14.25,-20.99 -9.8,-35.59 -32.07,-55.67 -0.89,-1.83 -4.45,-3.65 -6.24,-5.48l-13.36 -7.3c-30.29,-18.26 -14.25,-12.78 -52.56,-76.67l-73.93 -33.77c-62.36,-8.22 -119.37,-32.86 -121.15,20.99z"/>
    <path class="fil39" d="M1507.38 2954.11c9.8,44.73 -15.14,21 25.83,31.95 19.6,29.21 72.16,19.17 97.99,4.56l-97.99 2.74c41.87,-36.51 -15.14,-6.39 37.42,-22.82 0.89,-0.91 45.43,0.91 46.32,0.91 -3.56,-28.29 -8.02,-26.46 19.6,-60.24 -32.07,-17.34 -17.82,-28.29 -40.09,-59.32 -32.07,32.85 -53.45,50.2 -69.48,90.36 -12.47,-38.34 12.47,-3.65 -33.85,-34.69l14.25 46.55z"/>
   </g>
   <g>
    <path class="fil40" d="M1111.86 743.46c19.59,35.6 -6.24,149.69 0.89,213.58 3.56,38.34 11.58,69.37 20.49,106.79 12.47,52.94 23.16,51.12 24.94,99.49 32.96,-0.91 16.92,22.82 32.07,70.28l4.45 11.87 -3.56 -73.02c11.58,22.82 20.49,64.8 36.52,90.36 23.16,35.6 35.64,33.77 57.91,73.02 34.74,-0.91 7.12,-17.34 27.61,7.3 22.27,27.38 4.46,-20.08 9.8,31.03 26.72,34.69 40.98,51.12 39.2,109.53 57.9,-55.67 10.69,-201.71 -28.51,-250.09 -39.2,-48.37 -25.83,-9.13 -39.2,-82.14 -24.05,-136 26.73,-66.63 34.75,-180.73 3.56,-42.89 -1.79,-77.58 -1.79,-115 0.9,-38.34 8.02,-68.46 8.91,-110.44 -40.98,23.73 -68.59,202.63 -85.52,177.07 -1.78,-1.83 -6.23,6.39 -8.9,9.13 -18.71,-22.82 -31.18,-33.78 -23.17,-87.63l20.49 -61.15c1.79,-2.74 2.68,-5.48 4.46,-8.21 5.34,-15.52 19.6,-61.16 21.38,-65.72 14.25,-41.08 15.14,-28.3 27.61,-77.58 -88.19,47.46 -65.92,80.32 -64.14,97.66 -47.21,-19.17 -34.74,28.29 -40.08,-30.12 0.89,67.54 -6.24,45.63 -32.96,42.9l3.56 -41.99c2.67,-9.13 -5.35,-25.56 28.51,-46.55 6.23,-85.8 8.9,-25.56 -27.62,-44.72l-48.1 135.08z"/>
    <path class="fil40" d="M1543.01 1469.09c-16.92,2.74 0,-5.48 -24.94,6.39 -36.52,17.34 -1.78,-2.74 -12.47,12.78 -24.05,31.94 33.85,25.55 -35.63,26.47 1.78,-0.92 -7.13,-28.3 24.94,-0.92l-7.13 19.17 -42.76 19.17 5.35 18.25 -0.89 0 42.76 6.39 -37.42 14.61 -62.36 50.2c51.67,52.93 49.89,25.55 63.25,63.89 53.45,19.17 29.4,22.82 65.03,48.37 16.93,-34.68 22.27,-91.27 38.31,-126.87 17.81,-37.42 29.39,-68.45 46.32,-107.7 -35.63,-20.08 -15.14,-26.47 -65.03,-14.6l23.16 -44.73c14.25,24.65 9.8,0.91 -20.49,9.13z"/>
   </g>
   <g>
    <path class="fil41" d="M1200.94 390.23l41.87 16.43 16.03 -87.62c13.36,19.17 18.71,33.77 17.82,68.45 36.52,9.13 11.58,-10.04 31.18,16.43 -8.91,14.61 -4.46,24.65 0.89,35.6 19.6,43.81 -9.8,-1.82 8.01,8.22 0.9,0 4.46,0.91 4.46,0.91 0.89,0 5.34,2.74 5.34,0.91 0.89,-1.82 4.46,0 7.13,0.91l-5.34 82.15 46.32 13.69c1.78,-2.74 7.12,2.74 9.8,5.48 -8.02,111.35 -40.98,117.74 -48.11,193.5 -0.89,41.98 -8.01,72.1 -8.91,110.44 0,37.42 5.35,72.11 1.79,115 -8.02,114.1 -58.8,44.73 -34.75,180.73 13.37,73.01 0,33.77 39.2,82.14 39.2,48.38 86.41,194.42 28.51,250.09 -11.58,-35.59 -12.48,-36.51 -47.22,-58.41l17.82 143.3c-40.09,8.21 -41.87,9.12 -84.63,11.86 54.34,45.64 74.83,-23.73 106.9,21 28.51,41.07 -8.91,-9.13 0.89,21.9 44.54,0 55.23,-17.34 98.88,-31.94l-5.34 -21 0.89 0 -49.89 17.34c19.6,-23.73 15.15,-21.9 18.71,-36.51 -30.29,-62.97 9.8,-155.16 18.71,-188.02l-23.17 7.3c-12.47,22.82 -1.78,3.65 1.79,4.57 -15.15,-72.11 -50.78,-90.36 6.23,-160.65l47.22 -53.85c-2.68,-1.82 -7.13,-7.3 -8.91,-4.56l-51.67 -20.99c-6.24,-69.37 -23.16,-110.44 -20.49,-204.46 4.45,-161.55 -16.03,-150.6 36.52,-169.77l71.27 43.82 11.58 -65.72c13.36,-29.21 5.35,-15.52 23.16,-48.38 58.8,-28.29 44.54,-116.83 38.31,-136.91 -47.22,5.48 -82.85,58.42 -65.03,22.82 -25.84,57.5 -8.91,62.07 -73.05,68.46 -4.45,-6.39 -24.05,-12.78 -7.13,-72.11l8.91 -59.33c-24.94,-23.73 -40.09,-20.08 -48.1,-61.15 -4.46,-20.08 -6.24,-39.25 13.36,-45.64 52.56,-17.34 38.3,-3.65 59.68,-3.65l8.02 -1.82c53.45,-21.91 2.67,17.34 8.02,-10.96l-35.63 -71.19c-129.17,-3.65 -127.39,-37.42 -216.47,-59.33 16.92,58.42 9.8,88.54 -21.38,130.52z"/>
    <path class="fil41" d="M1733.65 680.48c55.23,103.14 35.63,2.74 103.33,126.87 59.69,-9.12 -44.54,16.43 19.6,-10.04 39.2,-15.51 3.56,3.65 60.58,0 54.34,-3.65 82.84,-42.89 104.22,-53.85l18.71 2.74c21.38,-46.55 17.81,-13.69 34.74,-74.84 8.02,-27.39 9.8,-63.9 8.02,-103.14l-50.78 -34.69c-24.94,47.46 21.38,31.95 23.16,68.46 0,10.95 -40.98,130.52 -105.11,140.56 -3.57,0.91 -8.02,2.74 -11.58,2.74 -74.83,10.04 -81.96,-3.65 -107.79,-22.82 -40.09,-30.12 -34.75,-39.25 -97.1,-41.99z"/>
    <path class="fil41" d="M643.29 654.01l9.8 12.78c26.72,4.57 24.05,8.22 40.08,21 51.67,-34.69 37.42,-22.82 38.31,-99.49l-107.79 36.51 19.6 29.2z"/>
   </g>
   <g>
    <path class="fil42" d="M719.01 478.77c11.58,60.24 15.14,52.02 -9.8,94.92l-65.92 -8.21c-8.02,-67.54 3.56,-90.36 75.72,-86.71zm-101.56 -366.92c-31.18,13.69 -63.25,84.88 -79.28,116.83 -81.06,158.81 -135.4,282.03 -151.44,482.84 26.73,-10.96 38.31,-12.78 67.7,-21 -10.69,-14.6 -10.69,-24.64 1.78,9.13l39.2 -46.55c138.97,-16.43 46.32,-9.13 147.88,0.91l-19.6 -29.2 107.79 -36.51c-0.89,76.67 13.36,64.8 -38.31,99.49 13.36,14.6 -2.67,11.86 40.09,28.29l47.21 -3.65c30.29,-24.64 20.49,9.13 24.05,-31.95 9.8,-38.33 -3.56,-16.43 13.37,-39.24 31.18,-41.99 20.49,5.47 71.26,-61.16l10.69 -14.6c1.78,-2.74 4.46,-5.48 5.35,-8.22 19.59,-28.29 -0.89,21.91 15.14,-23.73 -87.3,-20.08 -45.43,41.08 -133.62,8.22 -32.07,-11.87 -53.45,-46.55 -67.7,-62.98 -12.48,-37.42 40.08,-11.87 -27.62,-29.21 -7.13,-2.74 -61.47,0 -70.37,0 8.01,-32.86 31.17,-73.02 32.07,-75.76 9.79,-85.79 -0.9,-15.51 20.48,-45.63 -3.56,-45.64 20.49,-72.11 32.96,-120.48 19.6,-80.33 10.69,-45.64 61.47,-94.93 8.02,-31.03 -1.78,-20.99 17.82,-30.12l-89.08 -25.56c-24.95,27.39 22.27,-14.6 -25.84,20.08 -48.1,35.6 -11.58,79.41 -43.65,29.21 -1.78,-2.74 -6.23,4.56 -9.8,5.48z"/>
    <path class="fil42" d="M1360.39 1903.55l-16.03 -45.64c-57.9,3.66 -48.1,-5.47 -86.41,24.65 14.25,54.76 0,33.77 47.21,52.94 1.79,-0.92 4.46,-5.48 4.46,-3.65 9.8,18.25 4.45,-4.57 24.05,-15.52 4.45,-1.83 8.91,-4.56 12.47,-6.39 4.46,-1.82 8.91,-4.56 14.25,-6.39z"/>
   </g>
   <g>
    <path class="fil43" d="M1225.88 2237.61c-10.69,2.74 -17.82,11.87 -38.3,2.74 -46.33,-21.9 -9.8,-3.65 -25.84,-30.12 52.56,6.39 37.42,-1.82 64.14,27.38zm5.35 -107.7c10.69,-60.24 6.23,-44.72 42.76,-81.23 -4.46,27.38 0.89,18.25 -8.02,46.55 -12.47,44.72 12.47,-6.39 -14.26,23.73l-3.56 40.16 -52.56 -8.22c25.84,-20.08 5.35,-8.21 35.64,-20.99zm224.48 -424.42c-24.94,17.34 5.35,12.78 -48.99,15.51 -11.58,-20.99 -26.73,31.04 -7.13,-42.89 11.58,24.64 17.82,33.77 56.12,27.38zm-1073.43 -418.04l0 65.72c48.99,53.85 38.3,50.2 44.54,124.13l37.41 164.3 -19.6 110.44 -0.89 15.51 -18.7 150.61c-8.02,33.77 -17.82,29.2 13.36,24.64 9.8,-31.95 -4.46,-23.73 11.58,-35.6 24.05,15.52 26.72,-21.9 17.82,21.91 0,0 -8.91,27.38 -8.91,30.12 -0.89,1.82 -1.78,9.13 -1.78,8.21 -0.9,-1.82 -0.9,4.57 -1.79,6.39 11.58,47.46 -9.8,43.81 21.38,17.34 14.26,-28.29 23.16,-30.12 36.53,-65.71 61.46,-122.31 129.17,-127.79 158.56,-156.08 46.32,-42.9 30.29,-68.46 83.74,-82.15 40.09,-9.12 74.83,-2.74 126.5,-18.25 38.3,-27.38 97.09,-45.64 150.54,-65.72l8.02 70.28 8.91 -14.6c0.89,-1.83 2.67,-6.39 3.56,-8.22l11.58 -39.24c11.58,-14.61 -8.91,-41.08 94.43,-12.78 89.08,23.73 288.62,28.29 204,164.29 25.83,-9.13 11.58,-15.52 27.61,-7.3l1.78 49.29 16.93 0c5.34,-58.42 -8.91,-37.43 34.74,-67.55 16.04,12.78 10.69,0.92 24.05,20.08 17.82,24.65 5.35,45.64 -6.23,81.24l-20.49 0.91 -81.07 62.98c-10.69,-50.2 3.57,-22.82 -16.03,-32.86 4.45,-4.56 7.13,-10.95 10.69,-14.6l29.4 -22.82c-56.12,-21.91 -35.64,-42.9 -103.34,-67.54 -28.5,-10.04 -89.08,-28.3 -115.8,-35.6l-151.44 -32.86c-31.18,13.69 -169.26,54.76 -218.25,69.37 -14.26,1.82 -36.53,2.74 -49.89,8.21 -43.65,16.43 -20.49,5.48 -44.54,27.39 81.06,7.3 135.4,-4.57 208.45,-30.13l68.59 -20.08c-10.69,23.74 -21.38,38.34 -27.61,68.46l70.37 -87.62c130.95,-7.3 169.26,63.89 313.57,83.06l9.8 42.89 16.03 45.64c16.93,44.73 -1.78,67.54 32.96,56.59 0,-53.85 -3.56,-21.9 14.26,-43.81l44.54 -0.91c-4.46,97.66 -39.2,96.75 -185.29,72.1 -99.77,-31.03 -404.43,-52.94 -496.19,-24.64l58.8 14.6 -49 16.43 146.1 -4.56 165.69 -0.91c16.03,42.89 25.83,52.02 27.61,104.96l8.02 -102.23c33.85,-1.82 72.16,-13.69 91.76,3.66 29.39,26.46 5.34,73.93 5.34,73.93l-43.65 74.84c-69.48,-10.95 19.6,-14.6 -28.51,-11.86l-26.72 20.08 -28.51 -14.61 -248.53 21.91 -130.96 29.21 333.17 -6.39 42.76 4.56c23.16,50.2 16.03,17.34 21.38,70.28 -66.81,59.33 -61.47,44.73 -145.2,69.37 -64.14,11.86 -96.21,3.65 -165.7,-2.74 58.8,-41.98 42.76,-15.52 47.22,-12.78l-33.85 -4.56 -82.85 16.43 -66.81 10.04c-7.13,-8.22 -7.13,-8.22 -14.25,-25.56 -7.13,-16.43 -6.24,-17.34 -10.69,-31.03 -13.37,-42.9 9.8,-10.04 -18.71,-43.81 13.36,29.2 8.91,-0.92 8.02,31.03 -0.89,36.51 3.56,7.3 -8.91,24.64l15.14 25.56 29.4 44.73c73.94,-4.57 46.32,-39.25 115.81,-8.22 -25.84,28.3 -27.62,29.21 -68.6,51.11l6.24 35.6 21.38 1.83c8.91,-20.08 2.67,-24.65 51.67,-51.12 32.06,-17.34 39.19,-19.16 75.71,-17.34 -15.14,52.03 -12.47,76.67 -40.97,104.05l2.67 91.28c14.25,43.81 6.24,69.36 37.41,94.92 8.02,-21.9 1.79,-16.43 29.4,-17.34 -52.56,-142.39 -28.51,-139.65 12.47,-275.65l46.32 -0.91c25.84,-24.64 -36.52,-18.26 40.09,-15.52l34.74 1.83c62.36,-20.08 60.58,-69.37 120.26,-89.45l-26.72 213.58 48.99 -168.86 -40.08 175.25c-65.92,18.25 -2.67,-20.99 -59.69,20.99 22.27,40.16 27.62,34.69 81.96,42.9 40.98,-1.82 40.98,-16.43 36.52,-45.64l-38.3 13.7c35.63,-69.37 33.85,-85.8 50.77,-173.42 19.6,-98.58 0.89,-43.82 39.2,-75.76 130.06,-106.79 -8.91,-31.03 47.21,-222.71l103.34 -10.95c96.21,28.29 96.21,-186.2 124.71,-278.39 -35.63,-25.55 -11.58,-29.2 -65.03,-48.37 -13.36,-38.34 -11.58,-10.96 -63.25,-63.89l62.36 -50.2c-43.65,14.6 -54.34,31.94 -98.88,31.94 -9.8,-31.03 27.62,19.17 -0.89,-21.9 -32.07,-44.73 -52.56,24.64 -106.9,-21 42.76,-2.74 44.54,-3.65 84.63,-11.86l-17.82 -143.3c-0.89,1.82 -2.67,5.47 -3.56,7.3l-43.65 38.33 -3.56 24.65c7.12,-2.74 26.72,-9.13 30.28,-9.13l16.93 2.74c-2.67,77.58 -4.45,50.2 -18.71,70.28 -39.19,-22.82 -12.47,-24.64 -39.19,-65.72 -6.24,67.55 -8.02,102.23 -88.19,81.24 16.92,-63.9 33.85,-66.63 38.3,-146.95l-32.07 7.3 -6.23 38.33 -37.42 81.24c-54.34,2.73 -110.46,3.65 -152.33,38.33l-139.86 48.38 -172.82 53.85 -2.67 36.51c-42.76,10.95 -73.05,43.81 -102.44,75.75 -27.62,31.04 -18.71,25.56 -38.31,50.2 -28.5,32.86 -7.12,-3.65 -35.63,42.9 -13.36,-43.81 -7.13,-159.73 16.03,-201.71 24.06,33.77 16.93,42.9 72.16,44.72 -26.72,-34.68 -11.58,-9.12 -19.6,-41.98 -54.34,-21.91 -22.27,-27.39 -57.9,-94.02l-52.56 -209.01 -16.03 -63.89c121.15,26.47 174.6,16.43 195.98,83.06l23.16 -19.17c-65.92,-117.75 -40.98,-37.42 -93.54,-80.32 -43.65,-35.6 24.05,0.91 -31.18,-31.04 -24.05,26.47 32.07,19.17 -21.38,19.17 -6.23,-14.6 -0.89,-13.69 -15.14,-31.03 -20.49,-23.73 2.67,-8.22 -12.47,-1.83l8.02 39.25c-40.98,-8.21 -56.13,-11.87 -97.1,-25.56z"/>
    <path class="fil43" d="M2479.26 1062.92c0,0 -13.36,-33.77 -13.36,-34.68 -11.58,-28.3 6.24,-11.87 -16.93,-35.6 -27.61,-28.3 -40.97,-18.26 -80.17,-9.13 6.24,36.51 39.2,62.98 78.39,75.76l32.07 3.65z"/>
   </g>
   <g>
    <path class="fil44" d="M1014.76 2947.72c-5.35,-50.2 -11.58,-50.2 11.58,-88.53 24.05,-38.34 36.52,-39.25 84.63,-48.38 -6.24,119.57 -22.27,104.97 -96.21,136.91zm404.43 -1396.49l25.83 0.92c1.78,-2.74 4.46,-4.57 4.46,-8.22 0,-3.65 5.34,-5.47 8.01,-10.95l30.29 0 7.13 -19.17c-32.07,-27.38 -23.16,0 -24.94,0.92 69.48,-0.92 11.58,5.47 35.63,-26.47 -29.4,-14.61 -21.38,8.21 -7.13,-19.17 0.89,-1.83 20.49,-15.52 24.05,-19.17l20.49 19.17c30.29,-8.22 34.74,15.52 20.49,-9.13l-23.16 44.73c49.89,-11.87 29.4,-5.48 65.03,14.6 -16.93,39.25 -28.51,70.28 -46.32,107.7 -16.04,35.6 -21.38,92.19 -38.31,126.87 -28.5,92.19 -28.5,306.68 -124.71,278.39 -14.26,70.28 -15.15,116.83 -40.09,181.63 -29.4,73.93 -25.83,74.85 -99.77,104.05 5.34,91.28 0.89,149.69 -62.36,183.46 4.46,29.21 4.46,43.82 -36.52,45.64l46.32 18.26c-120.26,46.55 -16.92,-18.26 -101.55,98.57 -107.79,-34.68 -21.38,-68.45 -94.43,-122.3 36.52,-33.78 25.83,-30.13 29.4,-65.72 0.89,-18.26 1.78,-80.32 -4.46,-123.22l-34.74 -1.83 -0.89 52.03c-29.4,26.47 2.67,18.25 -21.38,64.8 -19.6,-24.64 -0.89,28.3 -17.82,-27.38 -14.25,-50.2 -3.56,20.99 0,-73.93l-46.32 0.91c-40.98,136 -65.03,133.26 -12.47,275.65 28.51,38.33 -61.47,313.07 -86.41,396.13l543.4 0c-16.93,-13.69 13.36,0.91 -32.07,-21.91 -27.61,-12.78 -10.69,-8.21 -39.19,-8.21 -45.44,0.91 -34.75,15.51 -93.54,-8.22 -72.16,9.13 -22.27,2.74 -44.54,-2.74l24.94 -18.25c0.89,-1.83 4.46,-4.56 7.13,-6.39l1.78 -197.15 24.05 -20.99c-0.89,-86.71 -5.34,-9.13 25.84,-41.99 11.58,-23.73 28.5,-49.29 34.74,-72.11 12.47,-44.72 0,-43.81 16.92,-75.75 11.58,-84.89 23.16,-100.4 62.36,-161.56 1.78,-3.65 7.13,-13.69 9.8,-16.43 82.84,-131.43 104.22,-133.26 171.93,-308.5 35.63,-91.28 16.92,-192.59 34.74,-292.99 12.47,-67.54 19.6,-80.32 38.3,-140.56 37.42,-115.92 -29.39,-31.04 61.47,-117.75 -5.34,-44.72 -44.54,-45.63 -13.36,-160.64 18.71,-43.81 -25.84,-16.43 35.63,-40.16l33.85 -32.86 107.79 11.87 57.01 -109.53c7.13,-46.55 11.58,-48.38 -22.27,-69.37 -43.65,-28.29 -20.49,-3.65 -23.16,-3.65l-25.83 10.95 -43.65 9.13c0,17.34 13.36,10.95 -30.29,7.3 -23.16,-16.43 -32.07,-26.47 -48.1,-44.72 18.7,78.49 10.69,15.52 -21.38,41.07l-82.85 -4.56c-20.49,-39.25 -24.05,-41.07 6.24,-61.15 -20.49,-38.34 -44.55,-64.81 -73.94,-120.49 -32.96,-62.98 -46.32,-87.62 -19.6,-156.07l-71.27 -43.82c-52.55,19.17 -32.07,8.22 -36.52,169.77 -2.67,94.02 14.25,135.09 20.49,204.46l51.67 20.99c1.78,-2.74 6.23,2.74 8.91,4.56l-47.22 53.85c-57.01,70.29 -21.38,88.54 -6.23,160.65 -3.57,-0.92 -14.26,18.25 -1.79,-4.57l23.17 -7.3c-8.91,32.86 -49,125.05 -18.71,188.02z"/>
    <path class="fil44" d="M2047.22 517.1c-12.48,21.91 16.92,14.61 -15.15,16.43l50.78 34.69c1.78,39.24 0,75.75 -8.02,103.14 -16.93,61.15 -13.36,28.29 -34.74,74.84 73.05,4.56 32.96,-20.08 65.92,-63.89l87.3 -48.38 32.07 62.98c16.92,-122.3 -8.02,-178.89 -18.71,-282.95l-13.36 4.57c-28.51,-26.47 -34.74,-63.89 -51.67,-93.1 -32.07,37.42 -51.67,109.53 -69.48,153.34 -12.47,32.86 0,25.55 -24.94,38.33z"/>
   </g>
   <g>
    <path class="fil45" d="M2700.18 1302.06c-37.41,-11.87 -26.72,-4.57 -48.1,-32.86 -73.05,-6.39 -153.22,-78.5 -219.14,-108.62 -40.09,-60.24 -175.49,-116.83 -216.47,-179.81l-42.76 3.65c-63.25,138.74 -49.88,9.13 -106.01,203.55 -63.24,218.14 -96.2,275.64 -173.71,472.79 -58.79,147.87 16.04,127.79 -44.54,259.22 -73.04,156.99 -29.39,-10.95 -80.17,237.31 -24.94,122.31 -28.51,179.81 -23.16,308.51 12.47,341.36 30.29,240.05 71.26,425.33 9.8,45.64 13.37,86.71 24.06,139.65 146.09,15.52 924.67,0.92 1093.03,-11.86l4.45 -1704.08c-78.39,12.77 -163.02,-4.57 -238.74,-12.78z"/>
    <path class="fil45" d="M2607.54 604.73l7.13 -53.86c32.07,-7.3 38.3,-9.12 79.28,24.65 49.88,17.34 52.56,12.78 77.5,52.02 -32.96,30.12 -108.68,57.51 -148.77,73.02 -33.85,-38.33 -8.9,-20.08 -24.94,-58.41 -212.9,124.13 -76.61,213.58 -30.29,328.58 -35.63,-17.34 -5.34,0.92 -29.39,-17.34 -49,-39.25 -85.52,-123.22 -83.74,-186.2 2.67,-92.18 72.16,-156.99 153.22,-162.46zm329.6 554.03l-4.45 -1098.03c-49,6.39 -183.51,-15.51 -245.87,-16.42 -89.08,0 -189.74,0.91 -279.71,5.47 48.1,153.34 -18.71,281.12 -76.61,386.09 -49.89,89.45 -67.71,39.25 -65.03,153.34 2.67,151.51 0.89,154.25 183.5,313.98 182.62,158.82 244.09,196.24 488.17,255.57z"/>
    <path class="fil45" d="M200.55 1249.12c19.6,-53.85 67.7,-92.19 108.68,-139.65 -24.05,-39.25 -67.7,-109.53 -82.85,-151.51 -83.73,-7.31 -97.1,-4.57 -111.35,-89.45 32.07,-31.04 40.98,-22.82 73.94,-51.12 12.47,-184.37 55.23,-311.24 134.51,-448.15 40.98,-70.28 211.13,-288.43 284.17,-311.24 16.04,-18.26 7.13,-3.65 0,-14.61 -87.3,-7.3 -189.74,-3.65 -278.82,-3.65 -46.32,0.91 -92.65,1.83 -138.97,1.83l-113.13 4.56c-45.44,10.04 -11.58,0 -32.07,10.95l-5.35 1391.93 107.79 -154.25c7.13,-9.13 16.04,-24.65 21.38,-29.21 26.72,-23.73 -6.24,-10.04 32.07,-16.43z"/>
    <path class="fil45" d="M60.69 2471.27l-23.16 -1.82 0.89 561.33 361.67 4.57c-0.89,-140.57 -41.87,-136.91 -69.48,-240.97 -24.94,-92.18 6.23,-209.01 10.69,-297.55l-280.61 -25.56z"/>
   </g>
   <path class="fil46" d="M1725.63 2651.08l12.47 45.64 21.38 118.66c16.93,104.96 28.51,106.79 0,220.88l-331.38 -0.91 29.39 -87.63 54.34 -171.59c28.51,-73.02 52.56,-155.17 91.76,-211.76 17.81,-62.98 29.39,-67.54 57.01,-111.35 18.71,-29.21 36.52,-73.93 49.89,-84.88l15.14 282.94zm824.01 -1637.45c47.21,61.16 107.79,61.16 149.65,112.27l96.21 77.58c-20.49,23.73 30.29,28.3 -32.07,16.43 -1.78,3.65 -10.69,23.73 -12.47,27.38 -32.07,44.73 -15.14,0 -50.78,54.77 75.72,8.21 160.35,25.55 238.74,12.78l-4.45 1704.08c-168.36,12.78 -946.94,27.38 -1093.03,11.86 -10.69,-52.94 -14.26,-94.01 -24.06,-139.65 -40.97,-185.28 -58.79,-83.97 -71.26,-425.33 -5.35,-128.7 -1.78,-186.2 23.16,-308.51 50.78,-248.26 7.13,-80.32 80.17,-237.31 60.58,-131.43 -14.25,-111.35 44.54,-259.22 77.51,-197.15 110.47,-254.65 173.71,-472.79 56.13,-194.42 42.76,-64.81 106.01,-203.55l17.82 -23.73 24.94 20.08c40.98,62.98 176.38,119.57 216.47,179.81 40.09,-29.2 29.4,-35.59 53.45,-18.25l-29.4 -57.5c-0.89,-7.31 -3.56,-8.22 -5.34,-12.78 40.97,22.82 43.65,36.51 56.12,-18.26l0.89 -49.28c0,-1.83 0.89,-6.39 1.78,-8.22 40.09,-67.54 18.71,-12.78 25.83,-9.13 36.53,16.43 12.48,-1.82 13.37,26.47zm-70.38 49.29l-32.07 -3.65c-39.19,-12.78 -72.15,-39.25 -78.39,-75.76 39.2,-9.13 52.56,-19.17 80.17,9.13 23.17,23.73 5.35,7.3 16.93,35.6 0,0.91 13.36,34.68 13.36,34.68zm453.43 -1002.19l4.45 1098.03c-244.08,-59.33 -305.55,-96.75 -488.17,-255.57 -182.61,-159.73 -180.83,-162.47 -183.5,-313.98 -2.68,-114.09 15.14,-63.89 65.03,-153.34 57.9,-104.97 124.71,-232.75 76.61,-386.09 89.97,-4.56 190.63,-5.47 279.71,-5.47 62.36,0.91 196.87,22.81 245.87,16.42zm-1000.39 -40.16l-449.86 6.39c-195.98,-15.51 -141.64,-0.91 -278.83,0.92l-50.78 0c-167.47,14.6 -310,-35.6 -493.51,15.51l640.5 -0.91 63.25 -2.74 114.91 3.65 390.18 -1.82 321.59 3.65c-12.48,20.99 -30.29,41.07 -49.89,50.2 -28.51,66.63 -0.89,16.43 -53.45,60.24 -25.83,20.99 -22.27,17.34 -34.74,52.94 -15.14,42.9 -31.18,101.31 -24.94,148.77 -36.53,110.45 13.36,83.98 -174.6,173.42l-27.62 13.7 124.72 -27.39c2.67,-1.82 6.23,-4.56 8.01,-6.39l38.31 -28.29c35.63,-29.21 1.78,-10.95 40.98,-36.51 -16.04,-29.21 9.79,-158.82 25.83,-204.45 12.47,-38.34 93.53,-99.49 130.06,-125.96l21.38 -70.28 155.89 1.82c11.58,13.69 16.93,-20.99 7.13,37.43 31.18,48.37 0.89,134.17 -18.71,183.46 -17.82,68.45 -22.27,65.71 -50.78,123.22 -16.92,30.12 -41.86,71.19 -57.9,98.57l-26.72 -48.37c-11.58,-23.74 0,-9.13 -16.04,-27.39 10.69,104.06 35.63,160.65 18.71,282.95l-9.8 44.73 -22.27 103.14c-18.71,77.58 -58.79,162.46 -119.37,209.93l-51.67 51.11c4.46,92.19 -130.95,550.38 -195.09,585.06 -16.03,141.48 46.33,82.15 -40.08,243.7 -66.82,125.96 -21.38,150.61 -49.89,218.15 -13.36,31.94 -6.24,13.69 -23.16,32.86 -11.58,-320.37 34.74,-287.51 36.52,-442.68 -4.45,-56.59 44.54,-86.71 68.6,-146.95 -18.71,9.13 -2.68,-8.22 -33.86,19.17 -19.59,17.34 -2.67,-3.65 -21.37,29.2 -23.17,39.25 0,31.04 -38.31,56.59 26.72,158.82 -43.65,209.02 -40.98,321.29 3.57,129.61 18.71,164.29 -24.05,302.11 1.78,-2.73 3.56,-5.47 4.45,-7.3 1.79,-0.91 4.46,-5.47 5.35,-6.39l29.4 -37.42c-15.15,45.64 -34.75,105.88 -54.34,140.56l-73.05 123.22c0.89,3.65 1.78,9.13 1.78,10.95 -5.34,68.46 -23.16,41.99 -37.41,52.03 -20.49,69.37 -53.45,118.66 -66.81,183.46 -12.48,65.72 -32.07,131.43 -63.25,193.5l-9.8 60.24 -40.98 1.83 -543.4 0c24.94,-83.06 114.92,-357.8 86.41,-396.13 -27.61,0.91 -21.38,-4.56 -29.4,17.34l-78.39 376.05 -233.39 5.48 -119.37 -2.74c-21.38,-89.45 19.6,-102.23 -32.07,-203.54 -52.56,-68.46 -53.45,-211.76 -28.51,-284.78l-4.45 -55.67c18.71,0 89.97,1.82 105.11,0 49.89,-6.39 26.73,0 53.45,-46.55 73.05,41.07 45.44,31.94 138.97,32.85 17.82,-20.99 8.91,-8.21 27.62,-24.64 2.67,-1.82 11.58,-9.13 13.36,-10.04 0.89,-0.91 4.45,-1.82 5.34,-5.48 0,-2.73 3.57,-2.73 4.46,-4.56l-6.24 -35.6c-110.46,79.41 -187.07,17.35 -282.39,-28.29 -31.18,-48.38 4.46,9.13 -55.23,-32.86 -14.25,-10.04 -42.76,-34.68 -56.12,-57.5 -29.4,-48.38 -32.96,-135.09 -13.36,-195.33l-25.83 -10.95 2.67 115.92 18.7 97.66 113.14 127.78 89.97 21c-24.94,40.16 -23.16,30.12 -73.94,24.64 -111.35,-1.83 -293.97,-8.21 -391.07,-41.99l18.71 50.2 280.61 25.56c-4.46,88.54 -35.63,205.37 -10.69,297.55 27.61,104.06 68.59,100.4 69.48,240.97l-361.67 -4.57 -0.89 -561.33c2.67,-46.55 -0.89,-71.19 4.45,-116.83l91.76 0.91c51.67,0.91 17.81,10.04 107.79,33.77 70.37,18.26 57.01,38.34 102.44,41.08l11.58 -25.56c-36.52,-62.98 -41.87,-18.26 -65.03,-104.97 -21.38,-32.85 -38.3,-58.41 -63.25,-93.09l-28.5 7.3c-12.47,14.6 -0.89,12.78 -26.73,21.9 -30.28,11.87 -79.28,-11.86 -108.68,-34.68 -31.17,-24.65 -25.83,-26.47 -31.17,-78.5l7.12 -39.24 79.28 -9.13c-2.67,-1.83 -7.12,-5.48 -8.9,-6.39l-29.4 -42.9c8.91,-19.17 -0.89,-3.65 9.8,-22.82l-0.89 -41.98c-37.42,-16.43 -24.05,-3.66 -53.45,-29.21l0.89 -84.89c-32.96,17.35 -18.71,-17.34 -26.73,21l-9.79 135.08c31.17,198.07 11.58,558.6 8.01,769.44 -1.78,68.45 -16.92,252.83 -6.23,301.2 103.33,8.22 265.46,-3.65 377.7,-4.56l2594.07 3.65 -2.68 -1542.53c-2.67,-508.39 4.46,-1020.44 -1.78,-1527.92 -154.11,-0.91 -339.4,21.91 -511.33,12.78 -62.36,-3.65 -464.11,-21.91 -525.58,8.21z"/>
   <path class="fil47" d="M9.91 1865.22c8.02,-38.34 -6.23,-3.65 26.73,-21 60.57,6.39 133.62,30.12 177.27,54.77 36.53,14.6 103.34,1.82 209.34,46.55 -34.74,56.59 0,14.6 -54.34,40.16 -1.78,0.91 -6.23,2.74 -7.12,3.65 -1.78,0.91 -5.35,3.65 -7.13,5.48 64.14,7.3 52.56,13.69 100.66,-21 0.89,-1.82 0.89,-8.21 1.79,-6.39 0,0.92 0.89,-6.39 1.78,-8.21 0,-2.74 8.91,-30.12 8.91,-30.12l-29.4 13.69c-31.18,4.56 -21.38,9.13 -13.36,-24.64l-156.79 -53.86c-70.37,10.04 -91.75,-21.9 -115.8,-70.28 -32.96,-23.73 -16.04,-16.43 -58.8,-28.29 33.85,37.42 35.63,22.82 55.23,66.63l-102.44 -35.6c-1.78,0 -6.24,-1.82 -8.91,-2.74 0,-95.83 -5.34,-233.66 37.41,-328.58l17.82 -24.65 8.02 -26.47c-17.82,-23.73 -9.8,33.78 -15.15,-29.2l35.64 -21.91c37.41,-43.81 60.57,-65.72 79.28,-114.09 -38.31,6.39 -5.35,-7.3 -32.07,16.43 -5.34,4.56 -14.25,20.08 -21.38,29.21l-107.79 154.25 5.35 -1391.93c20.49,-10.95 -13.37,-0.91 32.07,-10.95l113.13 -4.56c46.32,0 92.65,-0.92 138.97,-1.83 89.08,0 191.52,-3.65 278.82,3.65 7.13,10.96 16.04,-3.65 0,14.61 54.34,-3.65 3.57,-5.48 22.27,28.29l29.4 -42.9c183.51,-51.11 326.04,-0.91 493.51,-15.51l50.78 0c137.19,-1.83 82.85,-16.43 278.83,-0.92l449.86 -6.39c-74.83,-24.64 -1735.31,-18.25 -1921.49,-4.56l-0.9 1849.21z"/>
   <path class="fil48" d="M370.7 1088.48c22.27,4.56 24.05,-21 8.9,22.82 -23.16,-17.35 -8.01,10.95 -8.9,-22.82zm8.9 -559.51l-16.92 132.35c-18.71,107.7 26.72,265.6 89.97,317.63 -11.58,22.82 9.8,10.04 -17.82,22.82l-41.86 76.67c-37.42,-17.35 -20.49,-7.31 -52.56,-32.86 -30.29,-23.73 -28.51,-23.73 -29.4,-40.16 15.15,38.33 34.74,29.21 59.69,83.06 -49,-28.3 -32.96,-22.82 -63.25,-59.33 -22.27,-26.47 -22.27,-15.52 -25.84,-34.68 -12.47,-72.11 16.04,-41.08 17.82,-43.82l-26.72 -186.19 9.8 206.27c-40.98,-24.64 -16.04,-9.12 -47.22,-71.19 -19.6,34.68 -1.78,9.13 -32.07,20.08 -45.43,0.91 -42.76,-5.48 -60.57,-38.33 23.16,-21.91 20.49,-19.17 56.12,-23.74 12.47,-32.85 20.49,-78.49 26.72,-125.04l24.05 -3.65 -13.36 -39.25c0,0 3.57,-30.12 3.57,-33.77 2.67,-12.78 11.58,-40.16 15.14,-58.42 46.32,-85.79 6.24,-69.36 119.37,-241.87 22.27,-34.69 48.99,-63.89 76.61,-101.32 55.23,-73.93 11.58,-59.32 87.3,-91.27 -112.24,190.76 -130.06,325.85 -158.57,366.01zm-179.05 720.15c3.56,-0.91 8.91,-7.3 9.8,-3.65 3.56,5.47 24.05,-20.08 53.45,-21.91 24.94,-38.33 43.65,-73.02 78.39,-103.14 27.62,59.33 -1.78,60.24 -3.56,128.7 -2.68,86.71 24.94,41.98 43.65,104.05l0 -65.72c-14.26,-33.77 -15.15,-52.94 -5.35,-112.26l25.84 28.29c22.27,25.56 -12.48,-8.21 12.47,14.61l-3.57 -14.61c-1.78,-85.8 2.68,-160.64 69.49,-204.45l25.83 15.52 64.14 21.9c37.41,-13.69 42.76,-1.82 -58.79,-60.24l-36.53 -21.91c-17.81,-18.25 -22.27,-20.99 -32.96,-33.77 -15.14,-19.16 -24.05,-35.59 -32.07,-56.59 -12.47,-36.51 -28.5,-109.52 -24.05,-152.42 16.04,-200.81 70.38,-324.03 151.44,-482.84 16.03,-31.95 48.1,-103.14 79.28,-116.83l12.47 -25.56c-18.7,-33.77 32.07,-31.94 -22.27,-28.29 -73.04,22.81 -243.19,240.96 -284.17,311.24 -79.28,136.91 -122.04,263.78 -134.51,448.15 -32.96,28.3 -41.87,20.08 -73.94,51.12 14.25,84.88 27.62,82.14 111.35,89.45 15.15,41.98 58.8,112.26 82.85,151.51 -40.98,47.46 -89.08,85.8 -108.68,139.65z"/>
   <path class="fil49" d="M1531.43 690.52c32.07,37.43 26.73,-52.94 26.73,58.42 69.48,-30.12 49.88,-57.5 55.23,-125.96 0.89,-2.74 0.89,-6.39 0.89,-9.13l7.12 -26.47c57.02,31.04 74.83,64.81 56.13,141.48 65.92,46.55 40.08,58.41 122.04,51.11 31.18,94.93 35.63,66.63 113.13,57.5 18.71,-1.82 89.08,16.43 108.68,-94.01 -21.38,10.96 -49.88,50.2 -104.22,53.85 -57.02,3.65 -21.38,-15.51 -60.58,0 -64.14,26.47 40.09,0.92 -19.6,10.04 -67.7,-124.13 -48.1,-23.73 -103.33,-126.87l-7.13 -52.94 18.71 -78.49 59.68 0 -13.36 -22.82 -35.63 -12.78c-81.96,-39.25 -146.1,55.68 -170.15,-37.42 -24.94,-77.58 -14.25,-26.47 -26.72,-19.17l8.01 63.89c-25.83,-50.2 -45.43,-106.79 -92.64,-130.52 -5.35,28.3 45.43,-10.95 -8.02,10.96l-8.02 1.82c-21.38,0 -7.12,-13.69 -59.68,3.65 -19.6,6.39 -17.82,25.56 -13.36,45.64 8.01,41.07 23.16,37.42 48.1,61.15l-8.91 59.33c-16.92,59.33 2.68,65.72 7.13,72.11 64.14,-6.39 47.21,-10.96 73.05,-68.46 -17.82,35.6 17.81,-17.34 65.03,-22.82 6.23,20.08 20.49,108.62 -38.31,136.91z"/>
   <path class="fil50" d="M629.92 86.29l-12.47 25.56c3.57,-0.92 8.02,-8.22 9.8,-5.48 32.07,50.2 -4.45,6.39 43.65,-29.21 48.11,-34.68 0.89,7.31 25.84,-20.08l89.08 25.56c-19.6,9.13 -9.8,-0.91 -17.82,30.12 50.78,-26.47 52.56,-16.43 99.77,0 24.05,59.33 4.46,63.89 11.58,125.96l-52.56 214.49c-16.03,29.21 -20.48,31.03 -54.34,40.16l-16.03 -43.81c-32.07,-91.27 -24.94,-26.47 -60.58,-36.51 -60.57,-15.52 -25.83,15.52 -42.75,-39.25 -0.9,2.74 -24.06,42.9 -32.07,75.76 8.9,0 63.24,-2.74 70.37,0 67.7,17.34 15.14,-8.21 27.62,29.21 14.25,16.43 35.63,51.11 67.7,62.98 88.19,32.86 46.32,-28.3 133.62,-8.22 22.27,-41.07 39.2,-0.91 47.21,-71.19 5.35,-45.64 -33.85,-141.48 -34.74,-145.13 -11.58,-68.45 22.27,-16.43 8.02,-83.97 -1.78,-9.13 -11.58,-10.04 -13.36,-60.24 -24.05,-124.13 -32.96,-20.99 -49.89,-97.66 70.38,-20.99 219.14,-3.65 293.97,-0.91l42.76 -9.13c8.02,-0.91 40.09,-2.74 40.98,-2.74l44.54 -20.08 -640.5 0.91 -29.4 42.9z"/>
   <path class="fil51" d="M1518.07 913.23c19.6,46.55 36.52,73.02 66.81,112.27l65.03 -20.08c15.14,-2.74 16.93,-2.74 32.07,-4.57 105.12,-10.95 64.14,-16.43 126.5,-29.2 -29.4,-31.04 32.96,-21.91 -36.53,-26.47 -10.69,-12.78 -2.67,-6.39 -2.67,-6.39 0,-0.91 2.67,-3.65 4.45,-7.3 46.33,52.02 68.6,-7.31 144.32,-25.56 153.22,-37.42 87.3,-74.85 146.98,-56.59l69.49 4.56c18.7,-5.47 32.96,-12.77 40.08,-36.51 -15.14,72.11 -6.23,7.31 18.71,27.39l22.27 -103.14c-53.45,6.39 30.29,10.95 -15.14,-10.96 -0.9,0 -4.46,-2.73 -5.35,-2.73 -25.83,-9.13 -8.02,-16.43 -29.4,10.04 -16.03,20.08 -31.17,63.89 -29.39,73.01 -13.37,-20.08 -28.51,-49.28 -45.43,-67.54 -180.84,182.55 -49.89,73.02 -278.83,170.68 -18.71,-19.16 -16.04,-30.12 -44.54,-41.07 -16.93,-6.39 -45.43,-4.56 -64.14,0.91 -63.25,19.17 -15.14,36.51 -96.21,47.47l-2.67 -100.41c-41.87,21.91 4.45,55.68 -71.27,20.09 -0.89,10.95 -0.89,37.42 -1.78,41.07 -4.45,30.12 10.69,10.95 -13.36,31.03z"/>
   <path class="fil52" d="M354.66 1994.83c-25.83,65.71 -1.78,38.33 -25.83,80.32 0,31.03 7.12,26.47 -20.49,11.86 -19.6,60.24 -16.04,146.95 13.36,195.33 13.36,22.82 41.87,47.46 56.12,57.5 59.69,41.99 24.05,-15.52 55.23,32.86 14.26,-15.52 -40.08,-58.42 59.69,-13.69 57.01,25.55 -49.89,-30.12 24.94,19.17 20.49,12.77 -16.92,1.82 26.73,15.51 31.17,-40.16 26.72,-48.37 69.48,-69.37l24.94 -10.95 -15.14 -25.56 -53.45 -17.34c-42.76,47.46 -32.96,70.28 -50.78,94.01 41.87,-40.16 -17.81,-31.03 -46.32,-34.68 -48.1,-4.56 28.51,10.04 -36.52,-0.91 -60.58,-10.04 -103.34,-66.63 -101.56,-142.39l28.51 5.48c0.89,0 4.45,1.82 5.34,1.82 32.07,7.3 32.07,0.91 49.89,-20.08l-18.71 -4.56c-33.85,-10.04 32.07,10.95 -20.49,-5.48 -40.08,-12.78 -11.58,6.39 -39.19,-16.43 16.03,-36.51 15.14,28.3 17.81,-52.02l-26.72 14.6c15.14,-44.72 56.12,-47.46 108.68,-67.54l-26.72 27.38c17.81,41.07 5.34,6.39 20.48,20.99 34.75,34.69 14.26,-16.43 8.91,57.51 57.01,-41.99 23.16,-13.7 38.31,-4.57 0.89,0 3.56,3.65 4.45,3.65 1.78,0.92 4.46,3.65 6.24,4.57l28.5 9.12c47.22,6.39 72.16,-13.69 81.96,-19.16l19.6 -9.13c20.49,-10.95 14.25,47.46 14.25,-10.95 -18.71,-10.96 -15.14,19.16 -15.14,-24.65 -1.79,-2.74 -2.68,-7.3 -4.46,-9.13l-15.14 -14.6c-46.32,-40.16 49.88,17.34 -25.84,-11.86 -1.78,3.65 -8.01,14.6 -9.79,17.34 -0.9,1.82 -3.57,5.47 -4.46,8.21l-29.4 35.6c-12.47,-3.65 -34.74,-10.95 -62.35,-18.26 8.9,-51.11 29.39,-43.81 36.52,-52.02 0,-0.91 1.78,-2.74 1.78,-3.65 0.89,-1.83 2.67,-13.69 1.78,-16.43 0,-0.92 0,-5.48 -0.89,-6.39l-32.07 -34.69c-31.18,26.47 -9.8,30.12 -21.38,-17.34 -48.1,34.69 -36.52,28.3 -100.66,21z"/>
   <path class="fil53" d="M927.46 173c48.99,9.13 41.87,9.13 73.04,36.51 35.64,31.95 23.17,11.87 42.76,63.89l49 17.34c1.78,-2.73 3.56,-9.12 4.45,-7.3l28.51 -31.03c-0.89,32.86 -13.36,9.13 40.09,26.47 -11.59,-41.07 -17.82,-11.87 -16.04,-55.68 1.78,-28.29 12.47,6.39 3.56,-20.08l-24.05 -19.17c51.67,-32.85 26.73,8.22 45.43,-21.9l-2.67 -87.62c-74.83,-2.74 -223.59,-20.08 -293.97,0.91 16.93,76.67 25.84,-26.47 49.89,97.66z"/>
   <path class="fil54" d="M1083.35 322.69c21.38,33.77 24.05,38.34 58.79,62.07 11.58,8.21 23.17,14.6 38.31,23.73l42.76 29.21 -60.58 83.97c-13.36,69.36 -65.03,132.34 -89.08,216.32 -21.38,79.4 -34.74,156.99 -51.67,237.31 -57.9,30.12 -144.31,79.41 -208.45,76.67 25.84,35.59 -41.87,29.21 57.01,18.25 48.11,-5.47 89.09,-58.41 156.79,-70.28 -1.78,56.59 8.91,112.27 -8.02,152.43l-6.23 0.91c73.93,-12.78 14.25,-11.86 38.3,31.95 -21.38,-17.34 -7.13,-21 15.14,34.68l4.46 -16.43c1.78,-78.49 -21.38,-150.6 -15.15,-243.7 4.46,-70.28 22.28,-171.59 56.13,-216.32l48.1 -135.08c37.41,-78.5 80.17,-139.65 116.7,-220.89 0.89,-34.68 -4.46,-49.28 -17.82,-68.45l-16.03 87.62 -41.87 -16.43c-57.9,-30.12 -106.9,-41.07 -108.68,-99.49l-49 -17.34c25.84,26.47 20.49,21 40.09,49.29z"/>
   <path class="fil55" d="M1332.78 2571.68l-17.82 1.82c-13.36,30.12 -25.83,59.33 -40.08,90.36 -0.89,1.83 -24.06,40.16 -24.06,40.16 -28.5,37.42 -10.69,40.16 -20.48,9.13 -31.18,32.86 -26.73,-44.72 -25.84,41.99l-24.05 20.99 -1.78 197.15c-2.67,1.83 -6.24,4.56 -7.13,6.39l-24.94 18.25c22.27,5.48 -27.62,11.87 44.54,2.74 40.09,39.25 -24.05,-131.43 100.66,-204.45 14.25,-20.08 14.25,-31.95 25.84,-51.11 1.78,-3.66 8.01,-11.87 9.79,-15.52l24.06 -38.34c5.34,-10.04 11.58,-23.73 16.92,-34.68 0.89,-0.91 14.26,-20.99 15.15,-22.82 16.03,-24.64 16.03,-21.9 25.83,-47.46 -6.24,-93.1 31.18,-41.99 12.47,-102.23 -2.67,1.83 -7.13,4.57 -9.8,6.39 -99.77,68.46 -26.72,74.85 -90.86,145.13l11.58 -63.89z"/>
   <path class="fil56" d="M1883.3 341.86c-19.59,59.33 -2.67,62.06 -40.08,101.31 -37.42,40.16 -40.98,12.78 -51.67,83.06l13.36 22.82 19.6 -4.56 27.62 -13.7c187.96,-89.44 138.07,-62.97 174.6,-173.42 -25.84,-28.29 -24.95,-51.11 -26.73,-84.88 -13.36,-6.39 -8.02,14.6 -46.32,-26.47 -20.49,68.46 -31.18,62.98 -70.38,95.84z"/>
   <path class="fil57" d="M728.8 831.08c-73.04,151.52 -32.96,52.03 -12.47,164.3 -15.14,10.04 34.75,18.25 -30.28,5.47 16.03,18.26 -7.13,3.66 21.38,16.43 19.59,9.13 7.12,2.74 28.5,10.04 37.42,11.87 24.94,3.65 52.56,19.17l36.52 -13.69c-15.14,-51.11 6.24,9.13 -12.47,-14.6 -32.07,-41.99 -2.67,47.46 -0.89,-17.35l-2.67 -20.08c-8.91,-20.99 -16.93,-14.6 -32.07,-32.85l100.66 1.82 7.13 -114.09c-58.8,-7.3 -68.6,-7.3 -89.97,-27.38 -20.49,-21 0,0.91 -13.37,-21 -3.56,0.92 -8.01,4.57 -9.8,5.48l-22.27 11.87c-15.14,7.3 5.35,17.34 -7.12,0l-13.37 26.46z"/>
   <path class="fil58" d="M1748.79 2866.49c10.69,51.11 8.02,33.77 -25.83,79.41 -59.69,-29.21 -9.8,-51.12 -76.61,-73.93l-9.8 39.24c-27.62,33.78 -23.16,31.95 -19.6,60.24 -0.89,0 -45.43,-1.82 -46.32,-0.91 -52.56,16.43 4.45,-13.69 -37.42,22.82l97.99 -2.74c-25.83,14.61 -78.39,24.65 -97.99,-4.56 -40.97,-10.95 -16.03,12.78 -25.83,-31.95 -28.51,17.34 -12.47,-17.34 -24.94,17.34 -1.79,-3.65 -24.95,-23.73 -24.95,-23.73l-29.39 87.63 331.38 0.91c28.51,-114.09 16.93,-115.92 0,-220.88 -15.14,21.9 -9.8,11.86 -10.69,51.11z"/>
   <path class="fil59" d="M2607.54 604.73c-81.06,5.47 -150.55,70.28 -153.22,162.46 -1.78,62.98 34.74,146.95 83.74,186.2 24.05,18.26 -6.24,0 29.39,17.34 -46.32,-115 -182.61,-204.45 30.29,-328.58 16.04,38.33 -8.91,20.08 24.94,58.41 40.09,-15.51 115.81,-42.9 148.77,-73.02 -24.94,-39.24 -27.62,-34.68 -77.5,-52.02 2.67,47.46 24.94,2.74 -9.8,31.94 -11.58,-0.91 -35.63,-8.21 -76.61,-2.73z"/>
   <path class="fil60" d="M613.89 761.72c28.51,32.86 42.76,-44.73 18.71,42.9 -39.2,31.94 3.56,36.51 -74.83,51.11 -51.67,-23.73 -14.26,-21.91 -68.6,-35.6 37.42,119.57 181.73,94.93 239.63,10.95l13.37 -26.46 -8.91 -88.54c-42.76,-16.43 -26.73,-13.69 -40.09,-28.29 -16.03,-12.78 -13.36,-16.43 -40.08,-21 -2.68,2.74 -16.04,21 -18.71,22.82 -26.73,24.64 29.4,-8.21 -27.62,17.34 11.58,12.78 1.78,4.57 19.6,16.43 0.89,0 24.05,9.13 24.94,9.13 -50.77,10.95 -29.39,-11.87 -37.41,29.21z"/>
   <path class="fil61" d="M1750.57 1742.91c-1.78,155.17 -48.1,122.31 -36.52,442.68 16.92,-19.17 9.8,-0.92 23.16,-32.86 28.51,-67.54 -16.93,-92.19 49.89,-218.15 86.41,-161.55 24.05,-102.22 40.08,-243.7l-53.45 -2.73c29.4,61.15 15.15,31.03 6.24,105.87 -17.82,-96.75 -0.89,-10.04 -29.4,-51.11z"/>
   <path class="fil62" d="M200.55 1249.12c-18.71,48.37 -41.87,70.28 -79.28,114.09l-20.49 51.11 -8.02 26.47c4.45,0 10.69,-7.3 12.47,-3.65 3.57,7.3 16.04,-11.86 49,-13.69 40.08,-0.91 -16.93,-3.65 48.1,26.47 67.7,-129.61 125.61,-137.82 114.92,-184.37 -16.04,-62.98 14.25,2.74 -17.82,-20.99l-35.63 -21c-29.4,1.83 -49.89,27.38 -53.45,21.91 -0.89,-3.65 -6.24,2.74 -9.8,3.65z"/>
   <path class="fil63" d="M920.33 533.53l54.34 4.57c48.1,-101.32 29.4,-66.63 24.94,-189.85l50.78 -12.78c4.45,-0.91 8.02,-2.74 11.58,-3.65l21.38 -9.13c-19.6,-28.29 -14.25,-22.82 -40.09,-49.29 -19.59,-52.02 -7.12,-31.94 -42.76,-63.89 -31.17,-27.38 -24.05,-27.38 -73.04,-36.51 1.78,50.2 11.58,51.11 13.36,60.24 14.25,67.54 -19.6,15.52 -8.02,83.97 0.89,3.65 40.09,99.49 34.74,145.13 -8.01,70.28 -24.94,30.12 -47.21,71.19z"/>
   <path class="fil64" d="M1603.59 2564.37c6.23,46.55 -4.46,38.34 0.89,88.54 21.38,18.25 20.49,7.3 30.29,44.72l15.14 -51.11c45.43,12.78 59.69,-21.91 41.87,40.16 8.02,-46.55 2.67,-22.82 33.85,-35.6l-15.14 -282.94c-13.37,10.95 -31.18,55.67 -49.89,84.88 -27.62,43.81 -39.2,48.37 -57.01,111.35z"/>
   <path class="fil65" d="M1372.87 2811.73c2.67,37.42 -1.79,51.11 -21.38,89.44l-72.16 71.2c4.45,-75.76 5.35,-61.16 42.76,-113.18 -33.85,14.6 -32.07,-16.43 -61.47,90.36 -33.85,-33.77 -14.25,39.25 -26.72,-13.69 -0.89,-1.83 -3.56,0 -5.35,-0.91 39.2,-72.11 37.42,-46.55 63.25,-138.74 -124.71,73.02 -60.57,243.7 -100.66,204.45 58.79,23.73 48.1,9.13 93.54,8.22 28.5,0 11.58,-4.57 39.19,8.21 45.43,22.82 15.14,8.22 32.07,21.91l40.98 -1.83 9.8 -60.24c-39.2,12.78 -30.29,4.56 -52.56,30.12 -23.16,-37.42 4.45,-6.39 -34.74,-31.94 53.45,0 32.07,36.51 65.92,-84.89 31.18,-115 33.85,-91.27 7.12,-104.96l-19.59 26.47z"/>
   <path class="fil66" d="M37.53 2469.45l23.16 1.82 -18.71 -50.2c97.1,33.78 279.72,40.16 391.07,41.99l-47.21 -2.74c-58.79,-27.38 -24.05,-10.95 -41.87,-31.94 -45.43,-2.74 -32.07,-22.82 -102.44,-41.08 -89.98,-23.73 -56.12,-32.86 -107.79,-33.77l-91.76 -0.91c-5.34,45.64 -1.78,70.28 -4.45,116.83z"/>
   <path class="fil67" d="M1949.23 517.1c0,0 146.09,107.71 16.03,179.81 -39.2,21.91 -55.23,7.3 -87.3,-8.21l-104.23 -35.6c21.38,-55.68 -8.9,-18.25 36.53,-42.9 33.85,-18.25 38.3,1.83 40.08,2.74 -48.99,-8.21 -80.17,10.95 -123.82,14.6l7.13 52.94c62.35,2.74 57.01,11.87 97.1,41.99 25.83,19.17 32.96,32.86 107.79,22.82 3.56,0 8.01,-1.83 11.58,-2.74 64.13,-10.04 105.11,-129.61 105.11,-140.56 -1.78,-36.51 -48.1,-21 -23.16,-68.46 32.07,-1.82 2.67,5.48 15.15,-16.43 -40.98,-36.51 -11.59,5.48 -17.82,-40.16 0,-3.65 6.23,-27.38 7.13,-31.03 -39.2,25.56 -5.35,7.3 -40.98,36.51l-38.31 28.29c-1.78,1.83 -5.34,4.57 -8.01,6.39z"/>
   <path class="fil68" d="M411.67 1203.48l23.16 -7.3c18.71,-31.95 17.82,-34.68 67.71,-23.73 17.81,4.56 36.52,20.08 69.48,31.03 -2.67,-4.56 1.78,-18.25 -16.03,-31.03 37.41,-65.72 36.52,-50.2 2.67,-53.85 33.85,-54.77 -13.36,-10.96 42.76,-29.21 -20.49,-6.39 -36.53,-11.87 -56.12,-20.08 -32.07,-11.87 -29.4,-15.52 -61.47,-26.47 23.16,-41.07 -3.56,-25.56 23.16,-28.29l-25.83 -15.52c-66.81,43.81 -71.27,118.65 -69.49,204.45z"/>
   <path class="fil69" d="M2187.96 359.2l62.36 -31.03c1.78,0 24.05,-4.57 31.18,-5.48 -9.8,17.34 -8.02,20.08 13.36,52.94l12.47 15.52c28.51,-57.51 32.96,-54.77 50.78,-123.22 -44.54,-52.94 26.73,-72.11 -14.25,-127.79 -41.87,98.58 -135.41,62.07 -155.9,219.06z"/>
   <path class="fil70" d="M2192.42 115.5c-5.35,69.37 -6.24,32.86 -37.42,77.58 -15.14,21.91 -0.89,23.73 -14.25,94.93 39.2,-22.82 78.39,-52.94 61.47,-102.23l5.34 17.34c9.8,-12.78 59.69,-8.21 70.38,-58.41 11.58,-55.68 -25.84,-9.13 17.81,-72.11l81.07 11.87c9.8,-58.42 4.45,-23.74 -7.13,-37.43l-155.89 -1.82 -21.38 70.28z"/>
   <path class="fil71" d="M1584.88 1025.5c9.8,10.95 14.25,17.34 26.73,30.12 6.23,6.39 15.14,13.69 19.59,19.17 19.6,27.38 2.68,-4.57 10.69,25.55 10.69,43.81 -21.38,0.92 24.95,46.55 32.07,-25.55 40.08,37.42 21.38,-41.07 16.03,18.25 24.94,28.29 48.1,44.72 -0.89,-39.24 28.51,-150.6 12.47,-118.65 59.69,-10.96 23.16,-8.22 75.72,-29.21 -2.67,-6.39 -3.56,-22.82 -5.34,-18.26 0,3.66 -5.35,-6.38 -10.69,-12.77 -62.36,12.77 -21.38,18.25 -126.5,29.2 -15.14,1.83 -16.93,1.83 -32.07,4.57l-65.03 20.08z"/>
   <path class="fil72" d="M673.57 328.17c-21.38,30.12 -10.69,-40.16 -20.48,45.63 16.92,54.77 -17.82,23.73 42.75,39.25 35.64,10.04 28.51,-54.76 60.58,36.51l16.03 43.81c33.86,-9.13 38.31,-10.95 54.34,-40.16l52.56 -214.49c-69.48,35.6 -62.35,80.32 -102.44,138.73l-97.1 2.74 -6.24 -52.02z"/>
   <path class="fil73" d="M669.12 1426.19l-11.58 37.42 32.07 0.91c62.36,-1.82 13.36,19.17 104.22,20.09 16.93,-93.1 23.17,-38.34 -8.01,-129.61 -0.89,-2.74 -2.68,-7.31 -3.57,-11.87l-29.39 -14.6 -106.9 -4.57 49.88 77.59c16.04,31.03 2.68,-10.96 18.71,50.2 -32.96,-53.85 -5.34,-20.08 -45.43,-25.56z"/>
   <path class="fil74" d="M490.96 2684.86l-24.06 84.88c-14.25,138.74 38.31,115 8.91,240.96l21.38 13.69 -6.23 -33.77c40.97,-2.74 6.23,12.78 32.96,-30.12 26.72,-2.74 2.67,4.57 9.8,-30.12l-3.57 -9.13c0,-3.65 -4.45,-36.51 -4.45,-36.51 -0.89,-3.65 -1.78,-7.3 -3.56,-10.95 -17.82,-57.5 -22.28,-32.86 -17.82,-104.96l15.14 -87.63c8.02,-51.11 19.6,-96.75 31.18,-110.44l4.46 -25.55 -4.46 1.82c-28.5,31.95 -48.1,88.54 -59.68,137.83z"/>
   <path class="fil75" d="M689.61 1464.52l-32.07 -0.91 11.58 -37.42 -16.03 14.6c-41.87,-18.25 -71.27,-27.38 -119.37,-38.33 38.3,49.29 42.75,-20.99 67.7,70.28 8.91,32.86 14.25,75.76 22.27,115l88.19 -4.56c29.4,-73.93 10.69,-70.28 -22.27,-118.66z"/>
   <path class="fil76" d="M2647.63 1183.4l24.94 -15.51c26.72,14.6 79.28,41.07 90.86,52.02 62.36,11.87 11.58,7.3 32.07,-16.43l-96.21 -77.58c-41.86,-51.11 -102.44,-51.11 -149.65,-112.27l25.83 79.41c0.89,2.74 -2.67,24.64 -3.56,29.21 71.26,28.29 0.89,5.47 75.72,61.15z"/>
   <path class="fil77" d="M192.53 1932.76c54.34,12.78 62.36,8.21 114.92,-3.65 -11.58,34.68 -12.47,12.78 0,45.64l7.12 21.9c-22.27,20.08 -29.39,27.38 -43.65,54.77 24.06,10.95 55.24,-26.47 11.59,24.64l25.83 10.95c27.61,14.61 20.49,19.17 20.49,-11.86 -30.29,-25.56 -12.47,16.43 -13.36,-29.21 0,-2.74 6.23,-34.69 6.23,-47.46 15.14,-17.35 3.56,-1.83 32.96,-3.65 1.78,-1.83 5.35,-4.57 7.13,-5.48 0.89,-0.91 5.34,-2.74 7.12,-3.65 54.34,-25.56 19.6,16.43 54.34,-40.16 -106,-44.73 -172.81,-31.95 -209.34,-46.55 -38.3,15.51 -49.88,-26.47 -21.38,33.77z"/>
   <path class="fil78" d="M2647.63 1183.4c-52.56,-5.47 -19.6,-22.82 -45.44,5.48 -16.92,18.25 -3.56,54.76 74.83,65.72l-24.94 14.6c21.38,28.29 10.69,20.99 48.1,32.86 35.64,-54.77 18.71,-10.04 50.78,-54.77 1.78,-3.65 10.69,-23.73 12.47,-27.38 -11.58,-10.95 -64.14,-37.42 -90.86,-52.02l-24.94 15.51z"/>
   <path class="fil79" d="M1604.48 2652.91l-7.13 66.63c92.65,-4.56 45.43,49.29 114.03,62.98 13.36,-54.77 -16.93,-35.6 26.72,-85.8l-12.47 -45.64c-31.18,12.78 -25.83,-10.95 -33.85,35.6 17.82,-62.07 3.56,-27.38 -41.87,-40.16l-15.14 51.11c-9.8,-37.42 -8.91,-26.47 -30.29,-44.72z"/>
   <path class="fil80" d="M316.36 1845.14c81.95,-5.48 54.34,1.82 79.28,-22.82l11.58 -10.95c23.16,-21.91 10.69,-6.39 36.52,-43.82l0.89 -15.51 -26.72 -48.38c-79.28,21.91 -32.96,55.68 -95.32,56.59 20.49,52.94 -2.67,73.93 -6.23,84.89z"/>
   <path class="fil81" d="M441.96 1398.81c28.51,-8.22 26.73,-5.48 66.81,-8.22l24.95 11.87c48.1,10.95 77.5,20.08 119.37,38.33l16.03 -14.6c0,-24.64 26.72,-21.91 -2.67,-26.47l-21.38 -0.91 -23.16 19.17c-21.38,-66.63 -74.83,-56.59 -195.98,-83.06l16.03 63.89z"/>
   <path class="fil82" d="M35.75 1929.11c92.64,-6.39 28.5,0.91 97.99,-36.51 11.58,66.63 62.36,31.03 31.18,58.41l27.61 -18.25c-28.5,-60.24 -16.92,-18.26 21.38,-33.77 -43.65,-24.65 -116.7,-48.38 -177.27,-54.77l-0.89 84.89z"/>
   <path class="fil83" d="M1014.76 2947.72c73.94,-31.94 89.97,-17.34 96.21,-136.91 -48.11,9.13 -60.58,10.04 -84.63,48.38 -23.16,38.33 -16.93,38.33 -11.58,88.53z"/>
   <path class="fil84" d="M1496.69 804.62c-26.72,68.45 -13.36,93.09 19.6,156.07 29.39,55.68 53.45,82.15 73.94,120.49l51.66 19.16c-8.01,-30.12 8.91,1.83 -10.69,-25.55 -4.45,-5.48 -13.36,-12.78 -19.59,-19.17 -12.48,-12.78 -16.93,-19.17 -26.73,-30.12 -30.29,-39.25 -47.21,-65.72 -66.81,-112.27 -24.05,-23.73 -24.05,-48.37 -15.14,-86.71 6.23,-29.21 12.47,-29.21 17.81,-49.29 17.82,-74.84 18.71,-22.81 -12.47,-38.33l-11.58 65.72z"/>
   <path class="fil85" d="M249.54 2076.97c-22.27,85.8 -38.3,-20.08 -59.68,84.89 -55.23,-18.26 -31.18,-14.61 -81.96,-16.43 25.84,26.47 14.26,9.12 51.67,41.07 3.57,-1.83 8.02,-9.13 9.8,-5.48 0,0 61.47,-22.81 86.41,-49.28 7.13,41.07 0.89,38.33 29.4,60.24l-2.67 -115.92c43.65,-51.11 12.47,-13.69 -11.59,-24.64l-21.38 25.55z"/>
   <path class="fil86" d="M1503.82 2597.23l32.96 2.74c14.25,-10.04 32.07,16.43 37.41,-52.03 0,-1.82 -0.89,-7.3 -1.78,-10.95l5.34 -24.64c15.15,-35.6 22.27,-26.47 36.53,-81.24 -64.14,31.95 -41.87,33.78 -73.05,78.5 -25.83,35.6 -38.3,13.69 -37.41,87.62z"/>
   <path class="fil87" d="M214.8 2000.3c-26.72,37.42 -16.03,13.69 -16.92,52.94 24.94,20.99 -6.24,-1.82 26.72,11.87 13.36,5.47 6.24,-1.83 24.94,11.86l21.38 -25.55c14.26,-27.39 21.38,-34.69 43.65,-54.77l-7.12 -21.9c-73.94,4.56 -36.53,-11.87 -92.65,25.55z"/>
   <path class="fil88" d="M290.52 2297.85c23.16,86.71 28.51,41.99 65.03,104.97l-11.58 25.56c17.82,20.99 -16.92,4.56 41.87,31.94 2.67,-3.65 7.13,-12.78 8.91,-10.04 0.89,1.83 5.34,-8.21 7.12,-10.04 14.26,-20.08 0.9,0.91 15.15,-22.82l-113.14 -127.78 -13.36 8.21z"/>
   <path class="fil89" d="M382.28 1287.45c40.97,13.69 56.12,17.35 97.1,25.56l-8.02 -39.25 -45.43 -20.99 -10.69 -34.68c-24.95,-22.82 9.8,10.95 -12.47,-14.61l-25.84 -28.29c-9.8,59.32 -8.91,78.49 5.35,112.26z"/>
   <path class="fil90" d="M743.06 2438.42c40.98,49.28 -3.57,-52.94 4.45,24.64 12.47,-10.95 19.6,-19.17 39.2,-31.03 16.03,-10.04 0.89,-9.13 36.52,-0.92 0.89,0.92 8.91,14.61 6.24,42.9 28.5,-27.38 25.83,-52.02 40.97,-104.05 -36.52,-1.82 -43.65,0 -75.71,17.34 -49,26.47 -42.76,31.04 -51.67,51.12z"/>
   <path class="fil91" d="M735.04 2322.5l82.85 -16.43c12.47,-23.73 0.89,-30.12 25.83,-55.68 -92.64,-8.21 -57.01,-11.86 -97.99,12.78l-16.93 8.21c-0.89,-1.82 -4.45,2.74 -8.01,4.57l14.25 46.55z"/>
   <path class="fil92" d="M1824.51 1080.26c8.91,-3.65 8.91,-3.65 21.38,-12.78 24.05,-16.43 0.89,-3.65 21.38,-15.51 30.29,-18.26 36.52,-16.43 69.48,-13.69 22.27,-25.56 29.4,-17.35 70.38,-17.35 24.05,-45.63 26.72,-45.63 65.92,-77.58 -49.89,34.69 -26.73,41.99 -114.92,56.59 -46.32,8.22 -98.88,24.65 -146.09,35.6 13.36,25.55 7.13,1.82 12.47,44.72z"/>
   <path class="fil93" d="M197.88 2053.24c0.89,-39.25 -9.8,-15.52 16.92,-52.94 -61.46,8.22 -55.23,23.73 -124.71,0 9.8,28.3 4.45,13.69 25.83,33.77 15.15,13.69 23.16,24.65 32.96,34.69 36.53,-3.65 24.05,0 49,-15.52z"/>
   <path class="fil94" d="M1438.79 2656.56c-7.13,53.85 -61.47,97.66 -65.92,155.17l19.59 -26.47c26.73,-57.51 109.57,-136.91 111.36,-188.03 -25.84,9.13 -50.78,62.98 -56.13,53.85 -0.89,-2.73 -6.23,3.65 -8.9,5.48z"/>
   <path class="fil95" d="M1384.45 1832.36l-29.4 22.82c-3.56,3.65 -6.24,10.04 -10.69,14.6 19.6,10.04 5.34,-17.34 16.03,32.86l81.07 -62.98 -32.07 -34.68 -16.93 0 -8.01 27.38z"/>
   <path class="fil96" d="M1666.84 1146.89c-46.33,-45.63 -14.26,-2.74 -24.95,-46.55l-51.66 -19.16c-30.29,20.08 -26.73,21.9 -6.24,61.15l82.85 4.56z"/>
   <path class="fil97" d="M1194.7 1245.47c2.67,10.95 6.24,29.21 8.91,36.51 2.67,1.82 7.13,1.82 8.02,6.39 0.89,3.65 6.23,4.56 8.02,5.47 17.81,20.08 0,6.39 16.92,23.73 26.73,24.65 7.13,19.17 49,18.26 -22.27,-39.25 -34.75,-37.42 -57.91,-73.02 -16.03,-25.56 -24.94,-67.54 -36.52,-90.36l3.56 73.02z"/>
   <path class="fil98" d="M385.84 2460.32l47.21 2.74c50.78,5.48 49,15.52 73.94,-24.64l-89.97 -21c-14.25,23.73 -0.89,2.74 -15.15,22.82 -1.78,1.83 -6.23,11.87 -7.12,10.04 -1.78,-2.74 -6.24,6.39 -8.91,10.04z"/>
   <path class="fil99" d="M997.83 2350.79c-76.61,-2.74 -14.25,-9.12 -40.09,15.52 -3.56,94.92 -14.25,23.73 0,73.93 16.93,55.68 -1.78,2.74 17.82,27.38 24.05,-46.55 -8.02,-38.33 21.38,-64.8l0.89 -52.03z"/>
   <path class="fil100" d="M1091.37 1486.43c47.21,-17.34 16.03,-9.13 23.16,7.3 24.05,-10.95 9.8,1.83 27.61,-14.6 13.37,-13.69 8.02,-10.95 18.71,-27.38l4.46 21.9 6.23 -38.33c-20.49,-6.39 -14.25,2.74 -28.5,-18.26l-37.42 10.96 -14.25 58.41z"/>
   <path class="fil101" d="M1230.34 2713.15c9.79,31.03 -8.02,28.29 20.48,-9.13 0,0 23.17,-38.33 24.06,-40.16 14.25,-31.03 26.72,-60.24 40.08,-90.36l-32.96 -8.21c-16.92,31.94 -4.45,31.03 -16.92,75.75 -6.24,22.82 -23.16,48.38 -34.74,72.11z"/>
   <path class="fil102" d="M1253.5 1493.73c26.72,41.08 0,42.9 39.19,65.72 14.26,-20.08 16.04,7.3 18.71,-70.28l-16.93 -2.74c-3.56,0 -23.16,6.39 -30.28,9.13l3.56 -24.65 -14.25 22.82z"/>
   <path class="fil103" d="M517.68 755.33c57.9,13.69 42.76,5.47 92.65,-6.39 -25.84,-27.38 5.34,-4.57 -24.95,-20.99 -3.56,-1.83 -21.38,-8.22 -29.39,-11.87 -40.98,16.43 -12.48,-11.87 -38.31,39.25z"/>
   <path class="fil104" d="M203.22 919.62c-8.91,-13.69 19.6,-15.52 -19.6,-25.56 15.15,-16.43 27.62,-15.51 15.15,-36.51 -35.63,4.57 -32.96,1.83 -56.12,23.74 17.81,32.85 15.14,39.24 60.57,38.33z"/>
   <path class="fil105" d="M328.83 2075.15c24.05,-41.99 0,-14.61 25.83,-80.32 -29.4,1.82 -17.82,-13.7 -32.96,3.65 0,12.77 -6.23,44.72 -6.23,47.46 0.89,45.64 -16.93,3.65 13.36,29.21z"/>
   <path class="fil106" d="M1190.25 1233.6c-15.15,-47.46 0.89,-71.19 -32.07,-70.28 -1.78,14.61 -6.24,28.3 0,42.9 14.25,36.51 4.45,13.69 32.07,27.38z"/>
   <path class="fil107" d="M1455.71 1705.49c-38.3,6.39 -44.54,-2.74 -56.12,-27.38 -19.6,73.93 -4.45,21.9 7.13,42.89 54.34,-2.73 24.05,1.83 48.99,-15.51z"/>
   <path class="fil108" d="M1231.23 2129.91c-30.29,12.78 -9.8,0.91 -35.64,20.99l52.56 8.22 3.56 -40.16 0.9 -5.48c0,23.73 5.34,16.43 -21.38,16.43z"/>
   <path class="fil109" d="M100.78 1414.32l20.49 -51.11 -35.64 21.91c5.35,62.98 -2.67,5.47 15.15,29.2z"/>
   <polygon class="fil110" points="2173.71,984.42 2216.47,980.77 2191.53,960.69 "/>
   <polygon class="fil111" points="1449.48,1570.4 1454.82,1591.4 1492.24,1576.79 "/>
   <path class="fil112" d="M1445.02 1552.15l42.76 -19.17 -30.29 0c-2.67,5.48 -8.01,7.3 -8.01,10.95 0,3.65 -2.68,5.48 -4.46,8.22z"/>
   <path class="fil113" d="M370.7 1088.48c0.89,33.77 -14.26,5.47 8.9,22.82 15.15,-43.82 13.37,-18.26 -8.9,-22.82z"/>
  </g>
 </g>
</svg>
