<?xml version="1.0" encoding="UTF-8"?>
<!DOCTYPE svg PUBLIC "-//W3C//DTD SVG 1.1//EN" "http://www.w3.org/Graphics/SVG/1.1/DTD/svg11.dtd">
<!-- Creator: CorelDRAW 2017 -->
<svg xmlns="http://www.w3.org/2000/svg" xml:space="preserve" width="69.6806mm" height="102.108mm" version="1.1" style="shape-rendering:geometricPrecision; text-rendering:geometricPrecision; image-rendering:optimizeQuality; fill-rule:evenodd; clip-rule:evenodd"
viewBox="0 0 6968.06 10210.78"
 xmlns:xlink="http://www.w3.org/1999/xlink">
 <defs>
  <style type="text/css">
   <![CDATA[
    .str0 {stroke:#231F20;stroke-width:18.13;stroke-linecap:round;stroke-miterlimit:10}
    .str2 {stroke:#231F20;stroke-width:18.24;stroke-linecap:round;stroke-miterlimit:10}
    .str1 {stroke:#231F20;stroke-width:19.16;stroke-linecap:round;stroke-miterlimit:10}
    .fil1 {fill:none;fill-rule:nonzero}
    .fil0 {fill:#005779;fill-rule:nonzero}
   ]]>
  </style>
 </defs>
 <g id="Capa_x0020_1">
  <metadata id="CorelCorpID_0Corel-Layer"/>
  <path class="fil0" d="M3749.48 1619.01l-308.27 0 0 -1166.3c-112.5,105.76 -245.26,184.14 -398.26,234.76l0 -281.26c80.63,-26.25 168,-76.13 262.13,-150 94.51,-73.51 159.01,-159.39 194.26,-257.26l250.14 0 0 1620.06z"/>
  <path class="fil0" d="M2331.44 8462.92l299.27 -36.38c9.37,76.5 34.87,135.01 76.5,175.51 41.63,40.5 91.88,60.75 150.75,60.75 63.38,0 116.63,-24.38 160.14,-72.75 43.12,-48.38 64.87,-113.63 64.87,-196.13 0,-77.63 -20.62,-139.51 -62.25,-184.89 -41.63,-45.37 -92.25,-68.25 -152.26,-68.25 -39.37,0 -86.25,7.88 -141,23.25l34.13 -250.51c83.25,2.25 146.63,-16.12 190.5,-54.75 43.88,-38.25 65.63,-89.63 65.63,-153.76 0,-54.37 -16.12,-97.5 -48.38,-130.13 -32.25,-32.25 -75,-48.37 -128.63,-48.37 -52.87,0 -97.88,18.37 -135,55.12 -37.5,36.75 -60,90.38 -68.25,160.88l-283.52 -48.37c19.88,-98.26 49.51,-176.63 89.63,-235.51 39.75,-58.5 95.63,-104.63 166.88,-138.38 71.26,-33.38 151.51,-50.25 240.01,-50.25 151.51,0 273.02,48.37 364.52,145.5 75.38,79.5 113.25,169.51 113.25,269.64 0,141.75 -77.25,255.38 -232.13,339.76 92.25,19.88 165.76,64.13 221.26,133.13 55.13,69 82.88,152.26 82.88,249.76 0,141.38 -51.76,262.14 -154.89,361.89 -103.12,99.75 -231.38,149.63 -385.14,149.63 -145.5,0 -266.26,-42 -361.88,-126.38 -96.01,-84 -151.51,-193.88 -166.89,-330.01z"/>
  <path class="fil0" d="M1723.93 5195.41l0 285.76 -1082.3 0c11.63,-108.75 46.88,-211.51 105.38,-308.64 58.5,-97.13 174.38,-226.13 346.89,-387.01 139.13,-129.76 224.26,-217.89 255.76,-264.01 42.38,-63.76 63.75,-126.76 63.75,-189.39 0,-69 -18.37,-121.88 -55.5,-159 -36.75,-37.13 -87.75,-55.5 -152.63,-55.5 -64.5,0 -115.5,19.5 -153.76,58.5 -37.87,38.62 -59.62,103.13 -65.62,193.51l-308.27 -30.76c18.38,-170.25 75.76,-292.51 172.51,-366.76 96.75,-73.88 217.51,-111 362.64,-111 159.01,0 283.89,43.12 375.02,129 90.75,85.88 136.13,192.76 136.13,320.64 0,72.75 -13.13,141.75 -39.01,207.76 -25.87,65.62 -67.12,134.25 -123.75,206.25 -37.13,48.01 -105.01,116.63 -202.51,206.26 -97.88,89.63 -159.76,148.88 -185.63,178.51 -26.25,29.25 -47.25,58.13 -63.38,85.88l614.28 0z"/>
  <path class="fil1 str0" d="M5290 8784.22c0,0 110.35,44.45 130.28,45.97 19.93,1.55 157.87,6.13 167.07,52.14 9.21,45.96 -90.41,68.96 -98.1,68.96 -7.66,0 -41.39,-9.2 -42.9,0 -1.55,9.21 -7.38,58.25 -7.38,58.25 0,0 130,3.07 186.69,16.86 56.73,13.79 89.93,69.11 91.97,165.52 2.09,96.45 -32.56,130.88 -32.56,130.88"/>
  <path class="fil1 str0" d="M5234.82 9250.19c0,0 16.08,68.05 -22.62,131.33"/>
  <path class="fil1 str0" d="M5351.31 9293.1c0,0 -27.59,-0.46 -27.59,22.75l0 46.22"/>
  <path class="fil1 str0" d="M5450.94 9205.73c0,0 16.86,39.87 0,87.38"/>
  <path class="fil1 str0" d="M5552.1 9205.73c0,0 15.31,61.31 7.66,87.38 -7.66,26.04 -19.94,34.47 -19.94,34.47"/>
  <path class="fil1 str0" d="M5561.91 9383.91c0,0 10.13,27.23 0,46.46 -10.12,19.26 -11.36,9.87 -58.03,49.74 -46.71,39.86 -154.09,144.07 -250.69,174.73 -96.55,30.66 -472.08,35.24 -562.5,-9.21 -90.45,-44.45 -91.97,-194.66 -96.77,-222.25 -4.79,-27.59 1.73,-23 -15.13,-182.38 -16.86,-159.42 33.73,-456.78 33.73,-456.78"/>
  <line class="fil1 str0" x1="5503.86" y1="9397.65" x2="5450.95" y2= "9443.3" />
  <path class="fil1 str0" d="M5188.23 9369.84c-18.98,16.97 -46.92,71.94 -63.78,73.49 -16.86,1.51 -56.72,9.17 -118,-12.95 -61.31,-22.12 -79.73,-32.74 -79.73,-32.74 15.35,-36.44 33.73,-92.28 36.79,-217.98 3.07,-125.66 -7.65,-234.49 -7.65,-234.49 0,0 35.24,-24.55 45.97,-111.9 10.72,-87.38 -21.45,-148.7 -21.45,-148.7"/>
  <path class="fil1 str0" d="M4582.98 9282.11c0,0 -105.38,25.79 -229.52,0 -124.14,-25.79 -183.94,-74.86 -216.11,-88.65 -32.21,-13.8 -248.32,-87.35 -301.98,-93.49 -53.62,-6.14 -462.88,-9.56 -462.88,-9.56"/>
  <path class="fil1 str0" d="M3372.48 8661.6c0,0 32.18,191.59 15.31,318.8 -16.82,127.25 -191.59,749.55 -223.76,832.31 -32.18,82.76 -36.8,81.25 -44.45,111.9 -7.66,30.66 -18.38,104.25 -58.25,136.42 -39.86,32.17 -111.9,52.11 -145.62,33.73 -33.73,-18.42 -125.7,-26.07 -153.29,-24.52 -27.58,1.52 -340.25,-41.38 -556.4,-65.94 -216.11,-24.51 -515.02,-90.41 -625.37,-98.07 -110.34,-7.69 -375.53,85.83 -470.57,144.08 -95.03,58.24 -179.31,96.55 -188.52,121.07 -9.21,24.52 -76.62,64.38 -98.11,21.48 -21.45,-42.93 0,-65.93 0,-65.93 0,0 -29.1,-27.59 -26.03,-53.62 3.07,-26.07 15.31,-33.73 15.31,-33.73 0,0 -21.91,-23 -15.56,-46 6.35,-23 15.56,-24.52 15.56,-24.52 0,0 -31.89,-26.07 -16.72,-47.52 15.2,-21.45 21.34,-15.31 36.65,-29.1 15.35,-13.8 23,-55.21 49.04,-82.8 26.07,-27.59 84.31,-65.9 154.83,-87.35 70.49,-21.48 127.21,-73.59 150.21,-136.42 22.97,-62.86 49.04,-113.41 95.04,-116.48 45.97,-3.07 111.87,7.65 130.28,38.31 18.38,30.66 44.45,67.45 82.76,93.49 38.32,26.07 107.28,38.31 187.01,19.93 79.69,-18.38 288.15,-42.94 488.95,-45.97 200.8,-3.07 360.22,42.9 432.26,72.04 72.04,29.1 119.56,47.52 119.56,47.52"/>
  <path class="fil1 str0" d="M2725.65 9716.15c0,-12.27 -32.18,-73.59 -21.45,-240.66 10.72,-167.04 47.52,-377.05 49.04,-484.33 1.55,-107.32 -30.66,-354.08 75.1,-533.44 70.52,-119.55 213.29,-215.3 342.41,-253.08 64.52,-18.91 125.62,-23.32 172.61,-9 141.01,42.9 217.67,104.21 260.56,110.35 42.94,6.14 206.94,65.9 243.74,95.04 36.76,29.11 131.8,13.8 231.42,15.31 99.66,1.55 324.98,-59.76 479.78,-88.9 154.8,-29.1 545.67,18.42 600.85,98.11 55.17,79.69 79.69,168.59 85.83,209.97 6.14,41.42 -8.57,88.3 12.28,114.97 0,0 22.96,35.25 32.17,33.73 9.21,-1.52 121.11,-35.24 214.59,-33.73 93.49,1.56 240.67,67.52 269.77,208.49 29.14,140.97 0,314.19 -108.83,377.05 -108.83,62.83 -173.21,64.35 -193.11,62.83 -19.93,-1.51 -29.14,-18.38 -56.73,-7.65 -27.58,10.72 -82.76,49.03 -93.48,36.79 -10.76,-12.27 -15.35,-30.65 -32.21,-32.21 -16.86,-1.51 -58.24,6.14 -67.45,-4.58 -9.17,-10.73 -21.45,-16.86 -21.45,-16.86 0,0 -36.8,-12.28 -49.04,-19.94 -12.27,-7.65 -27.58,-9.2 -41.38,-13.79 -13.79,-4.59 -90.45,-6.14 -87.38,-95.04 3.07,-88.9 90.45,-251.35 90.45,-257.49 0,-6.14 -23,-9.21 -23,-9.21l-118.46 122.06"/>
  <path class="fil1 str0" d="M3385.44 8762.69c0,0 27.48,-130.21 7.26,-257.42 -20.21,-127.25 -124.21,-282.05 -165.69,-313.48"/>
  <path class="fil1 str0" d="M3636.92 8313.89c0,0 -66.71,174.49 -129.54,370.7 -62.86,196.18 -61.31,406.54 -61.31,406.54"/>
  <path class="fil1 str0" d="M2760.9 8604.88c0,0 -139.49,68.05 -183.94,97.65 -44.45,29.56 -209.97,58.7 -363.25,101.6 -153.28,42.93 -301.98,91.97 -367.88,73.59 -65.9,-18.38 -289.7,-96.56 -398.53,-90.45 -108.83,6.14 -358.67,81.52 -559.47,94.44 -200.77,12.87 -306.53,12.87 -337.19,-19.34 -30.65,-32.17 -150.21,-133.35 -200.8,-95 -50.59,38.31 -47.52,153.25 -119.56,232.97 -72.03,79.7 -190.07,182.39 -216.14,272.84 -26.04,90.42 -4.59,130.28 -7.66,144.08 -3.07,13.79 -12.24,45.96 4.62,61.31 16.83,15.31 39.83,35.24 58.25,0 18.38,-35.24 9.17,-49.04 50.55,-81.24 41.42,-32.18 187.01,-147.15 315.77,-206.91 128.77,-59.79 222.25,-53.09 370.95,-38.06 148.66,15.06 294.29,54.89 559.43,47.23 265.19,-7.65 269.77,-30.65 332.64,-13.79 62.83,16.86 110.35,91.97 205.38,88.9 95.04,-3.07 118.04,-23 136.42,-24.52 18.38,-1.52 -59.79,0 119.56,7.66 179.35,7.69 505.81,57.68 553.33,35.73"/>
  <path class="fil1 str0" d="M4204.14 9090.41c0,0 38.55,-63.36 90.7,-88.3 52.14,-24.94 181.39,-43.11 181.39,-43.11"/>
  <path class="fil1 str0" d="M4523.94 9290.96c0,0 33.94,288.89 86.08,425.21 52.17,136.27 88.44,204.29 131.51,202.03 43.11,-2.26 58.99,-13.62 77.12,-11.32 18.13,2.26 156.46,18.13 312.91,22.65 156.46,4.55 374.16,-22.65 469.41,-15.84 95.21,6.77 179.11,40.81 258.48,83.89 0,0 63.78,58.45 91.93,62.3 28.16,3.84 87.03,3.84 115.19,-11.5 28.18,-15.38 51.22,-20.5 49.91,-34.58 -1.27,-14.07 -40.95,-76.8 -56.3,-85.76 -15.34,-8.96 -66.57,-35.84 -79.37,-29.45 -12.77,6.42 -25.58,20.49 -8.96,32.03 16.65,11.5 37.14,14.08 48.64,32 11.54,17.92 23.04,35.84 23.04,35.84"/>
  <path class="fil1 str0" d="M5989.78 9889.64c0,0 -10.23,-8.96 5.12,-21.76 15.38,-12.81 42.22,10.23 72.95,21.76 30.73,11.54 57.61,46.08 63.99,60.15 6.42,14.08 1.42,52.5 -15.31,53.77"/>
  <path class="fil1 str0" d="M6002.58 9856.36c0,0 -12.8,-24.3 0,-26.88 12.81,-2.57 76.8,12.95 106.26,34.64 29.42,21.7 40.96,47.28 40.96,57.51 0,10.26 -17.92,28.18 -17.92,28.18"/>
  <path class="fil1 str0" d="M6015.38 9829.21c0,0 -1.27,-34.29 12.81,-38.14 14.07,-3.84 56.3,3.85 83.18,26.88 26.88,23.04 29.81,80.65 29.81,80.65"/>
  <path class="fil1 str0" d="M6028.18 9791.09c0,0 -116.49,-60.15 -158.71,-60.15 -42.23,0 -89.61,23.03 -127.99,24.3 -38.42,1.27 -151.06,3.85 -212.52,-3.84 -61.41,-7.66 -217.59,-26.88 -262.39,-43.5 -44.8,-16.65 -120.3,-31.4 -120.3,-31.4"/>
  <path class="fil1 str0" d="M5659.54 9829.21c0,0 25.61,-6.14 85.76,-17.64 60.15,-11.54 142.07,17.64 142.07,17.64"/>
  <path class="fil1 str1" d="M706.55 2561.75c-3.36,1.91 -84.99,86.33 -82.59,186.94 2.4,100.61 11.99,131.73 61.1,149.72 49.11,17.95 110.17,-1.2 141.32,-7.2 31.12,-6 99.38,2.4 108.98,8.4 9.59,5.96 11.96,13.16 11.96,20.35 0,7.16 -11.96,13.16 -11.96,13.16 0,0 -55.11,10.9 -67.07,40.18 -11.99,29.28 -17.95,58.03 33.52,66.43 51.5,8.36 70.66,4.76 97.01,5.96 26.35,1.2 76.66,17.99 91.02,25.15 14.39,7.2 0,65.9 0,65.9"/>
  <path class="fil1 str1" d="M1061.11 2918.76c0,0 34.75,3.59 118.57,-64.67 83.82,-68.26 110.42,-129.26 106.89,-152.12"/>
  <path class="fil1 str1" d="M841.94 2663.65c0,0 19.51,15.56 18.13,38.32 -1.38,22.75 -18.13,56.3 -18.13,56.3"/>
  <path class="fil1 str1" d="M790.44 2642.1c0,0 -21.56,17.96 -23.95,59.87 -2.4,41.94 11.99,81.45 11.99,81.45"/>
  <path class="fil1 str1" d="M803.14 2519.84c-0.74,7.3 -4.3,55.21 16.05,61.17 20.36,6 97.02,-32.31 108.98,-41.91"/>
  <path class="fil1 str1" d="M922.18 2536.7c0,0 26.35,-9.59 33.55,0 7.16,9.6 16.76,25.05 16.76,25.05l0 15.66"/>
  <path class="fil1 str1" d="M1044.39 2515.49c0,0 -20.42,32.53 -18.02,39.44 2.4,6.92 14.25,22.51 8.92,22.51 -5.33,0 -9.31,-5.93 -9.1,4.2 0.18,10.16 0,60.46 0,60.46"/>
  <path class="fil1 str1" d="M958.11 2595.39c0,0 2.4,21.55 0,28.75 -2.4,7.16 -10.79,8.36 -10.79,8.36"/>
  <path class="fil1 str1" d="M1313.37 2266c0,0 -132.01,0.64 -172.72,16.2 -40.75,15.59 -85.06,67.09 -147.32,71.86 -62.31,4.79 -107.78,-20.36 -150.29,-22.76 -42.54,-2.36 -101.21,27.55 -104.81,7.2 -3.6,-20.36 4.83,-49.11 41.95,-57.47 37.07,-8.39 68.22,7.09 100.57,-15.03 32.32,-22.12 46.71,-49.67 82.62,-73.62 35.95,-23.95 67.07,-32.32 67.07,-32.32"/>
  <path class="fil1 str1" d="M1003.89 2170.04c0,0 19.37,-58.77 55.29,-73.3 35.94,-14.54 64.69,-8.54 137.75,10.62 73.03,19.15 235.94,-43.11 235.94,-43.11"/>
  <path class="fil1 str1" d="M1013 2139.69c0,0 -57.99,32.35 -95.14,20.36 -37.11,-11.96 -53.91,-38.67 -68.26,-39.09 -14.36,-0.42 9.59,41.77 9.59,41.77 0,0 -49.1,-18.24 -46.71,-2.68 2.4,15.55 16.27,35.94 16.27,35.94 0,0 -60.57,-20.39 -53.41,-5.99 7.19,14.36 29.95,33.51 29.95,33.51 0,0 -51.75,1.2 -49.25,20.39 2.54,19.16 24.13,37.11 24.13,37.11"/>
  <path class="fil1 str1" d="M1976.66 2604.78c0,15.56 -37.85,172.51 -50.06,214.99 -12.2,42.51 -112.11,92 -112.11,92"/>
  <path class="fil1 str1" d="M2582.01 902.87c0,0 -11.36,147.61 17.04,218.58 28.37,70.98 48.26,93.67 39.73,139.11 -8.51,45.4 -24.42,184.5 2.01,255.48 26.38,70.98 15.03,127.74 -16.2,144.78 -31.22,17.04 -170.32,45.4 -258.33,116.38 -87.99,70.98 -215.73,130.56 -332.11,147.6 0,0 -61.91,19.54 -154.55,16.37 -92.61,-3.21 -121.36,-15.98 -161.29,-6.39 -39.9,9.56 -94.19,-4.09 -94.19,6.74 0,10.83 3.17,29.99 31.92,42.76 28.75,12.77 95.82,13.76 95.82,13.76"/>
  <path class="fil1 str1" d="M1782.19 1982.68c0,0 -116.55,35.13 -148.52,54.29 -31.92,19.16 -166.05,122.94 -167.67,135.75 -1.59,12.77 0,30.34 11.18,33.51 11.18,3.21 20.78,0 20.78,0 0,0 -20.36,23.07 -10.76,39.06 9.56,15.98 13.93,15.24 23.53,15.24l28.75 0c0,0 -6.38,8 7.97,20.77 14.36,12.77 14.36,12.77 36.73,9.56 22.36,-3.17 81.46,-22.33 81.46,-22.33 0,0 -11.19,28.72 -4.8,36.73 6.38,7.97 32.45,4.83 40.43,-1.55 8,-6.39 -2.12,-43.18 80.92,-55.96 83.05,-12.77 132.54,-23.95 182.04,-68.65 49.53,-44.73 65.47,-70.27 113.38,-84.63 47.91,-14.39 274.67,-52.7 424.78,-73.48 150.11,-20.74 295.42,-146.9 320.96,-178.82 25.54,-31.97 73.44,-22.37 91.01,-60.68 17.57,-38.35 17.57,-54.33 19.19,-62.3 1.59,-7.98 -9.59,-76.66 15.95,-164.47 25.54,-87.84 49.49,-89.43 59.09,-226.76 9.6,-137.34 17.57,-132.54 0,-204.4 -17.57,-71.86 -12.77,-97.4 -9.6,-156.49 3.21,-59.09 -47.9,-217.17 -153.28,-281.06 -105.41,-63.86 -204.4,-76.63 -284.23,-65.48 -79.87,11.18 -188.45,17.57 -188.45,17.57"/>
  <path class="fil1 str1" d="M2337.9 746.7c0,0 0.43,-2.93 1.06,-8.26 2.75,-23.91 9.38,-96.2 -1.06,-170.6 -12.77,-91.02 -78.24,-236.33 -183.65,-279.43 -105.38,-43.11 -391.23,14.35 -419.95,182.03 -28.75,167.67 -15.98,198.01 0,250.72 15.95,52.7 52.67,108.58 79.83,145.31 27.13,36.72 41.53,23.95 60.68,73.45 19.16,49.49 137.34,135.74 178.86,159.7 41.52,23.95 68.65,41.52 105.37,22.33 36.73,-19.16 52.71,-30.34 63.89,-55.88 11.19,-25.54 -6.1,-19.16 19.3,-44.7 25.4,-25.57 76.52,-153.32 86.08,-213.99l9.59 -60.68z"/>
  <path class="fil1 str1" d="M2337.9 567.85c0,0 30.34,3.21 35.14,31.92 4.8,28.76 1.59,71.87 0,79.87 -1.59,7.98 -29.46,22.72 -29.46,22.72l-5.68 44.35c0,0 -36.72,20.74 -31.92,-12.77 4.76,-33.55 -84.64,-188.46 -86.26,-193.26 -1.59,-4.76 -43.11,-19.15 -54.29,-12.77 -11.18,6.39 -41.52,177.2 -148.48,225.15 -107,47.94 -202.82,39.93 -204.4,35.17 -1.63,-4.8 -46.99,3.67 -46.99,3.67"/>
  <path class="fil1 str1" d="M1825.31 869.66c0,0 134.13,7.97 142.13,25.54 7.98,17.57 17.57,116.59 27.13,122.98 9.6,6.38 75.99,-14.4 75.99,-14.4"/>
  <path class="fil1 str1" d="M2040.88 927.14c0,0 -24.2,-41.52 -10.51,-51.11 13.73,-9.56 61.63,-23.96 96.73,-46.29 35.14,-22.36 43.15,-37.85 43.15,-37.85"/>
  <path class="fil1 str1" d="M2030.39 1084.92c0,0 12.1,-12.45 28.08,-14.04 15.94,-1.62 23.95,9.56 27.13,0 3.21,-9.59 6.06,-11.18 12.63,-15.98 6.52,-4.8 28.89,-12.77 28.89,-12.77"/>
  <path class="fil1 str1" d="M1777.96 813.06c0,0 -141.08,98.11 -153.85,229.06 -12.77,130.95 6.39,198.01 -6.39,263.49 -12.77,65.47 -41.52,162.88 -49.53,225.14 -7.97,62.3 11.19,237.95 11.19,247.51 0,9.6 -22.33,78.25 -49.5,124.57 -27.13,46.32 -174.06,319.37 -225.14,412.01 -51.12,92.6 -91.02,207.57 -91.02,207.57l-17.32 25.01"/>
  <path class="fil1 str1" d="M1964.24 2179.09c0,0 -4.8,328.79 -43.11,416.31 -38.35,87.49 -35.95,92.29 -45.51,128.24 -9.6,35.91 -45.51,122.13 -71.86,215.54 -26.35,93.42 -31.15,131.77 -71.86,160.52"/>
  <path class="fil1 str1" d="M1964.24 2357.14c0,0 257.77,33.55 343.29,74.26 85.47,40.71 202.84,88.62 296.26,91.02 93.41,2.4 93.41,2.4 174.83,0 81.46,-2.4 153.32,-35.92 253.93,-45.51 100.58,-9.6 210.65,-60.15 280.14,-45.47 69.47,14.67 101.5,69.88 120.65,101 19.2,31.15 256.97,-6.67 375.29,-8.22 135.71,-1.8 361.67,10.33 594.04,54.57 232.34,44.24 249.1,32.24 306.6,41.84 57.47,9.56 67.06,21.55 93.42,38.31 26.35,16.76 229.94,43.11 419.17,50.31 189.23,7.19 294.6,4.8 510.18,16.75 215.59,12 332.96,-86.21 395.26,-148.48 62.26,-62.3 79.02,-76.66 117.37,-138.92 38.31,-62.3 31.11,-103.01 55.06,-107.81 23.96,-4.8 40.72,11.99 38.35,28.75 -2.4,16.76 0.21,26.35 0.21,26.35 0,0 21.35,-4.8 26.11,21.56 4.8,26.35 -9.56,28.75 0,38.31 9.59,9.59 16.79,9.59 23.95,23.95 7.2,14.39 12,37.82 9.6,42.86 -2.4,5.05 10.83,36.2 0.63,45.76 -10.23,9.59 6.56,28.75 6.56,28.75"/>
  <path class="fil1 str1" d="M5458.99 2996.6c0,0 239.53,-43.04 316.19,-45.43 76.63,-2.4 251.5,45.43 251.5,45.43"/>
  <path class="fil1 str1" d="M2986.63 2483.16c0,0 14.78,70.94 -45.12,327.24 -59.87,256.29 -231.89,502.46 -231.89,502.46"/>
  <path class="fil1 str1" d="M3433.36 2532.45c0,0 28.75,96.8 28.75,131.19 0,34.44 -53.52,83.93 -53.52,83.93 0,0 184.47,-2.4 206.02,-4.8 21.56,-2.4 217.95,4.8 390.42,23.96 172.47,19.19 361.7,47.9 400.02,52.7 38.34,4.8 134.12,14.39 146.12,7.2 11.96,-7.2 67.06,-7.2 67.06,-7.2 0,0 23.95,-4.8 71.86,16.76 47.91,21.55 117.37,71.86 117.37,71.86 67.06,50.3 153.32,31.15 356.91,62.3 203.58,31.11 692.25,67.06 723.37,67.06 31.15,0 62.3,-4.8 138.92,-40.81 76.66,-36.02 225.18,-138.86 258.69,-189.13 33.55,-50.3 91.05,-129.36 110.21,-160.51 19.16,-31.12 4.8,-33.52 9.56,-59.87 4.8,-26.35 21.55,-26.35 55.1,-23.95 33.55,2.4 19.16,45.51 19.16,45.51l14.39 16.75c14.36,16.8 9.56,43.15 9.56,43.15 0,0 21.56,16.75 20.64,33.51 -0.95,16.76 -20.64,57.5 -18.24,67.06 2.4,9.6 23.96,57.51 16.76,110.21 -7.16,52.67 -98.18,165.28 -138.92,215.55 -40.72,50.31 -74.26,160.51 -74.26,160.51 -19.16,67.07 -23.96,153.29 -135.05,162.88 -111.09,9.56 -185.91,-91.02 -291.32,-91.02 -105.38,0 -325.76,23.96 -546.1,43.11 -220.38,19.16 -311.4,-19.15 -461.86,-47.9 -150.42,-28.75 -180.09,-14.4 -260.35,0 -80.26,14.35 -350.91,67.06 -534.88,52.7 -183.94,-14.39 -251.95,-52.7 -420.83,-52.7 -168.87,0 -219.18,71.86 -422.17,91.01 -202.99,19.16 -458.11,-76.66 -527.12,-100.61 -69.04,-23.95 -180.09,-9.56 -180.09,-9.56 -79.52,-6.24 -254.42,72.92 -390.03,102.52 -135.61,29.6 -536.15,74.82 -682.66,74.82 -146.51,0 -249.38,-91.97 -300.82,-163.65 -51.43,-71.72 -54.54,-160.55 -63.92,-171.45 -9.35,-10.9 -14,-1.55 -98.18,20.25 -84.17,21.84 -187.04,18.7 -278.97,-20.25 -91.97,-38.98 -202.64,-163.65 -174.59,-360.05 28.08,-196.39 241.58,-260.28 279.01,-270.44 37.39,-10.16 43.64,14.82 87.28,7.02 43.63,-7.76 101.31,-7.76 151.16,-6.2 49.88,1.55 110.67,0 160.55,49.88 49.88,49.85 60.78,88.83 73.27,152.72 12.45,63.92 84.14,77.92 84.14,77.92"/>
  <path class="fil1 str1" d="M3408.6 2747.58c0,0 -205.21,40.6 -352.1,171.2 -146.93,130.6 -262.58,423.05 -262.58,423.05"/>
  <path class="fil1 str1" d="M1801.36 1206.6c0,0 31.92,284.23 70.27,351.29 38.31,67.1 139.88,118.18 154.55,146.94 14.71,28.75 87.14,202.38 87.14,202.38"/>
  <path class="fil1 str1" d="M1895.57 1601.02c0,0 -7.97,137.34 -35.14,198.02 -27.13,60.68 -41.52,125.76 -41.52,125.76"/>
  <path class="fil1 str1" d="M1584.18 2290.87c0,0 -41.52,105.41 -41.52,156.49 0,51.12 -9.6,99.42 -17.57,114.37 -7.97,15 -127.74,194.88 -148.52,248.64l-20.74 53.76c0,0 -75.04,54.3 -89.43,95.82 0,0 -65.48,63.89 -30.34,217.17"/>
  <path class="fil1 str1" d="M1495.83 2250.99c0,0 -39.4,70.23 -95.28,159.66 -55.88,89.4 -133.53,221.87 -133.53,221.87"/>
  <path class="fil1 str1" d="M2150.44 2078.42c0,0 -10.2,34.39 0,41.59 10.2,7.2 181.33,81.42 225.11,117.37 43.78,35.91 72.53,60.61 106.08,92.57 33.51,32 31.11,53.55 86.22,51.15 55.1,-2.4 67.06,-2.4 112.57,-38.35 45.51,-35.91 79.06,-81.42 100.61,-134.12 21.56,-52.71 71.86,-136.53 122.17,-194.03 50.3,-57.47 176.99,-96.52 176.99,-96.52"/>
  <path class="fil1 str1" d="M3018.91 1188.18c0,7.3 12.84,301.87 0.07,402.45 -12.77,100.61 -14.21,126.96 5.65,189.23 19.89,62.3 55.56,138.22 55.56,138.22 0,0 -15.59,70.2 21.1,127.67 36.65,57.5 94.12,147 132.46,205.24 38.32,58.25 81.42,170.82 81.42,170.82"/>
  <path class="fil1 str1" d="M1981 1601.02c0,0 75.67,37.54 158.79,18.38 83.15,-19.19 123.86,-62.51 123.86,-62.51"/>
  <path class="fil1 str1" d="M2476.83 1494.83c0,0 81.92,16.3 152.33,-32.56"/>
  <path class="fil1 str1" d="M2139.8 2112.82c0,0 -18.73,36.72 -26.49,66.29 -7.76,29.52 -83.86,161.32 -82.94,187.64"/>
  <path class="fil1 str1" d="M2639.22 2370.1c0,0 31.78,39.87 46.25,84.88 14.46,45.02 24.16,77.47 24.16,77.47"/>
  <path class="fil1 str1" d="M2542.36 2381.28c0,0 -24.13,51.19 -27.34,83.36 -3.21,32.17 -9.63,47.94 -9.63,47.94"/>
  <line class="fil1 str1" x1="2085.09" y1="1565.8" x2="2113.31" y2= "1565.8" />
  <line class="fil1 str1" x1="2542.36" y1="1425.91" x2="2569.7" y2= "1417.87" />
  <line class="fil1 str1" x1="1497.95" y1="2206.24" x2="1624.1" y2= "2133.39" />
  <line class="fil1 str1" x1="1532.66" y1="2262.91" x2="1680.51" y2= "2160.04" />
  <path class="fil1 str1" d="M1658.23 2270.87c0,0 35.35,-44.31 56.27,-60.86 20.95,-16.54 37.46,-24.8 37.46,-24.8"/>
  <path class="fil1 str1" d="M2066.11 894.23c0,0 9.31,0.78 28.71,-7.76 19.41,-8.53 27.52,-22.5 27.52,-22.5"/>
  <path class="fil1 str1" d="M1887.62 927.14c0,0 11.65,3.57 27.17,-4.97 15.52,-8.54 22.51,-14.75 22.51,-14.75"/>
  <path class="fil1 str2" d="M2180.26 6268.52c0,0 -68.2,-13.34 -80.05,-74.12 -11.85,-60.78 -22.26,-97.86 -69.67,-145.31 -47.45,-47.41 -105.27,-45.93 -152.72,-47.41 -47.45,-1.48 -102.27,-1.48 -143.79,5.92 -41.52,7.41 -47.45,-16.37 -83.01,-6.7 -35.6,9.67 -238.69,70.45 -265.4,257.25 -26.67,186.79 78.6,305.4 166.06,342.44 87.45,37.07 185.31,40.04 265.36,19.29 80.04,-20.77 84.52,-29.66 93.41,-19.29 8.89,10.37 11.86,94.89 60.79,163.09 48.89,68.19 146.75,155.64 286.1,155.64 139.35,0 520.38,-42.97 649.36,-71.15 128.97,-28.15 274.25,-59.3 349.85,-53.38 75.6,5.96 333.58,63.75 551.49,41.52 217.95,-22.22 320.22,-83 382.49,-161.6 62.26,-78.57 75.6,-118.57 143.79,-186.8 68.23,-68.19 219.43,-238.65 268.36,-345.4 48.93,-106.75 83,-188.28 83,-188.28"/>
  <path class="fil1 str2" d="M3800.63 4740.06c0,0 83.01,133.42 195.69,186.79 112.68,53.38 206.06,41.52 223.87,51.89 17.78,10.38 50.41,38.53 80.05,45.97 29.63,7.41 51.89,5.93 63.74,11.86 11.86,5.92 1.48,37.04 28.15,117.12 26.71,80.04 77.12,143.79 117.13,225.32 40.04,81.56 48.93,136.38 51.89,169.01 0.74,7.94 -25.19,60.79 -62.26,96.35 -37.05,35.59 -72.64,38.55 -90.42,74.15 -17.82,35.56 -41.52,75.6 -50.41,93.38 -8.89,17.78 20.74,32.63 48.93,17.78 28.15,-14.82 68.19,-53.34 94.86,-57.78 26.7,-4.49 44.48,-3 71.15,34.07 26.71,37.08 48.93,84.49 48.93,121.57 0,37.08 7.41,69.67 20.75,62.27 13.37,-7.41 47.45,-38.56 51.89,-54.86 0,0 13.37,17.78 35.6,10.37 22.22,-7.41 41.52,-38.52 41.52,-38.52 0,0 22.22,2.96 35.56,-11.89 13.33,-14.82 7.41,-17.78 20.74,-22.23 13.37,-4.44 17.82,-1.48 23.74,-16.29 5.93,-14.82 0,-32.64 -25.22,-134.91 -25.19,-102.3 -75.6,-137.9 -84.49,-173.46 -8.89,-35.59 -31.12,-154.2 -37.08,-231.28 -5.92,-77.08 -70.62,-335.03 -99.8,-424 -29.17,-88.94 -18.77,-97.83 -49.92,-117.09 -31.11,-19.3 -29.63,-32.63 -167.53,-136.42 -137.87,-103.75 -198.65,-149.72 -235.69,-154.16 -37.08,-4.45 -96.38,-93.42 -152.72,-155.68 -56.34,-62.27 -254.99,-127.5 -355.81,-136.39 -100.79,-8.89 -237.17,28.4 -237.17,28.4"/>
  <path class="fil1 str2" d="M3471.52 4341.26c-1.49,-5.92 -1.49,-140.82 -228.32,-200.13 -226.8,-59.3 -376.56,121.57 -383.97,200.13 -7.4,78.57 22.26,180.87 25.23,229.8 2.96,48.9 17.78,74.12 38.52,106.72 20.78,32.63 23.74,128.98 128.98,203.13 105.27,74.12 142.34,136.38 223.87,120.08 81.53,-16.33 142.31,-84.52 169.02,-166.05 26.67,-81.52 14.81,-182.35 32.59,-235.72 17.78,-53.38 10.37,-128.98 7.41,-188.28 -2.96,-59.3 -13.33,-69.68 -13.33,-69.68z"/>
  <path class="fil1 str2" d="M2858.06 4443.56c0,0 -136.71,81.52 -198.97,220.91 -62.27,139.34 -40.01,145.27 -44.45,163.05 -4.45,17.78 -74.12,83.01 -100.82,157.16 -26.67,74.12 -59.31,277.21 -69.68,302.4 -10.37,25.23 -16.3,20.78 -41.52,60.79 -25.19,40.04 -102.27,111.19 -194.2,290.58 -91.9,179.39 -161.58,410.67 -161.58,410.67"/>
  <path class="fil1 str2" d="M2577.57 6619.87c0,0 11.85,-94.9 65.23,-209.02 53.37,-114.16 96.38,-161.61 112.68,-303.92 16.29,-142.31 13.33,-166.05 13.33,-177.9 0,-11.86 1.91,-97.86 0.21,-185.32 -1.69,-87.45 1.27,-100.82 -16.51,-133.42 -17.78,-32.63 -31.15,-34.11 -51.89,-22.22 -20.75,11.85 8.32,11.85 -26.99,17.78 -35.28,5.92 -21.94,-14.82 -96.06,28.15 -74.12,43 -97.86,26.7 -180.87,180.87 -83.01,154.2 -63.75,125.16 -134.9,285.68 -71.16,160.55 -37.08,126.47 -91.94,194.66 0,0 16.9,17.14 -27.79,41.45 -44.7,24.31 -120.62,160.48 -123.65,230.61 -3.07,70.13 28.43,94.44 28.43,94.44"/>
  <path class="fil1 str2" d="M2625.01 5607.32c0,0 -173.46,53.38 -228.32,114.16 -54.86,60.78 -171.94,222.36 -210.5,302.44 -38.56,80.04 -90.81,147.17 -90.81,147.17"/>
  <path class="fil1 str2" d="M2579.34 5622.93c0,0 21.94,-5.22 45.68,-94.19 23.71,-88.94 0,-60.78 31.12,-106.75 31.15,-45.93 52.24,-56.3 113.59,-151.2 61.35,-94.86 74.68,-139.35 99.87,-155.65 25.23,-16.33 32.63,-36.54 48.93,-24.2 16.34,12.31 0,41.98 105.27,102.77 105.27,60.78 235.73,84.49 269.81,69.67 34.11,-14.82 74.11,-17.04 74.11,-17.04"/>
  <path class="fil1 str2" d="M2924.47 5121.06c0,0 4.45,109.71 19.27,157.16 14.85,47.41 28.18,72.64 14.85,115.61 -13.37,43 -45.97,182.35 -69.71,266.87 -23.71,84.49 -57.86,245.11 -57.86,245.11"/>
  <path class="fil1 str2" d="M3597.53 5189.25c0,0 142.31,22.23 228.32,-54.85 85.97,-77.08 151.23,-217.63 151.23,-217.63"/>
  <path class="fil1 str2" d="M2964.06 5355.04c0,0 371.05,206.33 557.85,181.11 186.8,-25.19 372.57,-158.64 415.57,-253.5 0,0 87.07,-249.95 72.43,-341.11"/>
  <path class="fil1 str2" d="M3943.07 5392.67c-105.27,101.88 -189.86,143.47 -210.64,195.37 -12.56,31.43 -64.84,94.97 -123.23,141.14 -37.99,30.1 -78.56,52.82 -112.5,54.54 -85.97,4.45 -117.08,-66.71 -117.08,-66.71 0,0 -17.82,14.86 -41.53,-38.52 -23.7,-53.38 -139.34,-143.83 -220.9,-189.02 -81.53,-45.22 -163.66,-78.24 -163.66,-78.24"/>
  <path class="fil1 str2" d="M3406.29 5752.38c0,0 -26.67,6.24 -26.67,57.36 0,51.08 -16.58,254.49 -16.58,254.49"/>
  <path class="fil1 str2" d="M1543.69 6045.32c-3.21,1.83 -80.82,82.13 -78.57,177.8 2.3,95.71 11.4,125.31 58.11,142.42 46.7,17.07 104.81,-1.17 134.44,-6.85 29.6,-5.68 94.54,2.29 103.65,7.97 9.13,5.68 11.39,12.53 11.39,19.37 0,6.85 -11.39,12.53 -11.39,12.53 0,0 -52.39,10.37 -63.79,38.24 -11.39,27.83 -17.07,55.17 31.89,63.14 49.01,7.98 67.21,4.55 92.29,5.72 25.05,1.13 72.89,17.07 86.57,23.92 13.66,6.84 0,62.65 0,62.65"/>
  <path class="fil1 str2" d="M1880.94 6384.89c0,0 33.02,3.42 112.78,-61.52 79.73,-64.91 105.02,-122.95 101.67,-144.68"/>
  <path class="fil1 str2" d="M1672.47 6142.25c0,0 18.55,14.81 17.25,36.44 -1.31,21.66 -17.25,53.55 -17.25,53.55"/>
  <path class="fil1 str2" d="M1635.57 6005.45c-0.71,6.92 -4.09,52.49 15.27,58.21 19.34,5.68 92.25,-30.76 103.65,-39.9"/>
  <path class="fil1 str2" d="M1748.8 6021.5c0,0 25.04,-9.11 31.89,0 6.84,9.1 15.94,23.81 15.94,23.81l0 14.92"/>
  <path class="fil1 str2" d="M1865.04 6001.32c0,0 -19.41,30.94 -17.15,37.53 2.29,6.56 13.55,21.38 8.5,21.38 -5.08,0 -8.85,-5.64 -8.68,4.02 0.18,9.63 0,57.51 0,57.51"/>
  <path class="fil1 str2" d="M1782.97 6077.32c0,0 2.29,20.49 0,27.34 -2.29,6.84 -10.27,7.97 -10.27,7.97"/>
  <path class="fil1 str2" d="M2142.07 5783.94c0,0 -125.55,0.6 -164.29,15.42 -38.73,14.81 -80.89,63.78 -140.12,68.36 -59.23,4.55 -102.52,-19.36 -142.98,-21.66 -40.43,-2.29 -96.24,26.21 -99.66,6.85 -3.43,-19.37 4.58,-46.71 39.86,-54.68 35.31,-7.98 64.91,6.73 95.67,-14.29 30.77,-21.03 44.45,-47.24 78.6,-70.03 34.19,-22.79 63.82,-30.76 63.82,-30.76"/>
  <path class="fil1 str2" d="M1847.71 5692.67c0,0 18.42,-55.92 52.6,-69.75 34.18,-13.79 61.52,-8.11 130.99,10.13 69.49,18.2 197.87,-33.76 197.87,-33.76"/>
  <path class="fil1 str2" d="M1856.38 5663.79c0,0 -55.18,30.77 -90.49,19.37 -35.32,-11.39 -51.26,-36.76 -64.95,-37.18 -13.65,-0.43 9.14,39.72 9.14,39.72 0,0 -46.71,-17.36 -44.45,-2.54 2.29,14.82 15.49,34.19 15.49,34.19 0,0 -57.65,-19.37 -50.8,-5.72 6.84,13.69 28.46,31.89 28.46,31.89 0,0 -49.21,1.17 -46.81,19.37 2.4,18.24 22.93,35.31 22.93,35.31"/>
  <path class="fil1 str2" d="M2769.72 5902.26c0,0 229.91,-2.4 308.86,51.96 78.99,54.37 255.2,106.76 343.29,123.09 88.09,16.33 181.64,60.39 232.09,35.31 50.41,-25.05 126.37,-59.55 174.98,-48.36 48.61,11.14 57.71,30.72 57.71,30.72"/>
  <path class="fil1 str2" d="M3713.16 6619.87c0,0 -17.88,-279.4 51.97,-387.63 69.88,-108.23 419.24,-450.32 546.8,-510.15 127.6,-59.8 223.81,-122.81 223.81,-122.81"/>
  <path class="fil1 str2" d="M4734.93 5515.7c0,0 95.77,-34.18 118.92,0 23.14,34.18 23.14,41.88 59.58,83.61 36.44,41.7 343.29,373.59 425.31,478.01 82.02,104.43 287.37,341.39 400.37,402.13 112.99,60.75 185.91,86.43 328.68,140.41 142.8,54.01 218.72,-11.47 243.03,0 24.31,11.47 0,50.98 0,50.98 0,0 30.73,24.3 10.79,45.54l-19.89 21.27c0,0 3.03,54.68 -18.24,63.82l-21.27 9.1c0,0 6.1,45.58 -27.34,48.61 -33.41,3.04 -42.51,-15.2 -66.82,0 -24.31,15.17 -9.1,24.31 -54.68,24.31 -45.58,0 -130.63,-15.2 -209.62,-18.24 -78.99,-3.03 -261.23,54.68 -337.19,18.24 -75.95,-36.48 -106.32,-36.48 -88.08,-106.33 18.2,-69.88 66.81,-111.65 30.37,-184.92 -36.44,-73.31 -100.26,-94.83 -188.35,-155.47 -88.09,-60.61 -236.96,-42.37 -373.66,-218.58 -136.7,-176.18 -175.16,-311.4 -175.16,-311.4"/>
  <path class="fil1 str2" d="M3561.49 6112.63c0,0 15.06,96.17 0,324.17 -15.07,227.96 -72.57,390.52 -72.57,390.52"/>
  <path class="fil1 str2" d="M3568.19 6827.31c0,0 58.52,-248.35 142.91,-357.32"/>
  <path class="fil1 str2" d="M4285.5 6542.88c0,0 591.46,-97.12 652.25,-106.11 60.75,-8.96 273.4,12.31 388.83,70.02 115.43,57.72 167.5,60.47 167.5,60.47"/>
  <path class="fil1 str2" d="M5911.09 6559.82c0,0 220.52,-28.08 342.01,-58.8 121.5,-30.7 315.95,-26.99 385.8,0 69.89,27.02 209.62,61.77 230.9,18.59 21.23,-43.22 -12.18,-137.73 12.13,-237.81 24.31,-100.05 85.06,-236.75 85.06,-312.7 0,-75.96 -48.62,-159.39 -48.62,-159.39 0,0 -9.1,-40.5 -42.51,-40.81 -33.4,-0.29 -24.3,12.06 -21.27,40.81 3.03,28.75 9.1,28.05 3.03,48.16 -6.06,20.11 -179.21,310.94 -224.79,340.18 -45.57,29.25 -60.74,38.38 -106.32,35.35 -45.58,-3.07 -337.19,3.03 -492.13,-6.1 -154.94,-9.11 -500.52,-66.82 -611.75,-48.58"/>
  <path class="fil1 str2" d="M3943.07 5266.05c0,0 4.06,138.29 10.9,177.02 6.81,38.74 32,93.7 59.27,157.38 27.31,63.64 108.2,136.03 146.37,238.83"/>
  <path class="fil1 str2" d="M3568.19 5757.77c3.28,10.83 42.01,53.3 53.41,150.53 11.39,97.26 32.35,204.33 32.35,204.33"/>
  <line class="fil1 str2" x1="3667.17" y1="5090.94" x2="3694.51" y2= "5087.13" />
  <line class="fil1 str2" x1="3173.5" y1="5171.67" x2="3204.65" y2= "5171.67" />
  <path class="fil1 str2" d="M2817.34 6077.32c0,14.81 -36.02,164.07 -47.62,204.5 -11.61,40.43 -106.65,87.49 -106.65,87.49"/>
  <line class="fil1 str2" x1="3311.75" y1="6142.25" x2="3311.75" y2= "6171.07" />
  <path class="fil1 str2" d="M2936.38 4684.29c0,0 12.06,-34.47 37.14,-35.6 25.12,-1.09 75.75,104.53 199.99,86.75 124.22,-17.78 186.48,-121.21 227.62,-136.77 41.16,-15.56 70.06,0 70.06,0l11.53 -19.3c0,0 29.6,0.39 32.95,17.08 3.32,16.68 12.21,46.1 0,61.98 -12.24,15.84 -50.59,37.99 -50.59,37.99"/>
  <path class="fil1 str2" d="M3007.53 4837.23c0,0 30.52,10.06 71.65,4.48 41.13,-5.57 62.48,-21.13 64.7,-4.48 2.22,16.65 11.54,99.2 15.98,104.32 4.45,5.15 41.13,32.95 56.69,22.93 15.6,-10.02 42.27,-35.6 42.27,-35.6"/>
  <path class="fil1 str2" d="M3219.9 4859.96c0,0 -18.91,-37.81 -7.79,-44.48 11.14,-6.67 57.82,1.13 96.73,-12.21 38.95,-13.37 68.97,-31.15 68.97,-31.15"/>
  <path class="fil1 str2" d="M3249.36 4846.19c0,0 41.8,-1.98 52.74,-8.96"/>
  <path class="fil1 str2" d="M2936.38 4717.81c0,0 -20.39,17.92 -13.44,46.78 6.98,28.86 15.94,30.83 22.89,38.81 6.99,7.97 33.44,3.59 33.44,3.59"/>
 </g>
</svg>
