<?xml version="1.0" encoding="UTF-8"?>
<!DOCTYPE svg PUBLIC "-//W3C//DTD SVG 1.1//EN" "http://www.w3.org/Graphics/SVG/1.1/DTD/svg11.dtd">
<!-- Creator: CorelDRAW 2017 -->
<svg xmlns="http://www.w3.org/2000/svg" xml:space="preserve" width="72.9826mm" height="49.4452mm" version="1.1" style="shape-rendering:geometricPrecision; text-rendering:geometricPrecision; image-rendering:optimizeQuality; fill-rule:evenodd; clip-rule:evenodd"
viewBox="0 0 7298.26 4944.52"
 xmlns:xlink="http://www.w3.org/1999/xlink">
 <defs>
  <style type="text/css">
   <![CDATA[
    .str0 {stroke:black;stroke-width:35.28;stroke-miterlimit:10}
    .str1 {stroke:#231F20;stroke-width:35.28;stroke-miterlimit:10}
    .fil5 {fill:none;fill-rule:nonzero}
    .fil7 {fill:black;fill-rule:nonzero}
    .fil6 {fill:#231F20;fill-rule:nonzero}
    .fil8 {fill:#58595B;fill-rule:nonzero}
    .fil10 {fill:#6D6E71;fill-rule:nonzero}
    .fil1 {fill:#8DC63F;fill-rule:nonzero}
    .fil9 {fill:#BE1E2D;fill-rule:nonzero}
    .fil4 {fill:#C3BE95;fill-rule:nonzero}
    .fil3 {fill:#CAC7B5;fill-rule:nonzero}
    .fil2 {fill:#DED8BB;fill-rule:nonzero}
    .fil11 {fill:#ED1D24;fill-rule:nonzero}
    .fil0 {fill:#F1F1F2;fill-rule:nonzero}
   ]]>
  </style>
 </defs>
 <g id="Capa_x0020_1">
  <metadata id="CorelCorpID_0Corel-Layer"/>
  <g id="_1404266322192">
   <path class="fil0" d="M6865.03 4942.97l-6431.81 0c-237.45,0 -431.76,-194.31 -431.76,-431.76l0 -4077.9c0,-237.49 194.31,-431.77 431.76,-431.77l6431.81 0c237.45,0 431.76,194.28 431.76,431.77l0 4077.9c0,237.45 -194.31,431.76 -431.76,431.76z"/>
   <polygon class="fil1" points="3530.36,1447.13 3391.12,1447.13 3391.12,832.84 3530.36,832.84 "/>
   <polygon class="fil1" points="3461.58,1404.64 3527.91,1447.12 3907.14,958.09 3840.82,915.62 "/>
   <path class="fil2" d="M2982.24 1094.16c-5.68,0 -10.3,-4.58 -10.3,-10.26 0,-5.68 4.62,-10.3 10.3,-10.3 5.68,0 10.3,4.62 10.3,10.3 0,5.68 -4.62,10.26 -10.3,10.26zm-189.9 -74.18c-14.4,0 -26.07,-11.68 -26.07,-26.07 0,-14.43 11.67,-26.11 26.07,-26.11 14.39,0 26.07,11.68 26.07,26.11 0,14.39 -11.68,26.07 -26.07,26.07zm1.97 361.88c-7.37,0 -13.37,-6 -13.37,-13.38 0,-7.4 6,-13.4 13.37,-13.4 7.41,0 13.41,6 13.41,13.4 0,7.38 -6,13.38 -13.41,13.38zm-136.03 -124.61c-8.54,0 -15.41,-6.91 -15.41,-15.41 0,-8.54 6.87,-15.45 15.41,-15.45 8.5,0 15.42,6.91 15.42,15.45 0,8.5 -6.92,15.41 -15.42,15.41zm-71.26 -95.49c-8.11,0 -14.68,-6.6 -14.68,-14.71 0,-8.12 6.57,-14.68 14.68,-14.68 8.11,0 14.68,6.56 14.68,14.68 0,8.11 -6.57,14.71 -14.68,14.71zm-55.84 611.18c-17.85,0 -32.32,-14.46 -32.32,-32.31 0,-17.85 14.47,-32.31 32.32,-32.31 17.85,0 32.35,14.46 32.35,32.31 0,17.85 -14.5,32.31 -32.35,32.31zm-58.74 -293.82c0,-14.61 11.82,-26.46 26.42,-26.46 14.61,0 26.46,11.85 26.46,26.46 0,14.57 -11.85,26.42 -26.46,26.42 -14.6,0 -26.42,-11.85 -26.42,-26.42zm-68.33 -436.35c-12.6,0 -22.79,-10.2 -22.79,-22.79 0,-12.6 10.19,-22.79 22.79,-22.79 12.55,0 22.75,10.19 22.75,22.79 0,12.59 -10.2,22.79 -22.75,22.79zm-87.42 312.91c-35.7,0 -64.67,-28.93 -64.67,-64.63 0,-35.7 28.97,-64.66 64.67,-64.66 35.7,0 64.63,28.96 64.63,64.66 0,35.7 -28.93,64.63 -64.63,64.63zm38.2 135.18c-14.6,0 -26.46,-11.85 -26.46,-26.45 0,-14.61 11.86,-26.43 26.46,-26.43 14.61,0 26.43,11.82 26.43,26.43 0,14.6 -11.82,26.45 -26.43,26.45zm-60.25 132.22c-4.06,0 -7.34,-3.28 -7.34,-7.33 0,-4.06 3.28,-7.34 7.34,-7.34 4.06,0 7.34,3.28 7.34,7.34 0,4.05 -3.28,7.33 -7.34,7.33zm-186.27 -214.48c-14.78,0 -26.77,-12 -26.77,-26.74 0,-14.79 11.99,-26.78 26.77,-26.78 14.75,0 26.74,11.99 26.74,26.78 0,14.74 -11.99,26.74 -26.74,26.74zm-166.33 -173.39c-8.93,0 -16.16,-7.24 -16.16,-16.16 0,-8.93 7.23,-16.16 16.16,-16.16 8.92,0 16.15,7.23 16.15,16.16 0,8.92 -7.23,16.16 -16.15,16.16zm-39.69 449.58c-21.1,0 -38.17,-17.11 -38.17,-38.21 0,-21.1 17.07,-38.17 38.17,-38.17 21.1,0 38.21,17.07 38.21,38.17 0,21.1 -17.11,38.21 -38.21,38.21zm-199.81 -217.46c-8.12,0 -14.68,-6.56 -14.68,-14.67 0,-8.12 6.56,-14.68 14.68,-14.68 8.15,0 14.71,6.56 14.71,14.68 0,8.11 -6.56,14.67 -14.71,14.67zm-151.31 0c-21.91,0 -39.69,-13.16 -39.69,-29.35 0,-16.23 17.78,-29.38 39.69,-29.38 21.91,0 39.65,13.15 39.65,29.38 0,16.19 -17.74,29.35 -39.65,29.35zm1501.56 -517.87c-20.81,0 -40.64,2.68 -58.7,7.44 -40.15,-96.91 -162.1,-167.46 -306.46,-167.46 -148.23,0 -272.62,74.47 -309.24,175.5 -25.19,-9.56 -53.59,-15.48 -84.18,-15.48 -79.58,0 -146.26,36.86 -169.61,87.48 -56.09,-22.19 -120.05,3.67 -144.29,59.45 -6.24,14.39 -9.2,29.38 -9.27,44.17 -3.43,0.52 -6.85,1.05 -10.24,1.62 -2.08,-0.21 -3.84,-1.2 -5.96,-1.2 -9.84,0 -18.91,2.68 -27.23,6.7 -29.88,5.12 -58.99,10.48 -87.49,16.05 -11.18,-13.58 -27.48,-22.75 -46.46,-22.75 -26.42,0 -48.4,16.97 -56.94,40.46 -0.56,1.31 -0.42,2.93 -0.88,4.34 -25.44,5.82 -50.06,11.89 -74.05,18.1 -22.01,-37.47 -62.27,-62.9 -108.87,-62.9 -69.95,0 -126.64,56.69 -126.64,126.65 0,4.26 0.84,8.29 1.23,12.41 -152.61,63.43 -240.52,137.48 -240.52,216.64 0,201.09 565.92,369.36 1325.1,412.97l578.41 -956.67c-12.1,-2.04 -24.55,-3.52 -37.71,-3.52z"/>
   <path class="fil3" d="M1551.22 1408.58c-21.9,0 -39.65,13.16 -39.65,29.39 0,16.23 17.75,29.38 39.65,29.38 21.91,0 39.65,-13.15 39.65,-29.38 0,-16.23 -17.74,-29.39 -39.65,-29.39z"/>
   <path class="fil3" d="M2316.68 1226.4c-35.7,0 -64.63,28.92 -64.63,64.63 0,35.7 28.93,64.66 64.63,64.66 35.7,0 64.67,-28.96 64.67,-64.66 0,-35.71 -28.97,-64.63 -64.67,-64.63z"/>
   <path class="fil3" d="M2108.35 1355.09c-14.78,0 -26.74,11.96 -26.74,26.74 0,14.79 11.96,26.74 26.74,26.74 14.79,0 26.74,-11.95 26.74,-26.74 0,-14.78 -11.95,-26.74 -26.74,-26.74z"/>
   <path class="fil3" d="M1702.55 1437.97c-8.11,0 -14.68,6.56 -14.68,14.71 0,8.08 6.57,14.67 14.68,14.67 8.11,0 14.71,-6.59 14.71,-14.67 0,-8.15 -6.6,-14.71 -14.71,-14.71z"/>
   <path class="fil3" d="M1902.36 1608.39c-21.09,0 -38.2,17.11 -38.2,38.21 0,21.09 17.11,38.2 38.2,38.2 21.1,0 38.21,-17.11 38.21,-38.2 0,-21.1 -17.11,-38.21 -38.21,-38.21z"/>
   <path class="fil3" d="M2354.89 1437.97c-14.61,0 -26.46,11.82 -26.46,26.46 0,14.6 11.85,26.42 26.46,26.42 14.6,0 26.45,-11.82 26.45,-26.42 0,-14.64 -11.85,-26.46 -26.45,-26.46z"/>
   <path class="fil3" d="M2525.31 1479.11c0,-14.61 -11.85,-26.46 -26.46,-26.46 -14.6,0 -26.42,11.85 -26.42,26.46 0,14.6 11.82,26.45 26.42,26.45 14.61,0 26.46,-11.85 26.46,-26.45z"/>
   <path class="fil3" d="M2294.65 1608.39c-4.06,0 -7.34,3.28 -7.34,7.34 0,4.06 3.28,7.37 7.34,7.37 4.05,0 7.33,-3.31 7.33,-7.37 0,-4.06 -3.28,-7.34 -7.33,-7.34z"/>
   <path class="fil3" d="M1942.03 1202.89c-8.92,0 -16.15,7.23 -16.15,16.16 0,8.92 7.23,16.16 16.15,16.16 8.93,0 16.16,-7.24 16.16,-16.16 0,-8.93 -7.23,-16.16 -16.16,-16.16z"/>
   <path class="fil3" d="M2404.1 997.2c-12.59,0 -22.75,10.19 -22.75,22.79 0,12.56 10.16,22.75 22.75,22.75 12.6,0 22.79,-10.19 22.79,-22.75 0,-12.6 -10.19,-22.79 -22.79,-22.79z"/>
   <path class="fil3" d="M2587.02 1132.36c-8.12,0 -14.68,6.57 -14.68,14.71 0,8.08 6.56,14.68 14.68,14.68 8.11,0 14.71,-6.6 14.71,-14.68 0,-8.14 -6.6,-14.71 -14.71,-14.71z"/>
   <path class="fil3" d="M2658.27 1226.4c-8.5,0 -15.41,6.91 -15.41,15.41 0,8.54 6.91,15.45 15.41,15.45 8.54,0 15.42,-6.91 15.42,-15.45 0,-8.5 -6.88,-15.41 -15.42,-15.41z"/>
   <path class="fil3" d="M2794.33 1355.09c-7.38,0 -13.37,6 -13.37,13.37 0,7.38 5.99,13.37 13.37,13.37 7.37,0 13.37,-5.99 13.37,-13.37 0,-7.37 -6,-13.37 -13.37,-13.37z"/>
   <path class="fil3" d="M2792.34 967.81c-14.39,0 -26.07,11.68 -26.07,26.07 0,14.43 11.68,26.11 26.07,26.11 14.39,0 26.07,-11.68 26.07,-26.11 0,-14.39 -11.68,-26.07 -26.07,-26.07z"/>
   <path class="fil3" d="M2531.19 1708.31c-17.85,0 -32.32,14.46 -32.32,32.31 0,17.85 14.47,32.31 32.32,32.31 17.85,0 32.31,-14.46 32.31,-32.31 0,-17.85 -14.46,-32.31 -32.31,-32.31z"/>
   <path class="fil2" d="M5700.33 1479.11c-7.3,0 -13.23,-5.93 -13.23,-13.23 0,-7.31 5.93,-13.23 13.23,-13.23 7.31,0 13.23,5.92 13.23,13.23 0,7.3 -5.92,13.23 -13.23,13.23zm-113.87 11.74c-10.94,0 -19.83,-8.89 -19.83,-19.82 0,-10.97 8.89,-19.86 19.83,-19.86 10.97,0 19.86,8.89 19.86,19.86 0,10.93 -8.89,19.82 -19.86,19.82zm-76.84 193.96c-17.04,0 -30.83,-13.83 -30.83,-30.87 0,-17.04 13.79,-30.87 30.83,-30.87 17.04,0 30.87,13.83 30.87,30.87 0,17.04 -13.83,30.87 -30.87,30.87zm-75.21 -156.35c0,-20.74 16.83,-37.61 37.61,-37.61 20.77,0 37.6,16.87 37.6,37.61 0,20.78 -16.83,37.61 -37.6,37.61 -20.78,0 -37.61,-16.83 -37.61,-37.61zm-119.66 -159.99c-3.71,0 -6.71,-2.99 -6.71,-6.7 0,-3.67 3,-6.67 6.71,-6.67 3.67,0 6.67,3 6.67,6.67 0,3.71 -3,6.7 -6.67,6.7zm-7.34 356.13c-7.76,0 -14.04,-6.28 -14.04,-14.04 0,-7.72 6.28,-14 14.04,-14 7.73,0 14.01,6.28 14.01,14 0,7.76 -6.28,14.04 -14.01,14.04zm-52.35 -144.32c-6.42,0 -11.64,-5.22 -11.64,-11.64 0,-6.46 5.22,-11.68 11.64,-11.68 6.45,0 11.67,5.22 11.67,11.68 0,6.42 -5.22,11.64 -11.67,11.64zm-48.37 -115.89c-7.34,0 -13.23,-5.89 -13.23,-13.22 0,-7.31 5.89,-13.2 13.23,-13.2 7.3,0 13.2,5.89 13.2,13.2 0,7.33 -5.9,13.22 -13.2,13.22zm-107.28 115.89c-17.85,0 -32.31,-14.46 -32.31,-32.31 0,-17.85 14.46,-32.32 32.31,-32.32 17.85,0 32.35,14.47 32.35,32.32 0,17.85 -14.5,32.31 -32.35,32.31zm-54.36 -247.37c-12.17,0 -22.01,-9.87 -22.01,-22.04 0,-12.18 9.84,-22.02 22.01,-22.02 12.17,0 22.05,9.84 22.05,22.02 0,12.17 -9.88,22.04 -22.05,22.04zm420.37 48.93c7.37,0 13.37,5.97 13.37,13.37 0,7.38 -6,13.38 -13.37,13.38 -7.41,0 -13.37,-6 -13.37,-13.38 0,-7.4 5.96,-13.37 13.37,-13.37zm-568.75 326.47c-6.49,0 -11.75,-5.26 -11.75,-11.75 0,-6.49 5.26,-11.75 11.75,-11.75 6.49,0 11.75,5.26 11.75,11.75 0,6.49 -5.26,11.75 -11.75,11.75zm-72 -437.84c-18.66,0 -33.8,-15.13 -33.8,-33.79 0,-18.67 15.14,-33.8 33.8,-33.8 18.66,0 33.79,15.13 33.79,33.8 0,18.66 -15.13,33.79 -33.79,33.79zm-8.08 286.49c-14.18,0 -25.72,-11.5 -25.72,-25.71 0,-14.19 11.54,-25.69 25.72,-25.69 14.22,0 25.72,11.5 25.72,25.69 0,14.21 -11.5,25.71 -25.72,25.71zm83.33 -133.7l0 -14.67 0 14.67 0 14.71 0 -14.71zm-224.93 128.94c-20.18,0 -36.52,-16.37 -36.52,-36.55 0,-20.18 16.34,-36.54 36.52,-36.54 20.21,0 36.58,16.36 36.58,36.54 0,20.18 -16.37,36.55 -36.58,36.55zm-52.89 111.66c-9.03,0 -16.33,-7.31 -16.33,-16.34 0,-9.03 7.3,-16.37 16.33,-16.37 9.03,0 16.37,7.34 16.37,16.37 0,9.03 -7.34,16.34 -16.37,16.34zm-101.17 -279.51c-21.31,0 -38.56,-17.29 -38.56,-38.56 0,-21.31 17.25,-38.59 38.56,-38.59 21.3,0 38.56,17.28 38.56,38.59 0,21.27 -17.26,38.56 -38.56,38.56zm-0.39 -199.07c11.36,0 20.57,9.17 20.57,20.53 0,11.36 -9.21,20.6 -20.57,20.6 -11.36,0 -20.57,-9.24 -20.57,-20.6 0,-11.36 9.21,-20.53 20.57,-20.53zm0 -111.69c11.36,0 20.57,9.2 20.57,20.56 0,11.36 -9.21,20.57 -20.57,20.57 -11.36,0 -20.57,-9.21 -20.57,-20.57 0,-11.36 9.21,-20.56 20.57,-20.56zm-166.02 534.81c-28.4,0 -51.4,-23.04 -51.4,-51.44 0,-28.4 23,-51.4 51.4,-51.4 28.4,0 51.44,23 51.44,51.4 0,28.4 -23.04,51.44 -51.44,51.44zm-85.93 -301.2c-10.16,0 -18.38,-8.22 -18.38,-18.35 0,-10.16 8.22,-18.38 18.38,-18.38 10.12,0 18.34,8.22 18.34,18.38 0,10.13 -8.22,18.35 -18.34,18.35zm-193.96 339.4c-8.5,0 -15.42,-6.91 -15.42,-15.45 0,-8.5 6.92,-15.41 15.42,-15.41 8.54,0 15.45,6.91 15.45,15.41 0,8.54 -6.91,15.45 -15.45,15.45zm1042.74 -513.11c3.07,-12.77 5.15,-25.93 5.15,-39.69 0,-93.48 -75.81,-169.3 -169.3,-169.3 -93.52,0 -169.33,75.82 -169.33,169.3 0,0.5 0.14,0.95 0.14,1.41 -7.09,-0.6 -14.11,-1.2 -21.24,-1.8 -14.82,-19.33 -36.69,-33.83 -62.19,-41.66 1.51,-8.29 2.57,-16.72 2.57,-25.43 0,-78.22 -63.39,-141.61 -141.57,-141.61 -52.6,0 -97.93,29 -122.38,71.54 -5.64,-1.41 -11.64,-2.29 -17.56,-3.28l-578.42 956.67c124.99,7.19 255.09,11.11 388.94,11.11 946.64,0 1714.04,-189.87 1714.04,-424.08 0,-154.05 -332.14,-288.92 -828.85,-363.18z"/>
   <path class="fil3" d="M4268.21 1270.47c-10.16,0 -18.37,8.22 -18.37,18.38 0,10.12 8.21,18.34 18.37,18.34 10.16,0 18.38,-8.22 18.38,-18.34 0,-10.16 -8.22,-18.38 -18.38,-18.38z"/>
   <path class="fil3" d="M4074.28 1615.74c-8.51,0 -15.42,6.91 -15.42,15.42 0,8.53 6.91,15.45 15.42,15.45 8.5,0 15.41,-6.92 15.41,-15.45 0,-8.51 -6.91,-15.42 -15.41,-15.42z"/>
   <path class="fil3" d="M4352.45 1505.57c-28.4,0.96 -50.63,24.73 -49.67,53.1 0.95,28.4 24.73,50.62 53.09,49.7 28.4,-0.95 50.62,-24.73 49.67,-53.12 -0.92,-28.37 -24.69,-50.63 -53.09,-49.68z"/>
   <path class="fil3" d="M4520.55 1307.2c-21.3,0 -38.56,17.29 -38.56,38.59 0,21.28 17.26,38.56 38.56,38.56 21.31,0 38.56,-17.28 38.56,-38.56 0,-21.3 -17.25,-38.59 -38.56,-38.59z"/>
   <path class="fil3" d="M4520.19 1226.4c11.36,0 20.56,-9.21 20.56,-20.57 0,-11.36 -9.2,-20.57 -20.56,-20.57 -11.36,0 -20.57,9.21 -20.57,20.57 0,11.36 9.21,20.57 20.57,20.57z"/>
   <path class="fil3" d="M4520.19 1114.74c11.36,0 20.56,-9.21 20.56,-20.57 0,-11.36 -9.2,-20.57 -20.56,-20.57 -11.36,0 -20.57,9.21 -20.57,20.57 0,11.36 9.21,20.57 20.57,20.57z"/>
   <path class="fil3" d="M4824.68 1202.89c-18.66,0 -33.8,15.14 -33.8,33.8 0,18.66 15.14,33.79 33.8,33.79 18.66,0 33.8,-15.13 33.8,-33.79 0,-18.66 -15.14,-33.8 -33.8,-33.8z"/>
   <path class="fil3" d="M5045.06 1288.84c-12.17,0 -22.05,9.88 -22.05,22.02 0,12.2 9.88,22.04 22.05,22.04 12.17,0 22.05,-9.84 22.05,-22.04 0,-12.14 -9.88,-22.02 -22.05,-22.02z"/>
   <path class="fil3" d="M4816.6 1505.55c-14.22,0 -25.72,11.5 -25.72,25.71 0,14.19 11.5,25.69 25.72,25.69 14.18,0 25.71,-11.5 25.71,-25.69 0,-14.21 -11.53,-25.71 -25.71,-25.71z"/>
   <path class="fil3" d="M4622.11 1631.17c-9.03,0 -16.33,7.3 -16.33,16.33 0,9.03 7.3,16.33 16.33,16.33 9.03,0 16.33,-7.3 16.33,-16.33 0,-9.03 -7.3,-16.33 -16.33,-16.33z"/>
   <path class="fil3" d="M4675 1479.11c-20.18,0 -36.55,16.36 -36.55,36.54 0,20.18 16.37,36.55 36.55,36.55 20.18,0 36.55,-16.37 36.55,-36.55 0,-20.18 -16.37,-36.54 -36.55,-36.54z"/>
   <path class="fil3" d="M4896.67 1684.8c-6.49,0 -11.75,5.25 -11.75,11.74 0,6.49 5.26,11.75 11.75,11.75 6.49,0 11.75,-5.26 11.75,-11.75 0,-6.49 -5.26,-11.74 -11.75,-11.74z"/>
   <path class="fil3" d="M5099.42 1515.64c-17.85,0 -32.32,14.46 -32.32,32.35 0,17.81 14.47,32.31 32.32,32.31 17.85,0 32.31,-14.5 32.31,-32.31 0,-17.89 -14.46,-32.35 -32.31,-32.35z"/>
   <path class="fil3" d="M5206.67 1437.97c-7.3,0 -13.22,5.92 -13.22,13.23 0,7.3 5.92,13.23 13.22,13.23 7.31,0 13.23,-5.93 13.23,-13.23 0,-7.31 -5.92,-13.23 -13.23,-13.23z"/>
   <path class="fil3" d="M5314.74 1355.09c-3.71,0 -6.71,3 -6.71,6.67 0,3.7 3,6.7 6.71,6.7 3.7,0 6.7,-3 6.7,-6.7 0,-3.67 -3,-6.67 -6.7,-6.67z"/>
   <path class="fil3" d="M5465.4 1408.58c7.38,0 13.38,-6 13.38,-13.37 0,-7.41 -6,-13.37 -13.38,-13.37 -7.37,0 -13.37,5.96 -13.37,13.37 0,7.37 6,13.37 13.37,13.37z"/>
   <path class="fil3" d="M5586.46 1451.18c-10.93,0 -19.82,8.89 -19.82,19.83 0,10.97 8.89,19.83 19.82,19.83 10.98,0 19.83,-8.86 19.83,-19.83 0,-10.94 -8.85,-19.83 -19.83,-19.83z"/>
   <path class="fil3" d="M5509.63 1623.09c-17.04,0 -30.87,13.83 -30.87,30.87 0,17.04 13.83,30.83 30.87,30.83 17.04,0 30.87,-13.79 30.87,-30.83 0,-17.04 -13.83,-30.87 -30.87,-30.87z"/>
   <path class="fil3" d="M5307.39 1696.54c-7.76,0 -14.04,6.28 -14.04,14.04 0,7.73 6.28,14.04 14.04,14.04 7.76,0 14.04,-6.31 14.04,-14.04 0,-7.76 -6.28,-14.04 -14.04,-14.04z"/>
   <path class="fil3" d="M5509.63 1528.47c0,-20.78 -16.82,-37.61 -37.6,-37.61 -20.78,0 -37.61,16.83 -37.61,37.61 0,20.77 16.83,37.6 37.61,37.6 20.78,0 37.6,-16.83 37.6,-37.6z"/>
   <path class="fil3" d="M5255.06 1556.96c-6.45,0 -11.67,5.22 -11.67,11.68 0,6.46 5.22,11.64 11.67,11.64 6.46,0 11.68,-5.18 11.68,-11.64 0,-6.46 -5.22,-11.68 -11.68,-11.68z"/>
   <path class="fil3" d="M5700.33 1452.66c-7.3,0 -13.23,5.93 -13.23,13.23 0,7.31 5.93,13.23 13.23,13.23 7.31,0 13.23,-5.92 13.23,-13.23 0,-7.3 -5.92,-13.23 -13.23,-13.23z"/>
   <polygon class="fil4" points="2748.67,3126.6 32.11,3126.6 32.11,2667.99 2748.67,2667.99 "/>
   <line class="fil5" x1="3495" y1="4225.98" x2="3495" y2= "4162.62" />
   <path class="fil6" d="M3490.6 4250.54c-9.8,28.08 -35.73,48.47 -67.27,49.49l-481.19 15.84c-14.6,0.46 -28.33,6.39 -38.63,16.72l-136.88 136.85c-16.79,16.82 -39.15,26.07 -62.97,26.07l-2671.55 0 0 -35.28 2671.55 0c14.4,0 27.87,-5.57 38.03,-15.73l136.84 -136.85c16.69,-16.68 38.85,-26.28 62.45,-27.06l481.19 -15.83c21.06,-0.68 37.57,-17.75 37.57,-38.78l0 -63.35c0,-21.1 -16.51,-38.14 -37.57,-38.84l-481.19 -15.77c-23.6,-0.78 -45.76,-10.41 -62.45,-27.1l-136.84 -136.84c-10.16,-10.16 -23.63,-15.73 -38.03,-15.73l-2671.55 0 0 -35.28 2671.55 0c23.82,0 46.18,9.28 63.01,26.07l136.81 136.84c10.33,10.34 24.06,16.26 38.66,16.76l481.19 15.77c31.54,1.06 57.47,21.45 67.27,49.56 0,0 3.21,40.33 0,112.47z"/>
   <path class="fil4" d="M3421.6 4141.42l-481.23 -15.77c-28.08,-0.98 -54.47,-12.41 -74.33,-32.24l-136.8 -136.84c-6.85,-6.85 -15.91,-10.58 -25.58,-10.58l-722.28 0 0 496.6 722.28 0c9.67,0 18.73,-3.74 25.54,-10.55l136.88 -136.88c19.82,-19.82 46.21,-31.25 74.33,-32.24l481.19 -15.8c11.5,-0.39 20.49,-9.63 20.49,-21.17l0 -63.32c0,-11.54 -8.99,-20.82 -20.49,-21.21z"/>
   <polygon class="fil7" points="1890.26,4442.6 1981.38,4442.6 1981.38,3946 1890.26,3946 "/>
   <path class="fil7" d="M1564.12 3963.21l0 462.17c0,9.49 7.72,17.22 17.21,17.22l200.56 0c9.52,0 17.21,-7.73 17.21,-17.22l0 -462.17c0,-9.53 -7.69,-17.22 -17.21,-17.22l-200.56 0c-9.49,0 -17.21,7.69 -17.21,17.22z"/>
   <polygon class="fil8" points="1799.1,4434.74 1890.22,4434.74 1890.22,3956.83 1799.1,3956.83 "/>
   <line class="fil5 str0" x1="2665.43" y1="4096.86" x2="2665.43" y2= "3911.97" />
   <line class="fil5 str0" x1="2365.38" y1="4096.86" x2="2365.38" y2= "3911.97" />
   <line class="fil5 str0" x1="2071.4" y1="4096.86" x2="2071.4" y2= "3911.97" />
   <line class="fil5 str0" x1="1771.36" y1="4096.86" x2="1771.36" y2= "3911.97" />
   <line class="fil5 str0" x1="1477.38" y1="4096.86" x2="1477.38" y2= "3911.97" />
   <line class="fil5 str0" x1="1195.52" y1="4096.86" x2="1195.52" y2= "3911.97" />
   <line class="fil5 str0" x1="901.54" y1="4096.86" x2="901.54" y2= "3911.97" />
   <line class="fil5 str0" x1="601.49" y1="4096.86" x2="601.49" y2= "3911.97" />
   <line class="fil5 str0" x1="307.51" y1="4096.86" x2="307.51" y2= "3911.97" />
   <line class="fil5 str0" x1="2665.43" y1="3177.5" x2="2665.43" y2= "2992.61" />
   <line class="fil5 str0" x1="2365.38" y1="3177.5" x2="2365.38" y2= "2992.61" />
   <line class="fil5 str0" x1="2071.4" y1="3177.5" x2="2071.4" y2= "2992.61" />
   <line class="fil5 str0" x1="1771.36" y1="3177.5" x2="1771.36" y2= "2992.61" />
   <line class="fil5 str0" x1="1477.38" y1="3177.5" x2="1477.38" y2= "2992.61" />
   <line class="fil5 str0" x1="1195.52" y1="3177.5" x2="1195.52" y2= "2992.61" />
   <line class="fil5 str0" x1="901.54" y1="3177.5" x2="901.54" y2= "2992.61" />
   <line class="fil5 str0" x1="601.49" y1="3177.5" x2="601.49" y2= "2992.61" />
   <line class="fil5 str0" x1="307.51" y1="3177.5" x2="307.51" y2= "2992.61" />
   <path class="fil9" d="M2333.43 4179.89c0,45.87 -37.18,83.05 -83.04,83.05 -45.87,0 -83.01,-37.18 -83.01,-83.05 0,-45.86 37.14,-83.04 83.01,-83.04 45.86,0 83.04,37.18 83.04,83.04z"/>
   <path class="fil9" d="M2416.46 4343.45c0,22.93 -18.59,41.52 -41.52,41.52 -22.93,0 -41.52,-18.59 -41.52,-41.52 0,-22.93 18.59,-41.52 41.52,-41.52 22.93,0 41.52,18.59 41.52,41.52z"/>
   <path class="fil9" d="M2550.24 4195.79c0,22.93 -18.6,41.52 -41.53,41.52 -22.93,0 -41.52,-18.59 -41.52,-41.52 0,-22.93 18.59,-41.52 41.52,-41.52 22.93,0 41.53,18.59 41.53,41.52z"/>
   <path class="fil9" d="M2230.91 2812.74c0,45.86 -37.18,83.05 -83.04,83.05 -45.86,0 -83.01,-37.19 -83.01,-83.05 0,-45.86 37.15,-83.04 83.01,-83.04 45.86,0 83.04,37.18 83.04,83.04z"/>
   <path class="fil9" d="M2313.95 2976.3c0,22.93 -18.6,41.52 -41.53,41.52 -22.93,0 -41.52,-18.59 -41.52,-41.52 0,-22.93 18.59,-41.52 41.52,-41.52 22.93,0 41.53,18.59 41.53,41.52z"/>
   <path class="fil9" d="M2447.72 2828.64c0,22.93 -18.59,41.52 -41.52,41.52 -22.93,0 -41.52,-18.59 -41.52,-41.52 0,-22.94 18.59,-41.53 41.52,-41.53 22.93,0 41.52,18.59 41.52,41.53z"/>
   <path class="fil10" d="M4351.15 4087.04l0 214.88 -521.06 -21.34c0,0 -35.27,-26.04 -35.27,-59.94 0,-33.9 9.98,-95.71 9.98,-95.71 0,0 33.87,-7.9 81.74,-16.9 47.87,-9.03 464.61,-20.99 464.61,-20.99z"/>
   <path class="fil4" d="M4360.96 4262.93c28.08,0.95 54.47,12.42 74.33,32.25l136.84 136.84c6.81,6.81 15.87,10.58 25.54,10.58l722.28 0 0 -496.6 -722.28 0c-9.67,0 -18.73,3.74 -25.51,10.51l-136.91 136.88c-19.82,19.86 -46.21,31.29 -74.29,32.24l0 137.3z"/>
   <polygon class="fil7" points="5411.09,3946 5319.97,3946 5319.97,4442.6 5411.09,4442.6 "/>
   <path class="fil7" d="M5737.22 4425.37l0 -462.17c0,-9.49 -7.72,-17.22 -17.21,-17.22l-200.56 0c-9.52,0 -17.21,7.73 -17.21,17.22l0 462.17c0,9.53 7.69,17.22 17.21,17.22l200.56 0c9.49,0 17.21,-7.69 17.21,-17.22z"/>
   <polygon class="fil8" points="5502.21,3953.83 5411.09,3953.83 5411.09,4431.74 5502.21,4431.74 "/>
   <line class="fil5 str0" x1="4644.98" y1="4292.53" x2="4644.98" y2= "4477.42" />
   <line class="fil5 str0" x1="4945.02" y1="4292.53" x2="4945.02" y2= "4477.42" />
   <line class="fil5 str0" x1="5239" y1="4292.53" x2="5239" y2= "4477.42" />
   <line class="fil5 str0" x1="5539.04" y1="4292.53" x2="5539.04" y2= "4477.42" />
   <line class="fil5 str0" x1="5833.03" y1="4292.53" x2="5833.03" y2= "4477.42" />
   <line class="fil5 str0" x1="6114.88" y1="4292.53" x2="6114.88" y2= "4477.42" />
   <line class="fil5 str0" x1="6408.87" y1="4292.53" x2="6408.87" y2= "4477.42" />
   <line class="fil5 str0" x1="6708.91" y1="4292.53" x2="6708.91" y2= "4477.42" />
   <line class="fil5 str0" x1="7002.89" y1="4292.53" x2="7002.89" y2= "4477.42" />
   <path class="fil6" d="M3855.26 4264.79c-21.06,-0.7 -37.57,-17.74 -37.57,-38.84l0 -63.32c0,-21.06 16.51,-38.14 37.57,-38.81l481.01 -15.8 0 172.54 -481.01 -15.77zm-68.44 -14.25c9.8,28.12 35.73,48.47 67.27,49.53l481.19 15.77c14.61,0.49 28.33,6.42 38.67,16.76l136.84 136.84c16.79,16.79 39.16,26.07 62.97,26.07l2671.55 0 0 -35.28 -2671.55 0c-14.39,0 -27.87,-5.57 -38.03,-15.73l-136.84 -136.84c-7.98,-7.98 -17.29,-14.26 -27.34,-18.81l0 -189.12c10.05,-4.55 19.33,-10.8 27.34,-18.8l136.87 -136.85c10.13,-10.16 23.61,-15.73 38,-15.73l2671.55 0 0 -35.28 -2671.55 0c-23.81,0 -46.18,9.28 -62.97,26.07l-136.88 136.84c-10.3,10.34 -24.02,16.27 -38.63,16.76l-481.19 15.81c-31.54,1.05 -57.47,21.41 -67.27,49.49 0,0 -10.48,51.05 0,112.5z"/>
   <line class="fil5 str1" x1="3796.26" y1="4192.79" x2="2665.43" y2= "4192.79" />
   <path class="fil10" d="M4351.15 2770.81l0 214.91 -521.06 -21.37c0,0 -35.27,-26.04 -35.27,-59.94 0,-33.9 9.98,-95.71 9.98,-95.71 0,0 33.87,-7.9 81.74,-16.9 47.87,-9.03 464.61,-20.99 464.61,-20.99z"/>
   <path class="fil4" d="M4360.96 2946.7c28.08,0.96 54.47,12.42 74.33,32.25l136.84 136.84c6.81,6.81 15.87,10.58 25.54,10.58l722.28 0 0 -496.6 -722.28 0c-9.67,0 -18.73,3.74 -25.51,10.51l-136.91 136.88c-19.82,19.86 -46.21,31.29 -74.29,32.24l0 137.3z"/>
   <polygon class="fil7" points="5411.09,2629.75 5319.97,2629.75 5319.97,3126.36 5411.09,3126.36 "/>
   <path class="fil7" d="M5737.22 3109.14l0 -462.17c0,-9.49 -7.72,-17.22 -17.21,-17.22l-200.56 0c-9.52,0 -17.21,7.73 -17.21,17.22l0 462.17c0,9.52 7.69,17.22 17.21,17.22l200.56 0c9.49,0 17.21,-7.7 17.21,-17.22z"/>
   <polygon class="fil8" points="5502.21,2637.62 5411.09,2637.62 5411.09,3115.52 5502.21,3115.52 "/>
   <line class="fil5 str0" x1="4644.98" y1="2976.3" x2="4644.98" y2= "3161.19" />
   <line class="fil5 str0" x1="4945.02" y1="2976.3" x2="4945.02" y2= "3161.19" />
   <line class="fil5 str0" x1="5239" y1="2976.3" x2="5239" y2= "3161.19" />
   <line class="fil5 str0" x1="5539.04" y1="2976.3" x2="5539.04" y2= "3161.19" />
   <line class="fil5 str0" x1="5833.03" y1="2976.3" x2="5833.03" y2= "3161.19" />
   <line class="fil5 str0" x1="6114.88" y1="2976.3" x2="6114.88" y2= "3161.19" />
   <line class="fil5 str0" x1="6408.87" y1="2976.3" x2="6408.87" y2= "3161.19" />
   <line class="fil5 str0" x1="6708.91" y1="2976.3" x2="6708.91" y2= "3161.19" />
   <line class="fil5 str0" x1="7002.89" y1="2976.3" x2="7002.89" y2= "3161.19" />
   <path class="fil6" d="M3855.26 2948.56c-21.06,-0.7 -37.57,-17.74 -37.57,-38.84l0 -63.32c0,-21.06 16.51,-38.14 37.57,-38.81l481.01 -15.8 0 172.54 -481.01 -15.77zm-68.44 -14.25c9.8,28.12 35.73,48.47 67.27,49.53l481.19 15.77c14.61,0.49 28.33,6.42 38.67,16.76l136.84 136.84c16.79,16.79 39.16,26.07 62.97,26.07l2671.55 0 0 -35.28 -2671.55 0c-14.39,0 -27.87,-5.57 -38.03,-15.73l-136.84 -136.85c-7.98,-7.97 -17.29,-14.25 -27.34,-18.8l0 -189.12c10.05,-4.55 19.33,-10.8 27.34,-18.81l136.87 -136.84c10.13,-10.16 23.61,-15.73 38,-15.73l2671.55 0 0 -35.28 -2671.55 0c-23.81,0 -46.18,9.28 -62.97,26.07l-136.88 136.84c-10.3,10.34 -24.02,16.27 -38.63,16.76l-481.19 15.8c-31.54,1.06 -57.47,21.42 -67.27,49.5 0,0 -10.48,51.05 0,112.5z"/>
   <line class="fil5 str1" x1="3796.26" y1="2876.56" x2="2665.43" y2= "2876.56" />
   <line class="fil5 str1" x1="32.11" y1="2610.65" x2="3182.3" y2= "2610.65" />
   <line class="fil5 str1" x1="32.11" y1="3175.1" x2="3182.3" y2= "3175.1" />
   <path class="fil5 str0" d="M3316.64 3405.87l-114.33 0c-11.01,0 -20.01,-8.99 -20.01,-20l0 -966.89c0,-11.01 9,-20.01 20.01,-20.01l114.33 0c11.01,0 20.01,9 20.01,20.01l0 966.89c0,11.01 -9,20 -20.01,20z"/>
   <path class="fil11" d="M3923.01 3730.33l-587.19 -587.2c66.53,-43.21 145.69,-68.58 230.75,-68.58 234.38,0 425.06,190.64 425.06,425.07 0,82.51 -23.99,161.96 -68.62,230.71zm-781.47 -230.71c0,-94.37 31.29,-181.37 83.5,-251.96l593.59 593.59c-72.11,53.19 -159.88,83.39 -252.06,83.39 -234.35,0 -425.03,-190.67 -425.03,-425.02zm425.03 -577.33c-318.31,0 -577.29,258.98 -577.29,577.33 0,318.27 258.98,577.28 577.29,577.28 192.12,0 371.05,-95.14 478.65,-254.46 64.56,-95.49 98.67,-207.11 98.67,-322.82 0,-318.35 -258.98,-577.33 -577.32,-577.33z"/>
   <path class="fil1" d="M3542.31 682.52c-235.44,0 -427,191.53 -427,427 0,235.41 191.56,426.94 427,426.94 235.41,0 426.97,-191.53 426.97,-426.94 0,-142.09 -70.38,-274.46 -188.28,-354.15 -70.59,-47.62 -153.1,-72.85 -238.69,-72.85zm0 1006.9c-319.79,0 -579.93,-260.17 -579.93,-579.9 0,-319.79 260.14,-579.93 579.93,-579.93 116.21,0 228.36,34.26 324.28,99.06 160.05,108.16 255.62,287.91 255.62,480.87 0,319.73 -260.14,579.9 -579.9,579.9z"/>
  </g>
 </g>
</svg>
