<?xml version="1.0" encoding="UTF-8"?>
<!DOCTYPE svg PUBLIC "-//W3C//DTD SVG 1.1//EN" "http://www.w3.org/Graphics/SVG/1.1/DTD/svg11.dtd">
<!-- Creator: CorelDRAW 2017 -->
<svg xmlns="http://www.w3.org/2000/svg" xml:space="preserve" width="16.2558mm" height="16.2558mm" version="1.1" style="shape-rendering:geometricPrecision; text-rendering:geometricPrecision; image-rendering:optimizeQuality; fill-rule:evenodd; clip-rule:evenodd"
viewBox="0 0 1625.58 1625.58"
 xmlns:xlink="http://www.w3.org/1999/xlink">
 <defs>
  <style type="text/css">
   <![CDATA[
    .fil2 {fill:#040404}
    .fil0 {fill:#417C9A}
    .fil1 {fill:#5EB0DE}
    .fil4 {fill:#B0B0B0}
    .fil3 {fill:white}
   ]]>
  </style>
 </defs>
 <g id="Capa_x0020_1">
  <metadata id="CorelCorpID_0Corel-Layer"/>
  <g id="_1403905250480">
   <g>
    <path class="fil0" d="M484.45 1152.6c2.44,6.26 0.53,2.6 4.61,8.21 2.47,3.4 2.92,3.55 5.83,6.46l37.77 32.29c78.82,45.84 130.89,-23.57 169.8,-64.38 29.84,-31.3 163.93,-167.58 177.65,-187.78 -12.18,-11.29 -36.55,-38.65 -51.61,-43.57 -52.81,52.88 -100.46,106.98 -153.49,160.84 -56.44,57.32 -95.12,131.06 -190.56,87.93z"/>
    <path class="fil0" d="M1188.8 104.72l3.86 -9.96c25.2,6.99 66.45,53.8 86.17,71.6l195.92 187.24c16.6,16.16 36.61,26.27 22.86,45.38 20.64,-3.29 21.65,-7.06 26.36,-32.27 -19.77,-27.9 -53.19,-54.69 -81.27,-81.61l-210.94 -201c-17.45,-12.34 -33.62,-9.55 -41.67,4.04 -9.58,16.16 -3.28,12.32 -1.29,16.58z"/>
    <path class="fil0" d="M1132.44 444.93c3.91,10.28 -3.56,-1.13 7.62,11.88l28.04 23.14c31.56,-42.63 146.82,-146.12 160.38,-174.04l-29.54 -24.94c-0.99,17.43 -23.79,33.4 -36.36,46.07l-118.89 125.72 -11.25 -7.83z"/>
   </g>
   <g>
    <path class="fil1" d="M484.45 1152.6c95.44,43.13 134.12,-30.61 190.56,-87.93 53.03,-53.86 100.68,-107.96 153.49,-160.84l1.74 -5.48 -164.13 -152.29 -16.73 16.32c14.36,31.28 76.72,53.89 56.72,80.25 -17.95,23.64 -66.77,-38.35 -82.23,-50.81 -11.7,5.04 -45.28,41.21 -52.78,54.25 16.12,14.61 30.62,28.32 47.28,44.75 17.7,17.47 41.12,26.97 21.63,53.31 -33.37,2.25 -65.99,-56.44 -97.03,-71.78l-39.45 43.81c8.33,14.96 69.24,50.75 50.96,73.95 -19.37,24.58 -58.69,-34.9 -79.32,-45.51 -55.33,45.34 -83.71,105.04 -35.01,168.94 9.21,12.09 31.7,34.11 44.3,39.06z"/>
    <path class="fil1" d="M1188.8 104.72c-1.92,19.25 42.14,52.24 67.01,76.87 24.19,23.97 52.17,49.66 78.31,74.74 22.01,21.13 140.99,144.07 163.49,142.65 13.75,-19.11 -6.26,-29.22 -22.86,-45.38l-195.92 -187.24c-19.72,-17.8 -60.97,-64.61 -86.17,-71.6l-3.86 9.96z"/>
    <path class="fil1" d="M1132.44 444.93l11.25 7.83 118.89 -125.72c12.57,-12.67 35.37,-28.64 36.36,-46.07l-15.31 -13.39 -159.96 169.27c4.1,8.26 -1.68,4.02 8.77,8.08z"/>
    <path class="fil1" d="M423.64 1269.89c25.73,8.26 35,4.85 49.07,-9.05 11.96,-11.8 23.48,-23.37 32.64,-35.87l-21.43 -18.53c-12.88,6.25 -53.13,48.26 -60.28,63.45z"/>
    <path class="fil1" d="M367.74 1215.93c15.27,-13.33 49.17,-46.84 59.58,-65.06l-19.93 -18.46c-25.3,16 -58.63,49.82 -39.65,83.52z"/>
   </g>
   <path class="fil2" d="M423.64 1269.89c7.15,-15.19 47.4,-57.2 60.28,-63.45l21.43 18.53c-9.16,12.5 -20.68,24.07 -32.64,35.87 -14.07,13.9 -23.34,17.31 -49.07,9.05zm-55.9 -53.96c-18.98,-33.7 14.35,-67.52 39.65,-83.52l19.93 18.46c-10.41,18.22 -44.31,51.73 -59.58,65.06zm512.37 -268.53c-13.72,20.2 -147.81,156.48 -177.65,187.78 -38.91,40.81 -90.98,110.22 -169.8,64.38l-37.77 -32.29c-2.91,-2.91 -3.36,-3.06 -5.83,-6.46 -4.08,-5.61 -2.17,-1.95 -4.61,-8.21 -12.6,-4.95 -35.09,-26.97 -44.3,-39.06 -48.7,-63.9 -20.32,-123.6 35.01,-168.94 20.63,10.61 59.95,70.09 79.32,45.51 18.28,-23.2 -42.63,-58.99 -50.96,-73.95l39.45 -43.81c31.04,15.34 63.66,74.03 97.03,71.78 19.49,-26.34 -3.93,-35.84 -21.63,-53.31 -16.66,-16.43 -31.16,-30.14 -47.28,-44.75 7.5,-13.04 41.08,-49.21 52.78,-54.25 15.46,12.46 64.28,74.45 82.23,50.81 20,-26.36 -42.36,-48.97 -56.72,-80.25l16.73 -16.32 32.48 -35.9c26.82,17.83 66.13,77.94 97.22,71.89 23.36,-38.56 -35.92,-50.81 -69.2,-99.19 10.83,-17.82 34.36,-36.21 47.85,-53.98 23.78,14.23 46.62,52.67 69.72,53.12 45.98,-8.83 -30.24,-68.54 -41.86,-77.5 12.84,-20.17 181.17,-195.38 207.23,-219.44 13.03,5.73 156.26,142.09 164.8,155.52 14.21,9.7 43.58,35.52 49.42,48.24l-343.66 358.58zm252.33 -502.47c-10.45,-4.06 -4.67,0.18 -8.77,-8.08l159.96 -169.27 15.31 13.39 29.54 24.94c-13.56,27.92 -128.82,131.41 -160.38,174.04l-28.04 -23.14c-11.18,-13.01 -3.71,-1.6 -7.62,-11.88zm365.17 -45.95c-22.5,1.42 -141.48,-121.52 -163.49,-142.65 -26.14,-25.08 -54.12,-50.77 -78.31,-74.74 -24.87,-24.63 -68.93,-57.62 -67.01,-76.87 -1.99,-4.26 -8.29,-0.42 1.29,-16.58 8.05,-13.59 24.22,-16.38 41.67,-4.04l210.94 201c28.08,26.92 61.5,53.71 81.27,81.61 -4.71,25.21 -5.72,28.98 -26.36,32.27zm-1269.6 1028.73c86.55,-91.96 48.71,-48.82 86.82,-66.91 25.55,-12.12 25.09,-35.64 63.76,-53.05 11.14,-5.01 9.84,-7.28 20.58,-11.1 79.04,46.21 102.74,-31.34 142.72,-53.65 105.23,26.85 146.15,-39.97 207.52,-104.98 56.18,-59.52 109.94,-116.22 167.67,-175.06 38.31,-39.05 321.33,-341.09 335.73,-348.36 42.27,29.28 63.61,79.03 88.04,63.15 22.78,-16.48 -4.98,-34.97 -18.56,-47.86 -30.09,-28.55 -106.53,-106.1 -129.53,-121.88 8.63,-16.61 148.34,-163.3 166.04,-176.16 26.39,15.97 67.26,64.06 94.37,87.69 40.12,34.95 98.33,12.2 104.87,-39.13 5.57,-43.72 -40.97,-72.5 -70.05,-100.41 -31.45,-30.18 -59.17,-56.88 -90.58,-86.83 -31.54,-30.07 -61.09,-58.84 -92.58,-88.81 -27.84,-26.49 -64.6,-75.82 -110.29,-61.31 -48.24,15.32 -58.51,70.91 -24.24,106.65 22.84,23.82 67.19,67.19 92.85,87.14l-166.65 174.96c-20.13,-12.6 -64.62,-59.27 -83.35,-77.57 -21.22,-20.75 -71.21,-77.09 -89.78,-69.66 -27.79,14.06 0.54,34.85 14.35,47.92 15.7,14.85 30.37,30.97 46.96,42.77 -15.49,23.86 -357.42,376.55 -386.88,407.43l-192.26 203.58c-55.74,78.12 0.01,114.46 -30.77,145.91 -27.83,28.43 -78.22,80 -32.8,127.78 -14.1,26.69 -13.81,33.94 -33.95,54.79 -15.03,15.56 -26.1,22.6 -30.9,48.82 -7.93,43.35 -213.04,211.54 -210,241.52 16.92,1.25 30.51,-20.91 42.62,-33.67l118.27 -123.71z"/>
   <path class="fil3" d="M666.11 746.06l164.13 152.29c9.43,-4.13 317.47,-326.24 344.11,-357.77 -8.54,-13.43 -151.77,-149.79 -164.8,-155.52 -26.06,24.06 -194.39,199.27 -207.23,219.44 11.62,8.96 87.84,68.67 41.86,77.5 -23.1,-0.45 -45.94,-38.89 -69.72,-53.12 -13.49,17.77 -37.02,36.16 -47.85,53.98 33.28,48.38 92.56,60.63 69.2,99.19 -31.09,6.05 -70.4,-54.06 -97.22,-71.89l-32.48 35.9z"/>
   <path class="fil4" d="M830.24 898.35l-1.74 5.48c15.06,4.92 39.43,32.28 51.61,43.57l343.66 -358.58c-5.84,-12.72 -35.21,-38.54 -49.42,-48.24 -26.64,31.53 -334.68,353.64 -344.11,357.77z"/>
  </g>
 </g>
</svg>
