<?xml version="1.0" encoding="UTF-8"?>
<!DOCTYPE svg PUBLIC "-//W3C//DTD SVG 1.1//EN" "http://www.w3.org/Graphics/SVG/1.1/DTD/svg11.dtd">
<!-- Creator: CorelDRAW 2017 -->
<svg xmlns="http://www.w3.org/2000/svg" xml:space="preserve" width="25.3998mm" height="28.0246mm" version="1.1" style="shape-rendering:geometricPrecision; text-rendering:geometricPrecision; image-rendering:optimizeQuality; fill-rule:evenodd; clip-rule:evenodd"
viewBox="0 0 2539.98 2802.46"
 xmlns:xlink="http://www.w3.org/1999/xlink">
 <defs>
  <style type="text/css">
   <![CDATA[
    .fil1 {fill:#373435}
    .fil0 {fill:url(#id0)}
   ]]>
  </style>
  <linearGradient id="id0" gradientUnits="userSpaceOnUse" x1="1632.47" y1="2553.16" x2="2609.76" y2="1258.56">
   <stop offset="0" style="stop-opacity:1; stop-color:#3E4095"/>
   <stop offset="0.478431" style="stop-opacity:1; stop-color:#00AFEF"/>
   <stop offset="1" style="stop-opacity:1; stop-color:#585570"/>
  </linearGradient>
 </defs>
 <g id="Capa_x0020_1">
  <metadata id="CorelCorpID_0Corel-Layer"/>
  <path class="fil0" d="M1454.07 2322.3l301.63 -899.67 469.3 1.45 -770.93 898.22zm-183.59 100.07l-349.5 -994.07 681.95 -3.78 -332.45 997.85zm-832.52 -994.01l332.21 -4.72 314.83 893.84 -771.9 -875.02c-10.83,-4.81 -20.9,-11.32 -29.69,-19.55 -51.04,-47.76 -38.31,-120.73 -20.18,-181.36 23.74,-79.36 30.54,-49.92 -9.95,-149.05 -229.85,321.98 -229.04,230.08 73.12,572.06l859.69 997.83c93.88,90.37 164.21,-9.86 223.57,-82.22 179.99,-219.39 1003.34,-1121.06 1040.97,-1212.35 -20.76,-86.76 -303.41,-472.44 -373.48,-579.49l-1319.58 -1.75c-14.22,51.4 -36.16,100.03 -62.06,131.26l418.91 3.24 -283.09 321.2 -181.04 -288.78c-25.46,12.87 -20.71,-1.17 -36.13,28.55 -11.44,22.04 -31.51,63.69 -48.29,104.38l130.43 207.06 -150.53 0.37c-7.75,17.8 -21.68,34.88 -45.1,48.75 -49.62,29.38 -16.63,48.08 -58.64,82.56 -1.33,1.1 -2.69,2.16 -4.07,3.19zm1598.24 -447.52c35.87,32.91 199.03,268.26 208.4,313.87l-413.74 -5.97 205.34 -307.9zm-767.15 -22.49l281.87 335.68 -574.47 -6.34 292.6 -329.34zm443.01 284.29c-43.49,-28.12 -258.36,-261.25 -288.76,-325.55l478.78 0.15c-33.32,112.52 -153.6,208.47 -190.02,325.4z"/>
  <path class="fil1" d="M499.92 1264.9c29.11,-95.79 -86.35,7.29 66.76,-303.81 28.39,-57.68 18.92,-38.11 53,-49.95 108.08,-37.55 149.08,-391.79 45.42,-460.03 -68.09,-44.82 -92.13,0.91 -148.62,21.85 -92.15,34.16 -90.17,-0.78 -104.38,-76.13l-13.81 -8.44c-61.85,-30.54 -68.62,-29.03 -71.95,-2.11 -4.37,35.38 8.3,87.44 21.25,114.51 44.15,92.23 127.91,69.19 179.91,62.38l-3.61 106.08c39.6,-49.57 33.79,-167.7 63.62,-186.92 32.73,-21.09 74.24,-2.26 81.62,31.45 14.19,64.9 -42.66,259.3 -169.8,323.2 -100.52,50.53 -41.91,-19.04 -170.71,81.73 -23.93,18.72 -50.72,30.73 -51.62,71.26 -0.96,43.43 59.97,150.32 58.44,184.16 -2.23,49.28 -62.79,151.24 -26.84,200.13 15.99,21.76 53.14,39.05 87.74,19.21 34.53,-19.8 26.9,-45.14 43.39,-80.38 30.92,-13.08 49.82,-14.03 60.19,-48.19z"/>
  <path class="fil1" d="M496.2 199.29c-152.74,48.12 -79.11,277.31 73.36,228.86 142.97,-45.44 84.5,-278.59 -73.36,-228.86z"/>
  <path class="fil1" d="M660.35 546.71c9.64,-73.9 -57.9,-79.53 -78.48,-44.31 -6.57,11.23 -19.72,104.2 -30.98,133.95 -54.66,144.31 -159.1,116.64 -177.76,152.01 -11.89,22.53 -2.42,50.84 14.15,59.39 22.33,11.51 50.51,3.28 72.4,-3.9 126.49,-41.45 182.69,-159.2 200.67,-297.14z"/>
  <path class="fil1" d="M228.82 304.62c10.54,14.89 45.77,24 62.83,30.63 18.84,7.33 52.43,25.64 67.32,21.84 29.81,-22.23 -38.8,-36.61 -56.06,-43.42 -15.05,-5.94 -26.65,-10.95 -40.45,-16.55 -24.06,-9.77 -26.16,-15.94 -33.64,7.5z"/>
  <path class="fil1" d="M259.14 173.67l-40.14 5.61c-8.48,29.68 -4.88,64.98 -4.85,96.44l12.37 0.38c-0.02,-27.08 -3.4,-68.19 5.56,-87.47 22.65,-4.56 29.4,0.83 47.55,-8.44 -7.72,-28.58 -30.16,-18.58 -22.81,-54.39 21.52,-12.55 29.96,-1.74 38.57,-16.91 -17.19,-9.66 -45.06,1.12 -51.65,14.44 -11.65,23.6 7.8,32.92 15.4,50.34z"/>
  <path class="fil1" d="M246.73 268.75l9.12 2.16c0.45,-7.7 -0.19,-18.48 0.3,-23.19 1.47,-14.11 0.06,-6.84 4.46,-15.75 17.76,-37.05 66.2,-4.48 90.34,-42.77 12.01,-19.05 4.74,-37.45 13.51,-53.77 12.48,-23.23 27.82,-8.46 42.13,-26.54 -0.05,-0.02 -4.88,-11.17 -31.74,0.91 -40.14,18.04 -15.63,59.26 -43.79,80.07 -45.11,33.33 -91.51,-20.28 -84.33,78.88z"/>
  <path class="fil1" d="M369.15 361.34c10.12,12.84 37.62,22 54.47,24.38 -16.44,-31.67 -9.21,-31.98 -49.96,-40.82l-4.51 16.44z"/>
  <path class="fil1" d="M246.73 268.75c6.19,9.37 -8.13,9.42 10.96,7.3l2.92 -44.08c-4.4,8.91 -2.99,1.64 -4.46,15.75 -0.49,4.71 0.15,15.49 -0.3,23.19l-9.12 -2.16z"/>
 </g>
</svg>
