<?xml version="1.0" encoding="UTF-8"?>
<!DOCTYPE svg PUBLIC "-//W3C//DTD SVG 1.1//EN" "http://www.w3.org/Graphics/SVG/1.1/DTD/svg11.dtd">
<!-- Creator: CorelDRAW 2017 -->
<svg xmlns="http://www.w3.org/2000/svg" xml:space="preserve" width="25.3998mm" height="25.3998mm" version="1.1" style="shape-rendering:geometricPrecision; text-rendering:geometricPrecision; image-rendering:optimizeQuality; fill-rule:evenodd; clip-rule:evenodd"
viewBox="0 0 2539.98 2539.98"
 xmlns:xlink="http://www.w3.org/1999/xlink">
 <defs>
  <style type="text/css">
   <![CDATA[
    .fil0 {fill:none}
    .fil1 {fill:#3E4095}
   ]]>
  </style>
 </defs>
 <g id="Capa_x0020_1">
  <metadata id="CorelCorpID_0Corel-Layer"/>
  <rect class="fil0" x="-0.01" y="-0.01" width="2539.99" height="2539.99"/>
  <g id="_2685554603792">
   <path class="fil1" d="M1275.37 1998.76c29.33,-77.96 73.59,-158.18 108.49,-237.16 54.78,-124.02 315.42,-654.66 320.88,-709.23l-870.16 -0.22c7.86,51.32 419.89,926.43 440.79,946.61z"/>
   <path class="fil1" d="M855.14 963.46c214.73,10.58 592.33,2.61 827.5,2.26 -33.13,-103.95 -210.67,-356.88 -232.4,-416.14l-361.35 -0.64c-22.02,52.74 -85.71,148.57 -118.71,205.15 -32.79,56.19 -94.44,151.98 -115.04,209.37z"/>
   <path class="fil1" d="M340.96 965.87l399.89 -0.21c51.46,-114.25 202.3,-332.94 229.82,-416.23 -86.36,-2.78 -174.49,-0.6 -261.15,-1.37 -86.6,-0.76 -67.89,2.4 -151.31,110.36 -40.79,52.78 -204.8,256.77 -217.25,307.45z"/>
   <path class="fil1" d="M1572.71 555c6.72,37.61 210.37,380.54 239.64,408.21l386.66 2.62c-19.4,-54.03 -216.52,-305.51 -275.66,-381.64 -27.96,-36 -25.88,-40.9 -91.19,-42.7 -82.47,-2.26 -175.34,10.06 -259.45,13.51z"/>
   <path class="fil1" d="M1464.79 1825.4c42.39,-21.57 137.71,-146.09 179.73,-186.49l349.76 -388.34c32.3,-36.14 56.6,-65.36 85.79,-96.16 18.71,-19.75 74.18,-76.87 83.62,-101.49l-351.34 -0.63 -347.56 773.11z"/>
   <path class="fil1" d="M1073 1823.9l-345.89 -771.12 -348.78 0.29c18.86,45.47 641.99,730.41 694.67,770.83z"/>
  </g>
 </g>
</svg>
