<?xml version="1.0" encoding="UTF-8"?>
<!DOCTYPE svg PUBLIC "-//W3C//DTD SVG 1.1//EN" "http://www.w3.org/Graphics/SVG/1.1/DTD/svg11.dtd">
<!-- Creator: CorelDRAW 2017 -->
<svg xmlns="http://www.w3.org/2000/svg" xml:space="preserve" width="25.3998mm" height="25.3998mm" version="1.1" style="shape-rendering:geometricPrecision; text-rendering:geometricPrecision; image-rendering:optimizeQuality; fill-rule:evenodd; clip-rule:evenodd"
viewBox="0 0 2539.98 2539.98"
 xmlns:xlink="http://www.w3.org/1999/xlink">
 <defs>
  <style type="text/css">
   <![CDATA[
    .fil0 {fill:none}
    .fil1 {fill:#3E4095}
   ]]>
  </style>
 </defs>
 <g id="Capa_x0020_1">
  <metadata id="CorelCorpID_0Corel-Layer"/>
  <rect class="fil0" x="-0.01" y="-0.01" width="2539.99" height="2539.99"/>
  <g id="_2685379006848">
   <path class="fil1" d="M1273.74 2240.69l343.64 -1284.56 -44.33 -0.76 -658.6 0.13c5.09,97.11 329.23,1249.85 359.29,1285.19z"/>
   <path class="fil1" d="M1437.92 2052.21c41.88,-34.1 74.27,-85.43 110.02,-130.83l720.56 -889.77c28.49,-33.12 44.33,-30.99 51.11,-72.83l-593.18 -3.28c-45.44,88.61 -279.66,975.81 -288.51,1096.71z"/>
   <path class="fil1" d="M1096.03 2023.84l-286 -1065.7 -593.21 -2.77c27.36,61.4 579.28,725.07 646.73,808.95 47.54,59.11 181.1,235.13 232.48,259.52z"/>
   <path class="fil1" d="M180.35 857.17l405.23 1c9.3,-2.8 266.35,-252.64 287.06,-301.27 -44.2,-42.36 -190.19,-196.35 -239.05,-222.84 -30.54,19.36 -25.96,26.52 -57.55,59.95l-286.9 316.96c-37.53,39.48 -95.5,84.91 -108.79,146.2z"/>
   <path class="fil1" d="M1665.05 556.9c17.72,32.89 177.62,187.31 229.26,234.55 138.34,126.53 206.13,56.17 465.33,65.01 -22.38,-55.32 -432.12,-507.18 -470.24,-529.28 -41.43,31.25 -194.24,182.71 -224.35,229.72z"/>
   <path class="fil1" d="M1022.43 566.49c20.6,29.49 35.97,29.81 66.2,53.14l124.84 114.76c23.53,21.06 39.08,43.05 62.13,60.06l239.93 -234.41c-19.94,-37.53 -206.07,-206.83 -258.83,-233.64 -17.41,8.29 -222.43,204.76 -234.27,240.09z"/>
   <path class="fil1" d="M1371.5 856.5l452.54 -0.28c-17.14,-34.5 -87.32,-87.72 -115.38,-118.6 -26.2,-28.82 -82.68,-84.72 -126.02,-106.41 -47.99,28.17 -74.74,70.64 -108.31,104.9 -28.72,29.32 -90.46,70.77 -102.83,120.39z"/>
   <path class="fil1" d="M745.18 858.22l431.04 -0.03c-27.18,-59.75 -172.91,-194.71 -234.47,-221.81 -58.89,66.8 -183.76,175.1 -196.57,221.84z"/>
   <path class="fil1" d="M936.85 490.26c52.23,-16.71 176.07,-135.81 188.35,-190.69l-370.87 1.09c3.45,25.64 132.28,127.71 182.52,189.6z"/>
   <path class="fil1" d="M1394.41 300.38c15.06,31.77 14.44,27.1 46.78,53.31 50.82,41.18 99.1,105.7 141.45,126.14 42.74,-29.99 165.85,-134.32 171.4,-180.55l-359.63 1.1z"/>
  </g>
 </g>
</svg>
