<?xml version="1.0" encoding="UTF-8"?>
<!DOCTYPE svg PUBLIC "-//W3C//DTD SVG 1.1//EN" "http://www.w3.org/Graphics/SVG/1.1/DTD/svg11.dtd">
<!-- Creator: CorelDRAW 2017 -->
<svg xmlns="http://www.w3.org/2000/svg" xml:space="preserve" width="25.3998mm" height="25.3998mm" version="1.1" style="shape-rendering:geometricPrecision; text-rendering:geometricPrecision; image-rendering:optimizeQuality; fill-rule:evenodd; clip-rule:evenodd"
viewBox="0 0 2539.98 2539.98"
 xmlns:xlink="http://www.w3.org/1999/xlink">
 <defs>
  <style type="text/css">
   <![CDATA[
    .fil0 {fill:none}
    .fil1 {fill:#3E4095}
   ]]>
  </style>
 </defs>
 <g id="Capa_x0020_1">
  <metadata id="CorelCorpID_0Corel-Layer"/>
  <rect class="fil0" x="-0.01" y="-0.01" width="2539.99" height="2539.99"/>
  <g id="_2685674493232">
   <path class="fil1" d="M1278.46 2020.01c20.49,-36.22 304.51,-954.56 305,-980l-610.27 0.04c-1.13,69.05 274.94,939.19 305.27,979.96z"/>
   <path class="fil1" d="M1724.97 1042.14c-47.09,139.94 -243.05,752.82 -257.05,860.21 29.29,-22.53 144.66,-180.12 173.63,-215.43 112.08,-136.61 453.24,-533.63 498.13,-658.84 -147.56,23.11 -281.41,-3.83 -414.71,14.06z"/>
   <path class="fil1" d="M399.04 1064.12c25.31,32.89 54.58,61.37 83.2,97.38 114.07,143.56 535.16,689.9 605.06,731.32 -8.58,-43.3 -237.19,-775.12 -272.78,-851.76 -82.42,-3.89 -363.66,-14.84 -415.48,23.06z"/>
   <path class="fil1" d="M1021.51 892.41c272.47,4.73 258.9,11.81 511.95,-9.26l-130.9 -162.4c-35.84,-48.97 -100.3,-133.45 -146.64,-156.51 -44.46,113.6 -181.36,203.64 -234.41,328.17z"/>
   <path class="fil1" d="M1433.33 538.86c13.11,27.55 37.01,47.99 57.44,74.54 22.26,28.93 41.24,51.1 63.95,79.74 34.35,43.34 89.42,119.37 135.95,141.52 29.62,-42.04 167.33,-277.49 169.44,-310.87 -130.65,0.09 -308.83,-15.36 -426.78,15.07z"/>
   <path class="fil1" d="M888.65 835.64c56.33,-117.95 213.1,-257.74 232.2,-311.59l-424.16 -0.48c2.89,39.29 58.05,126.1 79.28,162.29l75.75 115.67c21.97,27.66 8.85,18.45 36.93,34.11z"/>
   <path class="fil1" d="M1810.66 895.86l365.4 0.26c-18.84,-61.2 -149.88,-263.21 -188.21,-308.57 -5.92,5.37 -5.18,3.81 -12.69,14.93 -4.59,6.8 -5.91,9.35 -10.48,17.83 -45.41,84.35 -136.08,221.93 -154.02,275.55z"/>
   <path class="fil1" d="M363.92 895.7l365.7 -0.02c-19.82,-50.87 -57.66,-110.1 -84.96,-155.17 -15.03,-24.8 -26.13,-44.2 -44.33,-70.75 -6.68,-9.74 -17.07,-25.4 -23.38,-33.96 -23.31,-31.69 -5.27,-18.32 -36.64,-33.25 -25.93,29.95 -164.99,253.63 -176.39,293.15z"/>
  </g>
 </g>
</svg>
