<?xml version="1.0" encoding="UTF-8"?>
<!DOCTYPE svg PUBLIC "-//W3C//DTD SVG 1.1//EN" "http://www.w3.org/Graphics/SVG/1.1/DTD/svg11.dtd">
<!-- Creator: CorelDRAW 2017 -->
<svg xmlns="http://www.w3.org/2000/svg" xml:space="preserve" width="25.3998mm" height="25.3998mm" version="1.1" style="shape-rendering:geometricPrecision; text-rendering:geometricPrecision; image-rendering:optimizeQuality; fill-rule:evenodd; clip-rule:evenodd"
viewBox="0 0 2539.98 2539.98"
 xmlns:xlink="http://www.w3.org/1999/xlink">
 <defs>
  <style type="text/css">
   <![CDATA[
    .fil0 {fill:none}
    .fil1 {fill:#3E4095}
   ]]>
  </style>
 </defs>
 <g id="Capa_x0020_1">
  <metadata id="CorelCorpID_0Corel-Layer"/>
  <rect class="fil0" x="-0.01" y="-0.01" width="2539.99" height="2539.99"/>
  <g id="_2685601718176">
   <path class="fil1" d="M474.22 2214.72c66.61,52.98 1172.04,18.28 1424.3,27.53 73.84,2.71 137.55,22.21 176.3,-37.11 -39.09,-27.86 -777.35,-331.43 -808.78,-330.94 -22.58,0.35 -346.22,140.12 -399.12,161.99 -84.49,34.93 -340.14,131.26 -392.7,178.53z"/>
   <path class="fil1" d="M300.9 700.7l-3.61 1044.48c0,76.83 -9.15,271.76 29.07,323.58 43.51,-29.01 148.04,-322.07 175.9,-387.14 22.69,-52.99 161.98,-381.97 164.79,-408.54 2.84,-26.74 -239.54,-597.85 -288.51,-710.75 -7.32,-16.87 -12.32,-27.74 -21,-45.99 -1.51,-3.18 -12.55,-25.09 -12.88,-25.61l-18.3 -21.22c-30.86,32.42 -23.2,37.27 -23.46,96.6 -0.2,44.86 -2,90.01 -2,134.59z"/>
   <path class="fil1" d="M472.08 318.67c32.22,34.15 749.27,346.13 801.68,340.78 36.62,-3.75 747.05,-306.14 802.65,-338.04 -139.02,-44 -1452.76,-24.7 -1548.73,-24.59 -29.95,0.06 -42.93,7.6 -55.6,21.85z"/>
   <path class="fil1" d="M2214.87 2062.14l13.97 -34.57c2.49,-11.43 3.63,-30.51 4.7,-42.77 14.8,-170.51 9.09,-544.88 8.53,-718.74 -0.34,-107.19 7.09,-760.04 -27.2,-802.53 -30.08,11.66 -38.21,54.97 -48.95,82.75 -12.93,33.46 -26.93,69.26 -40.74,102.78 -41.57,100.9 -238.12,568.96 -242.66,610 -3.41,30.89 295.94,748.88 332.35,803.08z"/>
   <path class="fil1" d="M1227.28 1143.23l-0.1 -403.69c-165.17,-65.99 -558.16,-241.79 -698.48,-274.92 27.91,46.67 509.51,517.15 597.64,605.48 29.22,29.29 52.59,67.65 100.94,73.13z"/>
   <path class="fil1" d="M1387.49 1228.84l414.73 -1.44c37.45,-112.62 91.16,-239.58 139.37,-349.94 26.04,-59.58 133.01,-304.32 136.7,-354.72 -22.81,11.33 -301.9,300.89 -346.94,346.25 -66.35,66.82 -311.59,299.28 -343.86,359.85z"/>
   <path class="fil1" d="M1310.02 1773.93c26.02,39.32 636.78,287.64 691.05,303.37 -4.1,-34.05 -127.92,-146.57 -160.17,-178.7l-430.54 -432.05c-28.05,-28 -57.43,-72.06 -97.31,-84.13l-3.03 391.51z"/>
   <path class="fil1" d="M1313.8 748.61l1.84 398.34c109.14,-70.15 397.51,-384.84 520.53,-508.59 29.77,-29.96 155.68,-149.61 169.6,-177.91 -88.74,21.9 -255.24,101.27 -350.43,141.18 -82.95,34.78 -271.73,100.61 -341.54,146.98z"/>
   <path class="fil1" d="M534.11 2072.49l693.24 -278.99c0.04,-95.21 13.53,-328.56 -7.38,-403.3 -22.56,-7.3 -131.04,122.56 -169.05,159.35 -65.33,63.21 -114.49,109.72 -174.89,170.14 -59.69,59.71 -318.06,302.41 -341.92,352.8z"/>
   <path class="fil1" d="M2080.88 1994.95l-278.73 -680.47 -411.5 -1.15c5.96,30.67 8.32,26.72 29.18,47.72l132.54 126.52c104.04,95.31 456.42,469.1 528.51,507.38z"/>
   <path class="fil1" d="M468.2 1997.69c36.66,-16.98 61.71,-53.06 89.74,-78.47l261.37 -256.2c53.8,-57.64 323.64,-317.43 342.16,-349.93l-394.13 -1.58c-27.93,8.29 -137.19,292.16 -155.37,335.82 -38.72,92.99 -123.87,263.95 -143.77,350.36z"/>
   <path class="fil1" d="M746.49 1228.13l406.45 0.65c-21.48,-40.47 -53.75,-62.28 -82.43,-93.24 -73.13,-78.97 -565.25,-577.96 -606.16,-605.19l282.14 697.78z"/>
  </g>
 </g>
</svg>
