<?xml version="1.0" encoding="UTF-8"?>
<!DOCTYPE svg PUBLIC "-//W3C//DTD SVG 1.1//EN" "http://www.w3.org/Graphics/SVG/1.1/DTD/svg11.dtd">
<!-- Creator: CorelDRAW 2017 -->
<svg xmlns="http://www.w3.org/2000/svg" xml:space="preserve" width="25.3998mm" height="25.3998mm" version="1.1" style="shape-rendering:geometricPrecision; text-rendering:geometricPrecision; image-rendering:optimizeQuality; fill-rule:evenodd; clip-rule:evenodd"
viewBox="0 0 2539.98 2539.98"
 xmlns:xlink="http://www.w3.org/1999/xlink">
 <defs>
  <style type="text/css">
   <![CDATA[
    .fil0 {fill:none}
    .fil1 {fill:#3E4095}
   ]]>
  </style>
 </defs>
 <g id="Capa_x0020_1">
  <metadata id="CorelCorpID_0Corel-Layer"/>
  <rect class="fil0" x="-0.01" y="-0.01" width="2539.99" height="2539.99"/>
  <g id="_2685553336288">
   <path class="fil1" d="M1299.06 2021.44c22.62,-38.86 310.79,-1067.78 323.81,-1156.58l-344.79 -1.78c-14.16,152.38 -1.7,1014.34 20.98,1158.36z"/>
   <path class="fil1" d="M1232.62 2013.75l-12.28 -1149.34 -343.53 -1.29c15.64,108.79 320.72,1101.15 355.81,1150.63z"/>
   <path class="fil1" d="M1407.64 2037.59c39.51,-14.7 81.68,-95.19 109.77,-133.63 152.96,-209.27 672.4,-880.14 756.89,-1038.82l-282.5 -1.78 -584.16 1174.23z"/>
   <path class="fil1" d="M281.27 880.81l625.83 870.92c36.99,52.56 170.11,259.59 206.86,284.39 -20.8,-66.11 -224.33,-487.26 -272.81,-592.15 -107.26,-232.06 -185.53,-368.9 -291.16,-579.46 -62.53,0.93 -233.02,-20.38 -268.72,16.3z"/>
   <path class="fil1" d="M1347.03 2028.92c27.07,-9.29 6.88,4.3 25.66,-20.35 56.99,-74.81 359.42,-741.02 408.12,-847.49 40.39,-88.31 118.38,-217.16 144.45,-297.81l-236.06 -0.15c-64,166.56 -122.04,406.67 -174.13,588.12 -21.21,73.86 -176.94,553.16 -168.04,577.68z"/>
   <path class="fil1" d="M1160.69 2025.34c-0.68,-72.05 -136.95,-478.26 -168.06,-579.03 -59.57,-192.94 -116.28,-389.39 -172.34,-583.23l-182.4 0.35c13.81,77.18 405.08,906.02 486.33,1092.82 11.47,26.38 30.54,52.59 36.47,69.09z"/>
   <path class="fil1" d="M1616.6 525.3c117.35,67.93 291.98,225.32 353.54,251.26 24.18,-41.07 80.05,-216.93 86.06,-269.24 -88.79,-0.94 -383.41,-18.12 -439.6,17.98z"/>
   <path class="fil1" d="M1094.06 516.37c14.08,47.71 125.88,228.35 157.1,260.17 31.62,-26.74 166.79,-249.46 172.81,-269.23 -110.4,-1.32 -223.6,-8.55 -329.91,9.06z"/>
   <path class="fil1" d="M506.7 519.83l61.89 216.26c42.96,-10.84 128.63,-79.51 164.24,-104.99 38.12,-27.26 135.27,-91.44 155.26,-123.63 -111.74,-1.63 -278.77,-13 -381.39,12.36z"/>
   <path class="fil1" d="M887.51 795.73c108.96,-1.95 193.33,8.41 299.47,-9.66 -26.38,-68.53 -120.73,-223.87 -158.21,-275.95 -22.16,26.57 -133.55,247.72 -141.26,285.61z"/>
   <path class="fil1" d="M259.21 796.71l266.07 -0.15c-6.97,-95.95 -39.65,-209.97 -72.8,-286.5 -32.44,36.49 -179.32,239.64 -193.27,286.65z"/>
   <path class="fil1" d="M1322.6 780.25l288.24 1.81 -115.27 -251.25c-9.96,-13.24 -5.85,-8.26 -14.34,-15.39 -28.21,34.94 -144.14,230.17 -158.63,264.83z"/>
   <path class="fil1" d="M2026.82 780.58c77.56,3.08 197.4,21.48 253.96,-14.76 -37.36,-60.16 -122.3,-187.2 -176.43,-212.2l-77.53 226.96z"/>
  </g>
 </g>
</svg>
