<?xml version="1.0" encoding="UTF-8"?>
<!DOCTYPE svg PUBLIC "-//W3C//DTD SVG 1.1//EN" "http://www.w3.org/Graphics/SVG/1.1/DTD/svg11.dtd">
<!-- Creator: CorelDRAW 2017 -->
<svg xmlns="http://www.w3.org/2000/svg" xml:space="preserve" width="25.3998mm" height="25.3998mm" version="1.1" style="shape-rendering:geometricPrecision; text-rendering:geometricPrecision; image-rendering:optimizeQuality; fill-rule:evenodd; clip-rule:evenodd"
viewBox="0 0 2539.98 2539.98"
 xmlns:xlink="http://www.w3.org/1999/xlink">
 <defs>
  <style type="text/css">
   <![CDATA[
    .fil0 {fill:none}
    .fil1 {fill:#3E4095}
   ]]>
  </style>
 </defs>
 <g id="Capa_x0020_1">
  <metadata id="CorelCorpID_0Corel-Layer"/>
  <rect class="fil0" x="-0.01" y="-0.01" width="2539.99" height="2539.99"/>
  <g id="_2685652304848">
   <path class="fil1" d="M1281.43 1966.58l314.89 -933.12 -639.35 -3.32c5.18,84.99 290.14,899.26 324.46,936.44z"/>
   <path class="fil1" d="M386.89 1036.2c25.99,44.1 307.2,353.1 355.85,414.75 56.98,72.2 119.12,134.26 178.41,204.88 44.19,52.64 142.46,168.51 198.26,198.52 -11.82,-70.26 -245.48,-745.1 -281.49,-823.44 -140.47,-4.2 -315.53,-9.43 -451.03,5.29z"/>
   <path class="fil1" d="M1426.82 1860.08c48.73,-29.91 691.64,-759.47 724.19,-829.21l-438.29 -0.6c-45.2,69.7 -265.08,720.21 -285.9,829.81z"/>
   <path class="fil1" d="M995.51 930.17l546.93 2.3c-38.14,-80.88 -217.76,-281.05 -280.28,-321.08l-68.36 79.69c-61.74,72.12 -154.22,159.82 -198.29,239.09z"/>
   <path class="fil1" d="M1664.79 887l28.04 -32.81c7.98,-12.07 18.01,-29.92 25.39,-41.57 18.32,-28.9 29.34,-46.2 49.43,-75.22 31.2,-45.04 75.41,-104.77 92.45,-164.01l-463.51 0.01c28.09,65.63 215.69,284.05 268.2,313.6z"/>
   <path class="fil1" d="M888.3 886.64c32.71,-27.02 241.74,-272.99 262.04,-313.19l-471.57 1.46c18.73,49.1 130.96,219.43 174.16,276.94l35.37 34.79z"/>
   <path class="fil1" d="M369.23 932.6l395.92 -1.01c10.35,-36.45 -45.83,-105.79 -81.13,-159.77 -41.01,-62.73 -60.91,-98.65 -112.07,-143.8 -17.39,14.86 -190.73,273.64 -202.72,304.58z"/>
   <polygon class="fil1" points="1758.07,930.37 1799,933.08 2134.52,932.91 2170.76,930.83 1965.89,619.21 "/>
  </g>
 </g>
</svg>
