<?xml version="1.0" encoding="UTF-8"?>
<!DOCTYPE svg PUBLIC "-//W3C//DTD SVG 1.1//EN" "http://www.w3.org/Graphics/SVG/1.1/DTD/svg11.dtd">
<!-- Creator: CorelDRAW 2017 -->
<svg xmlns="http://www.w3.org/2000/svg" xml:space="preserve" width="25.3998mm" height="25.3998mm" version="1.1" style="shape-rendering:geometricPrecision; text-rendering:geometricPrecision; image-rendering:optimizeQuality; fill-rule:evenodd; clip-rule:evenodd"
viewBox="0 0 2539.98 2539.98"
 xmlns:xlink="http://www.w3.org/1999/xlink">
 <defs>
  <style type="text/css">
   <![CDATA[
    .fil0 {fill:none}
    .fil1 {fill:#3E4095}
   ]]>
  </style>
 </defs>
 <g id="Capa_x0020_1">
  <metadata id="CorelCorpID_0Corel-Layer"/>
  <rect class="fil0" x="-0.01" y="-0.01" width="2539.99" height="2539.99"/>
  <g id="_2685553343296">
   <path class="fil1" d="M1258.75 2029.66l209.32 -944.51 -382.32 -8.98c19.58,158.77 53.55,323.88 81.6,479.27 27.41,151.88 52.43,332.19 91.4,474.22z"/>
   <path class="fil1" d="M1064.32 1839.15c-26.41,-119.4 -85.35,-263.96 -122.77,-384.68 -19.31,-62.26 -96.82,-346.83 -135.08,-377.27l-319.6 0.04c32.68,69.05 543.72,743.22 577.45,761.91z"/>
   <path class="fil1" d="M1467.91 1830.78l585.23 -752.13 -278.45 -1.63c-33.46,8.88 -75.66,142.95 -88.53,174.89 -26.52,65.81 -50.53,125.78 -76.59,191.36 -43.92,110.5 -116.44,277.98 -141.66,387.51z"/>
   <path class="fil1" d="M1554.2 704.55c23.4,-19.19 124.96,-164.41 138.98,-192.58l-285.71 -1.66c2.51,33.42 113.03,163.83 146.73,194.24z"/>
   <path class="fil1" d="M979 706.07c23.18,-21.33 131.3,-165.72 140.41,-194.59l-280.93 -1.17c12.56,50.81 111.64,163.65 140.52,195.76z"/>
   <path class="fil1" d="M1708.17 848.24l281.49 -0.28c-31.78,-58.07 -98.73,-156.76 -147.87,-177.11 -23.97,21.99 -126.38,148.29 -133.62,177.39z"/>
   <path class="fil1" d="M551.3 847.14l286.68 1.44c-17.97,-36.17 -114.89,-162.29 -146.55,-181.64 -35.18,39.52 -118.99,135.96 -140.13,180.2z"/>
   <path class="fil1" d="M1124.56 887.3l46.19 0.99 235.1 -0.7c-23.76,-42.79 -102.04,-147.34 -139.24,-177.69 -26.13,21.44 -127.95,143.65 -142.05,177.4z"/>
  </g>
 </g>
</svg>
