<?xml version="1.0" encoding="UTF-8"?>
<!DOCTYPE svg PUBLIC "-//W3C//DTD SVG 1.1//EN" "http://www.w3.org/Graphics/SVG/1.1/DTD/svg11.dtd">
<!-- Creator: CorelDRAW 2017 -->
<svg xmlns="http://www.w3.org/2000/svg" xml:space="preserve" width="34.7132mm" height="25.3998mm" version="1.1" style="shape-rendering:geometricPrecision; text-rendering:geometricPrecision; image-rendering:optimizeQuality; fill-rule:evenodd; clip-rule:evenodd"
viewBox="0 0 3471.32 2539.98"
 xmlns:xlink="http://www.w3.org/1999/xlink">
 <defs>
  <style type="text/css">
   <![CDATA[
    .fil0 {fill:none}
    .fil2 {fill:#0A0A0A}
    .fil1 {fill:url(#id0)}
   ]]>
  </style>
  <linearGradient id="id0" gradientUnits="userSpaceOnUse" x1="1585.44" y1="2069.79" x2="2562.73" y2="775.19">
   <stop offset="0" style="stop-opacity:1; stop-color:#3E4095"/>
   <stop offset="0.478431" style="stop-opacity:1; stop-color:#00AFEF"/>
   <stop offset="1" style="stop-opacity:1; stop-color:#585570"/>
  </linearGradient>
 </defs>
 <g id="Capa_x0020_1">
  <metadata id="CorelCorpID_0Corel-Layer"/>
  <rect class="fil0" x="-0" y="-0.01" width="3471.33" height="2539.99"/>
  <rect class="fil0" x="465.66" y="-0.01" width="2539.99" height="2539.99"/>
  <path class="fil1" d="M1407.03 1838.93l7.81 -23.3c-23.67,-49.43 -38.82,-106.92 -45.42,-163.78l0 -126.88c3.38,-25.92 8.98,-49.93 16.83,-70.86 21.64,-57.73 42.85,-86.56 90.46,-118.42 0,-81.1 -16.38,-70.41 -9.35,-104.78 14.98,-73.34 98.03,-176.92 199.28,-166.29l42.03 -125.36 441.38 1.36 2.22 -2.09c38.39,-25.8 107.98,-16.17 131.89,-3.58 22.99,12.09 32.13,31.49 38.89,59.29l1.54 -1.9 21.57 -114c4.24,-24.49 8.9,-51.84 18.28,-75.58 -84.73,-146.25 -278.05,-411.84 -334.32,-497.8l-1624.68 -2.15c-412.84,695.5 -499.2,456.07 -126.07,878.38l859.69 997.83c93.88,90.37 164.21,-9.86 223.57,-82.22 6.8,-8.29 14.63,-17.66 23.19,-27.82 18.81,-36.78 50.28,-66.25 76.6,-89.18 12.41,-14.27 25.49,-29.25 39.17,-44.88 -7.58,-10.1 -13.44,-13.73 -23.2,-25.18 -8.5,-9.99 -13.99,-17.65 -22.58,-28.23 -13.73,-16.93 -25.91,-36.11 -36.51,-56.88l-12.27 14.3zm620.82 -723.32l-185.81 216.49 148.75 14.64c11.36,1.21 19.63,2.93 25.78,4.86 37.9,-43.18 74.74,-85.31 109.65,-125.51l-2.77 -0.67c-32.02,-8.35 -43.94,-43.78 -45.01,-45.32 -18.78,-26.95 -7.06,-21.29 -28.1,-39.65 -8.96,-7.81 -16.85,-15.46 -22.49,-24.84zm137.75 33.81l1.69 1.68c-0.12,-0.11 -2.25,-1.12 -1.69,-1.68zm-942.15 789.58l-349.5 -994.07 681.95 -3.78 -332.45 997.85zm-968.12 -992.09l467.81 -6.64 314.83 893.84 -782.64 -887.2zm1733.84 -449.44c35.87,32.91 199.03,268.26 208.4,313.87l-413.74 -5.96 205.34 -307.91zm-767.15 -22.49l281.87 335.68 -574.47 -6.34 292.6 -329.34zm-983.28 336.15c12.59,-50.21 174.19,-267.41 212.48,-315.4l198.05 314.39 -410.53 1.01zm1426.29 -51.86c-43.49,-28.12 -258.36,-261.25 -288.76,-325.55l478.78 0.15c-33.32,112.52 -153.61,208.47 -190.02,325.4zm-1084.46 -325.32l486.82 3.76 -283.09 321.2 -203.73 -324.96z"/>
  <path class="fil2" d="M1771.42 1230.98l-18.97 67.63 -18.66 -26.45 -77.47 9.72 50.52 -59.84 9.77 20.45 54.81 -11.51zm619.32 17.34c-9.57,-69.24 -65.8,-85.79 -113,-40.43l113 40.43zm-1.15 42.5l-116.54 -16.34c-141.29,-358.03 392.45,-172 116.54,16.34zm165.73 22.14l648.17 76.4c53.76,-3.86 35.1,3.32 69.83,-21.77l131.74 66.27 3.76 351.82 -147.56 76.03c-54.24,10.84 -77.19,16 -112.58,50.91l-358.08 181.21c73.08,-67.53 139.07,-224.82 219.81,-266.86 197.44,-102.76 243.36,-12.02 228.83,-269.75l72.58 -31.12 44.76 -39.62c-6.89,-59.23 -6.13,-25.81 -25.76,-41.54l-28.64 -20.91c-170.01,55.03 -161.55,53.9 -341.34,39.41 -32.33,-29.65 -37.65,-32.36 -92.19,-34.93l-18.34 39.75 -18.32 33.3c-176.57,-10.9 -132.18,-2.88 -269.55,-77.98 19.62,188.84 161.39,372.82 144.7,546.05l-66.67 267.54 -68.34 -10.2 -13.91 -468.32 -87.18 -46.57 -353.06 388.19c-11.67,-89.55 20.97,-182.26 43.12,-270.62 39.82,-158.9 98.16,-76.38 180.32,-161.67l-56.73 -226.72 -234.65 66.13 -31.21 -46.82 374.2 -140.73c95.99,-20.57 66.26,-27.72 162.29,-6.88zm-134.83 -418.69l17.48 -72.57c53.3,-7.27 6.33,-5.34 26.84,19.36l-55.16 199.3 10.84 -146.09zm90.24 208.58c-22.57,-10.68 -58.39,8.6 15.1,-25.32 42.51,-19.65 29.43,-6.68 66.44,-37.43 69.03,-0.14 51.19,-32.34 106.01,-11.46 -57.95,44.57 -126.05,39.28 -187.55,74.21zm51.06 -206.16c30.92,-6 0.49,-22.69 45.75,6.57l-164.19 153.58 118.44 -160.15zm-422.6 239.19c34.7,-16.95 8.03,-16.48 52.3,-3.1 -11.05,10.71 6.49,11.39 -25.36,16.57 -47.56,7.73 -9.22,1.54 -26.94,-13.47zm49.75 -87.36c-32.42,37.78 5.04,11.18 -37.39,27.67 -11.03,4.29 -44.63,3.24 -55.8,3.49 12.19,-68.41 0.78,-20.51 25.82,-40.96l67.37 9.8zm56.75 -46.45l3.86 57.1 -32.62 -20.66 -21.13 -37.35 49.89 0.91zm-503.86 882.67c-30.06,-47.93 -56.08,-87.11 -103.52,-113.6 30.83,46.22 58.18,88.4 103.52,113.6zm-108.39 -317.23l-107.35 -63.84c16.38,29.57 -7.15,3.52 19.02,27.97 0.19,0.18 26.5,16.87 27.21,17.23 32.32,15.97 28.92,11.85 61.12,18.64zm325.45 -121.41c-78.54,22.61 -70.1,42.39 -165.45,32.48 -57.18,-5.94 -106.67,-13.98 -165.07,-16.43 119.02,103.84 211.01,68.1 330.52,-16.05zm-432.8 57.57l9.04 -45.85c29.96,-11.59 14.27,-3.62 34.5,-10.2 42.1,-13.73 16.87,-4.7 30.38,-12.01 -56.11,-9.69 -40.47,-19.87 -83.26,18.02 -17.3,70.45 -0.64,38.78 9.34,50.04zm143.92 -114.43l321.57 34.47 -32.69 22.39 59.94 14.47 -5.34 54.55c-63.57,29.81 -132.94,63.56 -198.11,89.52 -94.01,37.44 -92.89,-15.82 -181.94,-37.13 -4.22,274.19 43.72,138.95 237.86,264.86 62.34,40.42 193.81,229.92 204.08,301.59 -112.88,116.91 -92.29,-9.99 -325.87,-238.34 50.01,102.91 -30.38,112.98 -98.55,185.37 -52.3,55.55 -114.42,134.41 -189.33,100.13 -67.36,-95.97 95.03,-155.53 149.07,-241.27 -86.39,-92.68 -152.24,-151.71 -162.93,-283.11 -11.57,-142.17 -0.6,-261.67 152.03,-288.39 35.29,24.93 18.69,17.36 70.21,20.89zm-13.69 -107.37l-7.4 38.65 103.53 -21.92c-16.99,46.61 -8.51,29.14 -50.56,62.2l-89.69 -3.28 -59.86 -48.33c10.76,-51.94 -20.82,-36.14 61.79,-56.09 14.15,22.95 -22.26,15.58 42.19,28.77zm50.52 -59.83l2.74 -49.1 37.56 4.36 -0.98 43.94 -39.32 0.8zm2.74 -49.1l-51.75 30.21 -28.53 -10.1c-42.25,46.11 -28.08,49.6 -86.4,52.56 19.48,-76.1 117.32,-151.59 166.68,-72.67zm-95.45 80.16l8.02 -36.8 35.68 -13.15 4.1 50.8 -47.8 -0.85zm1610.99 70.33c-9.99,-55.46 -41.9,-59.88 -91.09,-40.84l91.09 40.84zm38.99 35.38l-89.84 0.76c-52.72,-39.47 -88.08,-82.05 -54.68,-154.3 14.51,-31.39 38.09,-40.73 61.1,-59.69 39.76,-32.77 16.83,-28.24 76.45,-51.08 15.29,25.53 -20.42,13.29 26.45,40.75 19.55,11.46 105.52,145.55 -19.48,223.56zm-115.43 553.8c53.33,-11.18 77.74,-16.45 112.58,-50.9 47.63,1.39 19.72,-4.23 40.63,17.69l-47.58 109.85c79.28,28.3 223.25,104.9 158.33,196.14 -78.18,24.91 -143.55,-47.14 -218.16,-92.76 -96.99,-59.3 -115.08,-73.39 -45.8,-180.02z"/>
 </g>
</svg>
