<?xml version="1.0" encoding="UTF-8"?>
<!DOCTYPE svg PUBLIC "-//W3C//DTD SVG 1.1//EN" "http://www.w3.org/Graphics/SVG/1.1/DTD/svg11.dtd">
<!-- Creator: CorelDRAW 2017 -->
<svg xmlns="http://www.w3.org/2000/svg" xml:space="preserve" width="2.5398mm" height="2.5398mm" version="1.1" style="shape-rendering:geometricPrecision; text-rendering:geometricPrecision; image-rendering:optimizeQuality; fill-rule:evenodd; clip-rule:evenodd"
viewBox="0 0 253.98 253.98"
 xmlns:xlink="http://www.w3.org/1999/xlink">
 <defs>
  <style type="text/css">
   <![CDATA[
    .fil0 {fill:#333333}
   ]]>
  </style>
 </defs>
 <g id="Capa_x0020_1">
  <metadata id="CorelCorpID_0Corel-Layer"/>
  <path class="fil0" d="M0.84 126.48c0,3.59 1.34,6.79 5.66,6.79l24.32 0 0 95.61c0,13.47 11.73,24.32 22.62,24.32l39.04 0c2.32,0 4.6,-1.98 5.3,-3.76 1.08,-2.79 0.36,-61.44 0.36,-65.83 0,-14.96 -0.77,-23.15 5.57,-32.32 11.24,-16.27 36.32,-17.92 49.49,-0.1 6.66,9.05 5.47,17.53 5.47,32.42l0 56.01c0,3.31 -1.45,13.58 5.66,13.58l39.04 0c11.15,0 22.63,-10.93 22.63,-22.06l0 -97.87 22.62 0c1.89,0 4.52,-2.53 4.52,-6.22 0,-3.87 -4.29,-6.58 -6.36,-8.92 -5.94,-6.75 -18.25,-19.33 -22.4,-24.55l-11.25 -11.94c-1.74,-1.71 -2.17,-2.37 -3.71,-4.21l-53.01 -56.74c-1.53,-2 -12.96,-13.94 -15.83,-15.85 -11.7,-7.77 -26.3,-3.83 -35.17,7.28l-97.87 105.22c-3.46,4.36 -6.7,5.95 -6.7,9.14z"/>
 </g>
</svg>
