<?xml version="1.0" encoding="UTF-8"?>
<!DOCTYPE svg PUBLIC "-//W3C//DTD SVG 1.1//EN" "http://www.w3.org/Graphics/SVG/1.1/DTD/svg11.dtd">
<!-- Creator: CorelDRAW 2017 -->
<svg xmlns="http://www.w3.org/2000/svg" xml:space="preserve" width="2.5398mm" height="2.5398mm" version="1.1" style="shape-rendering:geometricPrecision; text-rendering:geometricPrecision; image-rendering:optimizeQuality; fill-rule:evenodd; clip-rule:evenodd"
viewBox="0 0 253.98 253.98"
 xmlns:xlink="http://www.w3.org/1999/xlink">
 <defs>
  <style type="text/css">
   <![CDATA[
    .fil0 {fill:none}
    .fil1 {fill:#333333}
    .fil2 {fill:#FEFEFE}
   ]]>
  </style>
 </defs>
 <g id="Capa_x0020_1">
  <metadata id="CorelCorpID_0Corel-Layer"/>
  <rect class="fil0" x="-0" y="-0" width="253.99" height="253.99"/>
  <g id="_1413551371392">
   <path class="fil1" d="M75.96 225.82c-6.86,14.39 -32.62,13.11 -43.32,1.83 -13.52,-14.26 -8.95,-32.12 3.16,-42.38 -7.72,30.73 8.91,49.63 40.16,40.55zm12.48 -47.61c-6.22,-6.88 -12.45,-6 -10.91,-20.43 1.61,-15.02 5.54,6.53 5.55,-18.96l-58.43 0.01c-0.03,2.38 -0.36,7.23 0.28,9.33 1.09,3.56 0.84,1.71 1.85,3.21 4.75,7.02 3.23,6.01 3.2,18.12 -44.33,25.52 -15.25,96.74 36.61,82.08 21.03,-5.94 25.89,-22.93 29.59,-24.41l134.72 1.45c0.33,0.24 1.4,1.14 1.8,1.37 2.69,1.59 -1.26,0.38 3.18,1.42 2.89,0.68 6.7,0.12 9.87,-0.26l-0.5 -46.8c-2.35,-0.18 -6.98,-0.62 -9.24,-0.07l-5.96 3.3c-5.72,2.32 -133.83,0.77 -133.87,0.75 -3.23,-3.48 -4.05,-6.03 -7.74,-10.11z"/>
   <path class="fil1" d="M206.04 57.41c6.92,-3.95 11.88,-16.35 9.68,-28.81 -6.26,-35.55 -57.2,-38.42 -66.58,-2.94 -24.92,-4.12 -37.47,1.64 -40.76,25.77 -34.79,6.56 -32.38,41.42 -3.73,49.32l5.18 -12.38c-0.29,17.71 6.8,26.45 19.12,31.91 17.6,7.79 25.9,-1.02 36.86,-7.01 16.6,9.01 32.16,5.72 38.08,-12.16 15.86,-1.06 24.42,-6.46 28.49,-19.05 5.68,-17.55 -4.89,-23.55 -10.78,-31.97 -6.61,2.37 -8.05,6.36 -15.56,7.32z"/>
   <path class="fil1" d="M31.64 111.9c0.35,6.01 6,8.32 9.18,11.05 11.44,9.85 10.19,5.25 22.28,0.23 29.33,-12.2 3.15,-49.06 -17.52,-27.06 -8,8.52 -14.59,4.75 -13.94,15.78z"/>
   <path class="fil2" d="M75.96 225.82c-31.25,9.08 -47.88,-9.82 -40.16,-40.55 -12.11,10.26 -16.68,28.12 -3.16,42.38 10.7,11.28 36.46,12.56 43.32,-1.83z"/>
  </g>
 </g>
</svg>
