<?xml version="1.0" encoding="UTF-8"?>
<!DOCTYPE svg PUBLIC "-//W3C//DTD SVG 1.1//EN" "http://www.w3.org/Graphics/SVG/1.1/DTD/svg11.dtd">
<!-- Creator: CorelDRAW 2017 -->
<svg xmlns="http://www.w3.org/2000/svg" xml:space="preserve" width="25.3998mm" height="25.3998mm" version="1.1" style="shape-rendering:geometricPrecision; text-rendering:geometricPrecision; image-rendering:optimizeQuality; fill-rule:evenodd; clip-rule:evenodd"
viewBox="0 0 2539.98 2539.98"
 xmlns:xlink="http://www.w3.org/1999/xlink">
 <defs>
  <style type="text/css">
   <![CDATA[
    .fil0 {fill:none}
    .fil8 {fill:#010101}
    .fil5 {fill:#014E9C}
    .fil9 {fill:#030303}
    .fil7 {fill:#060606}
    .fil2 {fill:url(#id0)}
    .fil3 {fill:url(#id1)}
    .fil4 {fill:url(#id2)}
    .fil6 {fill:url(#id3)}
    .fil1 {fill:url(#id4)}
   ]]>
  </style>
  <linearGradient id="id0" gradientUnits="userSpaceOnUse" x1="2475.25" y1="1072.29" x2="2469.53" y2="1100.32">
   <stop offset="0" style="stop-opacity:1; stop-color:#585570"/>
   <stop offset="0.258824" style="stop-opacity:1; stop-color:#0098DA"/>
   <stop offset="1" style="stop-opacity:1; stop-color:#6B809B"/>
  </linearGradient>
  <linearGradient id="id1" gradientUnits="userSpaceOnUse" xlink:href="#id0" x1="2292.05" y1="1075.24" x2="2287.19" y2="1099.63">
  </linearGradient>
  <linearGradient id="id2" gradientUnits="userSpaceOnUse" xlink:href="#id0" x1="2265.8" y1="1034.14" x2="2259.37" y2="1071.23">
  </linearGradient>
  <linearGradient id="id3" gradientUnits="userSpaceOnUse" x1="1743.7" y1="982.23" x2="1670.42" y2="1094.17">
   <stop offset="0" style="stop-opacity:1; stop-color:#ED2F59"/>
   <stop offset="0.392157" style="stop-opacity:1; stop-color:#ED3048"/>
   <stop offset="0.4" style="stop-opacity:1; stop-color:#ED2F59"/>
   <stop offset="1" style="stop-opacity:1; stop-color:#ED3237"/>
  </linearGradient>
  <linearGradient id="id4" gradientUnits="userSpaceOnUse" x1="1569.7" y1="2080.25" x2="2546.99" y2="785.65">
   <stop offset="0" style="stop-opacity:1; stop-color:#3E4095"/>
   <stop offset="0.478431" style="stop-opacity:1; stop-color:#00AFEF"/>
   <stop offset="1" style="stop-opacity:1; stop-color:#585570"/>
  </linearGradient>
 </defs>
 <g id="Capa_x0020_1">
  <metadata id="CorelCorpID_0Corel-Layer"/>
  <rect class="fil0" x="-0.01" y="-0.01" width="2539.99" height="2539.99"/>
  <path class="fil1" d="M1391.29 1849.39l100.82 -300.7c-25.87,-46.79 -34.35,-83.96 0.19,-152.79 20.4,-40.64 47.78,-70.18 81.33,-90.37l43 -128.24c-44.86,-34.89 -80.81,-85.97 -80.81,-132.58 0,-87.81 52.13,-152.2 124.41,-152.2 26.99,0 32.26,5.05 50.9,5.05 18.64,0 23.91,-5.05 50.89,-5.05 39.42,0 75.12,23.86 98.07,57.73l302.14 0.93 -125.05 145.7c49.17,55.91 20.22,69.06 47.18,88.75 4.58,-54.78 81.58,-125.15 135.73,-129.64 -12.19,-25.32 -11.31,-32.59 -11.31,-62.01 0,-22.86 51.9,-112.73 96.13,-112.73l78.51 0c-41.64,-107.65 -302.16,-463.64 -369.04,-565.82l-1624.68 -2.15c-412.84,695.5 -499.2,456.07 -126.07,878.38l859.69 997.83c93.88,90.37 164.21,-9.86 223.57,-82.22 32.58,-39.71 86.31,-101.86 152.58,-177.43 11.38,-22.96 19.39,-40.51 19.39,-50.89 0,-52.69 -23.33,-89.67 -34.61,-137.85l-92.96 108.3zm-183.58 100.07l-349.5 -994.07 681.95 -3.78 -332.45 997.85zm-968.12 -992.09l467.81 -6.64 314.83 893.84 -782.64 -887.2zm1733.84 -449.44c35.87,32.91 199.03,268.26 208.4,313.87l-413.74 -5.96 205.34 -307.91zm-767.15 -22.49l281.87 335.68 -574.47 -6.34 292.6 -329.34zm-983.28 336.15c12.59,-50.21 174.19,-267.41 212.48,-315.4l198.05 314.39 -410.53 1.01zm1426.29 -51.86c-43.49,-28.12 -258.36,-261.25 -288.76,-325.55l478.78 0.15c-33.32,112.52 -153.61,208.47 -190.02,325.4zm-1084.46 -325.32l486.82 3.76 -283.09 321.2 -203.73 -324.96z"/>
  <path class="fil2" d="M2465.52 1085.62c3.83,2.51 5.37,1.61 9.61,5.94l5.09 8.81c0.1,-0.29 0.43,0.93 0.71,1.37 3.19,-11.52 2.79,-11.83 14.73,-14.79 -11.37,-6.28 -12.28,-3.23 -15.35,-18.87 -2.72,13.43 -1.85,14.18 -14.79,17.54z"/>
  <path class="fil3" d="M2283.51 1085.83c5.46,4.63 10.14,7.06 12.57,15.01l2.62 -3.93c5.68,-8.59 4.78,-4.97 11.61,-10.68 -9.42,-3.83 -10.34,-4.7 -12.19,-14.62 -4.28,6.07 -6.71,11.34 -14.61,14.22z"/>
  <path class="fil4" d="M2256.3 1049.94c4.37,1.81 8.22,1.94 12.79,6.95 4.77,5.23 5.27,11.83 6.28,16 3.23,-5.87 2.93,-10.62 7.54,-15.96 2.63,-3.04 3.51,-3.31 6.79,-4.88l8.71 -4.19c-16.21,-4.95 -13.88,-7.21 -22.42,-19.02 -7.78,10.48 -8.29,16.81 -23.99,18.99 0.44,0.31 1.08,0.6 1.41,0.76l2.89 1.35z"/>
  <path class="fil5" d="M2487.4 930.81l26.01 37.23 -49.74 0.57 23.73 -37.8zm-70.03 161.84l36.17 -108.01 57.22 -0.32 -93.39 108.33zm-64.57 -108.24l83.03 -0.08 -40.4 120.28 -42.63 -120.2zm-74.42 0.61l56.42 -0.62 38.07 107.85 -94.49 -107.23zm22.95 -54.3c5.87,7.86 22.72,30.96 24.06,37.92l-48.71 -0.01 24.65 -37.91zm39.4 31.88c-4.36,-12.75 -16.84,-26.45 -23.35,-39.23l58.67 -0.09c-3.5,6.92 -28.27,34.8 -35.32,39.32zm53.84 -34.26c2.62,2.06 15.72,16.81 17.94,19.82 0.76,1.03 16.82,20.01 16.86,20.04l-68.77 0.43 33.97 -40.29zm18.58 -4.29l58.62 -0.77 -24.55 39.2 -34.07 -38.43z"/>
  <path class="fil6" d="M1638.47 1035.68c-22.44,-7.99 -2.97,-49.65 34.22,-45.99 -1.9,22.29 -7.3,6.06 -21.59,20.85 -7.99,8.25 -5.18,15.43 -12.63,25.14zm-25.83 12.74c6.04,35.27 74.18,97.62 102.11,92.68 10.62,-1.87 48.97,-30.44 59.46,-38.62 56.82,-44.3 37.18,-113.7 0.94,-128.95 -40.41,-17.02 -54.05,19.24 -67.44,15.33 -16.85,-4.92 -32.63,-36.17 -69.35,-10.64 -23.03,16.01 -30.27,43.65 -25.72,70.2z"/>
  <g id="_2685690744096">
   <path class="fil7" d="M1672.42 1418.32c-26.95,23.5 17.4,20.59 -46.24,28.17 14.67,-24.19 -25.27,-7.17 46.24,-28.17zm94.35 -80.21l-7.25 33.96c-96.69,-81.87 -256.69,56.52 -200.66,143.2 104.23,41.61 160.69,-40.53 242.19,-67.42 37.43,9.09 35.46,18.28 18.54,-16.54 5.01,-38.64 18.27,-55.87 0.27,-98.69l-53.09 5.49z"/>
   <g>
    <path class="fil8" d="M1902.33 1431.72l-82.74 -0.41c16.92,34.82 18.89,25.63 -18.54,16.54 -66.95,44.18 -142.83,71.33 -205.53,98.9 -25.69,85.13 -55.57,100.13 -34.19,191.8 17.47,74.91 51.4,119.05 21.23,191.15 -25.45,60.81 -194,364.82 28.86,240.55 6.05,-60.43 44.88,-123.93 72.5,-180.97 53.8,-111.13 34.55,-75.53 21.56,-188.14 123.54,127.3 91.15,92.47 95.04,279.95 3.57,171.14 126.29,168.45 120.39,-28.98 -6.11,-204.81 23.9,-143.36 -86.49,-288.99 -52.58,-69.36 26.22,-162.45 47.82,-256.46 59.37,31.51 116.16,98.89 141.88,-13.97 13.01,-57.13 9.47,-135.7 -29.68,-179.55 -7.65,19.24 -29.55,60.07 -34.02,74.65 -8.35,27.29 -3.07,35.91 -12.29,64.13l-45.8 -20.2z"/>
    <path class="fil9" d="M1848.2 1239.25c24.6,-3.04 92.66,18.97 107.23,39.08 -45.84,29.47 -85.54,16.04 -107.23,-39.08zm50.33 -126.95c-155.03,2.46 -135.52,205.51 -0.83,210.36 125.08,4.51 152.15,-212.75 0.83,-210.36z"/>
    <g>
     <path class="fil8" d="M2321.23 1540.58c-116.89,-42.85 -103.86,0.31 -201.43,23.28 -0.18,82.09 -9.26,591.15 7.39,626.54 20.17,42.84 73.04,50.13 99.18,8.33 20.13,-32.2 10.14,-409.15 10.09,-461.98 69.83,49.1 -6.57,376.29 31.71,453.36 21.9,44.08 70.1,50.97 97.32,6.23 25.85,-42.5 10.54,-539.12 8.89,-625.48l-53.15 -30.28z"/>
     <path class="fil9" d="M2228.2 1271.81c20.89,-13.35 91.79,-22.83 113.6,-10.96 -28.65,46.35 -70.26,51.34 -113.6,10.96zm-9.32 -136.24c-138.82,69.04 -33.68,243.85 89.94,190.16 114.81,-49.85 45.57,-257.56 -89.94,-190.16z"/>
    </g>
    <path class="fil9" d="M2318.61 1503.25l-4.58 -53.93c-68.95,-26.51 -102.91,-4.72 -170.61,13.43 62.49,-74.99 202.77,-42.26 235.24,-21.75 -13.12,48.19 -16.34,26.31 -60.05,62.25zm-266.64 -80.92l4.1 71.64c19.46,72.5 55.22,73.05 120.09,43.93 75.57,-33.91 59.63,-25.91 142.45,-34.65 -12.72,32.9 -11.64,5.61 2.62,37.33 157.34,57.83 186.39,-179.16 15.56,-201 -116.79,22.75 -240.07,-52.17 -284.82,82.75z"/>
   </g>
  </g>
 </g>
</svg>
