<?xml version="1.0" encoding="UTF-8"?>
<!DOCTYPE svg PUBLIC "-//W3C//DTD SVG 1.1//EN" "http://www.w3.org/Graphics/SVG/1.1/DTD/svg11.dtd">
<!-- Creator: CorelDRAW 2017 -->
<svg xmlns="http://www.w3.org/2000/svg" xml:space="preserve" width="2.5398mm" height="2.5398mm" version="1.1" style="shape-rendering:geometricPrecision; text-rendering:geometricPrecision; image-rendering:optimizeQuality; fill-rule:evenodd; clip-rule:evenodd"
viewBox="0 0 253.98 253.98"
 xmlns:xlink="http://www.w3.org/1999/xlink">
 <defs>
  <style type="text/css">
   <![CDATA[
    .fil0 {fill:none}
    .fil1 {fill:#333333}
    .fil2 {fill:#FEFEFE}
   ]]>
  </style>
 </defs>
 <g id="Capa_x0020_1">
  <metadata id="CorelCorpID_0Corel-Layer"/>
  <rect class="fil0" x="-0" y="-0" width="253.99" height="253.99"/>
  <path class="fil1" d="M124.25 86.58l5.66 9.21c9.63,-3.44 13.68,-10.76 23.49,-13.32 2.66,6.72 5.65,7.99 8.57,14.95 -5.03,5.85 -13.28,9.45 -19.53,15.15l6.18 9.72 20.86 -14.21c5.3,5.22 6,9.45 11.19,13.91 -6.12,8.73 -14.36,9.2 -20.02,17.28l5.65 8.38 20.63 -13.59c4.96,4.08 5.36,5.57 8.72,10.41 3.54,5.08 5.12,5.99 6.6,11.38l-40.38 29.09c-5.8,-4.32 -64.49,-88.26 -67.29,-95.9 5.41,-6.02 35.04,-26.94 42.58,-28.86l5.11 8.21c1.49,3.07 0.48,0.33 1.59,3.83l-19.61 14.36zm-35.14 -37.27c-3.76,8 -6.44,4.09 -2.49,11.06 3.04,5.38 5.48,5.3 7.37,12.38 -24.75,12.97 -16.59,16.86 1.29,42.34 11.1,15.82 55.26,76.9 58.46,85.16 -4.87,5.39 -9.44,6.7 -14.32,11.58l7.81 11.1 35.37 -21.43 13.03 20.49 -16.68 11.65 10.85 16.66c10.67,-5.63 58.71,-38.82 63.97,-45l-9.93 -15.51 -18.46 11.05 -14.4 -21.07 32.27 -23.58c-2.85,-5.59 -3.49,-7.49 -8.46,-11.18l-14.67 9.84c-14.17,-14.39 -70.89,-110.49 -82.51,-111.17 -8.34,1.63 -10.61,6.86 -18.24,9.9l-11.33 -14.07 -6.53 3c-5.08,-8.55 -11.56,-16.83 -17.38,-25.24 -9.65,-13.96 -4.99,-14.08 -27.68,-16.32l32.66 48.36z"/>
  <path class="fil1" d="M25.79 132.04c-8.53,-5.64 -5.69,-24.29 4.82,-27.01 3.19,3.26 2.94,0.12 3.57,7.31 0.72,8.24 -2.21,15.83 -8.39,19.7zm27.49 -105.38c-9.38,19.28 -26.71,41.46 -38.06,63.66 -13.36,26.12 -14.45,57.83 17.68,62.98 49.64,7.97 35.8,-61.74 29.77,-91.84 -1.25,-6.2 -2.34,-11.26 -3.69,-17.58 -1.43,-6.67 -1.76,-12.02 -5.7,-17.22z"/>
  <path class="fil2" d="M143.86 72.22c-1.11,-3.5 -0.1,-0.76 -1.59,-3.83l-5.11 -8.21c-7.54,1.92 -37.17,22.84 -42.58,28.86 2.8,7.64 61.49,91.58 67.29,95.9l40.38 -29.09c-1.48,-5.39 -3.06,-6.3 -6.6,-11.38 -3.36,-4.84 -3.76,-6.33 -8.72,-10.41l-20.63 13.59 -5.65 -8.38c5.66,-8.08 13.9,-8.55 20.02,-17.28 -5.19,-4.46 -5.89,-8.69 -11.19,-13.91l-20.86 14.21 -6.18 -9.72c6.25,-5.7 14.5,-9.3 19.53,-15.15 -2.92,-6.96 -5.91,-8.23 -8.57,-14.95 -9.81,2.56 -13.86,9.88 -23.49,13.32l-5.66 -9.21 19.61 -14.36z"/>
  <path class="fil2" d="M25.79 132.04c6.18,-3.87 9.11,-11.46 8.39,-19.7 -0.63,-7.19 -0.38,-4.05 -3.57,-7.31 -10.51,2.72 -13.35,21.37 -4.82,27.01z"/>
 </g>
</svg>
