<?xml version="1.0" encoding="UTF-8"?>
<!DOCTYPE svg PUBLIC "-//W3C//DTD SVG 1.1//EN" "http://www.w3.org/Graphics/SVG/1.1/DTD/svg11.dtd">
<!-- Creator: CorelDRAW 2017 -->
<svg xmlns="http://www.w3.org/2000/svg" xml:space="preserve" width="10.1598mm" height="10.1598mm" version="1.1" style="shape-rendering:geometricPrecision; text-rendering:geometricPrecision; image-rendering:optimizeQuality; fill-rule:evenodd; clip-rule:evenodd"
viewBox="0 0 1015.98 1015.98"
 xmlns:xlink="http://www.w3.org/1999/xlink">
 <defs>
  <style type="text/css">
   <![CDATA[
    .fil0 {fill:#040404}
    .fil1 {fill:white}
   ]]>
  </style>
 </defs>
 <g id="Capa_x0020_1">
  <metadata id="CorelCorpID_0Corel-Layer"/>
  <g id="_2296005977712">
   <path class="fil0" d="M262.18 796.72c4.52,-9.6 29.94,-36.13 38.08,-40.08l13.54 11.71c-5.79,7.89 -13.07,15.2 -20.62,22.65 -8.89,8.78 -14.74,10.94 -31,5.72zm-35.3 -34.08c-11.99,-21.29 9.06,-42.65 25.04,-52.76l12.59 11.66c-6.58,11.51 -27.99,32.68 -37.63,41.1zm323.63 -169.62c-8.67,12.76 -93.36,98.84 -112.21,118.61 -24.58,25.78 -57.47,69.62 -107.25,40.67l-23.86 -20.4c-1.84,-1.84 -2.12,-1.93 -3.68,-4.08 -2.58,-3.54 -1.37,-1.23 -2.92,-5.19 -7.95,-3.12 -22.16,-17.03 -27.98,-24.67 -30.76,-40.36 -12.83,-78.07 22.12,-106.71 13.03,6.7 37.86,44.27 50.1,28.75 11.54,-14.66 -26.93,-37.26 -32.19,-46.71l24.92 -27.67c19.6,9.68 40.21,46.76 61.29,45.33 12.31,-16.63 -2.49,-22.63 -13.67,-33.67 -10.52,-10.38 -19.68,-19.04 -29.86,-28.26 4.74,-8.24 25.95,-31.09 33.34,-34.27 9.76,7.87 40.6,47.03 51.94,32.09 12.63,-16.65 -26.76,-30.93 -35.83,-50.69l10.57 -10.3 20.51 -22.68c16.94,11.26 41.77,49.23 61.41,45.41 14.76,-24.36 -22.69,-32.1 -43.71,-62.65 6.84,-11.26 21.71,-22.88 30.23,-34.1 15.02,8.99 29.44,33.27 44.03,33.55 29.05,-5.57 -19.1,-43.29 -26.44,-48.95 8.11,-12.74 114.44,-123.41 130.9,-138.61 8.23,3.62 98.7,89.75 104.09,98.24 8.98,6.12 27.53,22.43 31.22,30.47l-217.07 226.49zm159.38 -317.38c-6.6,-2.57 -2.95,0.11 -5.54,-5.1l101.04 -106.92 9.67 8.46 18.66 15.75c-8.57,17.63 -81.37,83 -101.3,109.93l-17.72 -14.62c-7.06,-8.21 -2.34,-1.01 -4.81,-7.5zm230.66 -29.02c-14.21,0.89 -89.37,-76.76 -103.27,-90.11 -16.51,-15.84 -34.18,-32.07 -49.46,-47.21 -15.71,-15.55 -43.54,-36.39 -42.33,-48.55 -1.26,-2.69 -5.24,-0.27 0.82,-10.47 5.08,-8.59 15.29,-10.35 26.32,-2.56l133.23 126.96c17.74,17.01 38.85,33.93 51.34,51.55 -2.98,15.93 -3.62,18.31 -16.65,20.39zm-801.93 649.78c54.66,-58.08 30.76,-30.83 54.84,-42.26 16.13,-7.65 15.84,-22.51 40.27,-33.51 7.04,-3.16 6.21,-4.6 13,-7.01 49.92,29.19 64.89,-19.79 90.15,-33.89 66.46,16.96 92.31,-25.24 131.07,-66.31 35.49,-37.59 69.45,-73.41 105.91,-110.57 24.2,-24.67 202.97,-215.45 212.06,-220.04 26.7,18.49 40.18,49.92 55.61,39.89 14.39,-10.41 -3.14,-22.09 -11.72,-30.23 -19.01,-18.04 -67.29,-67.02 -81.82,-76.99 5.45,-10.49 93.7,-103.14 104.88,-111.27 16.67,10.09 42.48,40.47 59.61,55.39 25.34,22.08 62.11,7.71 66.24,-24.71 3.52,-27.62 -25.88,-45.8 -44.25,-63.43 -19.86,-19.06 -37.37,-35.93 -57.21,-54.84 -19.93,-19 -38.59,-37.17 -58.48,-56.1 -17.59,-16.73 -40.8,-47.89 -69.66,-38.72 -30.47,9.67 -36.96,44.78 -15.32,67.36 14.43,15.05 42.44,42.44 58.65,55.04l-105.26 110.51c-12.72,-7.96 -40.82,-37.43 -52.65,-48.99 -13.4,-13.11 -44.98,-48.7 -56.71,-44 -17.55,8.88 0.34,22.01 9.07,30.26 9.91,9.38 19.18,19.57 29.66,27.02 -9.78,15.07 -225.76,237.84 -244.37,257.35l-121.44 128.59c-35.21,49.34 0.01,72.3 -19.43,92.16 -17.58,17.96 -49.41,50.53 -20.72,80.71 -8.91,16.86 -8.73,21.44 -21.45,34.61 -9.49,9.83 -16.48,14.28 -19.51,30.84 -5.01,27.38 -134.57,133.62 -132.65,152.55 10.69,0.79 19.27,-13.21 26.92,-21.27l74.71 -78.14z"/>
   <path class="fil1" d="M415.34 465.85l103.67 96.19c5.96,-2.61 200.53,-206.07 217.35,-225.98 -5.39,-8.49 -95.86,-94.62 -104.09,-98.24 -16.46,15.2 -122.79,125.87 -130.9,138.61 7.34,5.66 55.49,43.38 26.44,48.95 -14.59,-0.28 -29.01,-24.56 -44.03,-33.55 -8.52,11.22 -23.39,22.84 -30.23,34.1 21.02,30.55 58.47,38.29 43.71,62.65 -19.64,3.82 -44.47,-34.15 -61.41,-45.41l-20.51 22.68z"/>
  </g>
 </g>
</svg>
