<?xml version="1.0" encoding="UTF-8"?>
<!DOCTYPE svg PUBLIC "-//W3C//DTD SVG 1.1//EN" "http://www.w3.org/Graphics/SVG/1.1/DTD/svg11.dtd">
<!-- slam -->
<svg xmlns="http://www.w3.org/2000/svg" xml:space="preserve" width="10.1598mm" height="10.1598mm" version="1.1" style="shape-rendering:geometricPrecision; text-rendering:geometricPrecision; image-rendering:optimizeQuality; fill-rule:evenodd; clip-rule:evenodd"
viewBox="0 0 1015.98 1015.98"
 xmlns:xlink="http://www.w3.org/1999/xlink">
 <defs>
  <style type="text/css">
   <![CDATA[
    .fil0 {fill:none}
    .fil1 {fill:#E6E7E8}
   ]]>
  </style>
 </defs>
 <g id="Capa_x0020_1">
  <metadata id="CorelCorpID_0Corel-Layer"/>
  <rect class="fil0" x="-0" y="-0" width="1015.99" height="1015.99"/>
  <path class="fil1" d="M300.95 751.18c3.81,-8.08 25.22,-30.43 32.07,-33.76l11.4 9.86c-4.87,6.65 -11,12.8 -17.36,19.08 -7.49,7.4 -12.42,9.21 -26.11,4.82zm-29.74 -28.71c-10.1,-17.93 7.64,-35.92 21.1,-44.43l10.6 9.82c-5.54,9.69 -23.57,27.52 -31.7,34.61zm272.59 -142.86c-7.3,10.74 -78.64,83.25 -94.51,99.9 -20.7,21.71 -48.4,58.64 -90.34,34.25l-20.09 -17.18c-1.55,-1.55 -1.79,-1.63 -3.1,-3.44 -2.17,-2.98 -1.16,-1.03 -2.46,-4.36 -6.7,-2.64 -18.66,-14.35 -23.56,-20.78 -25.91,-34 -10.82,-65.76 18.62,-89.88 10.98,5.64 31.9,37.29 42.2,24.21 9.73,-12.34 -22.68,-31.38 -27.11,-39.34l20.99 -23.31c16.51,8.16 33.87,39.38 51.62,38.19 10.37,-14.02 -2.09,-19.07 -11.51,-28.36 -8.86,-8.75 -16.58,-16.04 -25.15,-23.81 3.99,-6.94 21.85,-26.18 28.08,-28.86 8.22,6.63 34.19,39.6 43.74,27.03 10.64,-14.03 -22.53,-26.05 -30.17,-42.7l8.9 -8.68 17.28 -19.1c14.27,9.49 35.18,41.47 51.72,38.25 12.43,-20.52 -19.11,-27.03 -36.81,-52.77 5.76,-9.48 18.28,-19.27 25.45,-28.72 12.65,7.57 24.81,28.02 37.09,28.26 24.47,-4.7 -16.08,-36.46 -22.27,-41.23 6.84,-10.73 96.39,-103.95 110.25,-116.75 6.94,3.05 83.14,75.6 87.68,82.74 7.56,5.16 23.19,18.9 26.29,25.67l-182.83 190.77zm134.24 -267.32c-5.56,-2.16 -2.48,0.09 -4.66,-4.3l85.1 -90.06 8.14 7.13 15.72 13.27c-7.21,14.85 -68.53,69.91 -85.32,92.59l-14.92 -12.31c-5.95,-6.93 -1.98,-0.86 -4.06,-6.32zm194.28 -24.45c-11.97,0.76 -75.27,-64.65 -86.98,-75.89 -13.91,-13.35 -28.79,-27.01 -41.66,-39.77 -13.23,-13.1 -36.67,-30.65 -35.65,-40.89 -1.06,-2.27 -4.41,-0.22 0.68,-8.82 4.29,-7.23 12.89,-8.72 22.17,-2.15l112.23 106.93c14.94,14.33 32.71,28.58 43.23,43.42 -2.5,13.41 -3.04,15.42 -14.02,17.17zm-675.45 547.3c46.05,-48.92 25.92,-25.97 46.19,-35.6 13.6,-6.45 13.35,-18.96 33.92,-28.22 5.93,-2.67 5.24,-3.87 10.95,-5.91 42.05,24.59 54.66,-16.67 75.93,-28.54 55.99,14.29 77.76,-21.26 110.41,-55.85 29.88,-31.67 58.49,-61.83 89.2,-93.13 20.38,-20.78 170.95,-181.47 178.61,-185.34 22.49,15.58 33.84,42.05 46.84,33.6 12.12,-8.77 -2.65,-18.61 -9.87,-25.46 -16.01,-15.19 -56.68,-56.45 -68.92,-64.84 4.6,-8.84 78.92,-86.88 88.34,-93.72 14.04,8.49 35.78,34.08 50.21,46.65 21.34,18.59 52.31,6.49 55.79,-20.82 2.96,-23.26 -21.8,-38.57 -37.27,-53.42 -16.73,-16.06 -31.48,-30.26 -48.19,-46.19 -16.78,-16 -32.5,-31.31 -49.25,-47.25 -14.81,-14.1 -34.37,-40.34 -58.68,-32.62 -25.66,8.15 -31.13,37.72 -12.89,56.74 12.15,12.67 35.74,35.75 49.39,46.36l-88.66 93.08c-10.71,-6.7 -34.38,-31.53 -44.34,-41.27 -11.29,-11.04 -37.89,-41.01 -47.76,-37.06 -14.79,7.48 0.28,18.54 7.63,25.5 8.35,7.9 16.16,16.47 24.98,22.75 -8.24,12.69 -190.15,200.33 -205.82,216.76l-102.29 108.31c-29.65,41.56 0.01,60.89 -16.37,77.62 -14.8,15.13 -41.61,42.56 -17.45,67.98 -7.5,14.2 -7.34,18.06 -18.06,29.15 -8,8.28 -13.89,12.03 -16.44,25.98 -4.22,23.06 -113.34,112.54 -111.72,128.49 9,0.66 16.23,-11.13 22.67,-17.92l62.92 -65.81z"/>
 </g>
</svg>
