<?xml version="1.0" encoding="UTF-8"?>
<!DOCTYPE svg PUBLIC "-//W3C//DTD SVG 1.1//EN" "http://www.w3.org/Graphics/SVG/1.1/DTD/svg11.dtd">
<!-- Creator: CorelDRAW 2017 -->
<svg xmlns="http://www.w3.org/2000/svg" xml:space="preserve" width="25.3998mm" height="25.3998mm" version="1.1" style="shape-rendering:geometricPrecision; text-rendering:geometricPrecision; image-rendering:optimizeQuality; fill-rule:evenodd; clip-rule:evenodd"
viewBox="0 0 2539.98 2539.98"
 xmlns:xlink="http://www.w3.org/1999/xlink">
 <defs>
  <style type="text/css">
   <![CDATA[
    .fil0 {fill:none}
    .fil1 {fill:url(#id0)}
   ]]>
  </style>
  <linearGradient id="id0" gradientUnits="userSpaceOnUse" x1="1139.14" y1="1847.16" x2="2997.59" y2="1021.18">
   <stop offset="0" style="stop-opacity:1; stop-color:#003F6A"/>
   <stop offset="0.168627" style="stop-opacity:1; stop-color:#0167B1"/>
   <stop offset="0.360784" style="stop-opacity:1; stop-color:#5C9DCD"/>
   <stop offset="0.588235" style="stop-opacity:1; stop-color:#003F6A"/>
   <stop offset="0.729412" style="stop-opacity:1; stop-color:#005F9F"/>
   <stop offset="1" style="stop-opacity:1; stop-color:#FEFEFE"/>
  </linearGradient>
 </defs>
 <g id="Capa_x0020_1">
  <metadata id="CorelCorpID_0Corel-Layer"/>
  <rect class="fil0" x="-0.01" y="-0.01" width="2539.99" height="2539.99"/>
  <path class="fil1" d="M1414.72 2114.58c35.29,-18.64 92.29,-82.3 121.35,-112.16l661.14 -669.36c29.38,-29.84 86.94,-80.31 108.87,-115.01 -92.02,16.92 -245.49,78.12 -341.07,109.94 -177.09,58.96 -173.84,29.53 -219.62,121.41l-184.64 366.7c-36.53,72.96 -127.3,230.63 -146.03,298.48zm-581.25 -714.79l438 830.63c16.53,-14.37 402.3,-772.68 421.55,-832.43l-859.55 1.8zm-602.86 -188.35c23.34,44.76 74.89,77.36 112.9,115.76 112.23,113.38 737.28,750.61 787.62,790.06l-309.34 -594.8c-93.31,-174.18 -27.69,-120.22 -255.96,-198.58 -96.5,-33.13 -240.73,-92.49 -335.22,-112.44zm1745.1 -402.4c20.81,28.78 323.51,194.58 381.86,235.46 -12.66,-46.53 -108.28,-232.75 -141.02,-300.11l-40.99 -80.26c-0.83,-1.21 -2.85,-3.62 -3.55,-4.57 -0.68,-0.94 -3.39,-1.61 -3.9,-4.16 -0.52,-2.56 -2.68,-2.71 -4.06,-4.02 -65.19,47.39 -122.07,106.59 -188.34,157.66zm-171.68 499.13c62.28,-13.11 528.98,-165.34 554.76,-186.95l-420.76 -250.93c-15.9,23.48 -126,391.63 -134,437.88zm-78.58 -429.85l-83.5 11.02 -285.78 42.4c2.86,22.4 58.22,60.96 98.5,107.89 16.42,7.64 13.02,2.52 27.91,16.73 15.68,14.96 9.67,10.74 18.05,26.97 60.74,41.29 143.94,145.73 232.23,214.54l131.51 -438.01 -138.92 18.46zm-857.04 451.05c232.33,6.74 569.14,0.85 791.63,0.82 -11.58,-23.15 -364.56,-359.27 -388.57,-370.35 -87.45,69.29 -213.41,199.53 -305.94,277.57 -30.09,25.38 -72.99,63.95 -97.12,91.96zm-68.39 -31.65l341.81 -313.7c23.73,-21.84 34.49,-23.21 50.19,-51.52l-509.95 -74.72c7.99,55.69 100.82,415.81 117.95,439.94zm-550.18 -223.31l-57.53 30.83c-3.39,3.88 -9.59,15.82 -11.12,18.02l544.2 184.24 -112.22 -436.87 -363.33 203.78zm-35.28 -52.52c36.79,-25.76 308.07,-184.57 336.01,-188.4l20.52 -21.12c-20.7,-22.18 -159.44,-146.68 -194.63,-162.39l-192.29 383.8 30.39 -11.89zm500.83 -220.93c81.62,-6.54 390.7,50.56 495.07,66.33 159.17,24.06 345.77,-56.54 496.71,-49.13 4.91,-17.08 100.68,-20.02 122.41,-20.72 15.33,-7.23 37.12,-5.26 56.43,-10.59 25.18,-6.95 29.72,-17.43 49.66,-29.46 59.69,-59.28 127.17,-109.9 188.11,-160.33 -12.07,-21.1 -3.21,-8.22 -19.5,-24.38l-57.43 -47.83c-151.41,-129.34 -101.89,-119.7 -277.94,-144.98l-497.65 -70.31 -498.5 71.2c-146.33,21.64 -108.35,8.51 -199.95,82.91 -25.55,20.76 -51.84,42.12 -75.75,62.48 -26.96,22.96 -51.03,40.58 -73.64,63.73l203.35 178.45c34.87,29.54 65.03,12.38 88.62,32.63z"/>
 </g>
</svg>
