<?xml version="1.0" encoding="UTF-8"?>
<!DOCTYPE svg PUBLIC "-//W3C//DTD SVG 1.1//EN" "http://www.w3.org/Graphics/SVG/1.1/DTD/svg11.dtd">
<!-- Creator: CorelDRAW 2017 -->
<svg xmlns="http://www.w3.org/2000/svg" xml:space="preserve" width="25.3998mm" height="25.3998mm" version="1.1" style="shape-rendering:geometricPrecision; text-rendering:geometricPrecision; image-rendering:optimizeQuality; fill-rule:evenodd; clip-rule:evenodd"
viewBox="0 0 2539.98 2539.98"
 xmlns:xlink="http://www.w3.org/1999/xlink">
 <defs>
  <style type="text/css">
   <![CDATA[
    .fil0 {fill:none}
    .fil2 {fill:url(#id0)}
    .fil1 {fill:url(#id1)}
   ]]>
  </style>
  <linearGradient id="id0" gradientUnits="userSpaceOnUse" x1="2028.98" y1="1575.08" x2="1753.75" y2="1996.71">
   <stop offset="0" style="stop-opacity:1; stop-color:#ED2F59"/>
   <stop offset="0.388235" style="stop-opacity:1; stop-color:#ED3048"/>
   <stop offset="0.4" style="stop-opacity:1; stop-color:#ED2F59"/>
   <stop offset="1" style="stop-opacity:1; stop-color:#ED3237"/>
  </linearGradient>
  <linearGradient id="id1" gradientUnits="userSpaceOnUse" x1="1904.78" y1="553.92" x2="543.78" y2="1310.03">
   <stop offset="0" style="stop-opacity:1; stop-color:#0F91C7"/>
   <stop offset="0.45098" style="stop-opacity:1; stop-color:#00AFEF"/>
   <stop offset="1" style="stop-opacity:1; stop-color:#3E4095"/>
  </linearGradient>
 </defs>
 <g id="Capa_x0020_1">
  <metadata id="CorelCorpID_0Corel-Layer"/>
  <rect class="fil0" x="-0.01" y="-0.01" width="2539.99" height="2539.99"/>
  <g id="_2685378975488">
   <g id="_2650176420080">
    <path class="fil1" d="M921.99 958.43l687.3 -5.36 -334.93 995.89 -352.37 -990.53zm-620.79 -0.53l472.17 -4.28 310.87 888.14 -783.04 -883.86zm1541.75 -136.71c9.74,-53.07 165.37,-262.44 198.86,-313.35l209.65 314.71 -408.51 -1.36zm-857.05 0.67c21.02,-48.66 244.65,-301.44 288.21,-329.68l275.28 330.57 -563.49 -0.89zm-701.52 -2.49c68.39,-97.2 141.87,-216.55 214.56,-310.56 36.65,55.29 183.64,265.54 192.81,313.93l-407.37 -3.37zm1142.65 -372.71l486.36 2.73 -215.7 323.96 -270.66 -326.69zm-800.53 -0.49l487.09 -0.42c-23.71,50.93 -245.1,304.99 -285.11,322.95l-201.98 -322.53zm1226.39 959.18c91.16,48.67 112.7,81.12 181.24,-12.98l400.72 -456.4c41.59,-82.94 -99.79,-245.67 -188.72,-370.07 -38.51,-53.86 -78.75,-108.98 -113.97,-165.13 -64.55,-102.91 -78.31,-86.07 -199.96,-84.85 -382.83,3.81 -767.15,-0.12 -1150.16,0.15 -256.61,0.18 -285.68,-61 -427.16,153.17 -306.14,463.44 -350.59,365.17 -70.77,678.49 90.39,101.2 180.65,202.82 268.49,306.22 171.39,201.75 351.71,408.1 528.02,605.72 114.6,128.46 156.58,263.86 297.25,88.88 216.28,-269.04 54.12,-86.31 57.1,-381.79 2.38,-235.43 118.04,-206.32 180.73,-399.32 35.54,-109.42 95.4,-318.66 144.52,-414.6l474 3.44 -381.33 449.07z"/>
    <path class="fil2" d="M1634.65 1747.61c-94.51,-33.64 -12.54,-209.12 144.08,-193.68 -7.98,93.86 -30.72,25.52 -90.93,87.78 -33.61,34.77 -21.81,64.99 -53.15,105.9zm-108.81 53.65c25.45,148.52 312.4,411.08 430.05,390.3 44.72,-7.9 206.2,-128.19 250.37,-162.63 239.3,-186.57 156.6,-478.83 3.98,-543.08 -170.2,-71.66 -227.61,81.03 -284.01,64.56 -70.98,-20.72 -137.42,-152.33 -292.07,-44.8 -96.96,67.42 -127.47,183.84 -108.32,295.65z"/>
   </g>
  </g>
 </g>
</svg>
