<?xml version="1.0" encoding="UTF-8"?>
<!DOCTYPE svg PUBLIC "-//W3C//DTD SVG 1.1//EN" "http://www.w3.org/Graphics/SVG/1.1/DTD/svg11.dtd">
<!-- Creator: CorelDRAW 2017 -->
<svg xmlns="http://www.w3.org/2000/svg" xml:space="preserve" width="25.3998mm" height="25.3998mm" version="1.1" style="shape-rendering:geometricPrecision; text-rendering:geometricPrecision; image-rendering:optimizeQuality; fill-rule:evenodd; clip-rule:evenodd"
viewBox="0 0 2539.98 2539.98"
 xmlns:xlink="http://www.w3.org/1999/xlink">
 <defs>
  <style type="text/css">
   <![CDATA[
    .fil0 {fill:none}
    .fil1 {fill:#004171}
   ]]>
  </style>
 </defs>
 <g id="Capa_x0020_1">
  <metadata id="CorelCorpID_0Corel-Layer"/>
  <rect class="fil0" x="-0.01" y="-0.01" width="2539.99" height="2539.99"/>
  <g id="_2685553309984">
   <path class="fil1" d="M1216.32 2218.94l14 -1104.4 -622.61 -69.77c80.75,188.36 207.5,419.69 299.67,597.53 93.86,181.1 203.69,413.94 308.94,576.64z"/>
   <path class="fil1" d="M1325.63 1116.16l-22.8 1077.65c4.82,-4.07 12.02,-17.09 14.35,-13.08 13.38,23.04 143.74,-249.93 154.91,-270.44 55.14,-101.28 103.21,-186.12 149.25,-282.39 96.08,-200.91 196.7,-371.36 290.62,-559.69l-586.33 47.95z"/>
   <path class="fil1" d="M551.66 420.3c415.16,78.12 998.74,137.57 1409.62,-6.5 -157.94,-105.15 -480.08,-91.88 -690.12,-92.53l-552.08 37.39c-68.92,11.38 -116.79,17.63 -167.42,61.64z"/>
   <path class="fil1" d="M1567.38 1933.01c70.97,-49.12 497.57,-605.37 579.11,-707.35 61.55,-77 136.36,-157.55 188.32,-250.59 -414.5,94.39 -291.95,43.76 -471.42,378.48 -89.58,167.06 -239.45,407.94 -296.01,579.46z"/>
   <path class="fil1" d="M1365.63 1017.88l563.14 -41.57 -300.38 -356.29c-2.32,-2.02 -7.63,-6.83 -11.93,-9.57 -70.22,89.7 -210.72,317.55 -250.83,407.43z"/>
   <path class="fil1" d="M931.78 1891.66l-416 -828.98c-51.47,-66.49 -207.77,-90.84 -305.35,-110.44l721.35 939.42z"/>
   <path class="fil1" d="M628.36 955.25l554.36 68.88c-63.99,-135.5 -161.9,-276.37 -239.85,-411.21l-314.51 342.33z"/>
   <path class="fil1" d="M1271.16 979.43l246.53 -404.39 -487.76 4.59c34.27,87.87 178.42,331.04 241.23,399.8z"/>
   <path class="fil1" d="M2037.75 955.82l325.18 -77.01c-29.73,-67.13 -86.62,-129.52 -142.68,-182.91 -54.4,-51.81 -97.48,-138.17 -159.7,-162.37l-22.8 422.29z"/>
   <path class="fil1" d="M563.63 879.94c6.76,-2 185.58,-176.66 286.33,-320.76l-309.35 -50.08 23.02 370.84z"/>
   <path class="fil1" d="M177.06 846.38l302.86 87.08 -60.01 -402.86c-61.19,118.64 -142.65,175.54 -242.85,315.78z"/>
   <path class="fil1" d="M1713.22 557.45c26.97,48.49 71.04,109.09 109.03,148.66 65.09,67.79 74.1,108.83 137.12,145.47l15.62 -343.16 -261.77 49.03z"/>
  </g>
 </g>
</svg>
