<?xml version="1.0" encoding="UTF-8"?>
<!DOCTYPE svg PUBLIC "-//W3C//DTD SVG 1.1//EN" "http://www.w3.org/Graphics/SVG/1.1/DTD/svg11.dtd">
<!-- Creator: CorelDRAW 2017 -->
<svg xmlns="http://www.w3.org/2000/svg" xml:space="preserve" width="25.3998mm" height="25.3998mm" version="1.1" style="shape-rendering:geometricPrecision; text-rendering:geometricPrecision; image-rendering:optimizeQuality; fill-rule:evenodd; clip-rule:evenodd"
viewBox="0 0 2539.98 2539.98"
 xmlns:xlink="http://www.w3.org/1999/xlink">
 <defs>
  <style type="text/css">
   <![CDATA[
    .fil0 {fill:none}
    .fil3 {fill:#585570}
    .fil4 {fill:#52658C}
    .fil2 {fill:#0098DA}
    .fil1 {fill:url(#id0)}
   ]]>
  </style>
  <linearGradient id="id0" gradientUnits="userSpaceOnUse" x1="750.13" y1="536.71" x2="508.98" y2="2161.3">
   <stop offset="0" style="stop-opacity:1; stop-color:#585570"/>
   <stop offset="0.258824" style="stop-opacity:1; stop-color:#0098DA"/>
   <stop offset="1" style="stop-opacity:1; stop-color:#6B809B"/>
  </linearGradient>
 </defs>
 <g id="Capa_x0020_1">
  <metadata id="CorelCorpID_0Corel-Layer"/>
  <rect class="fil0" x="-0.01" y="-0.01" width="2539.99" height="2539.99"/>
  <g id="_2685303341856">
   <path class="fil1" d="M928.33 950.08l688.65 -0.61 -335.07 997.58 -353.58 -996.97zm535.51 897.71l300.04 -895.81 474.52 -2.66 -774.56 898.47zm-1152.76 -892.62l467.94 -5.17 315.77 894.55 -783.71 -889.38zm1733.7 -449.65l215.68 308.83 -412.56 4.72 196.88 -313.55zm-769.97 -20.54c21.63,17.09 130.42,139.44 148.81,164.48 6.25,8.5 139.52,165.96 139.82,166.2l-570.39 3.48 281.76 -334.16zm-773.42 19.75c48.71,65.16 188.42,256.83 199.62,314.57l-404.01 -0.16 204.39 -314.41zm927.42 -55.27l486.34 -6.42 -203.64 325.08 -282.7 -318.66zm-600.6 319.72c-36.18,-105.77 -139.67,-219.4 -193.62,-325.38l486.55 -0.73c-29,57.39 -234.42,288.67 -292.93,326.11zm-361.19 -455.57c-62.38,87.7 -116.96,176.92 -177.6,262.82 -283.76,401.98 -259.56,241.22 162.25,749.72l605.28 692.69c238.48,237.15 130.69,395.76 649.43,-239.16l608.58 -705.79c222.3,-236.66 178.01,-154.68 -229.68,-760.91l-1618.26 0.63z"/>
   <path class="fil2" d="M127.91 1493.64c36.26,14.9 68.26,16.03 106.09,57.59 39.53,43.41 43.74,98.07 52.08,132.75 26.83,-48.68 24.4,-88.18 62.59,-132.44 21.79,-25.26 29.13,-27.38 56.31,-40.38l72.22 -34.83c-134.44,-41.11 -115.08,-59.86 -185.86,-157.69 -64.55,86.82 -68.87,139.41 -199.03,157.42 3.58,2.55 8.84,5.03 11.6,6.32l24 11.26z"/>
   <path class="fil3" d="M353.66 1791.34c45.27,38.31 84.09,58.41 104.26,124.45l21.74 -32.62c47.15,-71.24 39.57,-41.18 96.27,-88.54 -78.14,-31.84 -85.75,-39.06 -101.21,-121.24 -35.46,50.28 -55.54,93.98 -121.06,117.95z"/>
   <path class="fil4" d="M1863.25 1789.58c31.85,20.83 44.57,13.28 79.68,49.17l42.25 73.15c0.89,-2.45 3.61,7.72 5.86,11.32 26.52,-95.62 23.21,-98.14 122.17,-122.63 -94.25,-52.08 -101.84,-26.79 -127.29,-156.5 -22.58,111.33 -15.36,117.59 -122.67,145.49z"/>
  </g>
 </g>
</svg>
