<?xml version="1.0" encoding="UTF-8"?>
<!DOCTYPE svg PUBLIC "-//W3C//DTD SVG 1.1//EN" "http://www.w3.org/Graphics/SVG/1.1/DTD/svg11.dtd">
<!-- Creator: CorelDRAW 2017 -->
<svg xmlns="http://www.w3.org/2000/svg" xml:space="preserve" width="25.3998mm" height="25.3998mm" version="1.1" style="shape-rendering:geometricPrecision; text-rendering:geometricPrecision; image-rendering:optimizeQuality; fill-rule:evenodd; clip-rule:evenodd"
viewBox="0 0 2539.98 2539.98"
 xmlns:xlink="http://www.w3.org/1999/xlink">
 <defs>
  <style type="text/css">
   <![CDATA[
    .fil0 {fill:none}
    .fil2 {fill:url(#id0)}
    .fil1 {fill:url(#id1)}
   ]]>
  </style>
  <linearGradient id="id0" gradientUnits="userSpaceOnUse" x1="2219.04" y1="1992.14" x2="1704.15" y2="1850.43">
   <stop offset="0" style="stop-opacity:1; stop-color:#B11E30"/>
   <stop offset="0.419608" style="stop-opacity:1; stop-color:#EF2B2D"/>
   <stop offset="1" style="stop-opacity:1; stop-color:#E7112D"/>
  </linearGradient>
  <linearGradient id="id1" gradientUnits="userSpaceOnUse" x1="1632.47" y1="2080.72" x2="2609.76" y2="786.12">
   <stop offset="0" style="stop-opacity:1; stop-color:#3E4095"/>
   <stop offset="0.478431" style="stop-opacity:1; stop-color:#00AFEF"/>
   <stop offset="1" style="stop-opacity:1; stop-color:#585570"/>
  </linearGradient>
 </defs>
 <g id="Capa_x0020_1">
  <metadata id="CorelCorpID_0Corel-Layer"/>
  <rect class="fil0" x="-0.01" y="-0.01" width="2539.99" height="2539.99"/>
  <path class="fil1" d="M1454.06 1849.86l301.64 -899.67 469.3 1.45 -124.81 145.42c42.51,19.38 77.16,53.1 97.73,94.96 2.2,3.01 4.31,6.08 6.36,9.2 134.06,-155.06 233.81,-275.44 246.35,-305.84 -20.76,-86.77 -303.41,-472.44 -373.48,-579.49l-1624.68 -2.15c-412.84,695.5 -499.2,456.07 -126.07,878.38l859.69 997.83c93.88,90.37 164.21,-9.86 223.57,-82.22 65.47,-79.8 216.09,-249.9 383.01,-438.4l0 -158.67c0,-25.27 8.43,-48.62 22.61,-67.39 0.23,-4.31 0.75,-8.55 1.5,-12.69l-1.35 -1.75 -361.37 421.03zm-183.58 100.07l-349.5 -994.07 681.95 -3.78 -332.45 997.85zm-968.12 -992.09l467.81 -6.64 314.83 893.84 -782.64 -887.2zm1733.84 -449.44c35.87,32.91 199.03,268.26 208.4,313.87l-413.74 -5.96 205.34 -307.91zm-767.15 -22.49l281.87 335.68 -574.47 -6.34 292.6 -329.34zm-983.28 336.15c12.59,-50.21 174.19,-267.41 212.48,-315.4l198.05 314.39 -410.53 1.01zm1426.29 -51.86c-43.49,-28.12 -258.36,-261.25 -288.76,-325.55l478.78 0.15c-33.32,112.52 -153.61,208.47 -190.02,325.4zm-1084.46 -325.32l486.82 3.76 -283.09 321.2 -203.73 -324.96z"/>
  <path class="fil2" d="M1611.44 2034.45c0,130.38 106.08,236.46 236.46,236.46 64.28,0 124.82,-25.99 168.9,-71.14 44.08,45.15 104.62,71.14 168.9,71.14 130.38,0 236.46,-106.08 236.46,-236.46 0,-118.91 -88.24,-217.59 -202.68,-234.03l0 -310.95c0,-25.93 -9.81,-49.61 -25.89,-67.56 16.08,-17.94 25.89,-41.62 25.89,-67.55l0 -33.78c0,-111.76 -90.92,-202.68 -202.68,-202.68 -111.75,0 -202.68,90.92 -202.68,202.68l0 33.78c0,25.93 9.81,49.61 25.89,67.55 -16.08,17.95 -25.89,41.63 -25.89,67.56l0 310.95c-114.43,16.44 -202.67,115.12 -202.67,234.03l-0.01 0zm270.24 -713.87c0,-62.85 43.13,-115.81 101.34,-130.85l0 63.29c0,18.65 15.12,33.78 33.78,33.78 18.66,0 33.78,-15.13 33.78,-33.78l0 -63.29c58.21,15.04 101.34,68 101.34,130.85l0 33.78c0,18.62 -15.15,33.78 -33.78,33.78l-202.68 0c-18.63,0 -33.78,-15.16 -33.78,-33.78l0 -33.78zm-67.56 548.37l0 97.94c0,18.66 15.13,33.78 33.78,33.78 18.66,0 33.78,-15.12 33.78,-33.78l0 -477.42c0,-18.62 15.16,-33.78 33.78,-33.78l202.68 0c18.63,0 33.78,15.16 33.78,33.78l0 477.42c0,18.66 15.12,33.78 33.78,33.78 18.65,0 33.78,-15.12 33.78,-33.78l0 -97.94c77,15.69 135.12,83.94 135.12,165.5 0,93.13 -75.77,168.9 -168.9,168.9 -56.66,0 -109.28,-28.33 -140.75,-75.78 -13.31,-20.07 -42.91,-20.2 -56.3,0 -31.47,47.45 -84.09,75.78 -140.75,75.78 -93.13,0 -168.9,-75.77 -168.9,-168.9 0,-81.56 58.12,-149.8 135.12,-165.5l0 0z"/>
 </g>
</svg>
